M48
; DRILL file {KiCad 9.0.3} date 2025-10-10T01:58:37-0400
; FORMAT={-:-/ absolute / metric / decimal}
; #@! TF.CreationDate,2025-10-10T01:58:37-04:00
; #@! TF.GenerationSoftware,Kicad,Pcbnew,9.0.3
; #@! TF.FileFunction,Plated,1,3,Blind
FMAT,2
METRIC
; #@! TA.AperFunction,Plated,Buried,ViaDrill
T1C0.150
; #@! TA.AperFunction,Plated,Buried,ViaDrill
T2C0.300
%
G90
G05
T1
X128.265Y-123.195
X129.137Y-102.999
X129.15Y-102.5
X131.0Y-109.9
X135.7Y-97.6
X135.7Y-99.2
X135.7Y-103.2
X135.7Y-105.6
X136.5Y-97.6
X136.5Y-99.2
X136.5Y-103.2
X136.5Y-104.8
X136.5Y-105.6
X137.3Y-97.6
X137.3Y-98.4
X137.3Y-100.0
X137.3Y-100.8
X137.3Y-101.6
X137.3Y-102.4
X137.3Y-104.8
X137.3Y-105.6
X138.1Y-97.6
X138.1Y-98.4
X138.1Y-101.6
X138.1Y-104.8
X138.1Y-105.6
X138.9Y-98.4
X138.9Y-100.0
X138.9Y-104.8
X138.9Y-105.6
X139.7Y-98.4
X139.7Y-104.8
X141.3Y-97.6
X141.3Y-105.6
X142.1Y-97.6
X142.1Y-98.4
X142.1Y-99.2
X142.9Y-97.6
X142.9Y-100.0
X142.9Y-100.8
X142.9Y-101.6
X142.9Y-102.4
X142.9Y-103.2
X142.9Y-104.0
X143.7Y-97.6
X143.7Y-98.4
X143.7Y-99.2
X143.7Y-100.0
X143.7Y-100.8
X143.7Y-101.6
X143.7Y-102.4
X143.7Y-103.2
X143.7Y-104.0
X143.7Y-104.8
X151.012Y-95.85
X151.012Y-96.35
X151.012Y-96.85
X151.012Y-97.35
X151.012Y-97.85
X151.012Y-98.35
X151.012Y-98.85
X151.012Y-99.35
X151.012Y-99.85
X151.012Y-100.85
X151.012Y-101.35
X151.012Y-102.35
X151.012Y-102.85
X151.012Y-103.35
X151.012Y-103.85
X151.012Y-104.35
X151.012Y-104.85
X151.012Y-105.35
X151.012Y-105.85
X151.012Y-106.35
X151.012Y-106.85
X151.012Y-107.35
X166.64Y-90.634
T2
X109.094Y-116.206
X121.378Y-101.778
X150.52Y-86.25
X151.013Y-84.165
X165.3Y-86.28
X165.821Y-84.175
M30
