%TF.GenerationSoftware,KiCad,Pcbnew,9.0.3*%
%TF.CreationDate,2025-10-26T12:54:33-04:00*%
%TF.ProjectId,SeedSBC_rev1_1,53656564-5342-4435-9f72-6576315f312e,rev?*%
%TF.SameCoordinates,Original*%
%TF.FileFunction,Copper,L5,Inr*%
%TF.FilePolarity,Positive*%
%FSLAX46Y46*%
G04 Gerber Fmt 4.6, Leading zero omitted, Abs format (unit mm)*
G04 Created by KiCad (PCBNEW 9.0.3) date 2025-10-26 12:54:33*
%MOMM*%
%LPD*%
G01*
G04 APERTURE LIST*
G04 Aperture macros list*
%AMRoundRect*
0 Rectangle with rounded corners*
0 $1 Rounding radius*
0 $2 $3 $4 $5 $6 $7 $8 $9 X,Y pos of 4 corners*
0 Add a 4 corners polygon primitive as box body*
4,1,4,$2,$3,$4,$5,$6,$7,$8,$9,$2,$3,0*
0 Add four circle primitives for the rounded corners*
1,1,$1+$1,$2,$3*
1,1,$1+$1,$4,$5*
1,1,$1+$1,$6,$7*
1,1,$1+$1,$8,$9*
0 Add four rect primitives between the rounded corners*
20,1,$1+$1,$2,$3,$4,$5,0*
20,1,$1+$1,$4,$5,$6,$7,0*
20,1,$1+$1,$6,$7,$8,$9,0*
20,1,$1+$1,$8,$9,$2,$3,0*%
G04 Aperture macros list end*
%TA.AperFunction,HeatsinkPad*%
%ADD10O,2.100000X1.000000*%
%TD*%
%TA.AperFunction,HeatsinkPad*%
%ADD11O,1.800000X1.000000*%
%TD*%
%TA.AperFunction,ComponentPad*%
%ADD12RoundRect,0.250000X-0.350000X-0.625000X0.350000X-0.625000X0.350000X0.625000X-0.350000X0.625000X0*%
%TD*%
%TA.AperFunction,ComponentPad*%
%ADD13O,1.200000X1.750000*%
%TD*%
%TA.AperFunction,HeatsinkPad*%
%ADD14O,1.000000X2.100000*%
%TD*%
%TA.AperFunction,HeatsinkPad*%
%ADD15O,1.000000X1.800000*%
%TD*%
%TA.AperFunction,ComponentPad*%
%ADD16R,1.700000X1.700000*%
%TD*%
%TA.AperFunction,ComponentPad*%
%ADD17C,1.700000*%
%TD*%
%TA.AperFunction,HeatsinkPad*%
%ADD18C,0.500000*%
%TD*%
%TA.AperFunction,ComponentPad*%
%ADD19R,0.850000X0.850000*%
%TD*%
%TA.AperFunction,ComponentPad*%
%ADD20C,0.850000*%
%TD*%
%TA.AperFunction,ViaPad*%
%ADD21C,0.600000*%
%TD*%
%TA.AperFunction,ViaPad*%
%ADD22C,0.300000*%
%TD*%
%TA.AperFunction,ViaPad*%
%ADD23C,1.250000*%
%TD*%
%TA.AperFunction,Conductor*%
%ADD24C,0.330200*%
%TD*%
%TA.AperFunction,Conductor*%
%ADD25C,0.381000*%
%TD*%
%TA.AperFunction,Conductor*%
%ADD26C,0.200000*%
%TD*%
G04 APERTURE END LIST*
D10*
%TO.N,Net-(J6-SHIELD)*%
%TO.C,J6*%
X108257500Y-111905000D03*
D11*
X104077500Y-111905000D03*
D10*
X108257500Y-120545000D03*
D11*
X104077500Y-120545000D03*
%TD*%
D12*
%TO.N,V_BAT*%
%TO.C,J3*%
X111960000Y-123740000D03*
D13*
%TO.N,GND*%
X113960000Y-123740000D03*
%TD*%
D14*
%TO.N,GND*%
%TO.C,J1*%
X170140000Y-82815000D03*
D15*
X170140000Y-78635000D03*
D14*
X161500000Y-82815000D03*
D15*
X161500000Y-78635000D03*
%TD*%
D14*
%TO.N,GND*%
%TO.C,J7*%
X155320000Y-82815000D03*
D15*
X155320000Y-78635000D03*
D14*
X146680000Y-82815000D03*
D15*
X146680000Y-78635000D03*
%TD*%
D16*
%TO.N,/FPGA + SRAM/FPGA/SPI_CNFG_CS*%
%TO.C,J4*%
X119380000Y-124460000D03*
D17*
%TO.N,/FPGA + SRAM/FPGA/SPI_CNFG_SCK*%
X121920000Y-124460000D03*
%TO.N,/FPGA + SRAM/FPGA/SPI_CNFG_DI*%
X124460000Y-124460000D03*
%TO.N,/FPGA + SRAM/FPGA/SPI_CNFG_DO*%
X127000000Y-124460000D03*
%TO.N,P3V3*%
X129540000Y-124460000D03*
%TO.N,GND*%
X132080000Y-124460000D03*
%TD*%
D18*
%TO.N,GND*%
%TO.C,U9*%
X116647500Y-117030000D03*
X117827500Y-117030000D03*
X116647500Y-115850000D03*
X117827500Y-115850000D03*
%TD*%
D16*
%TO.N,GND*%
%TO.C,J8*%
X170180000Y-124460000D03*
D17*
%TO.N,/FPGA + SRAM/IO_B1*%
X167640000Y-124460000D03*
%TO.N,/FPGA + SRAM/IO_B2*%
X165100000Y-124460000D03*
%TO.N,/FPGA + SRAM/IO_B3*%
X162560000Y-124460000D03*
%TO.N,/FPGA + SRAM/IO_B4*%
X160020000Y-124460000D03*
%TO.N,/FPGA + SRAM/IO_B5*%
X157480000Y-124460000D03*
%TO.N,/FPGA + SRAM/IO_B6*%
X154940000Y-124460000D03*
%TO.N,/FPGA + SRAM/IO_B7*%
X152400000Y-124460000D03*
%TO.N,/FPGA + SRAM/IO_B8*%
X149860000Y-124460000D03*
%TO.N,/FPGA + SRAM/IO_B9*%
X147320000Y-124460000D03*
%TO.N,/FPGA + SRAM/IO_B10*%
X144780000Y-124460000D03*
%TO.N,GND*%
X142240000Y-124460000D03*
%TO.N,P3V3*%
X139700000Y-124460000D03*
%TO.N,V_BAT*%
X137160000Y-124460000D03*
%TD*%
D16*
%TO.N,GND*%
%TO.C,J5*%
X142240000Y-78740000D03*
D17*
%TO.N,/FPGA + SRAM/IO_T1*%
X139700000Y-78740000D03*
%TO.N,/FPGA + SRAM/IO_T2*%
X137160000Y-78740000D03*
%TO.N,/FPGA + SRAM/IO_T3*%
X134620000Y-78740000D03*
%TO.N,/FPGA + SRAM/IO_T4*%
X132080000Y-78740000D03*
%TO.N,/FPGA + SRAM/IO_T5*%
X129540000Y-78740000D03*
%TO.N,/FPGA + SRAM/IO_T6*%
X127000000Y-78740000D03*
%TO.N,/FPGA + SRAM/IO_T7*%
X124460000Y-78740000D03*
%TO.N,/FPGA + SRAM/IO_T8*%
X121920000Y-78740000D03*
%TO.N,/FPGA + SRAM/IO_T9*%
X119380000Y-78740000D03*
%TO.N,/FPGA + SRAM/IO_T10*%
X116840000Y-78740000D03*
%TO.N,USB_VBUS2*%
X114300000Y-78740000D03*
%TO.N,EN*%
X111760000Y-78740000D03*
%TO.N,USB_VBUS*%
X109220000Y-78740000D03*
%TD*%
D19*
%TO.N,EXT_PLL2P*%
%TO.C,J9*%
X132080000Y-93000000D03*
D20*
%TO.N,EXT_PLL2N*%
X132080000Y-94000000D03*
%TO.N,EXT_PLL1P*%
X132080000Y-95000000D03*
%TO.N,EXT_PLL1N*%
X132080000Y-96000000D03*
%TD*%
D21*
%TO.N,P2V5*%
X145400000Y-93500000D03*
%TO.N,Net-(D3-BK)*%
X171990000Y-120940000D03*
%TO.N,GND*%
X121560000Y-98760000D03*
D22*
X120500000Y-103000000D03*
D21*
X155150000Y-113400000D03*
X159150000Y-84170000D03*
X150640000Y-109010000D03*
X157700000Y-84170000D03*
X155200000Y-109040000D03*
X159130000Y-88350000D03*
X150640000Y-113390000D03*
X123441331Y-103283871D03*
X108900000Y-109400000D03*
X157680000Y-88340000D03*
X108828091Y-123041263D03*
X121550000Y-86630000D03*
X147813171Y-93290187D03*
X140690000Y-87650000D03*
X142880000Y-93280000D03*
%TO.N,V_SYS*%
X109400437Y-94291884D03*
X117690000Y-111313769D03*
X109416600Y-89957400D03*
X117796100Y-114069354D03*
X106416600Y-89957400D03*
X104690000Y-104740000D03*
X108600000Y-96100000D03*
X104370000Y-90510000D03*
X106160000Y-104750000D03*
X116332753Y-112564539D03*
D22*
X118700000Y-117200000D03*
D21*
%TO.N,Net-(D3-GK)*%
X171990000Y-118850000D03*
%TO.N,Net-(D3-RK)*%
X172000000Y-119890000D03*
D22*
%TO.N,/FPGA + SRAM/SD_DAT0*%
X118120000Y-85200000D03*
D21*
%TO.N,/FPGA + SRAM/LED_B*%
X169170000Y-121350000D03*
D22*
%TO.N,/FPGA + SRAM/SD_CLK*%
X118120000Y-87400000D03*
%TO.N,/FPGA + SRAM/SD_DAT1*%
X118120000Y-84100000D03*
%TO.N,/FPGA + SRAM/SD_DAT3*%
X118120000Y-90700000D03*
%TO.N,/FPGA + SRAM/FPGA/SPI_CNFG_CS*%
X142900000Y-104800000D03*
X136025000Y-109560000D03*
%TO.N,P1V2*%
X138100000Y-103200000D03*
X141300000Y-103200000D03*
D21*
X113601868Y-97358040D03*
D22*
X138100000Y-100000000D03*
X141300000Y-100000000D03*
D21*
X111850000Y-97360000D03*
X140350000Y-92500000D03*
X140350000Y-91000000D03*
X140350000Y-89530000D03*
X143070000Y-90350000D03*
%TO.N,/FPGA + SRAM/LED_R*%
X169170000Y-119890000D03*
D22*
%TO.N,/SD MMC/SD_CMD*%
X118120000Y-89600000D03*
D21*
%TO.N,USB_VBUS*%
X111530000Y-113909267D03*
X115477983Y-115303221D03*
%TO.N,P3V3*%
X131054636Y-106531013D03*
D22*
X138100000Y-102400000D03*
D21*
X149650000Y-115120000D03*
X124171159Y-109695795D03*
X113295500Y-106900000D03*
X112190000Y-104740000D03*
X125547678Y-91021303D03*
X128193413Y-101606587D03*
X174320000Y-100030000D03*
X122091162Y-109098405D03*
X126800000Y-93545219D03*
X132073916Y-110537824D03*
X128600000Y-93536958D03*
X176840000Y-118840000D03*
D22*
X141300000Y-101600000D03*
D21*
X143510000Y-119580000D03*
D22*
X139700000Y-100000000D03*
D21*
X111536525Y-101999133D03*
D22*
X139700000Y-103200000D03*
D21*
X143922983Y-107222885D03*
X132070000Y-112000000D03*
D22*
X122700000Y-106200000D03*
D21*
X125548907Y-92477174D03*
X170040000Y-109660000D03*
X125629130Y-109700650D03*
X127090000Y-109700000D03*
D22*
X138100000Y-100800000D03*
D21*
X111540000Y-103310000D03*
X152190000Y-113390000D03*
X121640000Y-92530000D03*
X153600000Y-109010000D03*
X153600000Y-111930000D03*
X121640000Y-89610000D03*
X152190000Y-110470000D03*
X124320000Y-97550000D03*
X176530000Y-97040000D03*
X124300000Y-104710000D03*
D22*
%TO.N,/FPGA + SRAM/SD_DAT2*%
X118120000Y-91800000D03*
D21*
%TO.N,/FPGA + SRAM/LED_G*%
X169170000Y-118400000D03*
%TO.N,P2V5*%
X126198000Y-111901000D03*
D22*
%TO.N,/FPGA + SRAM/FPGA/SPI_CNFG_DO*%
X142100000Y-104800000D03*
X136025000Y-110830000D03*
%TO.N,Net-(U8-REF)*%
X120500000Y-100500000D03*
%TO.N,Net-(U8-~{RESET})*%
X120500000Y-104500000D03*
%TO.N,Net-(U8-VPLL)*%
X120500000Y-102000000D03*
%TO.N,Net-(U8-VPHY)*%
X120500000Y-99500000D03*
D23*
%TO.N,USB_VBUS2*%
X112410000Y-85540000D03*
D21*
X162050000Y-85830000D03*
X146700000Y-85190000D03*
X170050000Y-85200000D03*
D23*
X112420000Y-82980000D03*
D21*
X154730000Y-85820000D03*
X156155000Y-88350000D03*
X160670000Y-88360000D03*
X176380000Y-86000000D03*
%TD*%
D24*
%TO.N,USB_VBUS*%
X115474762Y-115300000D02*
X115477983Y-115303221D01*
D25*
X111530000Y-113909267D02*
X114084029Y-113909267D01*
D26*
X115465204Y-115316000D02*
X115477983Y-115303221D01*
D25*
X114084029Y-113909267D02*
X115477983Y-115303221D01*
%TD*%
%TA.AperFunction,Conductor*%
%TO.N,P3V3*%
G36*
X138025706Y-100519685D02*
G01*
X138033067Y-100524800D01*
X138350400Y-100762800D01*
X138392221Y-100818771D01*
X138400000Y-100862000D01*
X138400000Y-102338000D01*
X138380315Y-102405039D01*
X138350400Y-102437200D01*
X138033067Y-102675200D01*
X137967625Y-102699676D01*
X137958667Y-102700000D01*
X134620000Y-102700000D01*
X134620000Y-100500000D01*
X137958667Y-100500000D01*
X138025706Y-100519685D01*
G37*
%TD.AperFunction*%
%TD*%
%TA.AperFunction,Conductor*%
%TO.N,USB_VBUS2*%
G36*
X177242539Y-76720185D02*
G01*
X177288294Y-76772989D01*
X177299500Y-76824500D01*
X177299500Y-95126000D01*
X177279815Y-95193039D01*
X177227011Y-95238794D01*
X177175500Y-95250000D01*
X149349000Y-95250000D01*
X149281961Y-95230315D01*
X149236206Y-95177511D01*
X149225000Y-95126000D01*
X149225000Y-91440000D01*
X144904000Y-91440000D01*
X144836961Y-91420315D01*
X144791206Y-91367511D01*
X144780000Y-91316000D01*
X144780000Y-88900000D01*
X144141153Y-88261153D01*
X156879500Y-88261153D01*
X156879500Y-88418846D01*
X156910261Y-88573489D01*
X156910264Y-88573501D01*
X156970602Y-88719172D01*
X156970609Y-88719185D01*
X157058210Y-88850288D01*
X157058213Y-88850292D01*
X157169707Y-88961786D01*
X157169711Y-88961789D01*
X157300814Y-89049390D01*
X157300827Y-89049397D01*
X157410258Y-89094724D01*
X157446503Y-89109737D01*
X157601153Y-89140499D01*
X157601156Y-89140500D01*
X157601158Y-89140500D01*
X157758844Y-89140500D01*
X157758845Y-89140499D01*
X157913497Y-89109737D01*
X158026166Y-89063067D01*
X158059172Y-89049397D01*
X158059172Y-89049396D01*
X158059179Y-89049394D01*
X158190289Y-88961789D01*
X158301789Y-88850289D01*
X158301791Y-88850285D01*
X158305653Y-88845581D01*
X158307854Y-88847387D01*
X158352050Y-88810373D01*
X158421366Y-88801593D01*
X158484425Y-88831682D01*
X158504762Y-88855127D01*
X158508212Y-88860291D01*
X158619707Y-88971786D01*
X158619711Y-88971789D01*
X158750814Y-89059390D01*
X158750827Y-89059397D01*
X158872363Y-89109738D01*
X158896503Y-89119737D01*
X159051153Y-89150499D01*
X159051156Y-89150500D01*
X159051158Y-89150500D01*
X159208844Y-89150500D01*
X159208845Y-89150499D01*
X159363497Y-89119737D01*
X159509179Y-89059394D01*
X159640289Y-88971789D01*
X159751789Y-88860289D01*
X159839394Y-88729179D01*
X159899737Y-88583497D01*
X159930500Y-88428842D01*
X159930500Y-88271158D01*
X159930500Y-88271155D01*
X159930499Y-88271153D01*
X159928510Y-88261153D01*
X159899737Y-88116503D01*
X159872398Y-88050500D01*
X159839397Y-87970827D01*
X159839390Y-87970814D01*
X159751789Y-87839711D01*
X159751786Y-87839707D01*
X159640292Y-87728213D01*
X159640288Y-87728210D01*
X159509185Y-87640609D01*
X159509172Y-87640602D01*
X159363501Y-87580264D01*
X159363489Y-87580261D01*
X159208845Y-87549500D01*
X159208842Y-87549500D01*
X159051158Y-87549500D01*
X159051155Y-87549500D01*
X158896510Y-87580261D01*
X158896498Y-87580264D01*
X158750827Y-87640602D01*
X158750814Y-87640609D01*
X158619711Y-87728210D01*
X158619707Y-87728213D01*
X158508213Y-87839707D01*
X158504347Y-87844419D01*
X158502236Y-87842687D01*
X158457373Y-87879876D01*
X158388013Y-87888305D01*
X158325107Y-87857897D01*
X158305236Y-87834869D01*
X158301791Y-87829713D01*
X158301786Y-87829707D01*
X158190292Y-87718213D01*
X158190288Y-87718210D01*
X158059185Y-87630609D01*
X158059172Y-87630602D01*
X157913501Y-87570264D01*
X157913489Y-87570261D01*
X157758845Y-87539500D01*
X157758842Y-87539500D01*
X157601158Y-87539500D01*
X157601155Y-87539500D01*
X157446510Y-87570261D01*
X157446498Y-87570264D01*
X157300827Y-87630602D01*
X157300814Y-87630609D01*
X157169711Y-87718210D01*
X157169707Y-87718213D01*
X157058213Y-87829707D01*
X157058210Y-87829711D01*
X156970609Y-87960814D01*
X156970602Y-87960827D01*
X156910264Y-88106498D01*
X156910261Y-88106510D01*
X156879500Y-88261153D01*
X144141153Y-88261153D01*
X139700000Y-83820000D01*
X118781538Y-83820000D01*
X118714499Y-83800315D01*
X118678436Y-83764891D01*
X118625276Y-83685331D01*
X118625274Y-83685328D01*
X118534672Y-83594726D01*
X118534668Y-83594723D01*
X118428133Y-83523538D01*
X118428124Y-83523533D01*
X118309744Y-83474499D01*
X118309738Y-83474497D01*
X118254669Y-83463543D01*
X145679499Y-83463543D01*
X145717947Y-83656829D01*
X145717950Y-83656839D01*
X145793364Y-83838907D01*
X145793371Y-83838920D01*
X145902860Y-84002781D01*
X145902863Y-84002785D01*
X146042214Y-84142136D01*
X146042218Y-84142139D01*
X146206079Y-84251628D01*
X146206092Y-84251635D01*
X146298097Y-84289744D01*
X146388165Y-84327051D01*
X146388169Y-84327051D01*
X146388170Y-84327052D01*
X146581456Y-84365500D01*
X146581459Y-84365500D01*
X146778543Y-84365500D01*
X146908582Y-84339632D01*
X146971835Y-84327051D01*
X147153914Y-84251632D01*
X147317782Y-84142139D01*
X147457139Y-84002782D01*
X147566632Y-83838914D01*
X147642051Y-83656835D01*
X147668566Y-83523538D01*
X147680500Y-83463543D01*
X147680500Y-82888597D01*
X147700185Y-82821558D01*
X147752989Y-82775803D01*
X147822147Y-82765859D01*
X147866495Y-82781208D01*
X147907164Y-82804688D01*
X148040817Y-82840500D01*
X148040819Y-82840500D01*
X148179181Y-82840500D01*
X148179183Y-82840500D01*
X148312836Y-82804688D01*
X148432665Y-82735505D01*
X148530505Y-82637665D01*
X148599688Y-82517836D01*
X148635500Y-82384183D01*
X148635500Y-82245817D01*
X153364500Y-82245817D01*
X153364500Y-82384182D01*
X153400312Y-82517835D01*
X153400313Y-82517838D01*
X153469492Y-82637661D01*
X153469494Y-82637664D01*
X153469495Y-82637665D01*
X153567335Y-82735505D01*
X153567336Y-82735506D01*
X153567338Y-82735507D01*
X153619910Y-82765859D01*
X153687164Y-82804688D01*
X153820817Y-82840500D01*
X153820819Y-82840500D01*
X153959181Y-82840500D01*
X153959183Y-82840500D01*
X154092836Y-82804688D01*
X154133502Y-82781209D01*
X154201399Y-82764737D01*
X154267426Y-82787589D01*
X154310617Y-82842510D01*
X154319500Y-82888597D01*
X154319500Y-83463541D01*
X154319500Y-83463543D01*
X154319499Y-83463543D01*
X154357947Y-83656829D01*
X154357950Y-83656839D01*
X154433364Y-83838907D01*
X154433371Y-83838920D01*
X154542860Y-84002781D01*
X154542863Y-84002785D01*
X154682214Y-84142136D01*
X154682218Y-84142139D01*
X154846079Y-84251628D01*
X154846092Y-84251635D01*
X154938097Y-84289744D01*
X155028165Y-84327051D01*
X155028169Y-84327051D01*
X155028170Y-84327052D01*
X155221456Y-84365500D01*
X155221459Y-84365500D01*
X155418543Y-84365500D01*
X155548582Y-84339632D01*
X155611835Y-84327051D01*
X155793914Y-84251632D01*
X155957782Y-84142139D01*
X156008768Y-84091153D01*
X156899500Y-84091153D01*
X156899500Y-84248846D01*
X156930261Y-84403489D01*
X156930264Y-84403501D01*
X156990602Y-84549172D01*
X156990609Y-84549185D01*
X157078210Y-84680288D01*
X157078213Y-84680292D01*
X157189707Y-84791786D01*
X157189711Y-84791789D01*
X157320814Y-84879390D01*
X157320827Y-84879397D01*
X157466498Y-84939735D01*
X157466503Y-84939737D01*
X157621153Y-84970499D01*
X157621156Y-84970500D01*
X157621158Y-84970500D01*
X157778844Y-84970500D01*
X157778845Y-84970499D01*
X157933497Y-84939737D01*
X158079179Y-84879394D01*
X158210289Y-84791789D01*
X158321789Y-84680289D01*
X158321791Y-84680285D01*
X158321896Y-84680130D01*
X158321971Y-84680066D01*
X158325653Y-84675581D01*
X158326503Y-84676279D01*
X158375506Y-84635323D01*
X158444831Y-84626613D01*
X158507860Y-84656766D01*
X158524239Y-84675669D01*
X158524347Y-84675581D01*
X158527653Y-84679610D01*
X158528104Y-84680130D01*
X158528208Y-84680286D01*
X158528213Y-84680292D01*
X158639707Y-84791786D01*
X158639711Y-84791789D01*
X158770814Y-84879390D01*
X158770827Y-84879397D01*
X158916498Y-84939735D01*
X158916503Y-84939737D01*
X159071153Y-84970499D01*
X159071156Y-84970500D01*
X159071158Y-84970500D01*
X159228844Y-84970500D01*
X159228845Y-84970499D01*
X159383497Y-84939737D01*
X159529179Y-84879394D01*
X159660289Y-84791789D01*
X159771789Y-84680289D01*
X159859394Y-84549179D01*
X159919737Y-84403497D01*
X159950500Y-84248842D01*
X159950500Y-84091158D01*
X159950500Y-84091155D01*
X159950499Y-84091153D01*
X159919737Y-83936503D01*
X159875000Y-83828497D01*
X159859397Y-83790827D01*
X159859390Y-83790814D01*
X159771789Y-83659711D01*
X159771786Y-83659707D01*
X159660292Y-83548213D01*
X159660288Y-83548210D01*
X159533576Y-83463543D01*
X160499499Y-83463543D01*
X160537947Y-83656829D01*
X160537950Y-83656839D01*
X160613364Y-83838907D01*
X160613371Y-83838920D01*
X160722860Y-84002781D01*
X160722863Y-84002785D01*
X160862214Y-84142136D01*
X160862218Y-84142139D01*
X161026079Y-84251628D01*
X161026092Y-84251635D01*
X161118097Y-84289744D01*
X161208165Y-84327051D01*
X161208169Y-84327051D01*
X161208170Y-84327052D01*
X161401456Y-84365500D01*
X161401459Y-84365500D01*
X161598543Y-84365500D01*
X161728582Y-84339632D01*
X161791835Y-84327051D01*
X161973914Y-84251632D01*
X162137782Y-84142139D01*
X162277139Y-84002782D01*
X162386632Y-83838914D01*
X162462051Y-83656835D01*
X162488566Y-83523538D01*
X162500500Y-83463543D01*
X162500500Y-82888597D01*
X162520185Y-82821558D01*
X162572989Y-82775803D01*
X162642147Y-82765859D01*
X162686495Y-82781208D01*
X162727164Y-82804688D01*
X162860817Y-82840500D01*
X162860819Y-82840500D01*
X162999181Y-82840500D01*
X162999183Y-82840500D01*
X163132836Y-82804688D01*
X163252665Y-82735505D01*
X163350505Y-82637665D01*
X163419688Y-82517836D01*
X163455500Y-82384183D01*
X163455500Y-82245817D01*
X168184500Y-82245817D01*
X168184500Y-82384182D01*
X168220312Y-82517835D01*
X168220313Y-82517838D01*
X168289492Y-82637661D01*
X168289494Y-82637664D01*
X168289495Y-82637665D01*
X168387335Y-82735505D01*
X168387336Y-82735506D01*
X168387338Y-82735507D01*
X168439910Y-82765859D01*
X168507164Y-82804688D01*
X168640817Y-82840500D01*
X168640819Y-82840500D01*
X168779181Y-82840500D01*
X168779183Y-82840500D01*
X168912836Y-82804688D01*
X168953502Y-82781209D01*
X169021399Y-82764737D01*
X169087426Y-82787589D01*
X169130617Y-82842510D01*
X169139500Y-82888597D01*
X169139500Y-83463541D01*
X169139500Y-83463543D01*
X169139499Y-83463543D01*
X169177947Y-83656829D01*
X169177950Y-83656839D01*
X169253364Y-83838907D01*
X169253371Y-83838920D01*
X169362860Y-84002781D01*
X169362863Y-84002785D01*
X169502214Y-84142136D01*
X169502218Y-84142139D01*
X169666079Y-84251628D01*
X169666092Y-84251635D01*
X169758097Y-84289744D01*
X169848165Y-84327051D01*
X169848169Y-84327051D01*
X169848170Y-84327052D01*
X170041456Y-84365500D01*
X170041459Y-84365500D01*
X170238543Y-84365500D01*
X170368582Y-84339632D01*
X170431835Y-84327051D01*
X170613914Y-84251632D01*
X170777782Y-84142139D01*
X170917139Y-84002782D01*
X171026632Y-83838914D01*
X171102051Y-83656835D01*
X171128566Y-83523538D01*
X171140500Y-83463543D01*
X171140500Y-82166456D01*
X171102052Y-81973170D01*
X171102051Y-81973169D01*
X171102051Y-81973165D01*
X171071514Y-81899441D01*
X171026635Y-81791092D01*
X171026628Y-81791079D01*
X170917139Y-81627218D01*
X170917136Y-81627214D01*
X170777785Y-81487863D01*
X170777781Y-81487860D01*
X170613920Y-81378371D01*
X170613907Y-81378364D01*
X170431839Y-81302950D01*
X170431829Y-81302947D01*
X170238543Y-81264500D01*
X170238541Y-81264500D01*
X170041459Y-81264500D01*
X170041457Y-81264500D01*
X169848170Y-81302947D01*
X169848160Y-81302950D01*
X169666092Y-81378364D01*
X169666079Y-81378371D01*
X169502218Y-81487860D01*
X169502214Y-81487863D01*
X169362863Y-81627214D01*
X169362860Y-81627218D01*
X169253371Y-81791079D01*
X169253368Y-81791086D01*
X169229455Y-81848816D01*
X169185613Y-81903219D01*
X169119319Y-81925283D01*
X169051620Y-81908003D01*
X169039665Y-81898716D01*
X169039110Y-81899441D01*
X169032661Y-81894492D01*
X168912838Y-81825313D01*
X168912837Y-81825312D01*
X168912836Y-81825312D01*
X168779183Y-81789500D01*
X168640817Y-81789500D01*
X168507164Y-81825312D01*
X168507161Y-81825313D01*
X168387338Y-81894492D01*
X168387333Y-81894496D01*
X168289496Y-81992333D01*
X168289492Y-81992338D01*
X168220313Y-82112161D01*
X168220312Y-82112164D01*
X168184500Y-82245817D01*
X163455500Y-82245817D01*
X163419688Y-82112164D01*
X163350505Y-81992335D01*
X163252665Y-81894495D01*
X163252664Y-81894494D01*
X163252661Y-81894492D01*
X163132838Y-81825313D01*
X163132837Y-81825312D01*
X163132836Y-81825312D01*
X162999183Y-81789500D01*
X162860817Y-81789500D01*
X162727164Y-81825312D01*
X162727161Y-81825313D01*
X162607338Y-81894492D01*
X162600890Y-81899441D01*
X162598799Y-81896717D01*
X162551258Y-81922573D01*
X162481575Y-81917470D01*
X162425712Y-81875504D01*
X162410544Y-81848814D01*
X162386635Y-81791092D01*
X162386628Y-81791079D01*
X162277139Y-81627218D01*
X162277136Y-81627214D01*
X162137785Y-81487863D01*
X162137781Y-81487860D01*
X161973920Y-81378371D01*
X161973907Y-81378364D01*
X161791839Y-81302950D01*
X161791829Y-81302947D01*
X161598543Y-81264500D01*
X161598541Y-81264500D01*
X161401459Y-81264500D01*
X161401457Y-81264500D01*
X161208170Y-81302947D01*
X161208160Y-81302950D01*
X161026092Y-81378364D01*
X161026079Y-81378371D01*
X160862218Y-81487860D01*
X160862214Y-81487863D01*
X160722863Y-81627214D01*
X160722860Y-81627218D01*
X160613371Y-81791079D01*
X160613364Y-81791092D01*
X160537950Y-81973160D01*
X160537947Y-81973170D01*
X160499500Y-82166456D01*
X160499500Y-82166459D01*
X160499500Y-83463541D01*
X160499500Y-83463543D01*
X160499499Y-83463543D01*
X159533576Y-83463543D01*
X159529185Y-83460609D01*
X159529172Y-83460602D01*
X159383501Y-83400264D01*
X159383489Y-83400261D01*
X159228845Y-83369500D01*
X159228842Y-83369500D01*
X159071158Y-83369500D01*
X159071155Y-83369500D01*
X158916510Y-83400261D01*
X158916498Y-83400264D01*
X158770827Y-83460602D01*
X158770814Y-83460609D01*
X158639711Y-83548210D01*
X158639707Y-83548213D01*
X158528213Y-83659707D01*
X158528208Y-83659713D01*
X158528098Y-83659879D01*
X158528017Y-83659945D01*
X158524347Y-83664419D01*
X158523498Y-83663722D01*
X158474484Y-83704681D01*
X158405158Y-83713384D01*
X158342132Y-83683226D01*
X158325759Y-83664331D01*
X158325653Y-83664419D01*
X158322378Y-83660428D01*
X158321902Y-83659879D01*
X158321791Y-83659713D01*
X158321786Y-83659707D01*
X158210292Y-83548213D01*
X158210288Y-83548210D01*
X158079185Y-83460609D01*
X158079172Y-83460602D01*
X157933501Y-83400264D01*
X157933489Y-83400261D01*
X157778845Y-83369500D01*
X157778842Y-83369500D01*
X157621158Y-83369500D01*
X157621155Y-83369500D01*
X157466510Y-83400261D01*
X157466498Y-83400264D01*
X157320827Y-83460602D01*
X157320814Y-83460609D01*
X157189711Y-83548210D01*
X157189707Y-83548213D01*
X157078213Y-83659707D01*
X157078210Y-83659711D01*
X156990609Y-83790814D01*
X156990602Y-83790827D01*
X156930264Y-83936498D01*
X156930261Y-83936510D01*
X156899500Y-84091153D01*
X156008768Y-84091153D01*
X156097139Y-84002782D01*
X156206632Y-83838914D01*
X156282051Y-83656835D01*
X156308566Y-83523538D01*
X156320500Y-83463543D01*
X156320500Y-82166456D01*
X156282052Y-81973170D01*
X156282051Y-81973169D01*
X156282051Y-81973165D01*
X156251514Y-81899441D01*
X156206635Y-81791092D01*
X156206628Y-81791079D01*
X156097139Y-81627218D01*
X156097136Y-81627214D01*
X155957785Y-81487863D01*
X155957781Y-81487860D01*
X155793920Y-81378371D01*
X155793907Y-81378364D01*
X155611839Y-81302950D01*
X155611829Y-81302947D01*
X155418543Y-81264500D01*
X155418541Y-81264500D01*
X155221459Y-81264500D01*
X155221457Y-81264500D01*
X155028170Y-81302947D01*
X155028160Y-81302950D01*
X154846092Y-81378364D01*
X154846079Y-81378371D01*
X154682218Y-81487860D01*
X154682214Y-81487863D01*
X154542863Y-81627214D01*
X154542860Y-81627218D01*
X154433371Y-81791079D01*
X154433368Y-81791086D01*
X154409455Y-81848816D01*
X154365613Y-81903219D01*
X154299319Y-81925283D01*
X154231620Y-81908003D01*
X154219665Y-81898716D01*
X154219110Y-81899441D01*
X154212661Y-81894492D01*
X154092838Y-81825313D01*
X154092837Y-81825312D01*
X154092836Y-81825312D01*
X153959183Y-81789500D01*
X153820817Y-81789500D01*
X153687164Y-81825312D01*
X153687161Y-81825313D01*
X153567338Y-81894492D01*
X153567333Y-81894496D01*
X153469496Y-81992333D01*
X153469492Y-81992338D01*
X153400313Y-82112161D01*
X153400312Y-82112164D01*
X153364500Y-82245817D01*
X148635500Y-82245817D01*
X148599688Y-82112164D01*
X148530505Y-81992335D01*
X148432665Y-81894495D01*
X148432664Y-81894494D01*
X148432661Y-81894492D01*
X148312838Y-81825313D01*
X148312837Y-81825312D01*
X148312836Y-81825312D01*
X148179183Y-81789500D01*
X148040817Y-81789500D01*
X147907164Y-81825312D01*
X147907161Y-81825313D01*
X147787338Y-81894492D01*
X147780890Y-81899441D01*
X147778799Y-81896717D01*
X147731258Y-81922573D01*
X147661575Y-81917470D01*
X147605712Y-81875504D01*
X147590544Y-81848814D01*
X147566635Y-81791092D01*
X147566628Y-81791079D01*
X147457139Y-81627218D01*
X147457136Y-81627214D01*
X147317785Y-81487863D01*
X147317781Y-81487860D01*
X147153920Y-81378371D01*
X147153907Y-81378364D01*
X146971839Y-81302950D01*
X146971829Y-81302947D01*
X146778543Y-81264500D01*
X146778541Y-81264500D01*
X146581459Y-81264500D01*
X146581457Y-81264500D01*
X146388170Y-81302947D01*
X146388160Y-81302950D01*
X146206092Y-81378364D01*
X146206079Y-81378371D01*
X146042218Y-81487860D01*
X146042214Y-81487863D01*
X145902863Y-81627214D01*
X145902860Y-81627218D01*
X145793371Y-81791079D01*
X145793364Y-81791092D01*
X145717950Y-81973160D01*
X145717947Y-81973170D01*
X145679500Y-82166456D01*
X145679500Y-82166459D01*
X145679500Y-83463541D01*
X145679500Y-83463543D01*
X145679499Y-83463543D01*
X118254669Y-83463543D01*
X118184071Y-83449500D01*
X118184069Y-83449500D01*
X118055931Y-83449500D01*
X118055929Y-83449500D01*
X117930261Y-83474497D01*
X117930255Y-83474499D01*
X117811875Y-83523533D01*
X117811866Y-83523538D01*
X117705331Y-83594723D01*
X117705327Y-83594726D01*
X117614725Y-83685328D01*
X117580553Y-83736470D01*
X117561563Y-83764891D01*
X117507953Y-83809696D01*
X117458462Y-83820000D01*
X113030000Y-83820000D01*
X113030000Y-85991138D01*
X113010315Y-86058177D01*
X112993681Y-86078819D01*
X111971681Y-87100819D01*
X111910358Y-87134304D01*
X111840666Y-87129320D01*
X111784733Y-87087448D01*
X111760316Y-87021984D01*
X111760000Y-87013138D01*
X111760000Y-80213239D01*
X111779685Y-80146200D01*
X111832489Y-80100445D01*
X111864603Y-80090766D01*
X111866282Y-80090500D01*
X111866287Y-80090500D01*
X112028855Y-80064751D01*
X112076238Y-80057247D01*
X112076238Y-80057246D01*
X112076243Y-80057246D01*
X112278412Y-79991557D01*
X112467816Y-79895051D01*
X112554138Y-79832335D01*
X112639786Y-79770109D01*
X112639788Y-79770106D01*
X112639792Y-79770104D01*
X112790104Y-79619792D01*
X112790106Y-79619788D01*
X112790109Y-79619786D01*
X112875890Y-79501717D01*
X112915051Y-79447816D01*
X112919793Y-79438508D01*
X112967763Y-79387711D01*
X113035583Y-79370911D01*
X113101719Y-79393445D01*
X113140763Y-79438500D01*
X113145373Y-79447547D01*
X113184728Y-79501716D01*
X113817037Y-78869408D01*
X113834075Y-78932993D01*
X113899901Y-79047007D01*
X113992993Y-79140099D01*
X114107007Y-79205925D01*
X114170590Y-79222962D01*
X113538282Y-79855269D01*
X113538282Y-79855270D01*
X113592449Y-79894624D01*
X113781782Y-79991095D01*
X113983870Y-80056757D01*
X114193754Y-80090000D01*
X114406246Y-80090000D01*
X114616127Y-80056757D01*
X114616130Y-80056757D01*
X114818217Y-79991095D01*
X115007554Y-79894622D01*
X115061716Y-79855270D01*
X115061717Y-79855270D01*
X114429408Y-79222962D01*
X114492993Y-79205925D01*
X114607007Y-79140099D01*
X114700099Y-79047007D01*
X114765925Y-78932993D01*
X114782962Y-78869408D01*
X115415270Y-79501717D01*
X115415270Y-79501716D01*
X115454622Y-79447555D01*
X115459232Y-79438507D01*
X115507205Y-79387709D01*
X115575025Y-79370912D01*
X115641161Y-79393447D01*
X115680204Y-79438504D01*
X115684949Y-79447817D01*
X115809890Y-79619786D01*
X115960213Y-79770109D01*
X116132179Y-79895048D01*
X116132181Y-79895049D01*
X116132184Y-79895051D01*
X116321588Y-79991557D01*
X116523757Y-80057246D01*
X116733713Y-80090500D01*
X116733714Y-80090500D01*
X116946286Y-80090500D01*
X116946287Y-80090500D01*
X117156243Y-80057246D01*
X117358412Y-79991557D01*
X117547816Y-79895051D01*
X117634138Y-79832335D01*
X117719786Y-79770109D01*
X117719788Y-79770106D01*
X117719792Y-79770104D01*
X117870104Y-79619792D01*
X117870106Y-79619788D01*
X117870109Y-79619786D01*
X117995048Y-79447820D01*
X117995047Y-79447820D01*
X117995051Y-79447816D01*
X117999514Y-79439054D01*
X118047488Y-79388259D01*
X118115308Y-79371463D01*
X118181444Y-79393999D01*
X118220486Y-79439056D01*
X118224951Y-79447820D01*
X118349890Y-79619786D01*
X118500213Y-79770109D01*
X118672179Y-79895048D01*
X118672181Y-79895049D01*
X118672184Y-79895051D01*
X118861588Y-79991557D01*
X119063757Y-80057246D01*
X119273713Y-80090500D01*
X119273714Y-80090500D01*
X119486286Y-80090500D01*
X119486287Y-80090500D01*
X119696243Y-80057246D01*
X119898412Y-79991557D01*
X120087816Y-79895051D01*
X120174138Y-79832335D01*
X120259786Y-79770109D01*
X120259788Y-79770106D01*
X120259792Y-79770104D01*
X120410104Y-79619792D01*
X120410106Y-79619788D01*
X120410109Y-79619786D01*
X120535048Y-79447820D01*
X120535047Y-79447820D01*
X120535051Y-79447816D01*
X120539514Y-79439054D01*
X120587488Y-79388259D01*
X120655308Y-79371463D01*
X120721444Y-79393999D01*
X120760486Y-79439056D01*
X120764951Y-79447820D01*
X120889890Y-79619786D01*
X121040213Y-79770109D01*
X121212179Y-79895048D01*
X121212181Y-79895049D01*
X121212184Y-79895051D01*
X121401588Y-79991557D01*
X121603757Y-80057246D01*
X121813713Y-80090500D01*
X121813714Y-80090500D01*
X122026286Y-80090500D01*
X122026287Y-80090500D01*
X122236243Y-80057246D01*
X122438412Y-79991557D01*
X122627816Y-79895051D01*
X122714138Y-79832335D01*
X122799786Y-79770109D01*
X122799788Y-79770106D01*
X122799792Y-79770104D01*
X122950104Y-79619792D01*
X122950106Y-79619788D01*
X122950109Y-79619786D01*
X123075048Y-79447820D01*
X123075047Y-79447820D01*
X123075051Y-79447816D01*
X123079514Y-79439054D01*
X123127488Y-79388259D01*
X123195308Y-79371463D01*
X123261444Y-79393999D01*
X123300486Y-79439056D01*
X123304951Y-79447820D01*
X123429890Y-79619786D01*
X123580213Y-79770109D01*
X123752179Y-79895048D01*
X123752181Y-79895049D01*
X123752184Y-79895051D01*
X123941588Y-79991557D01*
X124143757Y-80057246D01*
X124353713Y-80090500D01*
X124353714Y-80090500D01*
X124566286Y-80090500D01*
X124566287Y-80090500D01*
X124776243Y-80057246D01*
X124978412Y-79991557D01*
X125167816Y-79895051D01*
X125254138Y-79832335D01*
X125339786Y-79770109D01*
X125339788Y-79770106D01*
X125339792Y-79770104D01*
X125490104Y-79619792D01*
X125490106Y-79619788D01*
X125490109Y-79619786D01*
X125615048Y-79447820D01*
X125615047Y-79447820D01*
X125615051Y-79447816D01*
X125619514Y-79439054D01*
X125667488Y-79388259D01*
X125735308Y-79371463D01*
X125801444Y-79393999D01*
X125840486Y-79439056D01*
X125844951Y-79447820D01*
X125969890Y-79619786D01*
X126120213Y-79770109D01*
X126292179Y-79895048D01*
X126292181Y-79895049D01*
X126292184Y-79895051D01*
X126481588Y-79991557D01*
X126683757Y-80057246D01*
X126893713Y-80090500D01*
X126893714Y-80090500D01*
X127106286Y-80090500D01*
X127106287Y-80090500D01*
X127316243Y-80057246D01*
X127518412Y-79991557D01*
X127707816Y-79895051D01*
X127794138Y-79832335D01*
X127879786Y-79770109D01*
X127879788Y-79770106D01*
X127879792Y-79770104D01*
X128030104Y-79619792D01*
X128030106Y-79619788D01*
X128030109Y-79619786D01*
X128155048Y-79447820D01*
X128155047Y-79447820D01*
X128155051Y-79447816D01*
X128159514Y-79439054D01*
X128207488Y-79388259D01*
X128275308Y-79371463D01*
X128341444Y-79393999D01*
X128380486Y-79439056D01*
X128384951Y-79447820D01*
X128509890Y-79619786D01*
X128660213Y-79770109D01*
X128832179Y-79895048D01*
X128832181Y-79895049D01*
X128832184Y-79895051D01*
X129021588Y-79991557D01*
X129223757Y-80057246D01*
X129433713Y-80090500D01*
X129433714Y-80090500D01*
X129646286Y-80090500D01*
X129646287Y-80090500D01*
X129856243Y-80057246D01*
X130058412Y-79991557D01*
X130247816Y-79895051D01*
X130334138Y-79832335D01*
X130419786Y-79770109D01*
X130419788Y-79770106D01*
X130419792Y-79770104D01*
X130570104Y-79619792D01*
X130570106Y-79619788D01*
X130570109Y-79619786D01*
X130695048Y-79447820D01*
X130695047Y-79447820D01*
X130695051Y-79447816D01*
X130699514Y-79439054D01*
X130747488Y-79388259D01*
X130815308Y-79371463D01*
X130881444Y-79393999D01*
X130920486Y-79439056D01*
X130924951Y-79447820D01*
X131049890Y-79619786D01*
X131200213Y-79770109D01*
X131372179Y-79895048D01*
X131372181Y-79895049D01*
X131372184Y-79895051D01*
X131561588Y-79991557D01*
X131763757Y-80057246D01*
X131973713Y-80090500D01*
X131973714Y-80090500D01*
X132186286Y-80090500D01*
X132186287Y-80090500D01*
X132396243Y-80057246D01*
X132598412Y-79991557D01*
X132787816Y-79895051D01*
X132874138Y-79832335D01*
X132959786Y-79770109D01*
X132959788Y-79770106D01*
X132959792Y-79770104D01*
X133110104Y-79619792D01*
X133110106Y-79619788D01*
X133110109Y-79619786D01*
X133235048Y-79447820D01*
X133235047Y-79447820D01*
X133235051Y-79447816D01*
X133239514Y-79439054D01*
X133287488Y-79388259D01*
X133355308Y-79371463D01*
X133421444Y-79393999D01*
X133460486Y-79439056D01*
X133464951Y-79447820D01*
X133589890Y-79619786D01*
X133740213Y-79770109D01*
X133912179Y-79895048D01*
X133912181Y-79895049D01*
X133912184Y-79895051D01*
X134101588Y-79991557D01*
X134303757Y-80057246D01*
X134513713Y-80090500D01*
X134513714Y-80090500D01*
X134726286Y-80090500D01*
X134726287Y-80090500D01*
X134936243Y-80057246D01*
X135138412Y-79991557D01*
X135327816Y-79895051D01*
X135414138Y-79832335D01*
X135499786Y-79770109D01*
X135499788Y-79770106D01*
X135499792Y-79770104D01*
X135650104Y-79619792D01*
X135650106Y-79619788D01*
X135650109Y-79619786D01*
X135775048Y-79447820D01*
X135775047Y-79447820D01*
X135775051Y-79447816D01*
X135779514Y-79439054D01*
X135827488Y-79388259D01*
X135895308Y-79371463D01*
X135961444Y-79393999D01*
X136000486Y-79439056D01*
X136004951Y-79447820D01*
X136129890Y-79619786D01*
X136280213Y-79770109D01*
X136452179Y-79895048D01*
X136452181Y-79895049D01*
X136452184Y-79895051D01*
X136641588Y-79991557D01*
X136843757Y-80057246D01*
X137053713Y-80090500D01*
X137053714Y-80090500D01*
X137266286Y-80090500D01*
X137266287Y-80090500D01*
X137476243Y-80057246D01*
X137678412Y-79991557D01*
X137867816Y-79895051D01*
X137954138Y-79832335D01*
X138039786Y-79770109D01*
X138039788Y-79770106D01*
X138039792Y-79770104D01*
X138190104Y-79619792D01*
X138190106Y-79619788D01*
X138190109Y-79619786D01*
X138315048Y-79447820D01*
X138315047Y-79447820D01*
X138315051Y-79447816D01*
X138319514Y-79439054D01*
X138367488Y-79388259D01*
X138435308Y-79371463D01*
X138501444Y-79393999D01*
X138540486Y-79439056D01*
X138544951Y-79447820D01*
X138669890Y-79619786D01*
X138820213Y-79770109D01*
X138992179Y-79895048D01*
X138992181Y-79895049D01*
X138992184Y-79895051D01*
X139181588Y-79991557D01*
X139383757Y-80057246D01*
X139593713Y-80090500D01*
X139593714Y-80090500D01*
X139806286Y-80090500D01*
X139806287Y-80090500D01*
X140016243Y-80057246D01*
X140218412Y-79991557D01*
X140407816Y-79895051D01*
X140521736Y-79812284D01*
X140579784Y-79770110D01*
X140579784Y-79770109D01*
X140579792Y-79770104D01*
X140693329Y-79656566D01*
X140754648Y-79623084D01*
X140824340Y-79628068D01*
X140880274Y-79669939D01*
X140897189Y-79700917D01*
X140946202Y-79832328D01*
X140946206Y-79832335D01*
X141032452Y-79947544D01*
X141032455Y-79947547D01*
X141147664Y-80033793D01*
X141147671Y-80033797D01*
X141282517Y-80084091D01*
X141282516Y-80084091D01*
X141289444Y-80084835D01*
X141342127Y-80090500D01*
X143137872Y-80090499D01*
X143197483Y-80084091D01*
X143332331Y-80033796D01*
X143447546Y-79947546D01*
X143533796Y-79832331D01*
X143584091Y-79697483D01*
X143590500Y-79637873D01*
X143590500Y-79133543D01*
X145679499Y-79133543D01*
X145717947Y-79326829D01*
X145717950Y-79326839D01*
X145793364Y-79508907D01*
X145793371Y-79508920D01*
X145902860Y-79672781D01*
X145902863Y-79672785D01*
X146042214Y-79812136D01*
X146042218Y-79812139D01*
X146206079Y-79921628D01*
X146206092Y-79921635D01*
X146373786Y-79991095D01*
X146388165Y-79997051D01*
X146388169Y-79997051D01*
X146388170Y-79997052D01*
X146581456Y-80035500D01*
X146581459Y-80035500D01*
X146778543Y-80035500D01*
X146908582Y-80009632D01*
X146971835Y-79997051D01*
X147153914Y-79921632D01*
X147317782Y-79812139D01*
X147457139Y-79672782D01*
X147566632Y-79508914D01*
X147569614Y-79501716D01*
X147591939Y-79447816D01*
X147642051Y-79326835D01*
X147680500Y-79133543D01*
X154319499Y-79133543D01*
X154357947Y-79326829D01*
X154357950Y-79326839D01*
X154433364Y-79508907D01*
X154433371Y-79508920D01*
X154542860Y-79672781D01*
X154542863Y-79672785D01*
X154682214Y-79812136D01*
X154682218Y-79812139D01*
X154846079Y-79921628D01*
X154846092Y-79921635D01*
X155013786Y-79991095D01*
X155028165Y-79997051D01*
X155028169Y-79997051D01*
X155028170Y-79997052D01*
X155221456Y-80035500D01*
X155221459Y-80035500D01*
X155418543Y-80035500D01*
X155548582Y-80009632D01*
X155611835Y-79997051D01*
X155793914Y-79921632D01*
X155957782Y-79812139D01*
X156097139Y-79672782D01*
X156206632Y-79508914D01*
X156209614Y-79501716D01*
X156231939Y-79447816D01*
X156282051Y-79326835D01*
X156320500Y-79133543D01*
X160499499Y-79133543D01*
X160537947Y-79326829D01*
X160537950Y-79326839D01*
X160613364Y-79508907D01*
X160613371Y-79508920D01*
X160722860Y-79672781D01*
X160722863Y-79672785D01*
X160862214Y-79812136D01*
X160862218Y-79812139D01*
X161026079Y-79921628D01*
X161026092Y-79921635D01*
X161193786Y-79991095D01*
X161208165Y-79997051D01*
X161208169Y-79997051D01*
X161208170Y-79997052D01*
X161401456Y-80035500D01*
X161401459Y-80035500D01*
X161598543Y-80035500D01*
X161728582Y-80009632D01*
X161791835Y-79997051D01*
X161973914Y-79921632D01*
X162137782Y-79812139D01*
X162277139Y-79672782D01*
X162386632Y-79508914D01*
X162389614Y-79501716D01*
X162411939Y-79447816D01*
X162462051Y-79326835D01*
X162500500Y-79133543D01*
X169139499Y-79133543D01*
X169177947Y-79326829D01*
X169177950Y-79326839D01*
X169253364Y-79508907D01*
X169253371Y-79508920D01*
X169362860Y-79672781D01*
X169362863Y-79672785D01*
X169502214Y-79812136D01*
X169502218Y-79812139D01*
X169666079Y-79921628D01*
X169666092Y-79921635D01*
X169833786Y-79991095D01*
X169848165Y-79997051D01*
X169848169Y-79997051D01*
X169848170Y-79997052D01*
X170041456Y-80035500D01*
X170041459Y-80035500D01*
X170238543Y-80035500D01*
X170368582Y-80009632D01*
X170431835Y-79997051D01*
X170613914Y-79921632D01*
X170777782Y-79812139D01*
X170917139Y-79672782D01*
X171026632Y-79508914D01*
X171029614Y-79501716D01*
X171051939Y-79447816D01*
X171102051Y-79326835D01*
X171140500Y-79133541D01*
X171140500Y-78597648D01*
X173999500Y-78597648D01*
X173999500Y-78802351D01*
X174031522Y-79004534D01*
X174094781Y-79199223D01*
X174187715Y-79381613D01*
X174308028Y-79547213D01*
X174452786Y-79691971D01*
X174607749Y-79804556D01*
X174618390Y-79812287D01*
X174702747Y-79855269D01*
X174800776Y-79905218D01*
X174800778Y-79905218D01*
X174800781Y-79905220D01*
X174905137Y-79939127D01*
X174995465Y-79968477D01*
X175096557Y-79984488D01*
X175197648Y-80000500D01*
X175197649Y-80000500D01*
X175402351Y-80000500D01*
X175402352Y-80000500D01*
X175604534Y-79968477D01*
X175799219Y-79905220D01*
X175981610Y-79812287D01*
X176108179Y-79720330D01*
X176147213Y-79691971D01*
X176147215Y-79691968D01*
X176147219Y-79691966D01*
X176291966Y-79547219D01*
X176291968Y-79547215D01*
X176291971Y-79547213D01*
X176364186Y-79447816D01*
X176412287Y-79381610D01*
X176505220Y-79199219D01*
X176568477Y-79004534D01*
X176600500Y-78802352D01*
X176600500Y-78597648D01*
X176568477Y-78395466D01*
X176565546Y-78386446D01*
X176517963Y-78240000D01*
X176505220Y-78200781D01*
X176505218Y-78200778D01*
X176505218Y-78200776D01*
X176471503Y-78134607D01*
X176412287Y-78018390D01*
X176357637Y-77943170D01*
X176291971Y-77852786D01*
X176147213Y-77708028D01*
X175981613Y-77587715D01*
X175981612Y-77587714D01*
X175981610Y-77587713D01*
X175924653Y-77558691D01*
X175799223Y-77494781D01*
X175604534Y-77431522D01*
X175429995Y-77403878D01*
X175402352Y-77399500D01*
X175197648Y-77399500D01*
X175173329Y-77403351D01*
X174995465Y-77431522D01*
X174800776Y-77494781D01*
X174618386Y-77587715D01*
X174452786Y-77708028D01*
X174308028Y-77852786D01*
X174187715Y-78018386D01*
X174094781Y-78200776D01*
X174031522Y-78395465D01*
X173999500Y-78597648D01*
X171140500Y-78597648D01*
X171140500Y-78136459D01*
X171140500Y-78136456D01*
X171102052Y-77943170D01*
X171102051Y-77943169D01*
X171102051Y-77943165D01*
X171102049Y-77943160D01*
X171026635Y-77761092D01*
X171026628Y-77761079D01*
X170917139Y-77597218D01*
X170917136Y-77597214D01*
X170777785Y-77457863D01*
X170777781Y-77457860D01*
X170613920Y-77348371D01*
X170613907Y-77348364D01*
X170431839Y-77272950D01*
X170431829Y-77272947D01*
X170238543Y-77234500D01*
X170238541Y-77234500D01*
X170041459Y-77234500D01*
X170041457Y-77234500D01*
X169848170Y-77272947D01*
X169848160Y-77272950D01*
X169666092Y-77348364D01*
X169666079Y-77348371D01*
X169502218Y-77457860D01*
X169502214Y-77457863D01*
X169362863Y-77597214D01*
X169362860Y-77597218D01*
X169253371Y-77761079D01*
X169253364Y-77761092D01*
X169177950Y-77943160D01*
X169177947Y-77943170D01*
X169139500Y-78136456D01*
X169139500Y-78136459D01*
X169139500Y-79133541D01*
X169139500Y-79133543D01*
X169139499Y-79133543D01*
X162500500Y-79133543D01*
X162500500Y-79133541D01*
X162500500Y-78136459D01*
X162500500Y-78136456D01*
X162462052Y-77943170D01*
X162462051Y-77943169D01*
X162462051Y-77943165D01*
X162462049Y-77943160D01*
X162386635Y-77761092D01*
X162386628Y-77761079D01*
X162277139Y-77597218D01*
X162277136Y-77597214D01*
X162137785Y-77457863D01*
X162137781Y-77457860D01*
X161973920Y-77348371D01*
X161973907Y-77348364D01*
X161791839Y-77272950D01*
X161791829Y-77272947D01*
X161598543Y-77234500D01*
X161598541Y-77234500D01*
X161401459Y-77234500D01*
X161401457Y-77234500D01*
X161208170Y-77272947D01*
X161208160Y-77272950D01*
X161026092Y-77348364D01*
X161026079Y-77348371D01*
X160862218Y-77457860D01*
X160862214Y-77457863D01*
X160722863Y-77597214D01*
X160722860Y-77597218D01*
X160613371Y-77761079D01*
X160613364Y-77761092D01*
X160537950Y-77943160D01*
X160537947Y-77943170D01*
X160499500Y-78136456D01*
X160499500Y-78136459D01*
X160499500Y-79133541D01*
X160499500Y-79133543D01*
X160499499Y-79133543D01*
X156320500Y-79133543D01*
X156320500Y-79133541D01*
X156320500Y-78136459D01*
X156320500Y-78136456D01*
X156282052Y-77943170D01*
X156282051Y-77943169D01*
X156282051Y-77943165D01*
X156282049Y-77943160D01*
X156206635Y-77761092D01*
X156206628Y-77761079D01*
X156097139Y-77597218D01*
X156097136Y-77597214D01*
X155957785Y-77457863D01*
X155957781Y-77457860D01*
X155793920Y-77348371D01*
X155793907Y-77348364D01*
X155611839Y-77272950D01*
X155611829Y-77272947D01*
X155418543Y-77234500D01*
X155418541Y-77234500D01*
X155221459Y-77234500D01*
X155221457Y-77234500D01*
X155028170Y-77272947D01*
X155028160Y-77272950D01*
X154846092Y-77348364D01*
X154846079Y-77348371D01*
X154682218Y-77457860D01*
X154682214Y-77457863D01*
X154542863Y-77597214D01*
X154542860Y-77597218D01*
X154433371Y-77761079D01*
X154433364Y-77761092D01*
X154357950Y-77943160D01*
X154357947Y-77943170D01*
X154319500Y-78136456D01*
X154319500Y-78136459D01*
X154319500Y-79133541D01*
X154319500Y-79133543D01*
X154319499Y-79133543D01*
X147680500Y-79133543D01*
X147680500Y-79133541D01*
X147680500Y-78136459D01*
X147680500Y-78136456D01*
X147642052Y-77943170D01*
X147642051Y-77943169D01*
X147642051Y-77943165D01*
X147642049Y-77943160D01*
X147566635Y-77761092D01*
X147566628Y-77761079D01*
X147457139Y-77597218D01*
X147457136Y-77597214D01*
X147317785Y-77457863D01*
X147317781Y-77457860D01*
X147153920Y-77348371D01*
X147153907Y-77348364D01*
X146971839Y-77272950D01*
X146971829Y-77272947D01*
X146778543Y-77234500D01*
X146778541Y-77234500D01*
X146581459Y-77234500D01*
X146581457Y-77234500D01*
X146388170Y-77272947D01*
X146388160Y-77272950D01*
X146206092Y-77348364D01*
X146206079Y-77348371D01*
X146042218Y-77457860D01*
X146042214Y-77457863D01*
X145902863Y-77597214D01*
X145902860Y-77597218D01*
X145793371Y-77761079D01*
X145793364Y-77761092D01*
X145717950Y-77943160D01*
X145717947Y-77943170D01*
X145679500Y-78136456D01*
X145679500Y-78136459D01*
X145679500Y-79133541D01*
X145679500Y-79133543D01*
X145679499Y-79133543D01*
X143590500Y-79133543D01*
X143590499Y-77842128D01*
X143584091Y-77782517D01*
X143582810Y-77779083D01*
X143533797Y-77647671D01*
X143533793Y-77647664D01*
X143447547Y-77532455D01*
X143447544Y-77532452D01*
X143332335Y-77446206D01*
X143332328Y-77446202D01*
X143197482Y-77395908D01*
X143197483Y-77395908D01*
X143137883Y-77389501D01*
X143137881Y-77389500D01*
X143137873Y-77389500D01*
X143137864Y-77389500D01*
X141342129Y-77389500D01*
X141342123Y-77389501D01*
X141282516Y-77395908D01*
X141147671Y-77446202D01*
X141147664Y-77446206D01*
X141032455Y-77532452D01*
X141032452Y-77532455D01*
X140946206Y-77647664D01*
X140946203Y-77647669D01*
X140897189Y-77779083D01*
X140855317Y-77835016D01*
X140789853Y-77859433D01*
X140721580Y-77844581D01*
X140693326Y-77823430D01*
X140579786Y-77709890D01*
X140407820Y-77584951D01*
X140218414Y-77488444D01*
X140218413Y-77488443D01*
X140218412Y-77488443D01*
X140016243Y-77422754D01*
X140016241Y-77422753D01*
X140016240Y-77422753D01*
X139854957Y-77397208D01*
X139806287Y-77389500D01*
X139593713Y-77389500D01*
X139545042Y-77397208D01*
X139383760Y-77422753D01*
X139181585Y-77488444D01*
X138992179Y-77584951D01*
X138820213Y-77709890D01*
X138669890Y-77860213D01*
X138544949Y-78032182D01*
X138540484Y-78040946D01*
X138492509Y-78091742D01*
X138424688Y-78108536D01*
X138358553Y-78085998D01*
X138319516Y-78040946D01*
X138315050Y-78032182D01*
X138190109Y-77860213D01*
X138039786Y-77709890D01*
X137867820Y-77584951D01*
X137678414Y-77488444D01*
X137678413Y-77488443D01*
X137678412Y-77488443D01*
X137476243Y-77422754D01*
X137476241Y-77422753D01*
X137476240Y-77422753D01*
X137314957Y-77397208D01*
X137266287Y-77389500D01*
X137053713Y-77389500D01*
X137005042Y-77397208D01*
X136843760Y-77422753D01*
X136641585Y-77488444D01*
X136452179Y-77584951D01*
X136280213Y-77709890D01*
X136129890Y-77860213D01*
X136004949Y-78032182D01*
X136000484Y-78040946D01*
X135952509Y-78091742D01*
X135884688Y-78108536D01*
X135818553Y-78085998D01*
X135779516Y-78040946D01*
X135775050Y-78032182D01*
X135650109Y-77860213D01*
X135499786Y-77709890D01*
X135327820Y-77584951D01*
X135138414Y-77488444D01*
X135138413Y-77488443D01*
X135138412Y-77488443D01*
X134936243Y-77422754D01*
X134936241Y-77422753D01*
X134936240Y-77422753D01*
X134774957Y-77397208D01*
X134726287Y-77389500D01*
X134513713Y-77389500D01*
X134465042Y-77397208D01*
X134303760Y-77422753D01*
X134101585Y-77488444D01*
X133912179Y-77584951D01*
X133740213Y-77709890D01*
X133589890Y-77860213D01*
X133464949Y-78032182D01*
X133460484Y-78040946D01*
X133412509Y-78091742D01*
X133344688Y-78108536D01*
X133278553Y-78085998D01*
X133239516Y-78040946D01*
X133235050Y-78032182D01*
X133110109Y-77860213D01*
X132959786Y-77709890D01*
X132787820Y-77584951D01*
X132598414Y-77488444D01*
X132598413Y-77488443D01*
X132598412Y-77488443D01*
X132396243Y-77422754D01*
X132396241Y-77422753D01*
X132396240Y-77422753D01*
X132234957Y-77397208D01*
X132186287Y-77389500D01*
X131973713Y-77389500D01*
X131925042Y-77397208D01*
X131763760Y-77422753D01*
X131561585Y-77488444D01*
X131372179Y-77584951D01*
X131200213Y-77709890D01*
X131049890Y-77860213D01*
X130924949Y-78032182D01*
X130920484Y-78040946D01*
X130872509Y-78091742D01*
X130804688Y-78108536D01*
X130738553Y-78085998D01*
X130699516Y-78040946D01*
X130695050Y-78032182D01*
X130570109Y-77860213D01*
X130419786Y-77709890D01*
X130247820Y-77584951D01*
X130058414Y-77488444D01*
X130058413Y-77488443D01*
X130058412Y-77488443D01*
X129856243Y-77422754D01*
X129856241Y-77422753D01*
X129856240Y-77422753D01*
X129694957Y-77397208D01*
X129646287Y-77389500D01*
X129433713Y-77389500D01*
X129385042Y-77397208D01*
X129223760Y-77422753D01*
X129021585Y-77488444D01*
X128832179Y-77584951D01*
X128660213Y-77709890D01*
X128509890Y-77860213D01*
X128384949Y-78032182D01*
X128380484Y-78040946D01*
X128332509Y-78091742D01*
X128264688Y-78108536D01*
X128198553Y-78085998D01*
X128159516Y-78040946D01*
X128155050Y-78032182D01*
X128030109Y-77860213D01*
X127879786Y-77709890D01*
X127707820Y-77584951D01*
X127518414Y-77488444D01*
X127518413Y-77488443D01*
X127518412Y-77488443D01*
X127316243Y-77422754D01*
X127316241Y-77422753D01*
X127316240Y-77422753D01*
X127154957Y-77397208D01*
X127106287Y-77389500D01*
X126893713Y-77389500D01*
X126845042Y-77397208D01*
X126683760Y-77422753D01*
X126481585Y-77488444D01*
X126292179Y-77584951D01*
X126120213Y-77709890D01*
X125969890Y-77860213D01*
X125844949Y-78032182D01*
X125840484Y-78040946D01*
X125792509Y-78091742D01*
X125724688Y-78108536D01*
X125658553Y-78085998D01*
X125619516Y-78040946D01*
X125615050Y-78032182D01*
X125490109Y-77860213D01*
X125339786Y-77709890D01*
X125167820Y-77584951D01*
X124978414Y-77488444D01*
X124978413Y-77488443D01*
X124978412Y-77488443D01*
X124776243Y-77422754D01*
X124776241Y-77422753D01*
X124776240Y-77422753D01*
X124614957Y-77397208D01*
X124566287Y-77389500D01*
X124353713Y-77389500D01*
X124305042Y-77397208D01*
X124143760Y-77422753D01*
X123941585Y-77488444D01*
X123752179Y-77584951D01*
X123580213Y-77709890D01*
X123429890Y-77860213D01*
X123304949Y-78032182D01*
X123300484Y-78040946D01*
X123252509Y-78091742D01*
X123184688Y-78108536D01*
X123118553Y-78085998D01*
X123079516Y-78040946D01*
X123075050Y-78032182D01*
X122950109Y-77860213D01*
X122799786Y-77709890D01*
X122627820Y-77584951D01*
X122438414Y-77488444D01*
X122438413Y-77488443D01*
X122438412Y-77488443D01*
X122236243Y-77422754D01*
X122236241Y-77422753D01*
X122236240Y-77422753D01*
X122074957Y-77397208D01*
X122026287Y-77389500D01*
X121813713Y-77389500D01*
X121765042Y-77397208D01*
X121603760Y-77422753D01*
X121401585Y-77488444D01*
X121212179Y-77584951D01*
X121040213Y-77709890D01*
X120889890Y-77860213D01*
X120764949Y-78032182D01*
X120760484Y-78040946D01*
X120712509Y-78091742D01*
X120644688Y-78108536D01*
X120578553Y-78085998D01*
X120539516Y-78040946D01*
X120535050Y-78032182D01*
X120410109Y-77860213D01*
X120259786Y-77709890D01*
X120087820Y-77584951D01*
X119898414Y-77488444D01*
X119898413Y-77488443D01*
X119898412Y-77488443D01*
X119696243Y-77422754D01*
X119696241Y-77422753D01*
X119696240Y-77422753D01*
X119534957Y-77397208D01*
X119486287Y-77389500D01*
X119273713Y-77389500D01*
X119225042Y-77397208D01*
X119063760Y-77422753D01*
X118861585Y-77488444D01*
X118672179Y-77584951D01*
X118500213Y-77709890D01*
X118349890Y-77860213D01*
X118224949Y-78032182D01*
X118220484Y-78040946D01*
X118172509Y-78091742D01*
X118104688Y-78108536D01*
X118038553Y-78085998D01*
X117999516Y-78040946D01*
X117995050Y-78032182D01*
X117870109Y-77860213D01*
X117719786Y-77709890D01*
X117547820Y-77584951D01*
X117358414Y-77488444D01*
X117358413Y-77488443D01*
X117358412Y-77488443D01*
X117156243Y-77422754D01*
X117156241Y-77422753D01*
X117156240Y-77422753D01*
X116994957Y-77397208D01*
X116946287Y-77389500D01*
X116733713Y-77389500D01*
X116685042Y-77397208D01*
X116523760Y-77422753D01*
X116321585Y-77488444D01*
X116132179Y-77584951D01*
X115960213Y-77709890D01*
X115809890Y-77860213D01*
X115684949Y-78032182D01*
X115680202Y-78041499D01*
X115632227Y-78092293D01*
X115564405Y-78109087D01*
X115498271Y-78086548D01*
X115459234Y-78041495D01*
X115454626Y-78032452D01*
X115415270Y-77978282D01*
X115415269Y-77978282D01*
X114782962Y-78610590D01*
X114765925Y-78547007D01*
X114700099Y-78432993D01*
X114607007Y-78339901D01*
X114492993Y-78274075D01*
X114429409Y-78257037D01*
X115061716Y-77624728D01*
X115007550Y-77585375D01*
X114818217Y-77488904D01*
X114616129Y-77423242D01*
X114406246Y-77390000D01*
X114193754Y-77390000D01*
X113983872Y-77423242D01*
X113983869Y-77423242D01*
X113781782Y-77488904D01*
X113592439Y-77585380D01*
X113538282Y-77624727D01*
X113538282Y-77624728D01*
X114170591Y-78257037D01*
X114107007Y-78274075D01*
X113992993Y-78339901D01*
X113899901Y-78432993D01*
X113834075Y-78547007D01*
X113817037Y-78610591D01*
X113184728Y-77978282D01*
X113184727Y-77978282D01*
X113145380Y-78032440D01*
X113145376Y-78032446D01*
X113140760Y-78041505D01*
X113092781Y-78092297D01*
X113024959Y-78109087D01*
X112958826Y-78086543D01*
X112919794Y-78041493D01*
X112915051Y-78032184D01*
X112915049Y-78032181D01*
X112915048Y-78032179D01*
X112790109Y-77860213D01*
X112639786Y-77709890D01*
X112467820Y-77584951D01*
X112278414Y-77488444D01*
X112278413Y-77488443D01*
X112278412Y-77488443D01*
X112076243Y-77422754D01*
X112076241Y-77422753D01*
X112076239Y-77422753D01*
X111864602Y-77389233D01*
X111801467Y-77359304D01*
X111764536Y-77299992D01*
X111760000Y-77266760D01*
X111760000Y-76824500D01*
X111779685Y-76757461D01*
X111832489Y-76711706D01*
X111884000Y-76700500D01*
X177175500Y-76700500D01*
X177242539Y-76720185D01*
G37*
%TD.AperFunction*%
%TD*%
%TA.AperFunction,Conductor*%
%TO.N,P3V3*%
G36*
X140224493Y-102919685D02*
G01*
X140233583Y-102926120D01*
X141052129Y-103562767D01*
X141092961Y-103619464D01*
X141100000Y-103660647D01*
X141100000Y-106680000D01*
X138300000Y-106680000D01*
X138300000Y-103660647D01*
X138319685Y-103593608D01*
X138347871Y-103562767D01*
X139166417Y-102926120D01*
X139231420Y-102900500D01*
X139242546Y-102900000D01*
X140157454Y-102900000D01*
X140224493Y-102919685D01*
G37*
%TD.AperFunction*%
%TD*%
%TA.AperFunction,Conductor*%
%TO.N,P1V2*%
G36*
X117662539Y-85109685D02*
G01*
X117708294Y-85162489D01*
X117719500Y-85214000D01*
X117719500Y-85252727D01*
X117746793Y-85354587D01*
X117799520Y-85445913D01*
X117874087Y-85520480D01*
X117965413Y-85573207D01*
X118067273Y-85600500D01*
X118067275Y-85600500D01*
X118172725Y-85600500D01*
X118172727Y-85600500D01*
X118274587Y-85573207D01*
X118365913Y-85520480D01*
X118440480Y-85445913D01*
X118493207Y-85354587D01*
X118520500Y-85252727D01*
X118520500Y-85214000D01*
X118540185Y-85146961D01*
X118592989Y-85101206D01*
X118644500Y-85090000D01*
X139648638Y-85090000D01*
X139715677Y-85109685D01*
X139736319Y-85126319D01*
X144108681Y-89498681D01*
X144142166Y-89560004D01*
X144145000Y-89586362D01*
X144145000Y-94615000D01*
X133474000Y-94615000D01*
X133406961Y-94595315D01*
X133361206Y-94542511D01*
X133350000Y-94491000D01*
X133350000Y-93207525D01*
X142329500Y-93207525D01*
X142329500Y-93352475D01*
X142367016Y-93492485D01*
X142367017Y-93492488D01*
X142439488Y-93618011D01*
X142439490Y-93618013D01*
X142439491Y-93618015D01*
X142541985Y-93720509D01*
X142541986Y-93720510D01*
X142541988Y-93720511D01*
X142667511Y-93792982D01*
X142667512Y-93792982D01*
X142667515Y-93792984D01*
X142807525Y-93830500D01*
X142807528Y-93830500D01*
X142952472Y-93830500D01*
X142952475Y-93830500D01*
X143092485Y-93792984D01*
X143218015Y-93720509D01*
X143320509Y-93618015D01*
X143392984Y-93492485D01*
X143430500Y-93352475D01*
X143430500Y-93207525D01*
X143392984Y-93067515D01*
X143336977Y-92970509D01*
X143320511Y-92941988D01*
X143320506Y-92941982D01*
X143218017Y-92839493D01*
X143218011Y-92839488D01*
X143092488Y-92767017D01*
X143092489Y-92767017D01*
X143081006Y-92763940D01*
X142952475Y-92729500D01*
X142807525Y-92729500D01*
X142678993Y-92763940D01*
X142667511Y-92767017D01*
X142541988Y-92839488D01*
X142541982Y-92839493D01*
X142439493Y-92941982D01*
X142439488Y-92941988D01*
X142367017Y-93067511D01*
X142367016Y-93067515D01*
X142329500Y-93207525D01*
X133350000Y-93207525D01*
X133350000Y-91440000D01*
X130934000Y-91440000D01*
X130866961Y-91420315D01*
X130821206Y-91367511D01*
X130810000Y-91316000D01*
X130810000Y-87630000D01*
X118745000Y-87630000D01*
X118714043Y-87660957D01*
X118700671Y-87674329D01*
X118639347Y-87707813D01*
X118569656Y-87702828D01*
X118513722Y-87660957D01*
X118489306Y-87595492D01*
X118491021Y-87577525D01*
X140139500Y-87577525D01*
X140139500Y-87722475D01*
X140153094Y-87773207D01*
X140177017Y-87862488D01*
X140249488Y-87988011D01*
X140249490Y-87988013D01*
X140249491Y-87988015D01*
X140351985Y-88090509D01*
X140351986Y-88090510D01*
X140351988Y-88090511D01*
X140477511Y-88162982D01*
X140477512Y-88162982D01*
X140477515Y-88162984D01*
X140617525Y-88200500D01*
X140617528Y-88200500D01*
X140762472Y-88200500D01*
X140762475Y-88200500D01*
X140902485Y-88162984D01*
X141028015Y-88090509D01*
X141130509Y-87988015D01*
X141202984Y-87862485D01*
X141240500Y-87722475D01*
X141240500Y-87577525D01*
X141202984Y-87437515D01*
X141130509Y-87311985D01*
X141028015Y-87209491D01*
X141028013Y-87209490D01*
X141028011Y-87209488D01*
X140902488Y-87137017D01*
X140902489Y-87137017D01*
X140891006Y-87133940D01*
X140762475Y-87099500D01*
X140617525Y-87099500D01*
X140488993Y-87133940D01*
X140477511Y-87137017D01*
X140351988Y-87209488D01*
X140351982Y-87209493D01*
X140249493Y-87311982D01*
X140249488Y-87311988D01*
X140177017Y-87437511D01*
X140177016Y-87437515D01*
X140139500Y-87577525D01*
X118491021Y-87577525D01*
X118493214Y-87554559D01*
X118520500Y-87452727D01*
X118520500Y-87347273D01*
X118493207Y-87245413D01*
X118440480Y-87154087D01*
X118365913Y-87079520D01*
X118274587Y-87026793D01*
X118172727Y-86999500D01*
X118067273Y-86999500D01*
X117965413Y-87026793D01*
X117965410Y-87026794D01*
X117874085Y-87079521D01*
X117799521Y-87154085D01*
X117746794Y-87245410D01*
X117746793Y-87245413D01*
X117719500Y-87347273D01*
X117719500Y-87452727D01*
X117746793Y-87554587D01*
X117799520Y-87645913D01*
X117874087Y-87720480D01*
X117965413Y-87773207D01*
X118067273Y-87800500D01*
X118067275Y-87800500D01*
X118172724Y-87800500D01*
X118172727Y-87800500D01*
X118274556Y-87773215D01*
X118344403Y-87774878D01*
X118402266Y-87814040D01*
X118429770Y-87878269D01*
X118418184Y-87947171D01*
X118394328Y-87980671D01*
X115570000Y-90804999D01*
X115570000Y-100206000D01*
X115550315Y-100273039D01*
X115497511Y-100318794D01*
X115446000Y-100330000D01*
X111884000Y-100330000D01*
X111816961Y-100310315D01*
X111771206Y-100257511D01*
X111760000Y-100206000D01*
X111760000Y-88970492D01*
X111779685Y-88903453D01*
X111799649Y-88879603D01*
X114299998Y-86559102D01*
X114299998Y-86559101D01*
X114300000Y-86559100D01*
X114300000Y-86557525D01*
X120999500Y-86557525D01*
X120999500Y-86702475D01*
X121037016Y-86842485D01*
X121037017Y-86842488D01*
X121109488Y-86968011D01*
X121109490Y-86968013D01*
X121109491Y-86968015D01*
X121211985Y-87070509D01*
X121211986Y-87070510D01*
X121211988Y-87070511D01*
X121337511Y-87142982D01*
X121337512Y-87142982D01*
X121337515Y-87142984D01*
X121477525Y-87180500D01*
X121477528Y-87180500D01*
X121622472Y-87180500D01*
X121622475Y-87180500D01*
X121762485Y-87142984D01*
X121888015Y-87070509D01*
X121990509Y-86968015D01*
X122062984Y-86842485D01*
X122100500Y-86702475D01*
X122100500Y-86557525D01*
X122062984Y-86417515D01*
X121990509Y-86291985D01*
X121888015Y-86189491D01*
X121888013Y-86189490D01*
X121888011Y-86189488D01*
X121762488Y-86117017D01*
X121762489Y-86117017D01*
X121751006Y-86113940D01*
X121622475Y-86079500D01*
X121477525Y-86079500D01*
X121348993Y-86113940D01*
X121337511Y-86117017D01*
X121211988Y-86189488D01*
X121211982Y-86189493D01*
X121109493Y-86291982D01*
X121109488Y-86291988D01*
X121037017Y-86417511D01*
X121037016Y-86417515D01*
X120999500Y-86557525D01*
X114300000Y-86557525D01*
X114300000Y-85214000D01*
X114319685Y-85146961D01*
X114372489Y-85101206D01*
X114424000Y-85090000D01*
X117595500Y-85090000D01*
X117662539Y-85109685D01*
G37*
%TD.AperFunction*%
%TD*%
%TA.AperFunction,Conductor*%
%TO.N,P1V2*%
G36*
X144195828Y-94556493D02*
G01*
X144199956Y-94564439D01*
X144200000Y-94565449D01*
X144200000Y-100288300D01*
X144196573Y-100296573D01*
X144188300Y-100300000D01*
X141300000Y-100300000D01*
X140800000Y-100700000D01*
X140800000Y-102500000D01*
X141300000Y-102900000D01*
X144188300Y-102900000D01*
X144196573Y-102903427D01*
X144200000Y-102911700D01*
X144200000Y-106088300D01*
X144196573Y-106096573D01*
X144188300Y-106100000D01*
X141311700Y-106100000D01*
X141303427Y-106096573D01*
X141300000Y-106088300D01*
X141300000Y-104760435D01*
X141799500Y-104760435D01*
X141799500Y-104839564D01*
X141819977Y-104915987D01*
X141819979Y-104915991D01*
X141859537Y-104984507D01*
X141859539Y-104984510D01*
X141859540Y-104984511D01*
X141915489Y-105040460D01*
X141915490Y-105040461D01*
X141915492Y-105040462D01*
X141984008Y-105080020D01*
X141984012Y-105080022D01*
X142044285Y-105096171D01*
X142060435Y-105100499D01*
X142060436Y-105100500D01*
X142060438Y-105100500D01*
X142139564Y-105100500D01*
X142139564Y-105100499D01*
X142177775Y-105090260D01*
X142215987Y-105080022D01*
X142215991Y-105080020D01*
X142238829Y-105066834D01*
X142284511Y-105040460D01*
X142340460Y-104984511D01*
X142380021Y-104915989D01*
X142400499Y-104839564D01*
X142400500Y-104839564D01*
X142400500Y-104760435D01*
X142599500Y-104760435D01*
X142599500Y-104839564D01*
X142619977Y-104915987D01*
X142619979Y-104915991D01*
X142659537Y-104984507D01*
X142659539Y-104984510D01*
X142659540Y-104984511D01*
X142715489Y-105040460D01*
X142715490Y-105040461D01*
X142715492Y-105040462D01*
X142784008Y-105080020D01*
X142784012Y-105080022D01*
X142844285Y-105096171D01*
X142860435Y-105100499D01*
X142860436Y-105100500D01*
X142860438Y-105100500D01*
X142939564Y-105100500D01*
X142939564Y-105100499D01*
X142977775Y-105090260D01*
X143015987Y-105080022D01*
X143015991Y-105080020D01*
X143038829Y-105066834D01*
X143084511Y-105040460D01*
X143140460Y-104984511D01*
X143180021Y-104915989D01*
X143200499Y-104839564D01*
X143200500Y-104839564D01*
X143200500Y-104760435D01*
X143180022Y-104684012D01*
X143180020Y-104684008D01*
X143140462Y-104615492D01*
X143140458Y-104615487D01*
X143084512Y-104559541D01*
X143084507Y-104559537D01*
X143015991Y-104519979D01*
X143015987Y-104519977D01*
X142939565Y-104499500D01*
X142939562Y-104499500D01*
X142860438Y-104499500D01*
X142860435Y-104499500D01*
X142784012Y-104519977D01*
X142784008Y-104519979D01*
X142715492Y-104559537D01*
X142715487Y-104559541D01*
X142659541Y-104615487D01*
X142659537Y-104615492D01*
X142619979Y-104684008D01*
X142619977Y-104684012D01*
X142599500Y-104760435D01*
X142400500Y-104760435D01*
X142380022Y-104684012D01*
X142380020Y-104684008D01*
X142340462Y-104615492D01*
X142340458Y-104615487D01*
X142284512Y-104559541D01*
X142284507Y-104559537D01*
X142215991Y-104519979D01*
X142215987Y-104519977D01*
X142139565Y-104499500D01*
X142139562Y-104499500D01*
X142060438Y-104499500D01*
X142060435Y-104499500D01*
X141984012Y-104519977D01*
X141984008Y-104519979D01*
X141915492Y-104559537D01*
X141915487Y-104559541D01*
X141859541Y-104615487D01*
X141859537Y-104615492D01*
X141819979Y-104684008D01*
X141819977Y-104684012D01*
X141799500Y-104760435D01*
X141300000Y-104760435D01*
X141300000Y-103500000D01*
X140300000Y-102700000D01*
X139100000Y-102700000D01*
X138100000Y-103500000D01*
X138100000Y-106088300D01*
X138096573Y-106096573D01*
X138088300Y-106100000D01*
X135211700Y-106100000D01*
X135203427Y-106096573D01*
X135200000Y-106088300D01*
X135200000Y-102911700D01*
X135203427Y-102903427D01*
X135211700Y-102900000D01*
X138100000Y-102900000D01*
X138600000Y-102500000D01*
X138600000Y-100700000D01*
X138100000Y-100300000D01*
X135211700Y-100300000D01*
X135203427Y-100296573D01*
X135200000Y-100288300D01*
X135200000Y-97111700D01*
X135203427Y-97103427D01*
X135211700Y-97100000D01*
X138088300Y-97100000D01*
X138096573Y-97103427D01*
X138100000Y-97111700D01*
X138100000Y-99700001D01*
X138138555Y-99730844D01*
X138150941Y-99740753D01*
X138153978Y-99743182D01*
X138157882Y-99748977D01*
X138164920Y-99772602D01*
X138164923Y-99772609D01*
X138169347Y-99780388D01*
X138209050Y-99826258D01*
X138209055Y-99826263D01*
X138777979Y-100268758D01*
X139101363Y-100520279D01*
X139146357Y-100544615D01*
X139153540Y-100547080D01*
X139204014Y-100555500D01*
X139204017Y-100555500D01*
X140195983Y-100555500D01*
X140195986Y-100555500D01*
X140246460Y-100547080D01*
X140253643Y-100544615D01*
X140298637Y-100520279D01*
X141190951Y-99826257D01*
X141198379Y-99820100D01*
X141199469Y-99819138D01*
X141240235Y-99762061D01*
X141243662Y-99753788D01*
X141244891Y-99747607D01*
X141249055Y-99740755D01*
X141300000Y-99700000D01*
X141300000Y-94615000D01*
X144145000Y-94615000D01*
X144145000Y-94513769D01*
X144195828Y-94556493D01*
G37*
%TD.AperFunction*%
%TD*%
%TA.AperFunction,Conductor*%
%TO.N,P3V3*%
G36*
X144780000Y-102700000D02*
G01*
X141441333Y-102700000D01*
X141374294Y-102680315D01*
X141366933Y-102675200D01*
X141049600Y-102437200D01*
X141007779Y-102381229D01*
X141000000Y-102338000D01*
X141000000Y-100862000D01*
X141019685Y-100794961D01*
X141049600Y-100762800D01*
X141366933Y-100524800D01*
X141432375Y-100500324D01*
X141441333Y-100500000D01*
X144780000Y-100500000D01*
X144780000Y-102700000D01*
G37*
%TD.AperFunction*%
%TD*%
%TA.AperFunction,Conductor*%
%TO.N,P3V3*%
G36*
X129483039Y-88919685D02*
G01*
X129528794Y-88972489D01*
X129540000Y-89024000D01*
X129540000Y-97790000D01*
X133350000Y-97790000D01*
X133350000Y-95374000D01*
X133369685Y-95306961D01*
X133422489Y-95261206D01*
X133474000Y-95250000D01*
X138300000Y-95250000D01*
X138300000Y-96520000D01*
X134620000Y-96520000D01*
X134620000Y-97790000D01*
X134620000Y-100500000D01*
X134620000Y-102700000D01*
X134620000Y-106680000D01*
X138300000Y-106680000D01*
X141100000Y-106680000D01*
X144780000Y-106680000D01*
X144780000Y-102700000D01*
X144780000Y-100500000D01*
X144780000Y-96644000D01*
X144799685Y-96576961D01*
X144852489Y-96531206D01*
X144904000Y-96520000D01*
X177175500Y-96520000D01*
X177242539Y-96539685D01*
X177288294Y-96592489D01*
X177299500Y-96644000D01*
X177299500Y-126375500D01*
X177279815Y-126442539D01*
X177227011Y-126488294D01*
X177175500Y-126499500D01*
X125854000Y-126499500D01*
X125786961Y-126479815D01*
X125741206Y-126427011D01*
X125730000Y-126375500D01*
X125730000Y-125391236D01*
X125749685Y-125324197D01*
X125802489Y-125278442D01*
X125871647Y-125268498D01*
X125935203Y-125297523D01*
X125954320Y-125318353D01*
X125969894Y-125339790D01*
X126120213Y-125490109D01*
X126292179Y-125615048D01*
X126292181Y-125615049D01*
X126292184Y-125615051D01*
X126481588Y-125711557D01*
X126683757Y-125777246D01*
X126893713Y-125810500D01*
X126893714Y-125810500D01*
X127106286Y-125810500D01*
X127106287Y-125810500D01*
X127316243Y-125777246D01*
X127518412Y-125711557D01*
X127707816Y-125615051D01*
X127794138Y-125552335D01*
X127879786Y-125490109D01*
X127879788Y-125490106D01*
X127879792Y-125490104D01*
X128030104Y-125339792D01*
X128030106Y-125339788D01*
X128030109Y-125339786D01*
X128115890Y-125221717D01*
X128155051Y-125167816D01*
X128159793Y-125158508D01*
X128207763Y-125107711D01*
X128275583Y-125090911D01*
X128341719Y-125113445D01*
X128380763Y-125158500D01*
X128385373Y-125167547D01*
X128424728Y-125221716D01*
X129057037Y-124589408D01*
X129074075Y-124652993D01*
X129139901Y-124767007D01*
X129232993Y-124860099D01*
X129347007Y-124925925D01*
X129410590Y-124942962D01*
X128778282Y-125575269D01*
X128778282Y-125575270D01*
X128832449Y-125614624D01*
X129021782Y-125711095D01*
X129223870Y-125776757D01*
X129433754Y-125810000D01*
X129646246Y-125810000D01*
X129856127Y-125776757D01*
X129856130Y-125776757D01*
X130058217Y-125711095D01*
X130247554Y-125614622D01*
X130301716Y-125575270D01*
X130301717Y-125575270D01*
X129669408Y-124942962D01*
X129732993Y-124925925D01*
X129847007Y-124860099D01*
X129940099Y-124767007D01*
X130005925Y-124652993D01*
X130022962Y-124589408D01*
X130655270Y-125221717D01*
X130655270Y-125221716D01*
X130694622Y-125167555D01*
X130699232Y-125158507D01*
X130747205Y-125107709D01*
X130815025Y-125090912D01*
X130881161Y-125113447D01*
X130920204Y-125158504D01*
X130924949Y-125167817D01*
X131049890Y-125339786D01*
X131200213Y-125490109D01*
X131372179Y-125615048D01*
X131372181Y-125615049D01*
X131372184Y-125615051D01*
X131561588Y-125711557D01*
X131763757Y-125777246D01*
X131973713Y-125810500D01*
X131973714Y-125810500D01*
X132186286Y-125810500D01*
X132186287Y-125810500D01*
X132396243Y-125777246D01*
X132598412Y-125711557D01*
X132787816Y-125615051D01*
X132874138Y-125552335D01*
X132959786Y-125490109D01*
X132959788Y-125490106D01*
X132959792Y-125490104D01*
X133110104Y-125339792D01*
X133110106Y-125339788D01*
X133110109Y-125339786D01*
X133235048Y-125167820D01*
X133235047Y-125167820D01*
X133235051Y-125167816D01*
X133331557Y-124978412D01*
X133397246Y-124776243D01*
X133430500Y-124566287D01*
X133430500Y-124353713D01*
X135809500Y-124353713D01*
X135809500Y-124566287D01*
X135842754Y-124776243D01*
X135901236Y-124956232D01*
X135908444Y-124978414D01*
X136004951Y-125167820D01*
X136129890Y-125339786D01*
X136280213Y-125490109D01*
X136452179Y-125615048D01*
X136452181Y-125615049D01*
X136452184Y-125615051D01*
X136641588Y-125711557D01*
X136843757Y-125777246D01*
X137053713Y-125810500D01*
X137053714Y-125810500D01*
X137266286Y-125810500D01*
X137266287Y-125810500D01*
X137476243Y-125777246D01*
X137678412Y-125711557D01*
X137867816Y-125615051D01*
X137954138Y-125552335D01*
X138039786Y-125490109D01*
X138039788Y-125490106D01*
X138039792Y-125490104D01*
X138190104Y-125339792D01*
X138190106Y-125339788D01*
X138190109Y-125339786D01*
X138275890Y-125221717D01*
X138315051Y-125167816D01*
X138319793Y-125158508D01*
X138367763Y-125107711D01*
X138435583Y-125090911D01*
X138501719Y-125113445D01*
X138540763Y-125158500D01*
X138545373Y-125167547D01*
X138584728Y-125221716D01*
X139217037Y-124589408D01*
X139234075Y-124652993D01*
X139299901Y-124767007D01*
X139392993Y-124860099D01*
X139507007Y-124925925D01*
X139570590Y-124942962D01*
X138938282Y-125575269D01*
X138938282Y-125575270D01*
X138992449Y-125614624D01*
X139181782Y-125711095D01*
X139383870Y-125776757D01*
X139593754Y-125810000D01*
X139806246Y-125810000D01*
X140016127Y-125776757D01*
X140016130Y-125776757D01*
X140218217Y-125711095D01*
X140407554Y-125614622D01*
X140461716Y-125575270D01*
X140461717Y-125575270D01*
X139829408Y-124942962D01*
X139892993Y-124925925D01*
X140007007Y-124860099D01*
X140100099Y-124767007D01*
X140165925Y-124652993D01*
X140182962Y-124589409D01*
X140815270Y-125221717D01*
X140815270Y-125221716D01*
X140854622Y-125167555D01*
X140859232Y-125158507D01*
X140907205Y-125107709D01*
X140975025Y-125090912D01*
X141041161Y-125113447D01*
X141080204Y-125158504D01*
X141084949Y-125167817D01*
X141209890Y-125339786D01*
X141360213Y-125490109D01*
X141532179Y-125615048D01*
X141532181Y-125615049D01*
X141532184Y-125615051D01*
X141721588Y-125711557D01*
X141923757Y-125777246D01*
X142133713Y-125810500D01*
X142133714Y-125810500D01*
X142346286Y-125810500D01*
X142346287Y-125810500D01*
X142556243Y-125777246D01*
X142758412Y-125711557D01*
X142947816Y-125615051D01*
X143034138Y-125552335D01*
X143119786Y-125490109D01*
X143119788Y-125490106D01*
X143119792Y-125490104D01*
X143270104Y-125339792D01*
X143270106Y-125339788D01*
X143270109Y-125339786D01*
X143395048Y-125167820D01*
X143395047Y-125167820D01*
X143395051Y-125167816D01*
X143399514Y-125159054D01*
X143447488Y-125108259D01*
X143515308Y-125091463D01*
X143581444Y-125113999D01*
X143620486Y-125159056D01*
X143624951Y-125167820D01*
X143749890Y-125339786D01*
X143900213Y-125490109D01*
X144072179Y-125615048D01*
X144072181Y-125615049D01*
X144072184Y-125615051D01*
X144261588Y-125711557D01*
X144463757Y-125777246D01*
X144673713Y-125810500D01*
X144673714Y-125810500D01*
X144886286Y-125810500D01*
X144886287Y-125810500D01*
X145096243Y-125777246D01*
X145298412Y-125711557D01*
X145487816Y-125615051D01*
X145574138Y-125552335D01*
X145659786Y-125490109D01*
X145659788Y-125490106D01*
X145659792Y-125490104D01*
X145810104Y-125339792D01*
X145810106Y-125339788D01*
X145810109Y-125339786D01*
X145935048Y-125167820D01*
X145935047Y-125167820D01*
X145935051Y-125167816D01*
X145939514Y-125159054D01*
X145987488Y-125108259D01*
X146055308Y-125091463D01*
X146121444Y-125113999D01*
X146160486Y-125159056D01*
X146164951Y-125167820D01*
X146289890Y-125339786D01*
X146440213Y-125490109D01*
X146612179Y-125615048D01*
X146612181Y-125615049D01*
X146612184Y-125615051D01*
X146801588Y-125711557D01*
X147003757Y-125777246D01*
X147213713Y-125810500D01*
X147213714Y-125810500D01*
X147426286Y-125810500D01*
X147426287Y-125810500D01*
X147636243Y-125777246D01*
X147838412Y-125711557D01*
X148027816Y-125615051D01*
X148114138Y-125552335D01*
X148199786Y-125490109D01*
X148199788Y-125490106D01*
X148199792Y-125490104D01*
X148350104Y-125339792D01*
X148350106Y-125339788D01*
X148350109Y-125339786D01*
X148475048Y-125167820D01*
X148475047Y-125167820D01*
X148475051Y-125167816D01*
X148479514Y-125159054D01*
X148527488Y-125108259D01*
X148595308Y-125091463D01*
X148661444Y-125113999D01*
X148700486Y-125159056D01*
X148704951Y-125167820D01*
X148829890Y-125339786D01*
X148980213Y-125490109D01*
X149152179Y-125615048D01*
X149152181Y-125615049D01*
X149152184Y-125615051D01*
X149341588Y-125711557D01*
X149543757Y-125777246D01*
X149753713Y-125810500D01*
X149753714Y-125810500D01*
X149966286Y-125810500D01*
X149966287Y-125810500D01*
X150176243Y-125777246D01*
X150378412Y-125711557D01*
X150567816Y-125615051D01*
X150654138Y-125552335D01*
X150739786Y-125490109D01*
X150739788Y-125490106D01*
X150739792Y-125490104D01*
X150890104Y-125339792D01*
X150890106Y-125339788D01*
X150890109Y-125339786D01*
X151015048Y-125167820D01*
X151015047Y-125167820D01*
X151015051Y-125167816D01*
X151019514Y-125159054D01*
X151067488Y-125108259D01*
X151135308Y-125091463D01*
X151201444Y-125113999D01*
X151240486Y-125159056D01*
X151244951Y-125167820D01*
X151369890Y-125339786D01*
X151520213Y-125490109D01*
X151692179Y-125615048D01*
X151692181Y-125615049D01*
X151692184Y-125615051D01*
X151881588Y-125711557D01*
X152083757Y-125777246D01*
X152293713Y-125810500D01*
X152293714Y-125810500D01*
X152506286Y-125810500D01*
X152506287Y-125810500D01*
X152716243Y-125777246D01*
X152918412Y-125711557D01*
X153107816Y-125615051D01*
X153194138Y-125552335D01*
X153279786Y-125490109D01*
X153279788Y-125490106D01*
X153279792Y-125490104D01*
X153430104Y-125339792D01*
X153430106Y-125339788D01*
X153430109Y-125339786D01*
X153555048Y-125167820D01*
X153555047Y-125167820D01*
X153555051Y-125167816D01*
X153559514Y-125159054D01*
X153607488Y-125108259D01*
X153675308Y-125091463D01*
X153741444Y-125113999D01*
X153780486Y-125159056D01*
X153784951Y-125167820D01*
X153909890Y-125339786D01*
X154060213Y-125490109D01*
X154232179Y-125615048D01*
X154232181Y-125615049D01*
X154232184Y-125615051D01*
X154421588Y-125711557D01*
X154623757Y-125777246D01*
X154833713Y-125810500D01*
X154833714Y-125810500D01*
X155046286Y-125810500D01*
X155046287Y-125810500D01*
X155256243Y-125777246D01*
X155458412Y-125711557D01*
X155647816Y-125615051D01*
X155734138Y-125552335D01*
X155819786Y-125490109D01*
X155819788Y-125490106D01*
X155819792Y-125490104D01*
X155970104Y-125339792D01*
X155970106Y-125339788D01*
X155970109Y-125339786D01*
X156095048Y-125167820D01*
X156095047Y-125167820D01*
X156095051Y-125167816D01*
X156099514Y-125159054D01*
X156147488Y-125108259D01*
X156215308Y-125091463D01*
X156281444Y-125113999D01*
X156320486Y-125159056D01*
X156324951Y-125167820D01*
X156449890Y-125339786D01*
X156600213Y-125490109D01*
X156772179Y-125615048D01*
X156772181Y-125615049D01*
X156772184Y-125615051D01*
X156961588Y-125711557D01*
X157163757Y-125777246D01*
X157373713Y-125810500D01*
X157373714Y-125810500D01*
X157586286Y-125810500D01*
X157586287Y-125810500D01*
X157796243Y-125777246D01*
X157998412Y-125711557D01*
X158187816Y-125615051D01*
X158274138Y-125552335D01*
X158359786Y-125490109D01*
X158359788Y-125490106D01*
X158359792Y-125490104D01*
X158510104Y-125339792D01*
X158510106Y-125339788D01*
X158510109Y-125339786D01*
X158635048Y-125167820D01*
X158635047Y-125167820D01*
X158635051Y-125167816D01*
X158639514Y-125159054D01*
X158687488Y-125108259D01*
X158755308Y-125091463D01*
X158821444Y-125113999D01*
X158860486Y-125159056D01*
X158864951Y-125167820D01*
X158989890Y-125339786D01*
X159140213Y-125490109D01*
X159312179Y-125615048D01*
X159312181Y-125615049D01*
X159312184Y-125615051D01*
X159501588Y-125711557D01*
X159703757Y-125777246D01*
X159913713Y-125810500D01*
X159913714Y-125810500D01*
X160126286Y-125810500D01*
X160126287Y-125810500D01*
X160336243Y-125777246D01*
X160538412Y-125711557D01*
X160727816Y-125615051D01*
X160814138Y-125552335D01*
X160899786Y-125490109D01*
X160899788Y-125490106D01*
X160899792Y-125490104D01*
X161050104Y-125339792D01*
X161050106Y-125339788D01*
X161050109Y-125339786D01*
X161175048Y-125167820D01*
X161175047Y-125167820D01*
X161175051Y-125167816D01*
X161179514Y-125159054D01*
X161227488Y-125108259D01*
X161295308Y-125091463D01*
X161361444Y-125113999D01*
X161400486Y-125159056D01*
X161404951Y-125167820D01*
X161529890Y-125339786D01*
X161680213Y-125490109D01*
X161852179Y-125615048D01*
X161852181Y-125615049D01*
X161852184Y-125615051D01*
X162041588Y-125711557D01*
X162243757Y-125777246D01*
X162453713Y-125810500D01*
X162453714Y-125810500D01*
X162666286Y-125810500D01*
X162666287Y-125810500D01*
X162876243Y-125777246D01*
X163078412Y-125711557D01*
X163267816Y-125615051D01*
X163354138Y-125552335D01*
X163439786Y-125490109D01*
X163439788Y-125490106D01*
X163439792Y-125490104D01*
X163590104Y-125339792D01*
X163590106Y-125339788D01*
X163590109Y-125339786D01*
X163715048Y-125167820D01*
X163715047Y-125167820D01*
X163715051Y-125167816D01*
X163719514Y-125159054D01*
X163767488Y-125108259D01*
X163835308Y-125091463D01*
X163901444Y-125113999D01*
X163940486Y-125159056D01*
X163944951Y-125167820D01*
X164069890Y-125339786D01*
X164220213Y-125490109D01*
X164392179Y-125615048D01*
X164392181Y-125615049D01*
X164392184Y-125615051D01*
X164581588Y-125711557D01*
X164783757Y-125777246D01*
X164993713Y-125810500D01*
X164993714Y-125810500D01*
X165206286Y-125810500D01*
X165206287Y-125810500D01*
X165416243Y-125777246D01*
X165618412Y-125711557D01*
X165807816Y-125615051D01*
X165894138Y-125552335D01*
X165979786Y-125490109D01*
X165979788Y-125490106D01*
X165979792Y-125490104D01*
X166130104Y-125339792D01*
X166130106Y-125339788D01*
X166130109Y-125339786D01*
X166255048Y-125167820D01*
X166255047Y-125167820D01*
X166255051Y-125167816D01*
X166259514Y-125159054D01*
X166307488Y-125108259D01*
X166375308Y-125091463D01*
X166441444Y-125113999D01*
X166480486Y-125159056D01*
X166484951Y-125167820D01*
X166609890Y-125339786D01*
X166760213Y-125490109D01*
X166932179Y-125615048D01*
X166932181Y-125615049D01*
X166932184Y-125615051D01*
X167121588Y-125711557D01*
X167323757Y-125777246D01*
X167533713Y-125810500D01*
X167533714Y-125810500D01*
X167746286Y-125810500D01*
X167746287Y-125810500D01*
X167956243Y-125777246D01*
X168158412Y-125711557D01*
X168347816Y-125615051D01*
X168434147Y-125552328D01*
X168519784Y-125490110D01*
X168519784Y-125490109D01*
X168519792Y-125490104D01*
X168633329Y-125376566D01*
X168694648Y-125343084D01*
X168764340Y-125348068D01*
X168820274Y-125389939D01*
X168837189Y-125420917D01*
X168886202Y-125552328D01*
X168886206Y-125552335D01*
X168972452Y-125667544D01*
X168972455Y-125667547D01*
X169087664Y-125753793D01*
X169087671Y-125753797D01*
X169222517Y-125804091D01*
X169222516Y-125804091D01*
X169229444Y-125804835D01*
X169282127Y-125810500D01*
X171077872Y-125810499D01*
X171137483Y-125804091D01*
X171272331Y-125753796D01*
X171387546Y-125667546D01*
X171473796Y-125552331D01*
X171524091Y-125417483D01*
X171530500Y-125357873D01*
X171530499Y-124397648D01*
X173999500Y-124397648D01*
X173999500Y-124602351D01*
X174031522Y-124804534D01*
X174094781Y-124999223D01*
X174150339Y-125108259D01*
X174175941Y-125158507D01*
X174187715Y-125181613D01*
X174308028Y-125347213D01*
X174452786Y-125491971D01*
X174567440Y-125575270D01*
X174618390Y-125612287D01*
X174726838Y-125667544D01*
X174800776Y-125705218D01*
X174800778Y-125705218D01*
X174800781Y-125705220D01*
X174905137Y-125739127D01*
X174995465Y-125768477D01*
X175047743Y-125776757D01*
X175197648Y-125800500D01*
X175197649Y-125800500D01*
X175402351Y-125800500D01*
X175402352Y-125800500D01*
X175604534Y-125768477D01*
X175799219Y-125705220D01*
X175981610Y-125612287D01*
X176074590Y-125544732D01*
X176147213Y-125491971D01*
X176147215Y-125491968D01*
X176147219Y-125491966D01*
X176291966Y-125347219D01*
X176291968Y-125347215D01*
X176291971Y-125347213D01*
X176349160Y-125268498D01*
X176412287Y-125181610D01*
X176505220Y-124999219D01*
X176568477Y-124804534D01*
X176600500Y-124602352D01*
X176600500Y-124397648D01*
X176568477Y-124195466D01*
X176505220Y-124000781D01*
X176505218Y-124000778D01*
X176505218Y-124000776D01*
X176471503Y-123934607D01*
X176412287Y-123818390D01*
X176364381Y-123752452D01*
X176291971Y-123652786D01*
X176147213Y-123508028D01*
X175981613Y-123387715D01*
X175981612Y-123387714D01*
X175981610Y-123387713D01*
X175924653Y-123358691D01*
X175799223Y-123294781D01*
X175604534Y-123231522D01*
X175429995Y-123203878D01*
X175402352Y-123199500D01*
X175197648Y-123199500D01*
X175173329Y-123203351D01*
X174995465Y-123231522D01*
X174800776Y-123294781D01*
X174618386Y-123387715D01*
X174452786Y-123508028D01*
X174308028Y-123652786D01*
X174187715Y-123818386D01*
X174094781Y-124000776D01*
X174031522Y-124195465D01*
X173999500Y-124397648D01*
X171530499Y-124397648D01*
X171530499Y-123562128D01*
X171524091Y-123502517D01*
X171522810Y-123499083D01*
X171473797Y-123367671D01*
X171473793Y-123367664D01*
X171387547Y-123252455D01*
X171387544Y-123252452D01*
X171272335Y-123166206D01*
X171272328Y-123166202D01*
X171137482Y-123115908D01*
X171137483Y-123115908D01*
X171077883Y-123109501D01*
X171077881Y-123109500D01*
X171077873Y-123109500D01*
X171077864Y-123109500D01*
X169282129Y-123109500D01*
X169282123Y-123109501D01*
X169222516Y-123115908D01*
X169087671Y-123166202D01*
X169087664Y-123166206D01*
X168972455Y-123252452D01*
X168972452Y-123252455D01*
X168886206Y-123367664D01*
X168886203Y-123367669D01*
X168837189Y-123499083D01*
X168795317Y-123555016D01*
X168729853Y-123579433D01*
X168661580Y-123564581D01*
X168633326Y-123543430D01*
X168519786Y-123429890D01*
X168347820Y-123304951D01*
X168158414Y-123208444D01*
X168158413Y-123208443D01*
X168158412Y-123208443D01*
X167956243Y-123142754D01*
X167956241Y-123142753D01*
X167956240Y-123142753D01*
X167794957Y-123117208D01*
X167746287Y-123109500D01*
X167533713Y-123109500D01*
X167485042Y-123117208D01*
X167323760Y-123142753D01*
X167121585Y-123208444D01*
X166932179Y-123304951D01*
X166760213Y-123429890D01*
X166609890Y-123580213D01*
X166484949Y-123752182D01*
X166480484Y-123760946D01*
X166432509Y-123811742D01*
X166364688Y-123828536D01*
X166298553Y-123805998D01*
X166259516Y-123760946D01*
X166255050Y-123752182D01*
X166130109Y-123580213D01*
X165979786Y-123429890D01*
X165807820Y-123304951D01*
X165618414Y-123208444D01*
X165618413Y-123208443D01*
X165618412Y-123208443D01*
X165416243Y-123142754D01*
X165416241Y-123142753D01*
X165416240Y-123142753D01*
X165254957Y-123117208D01*
X165206287Y-123109500D01*
X164993713Y-123109500D01*
X164945042Y-123117208D01*
X164783760Y-123142753D01*
X164581585Y-123208444D01*
X164392179Y-123304951D01*
X164220213Y-123429890D01*
X164069890Y-123580213D01*
X163944949Y-123752182D01*
X163940484Y-123760946D01*
X163892509Y-123811742D01*
X163824688Y-123828536D01*
X163758553Y-123805998D01*
X163719516Y-123760946D01*
X163715050Y-123752182D01*
X163590109Y-123580213D01*
X163439786Y-123429890D01*
X163267820Y-123304951D01*
X163078414Y-123208444D01*
X163078413Y-123208443D01*
X163078412Y-123208443D01*
X162876243Y-123142754D01*
X162876241Y-123142753D01*
X162876240Y-123142753D01*
X162714957Y-123117208D01*
X162666287Y-123109500D01*
X162453713Y-123109500D01*
X162405042Y-123117208D01*
X162243760Y-123142753D01*
X162041585Y-123208444D01*
X161852179Y-123304951D01*
X161680213Y-123429890D01*
X161529890Y-123580213D01*
X161404949Y-123752182D01*
X161400484Y-123760946D01*
X161352509Y-123811742D01*
X161284688Y-123828536D01*
X161218553Y-123805998D01*
X161179516Y-123760946D01*
X161175050Y-123752182D01*
X161050109Y-123580213D01*
X160899786Y-123429890D01*
X160727820Y-123304951D01*
X160538414Y-123208444D01*
X160538413Y-123208443D01*
X160538412Y-123208443D01*
X160336243Y-123142754D01*
X160336241Y-123142753D01*
X160336240Y-123142753D01*
X160174957Y-123117208D01*
X160126287Y-123109500D01*
X159913713Y-123109500D01*
X159865042Y-123117208D01*
X159703760Y-123142753D01*
X159501585Y-123208444D01*
X159312179Y-123304951D01*
X159140213Y-123429890D01*
X158989890Y-123580213D01*
X158864949Y-123752182D01*
X158860484Y-123760946D01*
X158812509Y-123811742D01*
X158744688Y-123828536D01*
X158678553Y-123805998D01*
X158639516Y-123760946D01*
X158635050Y-123752182D01*
X158510109Y-123580213D01*
X158359786Y-123429890D01*
X158187820Y-123304951D01*
X157998414Y-123208444D01*
X157998413Y-123208443D01*
X157998412Y-123208443D01*
X157796243Y-123142754D01*
X157796241Y-123142753D01*
X157796240Y-123142753D01*
X157634957Y-123117208D01*
X157586287Y-123109500D01*
X157373713Y-123109500D01*
X157325042Y-123117208D01*
X157163760Y-123142753D01*
X156961585Y-123208444D01*
X156772179Y-123304951D01*
X156600213Y-123429890D01*
X156449890Y-123580213D01*
X156324949Y-123752182D01*
X156320484Y-123760946D01*
X156272509Y-123811742D01*
X156204688Y-123828536D01*
X156138553Y-123805998D01*
X156099516Y-123760946D01*
X156095050Y-123752182D01*
X155970109Y-123580213D01*
X155819786Y-123429890D01*
X155647820Y-123304951D01*
X155458414Y-123208444D01*
X155458413Y-123208443D01*
X155458412Y-123208443D01*
X155256243Y-123142754D01*
X155256241Y-123142753D01*
X155256240Y-123142753D01*
X155094957Y-123117208D01*
X155046287Y-123109500D01*
X154833713Y-123109500D01*
X154785042Y-123117208D01*
X154623760Y-123142753D01*
X154421585Y-123208444D01*
X154232179Y-123304951D01*
X154060213Y-123429890D01*
X153909890Y-123580213D01*
X153784949Y-123752182D01*
X153780484Y-123760946D01*
X153732509Y-123811742D01*
X153664688Y-123828536D01*
X153598553Y-123805998D01*
X153559516Y-123760946D01*
X153555050Y-123752182D01*
X153430109Y-123580213D01*
X153279786Y-123429890D01*
X153107820Y-123304951D01*
X152918414Y-123208444D01*
X152918413Y-123208443D01*
X152918412Y-123208443D01*
X152716243Y-123142754D01*
X152716241Y-123142753D01*
X152716240Y-123142753D01*
X152554957Y-123117208D01*
X152506287Y-123109500D01*
X152293713Y-123109500D01*
X152245042Y-123117208D01*
X152083760Y-123142753D01*
X151881585Y-123208444D01*
X151692179Y-123304951D01*
X151520213Y-123429890D01*
X151369890Y-123580213D01*
X151244949Y-123752182D01*
X151240484Y-123760946D01*
X151192509Y-123811742D01*
X151124688Y-123828536D01*
X151058553Y-123805998D01*
X151019516Y-123760946D01*
X151015050Y-123752182D01*
X150890109Y-123580213D01*
X150739786Y-123429890D01*
X150567820Y-123304951D01*
X150378414Y-123208444D01*
X150378413Y-123208443D01*
X150378412Y-123208443D01*
X150176243Y-123142754D01*
X150176241Y-123142753D01*
X150176240Y-123142753D01*
X150014957Y-123117208D01*
X149966287Y-123109500D01*
X149753713Y-123109500D01*
X149705042Y-123117208D01*
X149543760Y-123142753D01*
X149341585Y-123208444D01*
X149152179Y-123304951D01*
X148980213Y-123429890D01*
X148829890Y-123580213D01*
X148704949Y-123752182D01*
X148700484Y-123760946D01*
X148652509Y-123811742D01*
X148584688Y-123828536D01*
X148518553Y-123805998D01*
X148479516Y-123760946D01*
X148475050Y-123752182D01*
X148350109Y-123580213D01*
X148199786Y-123429890D01*
X148027820Y-123304951D01*
X147838414Y-123208444D01*
X147838413Y-123208443D01*
X147838412Y-123208443D01*
X147636243Y-123142754D01*
X147636241Y-123142753D01*
X147636240Y-123142753D01*
X147474957Y-123117208D01*
X147426287Y-123109500D01*
X147213713Y-123109500D01*
X147165042Y-123117208D01*
X147003760Y-123142753D01*
X146801585Y-123208444D01*
X146612179Y-123304951D01*
X146440213Y-123429890D01*
X146289890Y-123580213D01*
X146164949Y-123752182D01*
X146160484Y-123760946D01*
X146112509Y-123811742D01*
X146044688Y-123828536D01*
X145978553Y-123805998D01*
X145939516Y-123760946D01*
X145935050Y-123752182D01*
X145810109Y-123580213D01*
X145659786Y-123429890D01*
X145487820Y-123304951D01*
X145298414Y-123208444D01*
X145298413Y-123208443D01*
X145298412Y-123208443D01*
X145096243Y-123142754D01*
X145096241Y-123142753D01*
X145096240Y-123142753D01*
X144934957Y-123117208D01*
X144886287Y-123109500D01*
X144673713Y-123109500D01*
X144625042Y-123117208D01*
X144463760Y-123142753D01*
X144261585Y-123208444D01*
X144072179Y-123304951D01*
X143900213Y-123429890D01*
X143749890Y-123580213D01*
X143624949Y-123752182D01*
X143620484Y-123760946D01*
X143572509Y-123811742D01*
X143504688Y-123828536D01*
X143438553Y-123805998D01*
X143399516Y-123760946D01*
X143395050Y-123752182D01*
X143270109Y-123580213D01*
X143119786Y-123429890D01*
X142947820Y-123304951D01*
X142758414Y-123208444D01*
X142758413Y-123208443D01*
X142758412Y-123208443D01*
X142556243Y-123142754D01*
X142556241Y-123142753D01*
X142556240Y-123142753D01*
X142394957Y-123117208D01*
X142346287Y-123109500D01*
X142133713Y-123109500D01*
X142085042Y-123117208D01*
X141923760Y-123142753D01*
X141721585Y-123208444D01*
X141532179Y-123304951D01*
X141360213Y-123429890D01*
X141209890Y-123580213D01*
X141084949Y-123752182D01*
X141080202Y-123761499D01*
X141032227Y-123812293D01*
X140964405Y-123829087D01*
X140898271Y-123806548D01*
X140859234Y-123761495D01*
X140854626Y-123752452D01*
X140815270Y-123698282D01*
X140815269Y-123698282D01*
X140182962Y-124330590D01*
X140165925Y-124267007D01*
X140100099Y-124152993D01*
X140007007Y-124059901D01*
X139892993Y-123994075D01*
X139829409Y-123977037D01*
X140461716Y-123344728D01*
X140407550Y-123305375D01*
X140218217Y-123208904D01*
X140016129Y-123143242D01*
X139806246Y-123110000D01*
X139593754Y-123110000D01*
X139383872Y-123143242D01*
X139383869Y-123143242D01*
X139181782Y-123208904D01*
X138992439Y-123305380D01*
X138938282Y-123344727D01*
X138938282Y-123344728D01*
X139570591Y-123977037D01*
X139507007Y-123994075D01*
X139392993Y-124059901D01*
X139299901Y-124152993D01*
X139234075Y-124267007D01*
X139217037Y-124330591D01*
X138584728Y-123698282D01*
X138584727Y-123698282D01*
X138545380Y-123752440D01*
X138545376Y-123752446D01*
X138540760Y-123761505D01*
X138492781Y-123812297D01*
X138424959Y-123829087D01*
X138358826Y-123806543D01*
X138319794Y-123761493D01*
X138315051Y-123752184D01*
X138315049Y-123752181D01*
X138315048Y-123752179D01*
X138190109Y-123580213D01*
X138039786Y-123429890D01*
X137867820Y-123304951D01*
X137678414Y-123208444D01*
X137678413Y-123208443D01*
X137678412Y-123208443D01*
X137476243Y-123142754D01*
X137476241Y-123142753D01*
X137476240Y-123142753D01*
X137314957Y-123117208D01*
X137266287Y-123109500D01*
X137053713Y-123109500D01*
X137005042Y-123117208D01*
X136843760Y-123142753D01*
X136641585Y-123208444D01*
X136452179Y-123304951D01*
X136280213Y-123429890D01*
X136129890Y-123580213D01*
X136004951Y-123752179D01*
X135908444Y-123941585D01*
X135842753Y-124143760D01*
X135841291Y-124152993D01*
X135809500Y-124353713D01*
X133430500Y-124353713D01*
X133397246Y-124143757D01*
X133331557Y-123941588D01*
X133235051Y-123752184D01*
X133235049Y-123752181D01*
X133235048Y-123752179D01*
X133110109Y-123580213D01*
X132959786Y-123429890D01*
X132787820Y-123304951D01*
X132598414Y-123208444D01*
X132598413Y-123208443D01*
X132598412Y-123208443D01*
X132396243Y-123142754D01*
X132396241Y-123142753D01*
X132396240Y-123142753D01*
X132234957Y-123117208D01*
X132186287Y-123109500D01*
X131973713Y-123109500D01*
X131925042Y-123117208D01*
X131763760Y-123142753D01*
X131561585Y-123208444D01*
X131372179Y-123304951D01*
X131200213Y-123429890D01*
X131049890Y-123580213D01*
X130924949Y-123752182D01*
X130920202Y-123761499D01*
X130872227Y-123812293D01*
X130804405Y-123829087D01*
X130738271Y-123806548D01*
X130699234Y-123761495D01*
X130694626Y-123752452D01*
X130655270Y-123698282D01*
X130655269Y-123698282D01*
X130022962Y-124330590D01*
X130005925Y-124267007D01*
X129940099Y-124152993D01*
X129847007Y-124059901D01*
X129732993Y-123994075D01*
X129669409Y-123977037D01*
X130301716Y-123344728D01*
X130247550Y-123305375D01*
X130058217Y-123208904D01*
X129856129Y-123143242D01*
X129646246Y-123110000D01*
X129433754Y-123110000D01*
X129223872Y-123143242D01*
X129223869Y-123143242D01*
X129021782Y-123208904D01*
X128832439Y-123305380D01*
X128778282Y-123344727D01*
X128778282Y-123344728D01*
X129410591Y-123977037D01*
X129347007Y-123994075D01*
X129232993Y-124059901D01*
X129139901Y-124152993D01*
X129074075Y-124267007D01*
X129057037Y-124330591D01*
X128424728Y-123698282D01*
X128424727Y-123698282D01*
X128385380Y-123752440D01*
X128385376Y-123752446D01*
X128380760Y-123761505D01*
X128332781Y-123812297D01*
X128264959Y-123829087D01*
X128198826Y-123806543D01*
X128159794Y-123761493D01*
X128155051Y-123752184D01*
X128155049Y-123752181D01*
X128155048Y-123752179D01*
X128030109Y-123580213D01*
X127879786Y-123429890D01*
X127707820Y-123304951D01*
X127518414Y-123208444D01*
X127518413Y-123208443D01*
X127518412Y-123208443D01*
X127316243Y-123142754D01*
X127316241Y-123142753D01*
X127316240Y-123142753D01*
X127154957Y-123117208D01*
X127106287Y-123109500D01*
X126893713Y-123109500D01*
X126845042Y-123117208D01*
X126683760Y-123142753D01*
X126481585Y-123208444D01*
X126292179Y-123304951D01*
X126120213Y-123429890D01*
X125969894Y-123580209D01*
X125969890Y-123580214D01*
X125954318Y-123601648D01*
X125898988Y-123644314D01*
X125829375Y-123650293D01*
X125767580Y-123617688D01*
X125733223Y-123556849D01*
X125730000Y-123528763D01*
X125730000Y-118321153D01*
X168369500Y-118321153D01*
X168369500Y-118478846D01*
X168400261Y-118633489D01*
X168400264Y-118633501D01*
X168460602Y-118779172D01*
X168460609Y-118779185D01*
X168548210Y-118910288D01*
X168548213Y-118910292D01*
X168659707Y-119021786D01*
X168659710Y-119021788D01*
X168659711Y-119021789D01*
X168680733Y-119035835D01*
X168689806Y-119041898D01*
X168734610Y-119095511D01*
X168743317Y-119164836D01*
X168713162Y-119227863D01*
X168689806Y-119248102D01*
X168659707Y-119268213D01*
X168548213Y-119379707D01*
X168548210Y-119379711D01*
X168460609Y-119510814D01*
X168460602Y-119510827D01*
X168400264Y-119656498D01*
X168400261Y-119656510D01*
X168369500Y-119811153D01*
X168369500Y-119968846D01*
X168400261Y-120123489D01*
X168400264Y-120123501D01*
X168460602Y-120269172D01*
X168460609Y-120269185D01*
X168548210Y-120400288D01*
X168548213Y-120400292D01*
X168659709Y-120511788D01*
X168667358Y-120516899D01*
X168712162Y-120570513D01*
X168720868Y-120639838D01*
X168690712Y-120702865D01*
X168667358Y-120723101D01*
X168659709Y-120728211D01*
X168548213Y-120839707D01*
X168548210Y-120839711D01*
X168460609Y-120970814D01*
X168460602Y-120970827D01*
X168400264Y-121116498D01*
X168400261Y-121116510D01*
X168369500Y-121271153D01*
X168369500Y-121428846D01*
X168400261Y-121583489D01*
X168400264Y-121583501D01*
X168460602Y-121729172D01*
X168460609Y-121729185D01*
X168548210Y-121860288D01*
X168548213Y-121860292D01*
X168659707Y-121971786D01*
X168659711Y-121971789D01*
X168790814Y-122059390D01*
X168790827Y-122059397D01*
X168936498Y-122119735D01*
X168936503Y-122119737D01*
X169091153Y-122150499D01*
X169091156Y-122150500D01*
X169091158Y-122150500D01*
X169248844Y-122150500D01*
X169248845Y-122150499D01*
X169403497Y-122119737D01*
X169549179Y-122059394D01*
X169680289Y-121971789D01*
X169791789Y-121860289D01*
X169879394Y-121729179D01*
X169939737Y-121583497D01*
X169970500Y-121428842D01*
X169970500Y-121271158D01*
X169970500Y-121271155D01*
X169970499Y-121271153D01*
X169952921Y-121182782D01*
X169939737Y-121116503D01*
X169899315Y-121018914D01*
X169879397Y-120970827D01*
X169879390Y-120970814D01*
X169791789Y-120839711D01*
X169791786Y-120839707D01*
X169680292Y-120728213D01*
X169680287Y-120728209D01*
X169672645Y-120723103D01*
X169627839Y-120669491D01*
X169619130Y-120600166D01*
X169649284Y-120537139D01*
X169672645Y-120516897D01*
X169676962Y-120514011D01*
X169680289Y-120511789D01*
X169791789Y-120400289D01*
X169879394Y-120269179D01*
X169939737Y-120123497D01*
X169970500Y-119968842D01*
X169970500Y-119811158D01*
X169970500Y-119811155D01*
X169970499Y-119811153D01*
X169939738Y-119656510D01*
X169939737Y-119656503D01*
X169909270Y-119582949D01*
X169879397Y-119510827D01*
X169879390Y-119510814D01*
X169791789Y-119379711D01*
X169791786Y-119379707D01*
X169680292Y-119268213D01*
X169680284Y-119268207D01*
X169650195Y-119248102D01*
X169605389Y-119194490D01*
X169596682Y-119125165D01*
X169626836Y-119062138D01*
X169650195Y-119041898D01*
X169671366Y-119027750D01*
X169680289Y-119021789D01*
X169791789Y-118910289D01*
X169879394Y-118779179D01*
X169879395Y-118779176D01*
X169879397Y-118779173D01*
X169882719Y-118771153D01*
X171189500Y-118771153D01*
X171189500Y-118928846D01*
X171220261Y-119083489D01*
X171220264Y-119083501D01*
X171280602Y-119229172D01*
X171280609Y-119229185D01*
X171333667Y-119308591D01*
X171354545Y-119375268D01*
X171336061Y-119442649D01*
X171333668Y-119446372D01*
X171290608Y-119510816D01*
X171290602Y-119510827D01*
X171230264Y-119656498D01*
X171230261Y-119656510D01*
X171199500Y-119811153D01*
X171199500Y-119968846D01*
X171230261Y-120123489D01*
X171230264Y-120123501D01*
X171290602Y-120269172D01*
X171290612Y-120269190D01*
X171337008Y-120338627D01*
X171357886Y-120405304D01*
X171339401Y-120472684D01*
X171337008Y-120476407D01*
X171280612Y-120560809D01*
X171280602Y-120560827D01*
X171220264Y-120706498D01*
X171220261Y-120706510D01*
X171189500Y-120861153D01*
X171189500Y-121018846D01*
X171220261Y-121173489D01*
X171220264Y-121173501D01*
X171280602Y-121319172D01*
X171280609Y-121319185D01*
X171368210Y-121450288D01*
X171368213Y-121450292D01*
X171479707Y-121561786D01*
X171479711Y-121561789D01*
X171610814Y-121649390D01*
X171610827Y-121649397D01*
X171756498Y-121709735D01*
X171756503Y-121709737D01*
X171911153Y-121740499D01*
X171911156Y-121740500D01*
X171911158Y-121740500D01*
X172068844Y-121740500D01*
X172068845Y-121740499D01*
X172223497Y-121709737D01*
X172369179Y-121649394D01*
X172500289Y-121561789D01*
X172611789Y-121450289D01*
X172699394Y-121319179D01*
X172759737Y-121173497D01*
X172790500Y-121018842D01*
X172790500Y-120861158D01*
X172790500Y-120861155D01*
X172790499Y-120861153D01*
X172764055Y-120728211D01*
X172759737Y-120706503D01*
X172744406Y-120669491D01*
X172699397Y-120560827D01*
X172699390Y-120560814D01*
X172652991Y-120491373D01*
X172632113Y-120424695D01*
X172650598Y-120357315D01*
X172652992Y-120353590D01*
X172709389Y-120269187D01*
X172709390Y-120269184D01*
X172709394Y-120269179D01*
X172769737Y-120123497D01*
X172800500Y-119968842D01*
X172800500Y-119811158D01*
X172800500Y-119811155D01*
X172800499Y-119811153D01*
X172769738Y-119656510D01*
X172769737Y-119656503D01*
X172739270Y-119582949D01*
X172709397Y-119510827D01*
X172709390Y-119510814D01*
X172656332Y-119431408D01*
X172635454Y-119364731D01*
X172653938Y-119297351D01*
X172656332Y-119293626D01*
X172673312Y-119268213D01*
X172699394Y-119229179D01*
X172759737Y-119083497D01*
X172790500Y-118928842D01*
X172790500Y-118771158D01*
X172790500Y-118771155D01*
X172790499Y-118771153D01*
X172779849Y-118717613D01*
X172759737Y-118616503D01*
X172748552Y-118589500D01*
X172699397Y-118470827D01*
X172699390Y-118470814D01*
X172611789Y-118339711D01*
X172611786Y-118339707D01*
X172500292Y-118228213D01*
X172500288Y-118228210D01*
X172369185Y-118140609D01*
X172369172Y-118140602D01*
X172223501Y-118080264D01*
X172223489Y-118080261D01*
X172068845Y-118049500D01*
X172068842Y-118049500D01*
X171911158Y-118049500D01*
X171911155Y-118049500D01*
X171756510Y-118080261D01*
X171756498Y-118080264D01*
X171610827Y-118140602D01*
X171610814Y-118140609D01*
X171479711Y-118228210D01*
X171479707Y-118228213D01*
X171368213Y-118339707D01*
X171368210Y-118339711D01*
X171280609Y-118470814D01*
X171280602Y-118470827D01*
X171220264Y-118616498D01*
X171220261Y-118616510D01*
X171189500Y-118771153D01*
X169882719Y-118771153D01*
X169904895Y-118717614D01*
X169904895Y-118717613D01*
X169914471Y-118694495D01*
X169939737Y-118633497D01*
X169970500Y-118478842D01*
X169970500Y-118321158D01*
X169970500Y-118321155D01*
X169970499Y-118321153D01*
X169952012Y-118228213D01*
X169939737Y-118166503D01*
X169939735Y-118166498D01*
X169879397Y-118020827D01*
X169879390Y-118020814D01*
X169791789Y-117889711D01*
X169791786Y-117889707D01*
X169680292Y-117778213D01*
X169680288Y-117778210D01*
X169549185Y-117690609D01*
X169549172Y-117690602D01*
X169403501Y-117630264D01*
X169403489Y-117630261D01*
X169248845Y-117599500D01*
X169248842Y-117599500D01*
X169091158Y-117599500D01*
X169091155Y-117599500D01*
X168936510Y-117630261D01*
X168936498Y-117630264D01*
X168790827Y-117690602D01*
X168790814Y-117690609D01*
X168659711Y-117778210D01*
X168659707Y-117778213D01*
X168548213Y-117889707D01*
X168548210Y-117889711D01*
X168460609Y-118020814D01*
X168460602Y-118020827D01*
X168400264Y-118166498D01*
X168400261Y-118166510D01*
X168369500Y-118321153D01*
X125730000Y-118321153D01*
X125730000Y-113311153D01*
X149839500Y-113311153D01*
X149839500Y-113468846D01*
X149870261Y-113623489D01*
X149870264Y-113623501D01*
X149930602Y-113769172D01*
X149930609Y-113769185D01*
X150018210Y-113900288D01*
X150018213Y-113900292D01*
X150129707Y-114011786D01*
X150129711Y-114011789D01*
X150260814Y-114099390D01*
X150260827Y-114099397D01*
X150365526Y-114142764D01*
X150406503Y-114159737D01*
X150561153Y-114190499D01*
X150561156Y-114190500D01*
X150561158Y-114190500D01*
X150718844Y-114190500D01*
X150718845Y-114190499D01*
X150873497Y-114159737D01*
X150986166Y-114113067D01*
X151019172Y-114099397D01*
X151019172Y-114099396D01*
X151019179Y-114099394D01*
X151150289Y-114011789D01*
X151261789Y-113900289D01*
X151349394Y-113769179D01*
X151409737Y-113623497D01*
X151440500Y-113468842D01*
X151440500Y-113321153D01*
X154349500Y-113321153D01*
X154349500Y-113478846D01*
X154380261Y-113633489D01*
X154380264Y-113633501D01*
X154440602Y-113779172D01*
X154440609Y-113779185D01*
X154528210Y-113910288D01*
X154528213Y-113910292D01*
X154639707Y-114021786D01*
X154639711Y-114021789D01*
X154770814Y-114109390D01*
X154770827Y-114109397D01*
X154892363Y-114159738D01*
X154916503Y-114169737D01*
X155071153Y-114200499D01*
X155071156Y-114200500D01*
X155071158Y-114200500D01*
X155228844Y-114200500D01*
X155228845Y-114200499D01*
X155383497Y-114169737D01*
X155529179Y-114109394D01*
X155660289Y-114021789D01*
X155771789Y-113910289D01*
X155859394Y-113779179D01*
X155919737Y-113633497D01*
X155950500Y-113478842D01*
X155950500Y-113321158D01*
X155950500Y-113321155D01*
X155950499Y-113321153D01*
X155945677Y-113296911D01*
X155919737Y-113166503D01*
X155908565Y-113139530D01*
X155859397Y-113020827D01*
X155859390Y-113020814D01*
X155771789Y-112889711D01*
X155771786Y-112889707D01*
X155660292Y-112778213D01*
X155660288Y-112778210D01*
X155529185Y-112690609D01*
X155529172Y-112690602D01*
X155383501Y-112630264D01*
X155383489Y-112630261D01*
X155228845Y-112599500D01*
X155228842Y-112599500D01*
X155071158Y-112599500D01*
X155071155Y-112599500D01*
X154916510Y-112630261D01*
X154916498Y-112630264D01*
X154770827Y-112690602D01*
X154770814Y-112690609D01*
X154639711Y-112778210D01*
X154639707Y-112778213D01*
X154528213Y-112889707D01*
X154528210Y-112889711D01*
X154440609Y-113020814D01*
X154440602Y-113020827D01*
X154380264Y-113166498D01*
X154380261Y-113166510D01*
X154349500Y-113321153D01*
X151440500Y-113321153D01*
X151440500Y-113311158D01*
X151440500Y-113311155D01*
X151440499Y-113311153D01*
X151427305Y-113244822D01*
X151409737Y-113156503D01*
X151389964Y-113108767D01*
X151349397Y-113010827D01*
X151349390Y-113010814D01*
X151261789Y-112879711D01*
X151261786Y-112879707D01*
X151150292Y-112768213D01*
X151150288Y-112768210D01*
X151019185Y-112680609D01*
X151019172Y-112680602D01*
X150873501Y-112620264D01*
X150873489Y-112620261D01*
X150718845Y-112589500D01*
X150718842Y-112589500D01*
X150561158Y-112589500D01*
X150561155Y-112589500D01*
X150406510Y-112620261D01*
X150406498Y-112620264D01*
X150260827Y-112680602D01*
X150260814Y-112680609D01*
X150129711Y-112768210D01*
X150129707Y-112768213D01*
X150018213Y-112879707D01*
X150018210Y-112879711D01*
X149930609Y-113010814D01*
X149930602Y-113010827D01*
X149870264Y-113156498D01*
X149870261Y-113156510D01*
X149839500Y-113311153D01*
X125730000Y-113311153D01*
X125730000Y-113030000D01*
X124522153Y-111822153D01*
X125397500Y-111822153D01*
X125397500Y-111979846D01*
X125428261Y-112134489D01*
X125428264Y-112134501D01*
X125488602Y-112280172D01*
X125488609Y-112280185D01*
X125576210Y-112411288D01*
X125576213Y-112411292D01*
X125687707Y-112522786D01*
X125687711Y-112522789D01*
X125818814Y-112610390D01*
X125818827Y-112610397D01*
X125898459Y-112643381D01*
X125964503Y-112670737D01*
X126064391Y-112690606D01*
X126119153Y-112701499D01*
X126119156Y-112701500D01*
X126119158Y-112701500D01*
X126276844Y-112701500D01*
X126276845Y-112701499D01*
X126431497Y-112670737D01*
X126577179Y-112610394D01*
X126708289Y-112522789D01*
X126819789Y-112411289D01*
X126907394Y-112280179D01*
X126967737Y-112134497D01*
X126998500Y-111979842D01*
X126998500Y-111822158D01*
X126998500Y-111822155D01*
X126998499Y-111822153D01*
X126995377Y-111806459D01*
X126967737Y-111667503D01*
X126917934Y-111547266D01*
X126907397Y-111521827D01*
X126907390Y-111521814D01*
X126819789Y-111390711D01*
X126819786Y-111390707D01*
X126708292Y-111279213D01*
X126708288Y-111279210D01*
X126577185Y-111191609D01*
X126577172Y-111191602D01*
X126431501Y-111131264D01*
X126431489Y-111131261D01*
X126276845Y-111100500D01*
X126276842Y-111100500D01*
X126119158Y-111100500D01*
X126119155Y-111100500D01*
X125964510Y-111131261D01*
X125964498Y-111131264D01*
X125818827Y-111191602D01*
X125818814Y-111191609D01*
X125687711Y-111279210D01*
X125687707Y-111279213D01*
X125576213Y-111390707D01*
X125576210Y-111390711D01*
X125488609Y-111521814D01*
X125488602Y-111521827D01*
X125428264Y-111667498D01*
X125428261Y-111667510D01*
X125397500Y-111822153D01*
X124522153Y-111822153D01*
X122324071Y-109624071D01*
X135374499Y-109624071D01*
X135399497Y-109749738D01*
X135399499Y-109749744D01*
X135448533Y-109868124D01*
X135448538Y-109868133D01*
X135519723Y-109974668D01*
X135519726Y-109974672D01*
X135610327Y-110065273D01*
X135610331Y-110065276D01*
X135650173Y-110091898D01*
X135694978Y-110145510D01*
X135703685Y-110214835D01*
X135673530Y-110277863D01*
X135650173Y-110298102D01*
X135610331Y-110324723D01*
X135610327Y-110324726D01*
X135519726Y-110415327D01*
X135519723Y-110415331D01*
X135448538Y-110521866D01*
X135448533Y-110521875D01*
X135399499Y-110640255D01*
X135399497Y-110640261D01*
X135374500Y-110765928D01*
X135374500Y-110765931D01*
X135374500Y-110894069D01*
X135374500Y-110894071D01*
X135374499Y-110894071D01*
X135399497Y-111019738D01*
X135399499Y-111019744D01*
X135448533Y-111138124D01*
X135448538Y-111138133D01*
X135519723Y-111244668D01*
X135519726Y-111244672D01*
X135610327Y-111335273D01*
X135610331Y-111335276D01*
X135716866Y-111406461D01*
X135716872Y-111406464D01*
X135716873Y-111406465D01*
X135835256Y-111455501D01*
X135835260Y-111455501D01*
X135835261Y-111455502D01*
X135960928Y-111480500D01*
X135960931Y-111480500D01*
X136089071Y-111480500D01*
X136173615Y-111463682D01*
X136214744Y-111455501D01*
X136333127Y-111406465D01*
X136439669Y-111335276D01*
X136530276Y-111244669D01*
X136601465Y-111138127D01*
X136650501Y-111019744D01*
X136675500Y-110894069D01*
X136675500Y-110765931D01*
X136675500Y-110765928D01*
X136650502Y-110640261D01*
X136650501Y-110640260D01*
X136650501Y-110640256D01*
X136601465Y-110521873D01*
X136601464Y-110521872D01*
X136601461Y-110521866D01*
X136530276Y-110415331D01*
X136530273Y-110415327D01*
X136439671Y-110324725D01*
X136424382Y-110314509D01*
X136399825Y-110298101D01*
X136355022Y-110244491D01*
X136346314Y-110175166D01*
X136376468Y-110112138D01*
X136399826Y-110091898D01*
X136439669Y-110065276D01*
X136530276Y-109974669D01*
X136601465Y-109868127D01*
X136650501Y-109749744D01*
X136667997Y-109661789D01*
X136675500Y-109624071D01*
X136675500Y-109495928D01*
X136650502Y-109370261D01*
X136650501Y-109370260D01*
X136650501Y-109370256D01*
X136601465Y-109251873D01*
X136601464Y-109251872D01*
X136601461Y-109251866D01*
X136530276Y-109145331D01*
X136530273Y-109145327D01*
X136439672Y-109054726D01*
X136439668Y-109054723D01*
X136399926Y-109028168D01*
X136333133Y-108983538D01*
X136333124Y-108983533D01*
X136214744Y-108934499D01*
X136214738Y-108934497D01*
X136197927Y-108931153D01*
X149839500Y-108931153D01*
X149839500Y-109088846D01*
X149870261Y-109243489D01*
X149870264Y-109243501D01*
X149930602Y-109389172D01*
X149930609Y-109389185D01*
X150018210Y-109520288D01*
X150018213Y-109520292D01*
X150129707Y-109631786D01*
X150129711Y-109631789D01*
X150260814Y-109719390D01*
X150260827Y-109719397D01*
X150405156Y-109779179D01*
X150406503Y-109779737D01*
X150557312Y-109809735D01*
X150561153Y-109810499D01*
X150561156Y-109810500D01*
X150561158Y-109810500D01*
X150718844Y-109810500D01*
X150718845Y-109810499D01*
X150873497Y-109779737D01*
X151019179Y-109719394D01*
X151150289Y-109631789D01*
X151261789Y-109520289D01*
X151349394Y-109389179D01*
X151409737Y-109243497D01*
X151440500Y-109088842D01*
X151440500Y-108961153D01*
X154399500Y-108961153D01*
X154399500Y-109118846D01*
X154430261Y-109273489D01*
X154430264Y-109273501D01*
X154490602Y-109419172D01*
X154490609Y-109419185D01*
X154578210Y-109550288D01*
X154578213Y-109550292D01*
X154689707Y-109661786D01*
X154689711Y-109661789D01*
X154820814Y-109749390D01*
X154820827Y-109749397D01*
X154894078Y-109779738D01*
X154966503Y-109809737D01*
X155121153Y-109840499D01*
X155121156Y-109840500D01*
X155121158Y-109840500D01*
X155278844Y-109840500D01*
X155278845Y-109840499D01*
X155433497Y-109809737D01*
X155579179Y-109749394D01*
X155710289Y-109661789D01*
X155821789Y-109550289D01*
X155909394Y-109419179D01*
X155969737Y-109273497D01*
X156000500Y-109118842D01*
X156000500Y-108961158D01*
X156000500Y-108961155D01*
X156000499Y-108961153D01*
X155994532Y-108931153D01*
X155969737Y-108806503D01*
X155957309Y-108776498D01*
X155909397Y-108660827D01*
X155909390Y-108660814D01*
X155821789Y-108529711D01*
X155821786Y-108529707D01*
X155710292Y-108418213D01*
X155710288Y-108418210D01*
X155579185Y-108330609D01*
X155579172Y-108330602D01*
X155433501Y-108270264D01*
X155433489Y-108270261D01*
X155278845Y-108239500D01*
X155278842Y-108239500D01*
X155121158Y-108239500D01*
X155121155Y-108239500D01*
X154966510Y-108270261D01*
X154966498Y-108270264D01*
X154820827Y-108330602D01*
X154820814Y-108330609D01*
X154689711Y-108418210D01*
X154689707Y-108418213D01*
X154578213Y-108529707D01*
X154578210Y-108529711D01*
X154490609Y-108660814D01*
X154490602Y-108660827D01*
X154430264Y-108806498D01*
X154430261Y-108806510D01*
X154399500Y-108961153D01*
X151440500Y-108961153D01*
X151440500Y-108931158D01*
X151440500Y-108931155D01*
X151440499Y-108931153D01*
X151432255Y-108889707D01*
X151409737Y-108776503D01*
X151361823Y-108660827D01*
X151349397Y-108630827D01*
X151349390Y-108630814D01*
X151261789Y-108499711D01*
X151261786Y-108499707D01*
X151150292Y-108388213D01*
X151150288Y-108388210D01*
X151019185Y-108300609D01*
X151019172Y-108300602D01*
X150873501Y-108240264D01*
X150873489Y-108240261D01*
X150718845Y-108209500D01*
X150718842Y-108209500D01*
X150561158Y-108209500D01*
X150561155Y-108209500D01*
X150406510Y-108240261D01*
X150406498Y-108240264D01*
X150260827Y-108300602D01*
X150260814Y-108300609D01*
X150129711Y-108388210D01*
X150129707Y-108388213D01*
X150018213Y-108499707D01*
X150018210Y-108499711D01*
X149930609Y-108630814D01*
X149930602Y-108630827D01*
X149870264Y-108776498D01*
X149870261Y-108776510D01*
X149839500Y-108931153D01*
X136197927Y-108931153D01*
X136089071Y-108909500D01*
X136089069Y-108909500D01*
X135960931Y-108909500D01*
X135960929Y-108909500D01*
X135835261Y-108934497D01*
X135835255Y-108934499D01*
X135716875Y-108983533D01*
X135716866Y-108983538D01*
X135610331Y-109054723D01*
X135610327Y-109054726D01*
X135519726Y-109145327D01*
X135519723Y-109145331D01*
X135448538Y-109251866D01*
X135448533Y-109251875D01*
X135399499Y-109370255D01*
X135399497Y-109370261D01*
X135374500Y-109495928D01*
X135374500Y-109495931D01*
X135374500Y-109624069D01*
X135374500Y-109624071D01*
X135374499Y-109624071D01*
X122324071Y-109624071D01*
X121920000Y-109220000D01*
X109774750Y-109220000D01*
X109707711Y-109200315D01*
X109661956Y-109147511D01*
X109660189Y-109143452D01*
X109609397Y-109020827D01*
X109609390Y-109020814D01*
X109521789Y-108889711D01*
X109521786Y-108889707D01*
X109410292Y-108778213D01*
X109410288Y-108778210D01*
X109279185Y-108690609D01*
X109279172Y-108690602D01*
X109133501Y-108630264D01*
X109133489Y-108630261D01*
X108978845Y-108599500D01*
X108978842Y-108599500D01*
X108821158Y-108599500D01*
X108821155Y-108599500D01*
X108666510Y-108630261D01*
X108666498Y-108630264D01*
X108520827Y-108690602D01*
X108520814Y-108690609D01*
X108389711Y-108778210D01*
X108389707Y-108778213D01*
X108278213Y-108889707D01*
X108278210Y-108889711D01*
X108190609Y-109020814D01*
X108190603Y-109020826D01*
X108188560Y-109025759D01*
X108144718Y-109080162D01*
X108078423Y-109102225D01*
X108010724Y-109084944D01*
X107963115Y-109033806D01*
X107950000Y-108978304D01*
X107950000Y-101724000D01*
X107969685Y-101656961D01*
X108022489Y-101611206D01*
X108074000Y-101600000D01*
X116840000Y-101600000D01*
X116840000Y-99564071D01*
X119849499Y-99564071D01*
X119874497Y-99689738D01*
X119874499Y-99689744D01*
X119923533Y-99808124D01*
X119923538Y-99808133D01*
X119994723Y-99914668D01*
X119998589Y-99919379D01*
X119996958Y-99920716D01*
X120025858Y-99973642D01*
X120020874Y-100043334D01*
X119997489Y-100079719D01*
X119998589Y-100080621D01*
X119994723Y-100085331D01*
X119923538Y-100191866D01*
X119923533Y-100191875D01*
X119874499Y-100310255D01*
X119874497Y-100310261D01*
X119849500Y-100435928D01*
X119849500Y-100435931D01*
X119849500Y-100564069D01*
X119849500Y-100564071D01*
X119849499Y-100564071D01*
X119874497Y-100689738D01*
X119874499Y-100689744D01*
X119923533Y-100808124D01*
X119923538Y-100808133D01*
X119994723Y-100914668D01*
X119994726Y-100914672D01*
X120085327Y-101005273D01*
X120085331Y-101005276D01*
X120191866Y-101076461D01*
X120191872Y-101076464D01*
X120191873Y-101076465D01*
X120310256Y-101125501D01*
X120310258Y-101125501D01*
X120310260Y-101125502D01*
X120324743Y-101128383D01*
X120386653Y-101160769D01*
X120421227Y-101221485D01*
X120417486Y-101291254D01*
X120376619Y-101347926D01*
X120324743Y-101371617D01*
X120310260Y-101374497D01*
X120310255Y-101374499D01*
X120191875Y-101423533D01*
X120191866Y-101423538D01*
X120085331Y-101494723D01*
X120085327Y-101494726D01*
X119994726Y-101585327D01*
X119994723Y-101585331D01*
X119923538Y-101691866D01*
X119923533Y-101691875D01*
X119874499Y-101810255D01*
X119874497Y-101810261D01*
X119849500Y-101935928D01*
X119849500Y-101935931D01*
X119849500Y-102064069D01*
X119849500Y-102064071D01*
X119849499Y-102064071D01*
X119874497Y-102189738D01*
X119874499Y-102189744D01*
X119923533Y-102308124D01*
X119923538Y-102308133D01*
X119994723Y-102414668D01*
X119998589Y-102419379D01*
X119996958Y-102420716D01*
X120025858Y-102473642D01*
X120020874Y-102543334D01*
X119997489Y-102579719D01*
X119998589Y-102580621D01*
X119994723Y-102585331D01*
X119923538Y-102691866D01*
X119923533Y-102691875D01*
X119874499Y-102810255D01*
X119874497Y-102810261D01*
X119849500Y-102935928D01*
X119849500Y-102935931D01*
X119849500Y-103064069D01*
X119849500Y-103064071D01*
X119849499Y-103064071D01*
X119874497Y-103189738D01*
X119874499Y-103189744D01*
X119923533Y-103308124D01*
X119923538Y-103308133D01*
X119994723Y-103414668D01*
X119994726Y-103414672D01*
X120085327Y-103505273D01*
X120085331Y-103505276D01*
X120191866Y-103576461D01*
X120191872Y-103576464D01*
X120191873Y-103576465D01*
X120310256Y-103625501D01*
X120310258Y-103625501D01*
X120310260Y-103625502D01*
X120324743Y-103628383D01*
X120386653Y-103660769D01*
X120421227Y-103721485D01*
X120417486Y-103791254D01*
X120376619Y-103847926D01*
X120324743Y-103871617D01*
X120310260Y-103874497D01*
X120310255Y-103874499D01*
X120191875Y-103923533D01*
X120191866Y-103923538D01*
X120085331Y-103994723D01*
X120085327Y-103994726D01*
X119994726Y-104085327D01*
X119994723Y-104085331D01*
X119923538Y-104191866D01*
X119923533Y-104191875D01*
X119874499Y-104310255D01*
X119874497Y-104310261D01*
X119849500Y-104435928D01*
X119849500Y-104435931D01*
X119849500Y-104564069D01*
X119849500Y-104564071D01*
X119849499Y-104564071D01*
X119874497Y-104689738D01*
X119874499Y-104689744D01*
X119923533Y-104808124D01*
X119923538Y-104808133D01*
X119994723Y-104914668D01*
X119994726Y-104914672D01*
X120085327Y-105005273D01*
X120085331Y-105005276D01*
X120191866Y-105076461D01*
X120191872Y-105076464D01*
X120191873Y-105076465D01*
X120310256Y-105125501D01*
X120310260Y-105125501D01*
X120310261Y-105125502D01*
X120435928Y-105150500D01*
X120435931Y-105150500D01*
X120564071Y-105150500D01*
X120648615Y-105133682D01*
X120689744Y-105125501D01*
X120808127Y-105076465D01*
X120914669Y-105005276D01*
X121005276Y-104914669D01*
X121076465Y-104808127D01*
X121125501Y-104689744D01*
X121150500Y-104564069D01*
X121150500Y-104435931D01*
X121150500Y-104435928D01*
X121125502Y-104310261D01*
X121125501Y-104310260D01*
X121125501Y-104310256D01*
X121076465Y-104191873D01*
X121076464Y-104191872D01*
X121076461Y-104191866D01*
X121005276Y-104085331D01*
X121005273Y-104085327D01*
X120914672Y-103994726D01*
X120914668Y-103994723D01*
X120808133Y-103923538D01*
X120808124Y-103923533D01*
X120689744Y-103874499D01*
X120689738Y-103874497D01*
X120675257Y-103871617D01*
X120613347Y-103839232D01*
X120578772Y-103778516D01*
X120582512Y-103708747D01*
X120623379Y-103652075D01*
X120675257Y-103628383D01*
X120683784Y-103626686D01*
X120689744Y-103625501D01*
X120808127Y-103576465D01*
X120914669Y-103505276D01*
X121005276Y-103414669D01*
X121076465Y-103308127D01*
X121119172Y-103205024D01*
X122640831Y-103205024D01*
X122640831Y-103362717D01*
X122671592Y-103517360D01*
X122671595Y-103517372D01*
X122731933Y-103663043D01*
X122731940Y-103663056D01*
X122819541Y-103794159D01*
X122819544Y-103794163D01*
X122931038Y-103905657D01*
X122931042Y-103905660D01*
X123062145Y-103993261D01*
X123062158Y-103993268D01*
X123207829Y-104053606D01*
X123207834Y-104053608D01*
X123362484Y-104084370D01*
X123362487Y-104084371D01*
X123362489Y-104084371D01*
X123520175Y-104084371D01*
X123520176Y-104084370D01*
X123674828Y-104053608D01*
X123820510Y-103993265D01*
X123951620Y-103905660D01*
X124063120Y-103794160D01*
X124150725Y-103663050D01*
X124211068Y-103517368D01*
X124241831Y-103362713D01*
X124241831Y-103205029D01*
X124241831Y-103205026D01*
X124241830Y-103205024D01*
X124228086Y-103135931D01*
X124211068Y-103050374D01*
X124163665Y-102935931D01*
X124150728Y-102904698D01*
X124150721Y-102904685D01*
X124063120Y-102773582D01*
X124063117Y-102773578D01*
X123951623Y-102662084D01*
X123951619Y-102662081D01*
X123820516Y-102574480D01*
X123820503Y-102574473D01*
X123674832Y-102514135D01*
X123674820Y-102514132D01*
X123520176Y-102483371D01*
X123520173Y-102483371D01*
X123362489Y-102483371D01*
X123362486Y-102483371D01*
X123207841Y-102514132D01*
X123207829Y-102514135D01*
X123062158Y-102574473D01*
X123062145Y-102574480D01*
X122931042Y-102662081D01*
X122931038Y-102662084D01*
X122819544Y-102773578D01*
X122819541Y-102773582D01*
X122731940Y-102904685D01*
X122731933Y-102904698D01*
X122671595Y-103050369D01*
X122671592Y-103050381D01*
X122640831Y-103205024D01*
X121119172Y-103205024D01*
X121125501Y-103189744D01*
X121136206Y-103135931D01*
X121150500Y-103064071D01*
X121150500Y-102935928D01*
X121125502Y-102810261D01*
X121125501Y-102810260D01*
X121125501Y-102810256D01*
X121076465Y-102691873D01*
X121076464Y-102691872D01*
X121076461Y-102691866D01*
X121005276Y-102585331D01*
X121001411Y-102580621D01*
X121003045Y-102579279D01*
X120974148Y-102526389D01*
X120979114Y-102456696D01*
X121002514Y-102420284D01*
X121001411Y-102419379D01*
X121005271Y-102414673D01*
X121005276Y-102414669D01*
X121076465Y-102308127D01*
X121125501Y-102189744D01*
X121150500Y-102064069D01*
X121150500Y-101935931D01*
X121150500Y-101935928D01*
X121125502Y-101810261D01*
X121125501Y-101810260D01*
X121125501Y-101810256D01*
X121076465Y-101691873D01*
X121076464Y-101691872D01*
X121076461Y-101691866D01*
X121005276Y-101585331D01*
X121005273Y-101585327D01*
X120914672Y-101494726D01*
X120914668Y-101494723D01*
X120808133Y-101423538D01*
X120808124Y-101423533D01*
X120689744Y-101374499D01*
X120689738Y-101374497D01*
X120675257Y-101371617D01*
X120613347Y-101339232D01*
X120578772Y-101278516D01*
X120582512Y-101208747D01*
X120623379Y-101152075D01*
X120675257Y-101128383D01*
X120683784Y-101126686D01*
X120689744Y-101125501D01*
X120808127Y-101076465D01*
X120914669Y-101005276D01*
X121005276Y-100914669D01*
X121076465Y-100808127D01*
X121125501Y-100689744D01*
X121148034Y-100576466D01*
X121150500Y-100564071D01*
X121150500Y-100435928D01*
X121125502Y-100310261D01*
X121125501Y-100310260D01*
X121125501Y-100310256D01*
X121076465Y-100191873D01*
X121076464Y-100191872D01*
X121076461Y-100191866D01*
X121005276Y-100085331D01*
X121001411Y-100080621D01*
X121003045Y-100079279D01*
X120974148Y-100026389D01*
X120979114Y-99956696D01*
X121002514Y-99920284D01*
X121001411Y-99919379D01*
X121005271Y-99914673D01*
X121005276Y-99914669D01*
X121076465Y-99808127D01*
X121125501Y-99689744D01*
X121140729Y-99613186D01*
X121173113Y-99551277D01*
X121233829Y-99516703D01*
X121303598Y-99520442D01*
X121309798Y-99522818D01*
X121326498Y-99529735D01*
X121326503Y-99529737D01*
X121481153Y-99560499D01*
X121481156Y-99560500D01*
X121481158Y-99560500D01*
X121638844Y-99560500D01*
X121638845Y-99560499D01*
X121793497Y-99529737D01*
X121939179Y-99469394D01*
X122070289Y-99381789D01*
X122181789Y-99270289D01*
X122269394Y-99139179D01*
X122329737Y-98993497D01*
X122360500Y-98838842D01*
X122360500Y-98681158D01*
X122360500Y-98681155D01*
X122360499Y-98681153D01*
X122329738Y-98526510D01*
X122329737Y-98526503D01*
X122329735Y-98526498D01*
X122269397Y-98380827D01*
X122269390Y-98380814D01*
X122181789Y-98249711D01*
X122181786Y-98249707D01*
X122070292Y-98138213D01*
X122070288Y-98138210D01*
X121939185Y-98050609D01*
X121939172Y-98050602D01*
X121793501Y-97990264D01*
X121793489Y-97990261D01*
X121638845Y-97959500D01*
X121638842Y-97959500D01*
X121481158Y-97959500D01*
X121481155Y-97959500D01*
X121326510Y-97990261D01*
X121326498Y-97990264D01*
X121180827Y-98050602D01*
X121180814Y-98050609D01*
X121049711Y-98138210D01*
X121049707Y-98138213D01*
X120938213Y-98249707D01*
X120938210Y-98249711D01*
X120850609Y-98380814D01*
X120850602Y-98380827D01*
X120790264Y-98526498D01*
X120790261Y-98526510D01*
X120759500Y-98681153D01*
X120759500Y-98737279D01*
X120739815Y-98804318D01*
X120687011Y-98850073D01*
X120617853Y-98860017D01*
X120611309Y-98858896D01*
X120564072Y-98849500D01*
X120564069Y-98849500D01*
X120435931Y-98849500D01*
X120435929Y-98849500D01*
X120310261Y-98874497D01*
X120310255Y-98874499D01*
X120191875Y-98923533D01*
X120191866Y-98923538D01*
X120085331Y-98994723D01*
X120085327Y-98994726D01*
X119994726Y-99085327D01*
X119994723Y-99085331D01*
X119923538Y-99191866D01*
X119923533Y-99191875D01*
X119874499Y-99310255D01*
X119874497Y-99310261D01*
X119849500Y-99435928D01*
X119849500Y-99435931D01*
X119849500Y-99564069D01*
X119849500Y-99564071D01*
X119849499Y-99564071D01*
X116840000Y-99564071D01*
X116840000Y-92126361D01*
X116859685Y-92059322D01*
X116876314Y-92038685D01*
X117257821Y-91657178D01*
X117319142Y-91623695D01*
X117388834Y-91628679D01*
X117444767Y-91670551D01*
X117469184Y-91736015D01*
X117469500Y-91744861D01*
X117469500Y-91864069D01*
X117469500Y-91864071D01*
X117469499Y-91864071D01*
X117494497Y-91989738D01*
X117494499Y-91989744D01*
X117543533Y-92108124D01*
X117543538Y-92108133D01*
X117614723Y-92214668D01*
X117614726Y-92214672D01*
X117705327Y-92305273D01*
X117705331Y-92305276D01*
X117811866Y-92376461D01*
X117811872Y-92376464D01*
X117811873Y-92376465D01*
X117930256Y-92425501D01*
X117930260Y-92425501D01*
X117930261Y-92425502D01*
X118055928Y-92450500D01*
X118055931Y-92450500D01*
X118184071Y-92450500D01*
X118268615Y-92433682D01*
X118309744Y-92425501D01*
X118428127Y-92376465D01*
X118534669Y-92305276D01*
X118625276Y-92214669D01*
X118696465Y-92108127D01*
X118745501Y-91989744D01*
X118770500Y-91864069D01*
X118770500Y-91735931D01*
X118770500Y-91735928D01*
X118745502Y-91610261D01*
X118745501Y-91610260D01*
X118745501Y-91610256D01*
X118696465Y-91491873D01*
X118696464Y-91491872D01*
X118696461Y-91491866D01*
X118625276Y-91385331D01*
X118625273Y-91385327D01*
X118577627Y-91337681D01*
X118544142Y-91276358D01*
X118549126Y-91206666D01*
X118577627Y-91162319D01*
X118625273Y-91114672D01*
X118625276Y-91114669D01*
X118696465Y-91008127D01*
X118745501Y-90889744D01*
X118770500Y-90764069D01*
X118770500Y-90635931D01*
X118770500Y-90635928D01*
X118745502Y-90510261D01*
X118745501Y-90510260D01*
X118745501Y-90510256D01*
X118696465Y-90391873D01*
X118683573Y-90372578D01*
X118662694Y-90305901D01*
X118681178Y-90238521D01*
X118698985Y-90216014D01*
X119978681Y-88936319D01*
X120040004Y-88902834D01*
X120066362Y-88900000D01*
X129416000Y-88900000D01*
X129483039Y-88919685D01*
G37*
%TD.AperFunction*%
%TD*%
%TA.AperFunction,Conductor*%
%TO.N,V_SYS*%
G36*
X110433039Y-76720185D02*
G01*
X110478794Y-76772989D01*
X110490000Y-76824500D01*
X110490000Y-77808763D01*
X110470315Y-77875802D01*
X110417511Y-77921557D01*
X110348353Y-77931501D01*
X110284797Y-77902476D01*
X110265682Y-77881648D01*
X110250109Y-77860214D01*
X110250105Y-77860209D01*
X110099786Y-77709890D01*
X109927820Y-77584951D01*
X109738414Y-77488444D01*
X109738413Y-77488443D01*
X109738412Y-77488443D01*
X109536243Y-77422754D01*
X109536241Y-77422753D01*
X109536240Y-77422753D01*
X109374957Y-77397208D01*
X109326287Y-77389500D01*
X109113713Y-77389500D01*
X109065042Y-77397208D01*
X108903760Y-77422753D01*
X108701585Y-77488444D01*
X108512179Y-77584951D01*
X108340213Y-77709890D01*
X108189890Y-77860213D01*
X108064951Y-78032179D01*
X107968444Y-78221585D01*
X107902753Y-78423760D01*
X107875212Y-78597648D01*
X107869500Y-78633713D01*
X107869500Y-78846287D01*
X107902754Y-79056243D01*
X107949211Y-79199223D01*
X107968444Y-79258414D01*
X108064951Y-79447820D01*
X108189890Y-79619786D01*
X108340213Y-79770109D01*
X108512179Y-79895048D01*
X108512181Y-79895049D01*
X108512184Y-79895051D01*
X108701588Y-79991557D01*
X108903757Y-80057246D01*
X109113713Y-80090500D01*
X109113714Y-80090500D01*
X109326286Y-80090500D01*
X109326287Y-80090500D01*
X109536243Y-80057246D01*
X109738412Y-79991557D01*
X109927816Y-79895051D01*
X110041736Y-79812284D01*
X110099786Y-79770109D01*
X110099788Y-79770106D01*
X110099792Y-79770104D01*
X110250104Y-79619792D01*
X110265680Y-79598352D01*
X110321009Y-79555686D01*
X110390623Y-79549705D01*
X110452418Y-79582310D01*
X110486777Y-79643148D01*
X110490000Y-79671236D01*
X110490000Y-100206000D01*
X110470315Y-100273039D01*
X110417511Y-100318794D01*
X110366000Y-100330000D01*
X106680000Y-100330000D01*
X106680000Y-110670000D01*
X107528877Y-110670000D01*
X107595916Y-110689685D01*
X107641671Y-110742489D01*
X107651615Y-110811647D01*
X107622590Y-110875203D01*
X107563812Y-110912977D01*
X107553068Y-110915617D01*
X107415672Y-110942947D01*
X107415660Y-110942950D01*
X107233592Y-111018364D01*
X107233579Y-111018371D01*
X107069718Y-111127860D01*
X107069714Y-111127863D01*
X106930363Y-111267214D01*
X106930360Y-111267218D01*
X106820871Y-111431079D01*
X106820864Y-111431092D01*
X106745450Y-111613160D01*
X106745447Y-111613170D01*
X106707000Y-111806456D01*
X106707000Y-111806459D01*
X106707000Y-112003541D01*
X106707000Y-112003543D01*
X106706999Y-112003543D01*
X106745447Y-112196829D01*
X106745450Y-112196839D01*
X106820864Y-112378907D01*
X106820871Y-112378920D01*
X106930360Y-112542781D01*
X106930363Y-112542785D01*
X107069714Y-112682136D01*
X107069718Y-112682139D01*
X107233579Y-112791628D01*
X107233592Y-112791635D01*
X107291314Y-112815544D01*
X107345718Y-112859385D01*
X107367783Y-112925679D01*
X107350504Y-112993378D01*
X107341226Y-113005341D01*
X107341941Y-113005890D01*
X107336992Y-113012338D01*
X107267813Y-113132161D01*
X107267812Y-113132164D01*
X107232000Y-113265817D01*
X107232000Y-113404182D01*
X107267812Y-113537835D01*
X107267813Y-113537838D01*
X107336992Y-113657661D01*
X107336994Y-113657664D01*
X107336995Y-113657665D01*
X107434835Y-113755505D01*
X107554664Y-113824688D01*
X107688317Y-113860500D01*
X107688319Y-113860500D01*
X107826681Y-113860500D01*
X107826683Y-113860500D01*
X107938944Y-113830420D01*
X110729500Y-113830420D01*
X110729500Y-113988113D01*
X110760261Y-114142756D01*
X110760264Y-114142768D01*
X110820602Y-114288439D01*
X110820609Y-114288452D01*
X110908210Y-114419555D01*
X110908213Y-114419559D01*
X111019707Y-114531053D01*
X111019711Y-114531056D01*
X111150814Y-114618657D01*
X111150827Y-114618664D01*
X111296498Y-114679002D01*
X111296503Y-114679004D01*
X111451153Y-114709766D01*
X111451156Y-114709767D01*
X111451158Y-114709767D01*
X111608844Y-114709767D01*
X111608845Y-114709766D01*
X111763497Y-114679004D01*
X111909179Y-114618661D01*
X111909188Y-114618654D01*
X111914553Y-114615788D01*
X111915705Y-114617943D01*
X111972131Y-114600286D01*
X111974323Y-114600267D01*
X113746445Y-114600267D01*
X113813484Y-114619952D01*
X113834126Y-114636586D01*
X114675189Y-115477649D01*
X114704577Y-115531468D01*
X114706479Y-115530892D01*
X114708247Y-115536722D01*
X114768585Y-115682393D01*
X114768592Y-115682406D01*
X114856193Y-115813509D01*
X114856196Y-115813513D01*
X114967690Y-115925007D01*
X114967694Y-115925010D01*
X115098797Y-116012611D01*
X115098810Y-116012618D01*
X115232120Y-116067836D01*
X115244486Y-116072958D01*
X115399136Y-116103720D01*
X115399139Y-116103721D01*
X115399141Y-116103721D01*
X115556827Y-116103721D01*
X115556828Y-116103720D01*
X115711480Y-116072958D01*
X115781319Y-116044029D01*
X115850788Y-116036561D01*
X115913267Y-116067836D01*
X115943332Y-116111138D01*
X115982414Y-116205492D01*
X115982419Y-116205501D01*
X116064548Y-116328415D01*
X116064551Y-116328419D01*
X116088451Y-116352319D01*
X116121936Y-116413642D01*
X116116952Y-116483334D01*
X116088451Y-116527681D01*
X116064551Y-116551580D01*
X116064548Y-116551584D01*
X115982419Y-116674498D01*
X115982412Y-116674511D01*
X115925843Y-116811082D01*
X115925840Y-116811092D01*
X115897000Y-116956079D01*
X115897000Y-116956082D01*
X115897000Y-117103918D01*
X115897000Y-117103920D01*
X115896999Y-117103920D01*
X115925840Y-117248907D01*
X115925843Y-117248917D01*
X115982412Y-117385488D01*
X115982419Y-117385501D01*
X116064548Y-117508415D01*
X116064551Y-117508419D01*
X116169080Y-117612948D01*
X116169084Y-117612951D01*
X116291998Y-117695080D01*
X116292011Y-117695087D01*
X116428582Y-117751656D01*
X116428587Y-117751658D01*
X116428591Y-117751658D01*
X116428592Y-117751659D01*
X116573579Y-117780500D01*
X116573582Y-117780500D01*
X116721420Y-117780500D01*
X116818962Y-117761096D01*
X116866413Y-117751658D01*
X117002995Y-117695084D01*
X117125916Y-117612951D01*
X117149819Y-117589047D01*
X117211140Y-117555563D01*
X117280831Y-117560546D01*
X117325180Y-117589047D01*
X117349081Y-117612948D01*
X117349085Y-117612952D01*
X117471998Y-117695080D01*
X117472011Y-117695087D01*
X117608582Y-117751656D01*
X117608587Y-117751658D01*
X117608591Y-117751658D01*
X117608592Y-117751659D01*
X117753579Y-117780500D01*
X117753582Y-117780500D01*
X117901420Y-117780500D01*
X117998962Y-117761096D01*
X118046413Y-117751658D01*
X118182995Y-117695084D01*
X118305916Y-117612951D01*
X118410451Y-117508416D01*
X118492584Y-117385495D01*
X118549158Y-117248913D01*
X118578000Y-117103918D01*
X118578000Y-116956082D01*
X118578000Y-116956079D01*
X118549159Y-116811092D01*
X118549158Y-116811091D01*
X118549158Y-116811087D01*
X118549156Y-116811082D01*
X118492587Y-116674511D01*
X118492580Y-116674498D01*
X118410452Y-116551585D01*
X118410447Y-116551580D01*
X118386547Y-116527680D01*
X118353063Y-116466360D01*
X118358046Y-116396669D01*
X118386547Y-116352319D01*
X118410451Y-116328416D01*
X118492584Y-116205495D01*
X118549158Y-116068913D01*
X118560357Y-116012611D01*
X118578000Y-115923920D01*
X118578000Y-115776079D01*
X118549159Y-115631092D01*
X118549158Y-115631091D01*
X118549158Y-115631087D01*
X118510071Y-115536722D01*
X118492587Y-115494511D01*
X118492580Y-115494498D01*
X118410451Y-115371584D01*
X118410448Y-115371580D01*
X118305919Y-115267051D01*
X118305915Y-115267048D01*
X118183001Y-115184919D01*
X118182988Y-115184912D01*
X118046417Y-115128343D01*
X118046407Y-115128340D01*
X117901420Y-115099500D01*
X117901418Y-115099500D01*
X117753582Y-115099500D01*
X117753580Y-115099500D01*
X117608592Y-115128340D01*
X117608582Y-115128343D01*
X117472011Y-115184912D01*
X117471998Y-115184919D01*
X117349084Y-115267048D01*
X117349080Y-115267051D01*
X117325181Y-115290951D01*
X117263858Y-115324436D01*
X117194166Y-115319452D01*
X117149819Y-115290951D01*
X117125919Y-115267051D01*
X117125915Y-115267048D01*
X117003001Y-115184919D01*
X117002988Y-115184912D01*
X116866417Y-115128343D01*
X116866407Y-115128340D01*
X116721420Y-115099500D01*
X116721418Y-115099500D01*
X116573582Y-115099500D01*
X116573580Y-115099500D01*
X116428592Y-115128340D01*
X116428582Y-115128343D01*
X116409489Y-115136252D01*
X116340020Y-115143719D01*
X116277541Y-115112443D01*
X116247480Y-115069146D01*
X116187377Y-114924042D01*
X116187373Y-114924035D01*
X116099772Y-114792932D01*
X116099769Y-114792928D01*
X115988275Y-114681434D01*
X115988271Y-114681431D01*
X115857168Y-114593830D01*
X115857155Y-114593823D01*
X115711484Y-114533485D01*
X115705654Y-114531717D01*
X115706362Y-114529382D01*
X115653963Y-114501952D01*
X115652411Y-114500427D01*
X114524521Y-113372536D01*
X114524514Y-113372530D01*
X114411341Y-113296911D01*
X114411338Y-113296909D01*
X114285590Y-113244823D01*
X114285580Y-113244820D01*
X114152089Y-113218267D01*
X114152087Y-113218267D01*
X111974323Y-113218267D01*
X111915490Y-113200991D01*
X111914553Y-113202746D01*
X111909181Y-113199874D01*
X111909179Y-113199873D01*
X111909176Y-113199872D01*
X111909171Y-113199869D01*
X111763501Y-113139531D01*
X111763489Y-113139528D01*
X111608845Y-113108767D01*
X111608842Y-113108767D01*
X111451158Y-113108767D01*
X111451155Y-113108767D01*
X111296510Y-113139528D01*
X111296498Y-113139531D01*
X111150827Y-113199869D01*
X111150814Y-113199876D01*
X111019711Y-113287477D01*
X111019707Y-113287480D01*
X110908213Y-113398974D01*
X110908210Y-113398978D01*
X110820609Y-113530081D01*
X110820602Y-113530094D01*
X110760264Y-113675765D01*
X110760261Y-113675777D01*
X110729500Y-113830420D01*
X107938944Y-113830420D01*
X107960336Y-113824688D01*
X108080165Y-113755505D01*
X108178005Y-113657665D01*
X108247188Y-113537836D01*
X108283000Y-113404183D01*
X108283000Y-113265817D01*
X108247188Y-113132164D01*
X108233680Y-113108767D01*
X108223711Y-113091499D01*
X108207238Y-113023599D01*
X108230091Y-112957572D01*
X108285012Y-112914382D01*
X108331098Y-112905500D01*
X108906043Y-112905500D01*
X109036082Y-112879632D01*
X109099335Y-112867051D01*
X109281414Y-112791632D01*
X109445282Y-112682139D01*
X109584639Y-112542782D01*
X109694132Y-112378914D01*
X109769551Y-112196835D01*
X109808000Y-112003541D01*
X109808000Y-111806459D01*
X109808000Y-111806456D01*
X109769552Y-111613170D01*
X109769551Y-111613169D01*
X109769551Y-111613165D01*
X109769549Y-111613160D01*
X109694135Y-111431092D01*
X109694128Y-111431079D01*
X109584639Y-111267218D01*
X109584636Y-111267214D01*
X109445285Y-111127863D01*
X109445281Y-111127860D01*
X109281420Y-111018371D01*
X109281407Y-111018364D01*
X109099339Y-110942950D01*
X109099327Y-110942947D01*
X108961932Y-110915617D01*
X108900021Y-110883232D01*
X108865446Y-110822516D01*
X108869186Y-110752747D01*
X108910053Y-110696075D01*
X108975071Y-110670494D01*
X108986123Y-110670000D01*
X120778638Y-110670000D01*
X120845677Y-110689685D01*
X120866319Y-110706319D01*
X124423681Y-114263681D01*
X124457166Y-114325004D01*
X124460000Y-114351362D01*
X124460000Y-122986760D01*
X124440315Y-123053799D01*
X124387511Y-123099554D01*
X124355398Y-123109233D01*
X124143760Y-123142753D01*
X123941585Y-123208444D01*
X123752179Y-123304951D01*
X123580213Y-123429890D01*
X123429890Y-123580213D01*
X123304949Y-123752182D01*
X123300484Y-123760946D01*
X123252509Y-123811742D01*
X123184688Y-123828536D01*
X123118553Y-123805998D01*
X123079516Y-123760946D01*
X123075050Y-123752182D01*
X122950109Y-123580213D01*
X122799786Y-123429890D01*
X122627820Y-123304951D01*
X122438414Y-123208444D01*
X122438413Y-123208443D01*
X122438412Y-123208443D01*
X122236243Y-123142754D01*
X122236241Y-123142753D01*
X122236240Y-123142753D01*
X122074957Y-123117208D01*
X122026287Y-123109500D01*
X121813713Y-123109500D01*
X121765042Y-123117208D01*
X121603760Y-123142753D01*
X121401585Y-123208444D01*
X121212179Y-123304951D01*
X121040215Y-123429889D01*
X120926673Y-123543431D01*
X120865350Y-123576915D01*
X120795658Y-123571931D01*
X120739725Y-123530059D01*
X120722810Y-123499082D01*
X120673797Y-123367671D01*
X120673793Y-123367664D01*
X120587547Y-123252455D01*
X120587544Y-123252452D01*
X120472335Y-123166206D01*
X120472328Y-123166202D01*
X120337482Y-123115908D01*
X120337483Y-123115908D01*
X120277883Y-123109501D01*
X120277881Y-123109500D01*
X120277873Y-123109500D01*
X120277864Y-123109500D01*
X118482129Y-123109500D01*
X118482123Y-123109501D01*
X118422516Y-123115908D01*
X118287671Y-123166202D01*
X118287664Y-123166206D01*
X118172455Y-123252452D01*
X118172452Y-123252455D01*
X118086206Y-123367664D01*
X118086202Y-123367671D01*
X118035908Y-123502517D01*
X118029501Y-123562116D01*
X118029500Y-123562135D01*
X118029500Y-125357870D01*
X118029501Y-125357876D01*
X118035908Y-125417483D01*
X118086202Y-125552328D01*
X118086206Y-125552335D01*
X118172452Y-125667544D01*
X118172455Y-125667547D01*
X118287664Y-125753793D01*
X118287671Y-125753797D01*
X118422517Y-125804091D01*
X118422516Y-125804091D01*
X118429444Y-125804835D01*
X118482127Y-125810500D01*
X120277872Y-125810499D01*
X120337483Y-125804091D01*
X120472331Y-125753796D01*
X120587546Y-125667546D01*
X120673796Y-125552331D01*
X120722810Y-125420916D01*
X120764681Y-125364984D01*
X120830145Y-125340566D01*
X120898418Y-125355417D01*
X120926673Y-125376569D01*
X121040213Y-125490109D01*
X121212179Y-125615048D01*
X121212181Y-125615049D01*
X121212184Y-125615051D01*
X121401588Y-125711557D01*
X121603757Y-125777246D01*
X121813713Y-125810500D01*
X121813714Y-125810500D01*
X122026286Y-125810500D01*
X122026287Y-125810500D01*
X122236243Y-125777246D01*
X122438412Y-125711557D01*
X122627816Y-125615051D01*
X122714138Y-125552335D01*
X122799786Y-125490109D01*
X122799788Y-125490106D01*
X122799792Y-125490104D01*
X122950104Y-125339792D01*
X122950106Y-125339788D01*
X122950109Y-125339786D01*
X123075048Y-125167820D01*
X123075047Y-125167820D01*
X123075051Y-125167816D01*
X123079514Y-125159054D01*
X123127488Y-125108259D01*
X123195308Y-125091463D01*
X123261444Y-125113999D01*
X123300486Y-125159056D01*
X123304951Y-125167820D01*
X123429890Y-125339786D01*
X123580213Y-125490109D01*
X123752179Y-125615048D01*
X123752181Y-125615049D01*
X123752184Y-125615051D01*
X123941588Y-125711557D01*
X124143757Y-125777246D01*
X124143760Y-125777246D01*
X124143761Y-125777247D01*
X124215060Y-125788539D01*
X124353713Y-125810500D01*
X124353717Y-125810500D01*
X124355397Y-125810766D01*
X124418532Y-125840695D01*
X124455464Y-125900006D01*
X124460000Y-125933239D01*
X124460000Y-126375500D01*
X124440315Y-126442539D01*
X124387511Y-126488294D01*
X124336000Y-126499500D01*
X102224500Y-126499500D01*
X102157461Y-126479815D01*
X102111706Y-126427011D01*
X102100500Y-126375500D01*
X102100500Y-124397648D01*
X102799500Y-124397648D01*
X102799500Y-124602351D01*
X102831522Y-124804534D01*
X102894781Y-124999223D01*
X102987715Y-125181613D01*
X103108028Y-125347213D01*
X103252786Y-125491971D01*
X103335872Y-125552335D01*
X103418390Y-125612287D01*
X103526838Y-125667544D01*
X103600776Y-125705218D01*
X103600778Y-125705218D01*
X103600781Y-125705220D01*
X103705137Y-125739127D01*
X103795465Y-125768477D01*
X103896557Y-125784488D01*
X103997648Y-125800500D01*
X103997649Y-125800500D01*
X104202351Y-125800500D01*
X104202352Y-125800500D01*
X104404534Y-125768477D01*
X104599219Y-125705220D01*
X104781610Y-125612287D01*
X104874590Y-125544732D01*
X104947213Y-125491971D01*
X104947215Y-125491968D01*
X104947219Y-125491966D01*
X105091966Y-125347219D01*
X105091968Y-125347215D01*
X105091971Y-125347213D01*
X105144732Y-125274590D01*
X105212287Y-125181610D01*
X105305220Y-124999219D01*
X105368477Y-124804534D01*
X105400500Y-124602352D01*
X105400500Y-124397648D01*
X105368477Y-124195466D01*
X105305220Y-124000781D01*
X105305218Y-124000778D01*
X105305218Y-124000776D01*
X105271503Y-123934607D01*
X105212287Y-123818390D01*
X105164186Y-123752184D01*
X105091971Y-123652786D01*
X104947213Y-123508028D01*
X104781613Y-123387715D01*
X104781612Y-123387714D01*
X104781610Y-123387713D01*
X104724653Y-123358691D01*
X104599223Y-123294781D01*
X104404534Y-123231522D01*
X104229995Y-123203878D01*
X104202352Y-123199500D01*
X103997648Y-123199500D01*
X103973329Y-123203351D01*
X103795465Y-123231522D01*
X103600776Y-123294781D01*
X103418386Y-123387715D01*
X103252786Y-123508028D01*
X103108028Y-123652786D01*
X102987715Y-123818386D01*
X102894781Y-124000776D01*
X102831522Y-124195465D01*
X102799500Y-124397648D01*
X102100500Y-124397648D01*
X102100500Y-122962416D01*
X108027591Y-122962416D01*
X108027591Y-123120109D01*
X108058352Y-123274752D01*
X108058355Y-123274764D01*
X108118693Y-123420435D01*
X108118700Y-123420448D01*
X108206301Y-123551551D01*
X108206304Y-123551555D01*
X108317798Y-123663049D01*
X108317802Y-123663052D01*
X108448905Y-123750653D01*
X108448918Y-123750660D01*
X108582518Y-123805998D01*
X108594594Y-123811000D01*
X108749244Y-123841762D01*
X108749247Y-123841763D01*
X108749249Y-123841763D01*
X108906935Y-123841763D01*
X108906936Y-123841762D01*
X109061588Y-123811000D01*
X109182430Y-123760946D01*
X109207263Y-123750660D01*
X109207263Y-123750659D01*
X109207270Y-123750657D01*
X109338380Y-123663052D01*
X109449880Y-123551552D01*
X109537485Y-123420442D01*
X109597828Y-123274760D01*
X109628591Y-123120105D01*
X109628591Y-123064983D01*
X110859500Y-123064983D01*
X110859500Y-124415001D01*
X110859501Y-124415018D01*
X110870000Y-124517796D01*
X110870001Y-124517799D01*
X110925185Y-124684331D01*
X110925187Y-124684336D01*
X110948870Y-124722732D01*
X111017288Y-124833656D01*
X111141344Y-124957712D01*
X111290666Y-125049814D01*
X111457203Y-125104999D01*
X111559991Y-125115500D01*
X112360008Y-125115499D01*
X112360016Y-125115498D01*
X112360019Y-125115498D01*
X112430883Y-125108259D01*
X112462797Y-125104999D01*
X112629334Y-125049814D01*
X112778656Y-124957712D01*
X112902712Y-124833656D01*
X112942310Y-124769456D01*
X112994258Y-124722732D01*
X113063220Y-124711509D01*
X113127303Y-124739352D01*
X113135530Y-124746872D01*
X113243072Y-124854414D01*
X113383212Y-124956232D01*
X113537555Y-125034873D01*
X113702299Y-125088402D01*
X113873389Y-125115500D01*
X113873390Y-125115500D01*
X114046610Y-125115500D01*
X114046611Y-125115500D01*
X114217701Y-125088402D01*
X114382445Y-125034873D01*
X114536788Y-124956232D01*
X114676928Y-124854414D01*
X114799414Y-124731928D01*
X114901232Y-124591788D01*
X114979873Y-124437445D01*
X115033402Y-124272701D01*
X115060500Y-124101611D01*
X115060500Y-123378389D01*
X115033402Y-123207299D01*
X114979873Y-123042555D01*
X114901232Y-122888212D01*
X114799414Y-122748072D01*
X114676928Y-122625586D01*
X114536788Y-122523768D01*
X114382445Y-122445127D01*
X114217701Y-122391598D01*
X114217699Y-122391597D01*
X114217698Y-122391597D01*
X114086271Y-122370781D01*
X114046611Y-122364500D01*
X113873389Y-122364500D01*
X113833728Y-122370781D01*
X113702302Y-122391597D01*
X113537552Y-122445128D01*
X113383211Y-122523768D01*
X113243073Y-122625585D01*
X113135530Y-122733128D01*
X113074207Y-122766612D01*
X113004515Y-122761628D01*
X112948582Y-122719756D01*
X112942310Y-122710543D01*
X112912416Y-122662077D01*
X112902712Y-122646344D01*
X112778656Y-122522288D01*
X112653559Y-122445128D01*
X112629336Y-122430187D01*
X112629331Y-122430185D01*
X112597004Y-122419473D01*
X112462797Y-122375001D01*
X112462795Y-122375000D01*
X112360010Y-122364500D01*
X111559998Y-122364500D01*
X111559980Y-122364501D01*
X111457203Y-122375000D01*
X111457200Y-122375001D01*
X111290668Y-122430185D01*
X111290663Y-122430187D01*
X111141342Y-122522289D01*
X111017289Y-122646342D01*
X110925187Y-122795663D01*
X110925186Y-122795666D01*
X110870001Y-122962203D01*
X110870001Y-122962204D01*
X110870000Y-122962204D01*
X110859500Y-123064983D01*
X109628591Y-123064983D01*
X109628591Y-122962421D01*
X109628591Y-122962418D01*
X109628590Y-122962416D01*
X109613830Y-122888212D01*
X109597828Y-122807766D01*
X109573102Y-122748072D01*
X109537488Y-122662090D01*
X109537481Y-122662077D01*
X109449880Y-122530974D01*
X109449877Y-122530970D01*
X109338383Y-122419476D01*
X109338379Y-122419473D01*
X109207276Y-122331872D01*
X109207263Y-122331865D01*
X109061592Y-122271527D01*
X109061580Y-122271524D01*
X108906936Y-122240763D01*
X108906933Y-122240763D01*
X108749249Y-122240763D01*
X108749246Y-122240763D01*
X108594601Y-122271524D01*
X108594589Y-122271527D01*
X108448918Y-122331865D01*
X108448905Y-122331872D01*
X108317802Y-122419473D01*
X108317798Y-122419476D01*
X108206304Y-122530970D01*
X108206301Y-122530974D01*
X108118700Y-122662077D01*
X108118693Y-122662090D01*
X108058355Y-122807761D01*
X108058352Y-122807773D01*
X108027591Y-122962416D01*
X102100500Y-122962416D01*
X102100500Y-120643543D01*
X102676999Y-120643543D01*
X102715447Y-120836829D01*
X102715450Y-120836839D01*
X102790864Y-121018907D01*
X102790871Y-121018920D01*
X102900360Y-121182781D01*
X102900363Y-121182785D01*
X103039714Y-121322136D01*
X103039718Y-121322139D01*
X103203579Y-121431628D01*
X103203592Y-121431635D01*
X103385660Y-121507049D01*
X103385665Y-121507051D01*
X103385669Y-121507051D01*
X103385670Y-121507052D01*
X103578956Y-121545500D01*
X103578959Y-121545500D01*
X104576043Y-121545500D01*
X104706082Y-121519632D01*
X104769335Y-121507051D01*
X104951414Y-121431632D01*
X105115282Y-121322139D01*
X105254639Y-121182782D01*
X105364132Y-121018914D01*
X105439551Y-120836835D01*
X105478000Y-120643543D01*
X106706999Y-120643543D01*
X106745447Y-120836829D01*
X106745450Y-120836839D01*
X106820864Y-121018907D01*
X106820871Y-121018920D01*
X106930360Y-121182781D01*
X106930363Y-121182785D01*
X107069714Y-121322136D01*
X107069718Y-121322139D01*
X107233579Y-121431628D01*
X107233592Y-121431635D01*
X107415660Y-121507049D01*
X107415665Y-121507051D01*
X107415669Y-121507051D01*
X107415670Y-121507052D01*
X107608956Y-121545500D01*
X107608959Y-121545500D01*
X108906043Y-121545500D01*
X109036082Y-121519632D01*
X109099335Y-121507051D01*
X109281414Y-121431632D01*
X109445282Y-121322139D01*
X109584639Y-121182782D01*
X109694132Y-121018914D01*
X109769551Y-120836835D01*
X109808000Y-120643541D01*
X109808000Y-120446459D01*
X109808000Y-120446456D01*
X109769552Y-120253170D01*
X109769551Y-120253169D01*
X109769551Y-120253165D01*
X109769549Y-120253160D01*
X109694135Y-120071092D01*
X109694128Y-120071079D01*
X109584639Y-119907218D01*
X109584636Y-119907214D01*
X109445285Y-119767863D01*
X109445281Y-119767860D01*
X109281420Y-119658371D01*
X109281407Y-119658364D01*
X109099339Y-119582950D01*
X109099329Y-119582947D01*
X108906043Y-119544500D01*
X108906041Y-119544500D01*
X108331098Y-119544500D01*
X108264059Y-119524815D01*
X108218304Y-119472011D01*
X108208360Y-119402853D01*
X108223711Y-119358501D01*
X108238074Y-119333620D01*
X108247188Y-119317836D01*
X108283000Y-119184183D01*
X108283000Y-119045817D01*
X108247188Y-118912164D01*
X108178005Y-118792335D01*
X108080165Y-118694495D01*
X108080164Y-118694494D01*
X108080161Y-118694492D01*
X107960338Y-118625313D01*
X107960337Y-118625312D01*
X107960336Y-118625312D01*
X107826683Y-118589500D01*
X107688317Y-118589500D01*
X107554664Y-118625312D01*
X107554661Y-118625313D01*
X107434838Y-118694492D01*
X107434833Y-118694496D01*
X107336996Y-118792333D01*
X107336992Y-118792338D01*
X107267813Y-118912161D01*
X107267812Y-118912164D01*
X107232000Y-119045817D01*
X107232000Y-119184182D01*
X107267812Y-119317835D01*
X107267813Y-119317838D01*
X107336992Y-119437661D01*
X107341941Y-119444110D01*
X107339191Y-119446219D01*
X107365028Y-119493536D01*
X107360044Y-119563228D01*
X107318172Y-119619161D01*
X107291316Y-119634455D01*
X107233586Y-119658368D01*
X107233579Y-119658371D01*
X107069718Y-119767860D01*
X107069714Y-119767863D01*
X106930363Y-119907214D01*
X106930360Y-119907218D01*
X106820871Y-120071079D01*
X106820864Y-120071092D01*
X106745450Y-120253160D01*
X106745447Y-120253170D01*
X106707000Y-120446456D01*
X106707000Y-120446459D01*
X106707000Y-120643541D01*
X106707000Y-120643543D01*
X106706999Y-120643543D01*
X105478000Y-120643543D01*
X105478000Y-120643541D01*
X105478000Y-120446459D01*
X105478000Y-120446456D01*
X105439552Y-120253170D01*
X105439551Y-120253169D01*
X105439551Y-120253165D01*
X105439549Y-120253160D01*
X105364135Y-120071092D01*
X105364128Y-120071079D01*
X105254639Y-119907218D01*
X105254636Y-119907214D01*
X105115285Y-119767863D01*
X105115281Y-119767860D01*
X104951420Y-119658371D01*
X104951407Y-119658364D01*
X104769339Y-119582950D01*
X104769329Y-119582947D01*
X104576043Y-119544500D01*
X104576041Y-119544500D01*
X103578959Y-119544500D01*
X103578957Y-119544500D01*
X103385670Y-119582947D01*
X103385660Y-119582950D01*
X103203592Y-119658364D01*
X103203579Y-119658371D01*
X103039718Y-119767860D01*
X103039714Y-119767863D01*
X102900363Y-119907214D01*
X102900360Y-119907218D01*
X102790871Y-120071079D01*
X102790864Y-120071092D01*
X102715450Y-120253160D01*
X102715447Y-120253170D01*
X102677000Y-120446456D01*
X102677000Y-120446459D01*
X102677000Y-120643541D01*
X102677000Y-120643543D01*
X102676999Y-120643543D01*
X102100500Y-120643543D01*
X102100500Y-112003543D01*
X102676999Y-112003543D01*
X102715447Y-112196829D01*
X102715450Y-112196839D01*
X102790864Y-112378907D01*
X102790871Y-112378920D01*
X102900360Y-112542781D01*
X102900363Y-112542785D01*
X103039714Y-112682136D01*
X103039718Y-112682139D01*
X103203579Y-112791628D01*
X103203592Y-112791635D01*
X103367157Y-112859385D01*
X103385665Y-112867051D01*
X103385669Y-112867051D01*
X103385670Y-112867052D01*
X103578956Y-112905500D01*
X103578959Y-112905500D01*
X104576043Y-112905500D01*
X104706082Y-112879632D01*
X104769335Y-112867051D01*
X104951414Y-112791632D01*
X105115282Y-112682139D01*
X105254639Y-112542782D01*
X105364132Y-112378914D01*
X105439551Y-112196835D01*
X105478000Y-112003541D01*
X105478000Y-111806459D01*
X105478000Y-111806456D01*
X105439552Y-111613170D01*
X105439551Y-111613169D01*
X105439551Y-111613165D01*
X105439549Y-111613160D01*
X105364135Y-111431092D01*
X105364128Y-111431079D01*
X105254639Y-111267218D01*
X105254636Y-111267214D01*
X105115285Y-111127863D01*
X105115281Y-111127860D01*
X104951420Y-111018371D01*
X104951407Y-111018364D01*
X104769339Y-110942950D01*
X104769329Y-110942947D01*
X104576043Y-110904500D01*
X104576041Y-110904500D01*
X103578959Y-110904500D01*
X103578957Y-110904500D01*
X103385670Y-110942947D01*
X103385660Y-110942950D01*
X103203592Y-111018364D01*
X103203579Y-111018371D01*
X103039718Y-111127860D01*
X103039714Y-111127863D01*
X102900363Y-111267214D01*
X102900360Y-111267218D01*
X102790871Y-111431079D01*
X102790864Y-111431092D01*
X102715450Y-111613160D01*
X102715447Y-111613170D01*
X102677000Y-111806456D01*
X102677000Y-111806459D01*
X102677000Y-112003541D01*
X102677000Y-112003543D01*
X102676999Y-112003543D01*
X102100500Y-112003543D01*
X102100500Y-78597648D01*
X102799500Y-78597648D01*
X102799500Y-78802351D01*
X102831522Y-79004534D01*
X102894781Y-79199223D01*
X102987715Y-79381613D01*
X103108028Y-79547213D01*
X103252786Y-79691971D01*
X103360336Y-79770109D01*
X103418390Y-79812287D01*
X103534607Y-79871503D01*
X103600776Y-79905218D01*
X103600778Y-79905218D01*
X103600781Y-79905220D01*
X103705137Y-79939127D01*
X103795465Y-79968477D01*
X103896557Y-79984488D01*
X103997648Y-80000500D01*
X103997649Y-80000500D01*
X104202351Y-80000500D01*
X104202352Y-80000500D01*
X104404534Y-79968477D01*
X104599219Y-79905220D01*
X104781610Y-79812287D01*
X104874590Y-79744732D01*
X104947213Y-79691971D01*
X104947215Y-79691968D01*
X104947219Y-79691966D01*
X105091966Y-79547219D01*
X105091968Y-79547215D01*
X105091971Y-79547213D01*
X105164186Y-79447816D01*
X105212287Y-79381610D01*
X105305220Y-79199219D01*
X105368477Y-79004534D01*
X105400500Y-78802352D01*
X105400500Y-78597648D01*
X105368477Y-78395465D01*
X105330423Y-78278349D01*
X105305220Y-78200781D01*
X105305218Y-78200778D01*
X105305218Y-78200776D01*
X105219315Y-78032184D01*
X105212287Y-78018390D01*
X105204556Y-78007749D01*
X105091971Y-77852786D01*
X104947213Y-77708028D01*
X104781613Y-77587715D01*
X104781612Y-77587714D01*
X104781610Y-77587713D01*
X104724653Y-77558691D01*
X104599223Y-77494781D01*
X104404534Y-77431522D01*
X104229995Y-77403878D01*
X104202352Y-77399500D01*
X103997648Y-77399500D01*
X103973329Y-77403351D01*
X103795465Y-77431522D01*
X103600776Y-77494781D01*
X103418386Y-77587715D01*
X103252786Y-77708028D01*
X103108028Y-77852786D01*
X102987715Y-78018386D01*
X102894781Y-78200776D01*
X102831522Y-78395465D01*
X102799500Y-78597648D01*
X102100500Y-78597648D01*
X102100500Y-76824500D01*
X102120185Y-76757461D01*
X102172989Y-76711706D01*
X102224500Y-76700500D01*
X110366000Y-76700500D01*
X110433039Y-76720185D01*
G37*
%TD.AperFunction*%
%TD*%
%TA.AperFunction,Conductor*%
%TO.N,P3V3*%
G36*
X140403427Y-95253427D02*
G01*
X141096573Y-95946573D01*
X141100000Y-95954846D01*
X141100000Y-99694278D01*
X141096573Y-99702551D01*
X141095483Y-99703513D01*
X140203169Y-100397535D01*
X140195986Y-100400000D01*
X139204014Y-100400000D01*
X139196831Y-100397535D01*
X138304517Y-99703513D01*
X138300090Y-99695729D01*
X138300000Y-99694278D01*
X138300000Y-96520000D01*
X138300000Y-95250000D01*
X140395154Y-95250000D01*
X140403427Y-95253427D01*
G37*
%TD.AperFunction*%
%TD*%
M02*
