M48
; DRILL file {KiCad 9.0.3} date 2025-10-26T12:54:47-0400
; FORMAT={-:-/ absolute / metric / decimal}
; #@! TF.CreationDate,2025-10-26T12:54:47-04:00
; #@! TF.GenerationSoftware,Kicad,Pcbnew,9.0.3
; #@! TF.FileFunction,Plated,1,2,Blind
FMAT,2
METRIC
; #@! TA.AperFunction,Plated,Buried,ViaDrill
T1C0.150
; #@! TA.AperFunction,Plated,Buried,ViaDrill
T2C0.300
%
G90
G05
T1
X127.674Y-96.619
X129.4Y-98.5
X129.9Y-104.5
X138.9Y-100.8
X138.9Y-101.6
X138.9Y-102.4
X138.9Y-103.2
X139.7Y-100.8
X139.7Y-101.6
X139.7Y-102.4
X140.5Y-100.8
X140.5Y-101.6
X140.5Y-102.4
T2
X104.06Y-106.89
X104.693Y-98.41
X106.68Y-99.47
X107.726Y-91.508
X109.21Y-108.56
X109.528Y-88.202
X110.64Y-112.35
X110.783Y-93.46
X110.876Y-97.044
X111.28Y-119.6
X112.35Y-106.9
X112.96Y-116.6
X113.226Y-93.874
X114.679Y-93.868
X114.74Y-98.851
X114.81Y-111.32
X115.342Y-89.36
X117.469Y-96.08
X118.6Y-120.766
X118.6Y-119.3
X118.943Y-96.08
X122.2Y-107.55
X122.235Y-94.909
X123.4Y-90.4
X123.992Y-112.033
X124.95Y-101.75
X126.882Y-120.55
X127.712Y-107.55
X129.268Y-109.698
X129.946Y-94.14
X133.95Y-108.88
X135.064Y-113.38
X139.62Y-115.801
X147.79Y-84.12
X152.41Y-87.34
X154.2Y-84.12
X162.61Y-84.12
X167.18Y-87.36
X169.02Y-84.11
X172.154Y-96.427
X173.45Y-117.08
X174.314Y-107.592
X175.08Y-106.742
X175.09Y-96.427
X175.32Y-117.08
M30
