%TF.GenerationSoftware,KiCad,Pcbnew,9.0.3*%
%TF.CreationDate,2025-10-26T12:54:33-04:00*%
%TF.ProjectId,SeedSBC_rev1_1,53656564-5342-4435-9f72-6576315f312e,rev?*%
%TF.SameCoordinates,Original*%
%TF.FileFunction,Legend,Bot*%
%TF.FilePolarity,Positive*%
%FSLAX46Y46*%
G04 Gerber Fmt 4.6, Leading zero omitted, Abs format (unit mm)*
G04 Created by KiCad (PCBNEW 9.0.3) date 2025-10-26 12:54:33*
%MOMM*%
%LPD*%
G01*
G04 APERTURE LIST*
%ADD10C,0.150000*%
%ADD11C,0.125000*%
%ADD12C,0.120000*%
G04 APERTURE END LIST*
D10*
X121689580Y-95397142D02*
X121737200Y-95349523D01*
X121737200Y-95349523D02*
X121784819Y-95206666D01*
X121784819Y-95206666D02*
X121784819Y-95111428D01*
X121784819Y-95111428D02*
X121737200Y-94968571D01*
X121737200Y-94968571D02*
X121641961Y-94873333D01*
X121641961Y-94873333D02*
X121546723Y-94825714D01*
X121546723Y-94825714D02*
X121356247Y-94778095D01*
X121356247Y-94778095D02*
X121213390Y-94778095D01*
X121213390Y-94778095D02*
X121022914Y-94825714D01*
X121022914Y-94825714D02*
X120927676Y-94873333D01*
X120927676Y-94873333D02*
X120832438Y-94968571D01*
X120832438Y-94968571D02*
X120784819Y-95111428D01*
X120784819Y-95111428D02*
X120784819Y-95206666D01*
X120784819Y-95206666D02*
X120832438Y-95349523D01*
X120832438Y-95349523D02*
X120880057Y-95397142D01*
X120784819Y-96301904D02*
X120784819Y-95825714D01*
X120784819Y-95825714D02*
X121261009Y-95778095D01*
X121261009Y-95778095D02*
X121213390Y-95825714D01*
X121213390Y-95825714D02*
X121165771Y-95920952D01*
X121165771Y-95920952D02*
X121165771Y-96159047D01*
X121165771Y-96159047D02*
X121213390Y-96254285D01*
X121213390Y-96254285D02*
X121261009Y-96301904D01*
X121261009Y-96301904D02*
X121356247Y-96349523D01*
X121356247Y-96349523D02*
X121594342Y-96349523D01*
X121594342Y-96349523D02*
X121689580Y-96301904D01*
X121689580Y-96301904D02*
X121737200Y-96254285D01*
X121737200Y-96254285D02*
X121784819Y-96159047D01*
X121784819Y-96159047D02*
X121784819Y-95920952D01*
X121784819Y-95920952D02*
X121737200Y-95825714D01*
X121737200Y-95825714D02*
X121689580Y-95778095D01*
X120784819Y-96682857D02*
X120784819Y-97349523D01*
X120784819Y-97349523D02*
X121784819Y-96920952D01*
X144632857Y-91349580D02*
X144680476Y-91397200D01*
X144680476Y-91397200D02*
X144823333Y-91444819D01*
X144823333Y-91444819D02*
X144918571Y-91444819D01*
X144918571Y-91444819D02*
X145061428Y-91397200D01*
X145061428Y-91397200D02*
X145156666Y-91301961D01*
X145156666Y-91301961D02*
X145204285Y-91206723D01*
X145204285Y-91206723D02*
X145251904Y-91016247D01*
X145251904Y-91016247D02*
X145251904Y-90873390D01*
X145251904Y-90873390D02*
X145204285Y-90682914D01*
X145204285Y-90682914D02*
X145156666Y-90587676D01*
X145156666Y-90587676D02*
X145061428Y-90492438D01*
X145061428Y-90492438D02*
X144918571Y-90444819D01*
X144918571Y-90444819D02*
X144823333Y-90444819D01*
X144823333Y-90444819D02*
X144680476Y-90492438D01*
X144680476Y-90492438D02*
X144632857Y-90540057D01*
X144251904Y-90540057D02*
X144204285Y-90492438D01*
X144204285Y-90492438D02*
X144109047Y-90444819D01*
X144109047Y-90444819D02*
X143870952Y-90444819D01*
X143870952Y-90444819D02*
X143775714Y-90492438D01*
X143775714Y-90492438D02*
X143728095Y-90540057D01*
X143728095Y-90540057D02*
X143680476Y-90635295D01*
X143680476Y-90635295D02*
X143680476Y-90730533D01*
X143680476Y-90730533D02*
X143728095Y-90873390D01*
X143728095Y-90873390D02*
X144299523Y-91444819D01*
X144299523Y-91444819D02*
X143680476Y-91444819D01*
X142823333Y-90444819D02*
X143013809Y-90444819D01*
X143013809Y-90444819D02*
X143109047Y-90492438D01*
X143109047Y-90492438D02*
X143156666Y-90540057D01*
X143156666Y-90540057D02*
X143251904Y-90682914D01*
X143251904Y-90682914D02*
X143299523Y-90873390D01*
X143299523Y-90873390D02*
X143299523Y-91254342D01*
X143299523Y-91254342D02*
X143251904Y-91349580D01*
X143251904Y-91349580D02*
X143204285Y-91397200D01*
X143204285Y-91397200D02*
X143109047Y-91444819D01*
X143109047Y-91444819D02*
X142918571Y-91444819D01*
X142918571Y-91444819D02*
X142823333Y-91397200D01*
X142823333Y-91397200D02*
X142775714Y-91349580D01*
X142775714Y-91349580D02*
X142728095Y-91254342D01*
X142728095Y-91254342D02*
X142728095Y-91016247D01*
X142728095Y-91016247D02*
X142775714Y-90921009D01*
X142775714Y-90921009D02*
X142823333Y-90873390D01*
X142823333Y-90873390D02*
X142918571Y-90825771D01*
X142918571Y-90825771D02*
X143109047Y-90825771D01*
X143109047Y-90825771D02*
X143204285Y-90873390D01*
X143204285Y-90873390D02*
X143251904Y-90921009D01*
X143251904Y-90921009D02*
X143299523Y-91016247D01*
D11*
X168451428Y-118654809D02*
X168618094Y-118416714D01*
X168737142Y-118654809D02*
X168737142Y-118154809D01*
X168737142Y-118154809D02*
X168546666Y-118154809D01*
X168546666Y-118154809D02*
X168499047Y-118178619D01*
X168499047Y-118178619D02*
X168475237Y-118202428D01*
X168475237Y-118202428D02*
X168451428Y-118250047D01*
X168451428Y-118250047D02*
X168451428Y-118321476D01*
X168451428Y-118321476D02*
X168475237Y-118369095D01*
X168475237Y-118369095D02*
X168499047Y-118392904D01*
X168499047Y-118392904D02*
X168546666Y-118416714D01*
X168546666Y-118416714D02*
X168737142Y-118416714D01*
X168284761Y-118154809D02*
X167975237Y-118154809D01*
X167975237Y-118154809D02*
X168141904Y-118345285D01*
X168141904Y-118345285D02*
X168070475Y-118345285D01*
X168070475Y-118345285D02*
X168022856Y-118369095D01*
X168022856Y-118369095D02*
X167999047Y-118392904D01*
X167999047Y-118392904D02*
X167975237Y-118440523D01*
X167975237Y-118440523D02*
X167975237Y-118559571D01*
X167975237Y-118559571D02*
X167999047Y-118607190D01*
X167999047Y-118607190D02*
X168022856Y-118631000D01*
X168022856Y-118631000D02*
X168070475Y-118654809D01*
X168070475Y-118654809D02*
X168213332Y-118654809D01*
X168213332Y-118654809D02*
X168260951Y-118631000D01*
X168260951Y-118631000D02*
X168284761Y-118607190D01*
X167808571Y-118154809D02*
X167499047Y-118154809D01*
X167499047Y-118154809D02*
X167665714Y-118345285D01*
X167665714Y-118345285D02*
X167594285Y-118345285D01*
X167594285Y-118345285D02*
X167546666Y-118369095D01*
X167546666Y-118369095D02*
X167522857Y-118392904D01*
X167522857Y-118392904D02*
X167499047Y-118440523D01*
X167499047Y-118440523D02*
X167499047Y-118559571D01*
X167499047Y-118559571D02*
X167522857Y-118607190D01*
X167522857Y-118607190D02*
X167546666Y-118631000D01*
X167546666Y-118631000D02*
X167594285Y-118654809D01*
X167594285Y-118654809D02*
X167737142Y-118654809D01*
X167737142Y-118654809D02*
X167784761Y-118631000D01*
X167784761Y-118631000D02*
X167808571Y-118607190D01*
D10*
X157882857Y-109409580D02*
X157930476Y-109457200D01*
X157930476Y-109457200D02*
X158073333Y-109504819D01*
X158073333Y-109504819D02*
X158168571Y-109504819D01*
X158168571Y-109504819D02*
X158311428Y-109457200D01*
X158311428Y-109457200D02*
X158406666Y-109361961D01*
X158406666Y-109361961D02*
X158454285Y-109266723D01*
X158454285Y-109266723D02*
X158501904Y-109076247D01*
X158501904Y-109076247D02*
X158501904Y-108933390D01*
X158501904Y-108933390D02*
X158454285Y-108742914D01*
X158454285Y-108742914D02*
X158406666Y-108647676D01*
X158406666Y-108647676D02*
X158311428Y-108552438D01*
X158311428Y-108552438D02*
X158168571Y-108504819D01*
X158168571Y-108504819D02*
X158073333Y-108504819D01*
X158073333Y-108504819D02*
X157930476Y-108552438D01*
X157930476Y-108552438D02*
X157882857Y-108600057D01*
X156930476Y-109504819D02*
X157501904Y-109504819D01*
X157216190Y-109504819D02*
X157216190Y-108504819D01*
X157216190Y-108504819D02*
X157311428Y-108647676D01*
X157311428Y-108647676D02*
X157406666Y-108742914D01*
X157406666Y-108742914D02*
X157501904Y-108790533D01*
X156549523Y-108600057D02*
X156501904Y-108552438D01*
X156501904Y-108552438D02*
X156406666Y-108504819D01*
X156406666Y-108504819D02*
X156168571Y-108504819D01*
X156168571Y-108504819D02*
X156073333Y-108552438D01*
X156073333Y-108552438D02*
X156025714Y-108600057D01*
X156025714Y-108600057D02*
X155978095Y-108695295D01*
X155978095Y-108695295D02*
X155978095Y-108790533D01*
X155978095Y-108790533D02*
X156025714Y-108933390D01*
X156025714Y-108933390D02*
X156597142Y-109504819D01*
X156597142Y-109504819D02*
X155978095Y-109504819D01*
X125612857Y-105244819D02*
X125946190Y-104768628D01*
X126184285Y-105244819D02*
X126184285Y-104244819D01*
X126184285Y-104244819D02*
X125803333Y-104244819D01*
X125803333Y-104244819D02*
X125708095Y-104292438D01*
X125708095Y-104292438D02*
X125660476Y-104340057D01*
X125660476Y-104340057D02*
X125612857Y-104435295D01*
X125612857Y-104435295D02*
X125612857Y-104578152D01*
X125612857Y-104578152D02*
X125660476Y-104673390D01*
X125660476Y-104673390D02*
X125708095Y-104721009D01*
X125708095Y-104721009D02*
X125803333Y-104768628D01*
X125803333Y-104768628D02*
X126184285Y-104768628D01*
X125231904Y-104340057D02*
X125184285Y-104292438D01*
X125184285Y-104292438D02*
X125089047Y-104244819D01*
X125089047Y-104244819D02*
X124850952Y-104244819D01*
X124850952Y-104244819D02*
X124755714Y-104292438D01*
X124755714Y-104292438D02*
X124708095Y-104340057D01*
X124708095Y-104340057D02*
X124660476Y-104435295D01*
X124660476Y-104435295D02*
X124660476Y-104530533D01*
X124660476Y-104530533D02*
X124708095Y-104673390D01*
X124708095Y-104673390D02*
X125279523Y-105244819D01*
X125279523Y-105244819D02*
X124660476Y-105244819D01*
X124041428Y-104244819D02*
X123946190Y-104244819D01*
X123946190Y-104244819D02*
X123850952Y-104292438D01*
X123850952Y-104292438D02*
X123803333Y-104340057D01*
X123803333Y-104340057D02*
X123755714Y-104435295D01*
X123755714Y-104435295D02*
X123708095Y-104625771D01*
X123708095Y-104625771D02*
X123708095Y-104863866D01*
X123708095Y-104863866D02*
X123755714Y-105054342D01*
X123755714Y-105054342D02*
X123803333Y-105149580D01*
X123803333Y-105149580D02*
X123850952Y-105197200D01*
X123850952Y-105197200D02*
X123946190Y-105244819D01*
X123946190Y-105244819D02*
X124041428Y-105244819D01*
X124041428Y-105244819D02*
X124136666Y-105197200D01*
X124136666Y-105197200D02*
X124184285Y-105149580D01*
X124184285Y-105149580D02*
X124231904Y-105054342D01*
X124231904Y-105054342D02*
X124279523Y-104863866D01*
X124279523Y-104863866D02*
X124279523Y-104625771D01*
X124279523Y-104625771D02*
X124231904Y-104435295D01*
X124231904Y-104435295D02*
X124184285Y-104340057D01*
X124184285Y-104340057D02*
X124136666Y-104292438D01*
X124136666Y-104292438D02*
X124041428Y-104244819D01*
X171296666Y-88384819D02*
X170725238Y-88384819D01*
X171010952Y-89384819D02*
X171010952Y-88384819D01*
X170391904Y-89384819D02*
X170391904Y-88384819D01*
X170391904Y-88384819D02*
X170010952Y-88384819D01*
X170010952Y-88384819D02*
X169915714Y-88432438D01*
X169915714Y-88432438D02*
X169868095Y-88480057D01*
X169868095Y-88480057D02*
X169820476Y-88575295D01*
X169820476Y-88575295D02*
X169820476Y-88718152D01*
X169820476Y-88718152D02*
X169868095Y-88813390D01*
X169868095Y-88813390D02*
X169915714Y-88861009D01*
X169915714Y-88861009D02*
X170010952Y-88908628D01*
X170010952Y-88908628D02*
X170391904Y-88908628D01*
X169487142Y-88384819D02*
X168868095Y-88384819D01*
X168868095Y-88384819D02*
X169201428Y-88765771D01*
X169201428Y-88765771D02*
X169058571Y-88765771D01*
X169058571Y-88765771D02*
X168963333Y-88813390D01*
X168963333Y-88813390D02*
X168915714Y-88861009D01*
X168915714Y-88861009D02*
X168868095Y-88956247D01*
X168868095Y-88956247D02*
X168868095Y-89194342D01*
X168868095Y-89194342D02*
X168915714Y-89289580D01*
X168915714Y-89289580D02*
X168963333Y-89337200D01*
X168963333Y-89337200D02*
X169058571Y-89384819D01*
X169058571Y-89384819D02*
X169344285Y-89384819D01*
X169344285Y-89384819D02*
X169439523Y-89337200D01*
X169439523Y-89337200D02*
X169487142Y-89289580D01*
X168582380Y-88384819D02*
X168249047Y-89384819D01*
X168249047Y-89384819D02*
X167915714Y-88384819D01*
X167677618Y-88384819D02*
X167058571Y-88384819D01*
X167058571Y-88384819D02*
X167391904Y-88765771D01*
X167391904Y-88765771D02*
X167249047Y-88765771D01*
X167249047Y-88765771D02*
X167153809Y-88813390D01*
X167153809Y-88813390D02*
X167106190Y-88861009D01*
X167106190Y-88861009D02*
X167058571Y-88956247D01*
X167058571Y-88956247D02*
X167058571Y-89194342D01*
X167058571Y-89194342D02*
X167106190Y-89289580D01*
X167106190Y-89289580D02*
X167153809Y-89337200D01*
X167153809Y-89337200D02*
X167249047Y-89384819D01*
X167249047Y-89384819D02*
X167534761Y-89384819D01*
X167534761Y-89384819D02*
X167629999Y-89337200D01*
X167629999Y-89337200D02*
X167677618Y-89289580D01*
X127644819Y-102325833D02*
X127644819Y-101849643D01*
X127644819Y-101849643D02*
X126644819Y-101849643D01*
X127073390Y-102802024D02*
X127025771Y-102706786D01*
X127025771Y-102706786D02*
X126978152Y-102659167D01*
X126978152Y-102659167D02*
X126882914Y-102611548D01*
X126882914Y-102611548D02*
X126835295Y-102611548D01*
X126835295Y-102611548D02*
X126740057Y-102659167D01*
X126740057Y-102659167D02*
X126692438Y-102706786D01*
X126692438Y-102706786D02*
X126644819Y-102802024D01*
X126644819Y-102802024D02*
X126644819Y-102992500D01*
X126644819Y-102992500D02*
X126692438Y-103087738D01*
X126692438Y-103087738D02*
X126740057Y-103135357D01*
X126740057Y-103135357D02*
X126835295Y-103182976D01*
X126835295Y-103182976D02*
X126882914Y-103182976D01*
X126882914Y-103182976D02*
X126978152Y-103135357D01*
X126978152Y-103135357D02*
X127025771Y-103087738D01*
X127025771Y-103087738D02*
X127073390Y-102992500D01*
X127073390Y-102992500D02*
X127073390Y-102802024D01*
X127073390Y-102802024D02*
X127121009Y-102706786D01*
X127121009Y-102706786D02*
X127168628Y-102659167D01*
X127168628Y-102659167D02*
X127263866Y-102611548D01*
X127263866Y-102611548D02*
X127454342Y-102611548D01*
X127454342Y-102611548D02*
X127549580Y-102659167D01*
X127549580Y-102659167D02*
X127597200Y-102706786D01*
X127597200Y-102706786D02*
X127644819Y-102802024D01*
X127644819Y-102802024D02*
X127644819Y-102992500D01*
X127644819Y-102992500D02*
X127597200Y-103087738D01*
X127597200Y-103087738D02*
X127549580Y-103135357D01*
X127549580Y-103135357D02*
X127454342Y-103182976D01*
X127454342Y-103182976D02*
X127263866Y-103182976D01*
X127263866Y-103182976D02*
X127168628Y-103135357D01*
X127168628Y-103135357D02*
X127121009Y-103087738D01*
X127121009Y-103087738D02*
X127073390Y-102992500D01*
X163417857Y-87049580D02*
X163465476Y-87097200D01*
X163465476Y-87097200D02*
X163608333Y-87144819D01*
X163608333Y-87144819D02*
X163703571Y-87144819D01*
X163703571Y-87144819D02*
X163846428Y-87097200D01*
X163846428Y-87097200D02*
X163941666Y-87001961D01*
X163941666Y-87001961D02*
X163989285Y-86906723D01*
X163989285Y-86906723D02*
X164036904Y-86716247D01*
X164036904Y-86716247D02*
X164036904Y-86573390D01*
X164036904Y-86573390D02*
X163989285Y-86382914D01*
X163989285Y-86382914D02*
X163941666Y-86287676D01*
X163941666Y-86287676D02*
X163846428Y-86192438D01*
X163846428Y-86192438D02*
X163703571Y-86144819D01*
X163703571Y-86144819D02*
X163608333Y-86144819D01*
X163608333Y-86144819D02*
X163465476Y-86192438D01*
X163465476Y-86192438D02*
X163417857Y-86240057D01*
X162560714Y-86478152D02*
X162560714Y-87144819D01*
X162798809Y-86097200D02*
X163036904Y-86811485D01*
X163036904Y-86811485D02*
X162417857Y-86811485D01*
X162132142Y-86144819D02*
X161465476Y-86144819D01*
X161465476Y-86144819D02*
X161894047Y-87144819D01*
X123396666Y-93034819D02*
X123729999Y-92558628D01*
X123968094Y-93034819D02*
X123968094Y-92034819D01*
X123968094Y-92034819D02*
X123587142Y-92034819D01*
X123587142Y-92034819D02*
X123491904Y-92082438D01*
X123491904Y-92082438D02*
X123444285Y-92130057D01*
X123444285Y-92130057D02*
X123396666Y-92225295D01*
X123396666Y-92225295D02*
X123396666Y-92368152D01*
X123396666Y-92368152D02*
X123444285Y-92463390D01*
X123444285Y-92463390D02*
X123491904Y-92511009D01*
X123491904Y-92511009D02*
X123587142Y-92558628D01*
X123587142Y-92558628D02*
X123968094Y-92558628D01*
X123063332Y-92034819D02*
X122444285Y-92034819D01*
X122444285Y-92034819D02*
X122777618Y-92415771D01*
X122777618Y-92415771D02*
X122634761Y-92415771D01*
X122634761Y-92415771D02*
X122539523Y-92463390D01*
X122539523Y-92463390D02*
X122491904Y-92511009D01*
X122491904Y-92511009D02*
X122444285Y-92606247D01*
X122444285Y-92606247D02*
X122444285Y-92844342D01*
X122444285Y-92844342D02*
X122491904Y-92939580D01*
X122491904Y-92939580D02*
X122539523Y-92987200D01*
X122539523Y-92987200D02*
X122634761Y-93034819D01*
X122634761Y-93034819D02*
X122920475Y-93034819D01*
X122920475Y-93034819D02*
X123015713Y-92987200D01*
X123015713Y-92987200D02*
X123063332Y-92939580D01*
X157912857Y-112339580D02*
X157960476Y-112387200D01*
X157960476Y-112387200D02*
X158103333Y-112434819D01*
X158103333Y-112434819D02*
X158198571Y-112434819D01*
X158198571Y-112434819D02*
X158341428Y-112387200D01*
X158341428Y-112387200D02*
X158436666Y-112291961D01*
X158436666Y-112291961D02*
X158484285Y-112196723D01*
X158484285Y-112196723D02*
X158531904Y-112006247D01*
X158531904Y-112006247D02*
X158531904Y-111863390D01*
X158531904Y-111863390D02*
X158484285Y-111672914D01*
X158484285Y-111672914D02*
X158436666Y-111577676D01*
X158436666Y-111577676D02*
X158341428Y-111482438D01*
X158341428Y-111482438D02*
X158198571Y-111434819D01*
X158198571Y-111434819D02*
X158103333Y-111434819D01*
X158103333Y-111434819D02*
X157960476Y-111482438D01*
X157960476Y-111482438D02*
X157912857Y-111530057D01*
X157008095Y-111434819D02*
X157484285Y-111434819D01*
X157484285Y-111434819D02*
X157531904Y-111911009D01*
X157531904Y-111911009D02*
X157484285Y-111863390D01*
X157484285Y-111863390D02*
X157389047Y-111815771D01*
X157389047Y-111815771D02*
X157150952Y-111815771D01*
X157150952Y-111815771D02*
X157055714Y-111863390D01*
X157055714Y-111863390D02*
X157008095Y-111911009D01*
X157008095Y-111911009D02*
X156960476Y-112006247D01*
X156960476Y-112006247D02*
X156960476Y-112244342D01*
X156960476Y-112244342D02*
X157008095Y-112339580D01*
X157008095Y-112339580D02*
X157055714Y-112387200D01*
X157055714Y-112387200D02*
X157150952Y-112434819D01*
X157150952Y-112434819D02*
X157389047Y-112434819D01*
X157389047Y-112434819D02*
X157484285Y-112387200D01*
X157484285Y-112387200D02*
X157531904Y-112339580D01*
X156627142Y-111434819D02*
X156008095Y-111434819D01*
X156008095Y-111434819D02*
X156341428Y-111815771D01*
X156341428Y-111815771D02*
X156198571Y-111815771D01*
X156198571Y-111815771D02*
X156103333Y-111863390D01*
X156103333Y-111863390D02*
X156055714Y-111911009D01*
X156055714Y-111911009D02*
X156008095Y-112006247D01*
X156008095Y-112006247D02*
X156008095Y-112244342D01*
X156008095Y-112244342D02*
X156055714Y-112339580D01*
X156055714Y-112339580D02*
X156103333Y-112387200D01*
X156103333Y-112387200D02*
X156198571Y-112434819D01*
X156198571Y-112434819D02*
X156484285Y-112434819D01*
X156484285Y-112434819D02*
X156579523Y-112387200D01*
X156579523Y-112387200D02*
X156627142Y-112339580D01*
X124649580Y-87378913D02*
X124697200Y-87331294D01*
X124697200Y-87331294D02*
X124744819Y-87188437D01*
X124744819Y-87188437D02*
X124744819Y-87093199D01*
X124744819Y-87093199D02*
X124697200Y-86950342D01*
X124697200Y-86950342D02*
X124601961Y-86855104D01*
X124601961Y-86855104D02*
X124506723Y-86807485D01*
X124506723Y-86807485D02*
X124316247Y-86759866D01*
X124316247Y-86759866D02*
X124173390Y-86759866D01*
X124173390Y-86759866D02*
X123982914Y-86807485D01*
X123982914Y-86807485D02*
X123887676Y-86855104D01*
X123887676Y-86855104D02*
X123792438Y-86950342D01*
X123792438Y-86950342D02*
X123744819Y-87093199D01*
X123744819Y-87093199D02*
X123744819Y-87188437D01*
X123744819Y-87188437D02*
X123792438Y-87331294D01*
X123792438Y-87331294D02*
X123840057Y-87378913D01*
X123840057Y-87759866D02*
X123792438Y-87807485D01*
X123792438Y-87807485D02*
X123744819Y-87902723D01*
X123744819Y-87902723D02*
X123744819Y-88140818D01*
X123744819Y-88140818D02*
X123792438Y-88236056D01*
X123792438Y-88236056D02*
X123840057Y-88283675D01*
X123840057Y-88283675D02*
X123935295Y-88331294D01*
X123935295Y-88331294D02*
X124030533Y-88331294D01*
X124030533Y-88331294D02*
X124173390Y-88283675D01*
X124173390Y-88283675D02*
X124744819Y-87712247D01*
X124744819Y-87712247D02*
X124744819Y-88331294D01*
X149172857Y-113829580D02*
X149220476Y-113877200D01*
X149220476Y-113877200D02*
X149363333Y-113924819D01*
X149363333Y-113924819D02*
X149458571Y-113924819D01*
X149458571Y-113924819D02*
X149601428Y-113877200D01*
X149601428Y-113877200D02*
X149696666Y-113781961D01*
X149696666Y-113781961D02*
X149744285Y-113686723D01*
X149744285Y-113686723D02*
X149791904Y-113496247D01*
X149791904Y-113496247D02*
X149791904Y-113353390D01*
X149791904Y-113353390D02*
X149744285Y-113162914D01*
X149744285Y-113162914D02*
X149696666Y-113067676D01*
X149696666Y-113067676D02*
X149601428Y-112972438D01*
X149601428Y-112972438D02*
X149458571Y-112924819D01*
X149458571Y-112924819D02*
X149363333Y-112924819D01*
X149363333Y-112924819D02*
X149220476Y-112972438D01*
X149220476Y-112972438D02*
X149172857Y-113020057D01*
X148220476Y-113924819D02*
X148791904Y-113924819D01*
X148506190Y-113924819D02*
X148506190Y-112924819D01*
X148506190Y-112924819D02*
X148601428Y-113067676D01*
X148601428Y-113067676D02*
X148696666Y-113162914D01*
X148696666Y-113162914D02*
X148791904Y-113210533D01*
X147268095Y-113924819D02*
X147839523Y-113924819D01*
X147553809Y-113924819D02*
X147553809Y-112924819D01*
X147553809Y-112924819D02*
X147649047Y-113067676D01*
X147649047Y-113067676D02*
X147744285Y-113162914D01*
X147744285Y-113162914D02*
X147839523Y-113210533D01*
X171306666Y-90954819D02*
X170735238Y-90954819D01*
X171020952Y-91954819D02*
X171020952Y-90954819D01*
X170401904Y-91954819D02*
X170401904Y-90954819D01*
X170401904Y-90954819D02*
X170020952Y-90954819D01*
X170020952Y-90954819D02*
X169925714Y-91002438D01*
X169925714Y-91002438D02*
X169878095Y-91050057D01*
X169878095Y-91050057D02*
X169830476Y-91145295D01*
X169830476Y-91145295D02*
X169830476Y-91288152D01*
X169830476Y-91288152D02*
X169878095Y-91383390D01*
X169878095Y-91383390D02*
X169925714Y-91431009D01*
X169925714Y-91431009D02*
X170020952Y-91478628D01*
X170020952Y-91478628D02*
X170401904Y-91478628D01*
X168878095Y-91954819D02*
X169449523Y-91954819D01*
X169163809Y-91954819D02*
X169163809Y-90954819D01*
X169163809Y-90954819D02*
X169259047Y-91097676D01*
X169259047Y-91097676D02*
X169354285Y-91192914D01*
X169354285Y-91192914D02*
X169449523Y-91240533D01*
X168592380Y-90954819D02*
X168259047Y-91954819D01*
X168259047Y-91954819D02*
X167925714Y-90954819D01*
X167639999Y-91050057D02*
X167592380Y-91002438D01*
X167592380Y-91002438D02*
X167497142Y-90954819D01*
X167497142Y-90954819D02*
X167259047Y-90954819D01*
X167259047Y-90954819D02*
X167163809Y-91002438D01*
X167163809Y-91002438D02*
X167116190Y-91050057D01*
X167116190Y-91050057D02*
X167068571Y-91145295D01*
X167068571Y-91145295D02*
X167068571Y-91240533D01*
X167068571Y-91240533D02*
X167116190Y-91383390D01*
X167116190Y-91383390D02*
X167687618Y-91954819D01*
X167687618Y-91954819D02*
X167068571Y-91954819D01*
X144642857Y-92839580D02*
X144690476Y-92887200D01*
X144690476Y-92887200D02*
X144833333Y-92934819D01*
X144833333Y-92934819D02*
X144928571Y-92934819D01*
X144928571Y-92934819D02*
X145071428Y-92887200D01*
X145071428Y-92887200D02*
X145166666Y-92791961D01*
X145166666Y-92791961D02*
X145214285Y-92696723D01*
X145214285Y-92696723D02*
X145261904Y-92506247D01*
X145261904Y-92506247D02*
X145261904Y-92363390D01*
X145261904Y-92363390D02*
X145214285Y-92172914D01*
X145214285Y-92172914D02*
X145166666Y-92077676D01*
X145166666Y-92077676D02*
X145071428Y-91982438D01*
X145071428Y-91982438D02*
X144928571Y-91934819D01*
X144928571Y-91934819D02*
X144833333Y-91934819D01*
X144833333Y-91934819D02*
X144690476Y-91982438D01*
X144690476Y-91982438D02*
X144642857Y-92030057D01*
X144261904Y-92030057D02*
X144214285Y-91982438D01*
X144214285Y-91982438D02*
X144119047Y-91934819D01*
X144119047Y-91934819D02*
X143880952Y-91934819D01*
X143880952Y-91934819D02*
X143785714Y-91982438D01*
X143785714Y-91982438D02*
X143738095Y-92030057D01*
X143738095Y-92030057D02*
X143690476Y-92125295D01*
X143690476Y-92125295D02*
X143690476Y-92220533D01*
X143690476Y-92220533D02*
X143738095Y-92363390D01*
X143738095Y-92363390D02*
X144309523Y-92934819D01*
X144309523Y-92934819D02*
X143690476Y-92934819D01*
X142785714Y-91934819D02*
X143261904Y-91934819D01*
X143261904Y-91934819D02*
X143309523Y-92411009D01*
X143309523Y-92411009D02*
X143261904Y-92363390D01*
X143261904Y-92363390D02*
X143166666Y-92315771D01*
X143166666Y-92315771D02*
X142928571Y-92315771D01*
X142928571Y-92315771D02*
X142833333Y-92363390D01*
X142833333Y-92363390D02*
X142785714Y-92411009D01*
X142785714Y-92411009D02*
X142738095Y-92506247D01*
X142738095Y-92506247D02*
X142738095Y-92744342D01*
X142738095Y-92744342D02*
X142785714Y-92839580D01*
X142785714Y-92839580D02*
X142833333Y-92887200D01*
X142833333Y-92887200D02*
X142928571Y-92934819D01*
X142928571Y-92934819D02*
X143166666Y-92934819D01*
X143166666Y-92934819D02*
X143261904Y-92887200D01*
X143261904Y-92887200D02*
X143309523Y-92839580D01*
X110803333Y-97024819D02*
X110803333Y-97739104D01*
X110803333Y-97739104D02*
X110850952Y-97881961D01*
X110850952Y-97881961D02*
X110946190Y-97977200D01*
X110946190Y-97977200D02*
X111089047Y-98024819D01*
X111089047Y-98024819D02*
X111184285Y-98024819D01*
X110374761Y-97120057D02*
X110327142Y-97072438D01*
X110327142Y-97072438D02*
X110231904Y-97024819D01*
X110231904Y-97024819D02*
X109993809Y-97024819D01*
X109993809Y-97024819D02*
X109898571Y-97072438D01*
X109898571Y-97072438D02*
X109850952Y-97120057D01*
X109850952Y-97120057D02*
X109803333Y-97215295D01*
X109803333Y-97215295D02*
X109803333Y-97310533D01*
X109803333Y-97310533D02*
X109850952Y-97453390D01*
X109850952Y-97453390D02*
X110422380Y-98024819D01*
X110422380Y-98024819D02*
X109803333Y-98024819D01*
X123309580Y-95407142D02*
X123357200Y-95359523D01*
X123357200Y-95359523D02*
X123404819Y-95216666D01*
X123404819Y-95216666D02*
X123404819Y-95121428D01*
X123404819Y-95121428D02*
X123357200Y-94978571D01*
X123357200Y-94978571D02*
X123261961Y-94883333D01*
X123261961Y-94883333D02*
X123166723Y-94835714D01*
X123166723Y-94835714D02*
X122976247Y-94788095D01*
X122976247Y-94788095D02*
X122833390Y-94788095D01*
X122833390Y-94788095D02*
X122642914Y-94835714D01*
X122642914Y-94835714D02*
X122547676Y-94883333D01*
X122547676Y-94883333D02*
X122452438Y-94978571D01*
X122452438Y-94978571D02*
X122404819Y-95121428D01*
X122404819Y-95121428D02*
X122404819Y-95216666D01*
X122404819Y-95216666D02*
X122452438Y-95359523D01*
X122452438Y-95359523D02*
X122500057Y-95407142D01*
X122738152Y-96264285D02*
X123404819Y-96264285D01*
X122357200Y-96026190D02*
X123071485Y-95788095D01*
X123071485Y-95788095D02*
X123071485Y-96407142D01*
X122404819Y-97216666D02*
X122404819Y-97026190D01*
X122404819Y-97026190D02*
X122452438Y-96930952D01*
X122452438Y-96930952D02*
X122500057Y-96883333D01*
X122500057Y-96883333D02*
X122642914Y-96788095D01*
X122642914Y-96788095D02*
X122833390Y-96740476D01*
X122833390Y-96740476D02*
X123214342Y-96740476D01*
X123214342Y-96740476D02*
X123309580Y-96788095D01*
X123309580Y-96788095D02*
X123357200Y-96835714D01*
X123357200Y-96835714D02*
X123404819Y-96930952D01*
X123404819Y-96930952D02*
X123404819Y-97121428D01*
X123404819Y-97121428D02*
X123357200Y-97216666D01*
X123357200Y-97216666D02*
X123309580Y-97264285D01*
X123309580Y-97264285D02*
X123214342Y-97311904D01*
X123214342Y-97311904D02*
X122976247Y-97311904D01*
X122976247Y-97311904D02*
X122881009Y-97264285D01*
X122881009Y-97264285D02*
X122833390Y-97216666D01*
X122833390Y-97216666D02*
X122785771Y-97121428D01*
X122785771Y-97121428D02*
X122785771Y-96930952D01*
X122785771Y-96930952D02*
X122833390Y-96835714D01*
X122833390Y-96835714D02*
X122881009Y-96788095D01*
X122881009Y-96788095D02*
X122976247Y-96740476D01*
X124262857Y-85196819D02*
X124596190Y-84720628D01*
X124834285Y-85196819D02*
X124834285Y-84196819D01*
X124834285Y-84196819D02*
X124453333Y-84196819D01*
X124453333Y-84196819D02*
X124358095Y-84244438D01*
X124358095Y-84244438D02*
X124310476Y-84292057D01*
X124310476Y-84292057D02*
X124262857Y-84387295D01*
X124262857Y-84387295D02*
X124262857Y-84530152D01*
X124262857Y-84530152D02*
X124310476Y-84625390D01*
X124310476Y-84625390D02*
X124358095Y-84673009D01*
X124358095Y-84673009D02*
X124453333Y-84720628D01*
X124453333Y-84720628D02*
X124834285Y-84720628D01*
X123405714Y-84530152D02*
X123405714Y-85196819D01*
X123643809Y-84149200D02*
X123881904Y-84863485D01*
X123881904Y-84863485D02*
X123262857Y-84863485D01*
X122453333Y-84196819D02*
X122643809Y-84196819D01*
X122643809Y-84196819D02*
X122739047Y-84244438D01*
X122739047Y-84244438D02*
X122786666Y-84292057D01*
X122786666Y-84292057D02*
X122881904Y-84434914D01*
X122881904Y-84434914D02*
X122929523Y-84625390D01*
X122929523Y-84625390D02*
X122929523Y-85006342D01*
X122929523Y-85006342D02*
X122881904Y-85101580D01*
X122881904Y-85101580D02*
X122834285Y-85149200D01*
X122834285Y-85149200D02*
X122739047Y-85196819D01*
X122739047Y-85196819D02*
X122548571Y-85196819D01*
X122548571Y-85196819D02*
X122453333Y-85149200D01*
X122453333Y-85149200D02*
X122405714Y-85101580D01*
X122405714Y-85101580D02*
X122358095Y-85006342D01*
X122358095Y-85006342D02*
X122358095Y-84768247D01*
X122358095Y-84768247D02*
X122405714Y-84673009D01*
X122405714Y-84673009D02*
X122453333Y-84625390D01*
X122453333Y-84625390D02*
X122548571Y-84577771D01*
X122548571Y-84577771D02*
X122739047Y-84577771D01*
X122739047Y-84577771D02*
X122834285Y-84625390D01*
X122834285Y-84625390D02*
X122881904Y-84673009D01*
X122881904Y-84673009D02*
X122929523Y-84768247D01*
X135972857Y-89859580D02*
X136020476Y-89907200D01*
X136020476Y-89907200D02*
X136163333Y-89954819D01*
X136163333Y-89954819D02*
X136258571Y-89954819D01*
X136258571Y-89954819D02*
X136401428Y-89907200D01*
X136401428Y-89907200D02*
X136496666Y-89811961D01*
X136496666Y-89811961D02*
X136544285Y-89716723D01*
X136544285Y-89716723D02*
X136591904Y-89526247D01*
X136591904Y-89526247D02*
X136591904Y-89383390D01*
X136591904Y-89383390D02*
X136544285Y-89192914D01*
X136544285Y-89192914D02*
X136496666Y-89097676D01*
X136496666Y-89097676D02*
X136401428Y-89002438D01*
X136401428Y-89002438D02*
X136258571Y-88954819D01*
X136258571Y-88954819D02*
X136163333Y-88954819D01*
X136163333Y-88954819D02*
X136020476Y-89002438D01*
X136020476Y-89002438D02*
X135972857Y-89050057D01*
X135020476Y-89954819D02*
X135591904Y-89954819D01*
X135306190Y-89954819D02*
X135306190Y-88954819D01*
X135306190Y-88954819D02*
X135401428Y-89097676D01*
X135401428Y-89097676D02*
X135496666Y-89192914D01*
X135496666Y-89192914D02*
X135591904Y-89240533D01*
X134687142Y-88954819D02*
X134020476Y-88954819D01*
X134020476Y-88954819D02*
X134449047Y-89954819D01*
X144732857Y-97129580D02*
X144780476Y-97177200D01*
X144780476Y-97177200D02*
X144923333Y-97224819D01*
X144923333Y-97224819D02*
X145018571Y-97224819D01*
X145018571Y-97224819D02*
X145161428Y-97177200D01*
X145161428Y-97177200D02*
X145256666Y-97081961D01*
X145256666Y-97081961D02*
X145304285Y-96986723D01*
X145304285Y-96986723D02*
X145351904Y-96796247D01*
X145351904Y-96796247D02*
X145351904Y-96653390D01*
X145351904Y-96653390D02*
X145304285Y-96462914D01*
X145304285Y-96462914D02*
X145256666Y-96367676D01*
X145256666Y-96367676D02*
X145161428Y-96272438D01*
X145161428Y-96272438D02*
X145018571Y-96224819D01*
X145018571Y-96224819D02*
X144923333Y-96224819D01*
X144923333Y-96224819D02*
X144780476Y-96272438D01*
X144780476Y-96272438D02*
X144732857Y-96320057D01*
X144351904Y-96320057D02*
X144304285Y-96272438D01*
X144304285Y-96272438D02*
X144209047Y-96224819D01*
X144209047Y-96224819D02*
X143970952Y-96224819D01*
X143970952Y-96224819D02*
X143875714Y-96272438D01*
X143875714Y-96272438D02*
X143828095Y-96320057D01*
X143828095Y-96320057D02*
X143780476Y-96415295D01*
X143780476Y-96415295D02*
X143780476Y-96510533D01*
X143780476Y-96510533D02*
X143828095Y-96653390D01*
X143828095Y-96653390D02*
X144399523Y-97224819D01*
X144399523Y-97224819D02*
X143780476Y-97224819D01*
X143447142Y-96224819D02*
X142780476Y-96224819D01*
X142780476Y-96224819D02*
X143209047Y-97224819D01*
X154662857Y-88479580D02*
X154710476Y-88527200D01*
X154710476Y-88527200D02*
X154853333Y-88574819D01*
X154853333Y-88574819D02*
X154948571Y-88574819D01*
X154948571Y-88574819D02*
X155091428Y-88527200D01*
X155091428Y-88527200D02*
X155186666Y-88431961D01*
X155186666Y-88431961D02*
X155234285Y-88336723D01*
X155234285Y-88336723D02*
X155281904Y-88146247D01*
X155281904Y-88146247D02*
X155281904Y-88003390D01*
X155281904Y-88003390D02*
X155234285Y-87812914D01*
X155234285Y-87812914D02*
X155186666Y-87717676D01*
X155186666Y-87717676D02*
X155091428Y-87622438D01*
X155091428Y-87622438D02*
X154948571Y-87574819D01*
X154948571Y-87574819D02*
X154853333Y-87574819D01*
X154853333Y-87574819D02*
X154710476Y-87622438D01*
X154710476Y-87622438D02*
X154662857Y-87670057D01*
X154329523Y-87574819D02*
X153710476Y-87574819D01*
X153710476Y-87574819D02*
X154043809Y-87955771D01*
X154043809Y-87955771D02*
X153900952Y-87955771D01*
X153900952Y-87955771D02*
X153805714Y-88003390D01*
X153805714Y-88003390D02*
X153758095Y-88051009D01*
X153758095Y-88051009D02*
X153710476Y-88146247D01*
X153710476Y-88146247D02*
X153710476Y-88384342D01*
X153710476Y-88384342D02*
X153758095Y-88479580D01*
X153758095Y-88479580D02*
X153805714Y-88527200D01*
X153805714Y-88527200D02*
X153900952Y-88574819D01*
X153900952Y-88574819D02*
X154186666Y-88574819D01*
X154186666Y-88574819D02*
X154281904Y-88527200D01*
X154281904Y-88527200D02*
X154329523Y-88479580D01*
X152758095Y-88574819D02*
X153329523Y-88574819D01*
X153043809Y-88574819D02*
X153043809Y-87574819D01*
X153043809Y-87574819D02*
X153139047Y-87717676D01*
X153139047Y-87717676D02*
X153234285Y-87812914D01*
X153234285Y-87812914D02*
X153329523Y-87860533D01*
X124589580Y-101847142D02*
X124637200Y-101799523D01*
X124637200Y-101799523D02*
X124684819Y-101656666D01*
X124684819Y-101656666D02*
X124684819Y-101561428D01*
X124684819Y-101561428D02*
X124637200Y-101418571D01*
X124637200Y-101418571D02*
X124541961Y-101323333D01*
X124541961Y-101323333D02*
X124446723Y-101275714D01*
X124446723Y-101275714D02*
X124256247Y-101228095D01*
X124256247Y-101228095D02*
X124113390Y-101228095D01*
X124113390Y-101228095D02*
X123922914Y-101275714D01*
X123922914Y-101275714D02*
X123827676Y-101323333D01*
X123827676Y-101323333D02*
X123732438Y-101418571D01*
X123732438Y-101418571D02*
X123684819Y-101561428D01*
X123684819Y-101561428D02*
X123684819Y-101656666D01*
X123684819Y-101656666D02*
X123732438Y-101799523D01*
X123732438Y-101799523D02*
X123780057Y-101847142D01*
X123684819Y-102751904D02*
X123684819Y-102275714D01*
X123684819Y-102275714D02*
X124161009Y-102228095D01*
X124161009Y-102228095D02*
X124113390Y-102275714D01*
X124113390Y-102275714D02*
X124065771Y-102370952D01*
X124065771Y-102370952D02*
X124065771Y-102609047D01*
X124065771Y-102609047D02*
X124113390Y-102704285D01*
X124113390Y-102704285D02*
X124161009Y-102751904D01*
X124161009Y-102751904D02*
X124256247Y-102799523D01*
X124256247Y-102799523D02*
X124494342Y-102799523D01*
X124494342Y-102799523D02*
X124589580Y-102751904D01*
X124589580Y-102751904D02*
X124637200Y-102704285D01*
X124637200Y-102704285D02*
X124684819Y-102609047D01*
X124684819Y-102609047D02*
X124684819Y-102370952D01*
X124684819Y-102370952D02*
X124637200Y-102275714D01*
X124637200Y-102275714D02*
X124589580Y-102228095D01*
X124684819Y-103275714D02*
X124684819Y-103466190D01*
X124684819Y-103466190D02*
X124637200Y-103561428D01*
X124637200Y-103561428D02*
X124589580Y-103609047D01*
X124589580Y-103609047D02*
X124446723Y-103704285D01*
X124446723Y-103704285D02*
X124256247Y-103751904D01*
X124256247Y-103751904D02*
X123875295Y-103751904D01*
X123875295Y-103751904D02*
X123780057Y-103704285D01*
X123780057Y-103704285D02*
X123732438Y-103656666D01*
X123732438Y-103656666D02*
X123684819Y-103561428D01*
X123684819Y-103561428D02*
X123684819Y-103370952D01*
X123684819Y-103370952D02*
X123732438Y-103275714D01*
X123732438Y-103275714D02*
X123780057Y-103228095D01*
X123780057Y-103228095D02*
X123875295Y-103180476D01*
X123875295Y-103180476D02*
X124113390Y-103180476D01*
X124113390Y-103180476D02*
X124208628Y-103228095D01*
X124208628Y-103228095D02*
X124256247Y-103275714D01*
X124256247Y-103275714D02*
X124303866Y-103370952D01*
X124303866Y-103370952D02*
X124303866Y-103561428D01*
X124303866Y-103561428D02*
X124256247Y-103656666D01*
X124256247Y-103656666D02*
X124208628Y-103704285D01*
X124208628Y-103704285D02*
X124113390Y-103751904D01*
X135952857Y-92829580D02*
X136000476Y-92877200D01*
X136000476Y-92877200D02*
X136143333Y-92924819D01*
X136143333Y-92924819D02*
X136238571Y-92924819D01*
X136238571Y-92924819D02*
X136381428Y-92877200D01*
X136381428Y-92877200D02*
X136476666Y-92781961D01*
X136476666Y-92781961D02*
X136524285Y-92686723D01*
X136524285Y-92686723D02*
X136571904Y-92496247D01*
X136571904Y-92496247D02*
X136571904Y-92353390D01*
X136571904Y-92353390D02*
X136524285Y-92162914D01*
X136524285Y-92162914D02*
X136476666Y-92067676D01*
X136476666Y-92067676D02*
X136381428Y-91972438D01*
X136381428Y-91972438D02*
X136238571Y-91924819D01*
X136238571Y-91924819D02*
X136143333Y-91924819D01*
X136143333Y-91924819D02*
X136000476Y-91972438D01*
X136000476Y-91972438D02*
X135952857Y-92020057D01*
X135571904Y-92020057D02*
X135524285Y-91972438D01*
X135524285Y-91972438D02*
X135429047Y-91924819D01*
X135429047Y-91924819D02*
X135190952Y-91924819D01*
X135190952Y-91924819D02*
X135095714Y-91972438D01*
X135095714Y-91972438D02*
X135048095Y-92020057D01*
X135048095Y-92020057D02*
X135000476Y-92115295D01*
X135000476Y-92115295D02*
X135000476Y-92210533D01*
X135000476Y-92210533D02*
X135048095Y-92353390D01*
X135048095Y-92353390D02*
X135619523Y-92924819D01*
X135619523Y-92924819D02*
X135000476Y-92924819D01*
X134381428Y-91924819D02*
X134286190Y-91924819D01*
X134286190Y-91924819D02*
X134190952Y-91972438D01*
X134190952Y-91972438D02*
X134143333Y-92020057D01*
X134143333Y-92020057D02*
X134095714Y-92115295D01*
X134095714Y-92115295D02*
X134048095Y-92305771D01*
X134048095Y-92305771D02*
X134048095Y-92543866D01*
X134048095Y-92543866D02*
X134095714Y-92734342D01*
X134095714Y-92734342D02*
X134143333Y-92829580D01*
X134143333Y-92829580D02*
X134190952Y-92877200D01*
X134190952Y-92877200D02*
X134286190Y-92924819D01*
X134286190Y-92924819D02*
X134381428Y-92924819D01*
X134381428Y-92924819D02*
X134476666Y-92877200D01*
X134476666Y-92877200D02*
X134524285Y-92829580D01*
X134524285Y-92829580D02*
X134571904Y-92734342D01*
X134571904Y-92734342D02*
X134619523Y-92543866D01*
X134619523Y-92543866D02*
X134619523Y-92305771D01*
X134619523Y-92305771D02*
X134571904Y-92115295D01*
X134571904Y-92115295D02*
X134524285Y-92020057D01*
X134524285Y-92020057D02*
X134476666Y-91972438D01*
X134476666Y-91972438D02*
X134381428Y-91924819D01*
X150542857Y-94289580D02*
X150590476Y-94337200D01*
X150590476Y-94337200D02*
X150733333Y-94384819D01*
X150733333Y-94384819D02*
X150828571Y-94384819D01*
X150828571Y-94384819D02*
X150971428Y-94337200D01*
X150971428Y-94337200D02*
X151066666Y-94241961D01*
X151066666Y-94241961D02*
X151114285Y-94146723D01*
X151114285Y-94146723D02*
X151161904Y-93956247D01*
X151161904Y-93956247D02*
X151161904Y-93813390D01*
X151161904Y-93813390D02*
X151114285Y-93622914D01*
X151114285Y-93622914D02*
X151066666Y-93527676D01*
X151066666Y-93527676D02*
X150971428Y-93432438D01*
X150971428Y-93432438D02*
X150828571Y-93384819D01*
X150828571Y-93384819D02*
X150733333Y-93384819D01*
X150733333Y-93384819D02*
X150590476Y-93432438D01*
X150590476Y-93432438D02*
X150542857Y-93480057D01*
X150209523Y-93384819D02*
X149590476Y-93384819D01*
X149590476Y-93384819D02*
X149923809Y-93765771D01*
X149923809Y-93765771D02*
X149780952Y-93765771D01*
X149780952Y-93765771D02*
X149685714Y-93813390D01*
X149685714Y-93813390D02*
X149638095Y-93861009D01*
X149638095Y-93861009D02*
X149590476Y-93956247D01*
X149590476Y-93956247D02*
X149590476Y-94194342D01*
X149590476Y-94194342D02*
X149638095Y-94289580D01*
X149638095Y-94289580D02*
X149685714Y-94337200D01*
X149685714Y-94337200D02*
X149780952Y-94384819D01*
X149780952Y-94384819D02*
X150066666Y-94384819D01*
X150066666Y-94384819D02*
X150161904Y-94337200D01*
X150161904Y-94337200D02*
X150209523Y-94289580D01*
X148971428Y-93384819D02*
X148876190Y-93384819D01*
X148876190Y-93384819D02*
X148780952Y-93432438D01*
X148780952Y-93432438D02*
X148733333Y-93480057D01*
X148733333Y-93480057D02*
X148685714Y-93575295D01*
X148685714Y-93575295D02*
X148638095Y-93765771D01*
X148638095Y-93765771D02*
X148638095Y-94003866D01*
X148638095Y-94003866D02*
X148685714Y-94194342D01*
X148685714Y-94194342D02*
X148733333Y-94289580D01*
X148733333Y-94289580D02*
X148780952Y-94337200D01*
X148780952Y-94337200D02*
X148876190Y-94384819D01*
X148876190Y-94384819D02*
X148971428Y-94384819D01*
X148971428Y-94384819D02*
X149066666Y-94337200D01*
X149066666Y-94337200D02*
X149114285Y-94289580D01*
X149114285Y-94289580D02*
X149161904Y-94194342D01*
X149161904Y-94194342D02*
X149209523Y-94003866D01*
X149209523Y-94003866D02*
X149209523Y-93765771D01*
X149209523Y-93765771D02*
X149161904Y-93575295D01*
X149161904Y-93575295D02*
X149114285Y-93480057D01*
X149114285Y-93480057D02*
X149066666Y-93432438D01*
X149066666Y-93432438D02*
X148971428Y-93384819D01*
X141762857Y-97149580D02*
X141810476Y-97197200D01*
X141810476Y-97197200D02*
X141953333Y-97244819D01*
X141953333Y-97244819D02*
X142048571Y-97244819D01*
X142048571Y-97244819D02*
X142191428Y-97197200D01*
X142191428Y-97197200D02*
X142286666Y-97101961D01*
X142286666Y-97101961D02*
X142334285Y-97006723D01*
X142334285Y-97006723D02*
X142381904Y-96816247D01*
X142381904Y-96816247D02*
X142381904Y-96673390D01*
X142381904Y-96673390D02*
X142334285Y-96482914D01*
X142334285Y-96482914D02*
X142286666Y-96387676D01*
X142286666Y-96387676D02*
X142191428Y-96292438D01*
X142191428Y-96292438D02*
X142048571Y-96244819D01*
X142048571Y-96244819D02*
X141953333Y-96244819D01*
X141953333Y-96244819D02*
X141810476Y-96292438D01*
X141810476Y-96292438D02*
X141762857Y-96340057D01*
X141381904Y-96340057D02*
X141334285Y-96292438D01*
X141334285Y-96292438D02*
X141239047Y-96244819D01*
X141239047Y-96244819D02*
X141000952Y-96244819D01*
X141000952Y-96244819D02*
X140905714Y-96292438D01*
X140905714Y-96292438D02*
X140858095Y-96340057D01*
X140858095Y-96340057D02*
X140810476Y-96435295D01*
X140810476Y-96435295D02*
X140810476Y-96530533D01*
X140810476Y-96530533D02*
X140858095Y-96673390D01*
X140858095Y-96673390D02*
X141429523Y-97244819D01*
X141429523Y-97244819D02*
X140810476Y-97244819D01*
X139953333Y-96578152D02*
X139953333Y-97244819D01*
X140191428Y-96197200D02*
X140429523Y-96911485D01*
X140429523Y-96911485D02*
X139810476Y-96911485D01*
X171316666Y-93744819D02*
X170745238Y-93744819D01*
X171030952Y-94744819D02*
X171030952Y-93744819D01*
X170411904Y-94744819D02*
X170411904Y-93744819D01*
X170411904Y-93744819D02*
X170030952Y-93744819D01*
X170030952Y-93744819D02*
X169935714Y-93792438D01*
X169935714Y-93792438D02*
X169888095Y-93840057D01*
X169888095Y-93840057D02*
X169840476Y-93935295D01*
X169840476Y-93935295D02*
X169840476Y-94078152D01*
X169840476Y-94078152D02*
X169888095Y-94173390D01*
X169888095Y-94173390D02*
X169935714Y-94221009D01*
X169935714Y-94221009D02*
X170030952Y-94268628D01*
X170030952Y-94268628D02*
X170411904Y-94268628D01*
X169459523Y-93840057D02*
X169411904Y-93792438D01*
X169411904Y-93792438D02*
X169316666Y-93744819D01*
X169316666Y-93744819D02*
X169078571Y-93744819D01*
X169078571Y-93744819D02*
X168983333Y-93792438D01*
X168983333Y-93792438D02*
X168935714Y-93840057D01*
X168935714Y-93840057D02*
X168888095Y-93935295D01*
X168888095Y-93935295D02*
X168888095Y-94030533D01*
X168888095Y-94030533D02*
X168935714Y-94173390D01*
X168935714Y-94173390D02*
X169507142Y-94744819D01*
X169507142Y-94744819D02*
X168888095Y-94744819D01*
X168602380Y-93744819D02*
X168269047Y-94744819D01*
X168269047Y-94744819D02*
X167935714Y-93744819D01*
X167126190Y-93744819D02*
X167602380Y-93744819D01*
X167602380Y-93744819D02*
X167649999Y-94221009D01*
X167649999Y-94221009D02*
X167602380Y-94173390D01*
X167602380Y-94173390D02*
X167507142Y-94125771D01*
X167507142Y-94125771D02*
X167269047Y-94125771D01*
X167269047Y-94125771D02*
X167173809Y-94173390D01*
X167173809Y-94173390D02*
X167126190Y-94221009D01*
X167126190Y-94221009D02*
X167078571Y-94316247D01*
X167078571Y-94316247D02*
X167078571Y-94554342D01*
X167078571Y-94554342D02*
X167126190Y-94649580D01*
X167126190Y-94649580D02*
X167173809Y-94697200D01*
X167173809Y-94697200D02*
X167269047Y-94744819D01*
X167269047Y-94744819D02*
X167507142Y-94744819D01*
X167507142Y-94744819D02*
X167602380Y-94697200D01*
X167602380Y-94697200D02*
X167649999Y-94649580D01*
X126294819Y-95417142D02*
X125818628Y-95083809D01*
X126294819Y-94845714D02*
X125294819Y-94845714D01*
X125294819Y-94845714D02*
X125294819Y-95226666D01*
X125294819Y-95226666D02*
X125342438Y-95321904D01*
X125342438Y-95321904D02*
X125390057Y-95369523D01*
X125390057Y-95369523D02*
X125485295Y-95417142D01*
X125485295Y-95417142D02*
X125628152Y-95417142D01*
X125628152Y-95417142D02*
X125723390Y-95369523D01*
X125723390Y-95369523D02*
X125771009Y-95321904D01*
X125771009Y-95321904D02*
X125818628Y-95226666D01*
X125818628Y-95226666D02*
X125818628Y-94845714D01*
X126294819Y-96369523D02*
X126294819Y-95798095D01*
X126294819Y-96083809D02*
X125294819Y-96083809D01*
X125294819Y-96083809D02*
X125437676Y-95988571D01*
X125437676Y-95988571D02*
X125532914Y-95893333D01*
X125532914Y-95893333D02*
X125580533Y-95798095D01*
X126294819Y-96845714D02*
X126294819Y-97036190D01*
X126294819Y-97036190D02*
X126247200Y-97131428D01*
X126247200Y-97131428D02*
X126199580Y-97179047D01*
X126199580Y-97179047D02*
X126056723Y-97274285D01*
X126056723Y-97274285D02*
X125866247Y-97321904D01*
X125866247Y-97321904D02*
X125485295Y-97321904D01*
X125485295Y-97321904D02*
X125390057Y-97274285D01*
X125390057Y-97274285D02*
X125342438Y-97226666D01*
X125342438Y-97226666D02*
X125294819Y-97131428D01*
X125294819Y-97131428D02*
X125294819Y-96940952D01*
X125294819Y-96940952D02*
X125342438Y-96845714D01*
X125342438Y-96845714D02*
X125390057Y-96798095D01*
X125390057Y-96798095D02*
X125485295Y-96750476D01*
X125485295Y-96750476D02*
X125723390Y-96750476D01*
X125723390Y-96750476D02*
X125818628Y-96798095D01*
X125818628Y-96798095D02*
X125866247Y-96845714D01*
X125866247Y-96845714D02*
X125913866Y-96940952D01*
X125913866Y-96940952D02*
X125913866Y-97131428D01*
X125913866Y-97131428D02*
X125866247Y-97226666D01*
X125866247Y-97226666D02*
X125818628Y-97274285D01*
X125818628Y-97274285D02*
X125723390Y-97321904D01*
X135972857Y-91339580D02*
X136020476Y-91387200D01*
X136020476Y-91387200D02*
X136163333Y-91434819D01*
X136163333Y-91434819D02*
X136258571Y-91434819D01*
X136258571Y-91434819D02*
X136401428Y-91387200D01*
X136401428Y-91387200D02*
X136496666Y-91291961D01*
X136496666Y-91291961D02*
X136544285Y-91196723D01*
X136544285Y-91196723D02*
X136591904Y-91006247D01*
X136591904Y-91006247D02*
X136591904Y-90863390D01*
X136591904Y-90863390D02*
X136544285Y-90672914D01*
X136544285Y-90672914D02*
X136496666Y-90577676D01*
X136496666Y-90577676D02*
X136401428Y-90482438D01*
X136401428Y-90482438D02*
X136258571Y-90434819D01*
X136258571Y-90434819D02*
X136163333Y-90434819D01*
X136163333Y-90434819D02*
X136020476Y-90482438D01*
X136020476Y-90482438D02*
X135972857Y-90530057D01*
X135020476Y-91434819D02*
X135591904Y-91434819D01*
X135306190Y-91434819D02*
X135306190Y-90434819D01*
X135306190Y-90434819D02*
X135401428Y-90577676D01*
X135401428Y-90577676D02*
X135496666Y-90672914D01*
X135496666Y-90672914D02*
X135591904Y-90720533D01*
X134544285Y-91434819D02*
X134353809Y-91434819D01*
X134353809Y-91434819D02*
X134258571Y-91387200D01*
X134258571Y-91387200D02*
X134210952Y-91339580D01*
X134210952Y-91339580D02*
X134115714Y-91196723D01*
X134115714Y-91196723D02*
X134068095Y-91006247D01*
X134068095Y-91006247D02*
X134068095Y-90625295D01*
X134068095Y-90625295D02*
X134115714Y-90530057D01*
X134115714Y-90530057D02*
X134163333Y-90482438D01*
X134163333Y-90482438D02*
X134258571Y-90434819D01*
X134258571Y-90434819D02*
X134449047Y-90434819D01*
X134449047Y-90434819D02*
X134544285Y-90482438D01*
X134544285Y-90482438D02*
X134591904Y-90530057D01*
X134591904Y-90530057D02*
X134639523Y-90625295D01*
X134639523Y-90625295D02*
X134639523Y-90863390D01*
X134639523Y-90863390D02*
X134591904Y-90958628D01*
X134591904Y-90958628D02*
X134544285Y-91006247D01*
X134544285Y-91006247D02*
X134449047Y-91053866D01*
X134449047Y-91053866D02*
X134258571Y-91053866D01*
X134258571Y-91053866D02*
X134163333Y-91006247D01*
X134163333Y-91006247D02*
X134115714Y-90958628D01*
X134115714Y-90958628D02*
X134068095Y-90863390D01*
X163352857Y-88529580D02*
X163400476Y-88577200D01*
X163400476Y-88577200D02*
X163543333Y-88624819D01*
X163543333Y-88624819D02*
X163638571Y-88624819D01*
X163638571Y-88624819D02*
X163781428Y-88577200D01*
X163781428Y-88577200D02*
X163876666Y-88481961D01*
X163876666Y-88481961D02*
X163924285Y-88386723D01*
X163924285Y-88386723D02*
X163971904Y-88196247D01*
X163971904Y-88196247D02*
X163971904Y-88053390D01*
X163971904Y-88053390D02*
X163924285Y-87862914D01*
X163924285Y-87862914D02*
X163876666Y-87767676D01*
X163876666Y-87767676D02*
X163781428Y-87672438D01*
X163781428Y-87672438D02*
X163638571Y-87624819D01*
X163638571Y-87624819D02*
X163543333Y-87624819D01*
X163543333Y-87624819D02*
X163400476Y-87672438D01*
X163400476Y-87672438D02*
X163352857Y-87720057D01*
X163019523Y-87624819D02*
X162400476Y-87624819D01*
X162400476Y-87624819D02*
X162733809Y-88005771D01*
X162733809Y-88005771D02*
X162590952Y-88005771D01*
X162590952Y-88005771D02*
X162495714Y-88053390D01*
X162495714Y-88053390D02*
X162448095Y-88101009D01*
X162448095Y-88101009D02*
X162400476Y-88196247D01*
X162400476Y-88196247D02*
X162400476Y-88434342D01*
X162400476Y-88434342D02*
X162448095Y-88529580D01*
X162448095Y-88529580D02*
X162495714Y-88577200D01*
X162495714Y-88577200D02*
X162590952Y-88624819D01*
X162590952Y-88624819D02*
X162876666Y-88624819D01*
X162876666Y-88624819D02*
X162971904Y-88577200D01*
X162971904Y-88577200D02*
X163019523Y-88529580D01*
X162019523Y-87720057D02*
X161971904Y-87672438D01*
X161971904Y-87672438D02*
X161876666Y-87624819D01*
X161876666Y-87624819D02*
X161638571Y-87624819D01*
X161638571Y-87624819D02*
X161543333Y-87672438D01*
X161543333Y-87672438D02*
X161495714Y-87720057D01*
X161495714Y-87720057D02*
X161448095Y-87815295D01*
X161448095Y-87815295D02*
X161448095Y-87910533D01*
X161448095Y-87910533D02*
X161495714Y-88053390D01*
X161495714Y-88053390D02*
X162067142Y-88624819D01*
X162067142Y-88624819D02*
X161448095Y-88624819D01*
X141742857Y-98369580D02*
X141790476Y-98417200D01*
X141790476Y-98417200D02*
X141933333Y-98464819D01*
X141933333Y-98464819D02*
X142028571Y-98464819D01*
X142028571Y-98464819D02*
X142171428Y-98417200D01*
X142171428Y-98417200D02*
X142266666Y-98321961D01*
X142266666Y-98321961D02*
X142314285Y-98226723D01*
X142314285Y-98226723D02*
X142361904Y-98036247D01*
X142361904Y-98036247D02*
X142361904Y-97893390D01*
X142361904Y-97893390D02*
X142314285Y-97702914D01*
X142314285Y-97702914D02*
X142266666Y-97607676D01*
X142266666Y-97607676D02*
X142171428Y-97512438D01*
X142171428Y-97512438D02*
X142028571Y-97464819D01*
X142028571Y-97464819D02*
X141933333Y-97464819D01*
X141933333Y-97464819D02*
X141790476Y-97512438D01*
X141790476Y-97512438D02*
X141742857Y-97560057D01*
X140790476Y-98464819D02*
X141361904Y-98464819D01*
X141076190Y-98464819D02*
X141076190Y-97464819D01*
X141076190Y-97464819D02*
X141171428Y-97607676D01*
X141171428Y-97607676D02*
X141266666Y-97702914D01*
X141266666Y-97702914D02*
X141361904Y-97750533D01*
X140219047Y-97893390D02*
X140314285Y-97845771D01*
X140314285Y-97845771D02*
X140361904Y-97798152D01*
X140361904Y-97798152D02*
X140409523Y-97702914D01*
X140409523Y-97702914D02*
X140409523Y-97655295D01*
X140409523Y-97655295D02*
X140361904Y-97560057D01*
X140361904Y-97560057D02*
X140314285Y-97512438D01*
X140314285Y-97512438D02*
X140219047Y-97464819D01*
X140219047Y-97464819D02*
X140028571Y-97464819D01*
X140028571Y-97464819D02*
X139933333Y-97512438D01*
X139933333Y-97512438D02*
X139885714Y-97560057D01*
X139885714Y-97560057D02*
X139838095Y-97655295D01*
X139838095Y-97655295D02*
X139838095Y-97702914D01*
X139838095Y-97702914D02*
X139885714Y-97798152D01*
X139885714Y-97798152D02*
X139933333Y-97845771D01*
X139933333Y-97845771D02*
X140028571Y-97893390D01*
X140028571Y-97893390D02*
X140219047Y-97893390D01*
X140219047Y-97893390D02*
X140314285Y-97941009D01*
X140314285Y-97941009D02*
X140361904Y-97988628D01*
X140361904Y-97988628D02*
X140409523Y-98083866D01*
X140409523Y-98083866D02*
X140409523Y-98274342D01*
X140409523Y-98274342D02*
X140361904Y-98369580D01*
X140361904Y-98369580D02*
X140314285Y-98417200D01*
X140314285Y-98417200D02*
X140219047Y-98464819D01*
X140219047Y-98464819D02*
X140028571Y-98464819D01*
X140028571Y-98464819D02*
X139933333Y-98417200D01*
X139933333Y-98417200D02*
X139885714Y-98369580D01*
X139885714Y-98369580D02*
X139838095Y-98274342D01*
X139838095Y-98274342D02*
X139838095Y-98083866D01*
X139838095Y-98083866D02*
X139885714Y-97988628D01*
X139885714Y-97988628D02*
X139933333Y-97941009D01*
X139933333Y-97941009D02*
X140028571Y-97893390D01*
X123379580Y-87378913D02*
X123427200Y-87331294D01*
X123427200Y-87331294D02*
X123474819Y-87188437D01*
X123474819Y-87188437D02*
X123474819Y-87093199D01*
X123474819Y-87093199D02*
X123427200Y-86950342D01*
X123427200Y-86950342D02*
X123331961Y-86855104D01*
X123331961Y-86855104D02*
X123236723Y-86807485D01*
X123236723Y-86807485D02*
X123046247Y-86759866D01*
X123046247Y-86759866D02*
X122903390Y-86759866D01*
X122903390Y-86759866D02*
X122712914Y-86807485D01*
X122712914Y-86807485D02*
X122617676Y-86855104D01*
X122617676Y-86855104D02*
X122522438Y-86950342D01*
X122522438Y-86950342D02*
X122474819Y-87093199D01*
X122474819Y-87093199D02*
X122474819Y-87188437D01*
X122474819Y-87188437D02*
X122522438Y-87331294D01*
X122522438Y-87331294D02*
X122570057Y-87378913D01*
X123474819Y-88331294D02*
X123474819Y-87759866D01*
X123474819Y-88045580D02*
X122474819Y-88045580D01*
X122474819Y-88045580D02*
X122617676Y-87950342D01*
X122617676Y-87950342D02*
X122712914Y-87855104D01*
X122712914Y-87855104D02*
X122760533Y-87759866D01*
X144642857Y-89959580D02*
X144690476Y-90007200D01*
X144690476Y-90007200D02*
X144833333Y-90054819D01*
X144833333Y-90054819D02*
X144928571Y-90054819D01*
X144928571Y-90054819D02*
X145071428Y-90007200D01*
X145071428Y-90007200D02*
X145166666Y-89911961D01*
X145166666Y-89911961D02*
X145214285Y-89816723D01*
X145214285Y-89816723D02*
X145261904Y-89626247D01*
X145261904Y-89626247D02*
X145261904Y-89483390D01*
X145261904Y-89483390D02*
X145214285Y-89292914D01*
X145214285Y-89292914D02*
X145166666Y-89197676D01*
X145166666Y-89197676D02*
X145071428Y-89102438D01*
X145071428Y-89102438D02*
X144928571Y-89054819D01*
X144928571Y-89054819D02*
X144833333Y-89054819D01*
X144833333Y-89054819D02*
X144690476Y-89102438D01*
X144690476Y-89102438D02*
X144642857Y-89150057D01*
X144261904Y-89150057D02*
X144214285Y-89102438D01*
X144214285Y-89102438D02*
X144119047Y-89054819D01*
X144119047Y-89054819D02*
X143880952Y-89054819D01*
X143880952Y-89054819D02*
X143785714Y-89102438D01*
X143785714Y-89102438D02*
X143738095Y-89150057D01*
X143738095Y-89150057D02*
X143690476Y-89245295D01*
X143690476Y-89245295D02*
X143690476Y-89340533D01*
X143690476Y-89340533D02*
X143738095Y-89483390D01*
X143738095Y-89483390D02*
X144309523Y-90054819D01*
X144309523Y-90054819D02*
X143690476Y-90054819D01*
X143357142Y-89054819D02*
X142738095Y-89054819D01*
X142738095Y-89054819D02*
X143071428Y-89435771D01*
X143071428Y-89435771D02*
X142928571Y-89435771D01*
X142928571Y-89435771D02*
X142833333Y-89483390D01*
X142833333Y-89483390D02*
X142785714Y-89531009D01*
X142785714Y-89531009D02*
X142738095Y-89626247D01*
X142738095Y-89626247D02*
X142738095Y-89864342D01*
X142738095Y-89864342D02*
X142785714Y-89959580D01*
X142785714Y-89959580D02*
X142833333Y-90007200D01*
X142833333Y-90007200D02*
X142928571Y-90054819D01*
X142928571Y-90054819D02*
X143214285Y-90054819D01*
X143214285Y-90054819D02*
X143309523Y-90007200D01*
X143309523Y-90007200D02*
X143357142Y-89959580D01*
X149172857Y-110909580D02*
X149220476Y-110957200D01*
X149220476Y-110957200D02*
X149363333Y-111004819D01*
X149363333Y-111004819D02*
X149458571Y-111004819D01*
X149458571Y-111004819D02*
X149601428Y-110957200D01*
X149601428Y-110957200D02*
X149696666Y-110861961D01*
X149696666Y-110861961D02*
X149744285Y-110766723D01*
X149744285Y-110766723D02*
X149791904Y-110576247D01*
X149791904Y-110576247D02*
X149791904Y-110433390D01*
X149791904Y-110433390D02*
X149744285Y-110242914D01*
X149744285Y-110242914D02*
X149696666Y-110147676D01*
X149696666Y-110147676D02*
X149601428Y-110052438D01*
X149601428Y-110052438D02*
X149458571Y-110004819D01*
X149458571Y-110004819D02*
X149363333Y-110004819D01*
X149363333Y-110004819D02*
X149220476Y-110052438D01*
X149220476Y-110052438D02*
X149172857Y-110100057D01*
X148268095Y-110004819D02*
X148744285Y-110004819D01*
X148744285Y-110004819D02*
X148791904Y-110481009D01*
X148791904Y-110481009D02*
X148744285Y-110433390D01*
X148744285Y-110433390D02*
X148649047Y-110385771D01*
X148649047Y-110385771D02*
X148410952Y-110385771D01*
X148410952Y-110385771D02*
X148315714Y-110433390D01*
X148315714Y-110433390D02*
X148268095Y-110481009D01*
X148268095Y-110481009D02*
X148220476Y-110576247D01*
X148220476Y-110576247D02*
X148220476Y-110814342D01*
X148220476Y-110814342D02*
X148268095Y-110909580D01*
X148268095Y-110909580D02*
X148315714Y-110957200D01*
X148315714Y-110957200D02*
X148410952Y-111004819D01*
X148410952Y-111004819D02*
X148649047Y-111004819D01*
X148649047Y-111004819D02*
X148744285Y-110957200D01*
X148744285Y-110957200D02*
X148791904Y-110909580D01*
X147601428Y-110004819D02*
X147506190Y-110004819D01*
X147506190Y-110004819D02*
X147410952Y-110052438D01*
X147410952Y-110052438D02*
X147363333Y-110100057D01*
X147363333Y-110100057D02*
X147315714Y-110195295D01*
X147315714Y-110195295D02*
X147268095Y-110385771D01*
X147268095Y-110385771D02*
X147268095Y-110623866D01*
X147268095Y-110623866D02*
X147315714Y-110814342D01*
X147315714Y-110814342D02*
X147363333Y-110909580D01*
X147363333Y-110909580D02*
X147410952Y-110957200D01*
X147410952Y-110957200D02*
X147506190Y-111004819D01*
X147506190Y-111004819D02*
X147601428Y-111004819D01*
X147601428Y-111004819D02*
X147696666Y-110957200D01*
X147696666Y-110957200D02*
X147744285Y-110909580D01*
X147744285Y-110909580D02*
X147791904Y-110814342D01*
X147791904Y-110814342D02*
X147839523Y-110623866D01*
X147839523Y-110623866D02*
X147839523Y-110385771D01*
X147839523Y-110385771D02*
X147791904Y-110195295D01*
X147791904Y-110195295D02*
X147744285Y-110100057D01*
X147744285Y-110100057D02*
X147696666Y-110052438D01*
X147696666Y-110052438D02*
X147601428Y-110004819D01*
X154707857Y-85609580D02*
X154755476Y-85657200D01*
X154755476Y-85657200D02*
X154898333Y-85704819D01*
X154898333Y-85704819D02*
X154993571Y-85704819D01*
X154993571Y-85704819D02*
X155136428Y-85657200D01*
X155136428Y-85657200D02*
X155231666Y-85561961D01*
X155231666Y-85561961D02*
X155279285Y-85466723D01*
X155279285Y-85466723D02*
X155326904Y-85276247D01*
X155326904Y-85276247D02*
X155326904Y-85133390D01*
X155326904Y-85133390D02*
X155279285Y-84942914D01*
X155279285Y-84942914D02*
X155231666Y-84847676D01*
X155231666Y-84847676D02*
X155136428Y-84752438D01*
X155136428Y-84752438D02*
X154993571Y-84704819D01*
X154993571Y-84704819D02*
X154898333Y-84704819D01*
X154898333Y-84704819D02*
X154755476Y-84752438D01*
X154755476Y-84752438D02*
X154707857Y-84800057D01*
X153850714Y-84704819D02*
X154041190Y-84704819D01*
X154041190Y-84704819D02*
X154136428Y-84752438D01*
X154136428Y-84752438D02*
X154184047Y-84800057D01*
X154184047Y-84800057D02*
X154279285Y-84942914D01*
X154279285Y-84942914D02*
X154326904Y-85133390D01*
X154326904Y-85133390D02*
X154326904Y-85514342D01*
X154326904Y-85514342D02*
X154279285Y-85609580D01*
X154279285Y-85609580D02*
X154231666Y-85657200D01*
X154231666Y-85657200D02*
X154136428Y-85704819D01*
X154136428Y-85704819D02*
X153945952Y-85704819D01*
X153945952Y-85704819D02*
X153850714Y-85657200D01*
X153850714Y-85657200D02*
X153803095Y-85609580D01*
X153803095Y-85609580D02*
X153755476Y-85514342D01*
X153755476Y-85514342D02*
X153755476Y-85276247D01*
X153755476Y-85276247D02*
X153803095Y-85181009D01*
X153803095Y-85181009D02*
X153850714Y-85133390D01*
X153850714Y-85133390D02*
X153945952Y-85085771D01*
X153945952Y-85085771D02*
X154136428Y-85085771D01*
X154136428Y-85085771D02*
X154231666Y-85133390D01*
X154231666Y-85133390D02*
X154279285Y-85181009D01*
X154279285Y-85181009D02*
X154326904Y-85276247D01*
X153422142Y-84704819D02*
X152803095Y-84704819D01*
X152803095Y-84704819D02*
X153136428Y-85085771D01*
X153136428Y-85085771D02*
X152993571Y-85085771D01*
X152993571Y-85085771D02*
X152898333Y-85133390D01*
X152898333Y-85133390D02*
X152850714Y-85181009D01*
X152850714Y-85181009D02*
X152803095Y-85276247D01*
X152803095Y-85276247D02*
X152803095Y-85514342D01*
X152803095Y-85514342D02*
X152850714Y-85609580D01*
X152850714Y-85609580D02*
X152898333Y-85657200D01*
X152898333Y-85657200D02*
X152993571Y-85704819D01*
X152993571Y-85704819D02*
X153279285Y-85704819D01*
X153279285Y-85704819D02*
X153374523Y-85657200D01*
X153374523Y-85657200D02*
X153422142Y-85609580D01*
D11*
X168421428Y-120134809D02*
X168588094Y-119896714D01*
X168707142Y-120134809D02*
X168707142Y-119634809D01*
X168707142Y-119634809D02*
X168516666Y-119634809D01*
X168516666Y-119634809D02*
X168469047Y-119658619D01*
X168469047Y-119658619D02*
X168445237Y-119682428D01*
X168445237Y-119682428D02*
X168421428Y-119730047D01*
X168421428Y-119730047D02*
X168421428Y-119801476D01*
X168421428Y-119801476D02*
X168445237Y-119849095D01*
X168445237Y-119849095D02*
X168469047Y-119872904D01*
X168469047Y-119872904D02*
X168516666Y-119896714D01*
X168516666Y-119896714D02*
X168707142Y-119896714D01*
X168254761Y-119634809D02*
X167945237Y-119634809D01*
X167945237Y-119634809D02*
X168111904Y-119825285D01*
X168111904Y-119825285D02*
X168040475Y-119825285D01*
X168040475Y-119825285D02*
X167992856Y-119849095D01*
X167992856Y-119849095D02*
X167969047Y-119872904D01*
X167969047Y-119872904D02*
X167945237Y-119920523D01*
X167945237Y-119920523D02*
X167945237Y-120039571D01*
X167945237Y-120039571D02*
X167969047Y-120087190D01*
X167969047Y-120087190D02*
X167992856Y-120111000D01*
X167992856Y-120111000D02*
X168040475Y-120134809D01*
X168040475Y-120134809D02*
X168183332Y-120134809D01*
X168183332Y-120134809D02*
X168230951Y-120111000D01*
X168230951Y-120111000D02*
X168254761Y-120087190D01*
X167516666Y-119801476D02*
X167516666Y-120134809D01*
X167635714Y-119611000D02*
X167754761Y-119968142D01*
X167754761Y-119968142D02*
X167445238Y-119968142D01*
D10*
X154687857Y-87099580D02*
X154735476Y-87147200D01*
X154735476Y-87147200D02*
X154878333Y-87194819D01*
X154878333Y-87194819D02*
X154973571Y-87194819D01*
X154973571Y-87194819D02*
X155116428Y-87147200D01*
X155116428Y-87147200D02*
X155211666Y-87051961D01*
X155211666Y-87051961D02*
X155259285Y-86956723D01*
X155259285Y-86956723D02*
X155306904Y-86766247D01*
X155306904Y-86766247D02*
X155306904Y-86623390D01*
X155306904Y-86623390D02*
X155259285Y-86432914D01*
X155259285Y-86432914D02*
X155211666Y-86337676D01*
X155211666Y-86337676D02*
X155116428Y-86242438D01*
X155116428Y-86242438D02*
X154973571Y-86194819D01*
X154973571Y-86194819D02*
X154878333Y-86194819D01*
X154878333Y-86194819D02*
X154735476Y-86242438D01*
X154735476Y-86242438D02*
X154687857Y-86290057D01*
X153830714Y-86528152D02*
X153830714Y-87194819D01*
X154068809Y-86147200D02*
X154306904Y-86861485D01*
X154306904Y-86861485D02*
X153687857Y-86861485D01*
X153164047Y-86623390D02*
X153259285Y-86575771D01*
X153259285Y-86575771D02*
X153306904Y-86528152D01*
X153306904Y-86528152D02*
X153354523Y-86432914D01*
X153354523Y-86432914D02*
X153354523Y-86385295D01*
X153354523Y-86385295D02*
X153306904Y-86290057D01*
X153306904Y-86290057D02*
X153259285Y-86242438D01*
X153259285Y-86242438D02*
X153164047Y-86194819D01*
X153164047Y-86194819D02*
X152973571Y-86194819D01*
X152973571Y-86194819D02*
X152878333Y-86242438D01*
X152878333Y-86242438D02*
X152830714Y-86290057D01*
X152830714Y-86290057D02*
X152783095Y-86385295D01*
X152783095Y-86385295D02*
X152783095Y-86432914D01*
X152783095Y-86432914D02*
X152830714Y-86528152D01*
X152830714Y-86528152D02*
X152878333Y-86575771D01*
X152878333Y-86575771D02*
X152973571Y-86623390D01*
X152973571Y-86623390D02*
X153164047Y-86623390D01*
X153164047Y-86623390D02*
X153259285Y-86671009D01*
X153259285Y-86671009D02*
X153306904Y-86718628D01*
X153306904Y-86718628D02*
X153354523Y-86813866D01*
X153354523Y-86813866D02*
X153354523Y-87004342D01*
X153354523Y-87004342D02*
X153306904Y-87099580D01*
X153306904Y-87099580D02*
X153259285Y-87147200D01*
X153259285Y-87147200D02*
X153164047Y-87194819D01*
X153164047Y-87194819D02*
X152973571Y-87194819D01*
X152973571Y-87194819D02*
X152878333Y-87147200D01*
X152878333Y-87147200D02*
X152830714Y-87099580D01*
X152830714Y-87099580D02*
X152783095Y-87004342D01*
X152783095Y-87004342D02*
X152783095Y-86813866D01*
X152783095Y-86813866D02*
X152830714Y-86718628D01*
X152830714Y-86718628D02*
X152878333Y-86671009D01*
X152878333Y-86671009D02*
X152973571Y-86623390D01*
X171286666Y-85514819D02*
X170715238Y-85514819D01*
X171000952Y-86514819D02*
X171000952Y-85514819D01*
X170381904Y-86514819D02*
X170381904Y-85514819D01*
X170381904Y-85514819D02*
X170000952Y-85514819D01*
X170000952Y-85514819D02*
X169905714Y-85562438D01*
X169905714Y-85562438D02*
X169858095Y-85610057D01*
X169858095Y-85610057D02*
X169810476Y-85705295D01*
X169810476Y-85705295D02*
X169810476Y-85848152D01*
X169810476Y-85848152D02*
X169858095Y-85943390D01*
X169858095Y-85943390D02*
X169905714Y-85991009D01*
X169905714Y-85991009D02*
X170000952Y-86038628D01*
X170000952Y-86038628D02*
X170381904Y-86038628D01*
X168905714Y-85514819D02*
X169381904Y-85514819D01*
X169381904Y-85514819D02*
X169429523Y-85991009D01*
X169429523Y-85991009D02*
X169381904Y-85943390D01*
X169381904Y-85943390D02*
X169286666Y-85895771D01*
X169286666Y-85895771D02*
X169048571Y-85895771D01*
X169048571Y-85895771D02*
X168953333Y-85943390D01*
X168953333Y-85943390D02*
X168905714Y-85991009D01*
X168905714Y-85991009D02*
X168858095Y-86086247D01*
X168858095Y-86086247D02*
X168858095Y-86324342D01*
X168858095Y-86324342D02*
X168905714Y-86419580D01*
X168905714Y-86419580D02*
X168953333Y-86467200D01*
X168953333Y-86467200D02*
X169048571Y-86514819D01*
X169048571Y-86514819D02*
X169286666Y-86514819D01*
X169286666Y-86514819D02*
X169381904Y-86467200D01*
X169381904Y-86467200D02*
X169429523Y-86419580D01*
X168572380Y-85514819D02*
X168239047Y-86514819D01*
X168239047Y-86514819D02*
X167905714Y-85514819D01*
X167381904Y-85514819D02*
X167286666Y-85514819D01*
X167286666Y-85514819D02*
X167191428Y-85562438D01*
X167191428Y-85562438D02*
X167143809Y-85610057D01*
X167143809Y-85610057D02*
X167096190Y-85705295D01*
X167096190Y-85705295D02*
X167048571Y-85895771D01*
X167048571Y-85895771D02*
X167048571Y-86133866D01*
X167048571Y-86133866D02*
X167096190Y-86324342D01*
X167096190Y-86324342D02*
X167143809Y-86419580D01*
X167143809Y-86419580D02*
X167191428Y-86467200D01*
X167191428Y-86467200D02*
X167286666Y-86514819D01*
X167286666Y-86514819D02*
X167381904Y-86514819D01*
X167381904Y-86514819D02*
X167477142Y-86467200D01*
X167477142Y-86467200D02*
X167524761Y-86419580D01*
X167524761Y-86419580D02*
X167572380Y-86324342D01*
X167572380Y-86324342D02*
X167619999Y-86133866D01*
X167619999Y-86133866D02*
X167619999Y-85895771D01*
X167619999Y-85895771D02*
X167572380Y-85705295D01*
X167572380Y-85705295D02*
X167524761Y-85610057D01*
X167524761Y-85610057D02*
X167477142Y-85562438D01*
X167477142Y-85562438D02*
X167381904Y-85514819D01*
X157912857Y-110899580D02*
X157960476Y-110947200D01*
X157960476Y-110947200D02*
X158103333Y-110994819D01*
X158103333Y-110994819D02*
X158198571Y-110994819D01*
X158198571Y-110994819D02*
X158341428Y-110947200D01*
X158341428Y-110947200D02*
X158436666Y-110851961D01*
X158436666Y-110851961D02*
X158484285Y-110756723D01*
X158484285Y-110756723D02*
X158531904Y-110566247D01*
X158531904Y-110566247D02*
X158531904Y-110423390D01*
X158531904Y-110423390D02*
X158484285Y-110232914D01*
X158484285Y-110232914D02*
X158436666Y-110137676D01*
X158436666Y-110137676D02*
X158341428Y-110042438D01*
X158341428Y-110042438D02*
X158198571Y-109994819D01*
X158198571Y-109994819D02*
X158103333Y-109994819D01*
X158103333Y-109994819D02*
X157960476Y-110042438D01*
X157960476Y-110042438D02*
X157912857Y-110090057D01*
X157008095Y-109994819D02*
X157484285Y-109994819D01*
X157484285Y-109994819D02*
X157531904Y-110471009D01*
X157531904Y-110471009D02*
X157484285Y-110423390D01*
X157484285Y-110423390D02*
X157389047Y-110375771D01*
X157389047Y-110375771D02*
X157150952Y-110375771D01*
X157150952Y-110375771D02*
X157055714Y-110423390D01*
X157055714Y-110423390D02*
X157008095Y-110471009D01*
X157008095Y-110471009D02*
X156960476Y-110566247D01*
X156960476Y-110566247D02*
X156960476Y-110804342D01*
X156960476Y-110804342D02*
X157008095Y-110899580D01*
X157008095Y-110899580D02*
X157055714Y-110947200D01*
X157055714Y-110947200D02*
X157150952Y-110994819D01*
X157150952Y-110994819D02*
X157389047Y-110994819D01*
X157389047Y-110994819D02*
X157484285Y-110947200D01*
X157484285Y-110947200D02*
X157531904Y-110899580D01*
X156103333Y-110328152D02*
X156103333Y-110994819D01*
X156341428Y-109947200D02*
X156579523Y-110661485D01*
X156579523Y-110661485D02*
X155960476Y-110661485D01*
X149172857Y-112369580D02*
X149220476Y-112417200D01*
X149220476Y-112417200D02*
X149363333Y-112464819D01*
X149363333Y-112464819D02*
X149458571Y-112464819D01*
X149458571Y-112464819D02*
X149601428Y-112417200D01*
X149601428Y-112417200D02*
X149696666Y-112321961D01*
X149696666Y-112321961D02*
X149744285Y-112226723D01*
X149744285Y-112226723D02*
X149791904Y-112036247D01*
X149791904Y-112036247D02*
X149791904Y-111893390D01*
X149791904Y-111893390D02*
X149744285Y-111702914D01*
X149744285Y-111702914D02*
X149696666Y-111607676D01*
X149696666Y-111607676D02*
X149601428Y-111512438D01*
X149601428Y-111512438D02*
X149458571Y-111464819D01*
X149458571Y-111464819D02*
X149363333Y-111464819D01*
X149363333Y-111464819D02*
X149220476Y-111512438D01*
X149220476Y-111512438D02*
X149172857Y-111560057D01*
X148268095Y-111464819D02*
X148744285Y-111464819D01*
X148744285Y-111464819D02*
X148791904Y-111941009D01*
X148791904Y-111941009D02*
X148744285Y-111893390D01*
X148744285Y-111893390D02*
X148649047Y-111845771D01*
X148649047Y-111845771D02*
X148410952Y-111845771D01*
X148410952Y-111845771D02*
X148315714Y-111893390D01*
X148315714Y-111893390D02*
X148268095Y-111941009D01*
X148268095Y-111941009D02*
X148220476Y-112036247D01*
X148220476Y-112036247D02*
X148220476Y-112274342D01*
X148220476Y-112274342D02*
X148268095Y-112369580D01*
X148268095Y-112369580D02*
X148315714Y-112417200D01*
X148315714Y-112417200D02*
X148410952Y-112464819D01*
X148410952Y-112464819D02*
X148649047Y-112464819D01*
X148649047Y-112464819D02*
X148744285Y-112417200D01*
X148744285Y-112417200D02*
X148791904Y-112369580D01*
X147268095Y-112464819D02*
X147839523Y-112464819D01*
X147553809Y-112464819D02*
X147553809Y-111464819D01*
X147553809Y-111464819D02*
X147649047Y-111607676D01*
X147649047Y-111607676D02*
X147744285Y-111702914D01*
X147744285Y-111702914D02*
X147839523Y-111750533D01*
X135972857Y-94309580D02*
X136020476Y-94357200D01*
X136020476Y-94357200D02*
X136163333Y-94404819D01*
X136163333Y-94404819D02*
X136258571Y-94404819D01*
X136258571Y-94404819D02*
X136401428Y-94357200D01*
X136401428Y-94357200D02*
X136496666Y-94261961D01*
X136496666Y-94261961D02*
X136544285Y-94166723D01*
X136544285Y-94166723D02*
X136591904Y-93976247D01*
X136591904Y-93976247D02*
X136591904Y-93833390D01*
X136591904Y-93833390D02*
X136544285Y-93642914D01*
X136544285Y-93642914D02*
X136496666Y-93547676D01*
X136496666Y-93547676D02*
X136401428Y-93452438D01*
X136401428Y-93452438D02*
X136258571Y-93404819D01*
X136258571Y-93404819D02*
X136163333Y-93404819D01*
X136163333Y-93404819D02*
X136020476Y-93452438D01*
X136020476Y-93452438D02*
X135972857Y-93500057D01*
X135591904Y-93500057D02*
X135544285Y-93452438D01*
X135544285Y-93452438D02*
X135449047Y-93404819D01*
X135449047Y-93404819D02*
X135210952Y-93404819D01*
X135210952Y-93404819D02*
X135115714Y-93452438D01*
X135115714Y-93452438D02*
X135068095Y-93500057D01*
X135068095Y-93500057D02*
X135020476Y-93595295D01*
X135020476Y-93595295D02*
X135020476Y-93690533D01*
X135020476Y-93690533D02*
X135068095Y-93833390D01*
X135068095Y-93833390D02*
X135639523Y-94404819D01*
X135639523Y-94404819D02*
X135020476Y-94404819D01*
X134068095Y-94404819D02*
X134639523Y-94404819D01*
X134353809Y-94404819D02*
X134353809Y-93404819D01*
X134353809Y-93404819D02*
X134449047Y-93547676D01*
X134449047Y-93547676D02*
X134544285Y-93642914D01*
X134544285Y-93642914D02*
X134639523Y-93690533D01*
X150562857Y-95769580D02*
X150610476Y-95817200D01*
X150610476Y-95817200D02*
X150753333Y-95864819D01*
X150753333Y-95864819D02*
X150848571Y-95864819D01*
X150848571Y-95864819D02*
X150991428Y-95817200D01*
X150991428Y-95817200D02*
X151086666Y-95721961D01*
X151086666Y-95721961D02*
X151134285Y-95626723D01*
X151134285Y-95626723D02*
X151181904Y-95436247D01*
X151181904Y-95436247D02*
X151181904Y-95293390D01*
X151181904Y-95293390D02*
X151134285Y-95102914D01*
X151134285Y-95102914D02*
X151086666Y-95007676D01*
X151086666Y-95007676D02*
X150991428Y-94912438D01*
X150991428Y-94912438D02*
X150848571Y-94864819D01*
X150848571Y-94864819D02*
X150753333Y-94864819D01*
X150753333Y-94864819D02*
X150610476Y-94912438D01*
X150610476Y-94912438D02*
X150562857Y-94960057D01*
X150181904Y-94960057D02*
X150134285Y-94912438D01*
X150134285Y-94912438D02*
X150039047Y-94864819D01*
X150039047Y-94864819D02*
X149800952Y-94864819D01*
X149800952Y-94864819D02*
X149705714Y-94912438D01*
X149705714Y-94912438D02*
X149658095Y-94960057D01*
X149658095Y-94960057D02*
X149610476Y-95055295D01*
X149610476Y-95055295D02*
X149610476Y-95150533D01*
X149610476Y-95150533D02*
X149658095Y-95293390D01*
X149658095Y-95293390D02*
X150229523Y-95864819D01*
X150229523Y-95864819D02*
X149610476Y-95864819D01*
X149134285Y-95864819D02*
X148943809Y-95864819D01*
X148943809Y-95864819D02*
X148848571Y-95817200D01*
X148848571Y-95817200D02*
X148800952Y-95769580D01*
X148800952Y-95769580D02*
X148705714Y-95626723D01*
X148705714Y-95626723D02*
X148658095Y-95436247D01*
X148658095Y-95436247D02*
X148658095Y-95055295D01*
X148658095Y-95055295D02*
X148705714Y-94960057D01*
X148705714Y-94960057D02*
X148753333Y-94912438D01*
X148753333Y-94912438D02*
X148848571Y-94864819D01*
X148848571Y-94864819D02*
X149039047Y-94864819D01*
X149039047Y-94864819D02*
X149134285Y-94912438D01*
X149134285Y-94912438D02*
X149181904Y-94960057D01*
X149181904Y-94960057D02*
X149229523Y-95055295D01*
X149229523Y-95055295D02*
X149229523Y-95293390D01*
X149229523Y-95293390D02*
X149181904Y-95388628D01*
X149181904Y-95388628D02*
X149134285Y-95436247D01*
X149134285Y-95436247D02*
X149039047Y-95483866D01*
X149039047Y-95483866D02*
X148848571Y-95483866D01*
X148848571Y-95483866D02*
X148753333Y-95436247D01*
X148753333Y-95436247D02*
X148705714Y-95388628D01*
X148705714Y-95388628D02*
X148658095Y-95293390D01*
X163417857Y-85599580D02*
X163465476Y-85647200D01*
X163465476Y-85647200D02*
X163608333Y-85694819D01*
X163608333Y-85694819D02*
X163703571Y-85694819D01*
X163703571Y-85694819D02*
X163846428Y-85647200D01*
X163846428Y-85647200D02*
X163941666Y-85551961D01*
X163941666Y-85551961D02*
X163989285Y-85456723D01*
X163989285Y-85456723D02*
X164036904Y-85266247D01*
X164036904Y-85266247D02*
X164036904Y-85123390D01*
X164036904Y-85123390D02*
X163989285Y-84932914D01*
X163989285Y-84932914D02*
X163941666Y-84837676D01*
X163941666Y-84837676D02*
X163846428Y-84742438D01*
X163846428Y-84742438D02*
X163703571Y-84694819D01*
X163703571Y-84694819D02*
X163608333Y-84694819D01*
X163608333Y-84694819D02*
X163465476Y-84742438D01*
X163465476Y-84742438D02*
X163417857Y-84790057D01*
X162560714Y-84694819D02*
X162751190Y-84694819D01*
X162751190Y-84694819D02*
X162846428Y-84742438D01*
X162846428Y-84742438D02*
X162894047Y-84790057D01*
X162894047Y-84790057D02*
X162989285Y-84932914D01*
X162989285Y-84932914D02*
X163036904Y-85123390D01*
X163036904Y-85123390D02*
X163036904Y-85504342D01*
X163036904Y-85504342D02*
X162989285Y-85599580D01*
X162989285Y-85599580D02*
X162941666Y-85647200D01*
X162941666Y-85647200D02*
X162846428Y-85694819D01*
X162846428Y-85694819D02*
X162655952Y-85694819D01*
X162655952Y-85694819D02*
X162560714Y-85647200D01*
X162560714Y-85647200D02*
X162513095Y-85599580D01*
X162513095Y-85599580D02*
X162465476Y-85504342D01*
X162465476Y-85504342D02*
X162465476Y-85266247D01*
X162465476Y-85266247D02*
X162513095Y-85171009D01*
X162513095Y-85171009D02*
X162560714Y-85123390D01*
X162560714Y-85123390D02*
X162655952Y-85075771D01*
X162655952Y-85075771D02*
X162846428Y-85075771D01*
X162846428Y-85075771D02*
X162941666Y-85123390D01*
X162941666Y-85123390D02*
X162989285Y-85171009D01*
X162989285Y-85171009D02*
X163036904Y-85266247D01*
X162084523Y-84790057D02*
X162036904Y-84742438D01*
X162036904Y-84742438D02*
X161941666Y-84694819D01*
X161941666Y-84694819D02*
X161703571Y-84694819D01*
X161703571Y-84694819D02*
X161608333Y-84742438D01*
X161608333Y-84742438D02*
X161560714Y-84790057D01*
X161560714Y-84790057D02*
X161513095Y-84885295D01*
X161513095Y-84885295D02*
X161513095Y-84980533D01*
X161513095Y-84980533D02*
X161560714Y-85123390D01*
X161560714Y-85123390D02*
X162132142Y-85694819D01*
X162132142Y-85694819D02*
X161513095Y-85694819D01*
D11*
X168451428Y-121594809D02*
X168618094Y-121356714D01*
X168737142Y-121594809D02*
X168737142Y-121094809D01*
X168737142Y-121094809D02*
X168546666Y-121094809D01*
X168546666Y-121094809D02*
X168499047Y-121118619D01*
X168499047Y-121118619D02*
X168475237Y-121142428D01*
X168475237Y-121142428D02*
X168451428Y-121190047D01*
X168451428Y-121190047D02*
X168451428Y-121261476D01*
X168451428Y-121261476D02*
X168475237Y-121309095D01*
X168475237Y-121309095D02*
X168499047Y-121332904D01*
X168499047Y-121332904D02*
X168546666Y-121356714D01*
X168546666Y-121356714D02*
X168737142Y-121356714D01*
X168284761Y-121094809D02*
X167975237Y-121094809D01*
X167975237Y-121094809D02*
X168141904Y-121285285D01*
X168141904Y-121285285D02*
X168070475Y-121285285D01*
X168070475Y-121285285D02*
X168022856Y-121309095D01*
X168022856Y-121309095D02*
X167999047Y-121332904D01*
X167999047Y-121332904D02*
X167975237Y-121380523D01*
X167975237Y-121380523D02*
X167975237Y-121499571D01*
X167975237Y-121499571D02*
X167999047Y-121547190D01*
X167999047Y-121547190D02*
X168022856Y-121571000D01*
X168022856Y-121571000D02*
X168070475Y-121594809D01*
X168070475Y-121594809D02*
X168213332Y-121594809D01*
X168213332Y-121594809D02*
X168260951Y-121571000D01*
X168260951Y-121571000D02*
X168284761Y-121547190D01*
X167784761Y-121142428D02*
X167760952Y-121118619D01*
X167760952Y-121118619D02*
X167713333Y-121094809D01*
X167713333Y-121094809D02*
X167594285Y-121094809D01*
X167594285Y-121094809D02*
X167546666Y-121118619D01*
X167546666Y-121118619D02*
X167522857Y-121142428D01*
X167522857Y-121142428D02*
X167499047Y-121190047D01*
X167499047Y-121190047D02*
X167499047Y-121237666D01*
X167499047Y-121237666D02*
X167522857Y-121309095D01*
X167522857Y-121309095D02*
X167808571Y-121594809D01*
X167808571Y-121594809D02*
X167499047Y-121594809D01*
D10*
X105766666Y-122919580D02*
X105814285Y-122967200D01*
X105814285Y-122967200D02*
X105957142Y-123014819D01*
X105957142Y-123014819D02*
X106052380Y-123014819D01*
X106052380Y-123014819D02*
X106195237Y-122967200D01*
X106195237Y-122967200D02*
X106290475Y-122871961D01*
X106290475Y-122871961D02*
X106338094Y-122776723D01*
X106338094Y-122776723D02*
X106385713Y-122586247D01*
X106385713Y-122586247D02*
X106385713Y-122443390D01*
X106385713Y-122443390D02*
X106338094Y-122252914D01*
X106338094Y-122252914D02*
X106290475Y-122157676D01*
X106290475Y-122157676D02*
X106195237Y-122062438D01*
X106195237Y-122062438D02*
X106052380Y-122014819D01*
X106052380Y-122014819D02*
X105957142Y-122014819D01*
X105957142Y-122014819D02*
X105814285Y-122062438D01*
X105814285Y-122062438D02*
X105766666Y-122110057D01*
X105433332Y-122014819D02*
X104814285Y-122014819D01*
X104814285Y-122014819D02*
X105147618Y-122395771D01*
X105147618Y-122395771D02*
X105004761Y-122395771D01*
X105004761Y-122395771D02*
X104909523Y-122443390D01*
X104909523Y-122443390D02*
X104861904Y-122491009D01*
X104861904Y-122491009D02*
X104814285Y-122586247D01*
X104814285Y-122586247D02*
X104814285Y-122824342D01*
X104814285Y-122824342D02*
X104861904Y-122919580D01*
X104861904Y-122919580D02*
X104909523Y-122967200D01*
X104909523Y-122967200D02*
X105004761Y-123014819D01*
X105004761Y-123014819D02*
X105290475Y-123014819D01*
X105290475Y-123014819D02*
X105385713Y-122967200D01*
X105385713Y-122967200D02*
X105433332Y-122919580D01*
X124854819Y-96453333D02*
X124854819Y-95977143D01*
X124854819Y-95977143D02*
X123854819Y-95977143D01*
X123854819Y-96691429D02*
X123854819Y-97358095D01*
X123854819Y-97358095D02*
X124854819Y-96929524D01*
X144732857Y-98369580D02*
X144780476Y-98417200D01*
X144780476Y-98417200D02*
X144923333Y-98464819D01*
X144923333Y-98464819D02*
X145018571Y-98464819D01*
X145018571Y-98464819D02*
X145161428Y-98417200D01*
X145161428Y-98417200D02*
X145256666Y-98321961D01*
X145256666Y-98321961D02*
X145304285Y-98226723D01*
X145304285Y-98226723D02*
X145351904Y-98036247D01*
X145351904Y-98036247D02*
X145351904Y-97893390D01*
X145351904Y-97893390D02*
X145304285Y-97702914D01*
X145304285Y-97702914D02*
X145256666Y-97607676D01*
X145256666Y-97607676D02*
X145161428Y-97512438D01*
X145161428Y-97512438D02*
X145018571Y-97464819D01*
X145018571Y-97464819D02*
X144923333Y-97464819D01*
X144923333Y-97464819D02*
X144780476Y-97512438D01*
X144780476Y-97512438D02*
X144732857Y-97560057D01*
X144351904Y-97560057D02*
X144304285Y-97512438D01*
X144304285Y-97512438D02*
X144209047Y-97464819D01*
X144209047Y-97464819D02*
X143970952Y-97464819D01*
X143970952Y-97464819D02*
X143875714Y-97512438D01*
X143875714Y-97512438D02*
X143828095Y-97560057D01*
X143828095Y-97560057D02*
X143780476Y-97655295D01*
X143780476Y-97655295D02*
X143780476Y-97750533D01*
X143780476Y-97750533D02*
X143828095Y-97893390D01*
X143828095Y-97893390D02*
X144399523Y-98464819D01*
X144399523Y-98464819D02*
X143780476Y-98464819D01*
X143209047Y-97893390D02*
X143304285Y-97845771D01*
X143304285Y-97845771D02*
X143351904Y-97798152D01*
X143351904Y-97798152D02*
X143399523Y-97702914D01*
X143399523Y-97702914D02*
X143399523Y-97655295D01*
X143399523Y-97655295D02*
X143351904Y-97560057D01*
X143351904Y-97560057D02*
X143304285Y-97512438D01*
X143304285Y-97512438D02*
X143209047Y-97464819D01*
X143209047Y-97464819D02*
X143018571Y-97464819D01*
X143018571Y-97464819D02*
X142923333Y-97512438D01*
X142923333Y-97512438D02*
X142875714Y-97560057D01*
X142875714Y-97560057D02*
X142828095Y-97655295D01*
X142828095Y-97655295D02*
X142828095Y-97702914D01*
X142828095Y-97702914D02*
X142875714Y-97798152D01*
X142875714Y-97798152D02*
X142923333Y-97845771D01*
X142923333Y-97845771D02*
X143018571Y-97893390D01*
X143018571Y-97893390D02*
X143209047Y-97893390D01*
X143209047Y-97893390D02*
X143304285Y-97941009D01*
X143304285Y-97941009D02*
X143351904Y-97988628D01*
X143351904Y-97988628D02*
X143399523Y-98083866D01*
X143399523Y-98083866D02*
X143399523Y-98274342D01*
X143399523Y-98274342D02*
X143351904Y-98369580D01*
X143351904Y-98369580D02*
X143304285Y-98417200D01*
X143304285Y-98417200D02*
X143209047Y-98464819D01*
X143209047Y-98464819D02*
X143018571Y-98464819D01*
X143018571Y-98464819D02*
X142923333Y-98417200D01*
X142923333Y-98417200D02*
X142875714Y-98369580D01*
X142875714Y-98369580D02*
X142828095Y-98274342D01*
X142828095Y-98274342D02*
X142828095Y-98083866D01*
X142828095Y-98083866D02*
X142875714Y-97988628D01*
X142875714Y-97988628D02*
X142923333Y-97941009D01*
X142923333Y-97941009D02*
X143018571Y-97893390D01*
X124352857Y-90174819D02*
X124686190Y-89698628D01*
X124924285Y-90174819D02*
X124924285Y-89174819D01*
X124924285Y-89174819D02*
X124543333Y-89174819D01*
X124543333Y-89174819D02*
X124448095Y-89222438D01*
X124448095Y-89222438D02*
X124400476Y-89270057D01*
X124400476Y-89270057D02*
X124352857Y-89365295D01*
X124352857Y-89365295D02*
X124352857Y-89508152D01*
X124352857Y-89508152D02*
X124400476Y-89603390D01*
X124400476Y-89603390D02*
X124448095Y-89651009D01*
X124448095Y-89651009D02*
X124543333Y-89698628D01*
X124543333Y-89698628D02*
X124924285Y-89698628D01*
X123495714Y-89508152D02*
X123495714Y-90174819D01*
X123733809Y-89127200D02*
X123971904Y-89841485D01*
X123971904Y-89841485D02*
X123352857Y-89841485D01*
X123067142Y-89174819D02*
X122400476Y-89174819D01*
X122400476Y-89174819D02*
X122829047Y-90174819D01*
X123416666Y-91554819D02*
X123749999Y-91078628D01*
X123988094Y-91554819D02*
X123988094Y-90554819D01*
X123988094Y-90554819D02*
X123607142Y-90554819D01*
X123607142Y-90554819D02*
X123511904Y-90602438D01*
X123511904Y-90602438D02*
X123464285Y-90650057D01*
X123464285Y-90650057D02*
X123416666Y-90745295D01*
X123416666Y-90745295D02*
X123416666Y-90888152D01*
X123416666Y-90888152D02*
X123464285Y-90983390D01*
X123464285Y-90983390D02*
X123511904Y-91031009D01*
X123511904Y-91031009D02*
X123607142Y-91078628D01*
X123607142Y-91078628D02*
X123988094Y-91078628D01*
X123035713Y-90650057D02*
X122988094Y-90602438D01*
X122988094Y-90602438D02*
X122892856Y-90554819D01*
X122892856Y-90554819D02*
X122654761Y-90554819D01*
X122654761Y-90554819D02*
X122559523Y-90602438D01*
X122559523Y-90602438D02*
X122511904Y-90650057D01*
X122511904Y-90650057D02*
X122464285Y-90745295D01*
X122464285Y-90745295D02*
X122464285Y-90840533D01*
X122464285Y-90840533D02*
X122511904Y-90983390D01*
X122511904Y-90983390D02*
X123083332Y-91554819D01*
X123083332Y-91554819D02*
X122464285Y-91554819D01*
X135952857Y-95819580D02*
X136000476Y-95867200D01*
X136000476Y-95867200D02*
X136143333Y-95914819D01*
X136143333Y-95914819D02*
X136238571Y-95914819D01*
X136238571Y-95914819D02*
X136381428Y-95867200D01*
X136381428Y-95867200D02*
X136476666Y-95771961D01*
X136476666Y-95771961D02*
X136524285Y-95676723D01*
X136524285Y-95676723D02*
X136571904Y-95486247D01*
X136571904Y-95486247D02*
X136571904Y-95343390D01*
X136571904Y-95343390D02*
X136524285Y-95152914D01*
X136524285Y-95152914D02*
X136476666Y-95057676D01*
X136476666Y-95057676D02*
X136381428Y-94962438D01*
X136381428Y-94962438D02*
X136238571Y-94914819D01*
X136238571Y-94914819D02*
X136143333Y-94914819D01*
X136143333Y-94914819D02*
X136000476Y-94962438D01*
X136000476Y-94962438D02*
X135952857Y-95010057D01*
X135571904Y-95010057D02*
X135524285Y-94962438D01*
X135524285Y-94962438D02*
X135429047Y-94914819D01*
X135429047Y-94914819D02*
X135190952Y-94914819D01*
X135190952Y-94914819D02*
X135095714Y-94962438D01*
X135095714Y-94962438D02*
X135048095Y-95010057D01*
X135048095Y-95010057D02*
X135000476Y-95105295D01*
X135000476Y-95105295D02*
X135000476Y-95200533D01*
X135000476Y-95200533D02*
X135048095Y-95343390D01*
X135048095Y-95343390D02*
X135619523Y-95914819D01*
X135619523Y-95914819D02*
X135000476Y-95914819D01*
X134619523Y-95010057D02*
X134571904Y-94962438D01*
X134571904Y-94962438D02*
X134476666Y-94914819D01*
X134476666Y-94914819D02*
X134238571Y-94914819D01*
X134238571Y-94914819D02*
X134143333Y-94962438D01*
X134143333Y-94962438D02*
X134095714Y-95010057D01*
X134095714Y-95010057D02*
X134048095Y-95105295D01*
X134048095Y-95105295D02*
X134048095Y-95200533D01*
X134048095Y-95200533D02*
X134095714Y-95343390D01*
X134095714Y-95343390D02*
X134667142Y-95914819D01*
X134667142Y-95914819D02*
X134048095Y-95914819D01*
X105806666Y-110484819D02*
X106139999Y-110008628D01*
X106378094Y-110484819D02*
X106378094Y-109484819D01*
X106378094Y-109484819D02*
X105997142Y-109484819D01*
X105997142Y-109484819D02*
X105901904Y-109532438D01*
X105901904Y-109532438D02*
X105854285Y-109580057D01*
X105854285Y-109580057D02*
X105806666Y-109675295D01*
X105806666Y-109675295D02*
X105806666Y-109818152D01*
X105806666Y-109818152D02*
X105854285Y-109913390D01*
X105854285Y-109913390D02*
X105901904Y-109961009D01*
X105901904Y-109961009D02*
X105997142Y-110008628D01*
X105997142Y-110008628D02*
X106378094Y-110008628D01*
X104854285Y-110484819D02*
X105425713Y-110484819D01*
X105139999Y-110484819D02*
X105139999Y-109484819D01*
X105139999Y-109484819D02*
X105235237Y-109627676D01*
X105235237Y-109627676D02*
X105330475Y-109722914D01*
X105330475Y-109722914D02*
X105425713Y-109770533D01*
X120419580Y-101787142D02*
X120467200Y-101739523D01*
X120467200Y-101739523D02*
X120514819Y-101596666D01*
X120514819Y-101596666D02*
X120514819Y-101501428D01*
X120514819Y-101501428D02*
X120467200Y-101358571D01*
X120467200Y-101358571D02*
X120371961Y-101263333D01*
X120371961Y-101263333D02*
X120276723Y-101215714D01*
X120276723Y-101215714D02*
X120086247Y-101168095D01*
X120086247Y-101168095D02*
X119943390Y-101168095D01*
X119943390Y-101168095D02*
X119752914Y-101215714D01*
X119752914Y-101215714D02*
X119657676Y-101263333D01*
X119657676Y-101263333D02*
X119562438Y-101358571D01*
X119562438Y-101358571D02*
X119514819Y-101501428D01*
X119514819Y-101501428D02*
X119514819Y-101596666D01*
X119514819Y-101596666D02*
X119562438Y-101739523D01*
X119562438Y-101739523D02*
X119610057Y-101787142D01*
X119514819Y-102691904D02*
X119514819Y-102215714D01*
X119514819Y-102215714D02*
X119991009Y-102168095D01*
X119991009Y-102168095D02*
X119943390Y-102215714D01*
X119943390Y-102215714D02*
X119895771Y-102310952D01*
X119895771Y-102310952D02*
X119895771Y-102549047D01*
X119895771Y-102549047D02*
X119943390Y-102644285D01*
X119943390Y-102644285D02*
X119991009Y-102691904D01*
X119991009Y-102691904D02*
X120086247Y-102739523D01*
X120086247Y-102739523D02*
X120324342Y-102739523D01*
X120324342Y-102739523D02*
X120419580Y-102691904D01*
X120419580Y-102691904D02*
X120467200Y-102644285D01*
X120467200Y-102644285D02*
X120514819Y-102549047D01*
X120514819Y-102549047D02*
X120514819Y-102310952D01*
X120514819Y-102310952D02*
X120467200Y-102215714D01*
X120467200Y-102215714D02*
X120419580Y-102168095D01*
X119943390Y-103310952D02*
X119895771Y-103215714D01*
X119895771Y-103215714D02*
X119848152Y-103168095D01*
X119848152Y-103168095D02*
X119752914Y-103120476D01*
X119752914Y-103120476D02*
X119705295Y-103120476D01*
X119705295Y-103120476D02*
X119610057Y-103168095D01*
X119610057Y-103168095D02*
X119562438Y-103215714D01*
X119562438Y-103215714D02*
X119514819Y-103310952D01*
X119514819Y-103310952D02*
X119514819Y-103501428D01*
X119514819Y-103501428D02*
X119562438Y-103596666D01*
X119562438Y-103596666D02*
X119610057Y-103644285D01*
X119610057Y-103644285D02*
X119705295Y-103691904D01*
X119705295Y-103691904D02*
X119752914Y-103691904D01*
X119752914Y-103691904D02*
X119848152Y-103644285D01*
X119848152Y-103644285D02*
X119895771Y-103596666D01*
X119895771Y-103596666D02*
X119943390Y-103501428D01*
X119943390Y-103501428D02*
X119943390Y-103310952D01*
X119943390Y-103310952D02*
X119991009Y-103215714D01*
X119991009Y-103215714D02*
X120038628Y-103168095D01*
X120038628Y-103168095D02*
X120133866Y-103120476D01*
X120133866Y-103120476D02*
X120324342Y-103120476D01*
X120324342Y-103120476D02*
X120419580Y-103168095D01*
X120419580Y-103168095D02*
X120467200Y-103215714D01*
X120467200Y-103215714D02*
X120514819Y-103310952D01*
X120514819Y-103310952D02*
X120514819Y-103501428D01*
X120514819Y-103501428D02*
X120467200Y-103596666D01*
X120467200Y-103596666D02*
X120419580Y-103644285D01*
X120419580Y-103644285D02*
X120324342Y-103691904D01*
X120324342Y-103691904D02*
X120133866Y-103691904D01*
X120133866Y-103691904D02*
X120038628Y-103644285D01*
X120038628Y-103644285D02*
X119991009Y-103596666D01*
X119991009Y-103596666D02*
X119943390Y-103501428D01*
X157902857Y-113849580D02*
X157950476Y-113897200D01*
X157950476Y-113897200D02*
X158093333Y-113944819D01*
X158093333Y-113944819D02*
X158188571Y-113944819D01*
X158188571Y-113944819D02*
X158331428Y-113897200D01*
X158331428Y-113897200D02*
X158426666Y-113801961D01*
X158426666Y-113801961D02*
X158474285Y-113706723D01*
X158474285Y-113706723D02*
X158521904Y-113516247D01*
X158521904Y-113516247D02*
X158521904Y-113373390D01*
X158521904Y-113373390D02*
X158474285Y-113182914D01*
X158474285Y-113182914D02*
X158426666Y-113087676D01*
X158426666Y-113087676D02*
X158331428Y-112992438D01*
X158331428Y-112992438D02*
X158188571Y-112944819D01*
X158188571Y-112944819D02*
X158093333Y-112944819D01*
X158093333Y-112944819D02*
X157950476Y-112992438D01*
X157950476Y-112992438D02*
X157902857Y-113040057D01*
X156998095Y-112944819D02*
X157474285Y-112944819D01*
X157474285Y-112944819D02*
X157521904Y-113421009D01*
X157521904Y-113421009D02*
X157474285Y-113373390D01*
X157474285Y-113373390D02*
X157379047Y-113325771D01*
X157379047Y-113325771D02*
X157140952Y-113325771D01*
X157140952Y-113325771D02*
X157045714Y-113373390D01*
X157045714Y-113373390D02*
X156998095Y-113421009D01*
X156998095Y-113421009D02*
X156950476Y-113516247D01*
X156950476Y-113516247D02*
X156950476Y-113754342D01*
X156950476Y-113754342D02*
X156998095Y-113849580D01*
X156998095Y-113849580D02*
X157045714Y-113897200D01*
X157045714Y-113897200D02*
X157140952Y-113944819D01*
X157140952Y-113944819D02*
X157379047Y-113944819D01*
X157379047Y-113944819D02*
X157474285Y-113897200D01*
X157474285Y-113897200D02*
X157521904Y-113849580D01*
X156569523Y-113040057D02*
X156521904Y-112992438D01*
X156521904Y-112992438D02*
X156426666Y-112944819D01*
X156426666Y-112944819D02*
X156188571Y-112944819D01*
X156188571Y-112944819D02*
X156093333Y-112992438D01*
X156093333Y-112992438D02*
X156045714Y-113040057D01*
X156045714Y-113040057D02*
X155998095Y-113135295D01*
X155998095Y-113135295D02*
X155998095Y-113230533D01*
X155998095Y-113230533D02*
X156045714Y-113373390D01*
X156045714Y-113373390D02*
X156617142Y-113944819D01*
X156617142Y-113944819D02*
X155998095Y-113944819D01*
X124262857Y-83800819D02*
X124596190Y-83324628D01*
X124834285Y-83800819D02*
X124834285Y-82800819D01*
X124834285Y-82800819D02*
X124453333Y-82800819D01*
X124453333Y-82800819D02*
X124358095Y-82848438D01*
X124358095Y-82848438D02*
X124310476Y-82896057D01*
X124310476Y-82896057D02*
X124262857Y-82991295D01*
X124262857Y-82991295D02*
X124262857Y-83134152D01*
X124262857Y-83134152D02*
X124310476Y-83229390D01*
X124310476Y-83229390D02*
X124358095Y-83277009D01*
X124358095Y-83277009D02*
X124453333Y-83324628D01*
X124453333Y-83324628D02*
X124834285Y-83324628D01*
X123405714Y-83134152D02*
X123405714Y-83800819D01*
X123643809Y-82753200D02*
X123881904Y-83467485D01*
X123881904Y-83467485D02*
X123262857Y-83467485D01*
X122405714Y-82800819D02*
X122881904Y-82800819D01*
X122881904Y-82800819D02*
X122929523Y-83277009D01*
X122929523Y-83277009D02*
X122881904Y-83229390D01*
X122881904Y-83229390D02*
X122786666Y-83181771D01*
X122786666Y-83181771D02*
X122548571Y-83181771D01*
X122548571Y-83181771D02*
X122453333Y-83229390D01*
X122453333Y-83229390D02*
X122405714Y-83277009D01*
X122405714Y-83277009D02*
X122358095Y-83372247D01*
X122358095Y-83372247D02*
X122358095Y-83610342D01*
X122358095Y-83610342D02*
X122405714Y-83705580D01*
X122405714Y-83705580D02*
X122453333Y-83753200D01*
X122453333Y-83753200D02*
X122548571Y-83800819D01*
X122548571Y-83800819D02*
X122786666Y-83800819D01*
X122786666Y-83800819D02*
X122881904Y-83753200D01*
X122881904Y-83753200D02*
X122929523Y-83705580D01*
X149212857Y-109399580D02*
X149260476Y-109447200D01*
X149260476Y-109447200D02*
X149403333Y-109494819D01*
X149403333Y-109494819D02*
X149498571Y-109494819D01*
X149498571Y-109494819D02*
X149641428Y-109447200D01*
X149641428Y-109447200D02*
X149736666Y-109351961D01*
X149736666Y-109351961D02*
X149784285Y-109256723D01*
X149784285Y-109256723D02*
X149831904Y-109066247D01*
X149831904Y-109066247D02*
X149831904Y-108923390D01*
X149831904Y-108923390D02*
X149784285Y-108732914D01*
X149784285Y-108732914D02*
X149736666Y-108637676D01*
X149736666Y-108637676D02*
X149641428Y-108542438D01*
X149641428Y-108542438D02*
X149498571Y-108494819D01*
X149498571Y-108494819D02*
X149403333Y-108494819D01*
X149403333Y-108494819D02*
X149260476Y-108542438D01*
X149260476Y-108542438D02*
X149212857Y-108590057D01*
X148355714Y-108828152D02*
X148355714Y-109494819D01*
X148593809Y-108447200D02*
X148831904Y-109161485D01*
X148831904Y-109161485D02*
X148212857Y-109161485D01*
X147784285Y-109494819D02*
X147593809Y-109494819D01*
X147593809Y-109494819D02*
X147498571Y-109447200D01*
X147498571Y-109447200D02*
X147450952Y-109399580D01*
X147450952Y-109399580D02*
X147355714Y-109256723D01*
X147355714Y-109256723D02*
X147308095Y-109066247D01*
X147308095Y-109066247D02*
X147308095Y-108685295D01*
X147308095Y-108685295D02*
X147355714Y-108590057D01*
X147355714Y-108590057D02*
X147403333Y-108542438D01*
X147403333Y-108542438D02*
X147498571Y-108494819D01*
X147498571Y-108494819D02*
X147689047Y-108494819D01*
X147689047Y-108494819D02*
X147784285Y-108542438D01*
X147784285Y-108542438D02*
X147831904Y-108590057D01*
X147831904Y-108590057D02*
X147879523Y-108685295D01*
X147879523Y-108685295D02*
X147879523Y-108923390D01*
X147879523Y-108923390D02*
X147831904Y-109018628D01*
X147831904Y-109018628D02*
X147784285Y-109066247D01*
X147784285Y-109066247D02*
X147689047Y-109113866D01*
X147689047Y-109113866D02*
X147498571Y-109113866D01*
X147498571Y-109113866D02*
X147403333Y-109066247D01*
X147403333Y-109066247D02*
X147355714Y-109018628D01*
X147355714Y-109018628D02*
X147308095Y-108923390D01*
D12*
%TO.C,C57*%
X120870000Y-99075580D02*
X120870000Y-98794420D01*
X121890000Y-99075580D02*
X121890000Y-98794420D01*
%TO.C,C26*%
X140984420Y-90480000D02*
X141265580Y-90480000D01*
X140984420Y-91500000D02*
X141265580Y-91500000D01*
%TO.C,R33*%
X170312742Y-117907500D02*
X170787258Y-117907500D01*
X170312742Y-118952500D02*
X170787258Y-118952500D01*
%TO.C,C12*%
X154234420Y-108500000D02*
X154515580Y-108500000D01*
X154234420Y-109520000D02*
X154515580Y-109520000D01*
%TO.C,R20*%
X122342258Y-104187500D02*
X121867742Y-104187500D01*
X122342258Y-105232500D02*
X121867742Y-105232500D01*
%TO.C,TP3V3*%
X175470000Y-87630000D02*
X171670000Y-87630000D01*
X171670000Y-89830000D01*
X175470000Y-89830000D01*
X175470000Y-87630000D01*
%TO.C,L8*%
X125250000Y-102655279D02*
X125250000Y-102329721D01*
X126270000Y-102655279D02*
X126270000Y-102329721D01*
%TO.C,C47*%
X160030580Y-85750000D02*
X159749420Y-85750000D01*
X160030580Y-86770000D02*
X159749420Y-86770000D01*
%TO.C,R3*%
X121052258Y-92007500D02*
X120577742Y-92007500D01*
X121052258Y-93052500D02*
X120577742Y-93052500D01*
%TO.C,C53*%
X154234420Y-111420000D02*
X154515580Y-111420000D01*
X154234420Y-112440000D02*
X154515580Y-112440000D01*
%TO.C,C2*%
X121040000Y-87545580D02*
X121040000Y-87264420D01*
X122060000Y-87545580D02*
X122060000Y-87264420D01*
%TO.C,C11*%
X151555580Y-112880000D02*
X151274420Y-112880000D01*
X151555580Y-113900000D02*
X151274420Y-113900000D01*
%TO.C,TP1V2*%
X175470000Y-90330000D02*
X171670000Y-90330000D01*
X171670000Y-92530000D01*
X175470000Y-92530000D01*
X175470000Y-90330000D01*
%TO.C,C25*%
X140984420Y-91940000D02*
X141265580Y-91940000D01*
X140984420Y-92960000D02*
X141265580Y-92960000D01*
%TO.C,J2*%
X102210000Y-94100000D02*
X102210000Y-91700000D01*
X102220000Y-91690000D02*
X102710000Y-91190000D01*
X103160000Y-83160000D02*
X102710000Y-83160000D01*
X103160000Y-83160000D02*
X103160000Y-91190000D01*
X103160000Y-91190000D02*
X102710000Y-91190000D01*
X107070000Y-82040000D02*
X105970000Y-82040000D01*
X113070000Y-82040000D02*
X108370000Y-82040000D01*
X118380000Y-82040000D02*
X114770000Y-82040000D01*
X118380000Y-82550000D02*
X118380000Y-82040000D01*
X118380000Y-92400000D02*
X118380000Y-92950000D01*
X118380000Y-96010000D02*
X104320000Y-96010000D01*
X118380000Y-96010000D02*
X118380000Y-94450000D01*
%TO.C,C46*%
X122340000Y-99075580D02*
X122340000Y-98794420D01*
X123360000Y-99075580D02*
X123360000Y-98794420D01*
%TO.C,R46*%
X121032258Y-84667500D02*
X120557742Y-84667500D01*
X121032258Y-85712500D02*
X120557742Y-85712500D01*
%TO.C,C17*%
X138305580Y-89020000D02*
X138024420Y-89020000D01*
X138305580Y-90040000D02*
X138024420Y-90040000D01*
%TO.C,C27*%
X144225580Y-93400000D02*
X143944420Y-93400000D01*
X144225580Y-94420000D02*
X143944420Y-94420000D01*
%TO.C,C31*%
X156789420Y-87220000D02*
X157070580Y-87220000D01*
X156789420Y-88240000D02*
X157070580Y-88240000D01*
%TO.C,C59*%
X122330000Y-102364420D02*
X122330000Y-102645580D01*
X123350000Y-102364420D02*
X123350000Y-102645580D01*
%TO.C,C20*%
X138305580Y-91940000D02*
X138024420Y-91940000D01*
X138305580Y-92960000D02*
X138024420Y-92960000D01*
%TO.C,C30*%
X146904420Y-93400000D02*
X147185580Y-93400000D01*
X146904420Y-94420000D02*
X147185580Y-94420000D01*
%TO.C,C24*%
X140984420Y-93400000D02*
X141265580Y-93400000D01*
X140984420Y-94420000D02*
X141265580Y-94420000D01*
%TO.C,TP2V5*%
X175470000Y-93030000D02*
X171670000Y-93030000D01*
X171670000Y-95230000D01*
X175470000Y-95230000D01*
X175470000Y-93030000D01*
%TO.C,R19*%
X125257500Y-98697742D02*
X125257500Y-99172258D01*
X126302500Y-98697742D02*
X126302500Y-99172258D01*
%TO.C,C19*%
X138305580Y-90480000D02*
X138024420Y-90480000D01*
X138305580Y-91500000D02*
X138024420Y-91500000D01*
%TO.C,C32*%
X160030580Y-87220000D02*
X159749420Y-87220000D01*
X160030580Y-88240000D02*
X159749420Y-88240000D01*
%TO.C,C18*%
X140984420Y-94860000D02*
X141265580Y-94860000D01*
X140984420Y-95880000D02*
X141265580Y-95880000D01*
%TO.C,C1*%
X119570000Y-87545580D02*
X119570000Y-87264420D01*
X120590000Y-87545580D02*
X120590000Y-87264420D01*
%TO.C,C23*%
X140984420Y-89020000D02*
X141265580Y-89020000D01*
X140984420Y-90040000D02*
X141265580Y-90040000D01*
%TO.C,C50*%
X151555580Y-109960000D02*
X151274420Y-109960000D01*
X151555580Y-110980000D02*
X151274420Y-110980000D01*
%TO.C,C63*%
X156789420Y-84280000D02*
X157070580Y-84280000D01*
X156789420Y-85300000D02*
X157070580Y-85300000D01*
%TO.C,R34*%
X170312742Y-119367500D02*
X170787258Y-119367500D01*
X170312742Y-120412500D02*
X170787258Y-120412500D01*
%TO.C,C48*%
X156789420Y-85750000D02*
X157070580Y-85750000D01*
X156789420Y-86770000D02*
X157070580Y-86770000D01*
%TO.C,TP5V0*%
X175470000Y-84930000D02*
X171670000Y-84930000D01*
X171670000Y-87130000D01*
X175470000Y-87130000D01*
X175470000Y-84930000D01*
%TO.C,C54*%
X154234420Y-109960000D02*
X154515580Y-109960000D01*
X154234420Y-110980000D02*
X154515580Y-110980000D01*
%TO.C,C51*%
X151555580Y-111420000D02*
X151274420Y-111420000D01*
X151555580Y-112440000D02*
X151274420Y-112440000D01*
%TO.C,C21*%
X138305580Y-93400000D02*
X138024420Y-93400000D01*
X138305580Y-94420000D02*
X138024420Y-94420000D01*
%TO.C,C29*%
X146904420Y-94860000D02*
X147185580Y-94860000D01*
X146904420Y-95880000D02*
X147185580Y-95880000D01*
%TO.C,C62*%
X160030580Y-84280000D02*
X159749420Y-84280000D01*
X160030580Y-85300000D02*
X159749420Y-85300000D01*
%TO.C,R32*%
X170312742Y-120827500D02*
X170787258Y-120827500D01*
X170312742Y-121872500D02*
X170787258Y-121872500D01*
%TO.C,C3*%
X107889420Y-121910000D02*
X108170580Y-121910000D01*
X107889420Y-122930000D02*
X108170580Y-122930000D01*
%TO.C,L7*%
X123810000Y-98767221D02*
X123810000Y-99092779D01*
X124830000Y-98767221D02*
X124830000Y-99092779D01*
%TO.C,C28*%
X144225580Y-94860000D02*
X143944420Y-94860000D01*
X144225580Y-95880000D02*
X143944420Y-95880000D01*
%TO.C,R47*%
X121052258Y-89087500D02*
X120577742Y-89087500D01*
X121052258Y-90132500D02*
X120577742Y-90132500D01*
%TO.C,R2*%
X121052258Y-90547500D02*
X120577742Y-90547500D01*
X121052258Y-91592500D02*
X120577742Y-91592500D01*
%TO.C,C22*%
X138305580Y-94860000D02*
X138024420Y-94860000D01*
X138305580Y-95880000D02*
X138024420Y-95880000D01*
%TO.C,R1*%
X107762742Y-109477500D02*
X108237258Y-109477500D01*
X107762742Y-110522500D02*
X108237258Y-110522500D01*
%TO.C,C58*%
X120870000Y-102364420D02*
X120870000Y-102645580D01*
X121890000Y-102364420D02*
X121890000Y-102645580D01*
%TO.C,C52*%
X154234420Y-112890000D02*
X154515580Y-112890000D01*
X154234420Y-113910000D02*
X154515580Y-113910000D01*
%TO.C,R45*%
X121032258Y-83207500D02*
X120557742Y-83207500D01*
X121032258Y-84252500D02*
X120557742Y-84252500D01*
%TO.C,C49*%
X151555580Y-108500000D02*
X151274420Y-108500000D01*
X151555580Y-109520000D02*
X151274420Y-109520000D01*
%TD*%
M02*
