%TF.GenerationSoftware,KiCad,Pcbnew,9.0.3*%
%TF.CreationDate,2025-10-26T12:54:33-04:00*%
%TF.ProjectId,SeedSBC_rev1_1,53656564-5342-4435-9f72-6576315f312e,rev?*%
%TF.SameCoordinates,Original*%
%TF.FileFunction,Paste,Top*%
%TF.FilePolarity,Positive*%
%FSLAX46Y46*%
G04 Gerber Fmt 4.6, Leading zero omitted, Abs format (unit mm)*
G04 Created by KiCad (PCBNEW 9.0.3) date 2025-10-26 12:54:33*
%MOMM*%
%LPD*%
G01*
G04 APERTURE LIST*
G04 Aperture macros list*
%AMRoundRect*
0 Rectangle with rounded corners*
0 $1 Rounding radius*
0 $2 $3 $4 $5 $6 $7 $8 $9 X,Y pos of 4 corners*
0 Add a 4 corners polygon primitive as box body*
4,1,4,$2,$3,$4,$5,$6,$7,$8,$9,$2,$3,0*
0 Add four circle primitives for the rounded corners*
1,1,$1+$1,$2,$3*
1,1,$1+$1,$4,$5*
1,1,$1+$1,$6,$7*
1,1,$1+$1,$8,$9*
0 Add four rect primitives between the rounded corners*
20,1,$1+$1,$2,$3,$4,$5,0*
20,1,$1+$1,$4,$5,$6,$7,0*
20,1,$1+$1,$6,$7,$8,$9,0*
20,1,$1+$1,$8,$9,$2,$3,0*%
G04 Aperture macros list end*
%ADD10RoundRect,0.200000X0.200000X0.275000X-0.200000X0.275000X-0.200000X-0.275000X0.200000X-0.275000X0*%
%ADD11RoundRect,0.200000X0.275000X-0.200000X0.275000X0.200000X-0.275000X0.200000X-0.275000X-0.200000X0*%
%ADD12RoundRect,0.225000X0.250000X-0.225000X0.250000X0.225000X-0.250000X0.225000X-0.250000X-0.225000X0*%
%ADD13RoundRect,0.150000X-0.200000X0.150000X-0.200000X-0.150000X0.200000X-0.150000X0.200000X0.150000X0*%
%ADD14RoundRect,0.150000X-0.150000X0.587500X-0.150000X-0.587500X0.150000X-0.587500X0.150000X0.587500X0*%
%ADD15RoundRect,0.150000X-0.425000X0.150000X-0.425000X-0.150000X0.425000X-0.150000X0.425000X0.150000X0*%
%ADD16RoundRect,0.075000X-0.500000X0.075000X-0.500000X-0.075000X0.500000X-0.075000X0.500000X0.075000X0*%
%ADD17O,2.100000X1.000000*%
%ADD18O,1.800000X1.000000*%
%ADD19RoundRect,0.200000X-0.200000X-0.275000X0.200000X-0.275000X0.200000X0.275000X-0.200000X0.275000X0*%
%ADD20R,1.000000X2.700000*%
%ADD21R,2.700000X1.000000*%
%ADD22RoundRect,0.160000X0.565000X0.240000X-0.565000X0.240000X-0.565000X-0.240000X0.565000X-0.240000X0*%
%ADD23RoundRect,0.120000X0.605000X0.180000X-0.605000X0.180000X-0.605000X-0.180000X0.605000X-0.180000X0*%
%ADD24RoundRect,0.225000X-0.250000X0.225000X-0.250000X-0.225000X0.250000X-0.225000X0.250000X0.225000X0*%
%ADD25RoundRect,0.200000X-0.275000X0.200000X-0.275000X-0.200000X0.275000X-0.200000X0.275000X0.200000X0*%
%ADD26RoundRect,0.225000X0.225000X0.250000X-0.225000X0.250000X-0.225000X-0.250000X0.225000X-0.250000X0*%
%ADD27RoundRect,0.250000X-0.830000X-0.310000X0.830000X-0.310000X0.830000X0.310000X-0.830000X0.310000X0*%
%ADD28RoundRect,0.150000X0.512500X0.150000X-0.512500X0.150000X-0.512500X-0.150000X0.512500X-0.150000X0*%
%ADD29RoundRect,0.218750X0.256250X-0.218750X0.256250X0.218750X-0.256250X0.218750X-0.256250X-0.218750X0*%
%ADD30RoundRect,0.150000X0.150000X-0.512500X0.150000X0.512500X-0.150000X0.512500X-0.150000X-0.512500X0*%
%ADD31RoundRect,0.100000X0.225000X0.100000X-0.225000X0.100000X-0.225000X-0.100000X0.225000X-0.100000X0*%
%ADD32RoundRect,0.250000X-0.335000X-0.335000X0.335000X-0.335000X0.335000X0.335000X-0.335000X0.335000X0*%
%ADD33RoundRect,0.062500X-0.337500X-0.062500X0.337500X-0.062500X0.337500X0.062500X-0.337500X0.062500X0*%
%ADD34RoundRect,0.062500X-0.062500X-0.337500X0.062500X-0.337500X0.062500X0.337500X-0.062500X0.337500X0*%
%ADD35R,1.500000X1.500000*%
%ADD36RoundRect,0.150000X-0.512500X-0.150000X0.512500X-0.150000X0.512500X0.150000X-0.512500X0.150000X0*%
%ADD37C,0.350000*%
%ADD38R,1.400000X1.200000*%
%ADD39RoundRect,0.150000X0.150000X0.425000X-0.150000X0.425000X-0.150000X-0.425000X0.150000X-0.425000X0*%
%ADD40RoundRect,0.075000X0.075000X0.500000X-0.075000X0.500000X-0.075000X-0.500000X0.075000X-0.500000X0*%
%ADD41O,1.000000X2.100000*%
%ADD42O,1.000000X1.800000*%
%ADD43RoundRect,0.218750X-0.256250X0.218750X-0.256250X-0.218750X0.256250X-0.218750X0.256250X0.218750X0*%
%ADD44RoundRect,0.162500X-0.650000X-0.162500X0.650000X-0.162500X0.650000X0.162500X-0.650000X0.162500X0*%
%ADD45RoundRect,0.225000X-0.225000X-0.250000X0.225000X-0.250000X0.225000X0.250000X-0.225000X0.250000X0*%
%ADD46RoundRect,0.218750X-0.218750X-0.256250X0.218750X-0.256250X0.218750X0.256250X-0.218750X0.256250X0*%
%ADD47RoundRect,0.250000X-0.400000X-0.300000X0.400000X-0.300000X0.400000X0.300000X-0.400000X0.300000X0*%
%ADD48RoundRect,0.218750X0.218750X0.256250X-0.218750X0.256250X-0.218750X-0.256250X0.218750X-0.256250X0*%
%ADD49RoundRect,0.100000X-0.100000X0.225000X-0.100000X-0.225000X0.100000X-0.225000X0.100000X0.225000X0*%
%ADD50RoundRect,0.075000X-0.712500X-0.075000X0.712500X-0.075000X0.712500X0.075000X-0.712500X0.075000X0*%
%ADD51RoundRect,0.182500X0.182500X-0.182500X0.182500X0.182500X-0.182500X0.182500X-0.182500X-0.182500X0*%
%ADD52RoundRect,0.062500X0.062500X-0.350000X0.062500X0.350000X-0.062500X0.350000X-0.062500X-0.350000X0*%
%ADD53RoundRect,0.062500X0.350000X-0.062500X0.350000X0.062500X-0.350000X0.062500X-0.350000X-0.062500X0*%
G04 APERTURE END LIST*
D10*
%TO.C,R26*%
X148900000Y-85200000D03*
X147250000Y-85200000D03*
%TD*%
D11*
%TO.C,R21*%
X106154000Y-106944600D03*
X106154000Y-105294600D03*
%TD*%
D10*
%TO.C,R23*%
X163700000Y-85200000D03*
X162050000Y-85200000D03*
%TD*%
D12*
%TO.C,C33*%
X173620000Y-98605000D03*
X173620000Y-97055000D03*
%TD*%
D13*
%TO.C,D1*%
X112070000Y-113210000D03*
X112070000Y-111810000D03*
%TD*%
D14*
%TO.C,Q2*%
X144460000Y-116815000D03*
X142560000Y-116815000D03*
X143510000Y-118690000D03*
%TD*%
D11*
%TO.C,R18*%
X145000000Y-110860000D03*
X145000000Y-109210000D03*
%TD*%
D15*
%TO.C,J6*%
X108832500Y-113025000D03*
X108832500Y-113825000D03*
D16*
X108832500Y-114975000D03*
X108832500Y-115975000D03*
X108832500Y-116475000D03*
X108832500Y-117475000D03*
D15*
X108832500Y-118625000D03*
X108832500Y-119425000D03*
X108832500Y-119425000D03*
X108832500Y-118625000D03*
D16*
X108832500Y-117975000D03*
X108832500Y-116975000D03*
X108832500Y-115475000D03*
X108832500Y-114475000D03*
D15*
X108832500Y-113825000D03*
X108832500Y-113025000D03*
D17*
X108257500Y-111905000D03*
D18*
X104077500Y-111905000D03*
D17*
X108257500Y-120545000D03*
D18*
X104077500Y-120545000D03*
%TD*%
D12*
%TO.C,C40*%
X124170000Y-109100000D03*
X124170000Y-107550000D03*
%TD*%
D19*
%TO.C,R53*%
X116400000Y-119300000D03*
X118050000Y-119300000D03*
%TD*%
D20*
%TO.C,L1*%
X108686500Y-102679600D03*
X110886500Y-102679600D03*
%TD*%
D21*
%TO.C,L2*%
X112725200Y-95801200D03*
X112725200Y-98001200D03*
%TD*%
D22*
%TO.C,D3*%
X175925000Y-120940000D03*
D23*
X175925000Y-119890000D03*
D22*
X175925000Y-118840000D03*
X172875000Y-118840000D03*
D23*
X172875000Y-119890000D03*
D22*
X172875000Y-120940000D03*
%TD*%
D24*
%TO.C,C16*%
X108351600Y-89957400D03*
X108351600Y-91507400D03*
%TD*%
D25*
%TO.C,R35*%
X150110000Y-89385000D03*
X150110000Y-91035000D03*
%TD*%
D12*
%TO.C,C55*%
X175090000Y-98605000D03*
X175090000Y-97055000D03*
%TD*%
D19*
%TO.C,R24*%
X167850000Y-85200000D03*
X169500000Y-85200000D03*
%TD*%
D26*
%TO.C,C4*%
X116330000Y-111940000D03*
X114780000Y-111940000D03*
%TD*%
D11*
%TO.C,R10*%
X110640000Y-114555000D03*
X110640000Y-112905000D03*
%TD*%
D27*
%TO.C,JP2*%
X129578600Y-117398800D03*
X136308600Y-117398800D03*
%TD*%
D11*
%TO.C,R16*%
X146460000Y-110870000D03*
X146460000Y-109220000D03*
%TD*%
D28*
%TO.C,U11*%
X110094000Y-107074600D03*
X110094000Y-106124600D03*
X110094000Y-105174600D03*
X107819000Y-105174600D03*
X107819000Y-107074600D03*
%TD*%
D29*
%TO.C,D6*%
X121570000Y-116435000D03*
X121570000Y-114860000D03*
%TD*%
D28*
%TO.C,U1*%
X110063200Y-97993200D03*
X110063200Y-97043200D03*
X110063200Y-96093200D03*
X107788200Y-96093200D03*
X107788200Y-97993200D03*
%TD*%
D30*
%TO.C,U4*%
X109831600Y-92647400D03*
X110781600Y-92647400D03*
X111731600Y-92647400D03*
X111731600Y-90372400D03*
X110781600Y-90372400D03*
X109831600Y-90372400D03*
%TD*%
D19*
%TO.C,R13*%
X107223200Y-99473200D03*
X108873200Y-99473200D03*
%TD*%
D30*
%TO.C,U10*%
X124490000Y-117420000D03*
X125440000Y-117420000D03*
X126390000Y-117420000D03*
X126390000Y-115145000D03*
X124490000Y-115145000D03*
%TD*%
D24*
%TO.C,C41*%
X173620000Y-104580000D03*
X173620000Y-106130000D03*
%TD*%
D10*
%TO.C,R9*%
X109764000Y-108559600D03*
X108114000Y-108559600D03*
%TD*%
D19*
%TO.C,R48*%
X123350000Y-92479600D03*
X125000000Y-92479600D03*
%TD*%
D31*
%TO.C,U14*%
X166710000Y-88009200D03*
X166710000Y-87359200D03*
X166710000Y-86709200D03*
X164810000Y-86709200D03*
X164810000Y-87359200D03*
X164810000Y-88009200D03*
%TD*%
D32*
%TO.C,U8*%
X123500000Y-100300000D03*
X123500000Y-101750000D03*
X123500000Y-103200000D03*
X124950000Y-100300000D03*
X124950000Y-101750000D03*
X124950000Y-103200000D03*
X126400000Y-100300000D03*
X126400000Y-101750000D03*
X126400000Y-103200000D03*
D33*
X120500000Y-98000000D03*
X120500000Y-98500000D03*
X120500000Y-99000000D03*
X120500000Y-99500000D03*
X120500000Y-100000000D03*
X120500000Y-100500000D03*
X120500000Y-101000000D03*
X120500000Y-101500000D03*
X120500000Y-102000000D03*
X120500000Y-102500000D03*
X120500000Y-103000000D03*
X120500000Y-103500000D03*
X120500000Y-104000000D03*
X120500000Y-104500000D03*
X120500000Y-105000000D03*
X120500000Y-105500000D03*
D34*
X121200000Y-106200000D03*
X121700000Y-106200000D03*
X122200000Y-106200000D03*
X122700000Y-106200000D03*
X123200000Y-106200000D03*
X123700000Y-106200000D03*
X124200000Y-106200000D03*
X124700000Y-106200000D03*
X125200000Y-106200000D03*
X125700000Y-106200000D03*
X126200000Y-106200000D03*
X126700000Y-106200000D03*
X127200000Y-106200000D03*
X127700000Y-106200000D03*
X128200000Y-106200000D03*
X128700000Y-106200000D03*
D33*
X129400000Y-105500000D03*
X129400000Y-105000000D03*
X129400000Y-104500000D03*
X129400000Y-104000000D03*
X129400000Y-103500000D03*
X129400000Y-103000000D03*
X129400000Y-102500000D03*
X129400000Y-102000000D03*
X129400000Y-101500000D03*
X129400000Y-101000000D03*
X129400000Y-100500000D03*
X129400000Y-100000000D03*
X129400000Y-99500000D03*
X129400000Y-99000000D03*
X129400000Y-98500000D03*
X129400000Y-98000000D03*
D34*
X128700000Y-97300000D03*
X128200000Y-97300000D03*
X127700000Y-97300000D03*
X127200000Y-97300000D03*
X126700000Y-97300000D03*
X126200000Y-97300000D03*
X125700000Y-97300000D03*
X125200000Y-97300000D03*
X124700000Y-97300000D03*
X124200000Y-97300000D03*
X123700000Y-97300000D03*
X123200000Y-97300000D03*
X122700000Y-97300000D03*
X122200000Y-97300000D03*
X121700000Y-97300000D03*
X121200000Y-97300000D03*
%TD*%
D12*
%TO.C,C42*%
X125630000Y-109100000D03*
X125630000Y-107550000D03*
%TD*%
D11*
%TO.C,R5*%
X114377500Y-117515000D03*
X114377500Y-115865000D03*
%TD*%
D24*
%TO.C,C15*%
X175080000Y-104580000D03*
X175080000Y-106130000D03*
%TD*%
D35*
%TO.C,SW1*%
X174390000Y-117090000D03*
X174390000Y-109290000D03*
%TD*%
D11*
%TO.C,R50*%
X128430000Y-95739600D03*
X128430000Y-94089600D03*
%TD*%
%TO.C,R49*%
X126970000Y-95734600D03*
X126970000Y-94084600D03*
%TD*%
D10*
%TO.C,R17*%
X134310000Y-112000000D03*
X132660000Y-112000000D03*
%TD*%
D12*
%TO.C,C37*%
X117468800Y-98230000D03*
X117468800Y-96680000D03*
%TD*%
D19*
%TO.C,R27*%
X153080000Y-85200000D03*
X154730000Y-85200000D03*
%TD*%
D10*
%TO.C,R4*%
X114832500Y-114485000D03*
X113182500Y-114485000D03*
%TD*%
D36*
%TO.C,U7*%
X123042500Y-93959600D03*
X123042500Y-94909600D03*
X123042500Y-95859600D03*
X125317500Y-95859600D03*
X125317500Y-94909600D03*
X125317500Y-93959600D03*
%TD*%
D37*
%TO.C,U2*%
X135700000Y-97600000D03*
X136500000Y-97600000D03*
X137300000Y-97600000D03*
X138100000Y-97600000D03*
X138900000Y-97600000D03*
X139700000Y-97600000D03*
X140500000Y-97600000D03*
X141300000Y-97600000D03*
X142100000Y-97600000D03*
X142900000Y-97600000D03*
X143700000Y-97600000D03*
X135700000Y-98400000D03*
X136500000Y-98400000D03*
X137300000Y-98400000D03*
X138100000Y-98400000D03*
X138900000Y-98400000D03*
X139700000Y-98400000D03*
X140500000Y-98400000D03*
X141300000Y-98400000D03*
X142100000Y-98400000D03*
X142900000Y-98400000D03*
X143700000Y-98400000D03*
X135700000Y-99200000D03*
X136500000Y-99200000D03*
X137300000Y-99200000D03*
X138100000Y-99200000D03*
X138900000Y-99200000D03*
X139700000Y-99200000D03*
X140500000Y-99200000D03*
X141300000Y-99200000D03*
X142100000Y-99200000D03*
X142900000Y-99200000D03*
X143700000Y-99200000D03*
X135700000Y-100000000D03*
X136500000Y-100000000D03*
X137300000Y-100000000D03*
X138100000Y-100000000D03*
X138900000Y-100000000D03*
X139700000Y-100000000D03*
X140500000Y-100000000D03*
X141300000Y-100000000D03*
X142100000Y-100000000D03*
X142900000Y-100000000D03*
X143700000Y-100000000D03*
X135700000Y-100800000D03*
X136500000Y-100800000D03*
X137300000Y-100800000D03*
X138100000Y-100800000D03*
X138900000Y-100800000D03*
X139700000Y-100800000D03*
X140500000Y-100800000D03*
X141300000Y-100800000D03*
X142100000Y-100800000D03*
X142900000Y-100800000D03*
X143700000Y-100800000D03*
X135700000Y-101600000D03*
X136500000Y-101600000D03*
X137300000Y-101600000D03*
X138100000Y-101600000D03*
X138900000Y-101600000D03*
X139700000Y-101600000D03*
X140500000Y-101600000D03*
X141300000Y-101600000D03*
X142100000Y-101600000D03*
X142900000Y-101600000D03*
X143700000Y-101600000D03*
X135700000Y-102400000D03*
X136500000Y-102400000D03*
X137300000Y-102400000D03*
X138100000Y-102400000D03*
X138900000Y-102400000D03*
X139700000Y-102400000D03*
X140500000Y-102400000D03*
X141300000Y-102400000D03*
X142100000Y-102400000D03*
X142900000Y-102400000D03*
X143700000Y-102400000D03*
X135700000Y-103200000D03*
X136500000Y-103200000D03*
X137300000Y-103200000D03*
X138100000Y-103200000D03*
X138900000Y-103200000D03*
X139700000Y-103200000D03*
X140500000Y-103200000D03*
X141300000Y-103200000D03*
X142100000Y-103200000D03*
X142900000Y-103200000D03*
X143700000Y-103200000D03*
X135700000Y-104000000D03*
X136500000Y-104000000D03*
X137300000Y-104000000D03*
X138100000Y-104000000D03*
X138900000Y-104000000D03*
X139700000Y-104000000D03*
X140500000Y-104000000D03*
X141300000Y-104000000D03*
X142100000Y-104000000D03*
X142900000Y-104000000D03*
X143700000Y-104000000D03*
X135700000Y-104800000D03*
X136500000Y-104800000D03*
X137300000Y-104800000D03*
X138100000Y-104800000D03*
X138900000Y-104800000D03*
X139700000Y-104800000D03*
X140500000Y-104800000D03*
X141300000Y-104800000D03*
X142100000Y-104800000D03*
X142900000Y-104800000D03*
X143700000Y-104800000D03*
X135700000Y-105600000D03*
X136500000Y-105600000D03*
X137300000Y-105600000D03*
X138100000Y-105600000D03*
X138900000Y-105600000D03*
X139700000Y-105600000D03*
X140500000Y-105600000D03*
X141300000Y-105600000D03*
X142100000Y-105600000D03*
X142900000Y-105600000D03*
X143700000Y-105600000D03*
%TD*%
D38*
%TO.C,Y1*%
X118668800Y-99830000D03*
X118668800Y-101430000D03*
X116468800Y-101430000D03*
X116468800Y-99830000D03*
%TD*%
D39*
%TO.C,J1*%
X169020000Y-83390000D03*
X168220000Y-83390000D03*
D40*
X167070000Y-83390000D03*
X166070000Y-83390000D03*
X165570000Y-83390000D03*
X164570000Y-83390000D03*
D39*
X163420000Y-83390000D03*
X162620000Y-83390000D03*
X162620000Y-83390000D03*
X163420000Y-83390000D03*
D40*
X164070000Y-83390000D03*
X165070000Y-83390000D03*
X166570000Y-83390000D03*
X167570000Y-83390000D03*
D39*
X168220000Y-83390000D03*
X169020000Y-83390000D03*
D41*
X170140000Y-82815000D03*
D42*
X170140000Y-78635000D03*
D41*
X161500000Y-82815000D03*
D42*
X161500000Y-78635000D03*
%TD*%
D43*
%TO.C,D4*%
X139620000Y-116385000D03*
X139620000Y-117960000D03*
%TD*%
D39*
%TO.C,J7*%
X154200000Y-83390000D03*
X153400000Y-83390000D03*
D40*
X152250000Y-83390000D03*
X151250000Y-83390000D03*
X150750000Y-83390000D03*
X149750000Y-83390000D03*
D39*
X148600000Y-83390000D03*
X147800000Y-83390000D03*
X147800000Y-83390000D03*
X148600000Y-83390000D03*
D40*
X149250000Y-83390000D03*
X150250000Y-83390000D03*
X151750000Y-83390000D03*
X152750000Y-83390000D03*
D39*
X153400000Y-83390000D03*
X154200000Y-83390000D03*
D41*
X155320000Y-82815000D03*
D42*
X155320000Y-78635000D03*
D41*
X146680000Y-82815000D03*
D42*
X146680000Y-78635000D03*
%TD*%
D24*
%TO.C,C56*%
X172160000Y-104580000D03*
X172160000Y-106130000D03*
%TD*%
D19*
%TO.C,R40*%
X147410000Y-115110000D03*
X149060000Y-115110000D03*
%TD*%
D25*
%TO.C,R37*%
X121400000Y-94069600D03*
X121400000Y-95719600D03*
%TD*%
%TO.C,R44*%
X164890000Y-89410000D03*
X164890000Y-91060000D03*
%TD*%
D24*
%TO.C,C34*%
X113211600Y-91662400D03*
X113211600Y-93212400D03*
%TD*%
D44*
%TO.C,U3*%
X136025000Y-109560000D03*
X136025000Y-110830000D03*
X136025000Y-112100000D03*
X136025000Y-113370000D03*
X143200000Y-113370000D03*
X143200000Y-112100000D03*
X143200000Y-110830000D03*
X143200000Y-109560000D03*
%TD*%
D45*
%TO.C,C9*%
X113188200Y-99473200D03*
X114738200Y-99473200D03*
%TD*%
D19*
%TO.C,R55*%
X109951600Y-94292400D03*
X111601600Y-94292400D03*
%TD*%
D45*
%TO.C,C13*%
X172140000Y-107560000D03*
X173690000Y-107560000D03*
%TD*%
D10*
%TO.C,R6*%
X119337500Y-111940000D03*
X117687500Y-111940000D03*
%TD*%
D19*
%TO.C,R8*%
X108114000Y-110019600D03*
X109764000Y-110019600D03*
%TD*%
D45*
%TO.C,C64*%
X111400000Y-115940000D03*
X112950000Y-115940000D03*
%TD*%
D10*
%TO.C,R31*%
X171690000Y-109030000D03*
X170040000Y-109030000D03*
%TD*%
D24*
%TO.C,C6*%
X111734000Y-105339600D03*
X111734000Y-106889600D03*
%TD*%
D19*
%TO.C,R22*%
X141980000Y-107830000D03*
X143630000Y-107830000D03*
%TD*%
%TO.C,R39*%
X109961600Y-88732400D03*
X111611600Y-88732400D03*
%TD*%
D24*
%TO.C,C5*%
X104684000Y-105344600D03*
X104684000Y-106894600D03*
%TD*%
D12*
%TO.C,C39*%
X172160000Y-98605000D03*
X172160000Y-97055000D03*
%TD*%
D31*
%TO.C,U15*%
X151930000Y-87979200D03*
X151930000Y-87329200D03*
X151930000Y-86679200D03*
X150030000Y-86679200D03*
X150030000Y-87329200D03*
X150030000Y-87979200D03*
%TD*%
D46*
%TO.C,L6*%
X124625000Y-113500000D03*
X126200000Y-113500000D03*
%TD*%
D47*
%TO.C,Y2*%
X131050000Y-108880000D03*
X133150000Y-108880000D03*
X133150000Y-107230000D03*
X131050000Y-107230000D03*
%TD*%
D19*
%TO.C,R54*%
X124638000Y-119088400D03*
X126288000Y-119088400D03*
%TD*%
D11*
%TO.C,R42*%
X141080000Y-117990000D03*
X141080000Y-116340000D03*
%TD*%
D24*
%TO.C,C14*%
X129270000Y-107550000D03*
X129270000Y-109100000D03*
%TD*%
D48*
%TO.C,L4*%
X173690000Y-100040000D03*
X172115000Y-100040000D03*
%TD*%
D21*
%TO.C,L3*%
X105871600Y-90502400D03*
X105871600Y-92702400D03*
%TD*%
D19*
%TO.C,R12*%
X110183200Y-99473200D03*
X111833200Y-99473200D03*
%TD*%
D49*
%TO.C,U12*%
X115991600Y-88412400D03*
X115341600Y-88412400D03*
X114691600Y-88412400D03*
X114691600Y-90312400D03*
X115341600Y-90312400D03*
X115991600Y-90312400D03*
%TD*%
D24*
%TO.C,C35*%
X114671600Y-91662400D03*
X114671600Y-93212400D03*
%TD*%
D50*
%TO.C,U6*%
X151012500Y-95850000D03*
X151012500Y-96350000D03*
X151012500Y-96850000D03*
X151012500Y-97350000D03*
X151012500Y-97850000D03*
X151012500Y-98350000D03*
X151012500Y-98850000D03*
X151012500Y-99350000D03*
X151012500Y-99850000D03*
X151012500Y-100350000D03*
X151012500Y-100850000D03*
X151012500Y-101350000D03*
X151012500Y-101850000D03*
X151012500Y-102350000D03*
X151012500Y-102850000D03*
X151012500Y-103350000D03*
X151012500Y-103850000D03*
X151012500Y-104350000D03*
X151012500Y-104850000D03*
X151012500Y-105350000D03*
X151012500Y-105850000D03*
X151012500Y-106350000D03*
X151012500Y-106850000D03*
X151012500Y-107350000D03*
X170387500Y-107350000D03*
X170387500Y-106850000D03*
X170387500Y-106350000D03*
X170387500Y-105850000D03*
X170387500Y-105350000D03*
X170387500Y-104850000D03*
X170387500Y-104350000D03*
X170387500Y-103850000D03*
X170387500Y-103350000D03*
X170387500Y-102850000D03*
X170387500Y-102350000D03*
X170387500Y-101850000D03*
X170387500Y-101350000D03*
X170387500Y-100850000D03*
X170387500Y-100350000D03*
X170387500Y-99850000D03*
X170387500Y-99350000D03*
X170387500Y-98850000D03*
X170387500Y-98350000D03*
X170387500Y-97850000D03*
X170387500Y-97350000D03*
X170387500Y-96850000D03*
X170387500Y-96350000D03*
X170387500Y-95850000D03*
%TD*%
D10*
%TO.C,R7*%
X119337500Y-113440000D03*
X117687500Y-113440000D03*
%TD*%
D12*
%TO.C,C38*%
X122710000Y-109100000D03*
X122710000Y-107550000D03*
%TD*%
D51*
%TO.C,U9*%
X116817500Y-116860000D03*
X117657500Y-116860000D03*
X116817500Y-116020000D03*
X117657500Y-116020000D03*
D52*
X116487500Y-117902500D03*
X116987500Y-117902500D03*
X117487500Y-117902500D03*
X117987500Y-117902500D03*
D53*
X118700000Y-117190000D03*
X118700000Y-116690000D03*
X118700000Y-116190000D03*
X118700000Y-115690000D03*
D52*
X117987500Y-114977500D03*
X117487500Y-114977500D03*
X116987500Y-114977500D03*
X116487500Y-114977500D03*
D53*
X115775000Y-115690000D03*
X115775000Y-116190000D03*
X115775000Y-116690000D03*
X115775000Y-117190000D03*
%TD*%
D12*
%TO.C,C36*%
X118938800Y-98230000D03*
X118938800Y-96680000D03*
%TD*%
D25*
%TO.C,R38*%
X113211600Y-88657400D03*
X113211600Y-90307400D03*
%TD*%
%TO.C,R43*%
X166630000Y-89415000D03*
X166630000Y-91065000D03*
%TD*%
D12*
%TO.C,C44*%
X129946400Y-96292000D03*
X129946400Y-94742000D03*
%TD*%
D24*
%TO.C,C7*%
X104693200Y-96263200D03*
X104693200Y-97813200D03*
%TD*%
D45*
%TO.C,C45*%
X116450000Y-120770000D03*
X118000000Y-120770000D03*
%TD*%
D12*
%TO.C,C43*%
X127090000Y-109100000D03*
X127090000Y-107550000D03*
%TD*%
D26*
%TO.C,C10*%
X126198000Y-112038400D03*
X124648000Y-112038400D03*
%TD*%
D10*
%TO.C,R41*%
X146100000Y-115100000D03*
X144450000Y-115100000D03*
%TD*%
D11*
%TO.C,R29*%
X106153200Y-97868200D03*
X106153200Y-96218200D03*
%TD*%
D25*
%TO.C,R25*%
X151850000Y-89380000D03*
X151850000Y-91030000D03*
%TD*%
D29*
%TO.C,D2*%
X120100000Y-116435000D03*
X120100000Y-114860000D03*
%TD*%
D10*
%TO.C,R36*%
X134315000Y-110540000D03*
X132665000Y-110540000D03*
%TD*%
D45*
%TO.C,C8*%
X124688000Y-120548400D03*
X126238000Y-120548400D03*
%TD*%
D25*
%TO.C,R11*%
X110650000Y-117945000D03*
X110650000Y-119595000D03*
%TD*%
D26*
%TO.C,C60*%
X124950000Y-91019600D03*
X123400000Y-91019600D03*
%TD*%
M02*
