M48
; DRILL file {KiCad 9.0.3} date 2025-10-10T02:39:43-0400
; FORMAT={-:-/ absolute / metric / decimal}
; #@! TF.CreationDate,2025-10-10T02:39:43-04:00
; #@! TF.GenerationSoftware,Kicad,Pcbnew,9.0.3
; #@! TF.FileFunction,Plated,1,5,Blind
FMAT,2
METRIC
; #@! TA.AperFunction,Plated,Buried,ViaDrill
T1C0.150
; #@! TA.AperFunction,Plated,Buried,ViaDrill
T2C0.300
%
G90
G05
T1
X138.1Y-100.0
X138.1Y-100.8
X138.1Y-102.4
X138.1Y-103.2
X139.7Y-100.0
X139.7Y-103.2
X141.3Y-100.0
X141.3Y-101.6
X141.3Y-103.2
T2
X104.37Y-90.51
X104.69Y-104.74
X106.16Y-104.75
X106.417Y-89.957
X108.6Y-96.1
X108.944Y-118.575
X108.966Y-113.875
X109.4Y-94.292
X109.417Y-89.957
X111.537Y-101.999
X111.54Y-103.31
X111.85Y-97.36
X112.19Y-104.74
X112.41Y-85.54
X112.42Y-82.98
X113.295Y-106.9
X113.602Y-97.358
X115.478Y-115.303
X116.333Y-112.565
X117.69Y-111.314
X122.091Y-109.098
X124.171Y-109.696
X125.548Y-91.021
X125.549Y-92.477
X125.629Y-109.701
X126.8Y-93.545
X127.09Y-109.7
X128.193Y-101.607
X128.6Y-93.537
X131.055Y-106.531
X132.07Y-112.0
X132.074Y-110.538
X143.51Y-119.58
X143.923Y-107.223
X146.72Y-84.76
X149.65Y-115.12
X154.75Y-85.39
X162.07Y-85.4
X168.76Y-110.96
X170.02Y-109.03
X170.07Y-84.77
X174.32Y-100.03
M30
