%TF.GenerationSoftware,KiCad,Pcbnew,9.0.3*%
%TF.CreationDate,2025-10-10T02:39:34-04:00*%
%TF.ProjectId,sbc,7362632e-6b69-4636-9164-5f7063625858,rev?*%
%TF.SameCoordinates,Original*%
%TF.FileFunction,Soldermask,Bot*%
%TF.FilePolarity,Negative*%
%FSLAX46Y46*%
G04 Gerber Fmt 4.6, Leading zero omitted, Abs format (unit mm)*
G04 Created by KiCad (PCBNEW 9.0.3) date 2025-10-10 02:39:34*
%MOMM*%
%LPD*%
G01*
G04 APERTURE LIST*
G04 Aperture macros list*
%AMRoundRect*
0 Rectangle with rounded corners*
0 $1 Rounding radius*
0 $2 $3 $4 $5 $6 $7 $8 $9 X,Y pos of 4 corners*
0 Add a 4 corners polygon primitive as box body*
4,1,4,$2,$3,$4,$5,$6,$7,$8,$9,$2,$3,0*
0 Add four circle primitives for the rounded corners*
1,1,$1+$1,$2,$3*
1,1,$1+$1,$4,$5*
1,1,$1+$1,$6,$7*
1,1,$1+$1,$8,$9*
0 Add four rect primitives between the rounded corners*
20,1,$1+$1,$2,$3,$4,$5,0*
20,1,$1+$1,$4,$5,$6,$7,0*
20,1,$1+$1,$6,$7,$8,$9,0*
20,1,$1+$1,$8,$9,$2,$3,0*%
%AMRotRect*
0 Rectangle, with rotation*
0 The origin of the aperture is its center*
0 $1 length*
0 $2 width*
0 $3 Rotation angle, in degrees counterclockwise*
0 Add horizontal line*
21,1,$1,$2,0,0,$3*%
G04 Aperture macros list end*
%ADD10C,0.600000*%
%ADD11O,0.600000X0.850000*%
%ADD12O,2.300000X1.300000*%
%ADD13O,2.600000X1.300000*%
%ADD14RoundRect,0.250000X-0.350000X-0.625000X0.350000X-0.625000X0.350000X0.625000X-0.350000X0.625000X0*%
%ADD15O,1.200000X1.750000*%
%ADD16C,2.200000*%
%ADD17O,0.850000X0.600000*%
%ADD18O,1.300000X2.300000*%
%ADD19O,1.300000X2.600000*%
%ADD20R,1.700000X1.700000*%
%ADD21C,1.700000*%
%ADD22R,0.850000X0.850000*%
%ADD23C,0.850000*%
%ADD24RoundRect,0.225000X0.250000X-0.225000X0.250000X0.225000X-0.250000X0.225000X-0.250000X-0.225000X0*%
%ADD25RoundRect,0.225000X-0.225000X-0.250000X0.225000X-0.250000X0.225000X0.250000X-0.225000X0.250000X0*%
%ADD26RoundRect,0.200000X0.200000X0.275000X-0.200000X0.275000X-0.200000X-0.275000X0.200000X-0.275000X0*%
%ADD27RoundRect,0.250000X1.450000X0.650000X-1.450000X0.650000X-1.450000X-0.650000X1.450000X-0.650000X0*%
%ADD28RoundRect,0.218750X0.256250X-0.218750X0.256250X0.218750X-0.256250X0.218750X-0.256250X-0.218750X0*%
%ADD29RoundRect,0.225000X0.225000X0.250000X-0.225000X0.250000X-0.225000X-0.250000X0.225000X-0.250000X0*%
%ADD30R,1.400000X0.700000*%
%ADD31R,1.200000X0.700000*%
%ADD32R,0.800000X1.200000*%
%ADD33R,1.900000X1.500000*%
%ADD34RotRect,0.200000X0.200000X45.000000*%
%ADD35R,0.500000X0.500000*%
%ADD36R,1.400000X1.000000*%
%ADD37R,3.200000X1.200000*%
%ADD38R,1.200000X1.200000*%
%ADD39RoundRect,0.225000X-0.250000X0.225000X-0.250000X-0.225000X0.250000X-0.225000X0.250000X0.225000X0*%
%ADD40RoundRect,0.200000X-0.275000X0.200000X-0.275000X-0.200000X0.275000X-0.200000X0.275000X0.200000X0*%
%ADD41RoundRect,0.218750X-0.256250X0.218750X-0.256250X-0.218750X0.256250X-0.218750X0.256250X0.218750X0*%
%ADD42RoundRect,0.200000X-0.200000X-0.275000X0.200000X-0.275000X0.200000X0.275000X-0.200000X0.275000X0*%
G04 APERTURE END LIST*
D10*
%TO.C,J6*%
X107102500Y-113225000D03*
D11*
X107102500Y-119225000D03*
D12*
X107827500Y-111905000D03*
D13*
X104002500Y-111905000D03*
D12*
X107827500Y-120545000D03*
D13*
X104002500Y-120545000D03*
%TD*%
D14*
%TO.C,J3*%
X111970000Y-123710000D03*
D15*
X113970000Y-123710000D03*
%TD*%
D16*
%TO.C,H2*%
X175300000Y-78700000D03*
%TD*%
D10*
%TO.C,J1*%
X168820000Y-81660000D03*
D17*
X162820000Y-81660000D03*
D18*
X170140000Y-82385000D03*
D19*
X170140000Y-78560000D03*
D18*
X161500000Y-82385000D03*
D19*
X161500000Y-78560000D03*
%TD*%
D10*
%TO.C,J7*%
X154000000Y-81660000D03*
D17*
X148000000Y-81660000D03*
D18*
X155320000Y-82385000D03*
D19*
X155320000Y-78560000D03*
D18*
X146680000Y-82385000D03*
D19*
X146680000Y-78560000D03*
%TD*%
D20*
%TO.C,J4*%
X119380000Y-124460000D03*
D21*
X121920000Y-124460000D03*
X124460000Y-124460000D03*
X127000000Y-124460000D03*
X129540000Y-124460000D03*
X132080000Y-124460000D03*
%TD*%
D16*
%TO.C,H1*%
X104100000Y-78700000D03*
%TD*%
%TO.C,H4*%
X104100000Y-124500000D03*
%TD*%
%TO.C,H3*%
X175300000Y-124500000D03*
%TD*%
D20*
%TO.C,J8*%
X170180000Y-124460000D03*
D21*
X167640000Y-124460000D03*
X165100000Y-124460000D03*
X162560000Y-124460000D03*
X160020000Y-124460000D03*
X157480000Y-124460000D03*
X154940000Y-124460000D03*
X152400000Y-124460000D03*
X149860000Y-124460000D03*
X147320000Y-124460000D03*
X144780000Y-124460000D03*
X142240000Y-124460000D03*
X139700000Y-124460000D03*
X137160000Y-124460000D03*
%TD*%
D20*
%TO.C,J5*%
X142240000Y-78740000D03*
D21*
X139700000Y-78740000D03*
X137160000Y-78740000D03*
X134620000Y-78740000D03*
X132080000Y-78740000D03*
X129540000Y-78740000D03*
X127000000Y-78740000D03*
X124460000Y-78740000D03*
X121920000Y-78740000D03*
X119380000Y-78740000D03*
X116840000Y-78740000D03*
X114300000Y-78740000D03*
X111760000Y-78740000D03*
X109220000Y-78740000D03*
%TD*%
D22*
%TO.C,J9*%
X132080000Y-93000000D03*
D23*
X132080000Y-94000000D03*
X132080000Y-95000000D03*
X132080000Y-96000000D03*
%TD*%
D24*
%TO.C,C57*%
X121380000Y-99710000D03*
X121380000Y-98160000D03*
%TD*%
D25*
%TO.C,C26*%
X140350000Y-90990000D03*
X141900000Y-90990000D03*
%TD*%
%TO.C,C12*%
X153600000Y-109010000D03*
X155150000Y-109010000D03*
%TD*%
D26*
%TO.C,R20*%
X122930000Y-104710000D03*
X121280000Y-104710000D03*
%TD*%
D27*
%TO.C,TP3V3*%
X173570000Y-88730000D03*
%TD*%
D28*
%TO.C,L8*%
X125760000Y-103280000D03*
X125760000Y-101705000D03*
%TD*%
D29*
%TO.C,C47*%
X160665000Y-86260000D03*
X159115000Y-86260000D03*
%TD*%
D26*
%TO.C,R3*%
X121640000Y-92530000D03*
X119990000Y-92530000D03*
%TD*%
D25*
%TO.C,C53*%
X153600000Y-111930000D03*
X155150000Y-111930000D03*
%TD*%
D24*
%TO.C,C2*%
X121550000Y-88180000D03*
X121550000Y-86630000D03*
%TD*%
D29*
%TO.C,C11*%
X152190000Y-113390000D03*
X150640000Y-113390000D03*
%TD*%
D27*
%TO.C,TP1V2*%
X173570000Y-91430000D03*
%TD*%
D25*
%TO.C,C25*%
X140350000Y-92450000D03*
X141900000Y-92450000D03*
%TD*%
D30*
%TO.C,J2*%
X118120000Y-91800000D03*
X118120000Y-90700000D03*
X118120000Y-89600000D03*
X118120000Y-88500000D03*
X118120000Y-87400000D03*
X118120000Y-86300000D03*
X118120000Y-85200000D03*
X118120000Y-84100000D03*
D31*
X118220000Y-83150000D03*
D32*
X107720000Y-82300000D03*
D33*
X103120000Y-95600000D03*
D34*
X102670000Y-94850000D03*
D35*
X102420000Y-94600000D03*
D36*
X118120000Y-93700000D03*
D37*
X104120000Y-82300000D03*
D38*
X113920000Y-82300000D03*
%TD*%
D24*
%TO.C,C46*%
X122850000Y-99710000D03*
X122850000Y-98160000D03*
%TD*%
D26*
%TO.C,R46*%
X121620000Y-85190000D03*
X119970000Y-85190000D03*
%TD*%
D29*
%TO.C,C17*%
X138940000Y-89530000D03*
X137390000Y-89530000D03*
%TD*%
%TO.C,C27*%
X144860000Y-93910000D03*
X143310000Y-93910000D03*
%TD*%
D25*
%TO.C,C31*%
X156155000Y-87730000D03*
X157705000Y-87730000D03*
%TD*%
D39*
%TO.C,C59*%
X122840000Y-101730000D03*
X122840000Y-103280000D03*
%TD*%
D29*
%TO.C,C20*%
X138940000Y-92450000D03*
X137390000Y-92450000D03*
%TD*%
D25*
%TO.C,C30*%
X146270000Y-93910000D03*
X147820000Y-93910000D03*
%TD*%
%TO.C,C24*%
X140350000Y-93910000D03*
X141900000Y-93910000D03*
%TD*%
D27*
%TO.C,TP2V5*%
X173570000Y-94130000D03*
%TD*%
D40*
%TO.C,R19*%
X125780000Y-98110000D03*
X125780000Y-99760000D03*
%TD*%
D29*
%TO.C,C19*%
X138940000Y-90990000D03*
X137390000Y-90990000D03*
%TD*%
%TO.C,C32*%
X160665000Y-87730000D03*
X159115000Y-87730000D03*
%TD*%
D25*
%TO.C,C18*%
X140350000Y-95370000D03*
X141900000Y-95370000D03*
%TD*%
D24*
%TO.C,C1*%
X120080000Y-88180000D03*
X120080000Y-86630000D03*
%TD*%
D25*
%TO.C,C23*%
X140350000Y-89530000D03*
X141900000Y-89530000D03*
%TD*%
D29*
%TO.C,C50*%
X152190000Y-110470000D03*
X150640000Y-110470000D03*
%TD*%
D25*
%TO.C,C63*%
X156155000Y-84790000D03*
X157705000Y-84790000D03*
%TD*%
D24*
%TO.C,FB1*%
X123010000Y-88165000D03*
X123010000Y-86615000D03*
%TD*%
D25*
%TO.C,C48*%
X156155000Y-86260000D03*
X157705000Y-86260000D03*
%TD*%
D27*
%TO.C,TP5V0*%
X173570000Y-86030000D03*
%TD*%
D25*
%TO.C,C54*%
X153600000Y-110470000D03*
X155150000Y-110470000D03*
%TD*%
D29*
%TO.C,C51*%
X152190000Y-111930000D03*
X150640000Y-111930000D03*
%TD*%
%TO.C,C21*%
X138940000Y-93910000D03*
X137390000Y-93910000D03*
%TD*%
D25*
%TO.C,C29*%
X146270000Y-95370000D03*
X147820000Y-95370000D03*
%TD*%
D29*
%TO.C,C62*%
X160665000Y-84790000D03*
X159115000Y-84790000D03*
%TD*%
D25*
%TO.C,C3*%
X107255000Y-122420000D03*
X108805000Y-122420000D03*
%TD*%
D41*
%TO.C,L7*%
X124320000Y-98142500D03*
X124320000Y-99717500D03*
%TD*%
D29*
%TO.C,C28*%
X144860000Y-95370000D03*
X143310000Y-95370000D03*
%TD*%
D26*
%TO.C,R47*%
X121640000Y-89610000D03*
X119990000Y-89610000D03*
%TD*%
%TO.C,R2*%
X121640000Y-91070000D03*
X119990000Y-91070000D03*
%TD*%
D29*
%TO.C,C22*%
X138940000Y-95370000D03*
X137390000Y-95370000D03*
%TD*%
D42*
%TO.C,R1*%
X107175000Y-110000000D03*
X108825000Y-110000000D03*
%TD*%
D39*
%TO.C,C58*%
X121380000Y-101730000D03*
X121380000Y-103280000D03*
%TD*%
D25*
%TO.C,C52*%
X153600000Y-113400000D03*
X155150000Y-113400000D03*
%TD*%
D26*
%TO.C,R45*%
X121620000Y-83730000D03*
X119970000Y-83730000D03*
%TD*%
D29*
%TO.C,C49*%
X152190000Y-109010000D03*
X150640000Y-109010000D03*
%TD*%
M02*
