M48
; DRILL file {KiCad 9.0.3} date 2025-10-10T02:39:43-0400
; FORMAT={-:-/ absolute / metric / decimal}
; #@! TF.CreationDate,2025-10-10T02:39:43-04:00
; #@! TF.GenerationSoftware,Kicad,Pcbnew,9.0.3
; #@! TF.FileFunction,Plated,1,4,Blind
FMAT,2
METRIC
; #@! TA.AperFunction,Plated,Buried,ViaDrill
T1C0.150
; #@! TA.AperFunction,Plated,Buried,ViaDrill
T2C0.300
%
G90
G05
T1
X121.7Y-97.3
X121.701Y-112.501
X122.2Y-97.3
X122.4Y-110.8
X123.3Y-113.4
X126.2Y-96.8
X126.7Y-96.8
X127.2Y-96.8
X135.15Y-110.25
X135.7Y-98.4
X135.7Y-104.0
X135.7Y-104.8
X136.5Y-98.4
X136.5Y-104.0
X137.3Y-99.2
X137.3Y-103.2
X137.3Y-104.0
X138.1Y-99.2
X138.1Y-104.0
X138.9Y-97.6
X138.9Y-104.0
X139.7Y-97.6
X139.7Y-104.0
X139.7Y-105.6
X140.5Y-97.6
X140.5Y-98.4
X140.5Y-99.2
X140.5Y-100.0
X140.5Y-103.2
X140.5Y-104.0
X140.5Y-104.8
X140.5Y-105.6
X141.3Y-98.4
X141.3Y-99.2
X141.3Y-100.8
X141.3Y-102.4
X141.3Y-104.0
X142.1Y-100.0
X142.1Y-100.8
X142.1Y-101.6
X142.1Y-102.4
X142.1Y-103.2
X143.2Y-112.1
X143.2Y-113.37
X146.141Y-107.1
X146.141Y-115.059
X150.731Y-91.019
X151.281Y-91.019
X166.045Y-91.26
X168.36Y-118.26
X169.82Y-118.26
X170.387Y-95.85
X170.387Y-97.35
X170.387Y-97.85
X170.387Y-98.35
X170.387Y-98.85
X170.387Y-99.35
X170.387Y-99.85
X170.387Y-100.35
X170.387Y-100.85
X170.387Y-101.85
X170.387Y-102.35
X170.387Y-102.85
X170.387Y-103.35
X170.387Y-103.85
X170.387Y-104.35
X170.387Y-104.85
X170.387Y-105.35
X170.387Y-105.85
X170.387Y-106.85
X170.387Y-107.35
X171.28Y-118.25
X172.21Y-109.03
T2
X109.728Y-115.57
X109.728Y-116.84
X121.36Y-100.978
X125.603Y-94.916
X125.61Y-95.866
X150.992Y-83.365
X151.48Y-86.24
X165.814Y-83.375
X166.26Y-86.28
M30
