%TF.GenerationSoftware,KiCad,Pcbnew,9.0.3*%
%TF.CreationDate,2025-10-10T12:54:04-04:00*%
%TF.ProjectId,sbc,7362632e-6b69-4636-9164-5f7063625858,rev?*%
%TF.SameCoordinates,Original*%
%TF.FileFunction,Copper,L5,Inr*%
%TF.FilePolarity,Positive*%
%FSLAX46Y46*%
G04 Gerber Fmt 4.6, Leading zero omitted, Abs format (unit mm)*
G04 Created by KiCad (PCBNEW 9.0.3) date 2025-10-10 12:54:04*
%MOMM*%
%LPD*%
G01*
G04 APERTURE LIST*
G04 Aperture macros list*
%AMRoundRect*
0 Rectangle with rounded corners*
0 $1 Rounding radius*
0 $2 $3 $4 $5 $6 $7 $8 $9 X,Y pos of 4 corners*
0 Add a 4 corners polygon primitive as box body*
4,1,4,$2,$3,$4,$5,$6,$7,$8,$9,$2,$3,0*
0 Add four circle primitives for the rounded corners*
1,1,$1+$1,$2,$3*
1,1,$1+$1,$4,$5*
1,1,$1+$1,$6,$7*
1,1,$1+$1,$8,$9*
0 Add four rect primitives between the rounded corners*
20,1,$1+$1,$2,$3,$4,$5,0*
20,1,$1+$1,$4,$5,$6,$7,0*
20,1,$1+$1,$6,$7,$8,$9,0*
20,1,$1+$1,$8,$9,$2,$3,0*%
G04 Aperture macros list end*
%TA.AperFunction,HeatsinkPad*%
%ADD10O,2.300000X1.300000*%
%TD*%
%TA.AperFunction,HeatsinkPad*%
%ADD11O,2.600000X1.300000*%
%TD*%
%TA.AperFunction,ComponentPad*%
%ADD12RoundRect,0.250000X-0.350000X-0.625000X0.350000X-0.625000X0.350000X0.625000X-0.350000X0.625000X0*%
%TD*%
%TA.AperFunction,ComponentPad*%
%ADD13O,1.200000X1.750000*%
%TD*%
%TA.AperFunction,HeatsinkPad*%
%ADD14O,1.300000X2.300000*%
%TD*%
%TA.AperFunction,HeatsinkPad*%
%ADD15O,1.300000X2.600000*%
%TD*%
%TA.AperFunction,ComponentPad*%
%ADD16R,1.700000X1.700000*%
%TD*%
%TA.AperFunction,ComponentPad*%
%ADD17C,1.700000*%
%TD*%
%TA.AperFunction,HeatsinkPad*%
%ADD18C,0.500000*%
%TD*%
%TA.AperFunction,ComponentPad*%
%ADD19R,0.850000X0.850000*%
%TD*%
%TA.AperFunction,ComponentPad*%
%ADD20C,0.850000*%
%TD*%
%TA.AperFunction,ViaPad*%
%ADD21C,0.600000*%
%TD*%
%TA.AperFunction,ViaPad*%
%ADD22C,0.300000*%
%TD*%
%TA.AperFunction,ViaPad*%
%ADD23C,1.250000*%
%TD*%
%TA.AperFunction,Conductor*%
%ADD24C,0.200000*%
%TD*%
%TA.AperFunction,Conductor*%
%ADD25C,0.381000*%
%TD*%
G04 APERTURE END LIST*
D10*
%TO.N,Net-(J6-SHIELD)*%
%TO.C,J6*%
X107827500Y-111905000D03*
D11*
X104002500Y-111905000D03*
D10*
X107827500Y-120545000D03*
D11*
X104002500Y-120545000D03*
%TD*%
D12*
%TO.N,V_BAT*%
%TO.C,J3*%
X111970000Y-123710000D03*
D13*
%TO.N,GND*%
X113970000Y-123710000D03*
%TD*%
D14*
%TO.N,GND*%
%TO.C,J1*%
X170140000Y-82385000D03*
D15*
X170140000Y-78560000D03*
D14*
X161500000Y-82385000D03*
D15*
X161500000Y-78560000D03*
%TD*%
D14*
%TO.N,GND*%
%TO.C,J7*%
X155320000Y-82385000D03*
D15*
X155320000Y-78560000D03*
D14*
X146680000Y-82385000D03*
D15*
X146680000Y-78560000D03*
%TD*%
D16*
%TO.N,/FPGA + SRAM/FPGA/SPI_CNFG_CS*%
%TO.C,J4*%
X119380000Y-124460000D03*
D17*
%TO.N,/FPGA + SRAM/FPGA/SPI_CNFG_SCK*%
X121920000Y-124460000D03*
%TO.N,/FPGA + SRAM/FPGA/SPI_CNFG_DI*%
X124460000Y-124460000D03*
%TO.N,/FPGA + SRAM/FPGA/SPI_CNFG_DO*%
X127000000Y-124460000D03*
%TO.N,P3V3*%
X129540000Y-124460000D03*
%TO.N,GND*%
X132080000Y-124460000D03*
%TD*%
D18*
%TO.N,GND*%
%TO.C,U9*%
X116647500Y-117030000D03*
X117827500Y-117030000D03*
X116647500Y-115850000D03*
X117827500Y-115850000D03*
%TD*%
D16*
%TO.N,GND*%
%TO.C,J8*%
X170180000Y-124460000D03*
D17*
%TO.N,/FPGA + SRAM/IO_B1*%
X167640000Y-124460000D03*
%TO.N,/FPGA + SRAM/IO_B2*%
X165100000Y-124460000D03*
%TO.N,/FPGA + SRAM/IO_B3*%
X162560000Y-124460000D03*
%TO.N,/FPGA + SRAM/IO_B4*%
X160020000Y-124460000D03*
%TO.N,/FPGA + SRAM/IO_B5*%
X157480000Y-124460000D03*
%TO.N,/FPGA + SRAM/IO_B6*%
X154940000Y-124460000D03*
%TO.N,/FPGA + SRAM/IO_B7*%
X152400000Y-124460000D03*
%TO.N,/FPGA + SRAM/IO_B8*%
X149860000Y-124460000D03*
%TO.N,/FPGA + SRAM/IO_B9*%
X147320000Y-124460000D03*
%TO.N,/FPGA + SRAM/IO_B10*%
X144780000Y-124460000D03*
%TO.N,GND*%
X142240000Y-124460000D03*
%TO.N,P3V3*%
X139700000Y-124460000D03*
%TO.N,V_BAT*%
X137160000Y-124460000D03*
%TD*%
D16*
%TO.N,GND*%
%TO.C,J5*%
X142240000Y-78740000D03*
D17*
%TO.N,/FPGA + SRAM/IO_T1*%
X139700000Y-78740000D03*
%TO.N,/FPGA + SRAM/IO_T2*%
X137160000Y-78740000D03*
%TO.N,/FPGA + SRAM/IO_T3*%
X134620000Y-78740000D03*
%TO.N,/FPGA + SRAM/IO_T4*%
X132080000Y-78740000D03*
%TO.N,/FPGA + SRAM/IO_T5*%
X129540000Y-78740000D03*
%TO.N,/FPGA + SRAM/IO_T6*%
X127000000Y-78740000D03*
%TO.N,/FPGA + SRAM/IO_T7*%
X124460000Y-78740000D03*
%TO.N,/FPGA + SRAM/IO_T8*%
X121920000Y-78740000D03*
%TO.N,/FPGA + SRAM/IO_T9*%
X119380000Y-78740000D03*
%TO.N,/FPGA + SRAM/IO_T10*%
X116840000Y-78740000D03*
%TO.N,USB_VBUS2*%
X114300000Y-78740000D03*
%TO.N,EN*%
X111760000Y-78740000D03*
%TO.N,USB_VBUS*%
X109220000Y-78740000D03*
%TD*%
D19*
%TO.N,EXT_PLL2P*%
%TO.C,J9*%
X132080000Y-93000000D03*
D20*
%TO.N,EXT_PLL2N*%
X132080000Y-94000000D03*
%TO.N,EXT_PLL1P*%
X132080000Y-95000000D03*
%TO.N,EXT_PLL1N*%
X132080000Y-96000000D03*
%TD*%
D21*
%TO.N,GND*%
X114079997Y-111940000D03*
X121560000Y-98760000D03*
D22*
X120500000Y-103000000D03*
D21*
X155150000Y-113400000D03*
X159150000Y-84170000D03*
X150640000Y-109010000D03*
X157700000Y-84170000D03*
X155200000Y-109040000D03*
X159130000Y-88350000D03*
X150640000Y-113390000D03*
X123441331Y-103283871D03*
X108900000Y-109400000D03*
X157680000Y-88340000D03*
X108828091Y-123041263D03*
X121550000Y-86630000D03*
X147813171Y-93290187D03*
X140690000Y-87650000D03*
X142880000Y-93280000D03*
%TO.N,V_SYS*%
X109400437Y-94291884D03*
X117690000Y-111313769D03*
X109416600Y-89957400D03*
X117796100Y-114069354D03*
X106416600Y-89957400D03*
X104690000Y-104740000D03*
X108600000Y-96100000D03*
X104370000Y-90510000D03*
X106160000Y-104750000D03*
X116332753Y-112564539D03*
D22*
X118700000Y-117200000D03*
%TO.N,/FPGA + SRAM/SD_DAT0*%
X118120000Y-85200000D03*
%TO.N,/FPGA + SRAM/SD_CLK*%
X118120000Y-87400000D03*
%TO.N,/FPGA + SRAM/SD_DAT1*%
X118120000Y-84100000D03*
%TO.N,/FPGA + SRAM/SD_DAT3*%
X118120000Y-90700000D03*
%TO.N,/FPGA + SRAM/FPGA/SPI_CNFG_CS*%
X142900000Y-104800000D03*
X136025000Y-109560000D03*
%TO.N,P1V2*%
X138100000Y-103200000D03*
X141300000Y-103200000D03*
D21*
X113601868Y-97358040D03*
D22*
X138100000Y-100000000D03*
X141300000Y-100000000D03*
D21*
X111850000Y-97360000D03*
X140350000Y-92500000D03*
X140350000Y-91000000D03*
X140350000Y-89530000D03*
X143070000Y-90350000D03*
D22*
%TO.N,/SD MMC/SD_CMD*%
X118120000Y-89600000D03*
D21*
%TO.N,USB_VBUS*%
X108944490Y-118575000D03*
X108966000Y-113875000D03*
X111030532Y-113909267D03*
X115477983Y-115303221D03*
%TO.N,P3V3*%
X131054636Y-106531013D03*
D22*
X138100000Y-102400000D03*
D21*
X149650000Y-115120000D03*
X124171159Y-109695795D03*
X113295500Y-106900000D03*
X112190000Y-104740000D03*
X125547678Y-91021303D03*
X128193413Y-101606587D03*
X174320000Y-100030000D03*
X122091162Y-109098405D03*
X126800000Y-93545219D03*
X132073916Y-110537824D03*
X128600000Y-93536958D03*
X168760000Y-110960000D03*
D22*
X141300000Y-101600000D03*
D21*
X143510000Y-119580000D03*
D22*
X139700000Y-100000000D03*
D21*
X111536525Y-101999133D03*
D22*
X139700000Y-103200000D03*
D21*
X143922983Y-107222885D03*
X132070000Y-112000000D03*
D22*
X122700000Y-106200000D03*
D21*
X125548907Y-92477174D03*
X170020000Y-109030000D03*
X125629130Y-109700650D03*
X127090000Y-109700000D03*
D22*
X138100000Y-100800000D03*
D21*
X111540000Y-103310000D03*
X152190000Y-113390000D03*
X121640000Y-92530000D03*
X153600000Y-109010000D03*
X153600000Y-111930000D03*
X121640000Y-89610000D03*
X152190000Y-110470000D03*
X124320000Y-97550000D03*
X176530000Y-97040000D03*
X124300000Y-104710000D03*
D22*
%TO.N,/FPGA + SRAM/SD_DAT2*%
X118120000Y-91800000D03*
%TO.N,P2V5*%
X145400000Y-93600000D03*
D21*
X126198000Y-111901000D03*
D22*
%TO.N,/FPGA + SRAM/FPGA/SPI_CNFG_DO*%
X142100000Y-104800000D03*
X136025000Y-110830000D03*
%TO.N,Net-(U8-REF)*%
X120500000Y-100500000D03*
%TO.N,Net-(U8-~{RESET})*%
X120500000Y-104500000D03*
%TO.N,Net-(U8-VPLL)*%
X120500000Y-102000000D03*
%TO.N,Net-(U8-VPHY)*%
X120500000Y-99500000D03*
D23*
%TO.N,USB_VBUS2*%
X112410000Y-85540000D03*
D21*
X162070000Y-85400000D03*
X146720000Y-84760000D03*
X170070000Y-84770000D03*
D23*
X112420000Y-82980000D03*
D21*
X154750000Y-85390000D03*
X156155000Y-88350000D03*
X160670000Y-88360000D03*
X176380000Y-86000000D03*
%TD*%
D24*
%TO.N,USB_VBUS*%
X108944490Y-113896510D02*
X108966000Y-113875000D01*
D25*
X108944490Y-115316000D02*
X115465204Y-115316000D01*
D24*
X115465204Y-115316000D02*
X115477983Y-115303221D01*
D25*
X108944490Y-118575000D02*
X108944490Y-115316000D01*
X108944490Y-115316000D02*
X108944490Y-113896510D01*
%TD*%
%TA.AperFunction,Conductor*%
%TO.N,P3V3*%
G36*
X138025706Y-100519685D02*
G01*
X138033067Y-100524800D01*
X138350400Y-100762800D01*
X138392221Y-100818771D01*
X138400000Y-100862000D01*
X138400000Y-102338000D01*
X138380315Y-102405039D01*
X138350400Y-102437200D01*
X138033067Y-102675200D01*
X137967625Y-102699676D01*
X137958667Y-102700000D01*
X134620000Y-102700000D01*
X134620000Y-100500000D01*
X137958667Y-100500000D01*
X138025706Y-100519685D01*
G37*
%TD.AperFunction*%
%TD*%
%TA.AperFunction,Conductor*%
%TO.N,USB_VBUS2*%
G36*
X146072791Y-76720185D02*
G01*
X146118546Y-76772989D01*
X146128490Y-76842147D01*
X146099465Y-76905703D01*
X146078637Y-76924818D01*
X145930505Y-77032441D01*
X145930500Y-77032445D01*
X145802445Y-77160500D01*
X145802441Y-77160505D01*
X145696006Y-77307002D01*
X145613788Y-77468360D01*
X145613787Y-77468363D01*
X145557829Y-77640589D01*
X145529500Y-77819448D01*
X145529500Y-79300551D01*
X145557829Y-79479410D01*
X145613787Y-79651636D01*
X145613788Y-79651639D01*
X145648789Y-79720330D01*
X145695642Y-79812284D01*
X145696006Y-79812997D01*
X145802441Y-79959494D01*
X145802445Y-79959499D01*
X145930500Y-80087554D01*
X145930505Y-80087558D01*
X145948243Y-80100445D01*
X146077006Y-80193996D01*
X146182484Y-80247740D01*
X146238360Y-80276211D01*
X146238363Y-80276212D01*
X146324476Y-80304191D01*
X146410591Y-80332171D01*
X146493429Y-80345291D01*
X146589449Y-80360500D01*
X146589454Y-80360500D01*
X146770551Y-80360500D01*
X146857259Y-80346765D01*
X146949409Y-80332171D01*
X147121639Y-80276211D01*
X147282994Y-80193996D01*
X147429501Y-80087553D01*
X147557553Y-79959501D01*
X147663996Y-79812994D01*
X147746211Y-79651639D01*
X147802171Y-79479409D01*
X147817661Y-79381610D01*
X147830500Y-79300551D01*
X147830500Y-77819448D01*
X147803292Y-77647671D01*
X147802171Y-77640591D01*
X147752886Y-77488904D01*
X147746212Y-77468363D01*
X147746211Y-77468360D01*
X147711124Y-77399500D01*
X147663996Y-77307006D01*
X147634756Y-77266760D01*
X147557558Y-77160505D01*
X147557554Y-77160500D01*
X147429499Y-77032445D01*
X147429494Y-77032441D01*
X147281363Y-76924818D01*
X147238697Y-76869488D01*
X147232718Y-76799875D01*
X147265323Y-76738080D01*
X147326162Y-76703723D01*
X147354248Y-76700500D01*
X154645752Y-76700500D01*
X154712791Y-76720185D01*
X154758546Y-76772989D01*
X154768490Y-76842147D01*
X154739465Y-76905703D01*
X154718637Y-76924818D01*
X154570505Y-77032441D01*
X154570500Y-77032445D01*
X154442445Y-77160500D01*
X154442441Y-77160505D01*
X154336006Y-77307002D01*
X154253788Y-77468360D01*
X154253787Y-77468363D01*
X154197829Y-77640589D01*
X154169500Y-77819448D01*
X154169500Y-79300551D01*
X154197829Y-79479410D01*
X154253787Y-79651636D01*
X154253788Y-79651639D01*
X154288789Y-79720330D01*
X154335642Y-79812284D01*
X154336006Y-79812997D01*
X154442441Y-79959494D01*
X154442445Y-79959499D01*
X154570500Y-80087554D01*
X154570505Y-80087558D01*
X154588243Y-80100445D01*
X154717006Y-80193996D01*
X154822484Y-80247740D01*
X154878360Y-80276211D01*
X154878363Y-80276212D01*
X154964476Y-80304191D01*
X155050591Y-80332171D01*
X155133429Y-80345291D01*
X155229449Y-80360500D01*
X155229454Y-80360500D01*
X155410551Y-80360500D01*
X155497259Y-80346765D01*
X155589409Y-80332171D01*
X155761639Y-80276211D01*
X155922994Y-80193996D01*
X156069501Y-80087553D01*
X156197553Y-79959501D01*
X156303996Y-79812994D01*
X156386211Y-79651639D01*
X156442171Y-79479409D01*
X156457661Y-79381610D01*
X156470500Y-79300551D01*
X156470500Y-77819448D01*
X156443292Y-77647671D01*
X156442171Y-77640591D01*
X156392886Y-77488904D01*
X156386212Y-77468363D01*
X156386211Y-77468360D01*
X156351124Y-77399500D01*
X156303996Y-77307006D01*
X156274756Y-77266760D01*
X156197558Y-77160505D01*
X156197554Y-77160500D01*
X156069499Y-77032445D01*
X156069494Y-77032441D01*
X155921363Y-76924818D01*
X155878697Y-76869488D01*
X155872718Y-76799875D01*
X155905323Y-76738080D01*
X155966162Y-76703723D01*
X155994248Y-76700500D01*
X160825752Y-76700500D01*
X160892791Y-76720185D01*
X160938546Y-76772989D01*
X160948490Y-76842147D01*
X160919465Y-76905703D01*
X160898637Y-76924818D01*
X160750505Y-77032441D01*
X160750500Y-77032445D01*
X160622445Y-77160500D01*
X160622441Y-77160505D01*
X160516006Y-77307002D01*
X160433788Y-77468360D01*
X160433787Y-77468363D01*
X160377829Y-77640589D01*
X160349500Y-77819448D01*
X160349500Y-79300551D01*
X160377829Y-79479410D01*
X160433787Y-79651636D01*
X160433788Y-79651639D01*
X160468789Y-79720330D01*
X160515642Y-79812284D01*
X160516006Y-79812997D01*
X160622441Y-79959494D01*
X160622445Y-79959499D01*
X160750500Y-80087554D01*
X160750505Y-80087558D01*
X160768243Y-80100445D01*
X160897006Y-80193996D01*
X161002484Y-80247740D01*
X161058360Y-80276211D01*
X161058363Y-80276212D01*
X161144476Y-80304191D01*
X161230591Y-80332171D01*
X161313429Y-80345291D01*
X161409449Y-80360500D01*
X161409454Y-80360500D01*
X161590551Y-80360500D01*
X161677259Y-80346765D01*
X161769409Y-80332171D01*
X161941639Y-80276211D01*
X162102994Y-80193996D01*
X162249501Y-80087553D01*
X162377553Y-79959501D01*
X162483996Y-79812994D01*
X162566211Y-79651639D01*
X162622171Y-79479409D01*
X162637661Y-79381610D01*
X162650500Y-79300551D01*
X162650500Y-77819448D01*
X162623292Y-77647671D01*
X162622171Y-77640591D01*
X162572886Y-77488904D01*
X162566212Y-77468363D01*
X162566211Y-77468360D01*
X162531124Y-77399500D01*
X162483996Y-77307006D01*
X162454756Y-77266760D01*
X162377558Y-77160505D01*
X162377554Y-77160500D01*
X162249499Y-77032445D01*
X162249494Y-77032441D01*
X162101363Y-76924818D01*
X162058697Y-76869488D01*
X162052718Y-76799875D01*
X162085323Y-76738080D01*
X162146162Y-76703723D01*
X162174248Y-76700500D01*
X169465752Y-76700500D01*
X169532791Y-76720185D01*
X169578546Y-76772989D01*
X169588490Y-76842147D01*
X169559465Y-76905703D01*
X169538637Y-76924818D01*
X169390505Y-77032441D01*
X169390500Y-77032445D01*
X169262445Y-77160500D01*
X169262441Y-77160505D01*
X169156006Y-77307002D01*
X169073788Y-77468360D01*
X169073787Y-77468363D01*
X169017829Y-77640589D01*
X168989500Y-77819448D01*
X168989500Y-79300551D01*
X169017829Y-79479410D01*
X169073787Y-79651636D01*
X169073788Y-79651639D01*
X169108789Y-79720330D01*
X169155642Y-79812284D01*
X169156006Y-79812997D01*
X169262441Y-79959494D01*
X169262445Y-79959499D01*
X169390500Y-80087554D01*
X169390505Y-80087558D01*
X169408243Y-80100445D01*
X169537006Y-80193996D01*
X169642484Y-80247740D01*
X169698360Y-80276211D01*
X169698363Y-80276212D01*
X169784476Y-80304191D01*
X169870591Y-80332171D01*
X169953429Y-80345291D01*
X170049449Y-80360500D01*
X170049454Y-80360500D01*
X170230551Y-80360500D01*
X170317259Y-80346765D01*
X170409409Y-80332171D01*
X170581639Y-80276211D01*
X170742994Y-80193996D01*
X170889501Y-80087553D01*
X171017553Y-79959501D01*
X171123996Y-79812994D01*
X171206211Y-79651639D01*
X171262171Y-79479409D01*
X171277661Y-79381610D01*
X171290500Y-79300551D01*
X171290500Y-78597648D01*
X173999500Y-78597648D01*
X173999500Y-78802351D01*
X174031522Y-79004534D01*
X174094781Y-79199223D01*
X174187715Y-79381613D01*
X174308028Y-79547213D01*
X174452786Y-79691971D01*
X174607749Y-79804556D01*
X174618390Y-79812287D01*
X174702747Y-79855269D01*
X174800776Y-79905218D01*
X174800778Y-79905218D01*
X174800781Y-79905220D01*
X174905137Y-79939127D01*
X174995465Y-79968477D01*
X175096557Y-79984488D01*
X175197648Y-80000500D01*
X175197649Y-80000500D01*
X175402351Y-80000500D01*
X175402352Y-80000500D01*
X175604534Y-79968477D01*
X175799219Y-79905220D01*
X175981610Y-79812287D01*
X176108179Y-79720330D01*
X176147213Y-79691971D01*
X176147215Y-79691968D01*
X176147219Y-79691966D01*
X176291966Y-79547219D01*
X176291968Y-79547215D01*
X176291971Y-79547213D01*
X176364186Y-79447816D01*
X176412287Y-79381610D01*
X176505220Y-79199219D01*
X176568477Y-79004534D01*
X176600500Y-78802352D01*
X176600500Y-78597648D01*
X176568477Y-78395466D01*
X176565546Y-78386446D01*
X176517963Y-78240000D01*
X176505220Y-78200781D01*
X176505218Y-78200778D01*
X176505218Y-78200776D01*
X176471503Y-78134607D01*
X176412287Y-78018390D01*
X176383147Y-77978282D01*
X176291971Y-77852786D01*
X176147213Y-77708028D01*
X175981613Y-77587715D01*
X175981612Y-77587714D01*
X175981610Y-77587713D01*
X175924653Y-77558691D01*
X175799223Y-77494781D01*
X175604534Y-77431522D01*
X175429995Y-77403878D01*
X175402352Y-77399500D01*
X175197648Y-77399500D01*
X175173329Y-77403351D01*
X174995465Y-77431522D01*
X174800776Y-77494781D01*
X174618386Y-77587715D01*
X174452786Y-77708028D01*
X174308028Y-77852786D01*
X174187715Y-78018386D01*
X174094781Y-78200776D01*
X174031522Y-78395465D01*
X173999500Y-78597648D01*
X171290500Y-78597648D01*
X171290500Y-77819448D01*
X171263292Y-77647671D01*
X171262171Y-77640591D01*
X171212886Y-77488904D01*
X171206212Y-77468363D01*
X171206211Y-77468360D01*
X171171124Y-77399500D01*
X171123996Y-77307006D01*
X171094756Y-77266760D01*
X171017558Y-77160505D01*
X171017554Y-77160500D01*
X170889499Y-77032445D01*
X170889494Y-77032441D01*
X170741363Y-76924818D01*
X170698697Y-76869488D01*
X170692718Y-76799875D01*
X170725323Y-76738080D01*
X170786162Y-76703723D01*
X170814248Y-76700500D01*
X177175500Y-76700500D01*
X177242539Y-76720185D01*
X177288294Y-76772989D01*
X177299500Y-76824500D01*
X177299500Y-95126000D01*
X177279815Y-95193039D01*
X177227011Y-95238794D01*
X177175500Y-95250000D01*
X147444000Y-95250000D01*
X147376961Y-95230315D01*
X147331206Y-95177511D01*
X147320000Y-95126000D01*
X147320000Y-94137942D01*
X147339685Y-94070903D01*
X147392489Y-94025148D01*
X147461647Y-94015204D01*
X147491446Y-94023379D01*
X147579674Y-94059924D01*
X147734324Y-94090686D01*
X147734327Y-94090687D01*
X147734329Y-94090687D01*
X147892015Y-94090687D01*
X147892016Y-94090686D01*
X148046668Y-94059924D01*
X148192350Y-93999581D01*
X148323460Y-93911976D01*
X148434960Y-93800476D01*
X148522565Y-93669366D01*
X148582908Y-93523684D01*
X148613671Y-93369029D01*
X148613671Y-93211345D01*
X148613671Y-93211342D01*
X148613670Y-93211340D01*
X148611645Y-93201158D01*
X148582908Y-93056690D01*
X148582906Y-93056685D01*
X148522568Y-92911014D01*
X148522561Y-92911001D01*
X148434960Y-92779898D01*
X148434957Y-92779894D01*
X148323463Y-92668400D01*
X148323459Y-92668397D01*
X148192356Y-92580796D01*
X148192343Y-92580789D01*
X148046672Y-92520451D01*
X148046660Y-92520448D01*
X147892016Y-92489687D01*
X147892013Y-92489687D01*
X147734329Y-92489687D01*
X147734326Y-92489687D01*
X147579681Y-92520448D01*
X147579669Y-92520451D01*
X147491452Y-92556992D01*
X147421983Y-92564461D01*
X147359504Y-92533186D01*
X147323852Y-92473096D01*
X147320000Y-92442431D01*
X147320000Y-91440000D01*
X144904000Y-91440000D01*
X144836961Y-91420315D01*
X144791206Y-91367511D01*
X144780000Y-91316000D01*
X144780000Y-88900000D01*
X144141153Y-88261153D01*
X156879500Y-88261153D01*
X156879500Y-88418846D01*
X156910261Y-88573489D01*
X156910264Y-88573501D01*
X156970602Y-88719172D01*
X156970609Y-88719185D01*
X157058210Y-88850288D01*
X157058213Y-88850292D01*
X157169707Y-88961786D01*
X157169711Y-88961789D01*
X157300814Y-89049390D01*
X157300827Y-89049397D01*
X157410258Y-89094724D01*
X157446503Y-89109737D01*
X157601153Y-89140499D01*
X157601156Y-89140500D01*
X157601158Y-89140500D01*
X157758844Y-89140500D01*
X157758845Y-89140499D01*
X157913497Y-89109737D01*
X158026166Y-89063067D01*
X158059172Y-89049397D01*
X158059172Y-89049396D01*
X158059179Y-89049394D01*
X158190289Y-88961789D01*
X158301789Y-88850289D01*
X158301791Y-88850285D01*
X158305653Y-88845581D01*
X158307854Y-88847387D01*
X158352050Y-88810373D01*
X158421366Y-88801593D01*
X158484425Y-88831682D01*
X158504762Y-88855127D01*
X158508212Y-88860291D01*
X158619707Y-88971786D01*
X158619711Y-88971789D01*
X158750814Y-89059390D01*
X158750827Y-89059397D01*
X158872363Y-89109738D01*
X158896503Y-89119737D01*
X159051153Y-89150499D01*
X159051156Y-89150500D01*
X159051158Y-89150500D01*
X159208844Y-89150500D01*
X159208845Y-89150499D01*
X159363497Y-89119737D01*
X159509179Y-89059394D01*
X159640289Y-88971789D01*
X159751789Y-88860289D01*
X159839394Y-88729179D01*
X159899737Y-88583497D01*
X159930500Y-88428842D01*
X159930500Y-88271158D01*
X159930500Y-88271155D01*
X159930499Y-88271153D01*
X159928510Y-88261153D01*
X159899737Y-88116503D01*
X159872398Y-88050500D01*
X159839397Y-87970827D01*
X159839390Y-87970814D01*
X159751789Y-87839711D01*
X159751786Y-87839707D01*
X159640292Y-87728213D01*
X159640288Y-87728210D01*
X159509185Y-87640609D01*
X159509172Y-87640602D01*
X159363501Y-87580264D01*
X159363489Y-87580261D01*
X159208845Y-87549500D01*
X159208842Y-87549500D01*
X159051158Y-87549500D01*
X159051155Y-87549500D01*
X158896510Y-87580261D01*
X158896498Y-87580264D01*
X158750827Y-87640602D01*
X158750814Y-87640609D01*
X158619711Y-87728210D01*
X158619707Y-87728213D01*
X158508213Y-87839707D01*
X158504347Y-87844419D01*
X158502236Y-87842687D01*
X158457373Y-87879876D01*
X158388013Y-87888305D01*
X158325107Y-87857897D01*
X158305236Y-87834869D01*
X158301791Y-87829713D01*
X158301786Y-87829707D01*
X158190292Y-87718213D01*
X158190288Y-87718210D01*
X158059185Y-87630609D01*
X158059172Y-87630602D01*
X157913501Y-87570264D01*
X157913489Y-87570261D01*
X157758845Y-87539500D01*
X157758842Y-87539500D01*
X157601158Y-87539500D01*
X157601155Y-87539500D01*
X157446510Y-87570261D01*
X157446498Y-87570264D01*
X157300827Y-87630602D01*
X157300814Y-87630609D01*
X157169711Y-87718210D01*
X157169707Y-87718213D01*
X157058213Y-87829707D01*
X157058210Y-87829711D01*
X156970609Y-87960814D01*
X156970602Y-87960827D01*
X156910264Y-88106498D01*
X156910261Y-88106510D01*
X156879500Y-88261153D01*
X144141153Y-88261153D01*
X139971153Y-84091153D01*
X156899500Y-84091153D01*
X156899500Y-84248846D01*
X156930261Y-84403489D01*
X156930264Y-84403501D01*
X156990602Y-84549172D01*
X156990609Y-84549185D01*
X157078210Y-84680288D01*
X157078213Y-84680292D01*
X157189707Y-84791786D01*
X157189711Y-84791789D01*
X157320814Y-84879390D01*
X157320827Y-84879397D01*
X157466498Y-84939735D01*
X157466503Y-84939737D01*
X157621153Y-84970499D01*
X157621156Y-84970500D01*
X157621158Y-84970500D01*
X157778844Y-84970500D01*
X157778845Y-84970499D01*
X157933497Y-84939737D01*
X158079179Y-84879394D01*
X158210289Y-84791789D01*
X158321789Y-84680289D01*
X158321791Y-84680285D01*
X158321896Y-84680130D01*
X158321971Y-84680066D01*
X158325653Y-84675581D01*
X158326503Y-84676279D01*
X158375506Y-84635323D01*
X158444831Y-84626613D01*
X158507860Y-84656766D01*
X158524239Y-84675669D01*
X158524347Y-84675581D01*
X158527653Y-84679610D01*
X158528104Y-84680130D01*
X158528208Y-84680286D01*
X158528213Y-84680292D01*
X158639707Y-84791786D01*
X158639711Y-84791789D01*
X158770814Y-84879390D01*
X158770827Y-84879397D01*
X158916498Y-84939735D01*
X158916503Y-84939737D01*
X159071153Y-84970499D01*
X159071156Y-84970500D01*
X159071158Y-84970500D01*
X159228844Y-84970500D01*
X159228845Y-84970499D01*
X159383497Y-84939737D01*
X159529179Y-84879394D01*
X159660289Y-84791789D01*
X159771789Y-84680289D01*
X159859394Y-84549179D01*
X159919737Y-84403497D01*
X159950500Y-84248842D01*
X159950500Y-84091158D01*
X159950500Y-84091155D01*
X159950499Y-84091153D01*
X159919737Y-83936503D01*
X159875000Y-83828497D01*
X159859397Y-83790827D01*
X159859390Y-83790814D01*
X159771789Y-83659711D01*
X159771786Y-83659707D01*
X159660292Y-83548213D01*
X159660288Y-83548210D01*
X159529185Y-83460609D01*
X159529172Y-83460602D01*
X159383501Y-83400264D01*
X159383489Y-83400261D01*
X159228845Y-83369500D01*
X159228842Y-83369500D01*
X159071158Y-83369500D01*
X159071155Y-83369500D01*
X158916510Y-83400261D01*
X158916498Y-83400264D01*
X158770827Y-83460602D01*
X158770814Y-83460609D01*
X158639711Y-83548210D01*
X158639707Y-83548213D01*
X158528213Y-83659707D01*
X158528208Y-83659713D01*
X158528098Y-83659879D01*
X158528017Y-83659945D01*
X158524347Y-83664419D01*
X158523498Y-83663722D01*
X158474484Y-83704681D01*
X158405158Y-83713384D01*
X158342132Y-83683226D01*
X158325759Y-83664331D01*
X158325653Y-83664419D01*
X158322378Y-83660428D01*
X158321902Y-83659879D01*
X158321791Y-83659713D01*
X158321786Y-83659707D01*
X158210292Y-83548213D01*
X158210288Y-83548210D01*
X158079185Y-83460609D01*
X158079172Y-83460602D01*
X157933501Y-83400264D01*
X157933489Y-83400261D01*
X157778845Y-83369500D01*
X157778842Y-83369500D01*
X157621158Y-83369500D01*
X157621155Y-83369500D01*
X157466510Y-83400261D01*
X157466498Y-83400264D01*
X157320827Y-83460602D01*
X157320814Y-83460609D01*
X157189711Y-83548210D01*
X157189707Y-83548213D01*
X157078213Y-83659707D01*
X157078210Y-83659711D01*
X156990609Y-83790814D01*
X156990602Y-83790827D01*
X156930264Y-83936498D01*
X156930261Y-83936510D01*
X156899500Y-84091153D01*
X139971153Y-84091153D01*
X139700000Y-83820000D01*
X118781538Y-83820000D01*
X118714499Y-83800315D01*
X118678436Y-83764891D01*
X118625276Y-83685331D01*
X118625274Y-83685328D01*
X118534672Y-83594726D01*
X118534668Y-83594723D01*
X118428133Y-83523538D01*
X118428124Y-83523533D01*
X118309744Y-83474499D01*
X118309738Y-83474497D01*
X118184071Y-83449500D01*
X118184069Y-83449500D01*
X118055931Y-83449500D01*
X118055929Y-83449500D01*
X117930261Y-83474497D01*
X117930255Y-83474499D01*
X117811875Y-83523533D01*
X117811866Y-83523538D01*
X117705331Y-83594723D01*
X117705327Y-83594726D01*
X117614725Y-83685328D01*
X117580553Y-83736470D01*
X117561563Y-83764891D01*
X117507953Y-83809696D01*
X117458462Y-83820000D01*
X113030000Y-83820000D01*
X113030000Y-85991138D01*
X113010315Y-86058177D01*
X112993681Y-86078819D01*
X111971681Y-87100819D01*
X111910358Y-87134304D01*
X111840666Y-87129320D01*
X111784733Y-87087448D01*
X111760316Y-87021984D01*
X111760000Y-87013138D01*
X111760000Y-81794448D01*
X145529500Y-81794448D01*
X145529500Y-82975551D01*
X145557829Y-83154410D01*
X145613787Y-83326636D01*
X145613788Y-83326639D01*
X145696006Y-83487997D01*
X145802441Y-83634494D01*
X145802445Y-83634499D01*
X145930500Y-83762554D01*
X145930505Y-83762558D01*
X146058287Y-83855396D01*
X146077006Y-83868996D01*
X146157983Y-83910256D01*
X146238360Y-83951211D01*
X146238363Y-83951212D01*
X146324476Y-83979191D01*
X146410591Y-84007171D01*
X146493429Y-84020291D01*
X146589449Y-84035500D01*
X146589454Y-84035500D01*
X146770551Y-84035500D01*
X146857259Y-84021765D01*
X146949409Y-84007171D01*
X147121639Y-83951211D01*
X147282994Y-83868996D01*
X147429501Y-83762553D01*
X147557553Y-83634501D01*
X147663996Y-83487994D01*
X147746211Y-83326639D01*
X147802171Y-83154409D01*
X147816765Y-83062259D01*
X147830500Y-82975551D01*
X147830500Y-82284500D01*
X147850185Y-82217461D01*
X147902989Y-82171706D01*
X147954500Y-82160500D01*
X148190890Y-82160500D01*
X148190892Y-82160500D01*
X148318186Y-82126392D01*
X148432314Y-82060500D01*
X148525500Y-81967314D01*
X148591392Y-81853186D01*
X148625500Y-81725892D01*
X148625500Y-81594108D01*
X153499500Y-81594108D01*
X153499500Y-81725891D01*
X153533608Y-81853187D01*
X153566554Y-81910250D01*
X153599500Y-81967314D01*
X153692686Y-82060500D01*
X153806814Y-82126392D01*
X153934108Y-82160500D01*
X153934110Y-82160500D01*
X154045500Y-82160500D01*
X154112539Y-82180185D01*
X154158294Y-82232989D01*
X154169500Y-82284500D01*
X154169500Y-82975551D01*
X154197829Y-83154410D01*
X154253787Y-83326636D01*
X154253788Y-83326639D01*
X154336006Y-83487997D01*
X154442441Y-83634494D01*
X154442445Y-83634499D01*
X154570500Y-83762554D01*
X154570505Y-83762558D01*
X154698287Y-83855396D01*
X154717006Y-83868996D01*
X154797983Y-83910256D01*
X154878360Y-83951211D01*
X154878363Y-83951212D01*
X154964476Y-83979191D01*
X155050591Y-84007171D01*
X155133429Y-84020291D01*
X155229449Y-84035500D01*
X155229454Y-84035500D01*
X155410551Y-84035500D01*
X155497259Y-84021765D01*
X155589409Y-84007171D01*
X155677223Y-83978638D01*
X155712630Y-83967135D01*
X155712630Y-83967134D01*
X155761639Y-83951211D01*
X155922994Y-83868996D01*
X156069501Y-83762553D01*
X156197553Y-83634501D01*
X156303996Y-83487994D01*
X156386211Y-83326639D01*
X156442171Y-83154409D01*
X156456765Y-83062259D01*
X156470500Y-82975551D01*
X156470500Y-81794448D01*
X160349500Y-81794448D01*
X160349500Y-82975551D01*
X160377829Y-83154410D01*
X160433787Y-83326636D01*
X160433788Y-83326639D01*
X160516006Y-83487997D01*
X160622441Y-83634494D01*
X160622445Y-83634499D01*
X160750500Y-83762554D01*
X160750505Y-83762558D01*
X160878287Y-83855396D01*
X160897006Y-83868996D01*
X160977983Y-83910256D01*
X161058360Y-83951211D01*
X161058363Y-83951212D01*
X161144476Y-83979191D01*
X161230591Y-84007171D01*
X161313429Y-84020291D01*
X161409449Y-84035500D01*
X161409454Y-84035500D01*
X161590551Y-84035500D01*
X161677259Y-84021765D01*
X161769409Y-84007171D01*
X161941639Y-83951211D01*
X162102994Y-83868996D01*
X162249501Y-83762553D01*
X162377553Y-83634501D01*
X162483996Y-83487994D01*
X162566211Y-83326639D01*
X162622171Y-83154409D01*
X162636765Y-83062259D01*
X162650500Y-82975551D01*
X162650500Y-82284500D01*
X162670185Y-82217461D01*
X162722989Y-82171706D01*
X162774500Y-82160500D01*
X163010890Y-82160500D01*
X163010892Y-82160500D01*
X163138186Y-82126392D01*
X163252314Y-82060500D01*
X163345500Y-81967314D01*
X163411392Y-81853186D01*
X163445500Y-81725892D01*
X163445500Y-81594108D01*
X168319500Y-81594108D01*
X168319500Y-81725891D01*
X168353608Y-81853187D01*
X168386554Y-81910250D01*
X168419500Y-81967314D01*
X168512686Y-82060500D01*
X168626814Y-82126392D01*
X168754108Y-82160500D01*
X168754110Y-82160500D01*
X168865500Y-82160500D01*
X168932539Y-82180185D01*
X168978294Y-82232989D01*
X168989500Y-82284500D01*
X168989500Y-82975551D01*
X169017829Y-83154410D01*
X169073787Y-83326636D01*
X169073788Y-83326639D01*
X169156006Y-83487997D01*
X169262441Y-83634494D01*
X169262445Y-83634499D01*
X169390500Y-83762554D01*
X169390505Y-83762558D01*
X169518287Y-83855396D01*
X169537006Y-83868996D01*
X169617983Y-83910256D01*
X169698360Y-83951211D01*
X169698363Y-83951212D01*
X169784476Y-83979191D01*
X169870591Y-84007171D01*
X169953429Y-84020291D01*
X170049449Y-84035500D01*
X170049454Y-84035500D01*
X170230551Y-84035500D01*
X170317259Y-84021765D01*
X170409409Y-84007171D01*
X170581639Y-83951211D01*
X170742994Y-83868996D01*
X170889501Y-83762553D01*
X171017553Y-83634501D01*
X171123996Y-83487994D01*
X171206211Y-83326639D01*
X171262171Y-83154409D01*
X171276765Y-83062259D01*
X171290500Y-82975551D01*
X171290500Y-81794448D01*
X171274019Y-81690397D01*
X171262171Y-81615591D01*
X171206211Y-81443361D01*
X171206211Y-81443360D01*
X171160008Y-81352683D01*
X171123996Y-81282006D01*
X171107645Y-81259500D01*
X171017558Y-81135505D01*
X171017554Y-81135500D01*
X170889499Y-81007445D01*
X170889494Y-81007441D01*
X170742997Y-80901006D01*
X170742996Y-80901005D01*
X170742994Y-80901004D01*
X170691300Y-80874664D01*
X170581639Y-80818788D01*
X170581636Y-80818787D01*
X170409410Y-80762829D01*
X170230551Y-80734500D01*
X170230546Y-80734500D01*
X170049454Y-80734500D01*
X170049449Y-80734500D01*
X169870589Y-80762829D01*
X169698363Y-80818787D01*
X169698360Y-80818788D01*
X169537002Y-80901006D01*
X169390505Y-81007441D01*
X169390500Y-81007445D01*
X169262445Y-81135500D01*
X169262441Y-81135505D01*
X169224671Y-81187492D01*
X169169341Y-81230158D01*
X169099728Y-81236137D01*
X169062353Y-81221994D01*
X169013189Y-81193609D01*
X169013186Y-81193608D01*
X168885892Y-81159500D01*
X168754108Y-81159500D01*
X168626812Y-81193608D01*
X168512686Y-81259500D01*
X168512683Y-81259502D01*
X168419502Y-81352683D01*
X168419500Y-81352686D01*
X168353608Y-81466812D01*
X168319500Y-81594108D01*
X163445500Y-81594108D01*
X163411392Y-81466814D01*
X163345500Y-81352686D01*
X163252314Y-81259500D01*
X163187352Y-81221994D01*
X163138187Y-81193608D01*
X163074539Y-81176554D01*
X163010892Y-81159500D01*
X162629108Y-81159500D01*
X162524640Y-81187492D01*
X162515459Y-81189952D01*
X162445609Y-81188289D01*
X162387747Y-81149126D01*
X162383044Y-81143057D01*
X162377554Y-81135500D01*
X162249499Y-81007445D01*
X162249494Y-81007441D01*
X162102997Y-80901006D01*
X162102996Y-80901005D01*
X162102994Y-80901004D01*
X162051300Y-80874664D01*
X161941639Y-80818788D01*
X161941636Y-80818787D01*
X161769410Y-80762829D01*
X161590551Y-80734500D01*
X161590546Y-80734500D01*
X161409454Y-80734500D01*
X161409449Y-80734500D01*
X161230589Y-80762829D01*
X161058363Y-80818787D01*
X161058360Y-80818788D01*
X160897002Y-80901006D01*
X160750505Y-81007441D01*
X160750500Y-81007445D01*
X160622445Y-81135500D01*
X160622441Y-81135505D01*
X160516006Y-81282002D01*
X160433788Y-81443360D01*
X160433787Y-81443363D01*
X160377829Y-81615589D01*
X160349500Y-81794448D01*
X156470500Y-81794448D01*
X156454019Y-81690397D01*
X156442171Y-81615591D01*
X156386211Y-81443361D01*
X156386211Y-81443360D01*
X156340008Y-81352683D01*
X156303996Y-81282006D01*
X156287645Y-81259500D01*
X156197558Y-81135505D01*
X156197554Y-81135500D01*
X156069499Y-81007445D01*
X156069494Y-81007441D01*
X155922997Y-80901006D01*
X155922996Y-80901005D01*
X155922994Y-80901004D01*
X155871300Y-80874664D01*
X155761639Y-80818788D01*
X155761636Y-80818787D01*
X155589410Y-80762829D01*
X155410551Y-80734500D01*
X155410546Y-80734500D01*
X155229454Y-80734500D01*
X155229449Y-80734500D01*
X155050589Y-80762829D01*
X154878363Y-80818787D01*
X154878360Y-80818788D01*
X154717002Y-80901006D01*
X154570505Y-81007441D01*
X154570500Y-81007445D01*
X154442445Y-81135500D01*
X154442441Y-81135505D01*
X154404671Y-81187492D01*
X154349341Y-81230158D01*
X154279728Y-81236137D01*
X154242353Y-81221994D01*
X154193189Y-81193609D01*
X154193186Y-81193608D01*
X154065892Y-81159500D01*
X153934108Y-81159500D01*
X153806812Y-81193608D01*
X153692686Y-81259500D01*
X153692683Y-81259502D01*
X153599502Y-81352683D01*
X153599500Y-81352686D01*
X153533608Y-81466812D01*
X153499500Y-81594108D01*
X148625500Y-81594108D01*
X148591392Y-81466814D01*
X148525500Y-81352686D01*
X148432314Y-81259500D01*
X148367352Y-81221994D01*
X148318187Y-81193608D01*
X148254539Y-81176554D01*
X148190892Y-81159500D01*
X147809108Y-81159500D01*
X147704640Y-81187492D01*
X147695459Y-81189952D01*
X147625609Y-81188289D01*
X147567747Y-81149126D01*
X147563044Y-81143057D01*
X147557554Y-81135500D01*
X147429499Y-81007445D01*
X147429494Y-81007441D01*
X147282997Y-80901006D01*
X147282996Y-80901005D01*
X147282994Y-80901004D01*
X147231300Y-80874664D01*
X147121639Y-80818788D01*
X147121636Y-80818787D01*
X146949410Y-80762829D01*
X146770551Y-80734500D01*
X146770546Y-80734500D01*
X146589454Y-80734500D01*
X146589449Y-80734500D01*
X146410589Y-80762829D01*
X146238363Y-80818787D01*
X146238360Y-80818788D01*
X146077002Y-80901006D01*
X145930505Y-81007441D01*
X145930500Y-81007445D01*
X145802445Y-81135500D01*
X145802441Y-81135505D01*
X145696006Y-81282002D01*
X145613788Y-81443360D01*
X145613787Y-81443363D01*
X145557829Y-81615589D01*
X145529500Y-81794448D01*
X111760000Y-81794448D01*
X111760000Y-80213239D01*
X111779685Y-80146200D01*
X111832489Y-80100445D01*
X111864603Y-80090766D01*
X111866282Y-80090500D01*
X111866287Y-80090500D01*
X112028855Y-80064751D01*
X112076238Y-80057247D01*
X112076238Y-80057246D01*
X112076243Y-80057246D01*
X112278412Y-79991557D01*
X112467816Y-79895051D01*
X112554138Y-79832335D01*
X112639786Y-79770109D01*
X112639788Y-79770106D01*
X112639792Y-79770104D01*
X112790104Y-79619792D01*
X112790106Y-79619788D01*
X112790109Y-79619786D01*
X112875890Y-79501717D01*
X112915051Y-79447816D01*
X112919793Y-79438508D01*
X112967763Y-79387711D01*
X113035583Y-79370911D01*
X113101719Y-79393445D01*
X113140763Y-79438500D01*
X113145373Y-79447547D01*
X113184728Y-79501716D01*
X113817037Y-78869408D01*
X113834075Y-78932993D01*
X113899901Y-79047007D01*
X113992993Y-79140099D01*
X114107007Y-79205925D01*
X114170590Y-79222962D01*
X113538282Y-79855269D01*
X113538282Y-79855270D01*
X113592449Y-79894624D01*
X113781782Y-79991095D01*
X113983870Y-80056757D01*
X114193754Y-80090000D01*
X114406246Y-80090000D01*
X114616127Y-80056757D01*
X114616130Y-80056757D01*
X114818217Y-79991095D01*
X115007554Y-79894622D01*
X115061716Y-79855270D01*
X115061717Y-79855270D01*
X114429408Y-79222962D01*
X114492993Y-79205925D01*
X114607007Y-79140099D01*
X114700099Y-79047007D01*
X114765925Y-78932993D01*
X114782962Y-78869408D01*
X115415270Y-79501717D01*
X115415270Y-79501716D01*
X115454622Y-79447555D01*
X115459232Y-79438507D01*
X115507205Y-79387709D01*
X115575025Y-79370912D01*
X115641161Y-79393447D01*
X115680204Y-79438504D01*
X115684949Y-79447817D01*
X115809890Y-79619786D01*
X115960213Y-79770109D01*
X116132179Y-79895048D01*
X116132181Y-79895049D01*
X116132184Y-79895051D01*
X116321588Y-79991557D01*
X116523757Y-80057246D01*
X116733713Y-80090500D01*
X116733714Y-80090500D01*
X116946286Y-80090500D01*
X116946287Y-80090500D01*
X117156243Y-80057246D01*
X117358412Y-79991557D01*
X117547816Y-79895051D01*
X117634138Y-79832335D01*
X117719786Y-79770109D01*
X117719788Y-79770106D01*
X117719792Y-79770104D01*
X117870104Y-79619792D01*
X117870106Y-79619788D01*
X117870109Y-79619786D01*
X117995048Y-79447820D01*
X117995047Y-79447820D01*
X117995051Y-79447816D01*
X117999514Y-79439054D01*
X118047488Y-79388259D01*
X118115308Y-79371463D01*
X118181444Y-79393999D01*
X118220486Y-79439056D01*
X118224951Y-79447820D01*
X118349890Y-79619786D01*
X118500213Y-79770109D01*
X118672179Y-79895048D01*
X118672181Y-79895049D01*
X118672184Y-79895051D01*
X118861588Y-79991557D01*
X119063757Y-80057246D01*
X119273713Y-80090500D01*
X119273714Y-80090500D01*
X119486286Y-80090500D01*
X119486287Y-80090500D01*
X119696243Y-80057246D01*
X119898412Y-79991557D01*
X120087816Y-79895051D01*
X120174138Y-79832335D01*
X120259786Y-79770109D01*
X120259788Y-79770106D01*
X120259792Y-79770104D01*
X120410104Y-79619792D01*
X120410106Y-79619788D01*
X120410109Y-79619786D01*
X120535048Y-79447820D01*
X120535047Y-79447820D01*
X120535051Y-79447816D01*
X120539514Y-79439054D01*
X120587488Y-79388259D01*
X120655308Y-79371463D01*
X120721444Y-79393999D01*
X120760486Y-79439056D01*
X120764951Y-79447820D01*
X120889890Y-79619786D01*
X121040213Y-79770109D01*
X121212179Y-79895048D01*
X121212181Y-79895049D01*
X121212184Y-79895051D01*
X121401588Y-79991557D01*
X121603757Y-80057246D01*
X121813713Y-80090500D01*
X121813714Y-80090500D01*
X122026286Y-80090500D01*
X122026287Y-80090500D01*
X122236243Y-80057246D01*
X122438412Y-79991557D01*
X122627816Y-79895051D01*
X122714138Y-79832335D01*
X122799786Y-79770109D01*
X122799788Y-79770106D01*
X122799792Y-79770104D01*
X122950104Y-79619792D01*
X122950106Y-79619788D01*
X122950109Y-79619786D01*
X123075048Y-79447820D01*
X123075047Y-79447820D01*
X123075051Y-79447816D01*
X123079514Y-79439054D01*
X123127488Y-79388259D01*
X123195308Y-79371463D01*
X123261444Y-79393999D01*
X123300486Y-79439056D01*
X123304951Y-79447820D01*
X123429890Y-79619786D01*
X123580213Y-79770109D01*
X123752179Y-79895048D01*
X123752181Y-79895049D01*
X123752184Y-79895051D01*
X123941588Y-79991557D01*
X124143757Y-80057246D01*
X124353713Y-80090500D01*
X124353714Y-80090500D01*
X124566286Y-80090500D01*
X124566287Y-80090500D01*
X124776243Y-80057246D01*
X124978412Y-79991557D01*
X125167816Y-79895051D01*
X125254138Y-79832335D01*
X125339786Y-79770109D01*
X125339788Y-79770106D01*
X125339792Y-79770104D01*
X125490104Y-79619792D01*
X125490106Y-79619788D01*
X125490109Y-79619786D01*
X125615048Y-79447820D01*
X125615047Y-79447820D01*
X125615051Y-79447816D01*
X125619514Y-79439054D01*
X125667488Y-79388259D01*
X125735308Y-79371463D01*
X125801444Y-79393999D01*
X125840486Y-79439056D01*
X125844951Y-79447820D01*
X125969890Y-79619786D01*
X126120213Y-79770109D01*
X126292179Y-79895048D01*
X126292181Y-79895049D01*
X126292184Y-79895051D01*
X126481588Y-79991557D01*
X126683757Y-80057246D01*
X126893713Y-80090500D01*
X126893714Y-80090500D01*
X127106286Y-80090500D01*
X127106287Y-80090500D01*
X127316243Y-80057246D01*
X127518412Y-79991557D01*
X127707816Y-79895051D01*
X127794138Y-79832335D01*
X127879786Y-79770109D01*
X127879788Y-79770106D01*
X127879792Y-79770104D01*
X128030104Y-79619792D01*
X128030106Y-79619788D01*
X128030109Y-79619786D01*
X128155048Y-79447820D01*
X128155047Y-79447820D01*
X128155051Y-79447816D01*
X128159514Y-79439054D01*
X128207488Y-79388259D01*
X128275308Y-79371463D01*
X128341444Y-79393999D01*
X128380486Y-79439056D01*
X128384951Y-79447820D01*
X128509890Y-79619786D01*
X128660213Y-79770109D01*
X128832179Y-79895048D01*
X128832181Y-79895049D01*
X128832184Y-79895051D01*
X129021588Y-79991557D01*
X129223757Y-80057246D01*
X129433713Y-80090500D01*
X129433714Y-80090500D01*
X129646286Y-80090500D01*
X129646287Y-80090500D01*
X129856243Y-80057246D01*
X130058412Y-79991557D01*
X130247816Y-79895051D01*
X130334138Y-79832335D01*
X130419786Y-79770109D01*
X130419788Y-79770106D01*
X130419792Y-79770104D01*
X130570104Y-79619792D01*
X130570106Y-79619788D01*
X130570109Y-79619786D01*
X130695048Y-79447820D01*
X130695047Y-79447820D01*
X130695051Y-79447816D01*
X130699514Y-79439054D01*
X130747488Y-79388259D01*
X130815308Y-79371463D01*
X130881444Y-79393999D01*
X130920486Y-79439056D01*
X130924951Y-79447820D01*
X131049890Y-79619786D01*
X131200213Y-79770109D01*
X131372179Y-79895048D01*
X131372181Y-79895049D01*
X131372184Y-79895051D01*
X131561588Y-79991557D01*
X131763757Y-80057246D01*
X131973713Y-80090500D01*
X131973714Y-80090500D01*
X132186286Y-80090500D01*
X132186287Y-80090500D01*
X132396243Y-80057246D01*
X132598412Y-79991557D01*
X132787816Y-79895051D01*
X132874138Y-79832335D01*
X132959786Y-79770109D01*
X132959788Y-79770106D01*
X132959792Y-79770104D01*
X133110104Y-79619792D01*
X133110106Y-79619788D01*
X133110109Y-79619786D01*
X133235048Y-79447820D01*
X133235047Y-79447820D01*
X133235051Y-79447816D01*
X133239514Y-79439054D01*
X133287488Y-79388259D01*
X133355308Y-79371463D01*
X133421444Y-79393999D01*
X133460486Y-79439056D01*
X133464951Y-79447820D01*
X133589890Y-79619786D01*
X133740213Y-79770109D01*
X133912179Y-79895048D01*
X133912181Y-79895049D01*
X133912184Y-79895051D01*
X134101588Y-79991557D01*
X134303757Y-80057246D01*
X134513713Y-80090500D01*
X134513714Y-80090500D01*
X134726286Y-80090500D01*
X134726287Y-80090500D01*
X134936243Y-80057246D01*
X135138412Y-79991557D01*
X135327816Y-79895051D01*
X135414138Y-79832335D01*
X135499786Y-79770109D01*
X135499788Y-79770106D01*
X135499792Y-79770104D01*
X135650104Y-79619792D01*
X135650106Y-79619788D01*
X135650109Y-79619786D01*
X135775048Y-79447820D01*
X135775047Y-79447820D01*
X135775051Y-79447816D01*
X135779514Y-79439054D01*
X135827488Y-79388259D01*
X135895308Y-79371463D01*
X135961444Y-79393999D01*
X136000486Y-79439056D01*
X136004951Y-79447820D01*
X136129890Y-79619786D01*
X136280213Y-79770109D01*
X136452179Y-79895048D01*
X136452181Y-79895049D01*
X136452184Y-79895051D01*
X136641588Y-79991557D01*
X136843757Y-80057246D01*
X137053713Y-80090500D01*
X137053714Y-80090500D01*
X137266286Y-80090500D01*
X137266287Y-80090500D01*
X137476243Y-80057246D01*
X137678412Y-79991557D01*
X137867816Y-79895051D01*
X137954138Y-79832335D01*
X138039786Y-79770109D01*
X138039788Y-79770106D01*
X138039792Y-79770104D01*
X138190104Y-79619792D01*
X138190106Y-79619788D01*
X138190109Y-79619786D01*
X138315048Y-79447820D01*
X138315047Y-79447820D01*
X138315051Y-79447816D01*
X138319514Y-79439054D01*
X138367488Y-79388259D01*
X138435308Y-79371463D01*
X138501444Y-79393999D01*
X138540486Y-79439056D01*
X138544951Y-79447820D01*
X138669890Y-79619786D01*
X138820213Y-79770109D01*
X138992179Y-79895048D01*
X138992181Y-79895049D01*
X138992184Y-79895051D01*
X139181588Y-79991557D01*
X139383757Y-80057246D01*
X139593713Y-80090500D01*
X139593714Y-80090500D01*
X139806286Y-80090500D01*
X139806287Y-80090500D01*
X140016243Y-80057246D01*
X140218412Y-79991557D01*
X140407816Y-79895051D01*
X140494147Y-79832328D01*
X140579784Y-79770110D01*
X140579784Y-79770109D01*
X140579792Y-79770104D01*
X140693329Y-79656566D01*
X140754648Y-79623084D01*
X140824340Y-79628068D01*
X140880274Y-79669939D01*
X140897189Y-79700917D01*
X140946202Y-79832328D01*
X140946206Y-79832335D01*
X141032452Y-79947544D01*
X141032455Y-79947547D01*
X141147664Y-80033793D01*
X141147671Y-80033797D01*
X141282517Y-80084091D01*
X141282516Y-80084091D01*
X141289444Y-80084835D01*
X141342127Y-80090500D01*
X143137872Y-80090499D01*
X143197483Y-80084091D01*
X143332331Y-80033796D01*
X143447546Y-79947546D01*
X143533796Y-79832331D01*
X143584091Y-79697483D01*
X143590500Y-79637873D01*
X143590499Y-77842128D01*
X143584091Y-77782517D01*
X143582810Y-77779083D01*
X143533797Y-77647671D01*
X143533793Y-77647664D01*
X143447547Y-77532455D01*
X143447544Y-77532452D01*
X143332335Y-77446206D01*
X143332328Y-77446202D01*
X143197482Y-77395908D01*
X143197483Y-77395908D01*
X143137883Y-77389501D01*
X143137881Y-77389500D01*
X143137873Y-77389500D01*
X143137864Y-77389500D01*
X141342129Y-77389500D01*
X141342123Y-77389501D01*
X141282516Y-77395908D01*
X141147671Y-77446202D01*
X141147664Y-77446206D01*
X141032455Y-77532452D01*
X141032452Y-77532455D01*
X140946206Y-77647664D01*
X140946203Y-77647669D01*
X140897189Y-77779083D01*
X140855317Y-77835016D01*
X140789853Y-77859433D01*
X140721580Y-77844581D01*
X140693326Y-77823430D01*
X140579786Y-77709890D01*
X140407820Y-77584951D01*
X140218414Y-77488444D01*
X140218413Y-77488443D01*
X140218412Y-77488443D01*
X140016243Y-77422754D01*
X140016241Y-77422753D01*
X140016240Y-77422753D01*
X139854957Y-77397208D01*
X139806287Y-77389500D01*
X139593713Y-77389500D01*
X139545042Y-77397208D01*
X139383760Y-77422753D01*
X139181585Y-77488444D01*
X138992179Y-77584951D01*
X138820213Y-77709890D01*
X138669890Y-77860213D01*
X138544949Y-78032182D01*
X138540484Y-78040946D01*
X138492509Y-78091742D01*
X138424688Y-78108536D01*
X138358553Y-78085998D01*
X138319516Y-78040946D01*
X138315050Y-78032182D01*
X138190109Y-77860213D01*
X138039786Y-77709890D01*
X137867820Y-77584951D01*
X137678414Y-77488444D01*
X137678413Y-77488443D01*
X137678412Y-77488443D01*
X137476243Y-77422754D01*
X137476241Y-77422753D01*
X137476240Y-77422753D01*
X137314957Y-77397208D01*
X137266287Y-77389500D01*
X137053713Y-77389500D01*
X137005042Y-77397208D01*
X136843760Y-77422753D01*
X136641585Y-77488444D01*
X136452179Y-77584951D01*
X136280213Y-77709890D01*
X136129890Y-77860213D01*
X136004949Y-78032182D01*
X136000484Y-78040946D01*
X135952509Y-78091742D01*
X135884688Y-78108536D01*
X135818553Y-78085998D01*
X135779516Y-78040946D01*
X135775050Y-78032182D01*
X135650109Y-77860213D01*
X135499786Y-77709890D01*
X135327820Y-77584951D01*
X135138414Y-77488444D01*
X135138413Y-77488443D01*
X135138412Y-77488443D01*
X134936243Y-77422754D01*
X134936241Y-77422753D01*
X134936240Y-77422753D01*
X134774957Y-77397208D01*
X134726287Y-77389500D01*
X134513713Y-77389500D01*
X134465042Y-77397208D01*
X134303760Y-77422753D01*
X134101585Y-77488444D01*
X133912179Y-77584951D01*
X133740213Y-77709890D01*
X133589890Y-77860213D01*
X133464949Y-78032182D01*
X133460484Y-78040946D01*
X133412509Y-78091742D01*
X133344688Y-78108536D01*
X133278553Y-78085998D01*
X133239516Y-78040946D01*
X133235050Y-78032182D01*
X133110109Y-77860213D01*
X132959786Y-77709890D01*
X132787820Y-77584951D01*
X132598414Y-77488444D01*
X132598413Y-77488443D01*
X132598412Y-77488443D01*
X132396243Y-77422754D01*
X132396241Y-77422753D01*
X132396240Y-77422753D01*
X132234957Y-77397208D01*
X132186287Y-77389500D01*
X131973713Y-77389500D01*
X131925042Y-77397208D01*
X131763760Y-77422753D01*
X131561585Y-77488444D01*
X131372179Y-77584951D01*
X131200213Y-77709890D01*
X131049890Y-77860213D01*
X130924949Y-78032182D01*
X130920484Y-78040946D01*
X130872509Y-78091742D01*
X130804688Y-78108536D01*
X130738553Y-78085998D01*
X130699516Y-78040946D01*
X130695050Y-78032182D01*
X130570109Y-77860213D01*
X130419786Y-77709890D01*
X130247820Y-77584951D01*
X130058414Y-77488444D01*
X130058413Y-77488443D01*
X130058412Y-77488443D01*
X129856243Y-77422754D01*
X129856241Y-77422753D01*
X129856240Y-77422753D01*
X129694957Y-77397208D01*
X129646287Y-77389500D01*
X129433713Y-77389500D01*
X129385042Y-77397208D01*
X129223760Y-77422753D01*
X129021585Y-77488444D01*
X128832179Y-77584951D01*
X128660213Y-77709890D01*
X128509890Y-77860213D01*
X128384949Y-78032182D01*
X128380484Y-78040946D01*
X128332509Y-78091742D01*
X128264688Y-78108536D01*
X128198553Y-78085998D01*
X128159516Y-78040946D01*
X128155050Y-78032182D01*
X128030109Y-77860213D01*
X127879786Y-77709890D01*
X127707820Y-77584951D01*
X127518414Y-77488444D01*
X127518413Y-77488443D01*
X127518412Y-77488443D01*
X127316243Y-77422754D01*
X127316241Y-77422753D01*
X127316240Y-77422753D01*
X127154957Y-77397208D01*
X127106287Y-77389500D01*
X126893713Y-77389500D01*
X126845042Y-77397208D01*
X126683760Y-77422753D01*
X126481585Y-77488444D01*
X126292179Y-77584951D01*
X126120213Y-77709890D01*
X125969890Y-77860213D01*
X125844949Y-78032182D01*
X125840484Y-78040946D01*
X125792509Y-78091742D01*
X125724688Y-78108536D01*
X125658553Y-78085998D01*
X125619516Y-78040946D01*
X125615050Y-78032182D01*
X125490109Y-77860213D01*
X125339786Y-77709890D01*
X125167820Y-77584951D01*
X124978414Y-77488444D01*
X124978413Y-77488443D01*
X124978412Y-77488443D01*
X124776243Y-77422754D01*
X124776241Y-77422753D01*
X124776240Y-77422753D01*
X124614957Y-77397208D01*
X124566287Y-77389500D01*
X124353713Y-77389500D01*
X124305042Y-77397208D01*
X124143760Y-77422753D01*
X123941585Y-77488444D01*
X123752179Y-77584951D01*
X123580213Y-77709890D01*
X123429890Y-77860213D01*
X123304949Y-78032182D01*
X123300484Y-78040946D01*
X123252509Y-78091742D01*
X123184688Y-78108536D01*
X123118553Y-78085998D01*
X123079516Y-78040946D01*
X123075050Y-78032182D01*
X122950109Y-77860213D01*
X122799786Y-77709890D01*
X122627820Y-77584951D01*
X122438414Y-77488444D01*
X122438413Y-77488443D01*
X122438412Y-77488443D01*
X122236243Y-77422754D01*
X122236241Y-77422753D01*
X122236240Y-77422753D01*
X122074957Y-77397208D01*
X122026287Y-77389500D01*
X121813713Y-77389500D01*
X121765042Y-77397208D01*
X121603760Y-77422753D01*
X121401585Y-77488444D01*
X121212179Y-77584951D01*
X121040213Y-77709890D01*
X120889890Y-77860213D01*
X120764949Y-78032182D01*
X120760484Y-78040946D01*
X120712509Y-78091742D01*
X120644688Y-78108536D01*
X120578553Y-78085998D01*
X120539516Y-78040946D01*
X120535050Y-78032182D01*
X120410109Y-77860213D01*
X120259786Y-77709890D01*
X120087820Y-77584951D01*
X119898414Y-77488444D01*
X119898413Y-77488443D01*
X119898412Y-77488443D01*
X119696243Y-77422754D01*
X119696241Y-77422753D01*
X119696240Y-77422753D01*
X119534957Y-77397208D01*
X119486287Y-77389500D01*
X119273713Y-77389500D01*
X119225042Y-77397208D01*
X119063760Y-77422753D01*
X118861585Y-77488444D01*
X118672179Y-77584951D01*
X118500213Y-77709890D01*
X118349890Y-77860213D01*
X118224949Y-78032182D01*
X118220484Y-78040946D01*
X118172509Y-78091742D01*
X118104688Y-78108536D01*
X118038553Y-78085998D01*
X117999516Y-78040946D01*
X117995050Y-78032182D01*
X117870109Y-77860213D01*
X117719786Y-77709890D01*
X117547820Y-77584951D01*
X117358414Y-77488444D01*
X117358413Y-77488443D01*
X117358412Y-77488443D01*
X117156243Y-77422754D01*
X117156241Y-77422753D01*
X117156240Y-77422753D01*
X116994957Y-77397208D01*
X116946287Y-77389500D01*
X116733713Y-77389500D01*
X116685042Y-77397208D01*
X116523760Y-77422753D01*
X116321585Y-77488444D01*
X116132179Y-77584951D01*
X115960213Y-77709890D01*
X115809890Y-77860213D01*
X115684949Y-78032182D01*
X115680202Y-78041499D01*
X115632227Y-78092293D01*
X115564405Y-78109087D01*
X115498271Y-78086548D01*
X115459234Y-78041495D01*
X115454626Y-78032452D01*
X115415270Y-77978282D01*
X115415269Y-77978282D01*
X114782962Y-78610590D01*
X114765925Y-78547007D01*
X114700099Y-78432993D01*
X114607007Y-78339901D01*
X114492993Y-78274075D01*
X114429409Y-78257037D01*
X115061716Y-77624728D01*
X115007550Y-77585375D01*
X114818217Y-77488904D01*
X114616129Y-77423242D01*
X114406246Y-77390000D01*
X114193754Y-77390000D01*
X113983872Y-77423242D01*
X113983869Y-77423242D01*
X113781782Y-77488904D01*
X113592439Y-77585380D01*
X113538282Y-77624727D01*
X113538282Y-77624728D01*
X114170591Y-78257037D01*
X114107007Y-78274075D01*
X113992993Y-78339901D01*
X113899901Y-78432993D01*
X113834075Y-78547007D01*
X113817037Y-78610591D01*
X113184728Y-77978282D01*
X113184727Y-77978282D01*
X113145380Y-78032440D01*
X113145376Y-78032446D01*
X113140760Y-78041505D01*
X113092781Y-78092297D01*
X113024959Y-78109087D01*
X112958826Y-78086543D01*
X112919794Y-78041493D01*
X112915051Y-78032184D01*
X112915049Y-78032181D01*
X112915048Y-78032179D01*
X112790109Y-77860213D01*
X112639786Y-77709890D01*
X112467820Y-77584951D01*
X112278414Y-77488444D01*
X112278413Y-77488443D01*
X112278412Y-77488443D01*
X112076243Y-77422754D01*
X112076241Y-77422753D01*
X112076239Y-77422753D01*
X111864602Y-77389233D01*
X111801467Y-77359304D01*
X111764536Y-77299992D01*
X111760000Y-77266760D01*
X111760000Y-76824500D01*
X111779685Y-76757461D01*
X111832489Y-76711706D01*
X111884000Y-76700500D01*
X146005752Y-76700500D01*
X146072791Y-76720185D01*
G37*
%TD.AperFunction*%
%TD*%
%TA.AperFunction,Conductor*%
%TO.N,P3V3*%
G36*
X140224493Y-102919685D02*
G01*
X140233583Y-102926120D01*
X141052129Y-103562767D01*
X141092961Y-103619464D01*
X141100000Y-103660647D01*
X141100000Y-106680000D01*
X138300000Y-106680000D01*
X138300000Y-103660647D01*
X138319685Y-103593608D01*
X138347871Y-103562767D01*
X139166417Y-102926120D01*
X139231420Y-102900500D01*
X139242546Y-102900000D01*
X140157454Y-102900000D01*
X140224493Y-102919685D01*
G37*
%TD.AperFunction*%
%TD*%
%TA.AperFunction,Conductor*%
%TO.N,P1V2*%
G36*
X117662539Y-85109685D02*
G01*
X117708294Y-85162489D01*
X117719500Y-85214000D01*
X117719500Y-85252727D01*
X117746793Y-85354587D01*
X117799520Y-85445913D01*
X117874087Y-85520480D01*
X117965413Y-85573207D01*
X118067273Y-85600500D01*
X118067275Y-85600500D01*
X118172725Y-85600500D01*
X118172727Y-85600500D01*
X118274587Y-85573207D01*
X118365913Y-85520480D01*
X118440480Y-85445913D01*
X118493207Y-85354587D01*
X118520500Y-85252727D01*
X118520500Y-85214000D01*
X118540185Y-85146961D01*
X118592989Y-85101206D01*
X118644500Y-85090000D01*
X139648638Y-85090000D01*
X139715677Y-85109685D01*
X139736319Y-85126319D01*
X143473681Y-88863681D01*
X143507166Y-88925004D01*
X143510000Y-88951362D01*
X143510000Y-92832114D01*
X143490315Y-92899153D01*
X143437511Y-92944908D01*
X143368353Y-92954852D01*
X143304797Y-92925827D01*
X143298319Y-92919795D01*
X143218017Y-92839493D01*
X143218011Y-92839488D01*
X143092488Y-92767017D01*
X143092489Y-92767017D01*
X143081006Y-92763940D01*
X142952475Y-92729500D01*
X142807525Y-92729500D01*
X142678993Y-92763940D01*
X142667511Y-92767017D01*
X142541988Y-92839488D01*
X142541982Y-92839493D01*
X142439493Y-92941982D01*
X142439488Y-92941988D01*
X142367017Y-93067511D01*
X142367016Y-93067515D01*
X142329500Y-93207525D01*
X142329500Y-93352475D01*
X142367016Y-93492485D01*
X142367017Y-93492488D01*
X142439488Y-93618011D01*
X142439490Y-93618013D01*
X142439491Y-93618015D01*
X142541985Y-93720509D01*
X142541986Y-93720510D01*
X142541988Y-93720511D01*
X142667511Y-93792982D01*
X142667512Y-93792982D01*
X142667515Y-93792984D01*
X142807525Y-93830500D01*
X142807528Y-93830500D01*
X142952472Y-93830500D01*
X142952475Y-93830500D01*
X143092485Y-93792984D01*
X143218015Y-93720509D01*
X143298319Y-93640205D01*
X143359642Y-93606720D01*
X143429334Y-93611704D01*
X143485267Y-93653576D01*
X143509684Y-93719040D01*
X143510000Y-93727886D01*
X143510000Y-93980000D01*
X133474000Y-93980000D01*
X133406961Y-93960315D01*
X133361206Y-93907511D01*
X133350000Y-93856000D01*
X133350000Y-91440000D01*
X130934000Y-91440000D01*
X130866961Y-91420315D01*
X130821206Y-91367511D01*
X130810000Y-91316000D01*
X130810000Y-87630000D01*
X118745000Y-87630000D01*
X118714043Y-87660957D01*
X118700671Y-87674329D01*
X118639347Y-87707813D01*
X118569656Y-87702828D01*
X118513722Y-87660957D01*
X118489306Y-87595492D01*
X118491021Y-87577525D01*
X140139500Y-87577525D01*
X140139500Y-87722475D01*
X140153094Y-87773207D01*
X140177017Y-87862488D01*
X140249488Y-87988011D01*
X140249490Y-87988013D01*
X140249491Y-87988015D01*
X140351985Y-88090509D01*
X140351986Y-88090510D01*
X140351988Y-88090511D01*
X140477511Y-88162982D01*
X140477512Y-88162982D01*
X140477515Y-88162984D01*
X140617525Y-88200500D01*
X140617528Y-88200500D01*
X140762472Y-88200500D01*
X140762475Y-88200500D01*
X140902485Y-88162984D01*
X141028015Y-88090509D01*
X141130509Y-87988015D01*
X141202984Y-87862485D01*
X141240500Y-87722475D01*
X141240500Y-87577525D01*
X141202984Y-87437515D01*
X141130509Y-87311985D01*
X141028015Y-87209491D01*
X141028013Y-87209490D01*
X141028011Y-87209488D01*
X140902488Y-87137017D01*
X140902489Y-87137017D01*
X140891006Y-87133940D01*
X140762475Y-87099500D01*
X140617525Y-87099500D01*
X140488993Y-87133940D01*
X140477511Y-87137017D01*
X140351988Y-87209488D01*
X140351982Y-87209493D01*
X140249493Y-87311982D01*
X140249488Y-87311988D01*
X140177017Y-87437511D01*
X140177016Y-87437515D01*
X140139500Y-87577525D01*
X118491021Y-87577525D01*
X118493214Y-87554559D01*
X118520500Y-87452727D01*
X118520500Y-87347273D01*
X118493207Y-87245413D01*
X118440480Y-87154087D01*
X118365913Y-87079520D01*
X118274587Y-87026793D01*
X118172727Y-86999500D01*
X118067273Y-86999500D01*
X117965413Y-87026793D01*
X117965410Y-87026794D01*
X117874085Y-87079521D01*
X117799521Y-87154085D01*
X117746794Y-87245410D01*
X117746793Y-87245413D01*
X117719500Y-87347273D01*
X117719500Y-87452727D01*
X117746793Y-87554587D01*
X117799520Y-87645913D01*
X117874087Y-87720480D01*
X117965413Y-87773207D01*
X118067273Y-87800500D01*
X118067275Y-87800500D01*
X118172724Y-87800500D01*
X118172727Y-87800500D01*
X118274556Y-87773215D01*
X118344403Y-87774878D01*
X118402266Y-87814040D01*
X118429770Y-87878269D01*
X118418184Y-87947171D01*
X118394328Y-87980671D01*
X115570000Y-90804999D01*
X115570000Y-100206000D01*
X115550315Y-100273039D01*
X115497511Y-100318794D01*
X115446000Y-100330000D01*
X111884000Y-100330000D01*
X111816961Y-100310315D01*
X111771206Y-100257511D01*
X111760000Y-100206000D01*
X111760000Y-88970492D01*
X111779685Y-88903453D01*
X111799649Y-88879603D01*
X114299998Y-86559102D01*
X114299998Y-86559101D01*
X114300000Y-86559100D01*
X114300000Y-86557525D01*
X120999500Y-86557525D01*
X120999500Y-86702475D01*
X121037016Y-86842485D01*
X121037017Y-86842488D01*
X121109488Y-86968011D01*
X121109490Y-86968013D01*
X121109491Y-86968015D01*
X121211985Y-87070509D01*
X121211986Y-87070510D01*
X121211988Y-87070511D01*
X121337511Y-87142982D01*
X121337512Y-87142982D01*
X121337515Y-87142984D01*
X121477525Y-87180500D01*
X121477528Y-87180500D01*
X121622472Y-87180500D01*
X121622475Y-87180500D01*
X121762485Y-87142984D01*
X121888015Y-87070509D01*
X121990509Y-86968015D01*
X122062984Y-86842485D01*
X122100500Y-86702475D01*
X122100500Y-86557525D01*
X122062984Y-86417515D01*
X121990509Y-86291985D01*
X121888015Y-86189491D01*
X121888013Y-86189490D01*
X121888011Y-86189488D01*
X121762488Y-86117017D01*
X121762489Y-86117017D01*
X121751006Y-86113940D01*
X121622475Y-86079500D01*
X121477525Y-86079500D01*
X121348993Y-86113940D01*
X121337511Y-86117017D01*
X121211988Y-86189488D01*
X121211982Y-86189493D01*
X121109493Y-86291982D01*
X121109488Y-86291988D01*
X121037017Y-86417511D01*
X121037016Y-86417515D01*
X120999500Y-86557525D01*
X114300000Y-86557525D01*
X114300000Y-85214000D01*
X114319685Y-85146961D01*
X114372489Y-85101206D01*
X114424000Y-85090000D01*
X117595500Y-85090000D01*
X117662539Y-85109685D01*
G37*
%TD.AperFunction*%
%TD*%
%TA.AperFunction,Conductor*%
%TO.N,P1V2*%
G36*
X143510000Y-93980001D02*
G01*
X144195828Y-94556493D01*
X144199956Y-94564439D01*
X144200000Y-94565449D01*
X144200000Y-100288300D01*
X144196573Y-100296573D01*
X144188300Y-100300000D01*
X141300000Y-100300000D01*
X140800000Y-100700000D01*
X140800000Y-102500000D01*
X141300000Y-102900000D01*
X144188300Y-102900000D01*
X144196573Y-102903427D01*
X144200000Y-102911700D01*
X144200000Y-106088300D01*
X144196573Y-106096573D01*
X144188300Y-106100000D01*
X141311700Y-106100000D01*
X141303427Y-106096573D01*
X141300000Y-106088300D01*
X141300000Y-104760435D01*
X141799500Y-104760435D01*
X141799500Y-104839564D01*
X141819977Y-104915987D01*
X141819979Y-104915991D01*
X141859537Y-104984507D01*
X141859539Y-104984510D01*
X141859540Y-104984511D01*
X141915489Y-105040460D01*
X141915490Y-105040461D01*
X141915492Y-105040462D01*
X141984008Y-105080020D01*
X141984012Y-105080022D01*
X142044285Y-105096171D01*
X142060435Y-105100499D01*
X142060436Y-105100500D01*
X142060438Y-105100500D01*
X142139564Y-105100500D01*
X142139564Y-105100499D01*
X142177775Y-105090260D01*
X142215987Y-105080022D01*
X142215991Y-105080020D01*
X142238829Y-105066834D01*
X142284511Y-105040460D01*
X142340460Y-104984511D01*
X142380021Y-104915989D01*
X142400499Y-104839564D01*
X142400500Y-104839564D01*
X142400500Y-104760435D01*
X142599500Y-104760435D01*
X142599500Y-104839564D01*
X142619977Y-104915987D01*
X142619979Y-104915991D01*
X142659537Y-104984507D01*
X142659539Y-104984510D01*
X142659540Y-104984511D01*
X142715489Y-105040460D01*
X142715490Y-105040461D01*
X142715492Y-105040462D01*
X142784008Y-105080020D01*
X142784012Y-105080022D01*
X142844285Y-105096171D01*
X142860435Y-105100499D01*
X142860436Y-105100500D01*
X142860438Y-105100500D01*
X142939564Y-105100500D01*
X142939564Y-105100499D01*
X142977775Y-105090260D01*
X143015987Y-105080022D01*
X143015991Y-105080020D01*
X143038829Y-105066834D01*
X143084511Y-105040460D01*
X143140460Y-104984511D01*
X143180021Y-104915989D01*
X143200499Y-104839564D01*
X143200500Y-104839564D01*
X143200500Y-104760435D01*
X143180022Y-104684012D01*
X143180020Y-104684008D01*
X143140462Y-104615492D01*
X143140458Y-104615487D01*
X143084512Y-104559541D01*
X143084507Y-104559537D01*
X143015991Y-104519979D01*
X143015987Y-104519977D01*
X142939565Y-104499500D01*
X142939562Y-104499500D01*
X142860438Y-104499500D01*
X142860435Y-104499500D01*
X142784012Y-104519977D01*
X142784008Y-104519979D01*
X142715492Y-104559537D01*
X142715487Y-104559541D01*
X142659541Y-104615487D01*
X142659537Y-104615492D01*
X142619979Y-104684008D01*
X142619977Y-104684012D01*
X142599500Y-104760435D01*
X142400500Y-104760435D01*
X142380022Y-104684012D01*
X142380020Y-104684008D01*
X142340462Y-104615492D01*
X142340458Y-104615487D01*
X142284512Y-104559541D01*
X142284507Y-104559537D01*
X142215991Y-104519979D01*
X142215987Y-104519977D01*
X142139565Y-104499500D01*
X142139562Y-104499500D01*
X142060438Y-104499500D01*
X142060435Y-104499500D01*
X141984012Y-104519977D01*
X141984008Y-104519979D01*
X141915492Y-104559537D01*
X141915487Y-104559541D01*
X141859541Y-104615487D01*
X141859537Y-104615492D01*
X141819979Y-104684008D01*
X141819977Y-104684012D01*
X141799500Y-104760435D01*
X141300000Y-104760435D01*
X141300000Y-103500000D01*
X140300000Y-102700000D01*
X139100000Y-102700000D01*
X138100000Y-103500000D01*
X138100000Y-106088300D01*
X138096573Y-106096573D01*
X138088300Y-106100000D01*
X135211700Y-106100000D01*
X135203427Y-106096573D01*
X135200000Y-106088300D01*
X135200000Y-102911700D01*
X135203427Y-102903427D01*
X135211700Y-102900000D01*
X138100000Y-102900000D01*
X138600000Y-102500000D01*
X138600000Y-100700000D01*
X138100000Y-100300000D01*
X135211700Y-100300000D01*
X135203427Y-100296573D01*
X135200000Y-100288300D01*
X135200000Y-97111700D01*
X135203427Y-97103427D01*
X135211700Y-97100000D01*
X138088300Y-97100000D01*
X138096573Y-97103427D01*
X138100000Y-97111700D01*
X138100000Y-99700001D01*
X138138555Y-99730844D01*
X138150941Y-99740753D01*
X138153978Y-99743182D01*
X138157882Y-99748977D01*
X138164920Y-99772602D01*
X138164923Y-99772609D01*
X138169347Y-99780388D01*
X138209050Y-99826258D01*
X138209055Y-99826263D01*
X138777979Y-100268758D01*
X139101363Y-100520279D01*
X139146357Y-100544615D01*
X139153540Y-100547080D01*
X139204014Y-100555500D01*
X139204017Y-100555500D01*
X140195983Y-100555500D01*
X140195986Y-100555500D01*
X140246460Y-100547080D01*
X140253643Y-100544615D01*
X140298637Y-100520279D01*
X141190951Y-99826257D01*
X141198379Y-99820100D01*
X141199469Y-99819138D01*
X141240235Y-99762061D01*
X141243662Y-99753788D01*
X141244891Y-99747607D01*
X141249055Y-99740755D01*
X141300000Y-99700000D01*
X141300000Y-93980000D01*
X143510000Y-93980000D01*
X143510000Y-93980001D01*
G37*
%TD.AperFunction*%
%TD*%
%TA.AperFunction,Conductor*%
%TO.N,P3V3*%
G36*
X144780000Y-102700000D02*
G01*
X141441333Y-102700000D01*
X141374294Y-102680315D01*
X141366933Y-102675200D01*
X141049600Y-102437200D01*
X141007779Y-102381229D01*
X141000000Y-102338000D01*
X141000000Y-100862000D01*
X141019685Y-100794961D01*
X141049600Y-100762800D01*
X141366933Y-100524799D01*
X141432375Y-100500324D01*
X141441333Y-100500000D01*
X144780000Y-100500000D01*
X144780000Y-102700000D01*
G37*
%TD.AperFunction*%
%TD*%
%TA.AperFunction,Conductor*%
%TO.N,P3V3*%
G36*
X129483039Y-88919685D02*
G01*
X129528794Y-88972489D01*
X129540000Y-89024000D01*
X129540000Y-97790000D01*
X133350000Y-97790000D01*
X133350000Y-95374000D01*
X133369685Y-95306961D01*
X133422489Y-95261206D01*
X133474000Y-95250000D01*
X138300000Y-95250000D01*
X138300000Y-96520000D01*
X134620000Y-96520000D01*
X134620000Y-97790000D01*
X134620000Y-100500000D01*
X134620000Y-102700000D01*
X134620000Y-106680000D01*
X138300000Y-106680000D01*
X141100000Y-106680000D01*
X144780000Y-106680000D01*
X144780000Y-102700000D01*
X144780000Y-100500000D01*
X149736000Y-100500000D01*
X149803039Y-100519685D01*
X149848794Y-100572489D01*
X149860000Y-100624000D01*
X149860000Y-106680000D01*
X171450000Y-106680000D01*
X171450000Y-95879500D01*
X171469685Y-95812461D01*
X171522489Y-95766706D01*
X171574000Y-95755500D01*
X177175500Y-95755500D01*
X177242539Y-95775185D01*
X177288294Y-95827989D01*
X177299500Y-95879500D01*
X177299500Y-126375500D01*
X177279815Y-126442539D01*
X177227011Y-126488294D01*
X177175500Y-126499500D01*
X125854000Y-126499500D01*
X125786961Y-126479815D01*
X125741206Y-126427011D01*
X125730000Y-126375500D01*
X125730000Y-125391236D01*
X125749685Y-125324197D01*
X125802489Y-125278442D01*
X125871647Y-125268498D01*
X125935203Y-125297523D01*
X125954320Y-125318353D01*
X125969894Y-125339790D01*
X126120213Y-125490109D01*
X126292179Y-125615048D01*
X126292181Y-125615049D01*
X126292184Y-125615051D01*
X126481588Y-125711557D01*
X126683757Y-125777246D01*
X126893713Y-125810500D01*
X126893714Y-125810500D01*
X127106286Y-125810500D01*
X127106287Y-125810500D01*
X127316243Y-125777246D01*
X127518412Y-125711557D01*
X127707816Y-125615051D01*
X127794138Y-125552335D01*
X127879786Y-125490109D01*
X127879788Y-125490106D01*
X127879792Y-125490104D01*
X128030104Y-125339792D01*
X128030106Y-125339788D01*
X128030109Y-125339786D01*
X128115890Y-125221717D01*
X128155051Y-125167816D01*
X128159793Y-125158508D01*
X128207763Y-125107711D01*
X128275583Y-125090911D01*
X128341719Y-125113445D01*
X128380763Y-125158500D01*
X128385373Y-125167547D01*
X128424728Y-125221716D01*
X129057037Y-124589408D01*
X129074075Y-124652993D01*
X129139901Y-124767007D01*
X129232993Y-124860099D01*
X129347007Y-124925925D01*
X129410590Y-124942962D01*
X128778282Y-125575269D01*
X128778282Y-125575270D01*
X128832449Y-125614624D01*
X129021782Y-125711095D01*
X129223870Y-125776757D01*
X129433754Y-125810000D01*
X129646246Y-125810000D01*
X129856127Y-125776757D01*
X129856130Y-125776757D01*
X130058217Y-125711095D01*
X130247554Y-125614622D01*
X130301716Y-125575270D01*
X130301717Y-125575270D01*
X129669408Y-124942962D01*
X129732993Y-124925925D01*
X129847007Y-124860099D01*
X129940099Y-124767007D01*
X130005925Y-124652993D01*
X130022962Y-124589408D01*
X130655270Y-125221717D01*
X130655270Y-125221716D01*
X130694622Y-125167555D01*
X130699232Y-125158507D01*
X130747205Y-125107709D01*
X130815025Y-125090912D01*
X130881161Y-125113447D01*
X130920204Y-125158504D01*
X130924949Y-125167817D01*
X131049890Y-125339786D01*
X131200213Y-125490109D01*
X131372179Y-125615048D01*
X131372181Y-125615049D01*
X131372184Y-125615051D01*
X131561588Y-125711557D01*
X131763757Y-125777246D01*
X131973713Y-125810500D01*
X131973714Y-125810500D01*
X132186286Y-125810500D01*
X132186287Y-125810500D01*
X132396243Y-125777246D01*
X132598412Y-125711557D01*
X132787816Y-125615051D01*
X132874138Y-125552335D01*
X132959786Y-125490109D01*
X132959788Y-125490106D01*
X132959792Y-125490104D01*
X133110104Y-125339792D01*
X133110106Y-125339788D01*
X133110109Y-125339786D01*
X133235048Y-125167820D01*
X133235047Y-125167820D01*
X133235051Y-125167816D01*
X133331557Y-124978412D01*
X133397246Y-124776243D01*
X133430500Y-124566287D01*
X133430500Y-124353713D01*
X135809500Y-124353713D01*
X135809500Y-124566287D01*
X135815212Y-124602351D01*
X135830983Y-124701928D01*
X135842754Y-124776243D01*
X135891969Y-124927712D01*
X135908444Y-124978414D01*
X136004951Y-125167820D01*
X136129890Y-125339786D01*
X136280213Y-125490109D01*
X136452179Y-125615048D01*
X136452181Y-125615049D01*
X136452184Y-125615051D01*
X136641588Y-125711557D01*
X136843757Y-125777246D01*
X137053713Y-125810500D01*
X137053714Y-125810500D01*
X137266286Y-125810500D01*
X137266287Y-125810500D01*
X137476243Y-125777246D01*
X137678412Y-125711557D01*
X137867816Y-125615051D01*
X137954138Y-125552335D01*
X138039786Y-125490109D01*
X138039788Y-125490106D01*
X138039792Y-125490104D01*
X138190104Y-125339792D01*
X138190106Y-125339788D01*
X138190109Y-125339786D01*
X138275890Y-125221717D01*
X138315051Y-125167816D01*
X138319793Y-125158508D01*
X138367763Y-125107711D01*
X138435583Y-125090911D01*
X138501719Y-125113445D01*
X138540763Y-125158500D01*
X138545373Y-125167547D01*
X138584728Y-125221716D01*
X139217037Y-124589408D01*
X139234075Y-124652993D01*
X139299901Y-124767007D01*
X139392993Y-124860099D01*
X139507007Y-124925925D01*
X139570590Y-124942962D01*
X138938282Y-125575269D01*
X138938282Y-125575270D01*
X138992449Y-125614624D01*
X139181782Y-125711095D01*
X139383870Y-125776757D01*
X139593754Y-125810000D01*
X139806246Y-125810000D01*
X140016127Y-125776757D01*
X140016130Y-125776757D01*
X140218217Y-125711095D01*
X140407554Y-125614622D01*
X140461716Y-125575270D01*
X140461717Y-125575270D01*
X139829408Y-124942962D01*
X139892993Y-124925925D01*
X140007007Y-124860099D01*
X140100099Y-124767007D01*
X140165925Y-124652993D01*
X140182962Y-124589409D01*
X140815270Y-125221717D01*
X140815270Y-125221716D01*
X140854622Y-125167555D01*
X140859232Y-125158507D01*
X140907205Y-125107709D01*
X140975025Y-125090912D01*
X141041161Y-125113447D01*
X141080204Y-125158504D01*
X141084949Y-125167817D01*
X141209890Y-125339786D01*
X141360213Y-125490109D01*
X141532179Y-125615048D01*
X141532181Y-125615049D01*
X141532184Y-125615051D01*
X141721588Y-125711557D01*
X141923757Y-125777246D01*
X142133713Y-125810500D01*
X142133714Y-125810500D01*
X142346286Y-125810500D01*
X142346287Y-125810500D01*
X142556243Y-125777246D01*
X142758412Y-125711557D01*
X142947816Y-125615051D01*
X143034138Y-125552335D01*
X143119786Y-125490109D01*
X143119788Y-125490106D01*
X143119792Y-125490104D01*
X143270104Y-125339792D01*
X143270106Y-125339788D01*
X143270109Y-125339786D01*
X143395048Y-125167820D01*
X143395047Y-125167820D01*
X143395051Y-125167816D01*
X143399514Y-125159054D01*
X143447488Y-125108259D01*
X143515308Y-125091463D01*
X143581444Y-125113999D01*
X143620486Y-125159056D01*
X143624951Y-125167820D01*
X143749890Y-125339786D01*
X143900213Y-125490109D01*
X144072179Y-125615048D01*
X144072181Y-125615049D01*
X144072184Y-125615051D01*
X144261588Y-125711557D01*
X144463757Y-125777246D01*
X144673713Y-125810500D01*
X144673714Y-125810500D01*
X144886286Y-125810500D01*
X144886287Y-125810500D01*
X145096243Y-125777246D01*
X145298412Y-125711557D01*
X145487816Y-125615051D01*
X145574138Y-125552335D01*
X145659786Y-125490109D01*
X145659788Y-125490106D01*
X145659792Y-125490104D01*
X145810104Y-125339792D01*
X145810106Y-125339788D01*
X145810109Y-125339786D01*
X145935048Y-125167820D01*
X145935047Y-125167820D01*
X145935051Y-125167816D01*
X145939514Y-125159054D01*
X145987488Y-125108259D01*
X146055308Y-125091463D01*
X146121444Y-125113999D01*
X146160486Y-125159056D01*
X146164951Y-125167820D01*
X146289890Y-125339786D01*
X146440213Y-125490109D01*
X146612179Y-125615048D01*
X146612181Y-125615049D01*
X146612184Y-125615051D01*
X146801588Y-125711557D01*
X147003757Y-125777246D01*
X147213713Y-125810500D01*
X147213714Y-125810500D01*
X147426286Y-125810500D01*
X147426287Y-125810500D01*
X147636243Y-125777246D01*
X147838412Y-125711557D01*
X148027816Y-125615051D01*
X148114138Y-125552335D01*
X148199786Y-125490109D01*
X148199788Y-125490106D01*
X148199792Y-125490104D01*
X148350104Y-125339792D01*
X148350106Y-125339788D01*
X148350109Y-125339786D01*
X148475048Y-125167820D01*
X148475047Y-125167820D01*
X148475051Y-125167816D01*
X148479514Y-125159054D01*
X148527488Y-125108259D01*
X148595308Y-125091463D01*
X148661444Y-125113999D01*
X148700486Y-125159056D01*
X148704951Y-125167820D01*
X148829890Y-125339786D01*
X148980213Y-125490109D01*
X149152179Y-125615048D01*
X149152181Y-125615049D01*
X149152184Y-125615051D01*
X149341588Y-125711557D01*
X149543757Y-125777246D01*
X149753713Y-125810500D01*
X149753714Y-125810500D01*
X149966286Y-125810500D01*
X149966287Y-125810500D01*
X150176243Y-125777246D01*
X150378412Y-125711557D01*
X150567816Y-125615051D01*
X150654138Y-125552335D01*
X150739786Y-125490109D01*
X150739788Y-125490106D01*
X150739792Y-125490104D01*
X150890104Y-125339792D01*
X150890106Y-125339788D01*
X150890109Y-125339786D01*
X151015048Y-125167820D01*
X151015047Y-125167820D01*
X151015051Y-125167816D01*
X151019514Y-125159054D01*
X151067488Y-125108259D01*
X151135308Y-125091463D01*
X151201444Y-125113999D01*
X151240486Y-125159056D01*
X151244951Y-125167820D01*
X151369890Y-125339786D01*
X151520213Y-125490109D01*
X151692179Y-125615048D01*
X151692181Y-125615049D01*
X151692184Y-125615051D01*
X151881588Y-125711557D01*
X152083757Y-125777246D01*
X152293713Y-125810500D01*
X152293714Y-125810500D01*
X152506286Y-125810500D01*
X152506287Y-125810500D01*
X152716243Y-125777246D01*
X152918412Y-125711557D01*
X153107816Y-125615051D01*
X153194138Y-125552335D01*
X153279786Y-125490109D01*
X153279788Y-125490106D01*
X153279792Y-125490104D01*
X153430104Y-125339792D01*
X153430106Y-125339788D01*
X153430109Y-125339786D01*
X153555048Y-125167820D01*
X153555047Y-125167820D01*
X153555051Y-125167816D01*
X153559514Y-125159054D01*
X153607488Y-125108259D01*
X153675308Y-125091463D01*
X153741444Y-125113999D01*
X153780486Y-125159056D01*
X153784951Y-125167820D01*
X153909890Y-125339786D01*
X154060213Y-125490109D01*
X154232179Y-125615048D01*
X154232181Y-125615049D01*
X154232184Y-125615051D01*
X154421588Y-125711557D01*
X154623757Y-125777246D01*
X154833713Y-125810500D01*
X154833714Y-125810500D01*
X155046286Y-125810500D01*
X155046287Y-125810500D01*
X155256243Y-125777246D01*
X155458412Y-125711557D01*
X155647816Y-125615051D01*
X155734138Y-125552335D01*
X155819786Y-125490109D01*
X155819788Y-125490106D01*
X155819792Y-125490104D01*
X155970104Y-125339792D01*
X155970106Y-125339788D01*
X155970109Y-125339786D01*
X156095048Y-125167820D01*
X156095047Y-125167820D01*
X156095051Y-125167816D01*
X156099514Y-125159054D01*
X156147488Y-125108259D01*
X156215308Y-125091463D01*
X156281444Y-125113999D01*
X156320486Y-125159056D01*
X156324951Y-125167820D01*
X156449890Y-125339786D01*
X156600213Y-125490109D01*
X156772179Y-125615048D01*
X156772181Y-125615049D01*
X156772184Y-125615051D01*
X156961588Y-125711557D01*
X157163757Y-125777246D01*
X157373713Y-125810500D01*
X157373714Y-125810500D01*
X157586286Y-125810500D01*
X157586287Y-125810500D01*
X157796243Y-125777246D01*
X157998412Y-125711557D01*
X158187816Y-125615051D01*
X158274138Y-125552335D01*
X158359786Y-125490109D01*
X158359788Y-125490106D01*
X158359792Y-125490104D01*
X158510104Y-125339792D01*
X158510106Y-125339788D01*
X158510109Y-125339786D01*
X158635048Y-125167820D01*
X158635047Y-125167820D01*
X158635051Y-125167816D01*
X158639514Y-125159054D01*
X158687488Y-125108259D01*
X158755308Y-125091463D01*
X158821444Y-125113999D01*
X158860486Y-125159056D01*
X158864951Y-125167820D01*
X158989890Y-125339786D01*
X159140213Y-125490109D01*
X159312179Y-125615048D01*
X159312181Y-125615049D01*
X159312184Y-125615051D01*
X159501588Y-125711557D01*
X159703757Y-125777246D01*
X159913713Y-125810500D01*
X159913714Y-125810500D01*
X160126286Y-125810500D01*
X160126287Y-125810500D01*
X160336243Y-125777246D01*
X160538412Y-125711557D01*
X160727816Y-125615051D01*
X160814138Y-125552335D01*
X160899786Y-125490109D01*
X160899788Y-125490106D01*
X160899792Y-125490104D01*
X161050104Y-125339792D01*
X161050106Y-125339788D01*
X161050109Y-125339786D01*
X161175048Y-125167820D01*
X161175047Y-125167820D01*
X161175051Y-125167816D01*
X161179514Y-125159054D01*
X161227488Y-125108259D01*
X161295308Y-125091463D01*
X161361444Y-125113999D01*
X161400486Y-125159056D01*
X161404951Y-125167820D01*
X161529890Y-125339786D01*
X161680213Y-125490109D01*
X161852179Y-125615048D01*
X161852181Y-125615049D01*
X161852184Y-125615051D01*
X162041588Y-125711557D01*
X162243757Y-125777246D01*
X162453713Y-125810500D01*
X162453714Y-125810500D01*
X162666286Y-125810500D01*
X162666287Y-125810500D01*
X162876243Y-125777246D01*
X163078412Y-125711557D01*
X163267816Y-125615051D01*
X163354138Y-125552335D01*
X163439786Y-125490109D01*
X163439788Y-125490106D01*
X163439792Y-125490104D01*
X163590104Y-125339792D01*
X163590106Y-125339788D01*
X163590109Y-125339786D01*
X163715048Y-125167820D01*
X163715047Y-125167820D01*
X163715051Y-125167816D01*
X163719514Y-125159054D01*
X163767488Y-125108259D01*
X163835308Y-125091463D01*
X163901444Y-125113999D01*
X163940486Y-125159056D01*
X163944951Y-125167820D01*
X164069890Y-125339786D01*
X164220213Y-125490109D01*
X164392179Y-125615048D01*
X164392181Y-125615049D01*
X164392184Y-125615051D01*
X164581588Y-125711557D01*
X164783757Y-125777246D01*
X164993713Y-125810500D01*
X164993714Y-125810500D01*
X165206286Y-125810500D01*
X165206287Y-125810500D01*
X165416243Y-125777246D01*
X165618412Y-125711557D01*
X165807816Y-125615051D01*
X165894138Y-125552335D01*
X165979786Y-125490109D01*
X165979788Y-125490106D01*
X165979792Y-125490104D01*
X166130104Y-125339792D01*
X166130106Y-125339788D01*
X166130109Y-125339786D01*
X166255048Y-125167820D01*
X166255047Y-125167820D01*
X166255051Y-125167816D01*
X166259514Y-125159054D01*
X166307488Y-125108259D01*
X166375308Y-125091463D01*
X166441444Y-125113999D01*
X166480486Y-125159056D01*
X166484951Y-125167820D01*
X166609890Y-125339786D01*
X166760213Y-125490109D01*
X166932179Y-125615048D01*
X166932181Y-125615049D01*
X166932184Y-125615051D01*
X167121588Y-125711557D01*
X167323757Y-125777246D01*
X167533713Y-125810500D01*
X167533714Y-125810500D01*
X167746286Y-125810500D01*
X167746287Y-125810500D01*
X167956243Y-125777246D01*
X168158412Y-125711557D01*
X168347816Y-125615051D01*
X168434147Y-125552328D01*
X168519784Y-125490110D01*
X168519784Y-125490109D01*
X168519792Y-125490104D01*
X168633329Y-125376566D01*
X168694648Y-125343084D01*
X168764340Y-125348068D01*
X168820274Y-125389939D01*
X168837189Y-125420917D01*
X168886202Y-125552328D01*
X168886206Y-125552335D01*
X168972452Y-125667544D01*
X168972455Y-125667547D01*
X169087664Y-125753793D01*
X169087671Y-125753797D01*
X169222517Y-125804091D01*
X169222516Y-125804091D01*
X169229444Y-125804835D01*
X169282127Y-125810500D01*
X171077872Y-125810499D01*
X171137483Y-125804091D01*
X171272331Y-125753796D01*
X171387546Y-125667546D01*
X171473796Y-125552331D01*
X171524091Y-125417483D01*
X171530500Y-125357873D01*
X171530499Y-124397648D01*
X173999500Y-124397648D01*
X173999500Y-124602351D01*
X174031522Y-124804534D01*
X174094781Y-124999223D01*
X174150339Y-125108259D01*
X174175941Y-125158507D01*
X174187715Y-125181613D01*
X174308028Y-125347213D01*
X174452786Y-125491971D01*
X174567440Y-125575270D01*
X174618390Y-125612287D01*
X174726838Y-125667544D01*
X174800776Y-125705218D01*
X174800778Y-125705218D01*
X174800781Y-125705220D01*
X174905137Y-125739127D01*
X174995465Y-125768477D01*
X175047743Y-125776757D01*
X175197648Y-125800500D01*
X175197649Y-125800500D01*
X175402351Y-125800500D01*
X175402352Y-125800500D01*
X175604534Y-125768477D01*
X175799219Y-125705220D01*
X175981610Y-125612287D01*
X176074590Y-125544732D01*
X176147213Y-125491971D01*
X176147215Y-125491968D01*
X176147219Y-125491966D01*
X176291966Y-125347219D01*
X176291968Y-125347215D01*
X176291971Y-125347213D01*
X176349160Y-125268498D01*
X176412287Y-125181610D01*
X176505220Y-124999219D01*
X176568477Y-124804534D01*
X176600500Y-124602352D01*
X176600500Y-124397648D01*
X176579808Y-124267007D01*
X176568477Y-124195465D01*
X176505218Y-124000776D01*
X176471503Y-123934607D01*
X176412287Y-123818390D01*
X176364381Y-123752452D01*
X176291971Y-123652786D01*
X176147213Y-123508028D01*
X175981613Y-123387715D01*
X175981612Y-123387714D01*
X175981610Y-123387713D01*
X175924653Y-123358691D01*
X175799223Y-123294781D01*
X175604534Y-123231522D01*
X175429995Y-123203878D01*
X175402352Y-123199500D01*
X175197648Y-123199500D01*
X175173329Y-123203351D01*
X174995465Y-123231522D01*
X174800776Y-123294781D01*
X174618386Y-123387715D01*
X174452786Y-123508028D01*
X174308028Y-123652786D01*
X174187715Y-123818386D01*
X174094781Y-124000776D01*
X174031522Y-124195465D01*
X173999500Y-124397648D01*
X171530499Y-124397648D01*
X171530499Y-123562128D01*
X171524091Y-123502517D01*
X171522810Y-123499083D01*
X171473797Y-123367671D01*
X171473793Y-123367664D01*
X171387547Y-123252455D01*
X171387544Y-123252452D01*
X171272335Y-123166206D01*
X171272328Y-123166202D01*
X171137482Y-123115908D01*
X171137483Y-123115908D01*
X171077883Y-123109501D01*
X171077881Y-123109500D01*
X171077873Y-123109500D01*
X171077864Y-123109500D01*
X169282129Y-123109500D01*
X169282123Y-123109501D01*
X169222516Y-123115908D01*
X169087671Y-123166202D01*
X169087664Y-123166206D01*
X168972455Y-123252452D01*
X168972452Y-123252455D01*
X168886206Y-123367664D01*
X168886203Y-123367669D01*
X168837189Y-123499083D01*
X168795317Y-123555016D01*
X168729853Y-123579433D01*
X168661580Y-123564581D01*
X168633326Y-123543430D01*
X168519786Y-123429890D01*
X168347820Y-123304951D01*
X168158414Y-123208444D01*
X168158413Y-123208443D01*
X168158412Y-123208443D01*
X167956243Y-123142754D01*
X167956241Y-123142753D01*
X167956240Y-123142753D01*
X167794957Y-123117208D01*
X167746287Y-123109500D01*
X167533713Y-123109500D01*
X167485042Y-123117208D01*
X167323760Y-123142753D01*
X167121585Y-123208444D01*
X166932179Y-123304951D01*
X166760213Y-123429890D01*
X166609890Y-123580213D01*
X166484949Y-123752182D01*
X166480484Y-123760946D01*
X166432509Y-123811742D01*
X166364688Y-123828536D01*
X166298553Y-123805998D01*
X166259516Y-123760946D01*
X166255050Y-123752182D01*
X166130109Y-123580213D01*
X165979786Y-123429890D01*
X165807820Y-123304951D01*
X165618414Y-123208444D01*
X165618413Y-123208443D01*
X165618412Y-123208443D01*
X165416243Y-123142754D01*
X165416241Y-123142753D01*
X165416240Y-123142753D01*
X165254957Y-123117208D01*
X165206287Y-123109500D01*
X164993713Y-123109500D01*
X164945042Y-123117208D01*
X164783760Y-123142753D01*
X164581585Y-123208444D01*
X164392179Y-123304951D01*
X164220213Y-123429890D01*
X164069890Y-123580213D01*
X163944949Y-123752182D01*
X163940484Y-123760946D01*
X163892509Y-123811742D01*
X163824688Y-123828536D01*
X163758553Y-123805998D01*
X163719516Y-123760946D01*
X163715050Y-123752182D01*
X163590109Y-123580213D01*
X163439786Y-123429890D01*
X163267820Y-123304951D01*
X163078414Y-123208444D01*
X163078413Y-123208443D01*
X163078412Y-123208443D01*
X162876243Y-123142754D01*
X162876241Y-123142753D01*
X162876240Y-123142753D01*
X162714957Y-123117208D01*
X162666287Y-123109500D01*
X162453713Y-123109500D01*
X162405042Y-123117208D01*
X162243760Y-123142753D01*
X162041585Y-123208444D01*
X161852179Y-123304951D01*
X161680213Y-123429890D01*
X161529890Y-123580213D01*
X161404949Y-123752182D01*
X161400484Y-123760946D01*
X161352509Y-123811742D01*
X161284688Y-123828536D01*
X161218553Y-123805998D01*
X161179516Y-123760946D01*
X161175050Y-123752182D01*
X161050109Y-123580213D01*
X160899786Y-123429890D01*
X160727820Y-123304951D01*
X160538414Y-123208444D01*
X160538413Y-123208443D01*
X160538412Y-123208443D01*
X160336243Y-123142754D01*
X160336241Y-123142753D01*
X160336240Y-123142753D01*
X160174957Y-123117208D01*
X160126287Y-123109500D01*
X159913713Y-123109500D01*
X159865042Y-123117208D01*
X159703760Y-123142753D01*
X159501585Y-123208444D01*
X159312179Y-123304951D01*
X159140213Y-123429890D01*
X158989890Y-123580213D01*
X158864949Y-123752182D01*
X158860484Y-123760946D01*
X158812509Y-123811742D01*
X158744688Y-123828536D01*
X158678553Y-123805998D01*
X158639516Y-123760946D01*
X158635050Y-123752182D01*
X158510109Y-123580213D01*
X158359786Y-123429890D01*
X158187820Y-123304951D01*
X157998414Y-123208444D01*
X157998413Y-123208443D01*
X157998412Y-123208443D01*
X157796243Y-123142754D01*
X157796241Y-123142753D01*
X157796240Y-123142753D01*
X157634957Y-123117208D01*
X157586287Y-123109500D01*
X157373713Y-123109500D01*
X157325042Y-123117208D01*
X157163760Y-123142753D01*
X156961585Y-123208444D01*
X156772179Y-123304951D01*
X156600213Y-123429890D01*
X156449890Y-123580213D01*
X156324949Y-123752182D01*
X156320484Y-123760946D01*
X156272509Y-123811742D01*
X156204688Y-123828536D01*
X156138553Y-123805998D01*
X156099516Y-123760946D01*
X156095050Y-123752182D01*
X155970109Y-123580213D01*
X155819786Y-123429890D01*
X155647820Y-123304951D01*
X155458414Y-123208444D01*
X155458413Y-123208443D01*
X155458412Y-123208443D01*
X155256243Y-123142754D01*
X155256241Y-123142753D01*
X155256240Y-123142753D01*
X155094957Y-123117208D01*
X155046287Y-123109500D01*
X154833713Y-123109500D01*
X154785042Y-123117208D01*
X154623760Y-123142753D01*
X154421585Y-123208444D01*
X154232179Y-123304951D01*
X154060213Y-123429890D01*
X153909890Y-123580213D01*
X153784949Y-123752182D01*
X153780484Y-123760946D01*
X153732509Y-123811742D01*
X153664688Y-123828536D01*
X153598553Y-123805998D01*
X153559516Y-123760946D01*
X153555050Y-123752182D01*
X153430109Y-123580213D01*
X153279786Y-123429890D01*
X153107820Y-123304951D01*
X152918414Y-123208444D01*
X152918413Y-123208443D01*
X152918412Y-123208443D01*
X152716243Y-123142754D01*
X152716241Y-123142753D01*
X152716240Y-123142753D01*
X152554957Y-123117208D01*
X152506287Y-123109500D01*
X152293713Y-123109500D01*
X152245042Y-123117208D01*
X152083760Y-123142753D01*
X151881585Y-123208444D01*
X151692179Y-123304951D01*
X151520213Y-123429890D01*
X151369890Y-123580213D01*
X151244949Y-123752182D01*
X151240484Y-123760946D01*
X151192509Y-123811742D01*
X151124688Y-123828536D01*
X151058553Y-123805998D01*
X151019516Y-123760946D01*
X151015050Y-123752182D01*
X150890109Y-123580213D01*
X150739786Y-123429890D01*
X150567820Y-123304951D01*
X150378414Y-123208444D01*
X150378413Y-123208443D01*
X150378412Y-123208443D01*
X150176243Y-123142754D01*
X150176241Y-123142753D01*
X150176240Y-123142753D01*
X150014957Y-123117208D01*
X149966287Y-123109500D01*
X149753713Y-123109500D01*
X149705042Y-123117208D01*
X149543760Y-123142753D01*
X149341585Y-123208444D01*
X149152179Y-123304951D01*
X148980213Y-123429890D01*
X148829890Y-123580213D01*
X148704949Y-123752182D01*
X148700484Y-123760946D01*
X148652509Y-123811742D01*
X148584688Y-123828536D01*
X148518553Y-123805998D01*
X148479516Y-123760946D01*
X148475050Y-123752182D01*
X148350109Y-123580213D01*
X148199786Y-123429890D01*
X148027820Y-123304951D01*
X147838414Y-123208444D01*
X147838413Y-123208443D01*
X147838412Y-123208443D01*
X147636243Y-123142754D01*
X147636241Y-123142753D01*
X147636240Y-123142753D01*
X147474957Y-123117208D01*
X147426287Y-123109500D01*
X147213713Y-123109500D01*
X147165042Y-123117208D01*
X147003760Y-123142753D01*
X146801585Y-123208444D01*
X146612179Y-123304951D01*
X146440213Y-123429890D01*
X146289890Y-123580213D01*
X146164949Y-123752182D01*
X146160484Y-123760946D01*
X146112509Y-123811742D01*
X146044688Y-123828536D01*
X145978553Y-123805998D01*
X145939516Y-123760946D01*
X145935050Y-123752182D01*
X145810109Y-123580213D01*
X145659786Y-123429890D01*
X145487820Y-123304951D01*
X145298414Y-123208444D01*
X145298413Y-123208443D01*
X145298412Y-123208443D01*
X145096243Y-123142754D01*
X145096241Y-123142753D01*
X145096240Y-123142753D01*
X144934957Y-123117208D01*
X144886287Y-123109500D01*
X144673713Y-123109500D01*
X144625042Y-123117208D01*
X144463760Y-123142753D01*
X144261585Y-123208444D01*
X144072179Y-123304951D01*
X143900213Y-123429890D01*
X143749890Y-123580213D01*
X143624949Y-123752182D01*
X143620484Y-123760946D01*
X143572509Y-123811742D01*
X143504688Y-123828536D01*
X143438553Y-123805998D01*
X143399516Y-123760946D01*
X143395050Y-123752182D01*
X143270109Y-123580213D01*
X143119786Y-123429890D01*
X142947820Y-123304951D01*
X142758414Y-123208444D01*
X142758413Y-123208443D01*
X142758412Y-123208443D01*
X142556243Y-123142754D01*
X142556241Y-123142753D01*
X142556240Y-123142753D01*
X142394957Y-123117208D01*
X142346287Y-123109500D01*
X142133713Y-123109500D01*
X142085042Y-123117208D01*
X141923760Y-123142753D01*
X141721585Y-123208444D01*
X141532179Y-123304951D01*
X141360213Y-123429890D01*
X141209890Y-123580213D01*
X141084949Y-123752182D01*
X141080202Y-123761499D01*
X141032227Y-123812293D01*
X140964405Y-123829087D01*
X140898271Y-123806548D01*
X140859234Y-123761495D01*
X140854626Y-123752452D01*
X140815270Y-123698282D01*
X140815269Y-123698282D01*
X140182962Y-124330590D01*
X140165925Y-124267007D01*
X140100099Y-124152993D01*
X140007007Y-124059901D01*
X139892993Y-123994075D01*
X139829409Y-123977037D01*
X140461716Y-123344728D01*
X140407550Y-123305375D01*
X140218217Y-123208904D01*
X140016129Y-123143242D01*
X139806246Y-123110000D01*
X139593754Y-123110000D01*
X139383872Y-123143242D01*
X139383869Y-123143242D01*
X139181782Y-123208904D01*
X138992439Y-123305380D01*
X138938282Y-123344727D01*
X138938282Y-123344728D01*
X139570591Y-123977037D01*
X139507007Y-123994075D01*
X139392993Y-124059901D01*
X139299901Y-124152993D01*
X139234075Y-124267007D01*
X139217037Y-124330591D01*
X138584728Y-123698282D01*
X138584727Y-123698282D01*
X138545380Y-123752440D01*
X138545376Y-123752446D01*
X138540760Y-123761505D01*
X138492781Y-123812297D01*
X138424959Y-123829087D01*
X138358826Y-123806543D01*
X138319794Y-123761493D01*
X138315051Y-123752184D01*
X138315049Y-123752181D01*
X138315048Y-123752179D01*
X138190109Y-123580213D01*
X138039786Y-123429890D01*
X137867820Y-123304951D01*
X137678414Y-123208444D01*
X137678413Y-123208443D01*
X137678412Y-123208443D01*
X137476243Y-123142754D01*
X137476241Y-123142753D01*
X137476240Y-123142753D01*
X137314957Y-123117208D01*
X137266287Y-123109500D01*
X137053713Y-123109500D01*
X137005042Y-123117208D01*
X136843760Y-123142753D01*
X136641585Y-123208444D01*
X136452179Y-123304951D01*
X136280213Y-123429890D01*
X136129890Y-123580213D01*
X136004951Y-123752179D01*
X135908444Y-123941585D01*
X135842753Y-124143760D01*
X135823233Y-124267007D01*
X135809500Y-124353713D01*
X133430500Y-124353713D01*
X133397246Y-124143757D01*
X133331557Y-123941588D01*
X133235051Y-123752184D01*
X133235049Y-123752181D01*
X133235048Y-123752179D01*
X133110109Y-123580213D01*
X132959786Y-123429890D01*
X132787820Y-123304951D01*
X132598414Y-123208444D01*
X132598413Y-123208443D01*
X132598412Y-123208443D01*
X132396243Y-123142754D01*
X132396241Y-123142753D01*
X132396240Y-123142753D01*
X132234957Y-123117208D01*
X132186287Y-123109500D01*
X131973713Y-123109500D01*
X131925042Y-123117208D01*
X131763760Y-123142753D01*
X131561585Y-123208444D01*
X131372179Y-123304951D01*
X131200213Y-123429890D01*
X131049890Y-123580213D01*
X130924949Y-123752182D01*
X130920202Y-123761499D01*
X130872227Y-123812293D01*
X130804405Y-123829087D01*
X130738271Y-123806548D01*
X130699234Y-123761495D01*
X130694626Y-123752452D01*
X130655270Y-123698282D01*
X130655269Y-123698282D01*
X130022962Y-124330590D01*
X130005925Y-124267007D01*
X129940099Y-124152993D01*
X129847007Y-124059901D01*
X129732993Y-123994075D01*
X129669409Y-123977037D01*
X130301716Y-123344728D01*
X130247550Y-123305375D01*
X130058217Y-123208904D01*
X129856129Y-123143242D01*
X129646246Y-123110000D01*
X129433754Y-123110000D01*
X129223872Y-123143242D01*
X129223869Y-123143242D01*
X129021782Y-123208904D01*
X128832439Y-123305380D01*
X128778282Y-123344727D01*
X128778282Y-123344728D01*
X129410591Y-123977037D01*
X129347007Y-123994075D01*
X129232993Y-124059901D01*
X129139901Y-124152993D01*
X129074075Y-124267007D01*
X129057037Y-124330591D01*
X128424728Y-123698282D01*
X128424727Y-123698282D01*
X128385380Y-123752440D01*
X128385376Y-123752446D01*
X128380760Y-123761505D01*
X128332781Y-123812297D01*
X128264959Y-123829087D01*
X128198826Y-123806543D01*
X128159794Y-123761493D01*
X128155051Y-123752184D01*
X128155049Y-123752181D01*
X128155048Y-123752179D01*
X128030109Y-123580213D01*
X127879786Y-123429890D01*
X127707820Y-123304951D01*
X127518414Y-123208444D01*
X127518413Y-123208443D01*
X127518412Y-123208443D01*
X127316243Y-123142754D01*
X127316241Y-123142753D01*
X127316240Y-123142753D01*
X127154957Y-123117208D01*
X127106287Y-123109500D01*
X126893713Y-123109500D01*
X126845042Y-123117208D01*
X126683760Y-123142753D01*
X126481585Y-123208444D01*
X126292179Y-123304951D01*
X126120213Y-123429890D01*
X125969894Y-123580209D01*
X125969890Y-123580214D01*
X125954318Y-123601648D01*
X125898988Y-123644314D01*
X125829375Y-123650293D01*
X125767580Y-123617688D01*
X125733223Y-123556849D01*
X125730000Y-123528763D01*
X125730000Y-113311153D01*
X149839500Y-113311153D01*
X149839500Y-113468846D01*
X149870261Y-113623489D01*
X149870264Y-113623501D01*
X149930602Y-113769172D01*
X149930609Y-113769185D01*
X150018210Y-113900288D01*
X150018213Y-113900292D01*
X150129707Y-114011786D01*
X150129711Y-114011789D01*
X150260814Y-114099390D01*
X150260827Y-114099397D01*
X150365526Y-114142764D01*
X150406503Y-114159737D01*
X150561153Y-114190499D01*
X150561156Y-114190500D01*
X150561158Y-114190500D01*
X150718844Y-114190500D01*
X150718845Y-114190499D01*
X150873497Y-114159737D01*
X150986166Y-114113067D01*
X151019172Y-114099397D01*
X151019172Y-114099396D01*
X151019179Y-114099394D01*
X151150289Y-114011789D01*
X151261789Y-113900289D01*
X151349394Y-113769179D01*
X151409737Y-113623497D01*
X151440500Y-113468842D01*
X151440500Y-113321153D01*
X154349500Y-113321153D01*
X154349500Y-113478846D01*
X154380261Y-113633489D01*
X154380264Y-113633501D01*
X154440602Y-113779172D01*
X154440609Y-113779185D01*
X154528210Y-113910288D01*
X154528213Y-113910292D01*
X154639707Y-114021786D01*
X154639711Y-114021789D01*
X154770814Y-114109390D01*
X154770827Y-114109397D01*
X154892363Y-114159738D01*
X154916503Y-114169737D01*
X155071153Y-114200499D01*
X155071156Y-114200500D01*
X155071158Y-114200500D01*
X155228844Y-114200500D01*
X155228845Y-114200499D01*
X155383497Y-114169737D01*
X155529179Y-114109394D01*
X155660289Y-114021789D01*
X155771789Y-113910289D01*
X155859394Y-113779179D01*
X155919737Y-113633497D01*
X155950500Y-113478842D01*
X155950500Y-113321158D01*
X155950500Y-113321155D01*
X155950499Y-113321153D01*
X155946215Y-113299617D01*
X155919737Y-113166503D01*
X155919735Y-113166498D01*
X155859397Y-113020827D01*
X155859390Y-113020814D01*
X155771789Y-112889711D01*
X155771786Y-112889707D01*
X155660292Y-112778213D01*
X155660288Y-112778210D01*
X155529185Y-112690609D01*
X155529172Y-112690602D01*
X155383501Y-112630264D01*
X155383489Y-112630261D01*
X155228845Y-112599500D01*
X155228842Y-112599500D01*
X155071158Y-112599500D01*
X155071155Y-112599500D01*
X154916510Y-112630261D01*
X154916498Y-112630264D01*
X154770827Y-112690602D01*
X154770814Y-112690609D01*
X154639711Y-112778210D01*
X154639707Y-112778213D01*
X154528213Y-112889707D01*
X154528210Y-112889711D01*
X154440609Y-113020814D01*
X154440602Y-113020827D01*
X154380264Y-113166498D01*
X154380261Y-113166510D01*
X154349500Y-113321153D01*
X151440500Y-113321153D01*
X151440500Y-113311158D01*
X151440500Y-113311155D01*
X151440499Y-113311153D01*
X151432085Y-113268854D01*
X151409737Y-113156503D01*
X151388513Y-113105263D01*
X151349397Y-113010827D01*
X151349390Y-113010814D01*
X151261789Y-112879711D01*
X151261786Y-112879707D01*
X151150292Y-112768213D01*
X151150288Y-112768210D01*
X151019185Y-112680609D01*
X151019172Y-112680602D01*
X150873501Y-112620264D01*
X150873489Y-112620261D01*
X150718845Y-112589500D01*
X150718842Y-112589500D01*
X150561158Y-112589500D01*
X150561155Y-112589500D01*
X150406510Y-112620261D01*
X150406498Y-112620264D01*
X150260827Y-112680602D01*
X150260814Y-112680609D01*
X150129711Y-112768210D01*
X150129707Y-112768213D01*
X150018213Y-112879707D01*
X150018210Y-112879711D01*
X149930609Y-113010814D01*
X149930602Y-113010827D01*
X149870264Y-113156498D01*
X149870261Y-113156510D01*
X149839500Y-113311153D01*
X125730000Y-113311153D01*
X125730000Y-113030000D01*
X124522153Y-111822153D01*
X125397500Y-111822153D01*
X125397500Y-111979846D01*
X125428261Y-112134489D01*
X125428264Y-112134501D01*
X125488602Y-112280172D01*
X125488609Y-112280185D01*
X125576210Y-112411288D01*
X125576213Y-112411292D01*
X125687707Y-112522786D01*
X125687711Y-112522789D01*
X125818814Y-112610390D01*
X125818827Y-112610397D01*
X125964498Y-112670735D01*
X125964503Y-112670737D01*
X126064391Y-112690606D01*
X126119153Y-112701499D01*
X126119156Y-112701500D01*
X126119158Y-112701500D01*
X126276844Y-112701500D01*
X126276845Y-112701499D01*
X126431497Y-112670737D01*
X126577179Y-112610394D01*
X126708289Y-112522789D01*
X126819789Y-112411289D01*
X126907394Y-112280179D01*
X126967737Y-112134497D01*
X126998500Y-111979842D01*
X126998500Y-111822158D01*
X126998500Y-111822155D01*
X126998499Y-111822153D01*
X126996968Y-111814454D01*
X126967737Y-111667503D01*
X126954519Y-111635591D01*
X126907397Y-111521827D01*
X126907390Y-111521814D01*
X126819789Y-111390711D01*
X126819786Y-111390707D01*
X126708292Y-111279213D01*
X126708288Y-111279210D01*
X126577185Y-111191609D01*
X126577172Y-111191602D01*
X126431501Y-111131264D01*
X126431489Y-111131261D01*
X126276845Y-111100500D01*
X126276842Y-111100500D01*
X126119158Y-111100500D01*
X126119155Y-111100500D01*
X125964510Y-111131261D01*
X125964498Y-111131264D01*
X125818827Y-111191602D01*
X125818814Y-111191609D01*
X125687711Y-111279210D01*
X125687707Y-111279213D01*
X125576213Y-111390707D01*
X125576210Y-111390711D01*
X125488609Y-111521814D01*
X125488602Y-111521827D01*
X125428264Y-111667498D01*
X125428261Y-111667510D01*
X125397500Y-111822153D01*
X124522153Y-111822153D01*
X122324071Y-109624071D01*
X135374499Y-109624071D01*
X135399497Y-109749738D01*
X135399499Y-109749744D01*
X135448533Y-109868124D01*
X135448538Y-109868133D01*
X135519723Y-109974668D01*
X135519726Y-109974672D01*
X135610327Y-110065273D01*
X135610331Y-110065276D01*
X135650173Y-110091898D01*
X135694978Y-110145510D01*
X135703685Y-110214835D01*
X135673530Y-110277863D01*
X135650173Y-110298102D01*
X135610331Y-110324723D01*
X135610327Y-110324726D01*
X135519726Y-110415327D01*
X135519723Y-110415331D01*
X135448538Y-110521866D01*
X135448533Y-110521875D01*
X135399499Y-110640255D01*
X135399497Y-110640261D01*
X135374500Y-110765928D01*
X135374500Y-110765931D01*
X135374500Y-110894069D01*
X135374500Y-110894071D01*
X135374499Y-110894071D01*
X135399497Y-111019738D01*
X135399499Y-111019744D01*
X135448533Y-111138124D01*
X135448538Y-111138133D01*
X135519723Y-111244668D01*
X135519726Y-111244672D01*
X135610327Y-111335273D01*
X135610331Y-111335276D01*
X135716866Y-111406461D01*
X135716872Y-111406464D01*
X135716873Y-111406465D01*
X135835256Y-111455501D01*
X135835260Y-111455501D01*
X135835261Y-111455502D01*
X135960928Y-111480500D01*
X135960931Y-111480500D01*
X136089071Y-111480500D01*
X136175230Y-111463361D01*
X136214744Y-111455501D01*
X136333127Y-111406465D01*
X136439669Y-111335276D01*
X136530276Y-111244669D01*
X136601465Y-111138127D01*
X136650501Y-111019744D01*
X136675500Y-110894069D01*
X136675500Y-110765931D01*
X136675500Y-110765928D01*
X136650502Y-110640261D01*
X136650501Y-110640260D01*
X136650501Y-110640256D01*
X136601465Y-110521873D01*
X136601464Y-110521872D01*
X136601461Y-110521866D01*
X136530276Y-110415331D01*
X136530273Y-110415327D01*
X136439671Y-110324725D01*
X136424382Y-110314509D01*
X136399825Y-110298101D01*
X136355022Y-110244491D01*
X136346314Y-110175166D01*
X136376468Y-110112138D01*
X136399826Y-110091898D01*
X136439669Y-110065276D01*
X136530276Y-109974669D01*
X136601465Y-109868127D01*
X136650501Y-109749744D01*
X136667997Y-109661789D01*
X136675500Y-109624071D01*
X136675500Y-109495928D01*
X136650502Y-109370261D01*
X136650501Y-109370260D01*
X136650501Y-109370256D01*
X136601465Y-109251873D01*
X136601464Y-109251872D01*
X136601461Y-109251866D01*
X136530276Y-109145331D01*
X136530273Y-109145327D01*
X136439672Y-109054726D01*
X136439668Y-109054723D01*
X136399926Y-109028168D01*
X136333133Y-108983538D01*
X136333124Y-108983533D01*
X136214744Y-108934499D01*
X136214738Y-108934497D01*
X136197927Y-108931153D01*
X149839500Y-108931153D01*
X149839500Y-109088846D01*
X149870261Y-109243489D01*
X149870264Y-109243501D01*
X149930602Y-109389172D01*
X149930609Y-109389185D01*
X150018210Y-109520288D01*
X150018213Y-109520292D01*
X150129707Y-109631786D01*
X150129711Y-109631789D01*
X150260814Y-109719390D01*
X150260827Y-109719397D01*
X150405156Y-109779179D01*
X150406503Y-109779737D01*
X150557312Y-109809735D01*
X150561153Y-109810499D01*
X150561156Y-109810500D01*
X150561158Y-109810500D01*
X150718844Y-109810500D01*
X150718845Y-109810499D01*
X150873497Y-109779737D01*
X151019179Y-109719394D01*
X151150289Y-109631789D01*
X151261789Y-109520289D01*
X151349394Y-109389179D01*
X151409737Y-109243497D01*
X151440500Y-109088842D01*
X151440500Y-108961153D01*
X154399500Y-108961153D01*
X154399500Y-109118846D01*
X154430261Y-109273489D01*
X154430264Y-109273501D01*
X154490602Y-109419172D01*
X154490609Y-109419185D01*
X154578210Y-109550288D01*
X154578213Y-109550292D01*
X154689707Y-109661786D01*
X154689711Y-109661789D01*
X154820814Y-109749390D01*
X154820827Y-109749397D01*
X154894078Y-109779738D01*
X154966503Y-109809737D01*
X155121153Y-109840499D01*
X155121156Y-109840500D01*
X155121158Y-109840500D01*
X155278844Y-109840500D01*
X155278845Y-109840499D01*
X155433497Y-109809737D01*
X155579179Y-109749394D01*
X155710289Y-109661789D01*
X155821789Y-109550289D01*
X155909394Y-109419179D01*
X155969737Y-109273497D01*
X156000500Y-109118842D01*
X156000500Y-108961158D01*
X156000500Y-108961155D01*
X156000499Y-108961153D01*
X155994532Y-108931153D01*
X155969737Y-108806503D01*
X155957309Y-108776498D01*
X155909397Y-108660827D01*
X155909390Y-108660814D01*
X155821789Y-108529711D01*
X155821786Y-108529707D01*
X155710292Y-108418213D01*
X155710288Y-108418210D01*
X155579185Y-108330609D01*
X155579172Y-108330602D01*
X155433501Y-108270264D01*
X155433489Y-108270261D01*
X155278845Y-108239500D01*
X155278842Y-108239500D01*
X155121158Y-108239500D01*
X155121155Y-108239500D01*
X154966510Y-108270261D01*
X154966498Y-108270264D01*
X154820827Y-108330602D01*
X154820814Y-108330609D01*
X154689711Y-108418210D01*
X154689707Y-108418213D01*
X154578213Y-108529707D01*
X154578210Y-108529711D01*
X154490609Y-108660814D01*
X154490602Y-108660827D01*
X154430264Y-108806498D01*
X154430261Y-108806510D01*
X154399500Y-108961153D01*
X151440500Y-108961153D01*
X151440500Y-108931158D01*
X151440500Y-108931155D01*
X151440499Y-108931153D01*
X151432255Y-108889707D01*
X151409737Y-108776503D01*
X151361823Y-108660827D01*
X151349397Y-108630827D01*
X151349390Y-108630814D01*
X151261789Y-108499711D01*
X151261786Y-108499707D01*
X151150292Y-108388213D01*
X151150288Y-108388210D01*
X151019185Y-108300609D01*
X151019172Y-108300602D01*
X150873501Y-108240264D01*
X150873489Y-108240261D01*
X150718845Y-108209500D01*
X150718842Y-108209500D01*
X150561158Y-108209500D01*
X150561155Y-108209500D01*
X150406510Y-108240261D01*
X150406498Y-108240264D01*
X150260827Y-108300602D01*
X150260814Y-108300609D01*
X150129711Y-108388210D01*
X150129707Y-108388213D01*
X150018213Y-108499707D01*
X150018210Y-108499711D01*
X149930609Y-108630814D01*
X149930602Y-108630827D01*
X149870264Y-108776498D01*
X149870261Y-108776510D01*
X149839500Y-108931153D01*
X136197927Y-108931153D01*
X136089071Y-108909500D01*
X136089069Y-108909500D01*
X135960931Y-108909500D01*
X135960929Y-108909500D01*
X135835261Y-108934497D01*
X135835255Y-108934499D01*
X135716875Y-108983533D01*
X135716866Y-108983538D01*
X135610331Y-109054723D01*
X135610327Y-109054726D01*
X135519726Y-109145327D01*
X135519723Y-109145331D01*
X135448538Y-109251866D01*
X135448533Y-109251875D01*
X135399499Y-109370255D01*
X135399497Y-109370261D01*
X135374500Y-109495928D01*
X135374500Y-109495931D01*
X135374500Y-109624069D01*
X135374500Y-109624071D01*
X135374499Y-109624071D01*
X122324071Y-109624071D01*
X121920000Y-109220000D01*
X109774750Y-109220000D01*
X109707711Y-109200315D01*
X109661956Y-109147511D01*
X109660189Y-109143452D01*
X109609397Y-109020827D01*
X109609390Y-109020814D01*
X109521789Y-108889711D01*
X109521786Y-108889707D01*
X109410292Y-108778213D01*
X109410288Y-108778210D01*
X109279185Y-108690609D01*
X109279172Y-108690602D01*
X109133501Y-108630264D01*
X109133489Y-108630261D01*
X108978845Y-108599500D01*
X108978842Y-108599500D01*
X108821158Y-108599500D01*
X108821155Y-108599500D01*
X108666510Y-108630261D01*
X108666498Y-108630264D01*
X108520827Y-108690602D01*
X108520814Y-108690609D01*
X108389711Y-108778210D01*
X108389707Y-108778213D01*
X108278213Y-108889707D01*
X108278210Y-108889711D01*
X108190609Y-109020814D01*
X108190603Y-109020826D01*
X108188560Y-109025759D01*
X108144718Y-109080162D01*
X108078423Y-109102225D01*
X108010724Y-109084944D01*
X107963115Y-109033806D01*
X107950000Y-108978304D01*
X107950000Y-101724000D01*
X107969685Y-101656961D01*
X108022489Y-101611206D01*
X108074000Y-101600000D01*
X116840000Y-101600000D01*
X116840000Y-99564071D01*
X119849499Y-99564071D01*
X119874497Y-99689738D01*
X119874499Y-99689744D01*
X119923533Y-99808124D01*
X119923538Y-99808133D01*
X119994723Y-99914668D01*
X119998589Y-99919379D01*
X119996958Y-99920716D01*
X120025858Y-99973642D01*
X120020874Y-100043334D01*
X119997489Y-100079719D01*
X119998589Y-100080621D01*
X119994723Y-100085331D01*
X119923538Y-100191866D01*
X119923533Y-100191875D01*
X119874499Y-100310255D01*
X119874497Y-100310261D01*
X119849500Y-100435928D01*
X119849500Y-100435931D01*
X119849500Y-100564069D01*
X119849500Y-100564071D01*
X119849499Y-100564071D01*
X119874497Y-100689738D01*
X119874499Y-100689744D01*
X119923533Y-100808124D01*
X119923538Y-100808133D01*
X119994723Y-100914668D01*
X119994726Y-100914672D01*
X120085327Y-101005273D01*
X120085331Y-101005276D01*
X120191866Y-101076461D01*
X120191872Y-101076464D01*
X120191873Y-101076465D01*
X120310256Y-101125501D01*
X120310258Y-101125501D01*
X120310260Y-101125502D01*
X120324743Y-101128383D01*
X120386653Y-101160769D01*
X120421227Y-101221485D01*
X120417486Y-101291254D01*
X120376619Y-101347926D01*
X120324743Y-101371617D01*
X120310260Y-101374497D01*
X120310255Y-101374499D01*
X120191875Y-101423533D01*
X120191866Y-101423538D01*
X120085331Y-101494723D01*
X120085327Y-101494726D01*
X119994726Y-101585327D01*
X119994723Y-101585331D01*
X119923538Y-101691866D01*
X119923533Y-101691875D01*
X119874499Y-101810255D01*
X119874497Y-101810261D01*
X119849500Y-101935928D01*
X119849500Y-101935931D01*
X119849500Y-102064069D01*
X119849500Y-102064071D01*
X119849499Y-102064071D01*
X119874497Y-102189738D01*
X119874499Y-102189744D01*
X119923533Y-102308124D01*
X119923538Y-102308133D01*
X119994723Y-102414668D01*
X119998589Y-102419379D01*
X119996958Y-102420716D01*
X120025858Y-102473642D01*
X120020874Y-102543334D01*
X119997489Y-102579719D01*
X119998589Y-102580621D01*
X119994723Y-102585331D01*
X119923538Y-102691866D01*
X119923533Y-102691875D01*
X119874499Y-102810255D01*
X119874497Y-102810261D01*
X119849500Y-102935928D01*
X119849500Y-102935931D01*
X119849500Y-103064069D01*
X119849500Y-103064071D01*
X119849499Y-103064071D01*
X119874497Y-103189738D01*
X119874499Y-103189744D01*
X119923533Y-103308124D01*
X119923538Y-103308133D01*
X119994723Y-103414668D01*
X119994726Y-103414672D01*
X120085327Y-103505273D01*
X120085331Y-103505276D01*
X120191866Y-103576461D01*
X120191872Y-103576464D01*
X120191873Y-103576465D01*
X120310256Y-103625501D01*
X120310258Y-103625501D01*
X120310260Y-103625502D01*
X120324743Y-103628383D01*
X120386653Y-103660769D01*
X120421227Y-103721485D01*
X120417486Y-103791254D01*
X120376619Y-103847926D01*
X120324743Y-103871617D01*
X120310260Y-103874497D01*
X120310255Y-103874499D01*
X120191875Y-103923533D01*
X120191866Y-103923538D01*
X120085331Y-103994723D01*
X120085327Y-103994726D01*
X119994726Y-104085327D01*
X119994723Y-104085331D01*
X119923538Y-104191866D01*
X119923533Y-104191875D01*
X119874499Y-104310255D01*
X119874497Y-104310261D01*
X119849500Y-104435928D01*
X119849500Y-104435931D01*
X119849500Y-104564069D01*
X119849500Y-104564071D01*
X119849499Y-104564071D01*
X119874497Y-104689738D01*
X119874499Y-104689744D01*
X119923533Y-104808124D01*
X119923538Y-104808133D01*
X119994723Y-104914668D01*
X119994726Y-104914672D01*
X120085327Y-105005273D01*
X120085331Y-105005276D01*
X120191866Y-105076461D01*
X120191872Y-105076464D01*
X120191873Y-105076465D01*
X120310256Y-105125501D01*
X120310260Y-105125501D01*
X120310261Y-105125502D01*
X120435928Y-105150500D01*
X120435931Y-105150500D01*
X120564071Y-105150500D01*
X120648615Y-105133682D01*
X120689744Y-105125501D01*
X120808127Y-105076465D01*
X120914669Y-105005276D01*
X121005276Y-104914669D01*
X121076465Y-104808127D01*
X121125501Y-104689744D01*
X121150500Y-104564069D01*
X121150500Y-104435931D01*
X121150500Y-104435928D01*
X121125502Y-104310261D01*
X121125501Y-104310260D01*
X121125501Y-104310256D01*
X121076465Y-104191873D01*
X121076464Y-104191872D01*
X121076461Y-104191866D01*
X121005276Y-104085331D01*
X121005273Y-104085327D01*
X120914672Y-103994726D01*
X120914668Y-103994723D01*
X120808133Y-103923538D01*
X120808124Y-103923533D01*
X120689744Y-103874499D01*
X120689738Y-103874497D01*
X120675257Y-103871617D01*
X120613347Y-103839232D01*
X120578772Y-103778516D01*
X120582512Y-103708747D01*
X120623379Y-103652075D01*
X120675257Y-103628383D01*
X120683784Y-103626686D01*
X120689744Y-103625501D01*
X120808127Y-103576465D01*
X120914669Y-103505276D01*
X121005276Y-103414669D01*
X121076465Y-103308127D01*
X121119172Y-103205024D01*
X122640831Y-103205024D01*
X122640831Y-103362717D01*
X122671592Y-103517360D01*
X122671595Y-103517372D01*
X122731933Y-103663043D01*
X122731940Y-103663056D01*
X122819541Y-103794159D01*
X122819544Y-103794163D01*
X122931038Y-103905657D01*
X122931042Y-103905660D01*
X123062145Y-103993261D01*
X123062158Y-103993268D01*
X123207829Y-104053606D01*
X123207834Y-104053608D01*
X123362484Y-104084370D01*
X123362487Y-104084371D01*
X123362489Y-104084371D01*
X123520175Y-104084371D01*
X123520176Y-104084370D01*
X123674828Y-104053608D01*
X123820510Y-103993265D01*
X123951620Y-103905660D01*
X124063120Y-103794160D01*
X124150725Y-103663050D01*
X124211068Y-103517368D01*
X124241831Y-103362713D01*
X124241831Y-103205029D01*
X124241831Y-103205026D01*
X124241830Y-103205024D01*
X124228086Y-103135931D01*
X124211068Y-103050374D01*
X124163665Y-102935931D01*
X124150728Y-102904698D01*
X124150721Y-102904685D01*
X124063120Y-102773582D01*
X124063117Y-102773578D01*
X123951623Y-102662084D01*
X123951619Y-102662081D01*
X123820516Y-102574480D01*
X123820503Y-102574473D01*
X123674832Y-102514135D01*
X123674820Y-102514132D01*
X123520176Y-102483371D01*
X123520173Y-102483371D01*
X123362489Y-102483371D01*
X123362486Y-102483371D01*
X123207841Y-102514132D01*
X123207829Y-102514135D01*
X123062158Y-102574473D01*
X123062145Y-102574480D01*
X122931042Y-102662081D01*
X122931038Y-102662084D01*
X122819544Y-102773578D01*
X122819541Y-102773582D01*
X122731940Y-102904685D01*
X122731933Y-102904698D01*
X122671595Y-103050369D01*
X122671592Y-103050381D01*
X122640831Y-103205024D01*
X121119172Y-103205024D01*
X121125501Y-103189744D01*
X121136206Y-103135931D01*
X121150500Y-103064071D01*
X121150500Y-102935928D01*
X121125502Y-102810261D01*
X121125501Y-102810260D01*
X121125501Y-102810256D01*
X121076465Y-102691873D01*
X121076464Y-102691872D01*
X121076461Y-102691866D01*
X121005276Y-102585331D01*
X121001411Y-102580621D01*
X121003045Y-102579279D01*
X120974148Y-102526389D01*
X120979114Y-102456696D01*
X121002514Y-102420284D01*
X121001411Y-102419379D01*
X121005271Y-102414673D01*
X121005276Y-102414669D01*
X121076465Y-102308127D01*
X121125501Y-102189744D01*
X121150500Y-102064069D01*
X121150500Y-101935931D01*
X121150500Y-101935928D01*
X121125502Y-101810261D01*
X121125501Y-101810260D01*
X121125501Y-101810256D01*
X121076465Y-101691873D01*
X121076464Y-101691872D01*
X121076461Y-101691866D01*
X121005276Y-101585331D01*
X121005273Y-101585327D01*
X120914672Y-101494726D01*
X120914668Y-101494723D01*
X120808133Y-101423538D01*
X120808124Y-101423533D01*
X120689744Y-101374499D01*
X120689738Y-101374497D01*
X120675257Y-101371617D01*
X120613347Y-101339232D01*
X120578772Y-101278516D01*
X120582512Y-101208747D01*
X120623379Y-101152075D01*
X120675257Y-101128383D01*
X120683784Y-101126686D01*
X120689744Y-101125501D01*
X120808127Y-101076465D01*
X120914669Y-101005276D01*
X121005276Y-100914669D01*
X121076465Y-100808127D01*
X121125501Y-100689744D01*
X121148034Y-100576466D01*
X121150500Y-100564071D01*
X121150500Y-100435928D01*
X121125502Y-100310261D01*
X121125501Y-100310260D01*
X121125501Y-100310256D01*
X121076465Y-100191873D01*
X121076464Y-100191872D01*
X121076461Y-100191866D01*
X121005276Y-100085331D01*
X121001411Y-100080621D01*
X121003045Y-100079279D01*
X120974148Y-100026389D01*
X120979114Y-99956696D01*
X121002514Y-99920284D01*
X121001411Y-99919379D01*
X121005271Y-99914673D01*
X121005276Y-99914669D01*
X121076465Y-99808127D01*
X121125501Y-99689744D01*
X121140729Y-99613186D01*
X121173113Y-99551277D01*
X121233829Y-99516703D01*
X121303598Y-99520442D01*
X121309798Y-99522818D01*
X121326498Y-99529735D01*
X121326503Y-99529737D01*
X121481153Y-99560499D01*
X121481156Y-99560500D01*
X121481158Y-99560500D01*
X121638844Y-99560500D01*
X121638845Y-99560499D01*
X121793497Y-99529737D01*
X121939179Y-99469394D01*
X122070289Y-99381789D01*
X122181789Y-99270289D01*
X122269394Y-99139179D01*
X122329737Y-98993497D01*
X122360500Y-98838842D01*
X122360500Y-98681158D01*
X122360500Y-98681155D01*
X122360499Y-98681153D01*
X122329738Y-98526510D01*
X122329737Y-98526503D01*
X122329735Y-98526498D01*
X122269397Y-98380827D01*
X122269390Y-98380814D01*
X122181789Y-98249711D01*
X122181786Y-98249707D01*
X122070292Y-98138213D01*
X122070288Y-98138210D01*
X121939185Y-98050609D01*
X121939172Y-98050602D01*
X121793501Y-97990264D01*
X121793489Y-97990261D01*
X121638845Y-97959500D01*
X121638842Y-97959500D01*
X121481158Y-97959500D01*
X121481155Y-97959500D01*
X121326510Y-97990261D01*
X121326498Y-97990264D01*
X121180827Y-98050602D01*
X121180814Y-98050609D01*
X121049711Y-98138210D01*
X121049707Y-98138213D01*
X120938213Y-98249707D01*
X120938210Y-98249711D01*
X120850609Y-98380814D01*
X120850602Y-98380827D01*
X120790264Y-98526498D01*
X120790261Y-98526510D01*
X120759500Y-98681153D01*
X120759500Y-98737279D01*
X120739815Y-98804318D01*
X120687011Y-98850073D01*
X120617853Y-98860017D01*
X120611309Y-98858896D01*
X120564072Y-98849500D01*
X120564069Y-98849500D01*
X120435931Y-98849500D01*
X120435929Y-98849500D01*
X120310261Y-98874497D01*
X120310255Y-98874499D01*
X120191875Y-98923533D01*
X120191866Y-98923538D01*
X120085331Y-98994723D01*
X120085327Y-98994726D01*
X119994726Y-99085327D01*
X119994723Y-99085331D01*
X119923538Y-99191866D01*
X119923533Y-99191875D01*
X119874499Y-99310255D01*
X119874497Y-99310261D01*
X119849500Y-99435928D01*
X119849500Y-99435931D01*
X119849500Y-99564069D01*
X119849500Y-99564071D01*
X119849499Y-99564071D01*
X116840000Y-99564071D01*
X116840000Y-92126361D01*
X116859685Y-92059322D01*
X116876314Y-92038685D01*
X117257821Y-91657178D01*
X117319142Y-91623695D01*
X117388834Y-91628679D01*
X117444767Y-91670551D01*
X117469184Y-91736015D01*
X117469500Y-91744861D01*
X117469500Y-91864069D01*
X117469500Y-91864071D01*
X117469499Y-91864071D01*
X117494497Y-91989738D01*
X117494499Y-91989744D01*
X117543533Y-92108124D01*
X117543538Y-92108133D01*
X117614723Y-92214668D01*
X117614726Y-92214672D01*
X117705327Y-92305273D01*
X117705331Y-92305276D01*
X117811866Y-92376461D01*
X117811872Y-92376464D01*
X117811873Y-92376465D01*
X117930256Y-92425501D01*
X117930260Y-92425501D01*
X117930261Y-92425502D01*
X118055928Y-92450500D01*
X118055931Y-92450500D01*
X118184071Y-92450500D01*
X118268615Y-92433682D01*
X118309744Y-92425501D01*
X118428127Y-92376465D01*
X118534669Y-92305276D01*
X118625276Y-92214669D01*
X118696465Y-92108127D01*
X118745501Y-91989744D01*
X118770500Y-91864069D01*
X118770500Y-91735931D01*
X118770500Y-91735928D01*
X118745502Y-91610261D01*
X118745501Y-91610260D01*
X118745501Y-91610256D01*
X118696465Y-91491873D01*
X118696464Y-91491872D01*
X118696461Y-91491866D01*
X118625276Y-91385331D01*
X118625273Y-91385327D01*
X118577627Y-91337681D01*
X118544142Y-91276358D01*
X118549126Y-91206666D01*
X118577627Y-91162319D01*
X118625273Y-91114672D01*
X118625276Y-91114669D01*
X118696465Y-91008127D01*
X118745501Y-90889744D01*
X118770500Y-90764069D01*
X118770500Y-90635931D01*
X118770500Y-90635928D01*
X118745502Y-90510261D01*
X118745501Y-90510260D01*
X118745501Y-90510256D01*
X118696465Y-90391873D01*
X118683573Y-90372578D01*
X118662694Y-90305901D01*
X118681178Y-90238521D01*
X118698985Y-90216014D01*
X119978681Y-88936319D01*
X120040004Y-88902834D01*
X120066362Y-88900000D01*
X129416000Y-88900000D01*
X129483039Y-88919685D01*
G37*
%TD.AperFunction*%
%TD*%
%TA.AperFunction,Conductor*%
%TO.N,V_SYS*%
G36*
X110433039Y-76720185D02*
G01*
X110478794Y-76772989D01*
X110490000Y-76824500D01*
X110490000Y-77808763D01*
X110470315Y-77875802D01*
X110417511Y-77921557D01*
X110348353Y-77931501D01*
X110284797Y-77902476D01*
X110265682Y-77881648D01*
X110250109Y-77860214D01*
X110250105Y-77860209D01*
X110099786Y-77709890D01*
X109927820Y-77584951D01*
X109738414Y-77488444D01*
X109738413Y-77488443D01*
X109738412Y-77488443D01*
X109536243Y-77422754D01*
X109536241Y-77422753D01*
X109536240Y-77422753D01*
X109374957Y-77397208D01*
X109326287Y-77389500D01*
X109113713Y-77389500D01*
X109065042Y-77397208D01*
X108903760Y-77422753D01*
X108701585Y-77488444D01*
X108512179Y-77584951D01*
X108340213Y-77709890D01*
X108189890Y-77860213D01*
X108064951Y-78032179D01*
X107968444Y-78221585D01*
X107902753Y-78423760D01*
X107875212Y-78597648D01*
X107869500Y-78633713D01*
X107869500Y-78846287D01*
X107902754Y-79056243D01*
X107949211Y-79199223D01*
X107968444Y-79258414D01*
X108064951Y-79447820D01*
X108189890Y-79619786D01*
X108340213Y-79770109D01*
X108512179Y-79895048D01*
X108512181Y-79895049D01*
X108512184Y-79895051D01*
X108701588Y-79991557D01*
X108903757Y-80057246D01*
X109113713Y-80090500D01*
X109113714Y-80090500D01*
X109326286Y-80090500D01*
X109326287Y-80090500D01*
X109536243Y-80057246D01*
X109738412Y-79991557D01*
X109927816Y-79895051D01*
X110041736Y-79812284D01*
X110099786Y-79770109D01*
X110099788Y-79770106D01*
X110099792Y-79770104D01*
X110250104Y-79619792D01*
X110265680Y-79598352D01*
X110321009Y-79555686D01*
X110390623Y-79549705D01*
X110452418Y-79582310D01*
X110486777Y-79643148D01*
X110490000Y-79671236D01*
X110490000Y-100206000D01*
X110470315Y-100273039D01*
X110417511Y-100318794D01*
X110366000Y-100330000D01*
X106680000Y-100330000D01*
X106680000Y-110670000D01*
X106700631Y-110670000D01*
X106767670Y-110689685D01*
X106813425Y-110742489D01*
X106823369Y-110811647D01*
X106794344Y-110875203D01*
X106756927Y-110904484D01*
X106724504Y-110921004D01*
X106578005Y-111027441D01*
X106578000Y-111027445D01*
X106449945Y-111155500D01*
X106449941Y-111155505D01*
X106343506Y-111302002D01*
X106261288Y-111463360D01*
X106261287Y-111463363D01*
X106205329Y-111635589D01*
X106177000Y-111814448D01*
X106177000Y-111995551D01*
X106205329Y-112174410D01*
X106261287Y-112346636D01*
X106261288Y-112346639D01*
X106343506Y-112507997D01*
X106449941Y-112654494D01*
X106449945Y-112654499D01*
X106578002Y-112782556D01*
X106629991Y-112820327D01*
X106672658Y-112875656D01*
X106678638Y-112945270D01*
X106664495Y-112982645D01*
X106636108Y-113031812D01*
X106602000Y-113159108D01*
X106602000Y-113290891D01*
X106636108Y-113418187D01*
X106669054Y-113475250D01*
X106702000Y-113532314D01*
X106795186Y-113625500D01*
X106909314Y-113691392D01*
X107036608Y-113725500D01*
X107036610Y-113725500D01*
X107168390Y-113725500D01*
X107168392Y-113725500D01*
X107295686Y-113691392D01*
X107409814Y-113625500D01*
X107503000Y-113532314D01*
X107568892Y-113418186D01*
X107603000Y-113290892D01*
X107603000Y-113179500D01*
X107622685Y-113112461D01*
X107675489Y-113066706D01*
X107727000Y-113055500D01*
X108354059Y-113055500D01*
X108421098Y-113075185D01*
X108466853Y-113127989D01*
X108476797Y-113197147D01*
X108447772Y-113260703D01*
X108441740Y-113267181D01*
X108344213Y-113364707D01*
X108344210Y-113364711D01*
X108256609Y-113495814D01*
X108256602Y-113495827D01*
X108196264Y-113641498D01*
X108196261Y-113641510D01*
X108165500Y-113796153D01*
X108165500Y-113953846D01*
X108196261Y-114108489D01*
X108196264Y-114108501D01*
X108244051Y-114223869D01*
X108253490Y-114271321D01*
X108253490Y-118130677D01*
X108236214Y-118189509D01*
X108237969Y-118190447D01*
X108235092Y-118195828D01*
X108174754Y-118341498D01*
X108174751Y-118341510D01*
X108143990Y-118496153D01*
X108143990Y-118653846D01*
X108174751Y-118808489D01*
X108174754Y-118808501D01*
X108235092Y-118954172D01*
X108235099Y-118954185D01*
X108322700Y-119085288D01*
X108322703Y-119085292D01*
X108420230Y-119182819D01*
X108453715Y-119244142D01*
X108448731Y-119313834D01*
X108406859Y-119369767D01*
X108341395Y-119394184D01*
X108332549Y-119394500D01*
X107727000Y-119394500D01*
X107659961Y-119374815D01*
X107614206Y-119322011D01*
X107603000Y-119270500D01*
X107603000Y-119034110D01*
X107603000Y-119034108D01*
X107568892Y-118906814D01*
X107503000Y-118792686D01*
X107409814Y-118699500D01*
X107352750Y-118666554D01*
X107295687Y-118633608D01*
X107232039Y-118616554D01*
X107168392Y-118599500D01*
X107036608Y-118599500D01*
X106909312Y-118633608D01*
X106795186Y-118699500D01*
X106795183Y-118699502D01*
X106702002Y-118792683D01*
X106702000Y-118792686D01*
X106636108Y-118906812D01*
X106602000Y-119034108D01*
X106602000Y-119415891D01*
X106632452Y-119529540D01*
X106630789Y-119599390D01*
X106591626Y-119657252D01*
X106585569Y-119661946D01*
X106578004Y-119667442D01*
X106577996Y-119667449D01*
X106449945Y-119795500D01*
X106449941Y-119795505D01*
X106343506Y-119942002D01*
X106261288Y-120103360D01*
X106261287Y-120103363D01*
X106205329Y-120275589D01*
X106177000Y-120454448D01*
X106177000Y-120635551D01*
X106205329Y-120814410D01*
X106261287Y-120986636D01*
X106261288Y-120986639D01*
X106343506Y-121147997D01*
X106449941Y-121294494D01*
X106449945Y-121294499D01*
X106578000Y-121422554D01*
X106578005Y-121422558D01*
X106705787Y-121515396D01*
X106724506Y-121528996D01*
X106829984Y-121582740D01*
X106885860Y-121611211D01*
X106885863Y-121611212D01*
X106971976Y-121639191D01*
X107058091Y-121667171D01*
X107140929Y-121680291D01*
X107236949Y-121695500D01*
X107236954Y-121695500D01*
X108418051Y-121695500D01*
X108504759Y-121681765D01*
X108596909Y-121667171D01*
X108769139Y-121611211D01*
X108930494Y-121528996D01*
X109077001Y-121422553D01*
X109205053Y-121294501D01*
X109311496Y-121147994D01*
X109393711Y-120986639D01*
X109449671Y-120814409D01*
X109464265Y-120722259D01*
X109478000Y-120635551D01*
X109478000Y-120454448D01*
X109461519Y-120350397D01*
X109449671Y-120275591D01*
X109393711Y-120103361D01*
X109393711Y-120103360D01*
X109365240Y-120047484D01*
X109311496Y-119942006D01*
X109297896Y-119923287D01*
X109205058Y-119795505D01*
X109205054Y-119795500D01*
X109076999Y-119667445D01*
X109076994Y-119667441D01*
X108979349Y-119596498D01*
X108936683Y-119541168D01*
X108930704Y-119471555D01*
X108963309Y-119409760D01*
X109024148Y-119375403D01*
X109028043Y-119374563D01*
X109046399Y-119370911D01*
X109177987Y-119344737D01*
X109323669Y-119284394D01*
X109454779Y-119196789D01*
X109566279Y-119085289D01*
X109653884Y-118954179D01*
X109714227Y-118808497D01*
X109744990Y-118653842D01*
X109744990Y-118496158D01*
X109744990Y-118496155D01*
X109744989Y-118496153D01*
X109714228Y-118341510D01*
X109714227Y-118341503D01*
X109653884Y-118195821D01*
X109653880Y-118195815D01*
X109651011Y-118190447D01*
X109653166Y-118189294D01*
X109635509Y-118132869D01*
X109635490Y-118130677D01*
X109635490Y-116131000D01*
X109655175Y-116063961D01*
X109707979Y-116018206D01*
X109759490Y-116007000D01*
X115060583Y-116007000D01*
X115108035Y-116016439D01*
X115222765Y-116063961D01*
X115244486Y-116072958D01*
X115399136Y-116103720D01*
X115399139Y-116103721D01*
X115399141Y-116103721D01*
X115556827Y-116103721D01*
X115556828Y-116103720D01*
X115711480Y-116072958D01*
X115781319Y-116044029D01*
X115850788Y-116036561D01*
X115913267Y-116067836D01*
X115943332Y-116111138D01*
X115982414Y-116205492D01*
X115982419Y-116205501D01*
X116064548Y-116328415D01*
X116064551Y-116328419D01*
X116088451Y-116352319D01*
X116121936Y-116413642D01*
X116116952Y-116483334D01*
X116088451Y-116527681D01*
X116064551Y-116551580D01*
X116064548Y-116551584D01*
X115982419Y-116674498D01*
X115982412Y-116674511D01*
X115925843Y-116811082D01*
X115925840Y-116811092D01*
X115897000Y-116956079D01*
X115897000Y-116956082D01*
X115897000Y-117103918D01*
X115897000Y-117103920D01*
X115896999Y-117103920D01*
X115925840Y-117248907D01*
X115925843Y-117248917D01*
X115982412Y-117385488D01*
X115982419Y-117385501D01*
X116064548Y-117508415D01*
X116064551Y-117508419D01*
X116169080Y-117612948D01*
X116169084Y-117612951D01*
X116291998Y-117695080D01*
X116292011Y-117695087D01*
X116428582Y-117751656D01*
X116428587Y-117751658D01*
X116428591Y-117751658D01*
X116428592Y-117751659D01*
X116573579Y-117780500D01*
X116573582Y-117780500D01*
X116721420Y-117780500D01*
X116818962Y-117761096D01*
X116866413Y-117751658D01*
X117002995Y-117695084D01*
X117125916Y-117612951D01*
X117149819Y-117589047D01*
X117211140Y-117555563D01*
X117280831Y-117560546D01*
X117325180Y-117589047D01*
X117349081Y-117612948D01*
X117349085Y-117612952D01*
X117471998Y-117695080D01*
X117472011Y-117695087D01*
X117608582Y-117751656D01*
X117608587Y-117751658D01*
X117608591Y-117751658D01*
X117608592Y-117751659D01*
X117753579Y-117780500D01*
X117753582Y-117780500D01*
X117901420Y-117780500D01*
X117998962Y-117761096D01*
X118046413Y-117751658D01*
X118182995Y-117695084D01*
X118305916Y-117612951D01*
X118410451Y-117508416D01*
X118492584Y-117385495D01*
X118549158Y-117248913D01*
X118578000Y-117103918D01*
X118578000Y-116956082D01*
X118578000Y-116956079D01*
X118549159Y-116811092D01*
X118549158Y-116811091D01*
X118549158Y-116811087D01*
X118549156Y-116811082D01*
X118492587Y-116674511D01*
X118492580Y-116674498D01*
X118410452Y-116551585D01*
X118410447Y-116551580D01*
X118386547Y-116527680D01*
X118353063Y-116466360D01*
X118358046Y-116396669D01*
X118386547Y-116352319D01*
X118410451Y-116328416D01*
X118492584Y-116205495D01*
X118549158Y-116068913D01*
X118558596Y-116021462D01*
X118578000Y-115923920D01*
X118578000Y-115776079D01*
X118549159Y-115631092D01*
X118549158Y-115631091D01*
X118549158Y-115631087D01*
X118549156Y-115631082D01*
X118492587Y-115494511D01*
X118492580Y-115494498D01*
X118410451Y-115371584D01*
X118410448Y-115371580D01*
X118305919Y-115267051D01*
X118305915Y-115267048D01*
X118183001Y-115184919D01*
X118182988Y-115184912D01*
X118046417Y-115128343D01*
X118046407Y-115128340D01*
X117901420Y-115099500D01*
X117901418Y-115099500D01*
X117753582Y-115099500D01*
X117753580Y-115099500D01*
X117608592Y-115128340D01*
X117608582Y-115128343D01*
X117472011Y-115184912D01*
X117471998Y-115184919D01*
X117349084Y-115267048D01*
X117349080Y-115267051D01*
X117325181Y-115290951D01*
X117263858Y-115324436D01*
X117194166Y-115319452D01*
X117149819Y-115290951D01*
X117125919Y-115267051D01*
X117125915Y-115267048D01*
X117003001Y-115184919D01*
X117002988Y-115184912D01*
X116866417Y-115128343D01*
X116866407Y-115128340D01*
X116721420Y-115099500D01*
X116721418Y-115099500D01*
X116573582Y-115099500D01*
X116573580Y-115099500D01*
X116428592Y-115128340D01*
X116428582Y-115128343D01*
X116409489Y-115136252D01*
X116340020Y-115143719D01*
X116277541Y-115112443D01*
X116247480Y-115069146D01*
X116187377Y-114924042D01*
X116187373Y-114924035D01*
X116099772Y-114792932D01*
X116099769Y-114792928D01*
X115988275Y-114681434D01*
X115988271Y-114681431D01*
X115857168Y-114593830D01*
X115857155Y-114593823D01*
X115711484Y-114533485D01*
X115711472Y-114533482D01*
X115556828Y-114502721D01*
X115556825Y-114502721D01*
X115399141Y-114502721D01*
X115399138Y-114502721D01*
X115244493Y-114533482D01*
X115244481Y-114533485D01*
X115098811Y-114593823D01*
X115098797Y-114593831D01*
X115083428Y-114604101D01*
X115016751Y-114624980D01*
X115014536Y-114625000D01*
X111745894Y-114625000D01*
X111678855Y-114605315D01*
X111633100Y-114552511D01*
X111623156Y-114483353D01*
X111649010Y-114424670D01*
X111648937Y-114424621D01*
X111649217Y-114424200D01*
X111650039Y-114422337D01*
X111652316Y-114419560D01*
X111652321Y-114419556D01*
X111739926Y-114288446D01*
X111800269Y-114142764D01*
X111831032Y-113988109D01*
X111831032Y-113830425D01*
X111831032Y-113830422D01*
X111831031Y-113830420D01*
X111800270Y-113675777D01*
X111800269Y-113675770D01*
X111779446Y-113625499D01*
X111739929Y-113530094D01*
X111739922Y-113530081D01*
X111652321Y-113398978D01*
X111652318Y-113398974D01*
X111540824Y-113287480D01*
X111540820Y-113287477D01*
X111409717Y-113199876D01*
X111409704Y-113199869D01*
X111264033Y-113139531D01*
X111264021Y-113139528D01*
X111109377Y-113108767D01*
X111109374Y-113108767D01*
X110951690Y-113108767D01*
X110951687Y-113108767D01*
X110797042Y-113139528D01*
X110797030Y-113139531D01*
X110651359Y-113199869D01*
X110651346Y-113199876D01*
X110520243Y-113287477D01*
X110520239Y-113287480D01*
X110408745Y-113398974D01*
X110408742Y-113398978D01*
X110321141Y-113530081D01*
X110321134Y-113530094D01*
X110260796Y-113675765D01*
X110260793Y-113675777D01*
X110230032Y-113830420D01*
X110230032Y-113988113D01*
X110260793Y-114142756D01*
X110260796Y-114142768D01*
X110321134Y-114288439D01*
X110321141Y-114288452D01*
X110408742Y-114419555D01*
X110411025Y-114422337D01*
X110411764Y-114424078D01*
X110412127Y-114424621D01*
X110412024Y-114424689D01*
X110438337Y-114486648D01*
X110426544Y-114555515D01*
X110379391Y-114607074D01*
X110315170Y-114625000D01*
X109759490Y-114625000D01*
X109750804Y-114622449D01*
X109741843Y-114623738D01*
X109717802Y-114612759D01*
X109692451Y-114605315D01*
X109686523Y-114598474D01*
X109678287Y-114594713D01*
X109663997Y-114572478D01*
X109646696Y-114552511D01*
X109644408Y-114541996D01*
X109640513Y-114535935D01*
X109635490Y-114501000D01*
X109635490Y-114351513D01*
X109655175Y-114284474D01*
X109656389Y-114282621D01*
X109675394Y-114254179D01*
X109735737Y-114108497D01*
X109766500Y-113953842D01*
X109766500Y-113796158D01*
X109766500Y-113796155D01*
X109766499Y-113796153D01*
X109752445Y-113725499D01*
X109735737Y-113641503D01*
X109735735Y-113641498D01*
X109675397Y-113495827D01*
X109675390Y-113495814D01*
X109587789Y-113364711D01*
X109587786Y-113364707D01*
X109476292Y-113253213D01*
X109476288Y-113253210D01*
X109345185Y-113165609D01*
X109345172Y-113165602D01*
X109199501Y-113105264D01*
X109199489Y-113105261D01*
X109044844Y-113074499D01*
X109043934Y-113074410D01*
X109043488Y-113074230D01*
X109038868Y-113073311D01*
X109039042Y-113072434D01*
X108979150Y-113048241D01*
X108938797Y-112991202D01*
X108935688Y-112921402D01*
X108970810Y-112861001D01*
X108983208Y-112850696D01*
X109077001Y-112782553D01*
X109205053Y-112654501D01*
X109311496Y-112507994D01*
X109393711Y-112346639D01*
X109449671Y-112174409D01*
X109474310Y-112018846D01*
X109478000Y-111995551D01*
X109478000Y-111861153D01*
X113279497Y-111861153D01*
X113279497Y-112018846D01*
X113310258Y-112173489D01*
X113310261Y-112173501D01*
X113370599Y-112319172D01*
X113370606Y-112319185D01*
X113458207Y-112450288D01*
X113458210Y-112450292D01*
X113569704Y-112561786D01*
X113569708Y-112561789D01*
X113700811Y-112649390D01*
X113700824Y-112649397D01*
X113846495Y-112709735D01*
X113846500Y-112709737D01*
X114001150Y-112740499D01*
X114001153Y-112740500D01*
X114001155Y-112740500D01*
X114158841Y-112740500D01*
X114158842Y-112740499D01*
X114313494Y-112709737D01*
X114446851Y-112654499D01*
X114459169Y-112649397D01*
X114459169Y-112649396D01*
X114459176Y-112649394D01*
X114590286Y-112561789D01*
X114701786Y-112450289D01*
X114789391Y-112319179D01*
X114849734Y-112173497D01*
X114880497Y-112018842D01*
X114880497Y-111861158D01*
X114880497Y-111861155D01*
X114880496Y-111861153D01*
X114849735Y-111706510D01*
X114849734Y-111706503D01*
X114820361Y-111635589D01*
X114789394Y-111560827D01*
X114789387Y-111560814D01*
X114701786Y-111429711D01*
X114701783Y-111429707D01*
X114590289Y-111318213D01*
X114590285Y-111318210D01*
X114459182Y-111230609D01*
X114459169Y-111230602D01*
X114313498Y-111170264D01*
X114313486Y-111170261D01*
X114158842Y-111139500D01*
X114158839Y-111139500D01*
X114001155Y-111139500D01*
X114001152Y-111139500D01*
X113846507Y-111170261D01*
X113846495Y-111170264D01*
X113700824Y-111230602D01*
X113700811Y-111230609D01*
X113569708Y-111318210D01*
X113569704Y-111318213D01*
X113458210Y-111429707D01*
X113458207Y-111429711D01*
X113370606Y-111560814D01*
X113370599Y-111560827D01*
X113310261Y-111706498D01*
X113310258Y-111706510D01*
X113279497Y-111861153D01*
X109478000Y-111861153D01*
X109478000Y-111814448D01*
X109460902Y-111706503D01*
X109449671Y-111635591D01*
X109393711Y-111463361D01*
X109393711Y-111463360D01*
X109365240Y-111407484D01*
X109311496Y-111302006D01*
X109297896Y-111283287D01*
X109205058Y-111155505D01*
X109205054Y-111155500D01*
X109076999Y-111027445D01*
X109076994Y-111027441D01*
X108930495Y-110921004D01*
X108898073Y-110904484D01*
X108847278Y-110856510D01*
X108830483Y-110788689D01*
X108853021Y-110722554D01*
X108907736Y-110679103D01*
X108954369Y-110670000D01*
X120778638Y-110670000D01*
X120845677Y-110689685D01*
X120866319Y-110706319D01*
X124423681Y-114263681D01*
X124457166Y-114325004D01*
X124460000Y-114351362D01*
X124460000Y-122986760D01*
X124440315Y-123053799D01*
X124387511Y-123099554D01*
X124355398Y-123109233D01*
X124143760Y-123142753D01*
X123941585Y-123208444D01*
X123752179Y-123304951D01*
X123580213Y-123429890D01*
X123429890Y-123580213D01*
X123304949Y-123752182D01*
X123300484Y-123760946D01*
X123252509Y-123811742D01*
X123184688Y-123828536D01*
X123118553Y-123805998D01*
X123079516Y-123760946D01*
X123075050Y-123752182D01*
X122950109Y-123580213D01*
X122799786Y-123429890D01*
X122627820Y-123304951D01*
X122438414Y-123208444D01*
X122438413Y-123208443D01*
X122438412Y-123208443D01*
X122236243Y-123142754D01*
X122236241Y-123142753D01*
X122236240Y-123142753D01*
X122074957Y-123117208D01*
X122026287Y-123109500D01*
X121813713Y-123109500D01*
X121765042Y-123117208D01*
X121603760Y-123142753D01*
X121401585Y-123208444D01*
X121212179Y-123304951D01*
X121040215Y-123429889D01*
X120926673Y-123543431D01*
X120865350Y-123576915D01*
X120795658Y-123571931D01*
X120739725Y-123530059D01*
X120722810Y-123499082D01*
X120673797Y-123367671D01*
X120673793Y-123367664D01*
X120587547Y-123252455D01*
X120587544Y-123252452D01*
X120472335Y-123166206D01*
X120472328Y-123166202D01*
X120337482Y-123115908D01*
X120337483Y-123115908D01*
X120277883Y-123109501D01*
X120277881Y-123109500D01*
X120277873Y-123109500D01*
X120277864Y-123109500D01*
X118482129Y-123109500D01*
X118482123Y-123109501D01*
X118422516Y-123115908D01*
X118287671Y-123166202D01*
X118287664Y-123166206D01*
X118172455Y-123252452D01*
X118172452Y-123252455D01*
X118086206Y-123367664D01*
X118086202Y-123367671D01*
X118035908Y-123502517D01*
X118029501Y-123562116D01*
X118029500Y-123562135D01*
X118029500Y-125357870D01*
X118029501Y-125357876D01*
X118035908Y-125417483D01*
X118086202Y-125552328D01*
X118086206Y-125552335D01*
X118172452Y-125667544D01*
X118172455Y-125667547D01*
X118287664Y-125753793D01*
X118287671Y-125753797D01*
X118422517Y-125804091D01*
X118422516Y-125804091D01*
X118429444Y-125804835D01*
X118482127Y-125810500D01*
X120277872Y-125810499D01*
X120337483Y-125804091D01*
X120472331Y-125753796D01*
X120587546Y-125667546D01*
X120673796Y-125552331D01*
X120722810Y-125420916D01*
X120764681Y-125364984D01*
X120830145Y-125340566D01*
X120898418Y-125355417D01*
X120926673Y-125376569D01*
X121040213Y-125490109D01*
X121212179Y-125615048D01*
X121212181Y-125615049D01*
X121212184Y-125615051D01*
X121401588Y-125711557D01*
X121603757Y-125777246D01*
X121813713Y-125810500D01*
X121813714Y-125810500D01*
X122026286Y-125810500D01*
X122026287Y-125810500D01*
X122236243Y-125777246D01*
X122438412Y-125711557D01*
X122627816Y-125615051D01*
X122714138Y-125552335D01*
X122799786Y-125490109D01*
X122799788Y-125490106D01*
X122799792Y-125490104D01*
X122950104Y-125339792D01*
X122950106Y-125339788D01*
X122950109Y-125339786D01*
X123075048Y-125167820D01*
X123075047Y-125167820D01*
X123075051Y-125167816D01*
X123079514Y-125159054D01*
X123127488Y-125108259D01*
X123195308Y-125091463D01*
X123261444Y-125113999D01*
X123300486Y-125159056D01*
X123304951Y-125167820D01*
X123429890Y-125339786D01*
X123580213Y-125490109D01*
X123752179Y-125615048D01*
X123752181Y-125615049D01*
X123752184Y-125615051D01*
X123941588Y-125711557D01*
X124143757Y-125777246D01*
X124143760Y-125777246D01*
X124143761Y-125777247D01*
X124215060Y-125788539D01*
X124353713Y-125810500D01*
X124353717Y-125810500D01*
X124355397Y-125810766D01*
X124418532Y-125840695D01*
X124455464Y-125900006D01*
X124460000Y-125933239D01*
X124460000Y-126375500D01*
X124440315Y-126442539D01*
X124387511Y-126488294D01*
X124336000Y-126499500D01*
X102224500Y-126499500D01*
X102157461Y-126479815D01*
X102111706Y-126427011D01*
X102100500Y-126375500D01*
X102100500Y-124397648D01*
X102799500Y-124397648D01*
X102799500Y-124602351D01*
X102831522Y-124804534D01*
X102894781Y-124999223D01*
X102987715Y-125181613D01*
X103108028Y-125347213D01*
X103252786Y-125491971D01*
X103335872Y-125552335D01*
X103418390Y-125612287D01*
X103526838Y-125667544D01*
X103600776Y-125705218D01*
X103600778Y-125705218D01*
X103600781Y-125705220D01*
X103705137Y-125739127D01*
X103795465Y-125768477D01*
X103896557Y-125784488D01*
X103997648Y-125800500D01*
X103997649Y-125800500D01*
X104202351Y-125800500D01*
X104202352Y-125800500D01*
X104404534Y-125768477D01*
X104599219Y-125705220D01*
X104781610Y-125612287D01*
X104874590Y-125544732D01*
X104947213Y-125491971D01*
X104947215Y-125491968D01*
X104947219Y-125491966D01*
X105091966Y-125347219D01*
X105091968Y-125347215D01*
X105091971Y-125347213D01*
X105144732Y-125274590D01*
X105212287Y-125181610D01*
X105305220Y-124999219D01*
X105368477Y-124804534D01*
X105400500Y-124602352D01*
X105400500Y-124397648D01*
X105393541Y-124353713D01*
X105368477Y-124195465D01*
X105305218Y-124000776D01*
X105271503Y-123934607D01*
X105212287Y-123818390D01*
X105164186Y-123752184D01*
X105091971Y-123652786D01*
X104947213Y-123508028D01*
X104781613Y-123387715D01*
X104781612Y-123387714D01*
X104781610Y-123387713D01*
X104724653Y-123358691D01*
X104599223Y-123294781D01*
X104404534Y-123231522D01*
X104229995Y-123203878D01*
X104202352Y-123199500D01*
X103997648Y-123199500D01*
X103973329Y-123203351D01*
X103795465Y-123231522D01*
X103600776Y-123294781D01*
X103418386Y-123387715D01*
X103252786Y-123508028D01*
X103108028Y-123652786D01*
X102987715Y-123818386D01*
X102894781Y-124000776D01*
X102831522Y-124195465D01*
X102799500Y-124397648D01*
X102100500Y-124397648D01*
X102100500Y-122962416D01*
X108027591Y-122962416D01*
X108027591Y-123120109D01*
X108058352Y-123274752D01*
X108058355Y-123274764D01*
X108118693Y-123420435D01*
X108118700Y-123420448D01*
X108206301Y-123551551D01*
X108206304Y-123551555D01*
X108317798Y-123663049D01*
X108317802Y-123663052D01*
X108448905Y-123750653D01*
X108448918Y-123750660D01*
X108582518Y-123805998D01*
X108594594Y-123811000D01*
X108749244Y-123841762D01*
X108749247Y-123841763D01*
X108749249Y-123841763D01*
X108906935Y-123841763D01*
X108906936Y-123841762D01*
X109061588Y-123811000D01*
X109182430Y-123760946D01*
X109207263Y-123750660D01*
X109207263Y-123750659D01*
X109207270Y-123750657D01*
X109338380Y-123663052D01*
X109449880Y-123551552D01*
X109537485Y-123420442D01*
X109597828Y-123274760D01*
X109628591Y-123120105D01*
X109628591Y-123034983D01*
X110869500Y-123034983D01*
X110869500Y-124385001D01*
X110869501Y-124385018D01*
X110880000Y-124487796D01*
X110880001Y-124487799D01*
X110935185Y-124654331D01*
X110935187Y-124654336D01*
X110958870Y-124692732D01*
X111027288Y-124803656D01*
X111151344Y-124927712D01*
X111300666Y-125019814D01*
X111467203Y-125074999D01*
X111569991Y-125085500D01*
X112370008Y-125085499D01*
X112370016Y-125085498D01*
X112370019Y-125085498D01*
X112426302Y-125079748D01*
X112472797Y-125074999D01*
X112639334Y-125019814D01*
X112788656Y-124927712D01*
X112912712Y-124803656D01*
X112952310Y-124739456D01*
X113004258Y-124692732D01*
X113073220Y-124681509D01*
X113137303Y-124709352D01*
X113145530Y-124716872D01*
X113253072Y-124824414D01*
X113393212Y-124926232D01*
X113547555Y-125004873D01*
X113712299Y-125058402D01*
X113883389Y-125085500D01*
X113883390Y-125085500D01*
X114056610Y-125085500D01*
X114056611Y-125085500D01*
X114227701Y-125058402D01*
X114392445Y-125004873D01*
X114546788Y-124926232D01*
X114686928Y-124824414D01*
X114809414Y-124701928D01*
X114911232Y-124561788D01*
X114989873Y-124407445D01*
X115043402Y-124242701D01*
X115070500Y-124071611D01*
X115070500Y-123348389D01*
X115043402Y-123177299D01*
X114989873Y-123012555D01*
X114911232Y-122858212D01*
X114809414Y-122718072D01*
X114686928Y-122595586D01*
X114546788Y-122493768D01*
X114543883Y-122492288D01*
X114392447Y-122415128D01*
X114392446Y-122415127D01*
X114392445Y-122415127D01*
X114227701Y-122361598D01*
X114227699Y-122361597D01*
X114227698Y-122361597D01*
X114096271Y-122340781D01*
X114056611Y-122334500D01*
X113883389Y-122334500D01*
X113843728Y-122340781D01*
X113712302Y-122361597D01*
X113547552Y-122415128D01*
X113393211Y-122493768D01*
X113253073Y-122595585D01*
X113145530Y-122703128D01*
X113084207Y-122736612D01*
X113014515Y-122731628D01*
X112958582Y-122689756D01*
X112952310Y-122680543D01*
X112940920Y-122662077D01*
X112912712Y-122616344D01*
X112788656Y-122492288D01*
X112670605Y-122419474D01*
X112639336Y-122400187D01*
X112639331Y-122400185D01*
X112637862Y-122399698D01*
X112472797Y-122345001D01*
X112472795Y-122345000D01*
X112370010Y-122334500D01*
X111569998Y-122334500D01*
X111569980Y-122334501D01*
X111467203Y-122345000D01*
X111467200Y-122345001D01*
X111300668Y-122400185D01*
X111300663Y-122400187D01*
X111151342Y-122492289D01*
X111027289Y-122616342D01*
X110935187Y-122765663D01*
X110935186Y-122765666D01*
X110880001Y-122932203D01*
X110880001Y-122932204D01*
X110880000Y-122932204D01*
X110869500Y-123034983D01*
X109628591Y-123034983D01*
X109628591Y-122962421D01*
X109628591Y-122962418D01*
X109628590Y-122962416D01*
X109597829Y-122807773D01*
X109597828Y-122807766D01*
X109580390Y-122765666D01*
X109537488Y-122662090D01*
X109537481Y-122662077D01*
X109449880Y-122530974D01*
X109449877Y-122530970D01*
X109338383Y-122419476D01*
X109338379Y-122419473D01*
X109207276Y-122331872D01*
X109207263Y-122331865D01*
X109061592Y-122271527D01*
X109061580Y-122271524D01*
X108906936Y-122240763D01*
X108906933Y-122240763D01*
X108749249Y-122240763D01*
X108749246Y-122240763D01*
X108594601Y-122271524D01*
X108594589Y-122271527D01*
X108448918Y-122331865D01*
X108448905Y-122331872D01*
X108317802Y-122419473D01*
X108317798Y-122419476D01*
X108206304Y-122530970D01*
X108206301Y-122530974D01*
X108118700Y-122662077D01*
X108118693Y-122662090D01*
X108058355Y-122807761D01*
X108058352Y-122807773D01*
X108027591Y-122962416D01*
X102100500Y-122962416D01*
X102100500Y-121138504D01*
X102120185Y-121071465D01*
X102172989Y-121025710D01*
X102242147Y-121015766D01*
X102305703Y-121044791D01*
X102334985Y-121082209D01*
X102368506Y-121147997D01*
X102474941Y-121294494D01*
X102474945Y-121294499D01*
X102603000Y-121422554D01*
X102603005Y-121422558D01*
X102730787Y-121515396D01*
X102749506Y-121528996D01*
X102854984Y-121582740D01*
X102910860Y-121611211D01*
X102910863Y-121611212D01*
X102996976Y-121639191D01*
X103083091Y-121667171D01*
X103165929Y-121680291D01*
X103261949Y-121695500D01*
X103261954Y-121695500D01*
X104743051Y-121695500D01*
X104829759Y-121681765D01*
X104921909Y-121667171D01*
X105094139Y-121611211D01*
X105255494Y-121528996D01*
X105402001Y-121422553D01*
X105530053Y-121294501D01*
X105636496Y-121147994D01*
X105718711Y-120986639D01*
X105774671Y-120814409D01*
X105789265Y-120722259D01*
X105803000Y-120635551D01*
X105803000Y-120454448D01*
X105786519Y-120350397D01*
X105774671Y-120275591D01*
X105718711Y-120103361D01*
X105718711Y-120103360D01*
X105690240Y-120047484D01*
X105636496Y-119942006D01*
X105622896Y-119923287D01*
X105530058Y-119795505D01*
X105530054Y-119795500D01*
X105401999Y-119667445D01*
X105401994Y-119667441D01*
X105255497Y-119561006D01*
X105255496Y-119561005D01*
X105255494Y-119561004D01*
X105193743Y-119529540D01*
X105094139Y-119478788D01*
X105094136Y-119478787D01*
X104921910Y-119422829D01*
X104743051Y-119394500D01*
X104743046Y-119394500D01*
X103261954Y-119394500D01*
X103261949Y-119394500D01*
X103083089Y-119422829D01*
X102910863Y-119478787D01*
X102910860Y-119478788D01*
X102749502Y-119561006D01*
X102603005Y-119667441D01*
X102603000Y-119667445D01*
X102474945Y-119795500D01*
X102474941Y-119795505D01*
X102368503Y-119942006D01*
X102368502Y-119942007D01*
X102334984Y-120007790D01*
X102287010Y-120058586D01*
X102219189Y-120075381D01*
X102153054Y-120052843D01*
X102109603Y-119998128D01*
X102100500Y-119951495D01*
X102100500Y-112498504D01*
X102120185Y-112431465D01*
X102172989Y-112385710D01*
X102242147Y-112375766D01*
X102305703Y-112404791D01*
X102334984Y-112442207D01*
X102339103Y-112450292D01*
X102368506Y-112507997D01*
X102474941Y-112654494D01*
X102474945Y-112654499D01*
X102603000Y-112782554D01*
X102603005Y-112782558D01*
X102710974Y-112861001D01*
X102749506Y-112888996D01*
X102854984Y-112942740D01*
X102910860Y-112971211D01*
X102910863Y-112971212D01*
X102972388Y-112991202D01*
X103083091Y-113027171D01*
X103165929Y-113040291D01*
X103261949Y-113055500D01*
X103261954Y-113055500D01*
X104743051Y-113055500D01*
X104829759Y-113041765D01*
X104921909Y-113027171D01*
X105094139Y-112971211D01*
X105255494Y-112888996D01*
X105402001Y-112782553D01*
X105530053Y-112654501D01*
X105636496Y-112507994D01*
X105718711Y-112346639D01*
X105774671Y-112174409D01*
X105799310Y-112018846D01*
X105803000Y-111995551D01*
X105803000Y-111814448D01*
X105785902Y-111706503D01*
X105774671Y-111635591D01*
X105718711Y-111463361D01*
X105718711Y-111463360D01*
X105690240Y-111407484D01*
X105636496Y-111302006D01*
X105622896Y-111283287D01*
X105530058Y-111155505D01*
X105530054Y-111155500D01*
X105401999Y-111027445D01*
X105401994Y-111027441D01*
X105255497Y-110921006D01*
X105255496Y-110921005D01*
X105255494Y-110921004D01*
X105203800Y-110894664D01*
X105094139Y-110838788D01*
X105094136Y-110838787D01*
X104921910Y-110782829D01*
X104743051Y-110754500D01*
X104743046Y-110754500D01*
X103261954Y-110754500D01*
X103261949Y-110754500D01*
X103083089Y-110782829D01*
X102910863Y-110838787D01*
X102910860Y-110838788D01*
X102749502Y-110921006D01*
X102603005Y-111027441D01*
X102603000Y-111027445D01*
X102474945Y-111155500D01*
X102474941Y-111155505D01*
X102368503Y-111302006D01*
X102368502Y-111302007D01*
X102334984Y-111367790D01*
X102287010Y-111418586D01*
X102219189Y-111435381D01*
X102153054Y-111412843D01*
X102109603Y-111358128D01*
X102100500Y-111311495D01*
X102100500Y-78597648D01*
X102799500Y-78597648D01*
X102799500Y-78802351D01*
X102831522Y-79004534D01*
X102894781Y-79199223D01*
X102987715Y-79381613D01*
X103108028Y-79547213D01*
X103252786Y-79691971D01*
X103360336Y-79770109D01*
X103418390Y-79812287D01*
X103534607Y-79871503D01*
X103600776Y-79905218D01*
X103600778Y-79905218D01*
X103600781Y-79905220D01*
X103705137Y-79939127D01*
X103795465Y-79968477D01*
X103896557Y-79984488D01*
X103997648Y-80000500D01*
X103997649Y-80000500D01*
X104202351Y-80000500D01*
X104202352Y-80000500D01*
X104404534Y-79968477D01*
X104599219Y-79905220D01*
X104781610Y-79812287D01*
X104874590Y-79744732D01*
X104947213Y-79691971D01*
X104947215Y-79691968D01*
X104947219Y-79691966D01*
X105091966Y-79547219D01*
X105091968Y-79547215D01*
X105091971Y-79547213D01*
X105164186Y-79447816D01*
X105212287Y-79381610D01*
X105305220Y-79199219D01*
X105368477Y-79004534D01*
X105400500Y-78802352D01*
X105400500Y-78597648D01*
X105368477Y-78395465D01*
X105330423Y-78278349D01*
X105305220Y-78200781D01*
X105305218Y-78200778D01*
X105305218Y-78200776D01*
X105219315Y-78032184D01*
X105212287Y-78018390D01*
X105204556Y-78007749D01*
X105091971Y-77852786D01*
X104947213Y-77708028D01*
X104781613Y-77587715D01*
X104781612Y-77587714D01*
X104781610Y-77587713D01*
X104724653Y-77558691D01*
X104599223Y-77494781D01*
X104404534Y-77431522D01*
X104229995Y-77403878D01*
X104202352Y-77399500D01*
X103997648Y-77399500D01*
X103973329Y-77403351D01*
X103795465Y-77431522D01*
X103600776Y-77494781D01*
X103418386Y-77587715D01*
X103252786Y-77708028D01*
X103108028Y-77852786D01*
X102987715Y-78018386D01*
X102894781Y-78200776D01*
X102831522Y-78395465D01*
X102799500Y-78597648D01*
X102100500Y-78597648D01*
X102100500Y-76824500D01*
X102120185Y-76757461D01*
X102172989Y-76711706D01*
X102224500Y-76700500D01*
X110366000Y-76700500D01*
X110433039Y-76720185D01*
G37*
%TD.AperFunction*%
%TD*%
%TA.AperFunction,Conductor*%
%TO.N,P3V3*%
G36*
X141096573Y-95253427D02*
G01*
X141100000Y-95261700D01*
X141100000Y-99694278D01*
X141096573Y-99702551D01*
X141095483Y-99703513D01*
X140203169Y-100397535D01*
X140195986Y-100400000D01*
X139204014Y-100400000D01*
X139196831Y-100397535D01*
X138304517Y-99703513D01*
X138300090Y-99695729D01*
X138300000Y-99694278D01*
X138300000Y-96520000D01*
X138300000Y-95250000D01*
X141088300Y-95250000D01*
X141096573Y-95253427D01*
G37*
%TD.AperFunction*%
%TD*%
%TA.AperFunction,Conductor*%
%TO.N,P2V5*%
G36*
X145993039Y-92799685D02*
G01*
X146038794Y-92852489D01*
X146050000Y-92904000D01*
X146050000Y-96520000D01*
X149736000Y-96520000D01*
X149803039Y-96539685D01*
X149848794Y-96592489D01*
X149860000Y-96644000D01*
X149860000Y-98936000D01*
X149840315Y-99003039D01*
X149787511Y-99048794D01*
X149736000Y-99060000D01*
X144904000Y-99060000D01*
X144836961Y-99040315D01*
X144791206Y-98987511D01*
X144780000Y-98936000D01*
X144780000Y-92904000D01*
X144799685Y-92836961D01*
X144852489Y-92791206D01*
X144904000Y-92780000D01*
X145926000Y-92780000D01*
X145993039Y-92799685D01*
G37*
%TD.AperFunction*%
%TD*%
M02*
