M48
; DRILL file {KiCad 9.0.3} date 2025-10-10T12:54:15-0400
; FORMAT={-:-/ absolute / metric / decimal}
; #@! TF.CreationDate,2025-10-10T12:54:15-04:00
; #@! TF.GenerationSoftware,Kicad,Pcbnew,9.0.3
; #@! TF.FileFunction,Plated,1,6,PTH
FMAT,2
METRIC
; #@! TA.AperFunction,Plated,PTH,ViaDrill
T1C0.150
; #@! TA.AperFunction,Plated,PTH,ComponentDrill
T2C0.200
; #@! TA.AperFunction,Plated,PTH,ViaDrill
T3C0.300
; #@! TA.AperFunction,Plated,PTH,ComponentDrill
T4C0.500
; #@! TA.AperFunction,Plated,PTH,ComponentDrill
T5C0.600
; #@! TA.AperFunction,Plated,PTH,ComponentDrill
T6C0.750
; #@! TA.AperFunction,Plated,PTH,ComponentDrill
T7C1.000
%
G90
G05
T1
X118.7Y-117.2
X120.5Y-99.5
X120.5Y-100.5
X120.5Y-102.0
X120.5Y-103.0
X120.5Y-104.5
X122.7Y-106.2
X136.025Y-109.56
X136.025Y-110.83
X142.1Y-104.8
X142.9Y-104.8
X145.4Y-93.6
T2
X116.647Y-115.85
X116.647Y-117.03
X117.828Y-115.85
X117.828Y-117.03
T3
X111.031Y-113.909
X114.08Y-111.94
X117.796Y-114.069
X121.56Y-98.76
X126.198Y-111.901
T4
X132.08Y-93.0
X132.08Y-94.0
X132.08Y-95.0
X132.08Y-96.0
T6
X111.97Y-123.71
X113.97Y-123.71
T7
X109.22Y-78.74
X111.76Y-78.74
X114.3Y-78.74
X116.84Y-78.74
X119.38Y-78.74
X119.38Y-124.46
X121.92Y-78.74
X121.92Y-124.46
X124.46Y-78.74
X124.46Y-124.46
X127.0Y-78.74
X127.0Y-124.46
X129.54Y-78.74
X129.54Y-124.46
X132.08Y-78.74
X132.08Y-124.46
X134.62Y-78.74
X137.16Y-78.74
X137.16Y-124.46
X139.7Y-78.74
X139.7Y-124.46
X142.24Y-78.74
X142.24Y-124.46
X144.78Y-124.46
X147.32Y-124.46
X149.86Y-124.46
X152.4Y-124.46
X154.94Y-124.46
X157.48Y-124.46
X160.02Y-124.46
X162.56Y-124.46
X165.1Y-124.46
X167.64Y-124.46
X170.18Y-124.46
T5
G00X104.652Y-111.905
M15
G01X103.352Y-111.905
M16
G05
G00X104.652Y-120.545
M15
G01X103.352Y-120.545
M16
G05
G00X108.328Y-111.905
M15
G01X107.328Y-111.905
M16
G05
G00X108.328Y-120.545
M15
G01X107.328Y-120.545
M16
G05
G00X146.68Y-79.21
M15
G01X146.68Y-77.91
M16
G05
G00X146.68Y-82.885
M15
G01X146.68Y-81.885
M16
G05
G00X155.32Y-79.21
M15
G01X155.32Y-77.91
M16
G05
G00X155.32Y-82.885
M15
G01X155.32Y-81.885
M16
G05
G00X161.5Y-79.21
M15
G01X161.5Y-77.91
M16
G05
G00X161.5Y-82.885
M15
G01X161.5Y-81.885
M16
G05
G00X170.14Y-79.21
M15
G01X170.14Y-77.91
M16
G05
G00X170.14Y-82.885
M15
G01X170.14Y-81.885
M16
G05
M30
