%TF.GenerationSoftware,KiCad,Pcbnew,9.0.3*%
%TF.CreationDate,2025-11-22T17:05:10-05:00*%
%TF.ProjectId,SeedSBC_rev2_0,53656564-5342-4435-9f72-6576325f302e,rev?*%
%TF.SameCoordinates,Original*%
%TF.FileFunction,Copper,L7,Inr*%
%TF.FilePolarity,Positive*%
%FSLAX46Y46*%
G04 Gerber Fmt 4.6, Leading zero omitted, Abs format (unit mm)*
G04 Created by KiCad (PCBNEW 9.0.3) date 2025-11-22 17:05:10*
%MOMM*%
%LPD*%
G01*
G04 APERTURE LIST*
G04 Aperture macros list*
%AMRoundRect*
0 Rectangle with rounded corners*
0 $1 Rounding radius*
0 $2 $3 $4 $5 $6 $7 $8 $9 X,Y pos of 4 corners*
0 Add a 4 corners polygon primitive as box body*
4,1,4,$2,$3,$4,$5,$6,$7,$8,$9,$2,$3,0*
0 Add four circle primitives for the rounded corners*
1,1,$1+$1,$2,$3*
1,1,$1+$1,$4,$5*
1,1,$1+$1,$6,$7*
1,1,$1+$1,$8,$9*
0 Add four rect primitives between the rounded corners*
20,1,$1+$1,$2,$3,$4,$5,0*
20,1,$1+$1,$4,$5,$6,$7,0*
20,1,$1+$1,$6,$7,$8,$9,0*
20,1,$1+$1,$8,$9,$2,$3,0*%
G04 Aperture macros list end*
%TA.AperFunction,ComponentPad*%
%ADD10C,0.700000*%
%TD*%
%TA.AperFunction,ComponentPad*%
%ADD11C,4.400000*%
%TD*%
%TA.AperFunction,HeatsinkPad*%
%ADD12O,2.100000X1.000000*%
%TD*%
%TA.AperFunction,HeatsinkPad*%
%ADD13O,1.800000X1.000000*%
%TD*%
%TA.AperFunction,HeatsinkPad*%
%ADD14O,1.000000X2.100000*%
%TD*%
%TA.AperFunction,HeatsinkPad*%
%ADD15O,1.000000X1.800000*%
%TD*%
%TA.AperFunction,ComponentPad*%
%ADD16R,1.700000X1.700000*%
%TD*%
%TA.AperFunction,ComponentPad*%
%ADD17C,1.700000*%
%TD*%
%TA.AperFunction,ComponentPad*%
%ADD18RoundRect,0.250000X-0.625000X0.350000X-0.625000X-0.350000X0.625000X-0.350000X0.625000X0.350000X0*%
%TD*%
%TA.AperFunction,ComponentPad*%
%ADD19O,1.750000X1.200000*%
%TD*%
%TA.AperFunction,HeatsinkPad*%
%ADD20C,0.500000*%
%TD*%
%TA.AperFunction,ViaPad*%
%ADD21C,0.400000*%
%TD*%
%TA.AperFunction,ViaPad*%
%ADD22C,0.600000*%
%TD*%
G04 APERTURE END LIST*
D10*
%TO.N,GND*%
%TO.C,H1*%
X103760000Y-77470000D03*
X104243274Y-76303274D03*
X104243274Y-78636726D03*
X105410000Y-75820000D03*
D11*
X105410000Y-77470000D03*
D10*
X105410000Y-79120000D03*
X106576726Y-76303274D03*
X106576726Y-78636726D03*
X107060000Y-77470000D03*
%TD*%
D12*
%TO.N,Net-(J6-SHIELD)*%
%TO.C,J6*%
X108320000Y-82296000D03*
D13*
X104140000Y-82296000D03*
D12*
X108320000Y-90936000D03*
D13*
X104140000Y-90936000D03*
%TD*%
D10*
%TO.N,GND*%
%TO.C,H2*%
X182500000Y-77470000D03*
X182983274Y-76303274D03*
X182983274Y-78636726D03*
X184150000Y-75820000D03*
D11*
X184150000Y-77470000D03*
D10*
X184150000Y-79120000D03*
X185316726Y-76303274D03*
X185316726Y-78636726D03*
X185800000Y-77470000D03*
%TD*%
D14*
%TO.N,GND*%
%TO.C,J7*%
X174500000Y-80445000D03*
D15*
X174500000Y-76265000D03*
D14*
X165860000Y-80445000D03*
D15*
X165860000Y-76265000D03*
%TD*%
D10*
%TO.N,GND*%
%TO.C,H3*%
X182500000Y-123190000D03*
X182983274Y-122023274D03*
X182983274Y-124356726D03*
X184150000Y-121540000D03*
D11*
X184150000Y-123190000D03*
D10*
X184150000Y-124840000D03*
X185316726Y-122023274D03*
X185316726Y-124356726D03*
X185800000Y-123190000D03*
%TD*%
D16*
%TO.N,USB_VBUS*%
%TO.C,J1*%
X111760000Y-76200000D03*
D17*
%TO.N,EN*%
X114300000Y-76200000D03*
%TO.N,USB_VBUS2*%
X116840000Y-76200000D03*
%TO.N,/FPGA + SRAM/IO_T8*%
X119380000Y-76200000D03*
%TO.N,/FPGA + SRAM/IO_T7*%
X121920000Y-76200000D03*
%TO.N,/FPGA + SRAM/IO_T6*%
X124460000Y-76200000D03*
%TO.N,/FPGA + SRAM/IO_T5*%
X127000000Y-76200000D03*
%TO.N,/FPGA + SRAM/IO_T4*%
X129540000Y-76200000D03*
%TO.N,/FPGA + SRAM/IO_T3*%
X132080000Y-76200000D03*
%TO.N,/FPGA + SRAM/IO_T2*%
X134620000Y-76200000D03*
%TO.N,/FPGA + SRAM/IO_T1*%
X137160000Y-76200000D03*
%TO.N,GND*%
X139700000Y-76200000D03*
%TD*%
D10*
%TO.N,GND*%
%TO.C,H4*%
X103760000Y-123190000D03*
X104243274Y-122023274D03*
X104243274Y-124356726D03*
X105410000Y-121540000D03*
D11*
X105410000Y-123190000D03*
D10*
X105410000Y-124840000D03*
X106576726Y-122023274D03*
X106576726Y-124356726D03*
X107060000Y-123190000D03*
%TD*%
D16*
%TO.N,/FPGA + SRAM/FPGA/SPI_CNFG_CS*%
%TO.C,J4*%
X149860000Y-124460000D03*
D17*
%TO.N,/FPGA + SRAM/FPGA/SPI_CNFG_DO*%
X152400000Y-124460000D03*
%TO.N,/FPGA + SRAM/FPGA/SPI_CNFG_DI*%
X154940000Y-124460000D03*
%TO.N,/FPGA + SRAM/FPGA/SPI_CNFG_SCK*%
X157480000Y-124460000D03*
%TO.N,P3V3*%
X160020000Y-124460000D03*
%TO.N,GND*%
X162560000Y-124460000D03*
%TD*%
D18*
%TO.N,V_BAT*%
%TO.C,J3*%
X105390000Y-99250000D03*
D19*
%TO.N,GND*%
X105390000Y-101250000D03*
%TD*%
D20*
%TO.N,GND*%
%TO.C,U9*%
X112080000Y-99670000D03*
X112080000Y-100850000D03*
X113260000Y-99670000D03*
X113260000Y-100850000D03*
%TD*%
D16*
%TO.N,V_BAT*%
%TO.C,J8*%
X111760000Y-124460000D03*
D17*
%TO.N,P3V3*%
X114300000Y-124460000D03*
%TO.N,GND*%
X116840000Y-124460000D03*
%TO.N,/FPGA + SRAM/IO_B10*%
X119380000Y-124460000D03*
%TO.N,/FPGA + SRAM/IO_B9*%
X121920000Y-124460000D03*
%TO.N,/FPGA + SRAM/IO_B8*%
X124460000Y-124460000D03*
%TO.N,/FPGA + SRAM/IO_B7*%
X127000000Y-124460000D03*
%TO.N,/FPGA + SRAM/IO_B6*%
X129540000Y-124460000D03*
%TO.N,/FPGA + SRAM/IO_B5*%
X132080000Y-124460000D03*
%TO.N,/FPGA + SRAM/IO_B4*%
X134620000Y-124460000D03*
%TO.N,/FPGA + SRAM/IO_B3*%
X137160000Y-124460000D03*
%TO.N,/FPGA + SRAM/IO_B2*%
X139700000Y-124460000D03*
%TO.N,/FPGA + SRAM/IO_B1*%
X142240000Y-124460000D03*
%TO.N,GND*%
X144780000Y-124460000D03*
%TD*%
D21*
%TO.N,P3V3*%
X135730000Y-104170000D03*
X121580000Y-115720000D03*
X121560000Y-105560000D03*
X162310000Y-97570000D03*
X137610000Y-96390000D03*
X162355521Y-103054479D03*
X182910000Y-91440000D03*
X159829479Y-103030521D03*
X159425000Y-97175000D03*
X117130000Y-111010000D03*
D22*
%TO.N,GND*%
X132080000Y-96520000D03*
X111760000Y-96520000D03*
X137160000Y-119380000D03*
D21*
X134084395Y-102580000D03*
D22*
X147320000Y-119380000D03*
X116840000Y-119380000D03*
X182880000Y-96520000D03*
X162535248Y-88854186D03*
X127000000Y-111760000D03*
X127000000Y-88900000D03*
X132080000Y-104140000D03*
X132080000Y-119380000D03*
X162560000Y-119380000D03*
X111760000Y-88900000D03*
X116840000Y-81280000D03*
X172720000Y-111760000D03*
X137160000Y-111760000D03*
X177800000Y-104140000D03*
X167640000Y-119380000D03*
X127000000Y-81280000D03*
X121920000Y-81280000D03*
X162560000Y-81280000D03*
X121920000Y-119380000D03*
X162560000Y-111760000D03*
X177800000Y-111760000D03*
X172720000Y-119380000D03*
X111760000Y-81280000D03*
X111760000Y-111760000D03*
X182880000Y-104140000D03*
X111760000Y-119380000D03*
X132080000Y-111760000D03*
X142194186Y-81295008D03*
X127000000Y-104140000D03*
X127000000Y-119380000D03*
X132080000Y-81280000D03*
X167640000Y-111760000D03*
X177800000Y-88900000D03*
X177800000Y-119380000D03*
X132080000Y-88900000D03*
X177800000Y-96520000D03*
X177800000Y-81280000D03*
X147320000Y-81280000D03*
D21*
X120020000Y-109810000D03*
X170170000Y-77920000D03*
X136140000Y-96390000D03*
X170170000Y-76440000D03*
X150580000Y-98870000D03*
X150580000Y-101790000D03*
X118950000Y-105660000D03*
X150580000Y-103250000D03*
X156400000Y-97410000D03*
X160240000Y-95080000D03*
X158160000Y-102500000D03*
X158160000Y-98120000D03*
X160240000Y-93620000D03*
X154410000Y-93620000D03*
X139070000Y-96390000D03*
X134670000Y-96390000D03*
X150580000Y-97410000D03*
X154410000Y-95080000D03*
X150580000Y-100330000D03*
X158160000Y-101040000D03*
X156400000Y-103250000D03*
X163980000Y-101040000D03*
X156400000Y-98870000D03*
X163980000Y-98120000D03*
X163980000Y-102500000D03*
X156400000Y-101790000D03*
X142330000Y-98140000D03*
X156400000Y-100330000D03*
X121490000Y-109800000D03*
X163980000Y-99580000D03*
X158160000Y-99580000D03*
%TO.N,P1V2*%
X152780000Y-96730000D03*
X182910000Y-97540000D03*
X154200000Y-96730000D03*
X154850000Y-101790000D03*
X152130000Y-101790000D03*
%TO.N,P2V5*%
X124018497Y-111545078D03*
X157100000Y-96800000D03*
%TO.N,USB_VBUS2*%
X167260000Y-78650000D03*
X167260000Y-75710000D03*
X173080000Y-75710000D03*
X167260000Y-77180000D03*
X173080000Y-78650000D03*
X182910000Y-88390000D03*
X173080000Y-77180000D03*
%TO.N,/USB/1.8V*%
X141720000Y-95280000D03*
%TO.N,Net-(U8-VPHY)*%
X134110000Y-98080000D03*
%TO.N,Net-(U8-VPLL)*%
X134050000Y-100590000D03*
%TO.N,/FPGA + SRAM/SD_CLK*%
X118960000Y-109910000D03*
%TO.N,/FPGA + SRAM/SD_DAT0*%
X120530000Y-107700000D03*
%TO.N,/FPGA + SRAM/SD_DAT3*%
X120540000Y-113580000D03*
%TO.N,/SD MMC/SD_CMD*%
X120540000Y-112120000D03*
%TO.N,/FPGA + SRAM/SD_DAT2*%
X120540000Y-115040000D03*
%TO.N,/FPGA + SRAM/SD_DAT1*%
X120670000Y-106240000D03*
%TO.N,/FPGA + SRAM/FPGA/SPI_CNFG_DO*%
X150970000Y-113020000D03*
X134670133Y-105392219D03*
%TO.N,/FPGA + SRAM/FPGA/SPI_CNFG_DI*%
X134120137Y-105389567D03*
X154490000Y-117390000D03*
%TO.N,/FPGA + SRAM/FPGA/SPI_CNFG_SCK*%
X157840000Y-121610000D03*
X133520000Y-104410000D03*
%TO.N,/FPGA + SRAM/SPI_CNFG_CS_B*%
X156950000Y-118150000D03*
X135220135Y-105391775D03*
%TO.N,Net-(U8-REF)*%
X134300000Y-99610000D03*
%TO.N,Net-(U8-~{RESET})*%
X134070000Y-103130000D03*
%TD*%
%TA.AperFunction,Conductor*%
%TO.N,GND*%
G36*
X187402539Y-74180185D02*
G01*
X187448294Y-74232989D01*
X187459500Y-74284500D01*
X187459500Y-126375500D01*
X187439815Y-126442539D01*
X187387011Y-126488294D01*
X187335500Y-126499500D01*
X102224500Y-126499500D01*
X102157461Y-126479815D01*
X102111706Y-126427011D01*
X102100500Y-126375500D01*
X102100500Y-125324822D01*
X110759499Y-125324822D01*
X110768231Y-125368717D01*
X110768234Y-125368724D01*
X110798118Y-125413449D01*
X110801496Y-125418504D01*
X110851278Y-125451767D01*
X110851281Y-125451767D01*
X110851282Y-125451768D01*
X110895177Y-125460500D01*
X110895180Y-125460500D01*
X112624822Y-125460500D01*
X112668717Y-125451768D01*
X112668717Y-125451767D01*
X112668722Y-125451767D01*
X112718504Y-125418504D01*
X112751767Y-125368722D01*
X112760500Y-125324820D01*
X112760500Y-124558543D01*
X113299499Y-124558543D01*
X113337947Y-124751829D01*
X113337950Y-124751839D01*
X113413364Y-124933907D01*
X113413371Y-124933920D01*
X113522860Y-125097781D01*
X113522863Y-125097785D01*
X113662214Y-125237136D01*
X113662218Y-125237139D01*
X113826079Y-125346628D01*
X113826092Y-125346635D01*
X114008160Y-125422049D01*
X114008165Y-125422051D01*
X114008169Y-125422051D01*
X114008170Y-125422052D01*
X114201456Y-125460500D01*
X114201459Y-125460500D01*
X114398543Y-125460500D01*
X114528582Y-125434632D01*
X114591835Y-125422051D01*
X114773914Y-125346632D01*
X114937782Y-125237139D01*
X115077139Y-125097782D01*
X115186632Y-124933914D01*
X115262051Y-124751835D01*
X115269852Y-124712615D01*
X115302236Y-124650707D01*
X115362952Y-124616133D01*
X115432721Y-124619872D01*
X115489394Y-124660738D01*
X115513942Y-124717411D01*
X115523242Y-124776127D01*
X115523242Y-124776130D01*
X115588904Y-124978217D01*
X115685375Y-125167550D01*
X115724728Y-125221716D01*
X116357037Y-124589408D01*
X116374075Y-124652993D01*
X116439901Y-124767007D01*
X116532993Y-124860099D01*
X116647007Y-124925925D01*
X116710590Y-124942962D01*
X116078282Y-125575269D01*
X116078282Y-125575270D01*
X116132449Y-125614624D01*
X116321782Y-125711095D01*
X116523870Y-125776757D01*
X116733754Y-125810000D01*
X116946246Y-125810000D01*
X117156127Y-125776757D01*
X117156130Y-125776757D01*
X117358217Y-125711095D01*
X117547554Y-125614622D01*
X117601716Y-125575270D01*
X117601717Y-125575270D01*
X116969408Y-124942962D01*
X117032993Y-124925925D01*
X117147007Y-124860099D01*
X117240099Y-124767007D01*
X117305925Y-124652993D01*
X117322962Y-124589409D01*
X117955270Y-125221717D01*
X117955270Y-125221716D01*
X117994622Y-125167554D01*
X118091095Y-124978217D01*
X118156755Y-124776134D01*
X118166056Y-124717412D01*
X118195985Y-124654277D01*
X118255296Y-124617346D01*
X118325159Y-124618342D01*
X118383392Y-124656952D01*
X118410147Y-124712616D01*
X118417947Y-124751830D01*
X118417950Y-124751839D01*
X118493364Y-124933907D01*
X118493371Y-124933920D01*
X118602860Y-125097781D01*
X118602863Y-125097785D01*
X118742214Y-125237136D01*
X118742218Y-125237139D01*
X118906079Y-125346628D01*
X118906092Y-125346635D01*
X119088160Y-125422049D01*
X119088165Y-125422051D01*
X119088169Y-125422051D01*
X119088170Y-125422052D01*
X119281456Y-125460500D01*
X119281459Y-125460500D01*
X119478543Y-125460500D01*
X119608582Y-125434632D01*
X119671835Y-125422051D01*
X119853914Y-125346632D01*
X120017782Y-125237139D01*
X120157139Y-125097782D01*
X120266632Y-124933914D01*
X120342051Y-124751835D01*
X120362167Y-124650707D01*
X120380500Y-124558543D01*
X120919499Y-124558543D01*
X120957947Y-124751829D01*
X120957950Y-124751839D01*
X121033364Y-124933907D01*
X121033371Y-124933920D01*
X121142860Y-125097781D01*
X121142863Y-125097785D01*
X121282214Y-125237136D01*
X121282218Y-125237139D01*
X121446079Y-125346628D01*
X121446092Y-125346635D01*
X121628160Y-125422049D01*
X121628165Y-125422051D01*
X121628169Y-125422051D01*
X121628170Y-125422052D01*
X121821456Y-125460500D01*
X121821459Y-125460500D01*
X122018543Y-125460500D01*
X122148582Y-125434632D01*
X122211835Y-125422051D01*
X122393914Y-125346632D01*
X122557782Y-125237139D01*
X122697139Y-125097782D01*
X122806632Y-124933914D01*
X122882051Y-124751835D01*
X122902167Y-124650707D01*
X122920500Y-124558543D01*
X123459499Y-124558543D01*
X123497947Y-124751829D01*
X123497950Y-124751839D01*
X123573364Y-124933907D01*
X123573371Y-124933920D01*
X123682860Y-125097781D01*
X123682863Y-125097785D01*
X123822214Y-125237136D01*
X123822218Y-125237139D01*
X123986079Y-125346628D01*
X123986092Y-125346635D01*
X124168160Y-125422049D01*
X124168165Y-125422051D01*
X124168169Y-125422051D01*
X124168170Y-125422052D01*
X124361456Y-125460500D01*
X124361459Y-125460500D01*
X124558543Y-125460500D01*
X124688582Y-125434632D01*
X124751835Y-125422051D01*
X124933914Y-125346632D01*
X125097782Y-125237139D01*
X125237139Y-125097782D01*
X125346632Y-124933914D01*
X125422051Y-124751835D01*
X125442167Y-124650707D01*
X125460500Y-124558543D01*
X125999499Y-124558543D01*
X126037947Y-124751829D01*
X126037950Y-124751839D01*
X126113364Y-124933907D01*
X126113371Y-124933920D01*
X126222860Y-125097781D01*
X126222863Y-125097785D01*
X126362214Y-125237136D01*
X126362218Y-125237139D01*
X126526079Y-125346628D01*
X126526092Y-125346635D01*
X126708160Y-125422049D01*
X126708165Y-125422051D01*
X126708169Y-125422051D01*
X126708170Y-125422052D01*
X126901456Y-125460500D01*
X126901459Y-125460500D01*
X127098543Y-125460500D01*
X127228582Y-125434632D01*
X127291835Y-125422051D01*
X127473914Y-125346632D01*
X127637782Y-125237139D01*
X127777139Y-125097782D01*
X127886632Y-124933914D01*
X127962051Y-124751835D01*
X127982167Y-124650707D01*
X128000500Y-124558543D01*
X128539499Y-124558543D01*
X128577947Y-124751829D01*
X128577950Y-124751839D01*
X128653364Y-124933907D01*
X128653371Y-124933920D01*
X128762860Y-125097781D01*
X128762863Y-125097785D01*
X128902214Y-125237136D01*
X128902218Y-125237139D01*
X129066079Y-125346628D01*
X129066092Y-125346635D01*
X129248160Y-125422049D01*
X129248165Y-125422051D01*
X129248169Y-125422051D01*
X129248170Y-125422052D01*
X129441456Y-125460500D01*
X129441459Y-125460500D01*
X129638543Y-125460500D01*
X129768582Y-125434632D01*
X129831835Y-125422051D01*
X130013914Y-125346632D01*
X130177782Y-125237139D01*
X130317139Y-125097782D01*
X130426632Y-124933914D01*
X130502051Y-124751835D01*
X130522167Y-124650707D01*
X130540500Y-124558543D01*
X131079499Y-124558543D01*
X131117947Y-124751829D01*
X131117950Y-124751839D01*
X131193364Y-124933907D01*
X131193371Y-124933920D01*
X131302860Y-125097781D01*
X131302863Y-125097785D01*
X131442214Y-125237136D01*
X131442218Y-125237139D01*
X131606079Y-125346628D01*
X131606092Y-125346635D01*
X131788160Y-125422049D01*
X131788165Y-125422051D01*
X131788169Y-125422051D01*
X131788170Y-125422052D01*
X131981456Y-125460500D01*
X131981459Y-125460500D01*
X132178543Y-125460500D01*
X132308582Y-125434632D01*
X132371835Y-125422051D01*
X132553914Y-125346632D01*
X132717782Y-125237139D01*
X132857139Y-125097782D01*
X132966632Y-124933914D01*
X133042051Y-124751835D01*
X133062167Y-124650707D01*
X133080500Y-124558543D01*
X133619499Y-124558543D01*
X133657947Y-124751829D01*
X133657950Y-124751839D01*
X133733364Y-124933907D01*
X133733371Y-124933920D01*
X133842860Y-125097781D01*
X133842863Y-125097785D01*
X133982214Y-125237136D01*
X133982218Y-125237139D01*
X134146079Y-125346628D01*
X134146092Y-125346635D01*
X134328160Y-125422049D01*
X134328165Y-125422051D01*
X134328169Y-125422051D01*
X134328170Y-125422052D01*
X134521456Y-125460500D01*
X134521459Y-125460500D01*
X134718543Y-125460500D01*
X134848582Y-125434632D01*
X134911835Y-125422051D01*
X135093914Y-125346632D01*
X135257782Y-125237139D01*
X135397139Y-125097782D01*
X135506632Y-124933914D01*
X135582051Y-124751835D01*
X135602167Y-124650707D01*
X135620500Y-124558543D01*
X136159499Y-124558543D01*
X136197947Y-124751829D01*
X136197950Y-124751839D01*
X136273364Y-124933907D01*
X136273371Y-124933920D01*
X136382860Y-125097781D01*
X136382863Y-125097785D01*
X136522214Y-125237136D01*
X136522218Y-125237139D01*
X136686079Y-125346628D01*
X136686092Y-125346635D01*
X136868160Y-125422049D01*
X136868165Y-125422051D01*
X136868169Y-125422051D01*
X136868170Y-125422052D01*
X137061456Y-125460500D01*
X137061459Y-125460500D01*
X137258543Y-125460500D01*
X137388582Y-125434632D01*
X137451835Y-125422051D01*
X137633914Y-125346632D01*
X137797782Y-125237139D01*
X137937139Y-125097782D01*
X138046632Y-124933914D01*
X138122051Y-124751835D01*
X138142167Y-124650707D01*
X138160500Y-124558543D01*
X138699499Y-124558543D01*
X138737947Y-124751829D01*
X138737950Y-124751839D01*
X138813364Y-124933907D01*
X138813371Y-124933920D01*
X138922860Y-125097781D01*
X138922863Y-125097785D01*
X139062214Y-125237136D01*
X139062218Y-125237139D01*
X139226079Y-125346628D01*
X139226092Y-125346635D01*
X139408160Y-125422049D01*
X139408165Y-125422051D01*
X139408169Y-125422051D01*
X139408170Y-125422052D01*
X139601456Y-125460500D01*
X139601459Y-125460500D01*
X139798543Y-125460500D01*
X139928582Y-125434632D01*
X139991835Y-125422051D01*
X140173914Y-125346632D01*
X140337782Y-125237139D01*
X140477139Y-125097782D01*
X140586632Y-124933914D01*
X140662051Y-124751835D01*
X140682167Y-124650707D01*
X140700500Y-124558543D01*
X141239499Y-124558543D01*
X141277947Y-124751829D01*
X141277950Y-124751839D01*
X141353364Y-124933907D01*
X141353371Y-124933920D01*
X141462860Y-125097781D01*
X141462863Y-125097785D01*
X141602214Y-125237136D01*
X141602218Y-125237139D01*
X141766079Y-125346628D01*
X141766092Y-125346635D01*
X141948160Y-125422049D01*
X141948165Y-125422051D01*
X141948169Y-125422051D01*
X141948170Y-125422052D01*
X142141456Y-125460500D01*
X142141459Y-125460500D01*
X142338543Y-125460500D01*
X142468582Y-125434632D01*
X142531835Y-125422051D01*
X142713914Y-125346632D01*
X142877782Y-125237139D01*
X143017139Y-125097782D01*
X143126632Y-124933914D01*
X143202051Y-124751835D01*
X143209852Y-124712615D01*
X143242236Y-124650707D01*
X143302952Y-124616133D01*
X143372721Y-124619872D01*
X143429394Y-124660738D01*
X143453942Y-124717411D01*
X143463242Y-124776127D01*
X143463242Y-124776130D01*
X143528904Y-124978217D01*
X143625375Y-125167550D01*
X143664728Y-125221716D01*
X144297037Y-124589408D01*
X144314075Y-124652993D01*
X144379901Y-124767007D01*
X144472993Y-124860099D01*
X144587007Y-124925925D01*
X144650590Y-124942962D01*
X144018282Y-125575269D01*
X144018282Y-125575270D01*
X144072449Y-125614624D01*
X144261782Y-125711095D01*
X144463870Y-125776757D01*
X144673754Y-125810000D01*
X144886246Y-125810000D01*
X145096127Y-125776757D01*
X145096130Y-125776757D01*
X145298217Y-125711095D01*
X145487554Y-125614622D01*
X145541716Y-125575270D01*
X145541717Y-125575270D01*
X145291269Y-125324822D01*
X148859499Y-125324822D01*
X148868231Y-125368717D01*
X148868234Y-125368724D01*
X148898118Y-125413449D01*
X148901496Y-125418504D01*
X148951278Y-125451767D01*
X148951281Y-125451767D01*
X148951282Y-125451768D01*
X148995177Y-125460500D01*
X148995180Y-125460500D01*
X150724822Y-125460500D01*
X150768717Y-125451768D01*
X150768717Y-125451767D01*
X150768722Y-125451767D01*
X150818504Y-125418504D01*
X150851767Y-125368722D01*
X150860500Y-125324820D01*
X150860500Y-124558543D01*
X151399499Y-124558543D01*
X151437947Y-124751829D01*
X151437950Y-124751839D01*
X151513364Y-124933907D01*
X151513371Y-124933920D01*
X151622860Y-125097781D01*
X151622863Y-125097785D01*
X151762214Y-125237136D01*
X151762218Y-125237139D01*
X151926079Y-125346628D01*
X151926092Y-125346635D01*
X152108160Y-125422049D01*
X152108165Y-125422051D01*
X152108169Y-125422051D01*
X152108170Y-125422052D01*
X152301456Y-125460500D01*
X152301459Y-125460500D01*
X152498543Y-125460500D01*
X152628582Y-125434632D01*
X152691835Y-125422051D01*
X152873914Y-125346632D01*
X153037782Y-125237139D01*
X153177139Y-125097782D01*
X153286632Y-124933914D01*
X153362051Y-124751835D01*
X153382167Y-124650707D01*
X153400500Y-124558543D01*
X153939499Y-124558543D01*
X153977947Y-124751829D01*
X153977950Y-124751839D01*
X154053364Y-124933907D01*
X154053371Y-124933920D01*
X154162860Y-125097781D01*
X154162863Y-125097785D01*
X154302214Y-125237136D01*
X154302218Y-125237139D01*
X154466079Y-125346628D01*
X154466092Y-125346635D01*
X154648160Y-125422049D01*
X154648165Y-125422051D01*
X154648169Y-125422051D01*
X154648170Y-125422052D01*
X154841456Y-125460500D01*
X154841459Y-125460500D01*
X155038543Y-125460500D01*
X155168582Y-125434632D01*
X155231835Y-125422051D01*
X155413914Y-125346632D01*
X155577782Y-125237139D01*
X155717139Y-125097782D01*
X155826632Y-124933914D01*
X155902051Y-124751835D01*
X155922167Y-124650707D01*
X155940500Y-124558543D01*
X156479499Y-124558543D01*
X156517947Y-124751829D01*
X156517950Y-124751839D01*
X156593364Y-124933907D01*
X156593371Y-124933920D01*
X156702860Y-125097781D01*
X156702863Y-125097785D01*
X156842214Y-125237136D01*
X156842218Y-125237139D01*
X157006079Y-125346628D01*
X157006092Y-125346635D01*
X157188160Y-125422049D01*
X157188165Y-125422051D01*
X157188169Y-125422051D01*
X157188170Y-125422052D01*
X157381456Y-125460500D01*
X157381459Y-125460500D01*
X157578543Y-125460500D01*
X157708582Y-125434632D01*
X157771835Y-125422051D01*
X157953914Y-125346632D01*
X158117782Y-125237139D01*
X158257139Y-125097782D01*
X158366632Y-124933914D01*
X158442051Y-124751835D01*
X158462167Y-124650707D01*
X158480500Y-124558543D01*
X159019499Y-124558543D01*
X159057947Y-124751829D01*
X159057950Y-124751839D01*
X159133364Y-124933907D01*
X159133371Y-124933920D01*
X159242860Y-125097781D01*
X159242863Y-125097785D01*
X159382214Y-125237136D01*
X159382218Y-125237139D01*
X159546079Y-125346628D01*
X159546092Y-125346635D01*
X159728160Y-125422049D01*
X159728165Y-125422051D01*
X159728169Y-125422051D01*
X159728170Y-125422052D01*
X159921456Y-125460500D01*
X159921459Y-125460500D01*
X160118543Y-125460500D01*
X160248582Y-125434632D01*
X160311835Y-125422051D01*
X160493914Y-125346632D01*
X160657782Y-125237139D01*
X160797139Y-125097782D01*
X160906632Y-124933914D01*
X160982051Y-124751835D01*
X160989852Y-124712615D01*
X161022236Y-124650707D01*
X161082952Y-124616133D01*
X161152721Y-124619872D01*
X161209394Y-124660738D01*
X161233942Y-124717411D01*
X161243242Y-124776127D01*
X161243242Y-124776130D01*
X161308904Y-124978217D01*
X161405375Y-125167550D01*
X161444728Y-125221716D01*
X162077037Y-124589408D01*
X162094075Y-124652993D01*
X162159901Y-124767007D01*
X162252993Y-124860099D01*
X162367007Y-124925925D01*
X162430590Y-124942962D01*
X161798282Y-125575269D01*
X161798282Y-125575270D01*
X161852449Y-125614624D01*
X162041782Y-125711095D01*
X162243870Y-125776757D01*
X162453754Y-125810000D01*
X162666246Y-125810000D01*
X162876127Y-125776757D01*
X162876130Y-125776757D01*
X163078217Y-125711095D01*
X163267554Y-125614622D01*
X163321716Y-125575270D01*
X163321717Y-125575270D01*
X162689408Y-124942962D01*
X162752993Y-124925925D01*
X162867007Y-124860099D01*
X162960099Y-124767007D01*
X163025925Y-124652993D01*
X163042962Y-124589409D01*
X163675270Y-125221717D01*
X163675270Y-125221716D01*
X163714622Y-125167554D01*
X163811095Y-124978217D01*
X163876757Y-124776130D01*
X163876757Y-124776127D01*
X163910000Y-124566246D01*
X163910000Y-124353753D01*
X163876757Y-124143872D01*
X163876757Y-124143869D01*
X163811095Y-123941782D01*
X163714624Y-123752449D01*
X163675270Y-123698282D01*
X163675269Y-123698282D01*
X163042962Y-124330590D01*
X163025925Y-124267007D01*
X162960099Y-124152993D01*
X162867007Y-124059901D01*
X162752993Y-123994075D01*
X162689409Y-123977037D01*
X163321716Y-123344728D01*
X163267550Y-123305375D01*
X163078217Y-123208904D01*
X162876129Y-123143242D01*
X162666246Y-123110000D01*
X162453754Y-123110000D01*
X162243872Y-123143242D01*
X162243869Y-123143242D01*
X162041782Y-123208904D01*
X161852439Y-123305380D01*
X161798282Y-123344727D01*
X161798282Y-123344728D01*
X162430591Y-123977037D01*
X162367007Y-123994075D01*
X162252993Y-124059901D01*
X162159901Y-124152993D01*
X162094075Y-124267007D01*
X162077037Y-124330591D01*
X161444728Y-123698282D01*
X161444727Y-123698282D01*
X161405380Y-123752439D01*
X161308904Y-123941782D01*
X161243242Y-124143869D01*
X161243242Y-124143870D01*
X161233942Y-124202589D01*
X161204012Y-124265723D01*
X161144700Y-124302654D01*
X161074838Y-124301656D01*
X161016605Y-124263046D01*
X160989852Y-124207381D01*
X160982052Y-124168172D01*
X160982051Y-124168167D01*
X160982051Y-124168165D01*
X160971986Y-124143865D01*
X160906635Y-123986092D01*
X160906628Y-123986079D01*
X160797139Y-123822218D01*
X160797136Y-123822214D01*
X160657785Y-123682863D01*
X160657781Y-123682860D01*
X160493920Y-123573371D01*
X160493907Y-123573364D01*
X160332596Y-123506548D01*
X160311839Y-123497950D01*
X160311829Y-123497947D01*
X160118543Y-123459500D01*
X160118541Y-123459500D01*
X159921459Y-123459500D01*
X159921457Y-123459500D01*
X159728170Y-123497947D01*
X159728160Y-123497950D01*
X159546092Y-123573364D01*
X159546079Y-123573371D01*
X159382218Y-123682860D01*
X159382214Y-123682863D01*
X159242863Y-123822214D01*
X159242860Y-123822218D01*
X159133371Y-123986079D01*
X159133364Y-123986092D01*
X159057950Y-124168160D01*
X159057947Y-124168170D01*
X159019500Y-124361456D01*
X159019500Y-124361459D01*
X159019500Y-124558541D01*
X159019500Y-124558543D01*
X159019499Y-124558543D01*
X158480500Y-124558543D01*
X158480500Y-124361456D01*
X158442052Y-124168170D01*
X158442051Y-124168167D01*
X158442051Y-124168165D01*
X158431986Y-124143865D01*
X158366635Y-123986092D01*
X158366628Y-123986079D01*
X158257139Y-123822218D01*
X158257136Y-123822214D01*
X158117785Y-123682863D01*
X158117781Y-123682860D01*
X157953920Y-123573371D01*
X157953907Y-123573364D01*
X157771839Y-123497950D01*
X157771829Y-123497947D01*
X157578543Y-123459500D01*
X157578541Y-123459500D01*
X157381459Y-123459500D01*
X157381457Y-123459500D01*
X157188170Y-123497947D01*
X157188160Y-123497950D01*
X157006092Y-123573364D01*
X157006079Y-123573371D01*
X156842218Y-123682860D01*
X156842214Y-123682863D01*
X156702863Y-123822214D01*
X156702860Y-123822218D01*
X156593371Y-123986079D01*
X156593364Y-123986092D01*
X156517950Y-124168160D01*
X156517947Y-124168170D01*
X156479500Y-124361456D01*
X156479500Y-124361459D01*
X156479500Y-124558541D01*
X156479500Y-124558543D01*
X156479499Y-124558543D01*
X155940500Y-124558543D01*
X155940500Y-124361456D01*
X155902052Y-124168170D01*
X155902051Y-124168167D01*
X155902051Y-124168165D01*
X155891986Y-124143865D01*
X155826635Y-123986092D01*
X155826628Y-123986079D01*
X155717139Y-123822218D01*
X155717136Y-123822214D01*
X155577785Y-123682863D01*
X155577781Y-123682860D01*
X155413920Y-123573371D01*
X155413907Y-123573364D01*
X155231839Y-123497950D01*
X155231829Y-123497947D01*
X155038543Y-123459500D01*
X155038541Y-123459500D01*
X154841459Y-123459500D01*
X154841457Y-123459500D01*
X154648170Y-123497947D01*
X154648160Y-123497950D01*
X154466092Y-123573364D01*
X154466079Y-123573371D01*
X154302218Y-123682860D01*
X154302214Y-123682863D01*
X154162863Y-123822214D01*
X154162860Y-123822218D01*
X154053371Y-123986079D01*
X154053364Y-123986092D01*
X153977950Y-124168160D01*
X153977947Y-124168170D01*
X153939500Y-124361456D01*
X153939500Y-124361459D01*
X153939500Y-124558541D01*
X153939500Y-124558543D01*
X153939499Y-124558543D01*
X153400500Y-124558543D01*
X153400500Y-124361456D01*
X153362052Y-124168170D01*
X153362051Y-124168167D01*
X153362051Y-124168165D01*
X153351986Y-124143865D01*
X153286635Y-123986092D01*
X153286628Y-123986079D01*
X153177139Y-123822218D01*
X153177136Y-123822214D01*
X153037785Y-123682863D01*
X153037781Y-123682860D01*
X152873920Y-123573371D01*
X152873907Y-123573364D01*
X152691839Y-123497950D01*
X152691829Y-123497947D01*
X152498543Y-123459500D01*
X152498541Y-123459500D01*
X152301459Y-123459500D01*
X152301457Y-123459500D01*
X152108170Y-123497947D01*
X152108160Y-123497950D01*
X151926092Y-123573364D01*
X151926079Y-123573371D01*
X151762218Y-123682860D01*
X151762214Y-123682863D01*
X151622863Y-123822214D01*
X151622860Y-123822218D01*
X151513371Y-123986079D01*
X151513364Y-123986092D01*
X151437950Y-124168160D01*
X151437947Y-124168170D01*
X151399500Y-124361456D01*
X151399500Y-124361459D01*
X151399500Y-124558541D01*
X151399500Y-124558543D01*
X151399499Y-124558543D01*
X150860500Y-124558543D01*
X150860500Y-123595180D01*
X150860500Y-123595177D01*
X150851768Y-123551282D01*
X150851767Y-123551281D01*
X150851767Y-123551278D01*
X150818504Y-123501496D01*
X150813197Y-123497950D01*
X150768724Y-123468234D01*
X150768717Y-123468231D01*
X150724822Y-123459500D01*
X150724820Y-123459500D01*
X148995180Y-123459500D01*
X148995178Y-123459500D01*
X148951282Y-123468231D01*
X148951275Y-123468234D01*
X148901496Y-123501495D01*
X148901495Y-123501496D01*
X148868234Y-123551275D01*
X148868231Y-123551282D01*
X148859500Y-123595177D01*
X148859500Y-123595180D01*
X148859500Y-125324820D01*
X148859500Y-125324822D01*
X148859499Y-125324822D01*
X145291269Y-125324822D01*
X144909408Y-124942962D01*
X144972993Y-124925925D01*
X145087007Y-124860099D01*
X145180099Y-124767007D01*
X145245925Y-124652993D01*
X145262962Y-124589408D01*
X145895270Y-125221717D01*
X145895270Y-125221716D01*
X145934622Y-125167554D01*
X146031095Y-124978217D01*
X146096757Y-124776130D01*
X146096757Y-124776127D01*
X146130000Y-124566246D01*
X146130000Y-124353753D01*
X146096757Y-124143872D01*
X146096757Y-124143869D01*
X146031095Y-123941782D01*
X145934623Y-123752447D01*
X145934621Y-123752443D01*
X145895271Y-123698282D01*
X145895269Y-123698282D01*
X145262962Y-124330590D01*
X145245925Y-124267007D01*
X145180099Y-124152993D01*
X145087007Y-124059901D01*
X144972993Y-123994075D01*
X144909409Y-123977037D01*
X145541716Y-123344728D01*
X145487550Y-123305375D01*
X145298217Y-123208904D01*
X145096129Y-123143242D01*
X144886246Y-123110000D01*
X144673754Y-123110000D01*
X144463872Y-123143242D01*
X144463869Y-123143242D01*
X144261782Y-123208904D01*
X144072439Y-123305380D01*
X144018282Y-123344727D01*
X144018282Y-123344728D01*
X144650591Y-123977037D01*
X144587007Y-123994075D01*
X144472993Y-124059901D01*
X144379901Y-124152993D01*
X144314075Y-124267007D01*
X144297037Y-124330591D01*
X143664728Y-123698282D01*
X143664727Y-123698282D01*
X143625380Y-123752439D01*
X143528904Y-123941782D01*
X143463242Y-124143869D01*
X143463242Y-124143870D01*
X143453942Y-124202589D01*
X143424012Y-124265723D01*
X143364700Y-124302654D01*
X143294838Y-124301656D01*
X143236605Y-124263046D01*
X143209852Y-124207381D01*
X143202052Y-124168172D01*
X143202051Y-124168167D01*
X143202051Y-124168165D01*
X143191986Y-124143865D01*
X143126635Y-123986092D01*
X143126628Y-123986079D01*
X143017139Y-123822218D01*
X143017136Y-123822214D01*
X142877785Y-123682863D01*
X142877781Y-123682860D01*
X142713920Y-123573371D01*
X142713907Y-123573364D01*
X142552596Y-123506548D01*
X142531839Y-123497950D01*
X142531829Y-123497947D01*
X142338543Y-123459500D01*
X142338541Y-123459500D01*
X142141459Y-123459500D01*
X142141457Y-123459500D01*
X141948170Y-123497947D01*
X141948160Y-123497950D01*
X141766092Y-123573364D01*
X141766079Y-123573371D01*
X141602218Y-123682860D01*
X141602214Y-123682863D01*
X141462863Y-123822214D01*
X141462860Y-123822218D01*
X141353371Y-123986079D01*
X141353364Y-123986092D01*
X141277950Y-124168160D01*
X141277947Y-124168170D01*
X141239500Y-124361456D01*
X141239500Y-124361459D01*
X141239500Y-124558541D01*
X141239500Y-124558543D01*
X141239499Y-124558543D01*
X140700500Y-124558543D01*
X140700500Y-124361456D01*
X140662052Y-124168170D01*
X140662051Y-124168167D01*
X140662051Y-124168165D01*
X140651986Y-124143865D01*
X140586635Y-123986092D01*
X140586628Y-123986079D01*
X140477139Y-123822218D01*
X140477136Y-123822214D01*
X140337785Y-123682863D01*
X140337781Y-123682860D01*
X140173920Y-123573371D01*
X140173907Y-123573364D01*
X139991839Y-123497950D01*
X139991829Y-123497947D01*
X139798543Y-123459500D01*
X139798541Y-123459500D01*
X139601459Y-123459500D01*
X139601457Y-123459500D01*
X139408170Y-123497947D01*
X139408160Y-123497950D01*
X139226092Y-123573364D01*
X139226079Y-123573371D01*
X139062218Y-123682860D01*
X139062214Y-123682863D01*
X138922863Y-123822214D01*
X138922860Y-123822218D01*
X138813371Y-123986079D01*
X138813364Y-123986092D01*
X138737950Y-124168160D01*
X138737947Y-124168170D01*
X138699500Y-124361456D01*
X138699500Y-124361459D01*
X138699500Y-124558541D01*
X138699500Y-124558543D01*
X138699499Y-124558543D01*
X138160500Y-124558543D01*
X138160500Y-124361456D01*
X138122052Y-124168170D01*
X138122051Y-124168167D01*
X138122051Y-124168165D01*
X138111986Y-124143865D01*
X138046635Y-123986092D01*
X138046628Y-123986079D01*
X137937139Y-123822218D01*
X137937136Y-123822214D01*
X137797785Y-123682863D01*
X137797781Y-123682860D01*
X137633920Y-123573371D01*
X137633907Y-123573364D01*
X137451839Y-123497950D01*
X137451829Y-123497947D01*
X137258543Y-123459500D01*
X137258541Y-123459500D01*
X137061459Y-123459500D01*
X137061457Y-123459500D01*
X136868170Y-123497947D01*
X136868160Y-123497950D01*
X136686092Y-123573364D01*
X136686079Y-123573371D01*
X136522218Y-123682860D01*
X136522214Y-123682863D01*
X136382863Y-123822214D01*
X136382860Y-123822218D01*
X136273371Y-123986079D01*
X136273364Y-123986092D01*
X136197950Y-124168160D01*
X136197947Y-124168170D01*
X136159500Y-124361456D01*
X136159500Y-124361459D01*
X136159500Y-124558541D01*
X136159500Y-124558543D01*
X136159499Y-124558543D01*
X135620500Y-124558543D01*
X135620500Y-124361456D01*
X135582052Y-124168170D01*
X135582051Y-124168167D01*
X135582051Y-124168165D01*
X135571986Y-124143865D01*
X135506635Y-123986092D01*
X135506628Y-123986079D01*
X135397139Y-123822218D01*
X135397136Y-123822214D01*
X135257785Y-123682863D01*
X135257781Y-123682860D01*
X135093920Y-123573371D01*
X135093907Y-123573364D01*
X134911839Y-123497950D01*
X134911829Y-123497947D01*
X134718543Y-123459500D01*
X134718541Y-123459500D01*
X134521459Y-123459500D01*
X134521457Y-123459500D01*
X134328170Y-123497947D01*
X134328160Y-123497950D01*
X134146092Y-123573364D01*
X134146079Y-123573371D01*
X133982218Y-123682860D01*
X133982214Y-123682863D01*
X133842863Y-123822214D01*
X133842860Y-123822218D01*
X133733371Y-123986079D01*
X133733364Y-123986092D01*
X133657950Y-124168160D01*
X133657947Y-124168170D01*
X133619500Y-124361456D01*
X133619500Y-124361459D01*
X133619500Y-124558541D01*
X133619500Y-124558543D01*
X133619499Y-124558543D01*
X133080500Y-124558543D01*
X133080500Y-124361456D01*
X133042052Y-124168170D01*
X133042051Y-124168167D01*
X133042051Y-124168165D01*
X133031986Y-124143865D01*
X132966635Y-123986092D01*
X132966628Y-123986079D01*
X132857139Y-123822218D01*
X132857136Y-123822214D01*
X132717785Y-123682863D01*
X132717781Y-123682860D01*
X132553920Y-123573371D01*
X132553907Y-123573364D01*
X132371839Y-123497950D01*
X132371829Y-123497947D01*
X132178543Y-123459500D01*
X132178541Y-123459500D01*
X131981459Y-123459500D01*
X131981457Y-123459500D01*
X131788170Y-123497947D01*
X131788160Y-123497950D01*
X131606092Y-123573364D01*
X131606079Y-123573371D01*
X131442218Y-123682860D01*
X131442214Y-123682863D01*
X131302863Y-123822214D01*
X131302860Y-123822218D01*
X131193371Y-123986079D01*
X131193364Y-123986092D01*
X131117950Y-124168160D01*
X131117947Y-124168170D01*
X131079500Y-124361456D01*
X131079500Y-124361459D01*
X131079500Y-124558541D01*
X131079500Y-124558543D01*
X131079499Y-124558543D01*
X130540500Y-124558543D01*
X130540500Y-124361456D01*
X130502052Y-124168170D01*
X130502051Y-124168167D01*
X130502051Y-124168165D01*
X130491986Y-124143865D01*
X130426635Y-123986092D01*
X130426628Y-123986079D01*
X130317139Y-123822218D01*
X130317136Y-123822214D01*
X130177785Y-123682863D01*
X130177781Y-123682860D01*
X130013920Y-123573371D01*
X130013907Y-123573364D01*
X129831839Y-123497950D01*
X129831829Y-123497947D01*
X129638543Y-123459500D01*
X129638541Y-123459500D01*
X129441459Y-123459500D01*
X129441457Y-123459500D01*
X129248170Y-123497947D01*
X129248160Y-123497950D01*
X129066092Y-123573364D01*
X129066079Y-123573371D01*
X128902218Y-123682860D01*
X128902214Y-123682863D01*
X128762863Y-123822214D01*
X128762860Y-123822218D01*
X128653371Y-123986079D01*
X128653364Y-123986092D01*
X128577950Y-124168160D01*
X128577947Y-124168170D01*
X128539500Y-124361456D01*
X128539500Y-124361459D01*
X128539500Y-124558541D01*
X128539500Y-124558543D01*
X128539499Y-124558543D01*
X128000500Y-124558543D01*
X128000500Y-124361456D01*
X127962052Y-124168170D01*
X127962051Y-124168167D01*
X127962051Y-124168165D01*
X127951986Y-124143865D01*
X127886635Y-123986092D01*
X127886628Y-123986079D01*
X127777139Y-123822218D01*
X127777136Y-123822214D01*
X127637785Y-123682863D01*
X127637781Y-123682860D01*
X127473920Y-123573371D01*
X127473907Y-123573364D01*
X127291839Y-123497950D01*
X127291829Y-123497947D01*
X127098543Y-123459500D01*
X127098541Y-123459500D01*
X126901459Y-123459500D01*
X126901457Y-123459500D01*
X126708170Y-123497947D01*
X126708160Y-123497950D01*
X126526092Y-123573364D01*
X126526079Y-123573371D01*
X126362218Y-123682860D01*
X126362214Y-123682863D01*
X126222863Y-123822214D01*
X126222860Y-123822218D01*
X126113371Y-123986079D01*
X126113364Y-123986092D01*
X126037950Y-124168160D01*
X126037947Y-124168170D01*
X125999500Y-124361456D01*
X125999500Y-124361459D01*
X125999500Y-124558541D01*
X125999500Y-124558543D01*
X125999499Y-124558543D01*
X125460500Y-124558543D01*
X125460500Y-124361456D01*
X125422052Y-124168170D01*
X125422051Y-124168167D01*
X125422051Y-124168165D01*
X125411986Y-124143865D01*
X125346635Y-123986092D01*
X125346628Y-123986079D01*
X125237139Y-123822218D01*
X125237136Y-123822214D01*
X125097785Y-123682863D01*
X125097781Y-123682860D01*
X124933920Y-123573371D01*
X124933907Y-123573364D01*
X124751839Y-123497950D01*
X124751829Y-123497947D01*
X124558543Y-123459500D01*
X124558541Y-123459500D01*
X124361459Y-123459500D01*
X124361457Y-123459500D01*
X124168170Y-123497947D01*
X124168160Y-123497950D01*
X123986092Y-123573364D01*
X123986079Y-123573371D01*
X123822218Y-123682860D01*
X123822214Y-123682863D01*
X123682863Y-123822214D01*
X123682860Y-123822218D01*
X123573371Y-123986079D01*
X123573364Y-123986092D01*
X123497950Y-124168160D01*
X123497947Y-124168170D01*
X123459500Y-124361456D01*
X123459500Y-124361459D01*
X123459500Y-124558541D01*
X123459500Y-124558543D01*
X123459499Y-124558543D01*
X122920500Y-124558543D01*
X122920500Y-124361456D01*
X122882052Y-124168170D01*
X122882051Y-124168167D01*
X122882051Y-124168165D01*
X122871986Y-124143865D01*
X122806635Y-123986092D01*
X122806628Y-123986079D01*
X122697139Y-123822218D01*
X122697136Y-123822214D01*
X122557785Y-123682863D01*
X122557781Y-123682860D01*
X122393920Y-123573371D01*
X122393907Y-123573364D01*
X122211839Y-123497950D01*
X122211829Y-123497947D01*
X122018543Y-123459500D01*
X122018541Y-123459500D01*
X121821459Y-123459500D01*
X121821457Y-123459500D01*
X121628170Y-123497947D01*
X121628160Y-123497950D01*
X121446092Y-123573364D01*
X121446079Y-123573371D01*
X121282218Y-123682860D01*
X121282214Y-123682863D01*
X121142863Y-123822214D01*
X121142860Y-123822218D01*
X121033371Y-123986079D01*
X121033364Y-123986092D01*
X120957950Y-124168160D01*
X120957947Y-124168170D01*
X120919500Y-124361456D01*
X120919500Y-124361459D01*
X120919500Y-124558541D01*
X120919500Y-124558543D01*
X120919499Y-124558543D01*
X120380500Y-124558543D01*
X120380500Y-124361456D01*
X120342052Y-124168170D01*
X120342051Y-124168167D01*
X120342051Y-124168165D01*
X120331986Y-124143865D01*
X120266635Y-123986092D01*
X120266628Y-123986079D01*
X120157139Y-123822218D01*
X120157136Y-123822214D01*
X120017785Y-123682863D01*
X120017781Y-123682860D01*
X119853920Y-123573371D01*
X119853907Y-123573364D01*
X119671839Y-123497950D01*
X119671829Y-123497947D01*
X119478543Y-123459500D01*
X119478541Y-123459500D01*
X119281459Y-123459500D01*
X119281457Y-123459500D01*
X119088170Y-123497947D01*
X119088160Y-123497950D01*
X118906092Y-123573364D01*
X118906079Y-123573371D01*
X118742218Y-123682860D01*
X118742214Y-123682863D01*
X118602863Y-123822214D01*
X118602860Y-123822218D01*
X118493371Y-123986079D01*
X118493364Y-123986092D01*
X118417950Y-124168160D01*
X118417948Y-124168167D01*
X118410147Y-124207384D01*
X118377761Y-124269294D01*
X118317044Y-124303867D01*
X118247275Y-124300126D01*
X118190604Y-124259258D01*
X118166056Y-124202587D01*
X118156755Y-124143865D01*
X118091095Y-123941782D01*
X117994624Y-123752449D01*
X117955270Y-123698282D01*
X117955269Y-123698282D01*
X117322962Y-124330590D01*
X117305925Y-124267007D01*
X117240099Y-124152993D01*
X117147007Y-124059901D01*
X117032993Y-123994075D01*
X116969409Y-123977037D01*
X117601716Y-123344728D01*
X117547550Y-123305375D01*
X117358217Y-123208904D01*
X117156129Y-123143242D01*
X116946246Y-123110000D01*
X116733754Y-123110000D01*
X116523872Y-123143242D01*
X116523869Y-123143242D01*
X116321782Y-123208904D01*
X116132439Y-123305380D01*
X116078282Y-123344727D01*
X116078282Y-123344728D01*
X116710591Y-123977037D01*
X116647007Y-123994075D01*
X116532993Y-124059901D01*
X116439901Y-124152993D01*
X116374075Y-124267007D01*
X116357037Y-124330591D01*
X115724728Y-123698282D01*
X115724727Y-123698282D01*
X115685380Y-123752439D01*
X115588904Y-123941782D01*
X115523242Y-124143869D01*
X115523242Y-124143870D01*
X115513942Y-124202589D01*
X115484012Y-124265723D01*
X115424700Y-124302654D01*
X115354838Y-124301656D01*
X115296605Y-124263046D01*
X115269852Y-124207381D01*
X115262052Y-124168172D01*
X115262051Y-124168167D01*
X115262051Y-124168165D01*
X115251986Y-124143865D01*
X115186635Y-123986092D01*
X115186628Y-123986079D01*
X115077139Y-123822218D01*
X115077136Y-123822214D01*
X114937785Y-123682863D01*
X114937781Y-123682860D01*
X114773920Y-123573371D01*
X114773907Y-123573364D01*
X114612596Y-123506548D01*
X114591839Y-123497950D01*
X114591829Y-123497947D01*
X114398543Y-123459500D01*
X114398541Y-123459500D01*
X114201459Y-123459500D01*
X114201457Y-123459500D01*
X114008170Y-123497947D01*
X114008160Y-123497950D01*
X113826092Y-123573364D01*
X113826079Y-123573371D01*
X113662218Y-123682860D01*
X113662214Y-123682863D01*
X113522863Y-123822214D01*
X113522860Y-123822218D01*
X113413371Y-123986079D01*
X113413364Y-123986092D01*
X113337950Y-124168160D01*
X113337947Y-124168170D01*
X113299500Y-124361456D01*
X113299500Y-124361459D01*
X113299500Y-124558541D01*
X113299500Y-124558543D01*
X113299499Y-124558543D01*
X112760500Y-124558543D01*
X112760500Y-123595180D01*
X112760500Y-123595177D01*
X112751768Y-123551282D01*
X112751767Y-123551281D01*
X112751767Y-123551278D01*
X112718504Y-123501496D01*
X112713197Y-123497950D01*
X112668724Y-123468234D01*
X112668717Y-123468231D01*
X112624822Y-123459500D01*
X112624820Y-123459500D01*
X110895180Y-123459500D01*
X110895178Y-123459500D01*
X110851282Y-123468231D01*
X110851275Y-123468234D01*
X110801496Y-123501495D01*
X110801495Y-123501496D01*
X110768234Y-123551275D01*
X110768231Y-123551282D01*
X110759500Y-123595177D01*
X110759500Y-123595180D01*
X110759500Y-125324820D01*
X110759500Y-125324822D01*
X110759499Y-125324822D01*
X102100500Y-125324822D01*
X102100500Y-121563856D01*
X157489500Y-121563856D01*
X157489500Y-121656143D01*
X157513387Y-121745290D01*
X157513388Y-121745293D01*
X157559526Y-121825205D01*
X157559529Y-121825209D01*
X157559531Y-121825212D01*
X157624788Y-121890469D01*
X157624791Y-121890470D01*
X157624794Y-121890473D01*
X157704706Y-121936611D01*
X157704707Y-121936611D01*
X157704712Y-121936614D01*
X157793856Y-121960500D01*
X157793858Y-121960500D01*
X157886142Y-121960500D01*
X157886144Y-121960500D01*
X157975288Y-121936614D01*
X158055212Y-121890469D01*
X158120469Y-121825212D01*
X158166614Y-121745288D01*
X158190500Y-121656144D01*
X158190500Y-121563856D01*
X158166614Y-121474712D01*
X158166611Y-121474706D01*
X158120473Y-121394794D01*
X158120470Y-121394791D01*
X158120469Y-121394788D01*
X158055212Y-121329531D01*
X158055209Y-121329529D01*
X158055205Y-121329526D01*
X157975293Y-121283388D01*
X157975290Y-121283387D01*
X157975289Y-121283386D01*
X157975288Y-121283386D01*
X157886144Y-121259500D01*
X157793856Y-121259500D01*
X157704712Y-121283386D01*
X157704711Y-121283386D01*
X157704709Y-121283387D01*
X157704706Y-121283388D01*
X157624794Y-121329526D01*
X157624785Y-121329533D01*
X157559533Y-121394785D01*
X157559526Y-121394794D01*
X157513388Y-121474706D01*
X157513387Y-121474709D01*
X157489500Y-121563856D01*
X102100500Y-121563856D01*
X102100500Y-118103856D01*
X156599500Y-118103856D01*
X156599500Y-118196143D01*
X156623387Y-118285290D01*
X156623388Y-118285293D01*
X156669526Y-118365205D01*
X156669529Y-118365209D01*
X156669531Y-118365212D01*
X156734788Y-118430469D01*
X156734791Y-118430470D01*
X156734794Y-118430473D01*
X156814706Y-118476611D01*
X156814707Y-118476611D01*
X156814712Y-118476614D01*
X156903856Y-118500500D01*
X156903858Y-118500500D01*
X156996142Y-118500500D01*
X156996144Y-118500500D01*
X157085288Y-118476614D01*
X157165212Y-118430469D01*
X157230469Y-118365212D01*
X157276614Y-118285288D01*
X157300500Y-118196144D01*
X157300500Y-118103856D01*
X157276614Y-118014712D01*
X157276611Y-118014706D01*
X157230473Y-117934794D01*
X157230470Y-117934791D01*
X157230469Y-117934788D01*
X157165212Y-117869531D01*
X157165209Y-117869529D01*
X157165205Y-117869526D01*
X157085293Y-117823388D01*
X157085290Y-117823387D01*
X157085289Y-117823386D01*
X157085288Y-117823386D01*
X156996144Y-117799500D01*
X156903856Y-117799500D01*
X156814712Y-117823386D01*
X156814711Y-117823386D01*
X156814709Y-117823387D01*
X156814706Y-117823388D01*
X156734794Y-117869526D01*
X156734785Y-117869533D01*
X156669533Y-117934785D01*
X156669526Y-117934794D01*
X156623388Y-118014706D01*
X156623387Y-118014709D01*
X156599500Y-118103856D01*
X102100500Y-118103856D01*
X102100500Y-117343856D01*
X154139500Y-117343856D01*
X154139500Y-117436143D01*
X154163387Y-117525290D01*
X154163388Y-117525293D01*
X154209526Y-117605205D01*
X154209529Y-117605209D01*
X154209531Y-117605212D01*
X154274788Y-117670469D01*
X154274791Y-117670470D01*
X154274794Y-117670473D01*
X154354706Y-117716611D01*
X154354707Y-117716611D01*
X154354712Y-117716614D01*
X154443856Y-117740500D01*
X154443858Y-117740500D01*
X154536142Y-117740500D01*
X154536144Y-117740500D01*
X154625288Y-117716614D01*
X154705212Y-117670469D01*
X154770469Y-117605212D01*
X154816614Y-117525288D01*
X154840500Y-117436144D01*
X154840500Y-117343856D01*
X154816614Y-117254712D01*
X154816611Y-117254706D01*
X154770473Y-117174794D01*
X154770470Y-117174791D01*
X154770469Y-117174788D01*
X154705212Y-117109531D01*
X154705209Y-117109529D01*
X154705205Y-117109526D01*
X154625293Y-117063388D01*
X154625290Y-117063387D01*
X154625289Y-117063386D01*
X154625288Y-117063386D01*
X154536144Y-117039500D01*
X154443856Y-117039500D01*
X154354712Y-117063386D01*
X154354711Y-117063386D01*
X154354709Y-117063387D01*
X154354706Y-117063388D01*
X154274794Y-117109526D01*
X154274785Y-117109533D01*
X154209533Y-117174785D01*
X154209526Y-117174794D01*
X154163388Y-117254706D01*
X154163387Y-117254709D01*
X154139500Y-117343856D01*
X102100500Y-117343856D01*
X102100500Y-115673856D01*
X121229500Y-115673856D01*
X121229500Y-115766143D01*
X121253387Y-115855290D01*
X121253388Y-115855293D01*
X121299526Y-115935205D01*
X121299529Y-115935209D01*
X121299531Y-115935212D01*
X121364788Y-116000469D01*
X121364791Y-116000470D01*
X121364794Y-116000473D01*
X121444706Y-116046611D01*
X121444707Y-116046611D01*
X121444712Y-116046614D01*
X121533856Y-116070500D01*
X121533858Y-116070500D01*
X121626142Y-116070500D01*
X121626144Y-116070500D01*
X121715288Y-116046614D01*
X121795212Y-116000469D01*
X121860469Y-115935212D01*
X121906614Y-115855288D01*
X121930500Y-115766144D01*
X121930500Y-115673856D01*
X121906614Y-115584712D01*
X121906611Y-115584706D01*
X121860473Y-115504794D01*
X121860470Y-115504791D01*
X121860469Y-115504788D01*
X121795212Y-115439531D01*
X121795209Y-115439529D01*
X121795205Y-115439526D01*
X121715293Y-115393388D01*
X121715290Y-115393387D01*
X121715289Y-115393386D01*
X121715288Y-115393386D01*
X121626144Y-115369500D01*
X121533856Y-115369500D01*
X121444712Y-115393386D01*
X121444711Y-115393386D01*
X121444709Y-115393387D01*
X121444706Y-115393388D01*
X121364794Y-115439526D01*
X121364785Y-115439533D01*
X121299533Y-115504785D01*
X121299526Y-115504794D01*
X121253388Y-115584706D01*
X121253387Y-115584709D01*
X121229500Y-115673856D01*
X102100500Y-115673856D01*
X102100500Y-114993856D01*
X120189500Y-114993856D01*
X120189500Y-115086143D01*
X120213387Y-115175290D01*
X120213388Y-115175293D01*
X120259526Y-115255205D01*
X120259529Y-115255209D01*
X120259531Y-115255212D01*
X120324788Y-115320469D01*
X120324791Y-115320470D01*
X120324794Y-115320473D01*
X120404706Y-115366611D01*
X120404707Y-115366611D01*
X120404712Y-115366614D01*
X120493856Y-115390500D01*
X120493858Y-115390500D01*
X120586142Y-115390500D01*
X120586144Y-115390500D01*
X120675288Y-115366614D01*
X120755212Y-115320469D01*
X120820469Y-115255212D01*
X120866614Y-115175288D01*
X120890500Y-115086144D01*
X120890500Y-114993856D01*
X120866614Y-114904712D01*
X120866611Y-114904706D01*
X120820473Y-114824794D01*
X120820470Y-114824791D01*
X120820469Y-114824788D01*
X120755212Y-114759531D01*
X120755209Y-114759529D01*
X120755205Y-114759526D01*
X120675293Y-114713388D01*
X120675290Y-114713387D01*
X120675289Y-114713386D01*
X120675288Y-114713386D01*
X120586144Y-114689500D01*
X120493856Y-114689500D01*
X120404712Y-114713386D01*
X120404711Y-114713386D01*
X120404709Y-114713387D01*
X120404706Y-114713388D01*
X120324794Y-114759526D01*
X120324785Y-114759533D01*
X120259533Y-114824785D01*
X120259526Y-114824794D01*
X120213388Y-114904706D01*
X120213387Y-114904709D01*
X120189500Y-114993856D01*
X102100500Y-114993856D01*
X102100500Y-113533856D01*
X120189500Y-113533856D01*
X120189500Y-113626143D01*
X120213387Y-113715290D01*
X120213388Y-113715293D01*
X120259526Y-113795205D01*
X120259529Y-113795209D01*
X120259531Y-113795212D01*
X120324788Y-113860469D01*
X120324791Y-113860470D01*
X120324794Y-113860473D01*
X120404706Y-113906611D01*
X120404707Y-113906611D01*
X120404712Y-113906614D01*
X120493856Y-113930500D01*
X120493858Y-113930500D01*
X120586142Y-113930500D01*
X120586144Y-113930500D01*
X120675288Y-113906614D01*
X120755212Y-113860469D01*
X120820469Y-113795212D01*
X120866614Y-113715288D01*
X120890500Y-113626144D01*
X120890500Y-113533856D01*
X120866614Y-113444712D01*
X120823767Y-113370500D01*
X120820473Y-113364794D01*
X120820470Y-113364791D01*
X120820469Y-113364788D01*
X120755212Y-113299531D01*
X120755209Y-113299529D01*
X120755205Y-113299526D01*
X120675293Y-113253388D01*
X120675290Y-113253387D01*
X120675289Y-113253386D01*
X120675288Y-113253386D01*
X120586144Y-113229500D01*
X120493856Y-113229500D01*
X120404712Y-113253386D01*
X120404711Y-113253386D01*
X120404709Y-113253387D01*
X120404706Y-113253388D01*
X120324794Y-113299526D01*
X120324785Y-113299533D01*
X120259533Y-113364785D01*
X120259526Y-113364794D01*
X120213388Y-113444706D01*
X120213387Y-113444709D01*
X120189500Y-113533856D01*
X102100500Y-113533856D01*
X102100500Y-112973856D01*
X150619500Y-112973856D01*
X150619500Y-113066143D01*
X150643387Y-113155290D01*
X150643388Y-113155293D01*
X150689526Y-113235205D01*
X150689529Y-113235209D01*
X150689531Y-113235212D01*
X150754788Y-113300469D01*
X150754791Y-113300470D01*
X150754794Y-113300473D01*
X150834706Y-113346611D01*
X150834707Y-113346611D01*
X150834712Y-113346614D01*
X150923856Y-113370500D01*
X150923858Y-113370500D01*
X151016142Y-113370500D01*
X151016144Y-113370500D01*
X151105288Y-113346614D01*
X151185212Y-113300469D01*
X151250469Y-113235212D01*
X151296614Y-113155288D01*
X151320500Y-113066144D01*
X151320500Y-112973856D01*
X151296614Y-112884712D01*
X151296611Y-112884706D01*
X151250473Y-112804794D01*
X151250470Y-112804791D01*
X151250469Y-112804788D01*
X151185212Y-112739531D01*
X151185209Y-112739529D01*
X151185205Y-112739526D01*
X151105293Y-112693388D01*
X151105290Y-112693387D01*
X151105289Y-112693386D01*
X151105288Y-112693386D01*
X151016144Y-112669500D01*
X150923856Y-112669500D01*
X150834712Y-112693386D01*
X150834711Y-112693386D01*
X150834709Y-112693387D01*
X150834706Y-112693388D01*
X150754794Y-112739526D01*
X150754785Y-112739533D01*
X150689533Y-112804785D01*
X150689526Y-112804794D01*
X150643388Y-112884706D01*
X150643387Y-112884709D01*
X150619500Y-112973856D01*
X102100500Y-112973856D01*
X102100500Y-112073856D01*
X120189500Y-112073856D01*
X120189500Y-112166143D01*
X120213387Y-112255290D01*
X120213388Y-112255293D01*
X120259526Y-112335205D01*
X120259529Y-112335209D01*
X120259531Y-112335212D01*
X120324788Y-112400469D01*
X120324791Y-112400470D01*
X120324794Y-112400473D01*
X120404706Y-112446611D01*
X120404707Y-112446611D01*
X120404712Y-112446614D01*
X120493856Y-112470500D01*
X120493858Y-112470500D01*
X120586142Y-112470500D01*
X120586144Y-112470500D01*
X120675288Y-112446614D01*
X120755212Y-112400469D01*
X120820469Y-112335212D01*
X120866614Y-112255288D01*
X120890500Y-112166144D01*
X120890500Y-112073856D01*
X120866614Y-111984712D01*
X120866611Y-111984706D01*
X120820473Y-111904794D01*
X120820470Y-111904791D01*
X120820469Y-111904788D01*
X120755212Y-111839531D01*
X120755209Y-111839529D01*
X120755205Y-111839526D01*
X120675293Y-111793388D01*
X120675290Y-111793387D01*
X120675289Y-111793386D01*
X120675288Y-111793386D01*
X120586144Y-111769500D01*
X120493856Y-111769500D01*
X120404712Y-111793386D01*
X120404711Y-111793386D01*
X120404709Y-111793387D01*
X120404706Y-111793388D01*
X120324794Y-111839526D01*
X120324785Y-111839533D01*
X120259533Y-111904785D01*
X120259526Y-111904794D01*
X120213388Y-111984706D01*
X120213387Y-111984709D01*
X120189500Y-112073856D01*
X102100500Y-112073856D01*
X102100500Y-111498934D01*
X123667997Y-111498934D01*
X123667997Y-111591221D01*
X123691884Y-111680368D01*
X123691885Y-111680371D01*
X123738023Y-111760283D01*
X123738026Y-111760287D01*
X123738028Y-111760290D01*
X123803285Y-111825547D01*
X123803288Y-111825548D01*
X123803291Y-111825551D01*
X123883203Y-111871689D01*
X123883204Y-111871689D01*
X123883209Y-111871692D01*
X123972353Y-111895578D01*
X123972355Y-111895578D01*
X124064639Y-111895578D01*
X124064641Y-111895578D01*
X124153785Y-111871692D01*
X124233709Y-111825547D01*
X124298966Y-111760290D01*
X124345111Y-111680366D01*
X124368997Y-111591222D01*
X124368997Y-111498934D01*
X124345111Y-111409790D01*
X124316653Y-111360500D01*
X124298970Y-111329872D01*
X124298967Y-111329869D01*
X124298966Y-111329866D01*
X124233709Y-111264609D01*
X124233706Y-111264607D01*
X124233702Y-111264604D01*
X124153790Y-111218466D01*
X124153787Y-111218465D01*
X124153786Y-111218464D01*
X124153785Y-111218464D01*
X124064641Y-111194578D01*
X123972353Y-111194578D01*
X123883209Y-111218464D01*
X123883208Y-111218464D01*
X123883206Y-111218465D01*
X123883203Y-111218466D01*
X123803291Y-111264604D01*
X123803282Y-111264611D01*
X123738030Y-111329863D01*
X123738023Y-111329872D01*
X123691885Y-111409784D01*
X123691884Y-111409787D01*
X123667997Y-111498934D01*
X102100500Y-111498934D01*
X102100500Y-110963856D01*
X116779500Y-110963856D01*
X116779500Y-111056143D01*
X116803387Y-111145290D01*
X116803388Y-111145293D01*
X116849526Y-111225205D01*
X116849529Y-111225209D01*
X116849531Y-111225212D01*
X116914788Y-111290469D01*
X116914791Y-111290470D01*
X116914794Y-111290473D01*
X116994706Y-111336611D01*
X116994707Y-111336611D01*
X116994712Y-111336614D01*
X117083856Y-111360500D01*
X117083858Y-111360500D01*
X117176142Y-111360500D01*
X117176144Y-111360500D01*
X117265288Y-111336614D01*
X117345212Y-111290469D01*
X117410469Y-111225212D01*
X117456614Y-111145288D01*
X117480500Y-111056144D01*
X117480500Y-110963856D01*
X117456614Y-110874712D01*
X117456611Y-110874706D01*
X117410473Y-110794794D01*
X117410470Y-110794791D01*
X117410469Y-110794788D01*
X117345212Y-110729531D01*
X117345209Y-110729529D01*
X117345205Y-110729526D01*
X117265293Y-110683388D01*
X117265290Y-110683387D01*
X117265289Y-110683386D01*
X117265288Y-110683386D01*
X117176144Y-110659500D01*
X117083856Y-110659500D01*
X116994712Y-110683386D01*
X116994711Y-110683386D01*
X116994709Y-110683387D01*
X116994706Y-110683388D01*
X116914794Y-110729526D01*
X116914785Y-110729533D01*
X116849533Y-110794785D01*
X116849526Y-110794794D01*
X116803388Y-110874706D01*
X116803387Y-110874709D01*
X116779500Y-110963856D01*
X102100500Y-110963856D01*
X102100500Y-109863856D01*
X118609500Y-109863856D01*
X118609500Y-109956143D01*
X118633387Y-110045290D01*
X118633388Y-110045293D01*
X118679526Y-110125205D01*
X118679529Y-110125209D01*
X118679531Y-110125212D01*
X118744788Y-110190469D01*
X118744791Y-110190470D01*
X118744794Y-110190473D01*
X118824706Y-110236611D01*
X118824707Y-110236611D01*
X118824712Y-110236614D01*
X118913856Y-110260500D01*
X118913858Y-110260500D01*
X119006142Y-110260500D01*
X119006144Y-110260500D01*
X119095288Y-110236614D01*
X119175212Y-110190469D01*
X119240469Y-110125212D01*
X119286614Y-110045288D01*
X119310500Y-109956144D01*
X119310500Y-109863856D01*
X119286614Y-109774712D01*
X119286611Y-109774706D01*
X119240473Y-109694794D01*
X119240470Y-109694791D01*
X119240469Y-109694788D01*
X119175212Y-109629531D01*
X119175209Y-109629529D01*
X119175205Y-109629526D01*
X119095293Y-109583388D01*
X119095290Y-109583387D01*
X119095289Y-109583386D01*
X119095288Y-109583386D01*
X119006144Y-109559500D01*
X118913856Y-109559500D01*
X118824712Y-109583386D01*
X118824711Y-109583386D01*
X118824709Y-109583387D01*
X118824706Y-109583388D01*
X118744794Y-109629526D01*
X118744785Y-109629533D01*
X118679533Y-109694785D01*
X118679526Y-109694794D01*
X118633388Y-109774706D01*
X118633387Y-109774709D01*
X118609500Y-109863856D01*
X102100500Y-109863856D01*
X102100500Y-107653856D01*
X120179500Y-107653856D01*
X120179500Y-107746143D01*
X120203387Y-107835290D01*
X120203388Y-107835293D01*
X120249526Y-107915205D01*
X120249529Y-107915209D01*
X120249531Y-107915212D01*
X120314788Y-107980469D01*
X120314791Y-107980470D01*
X120314794Y-107980473D01*
X120394706Y-108026611D01*
X120394707Y-108026611D01*
X120394712Y-108026614D01*
X120483856Y-108050500D01*
X120483858Y-108050500D01*
X120576142Y-108050500D01*
X120576144Y-108050500D01*
X120665288Y-108026614D01*
X120745212Y-107980469D01*
X120810469Y-107915212D01*
X120856614Y-107835288D01*
X120880500Y-107746144D01*
X120880500Y-107653856D01*
X120856614Y-107564712D01*
X120856611Y-107564706D01*
X120810473Y-107484794D01*
X120810470Y-107484791D01*
X120810469Y-107484788D01*
X120745212Y-107419531D01*
X120745209Y-107419529D01*
X120745205Y-107419526D01*
X120665293Y-107373388D01*
X120665290Y-107373387D01*
X120665289Y-107373386D01*
X120665288Y-107373386D01*
X120576144Y-107349500D01*
X120483856Y-107349500D01*
X120394712Y-107373386D01*
X120394711Y-107373386D01*
X120394709Y-107373387D01*
X120394706Y-107373388D01*
X120314794Y-107419526D01*
X120314785Y-107419533D01*
X120249533Y-107484785D01*
X120249526Y-107484794D01*
X120203388Y-107564706D01*
X120203387Y-107564709D01*
X120179500Y-107653856D01*
X102100500Y-107653856D01*
X102100500Y-106193856D01*
X120319500Y-106193856D01*
X120319500Y-106286143D01*
X120343387Y-106375290D01*
X120343388Y-106375293D01*
X120389526Y-106455205D01*
X120389529Y-106455209D01*
X120389531Y-106455212D01*
X120454788Y-106520469D01*
X120454791Y-106520470D01*
X120454794Y-106520473D01*
X120534706Y-106566611D01*
X120534707Y-106566611D01*
X120534712Y-106566614D01*
X120623856Y-106590500D01*
X120623858Y-106590500D01*
X120716142Y-106590500D01*
X120716144Y-106590500D01*
X120805288Y-106566614D01*
X120885212Y-106520469D01*
X120950469Y-106455212D01*
X120996614Y-106375288D01*
X121020500Y-106286144D01*
X121020500Y-106193856D01*
X120996614Y-106104712D01*
X120996611Y-106104706D01*
X120950473Y-106024794D01*
X120950470Y-106024791D01*
X120950469Y-106024788D01*
X120885212Y-105959531D01*
X120885209Y-105959529D01*
X120885205Y-105959526D01*
X120805293Y-105913388D01*
X120805290Y-105913387D01*
X120805289Y-105913386D01*
X120805288Y-105913386D01*
X120716144Y-105889500D01*
X120623856Y-105889500D01*
X120534712Y-105913386D01*
X120534711Y-105913386D01*
X120534709Y-105913387D01*
X120534706Y-105913388D01*
X120454794Y-105959526D01*
X120454785Y-105959533D01*
X120389533Y-106024785D01*
X120389526Y-106024794D01*
X120343388Y-106104706D01*
X120343387Y-106104709D01*
X120319500Y-106193856D01*
X102100500Y-106193856D01*
X102100500Y-105513856D01*
X121209500Y-105513856D01*
X121209500Y-105606144D01*
X121227330Y-105672688D01*
X121233387Y-105695290D01*
X121233388Y-105695293D01*
X121279526Y-105775205D01*
X121279529Y-105775209D01*
X121279531Y-105775212D01*
X121344788Y-105840469D01*
X121344791Y-105840470D01*
X121344794Y-105840473D01*
X121424706Y-105886611D01*
X121424707Y-105886611D01*
X121424712Y-105886614D01*
X121513856Y-105910500D01*
X121513858Y-105910500D01*
X121606142Y-105910500D01*
X121606144Y-105910500D01*
X121695288Y-105886614D01*
X121775212Y-105840469D01*
X121840469Y-105775212D01*
X121886614Y-105695288D01*
X121910500Y-105606144D01*
X121910500Y-105513856D01*
X121886614Y-105424712D01*
X121840469Y-105344788D01*
X121839104Y-105343423D01*
X133769637Y-105343423D01*
X133769637Y-105435711D01*
X133790576Y-105513858D01*
X133793524Y-105524857D01*
X133793525Y-105524860D01*
X133839663Y-105604772D01*
X133839666Y-105604776D01*
X133839668Y-105604779D01*
X133904925Y-105670036D01*
X133904928Y-105670037D01*
X133904931Y-105670040D01*
X133984843Y-105716178D01*
X133984844Y-105716178D01*
X133984849Y-105716181D01*
X134073993Y-105740067D01*
X134073995Y-105740067D01*
X134166279Y-105740067D01*
X134166281Y-105740067D01*
X134255425Y-105716181D01*
X134255429Y-105716179D01*
X134291603Y-105695293D01*
X134330837Y-105672640D01*
X134398736Y-105656167D01*
X134454839Y-105672641D01*
X134534839Y-105718830D01*
X134534840Y-105718830D01*
X134534845Y-105718833D01*
X134623989Y-105742719D01*
X134623991Y-105742719D01*
X134716275Y-105742719D01*
X134716277Y-105742719D01*
X134805421Y-105718833D01*
X134883518Y-105673742D01*
X134951416Y-105657269D01*
X135007518Y-105673742D01*
X135035126Y-105689682D01*
X135084844Y-105718388D01*
X135084846Y-105718388D01*
X135084847Y-105718389D01*
X135173991Y-105742275D01*
X135173993Y-105742275D01*
X135266277Y-105742275D01*
X135266279Y-105742275D01*
X135355423Y-105718389D01*
X135435347Y-105672244D01*
X135500604Y-105606987D01*
X135546749Y-105527063D01*
X135570635Y-105437919D01*
X135570635Y-105345631D01*
X135546749Y-105256487D01*
X135546746Y-105256481D01*
X135500608Y-105176569D01*
X135500605Y-105176566D01*
X135500604Y-105176563D01*
X135435347Y-105111306D01*
X135435344Y-105111304D01*
X135435340Y-105111301D01*
X135355428Y-105065163D01*
X135355425Y-105065162D01*
X135355424Y-105065161D01*
X135355423Y-105065161D01*
X135266279Y-105041275D01*
X135173991Y-105041275D01*
X135084845Y-105065161D01*
X135006750Y-105110251D01*
X134938850Y-105126724D01*
X134882748Y-105110250D01*
X134805426Y-105065607D01*
X134805423Y-105065606D01*
X134805422Y-105065605D01*
X134805421Y-105065605D01*
X134716277Y-105041719D01*
X134623989Y-105041719D01*
X134534845Y-105065605D01*
X134534844Y-105065605D01*
X134534842Y-105065606D01*
X134534841Y-105065606D01*
X134459431Y-105109145D01*
X134391531Y-105125618D01*
X134335430Y-105109145D01*
X134255425Y-105062953D01*
X134176178Y-105041719D01*
X134166281Y-105039067D01*
X134073993Y-105039067D01*
X133984849Y-105062953D01*
X133984848Y-105062953D01*
X133984846Y-105062954D01*
X133984843Y-105062955D01*
X133904931Y-105109093D01*
X133904922Y-105109100D01*
X133839670Y-105174352D01*
X133839663Y-105174361D01*
X133793525Y-105254273D01*
X133793524Y-105254276D01*
X133793523Y-105254278D01*
X133793523Y-105254279D01*
X133769637Y-105343423D01*
X121839104Y-105343423D01*
X121775212Y-105279531D01*
X121775209Y-105279529D01*
X121775205Y-105279526D01*
X121695293Y-105233388D01*
X121695290Y-105233387D01*
X121695289Y-105233386D01*
X121695288Y-105233386D01*
X121606144Y-105209500D01*
X121513856Y-105209500D01*
X121424712Y-105233386D01*
X121424711Y-105233386D01*
X121424709Y-105233387D01*
X121424706Y-105233388D01*
X121344794Y-105279526D01*
X121344785Y-105279533D01*
X121279533Y-105344785D01*
X121279526Y-105344794D01*
X121233388Y-105424706D01*
X121233387Y-105424709D01*
X121233387Y-105424710D01*
X121233386Y-105424712D01*
X121209500Y-105513856D01*
X102100500Y-105513856D01*
X102100500Y-104363856D01*
X133169500Y-104363856D01*
X133169500Y-104456144D01*
X133186744Y-104520500D01*
X133193387Y-104545290D01*
X133193388Y-104545293D01*
X133239526Y-104625205D01*
X133239529Y-104625209D01*
X133239531Y-104625212D01*
X133304788Y-104690469D01*
X133304791Y-104690470D01*
X133304794Y-104690473D01*
X133384706Y-104736611D01*
X133384707Y-104736611D01*
X133384712Y-104736614D01*
X133473856Y-104760500D01*
X133473858Y-104760500D01*
X133566142Y-104760500D01*
X133566144Y-104760500D01*
X133655288Y-104736614D01*
X133735212Y-104690469D01*
X133800469Y-104625212D01*
X133846614Y-104545288D01*
X133870500Y-104456144D01*
X133870500Y-104363856D01*
X133846614Y-104274712D01*
X133800472Y-104194794D01*
X133800472Y-104194793D01*
X133800471Y-104194792D01*
X133800469Y-104194788D01*
X133735212Y-104129531D01*
X133735209Y-104129529D01*
X133735205Y-104129526D01*
X133725384Y-104123856D01*
X135379500Y-104123856D01*
X135379500Y-104216144D01*
X135395193Y-104274712D01*
X135403387Y-104305290D01*
X135403388Y-104305293D01*
X135449526Y-104385205D01*
X135449529Y-104385209D01*
X135449531Y-104385212D01*
X135514788Y-104450469D01*
X135514791Y-104450470D01*
X135514794Y-104450473D01*
X135594706Y-104496611D01*
X135594707Y-104496611D01*
X135594712Y-104496614D01*
X135683856Y-104520500D01*
X135683858Y-104520500D01*
X135776142Y-104520500D01*
X135776144Y-104520500D01*
X135865288Y-104496614D01*
X135945212Y-104450469D01*
X136010469Y-104385212D01*
X136056614Y-104305288D01*
X136080500Y-104216144D01*
X136080500Y-104123856D01*
X136056614Y-104034712D01*
X136056611Y-104034706D01*
X136010473Y-103954794D01*
X136010470Y-103954791D01*
X136010469Y-103954788D01*
X135945212Y-103889531D01*
X135945209Y-103889529D01*
X135945205Y-103889526D01*
X135865293Y-103843388D01*
X135865290Y-103843387D01*
X135865289Y-103843386D01*
X135865288Y-103843386D01*
X135776144Y-103819500D01*
X135683856Y-103819500D01*
X135594712Y-103843386D01*
X135594711Y-103843386D01*
X135594709Y-103843387D01*
X135594706Y-103843388D01*
X135514794Y-103889526D01*
X135514785Y-103889533D01*
X135449533Y-103954785D01*
X135449526Y-103954794D01*
X135403388Y-104034706D01*
X135403387Y-104034709D01*
X135403386Y-104034711D01*
X135403386Y-104034712D01*
X135379500Y-104123856D01*
X133725384Y-104123856D01*
X133655293Y-104083388D01*
X133655290Y-104083387D01*
X133655289Y-104083386D01*
X133655288Y-104083386D01*
X133566144Y-104059500D01*
X133473856Y-104059500D01*
X133384712Y-104083386D01*
X133384711Y-104083386D01*
X133384709Y-104083387D01*
X133384706Y-104083388D01*
X133304794Y-104129526D01*
X133304785Y-104129533D01*
X133239533Y-104194785D01*
X133239526Y-104194794D01*
X133193388Y-104274706D01*
X133193387Y-104274709D01*
X133193386Y-104274711D01*
X133193386Y-104274712D01*
X133169500Y-104363856D01*
X102100500Y-104363856D01*
X102100500Y-103083856D01*
X133719500Y-103083856D01*
X133719500Y-103176144D01*
X133738146Y-103245733D01*
X133743387Y-103265290D01*
X133743388Y-103265293D01*
X133789526Y-103345205D01*
X133789529Y-103345209D01*
X133789531Y-103345212D01*
X133854788Y-103410469D01*
X133854791Y-103410470D01*
X133854794Y-103410473D01*
X133934706Y-103456611D01*
X133934707Y-103456611D01*
X133934712Y-103456614D01*
X134023856Y-103480500D01*
X134023858Y-103480500D01*
X134116142Y-103480500D01*
X134116144Y-103480500D01*
X134205288Y-103456614D01*
X134285212Y-103410469D01*
X134350469Y-103345212D01*
X134396614Y-103265288D01*
X134420500Y-103176144D01*
X134420500Y-103083856D01*
X134396614Y-102994712D01*
X134396611Y-102994706D01*
X134390647Y-102984377D01*
X159478979Y-102984377D01*
X159478979Y-103076665D01*
X159485398Y-103100622D01*
X159502866Y-103165811D01*
X159502867Y-103165814D01*
X159549005Y-103245726D01*
X159549008Y-103245730D01*
X159549010Y-103245733D01*
X159614267Y-103310990D01*
X159614270Y-103310991D01*
X159614273Y-103310994D01*
X159694185Y-103357132D01*
X159694186Y-103357132D01*
X159694191Y-103357135D01*
X159783335Y-103381021D01*
X159783337Y-103381021D01*
X159875621Y-103381021D01*
X159875623Y-103381021D01*
X159964767Y-103357135D01*
X160044691Y-103310990D01*
X160109948Y-103245733D01*
X160156093Y-103165809D01*
X160179979Y-103076665D01*
X160179979Y-103008335D01*
X162005021Y-103008335D01*
X162005021Y-103100623D01*
X162025256Y-103176143D01*
X162028908Y-103189769D01*
X162028909Y-103189772D01*
X162075047Y-103269684D01*
X162075050Y-103269688D01*
X162075052Y-103269691D01*
X162140309Y-103334948D01*
X162140312Y-103334949D01*
X162140315Y-103334952D01*
X162220227Y-103381090D01*
X162220228Y-103381090D01*
X162220233Y-103381093D01*
X162309377Y-103404979D01*
X162309379Y-103404979D01*
X162401663Y-103404979D01*
X162401665Y-103404979D01*
X162490809Y-103381093D01*
X162570733Y-103334948D01*
X162635990Y-103269691D01*
X162682135Y-103189767D01*
X162706021Y-103100623D01*
X162706021Y-103008335D01*
X162682135Y-102919191D01*
X162682132Y-102919185D01*
X162635994Y-102839273D01*
X162635991Y-102839270D01*
X162635990Y-102839267D01*
X162570733Y-102774010D01*
X162570730Y-102774008D01*
X162570726Y-102774005D01*
X162490814Y-102727867D01*
X162490811Y-102727866D01*
X162490810Y-102727865D01*
X162490809Y-102727865D01*
X162401665Y-102703979D01*
X162309377Y-102703979D01*
X162220233Y-102727865D01*
X162220232Y-102727865D01*
X162220230Y-102727866D01*
X162220227Y-102727867D01*
X162140315Y-102774005D01*
X162140306Y-102774012D01*
X162075054Y-102839264D01*
X162075047Y-102839273D01*
X162028909Y-102919185D01*
X162028908Y-102919188D01*
X162028907Y-102919190D01*
X162028907Y-102919191D01*
X162005021Y-103008335D01*
X160179979Y-103008335D01*
X160179979Y-102984377D01*
X160156093Y-102895233D01*
X160129708Y-102849533D01*
X160109952Y-102815315D01*
X160109949Y-102815312D01*
X160109948Y-102815309D01*
X160044691Y-102750052D01*
X160044688Y-102750050D01*
X160044684Y-102750047D01*
X159964772Y-102703909D01*
X159964769Y-102703908D01*
X159964768Y-102703907D01*
X159964767Y-102703907D01*
X159875623Y-102680021D01*
X159783335Y-102680021D01*
X159694191Y-102703907D01*
X159694190Y-102703907D01*
X159694188Y-102703908D01*
X159694185Y-102703909D01*
X159614273Y-102750047D01*
X159614264Y-102750054D01*
X159549012Y-102815306D01*
X159549005Y-102815315D01*
X159502867Y-102895227D01*
X159502866Y-102895230D01*
X159502865Y-102895232D01*
X159502865Y-102895233D01*
X159478979Y-102984377D01*
X134390647Y-102984377D01*
X134350473Y-102914794D01*
X134350470Y-102914791D01*
X134350469Y-102914788D01*
X134285212Y-102849531D01*
X134285209Y-102849529D01*
X134285205Y-102849526D01*
X134205293Y-102803388D01*
X134205290Y-102803387D01*
X134205289Y-102803386D01*
X134205288Y-102803386D01*
X134116144Y-102779500D01*
X134023856Y-102779500D01*
X133934712Y-102803386D01*
X133934711Y-102803386D01*
X133934709Y-102803387D01*
X133934706Y-102803388D01*
X133854794Y-102849526D01*
X133854785Y-102849533D01*
X133789533Y-102914785D01*
X133789526Y-102914794D01*
X133743388Y-102994706D01*
X133743387Y-102994709D01*
X133743386Y-102994711D01*
X133743386Y-102994712D01*
X133719500Y-103083856D01*
X102100500Y-103083856D01*
X102100500Y-100999999D01*
X104040884Y-100999999D01*
X104040885Y-101000000D01*
X105109670Y-101000000D01*
X105089925Y-101019745D01*
X105040556Y-101105255D01*
X105015000Y-101200630D01*
X105015000Y-101299370D01*
X105040556Y-101394745D01*
X105089925Y-101480255D01*
X105109670Y-101500000D01*
X104040885Y-101500000D01*
X104042085Y-101507584D01*
X104095591Y-101672255D01*
X104174195Y-101826524D01*
X104275967Y-101966602D01*
X104398397Y-102089032D01*
X104538475Y-102190804D01*
X104692742Y-102269408D01*
X104857415Y-102322914D01*
X105028429Y-102350000D01*
X105140000Y-102350000D01*
X105140000Y-101530330D01*
X105159745Y-101550075D01*
X105245255Y-101599444D01*
X105340630Y-101625000D01*
X105439370Y-101625000D01*
X105534745Y-101599444D01*
X105620255Y-101550075D01*
X105640000Y-101530330D01*
X105640000Y-102350000D01*
X105751571Y-102350000D01*
X105922584Y-102322914D01*
X106087257Y-102269408D01*
X106241524Y-102190804D01*
X106381602Y-102089032D01*
X106504032Y-101966602D01*
X106605804Y-101826524D01*
X106647926Y-101743856D01*
X151779500Y-101743856D01*
X151779500Y-101836143D01*
X151803387Y-101925290D01*
X151803388Y-101925293D01*
X151849526Y-102005205D01*
X151849529Y-102005209D01*
X151849531Y-102005212D01*
X151914788Y-102070469D01*
X151914791Y-102070470D01*
X151914794Y-102070473D01*
X151994706Y-102116611D01*
X151994707Y-102116611D01*
X151994712Y-102116614D01*
X152083856Y-102140500D01*
X152083858Y-102140500D01*
X152176142Y-102140500D01*
X152176144Y-102140500D01*
X152265288Y-102116614D01*
X152345212Y-102070469D01*
X152410469Y-102005212D01*
X152456614Y-101925288D01*
X152480500Y-101836144D01*
X152480500Y-101743856D01*
X154499500Y-101743856D01*
X154499500Y-101836143D01*
X154523387Y-101925290D01*
X154523388Y-101925293D01*
X154569526Y-102005205D01*
X154569529Y-102005209D01*
X154569531Y-102005212D01*
X154634788Y-102070469D01*
X154634791Y-102070470D01*
X154634794Y-102070473D01*
X154714706Y-102116611D01*
X154714707Y-102116611D01*
X154714712Y-102116614D01*
X154803856Y-102140500D01*
X154803858Y-102140500D01*
X154896142Y-102140500D01*
X154896144Y-102140500D01*
X154985288Y-102116614D01*
X155065212Y-102070469D01*
X155130469Y-102005212D01*
X155176614Y-101925288D01*
X155200500Y-101836144D01*
X155200500Y-101743856D01*
X155176614Y-101654712D01*
X155176611Y-101654706D01*
X155130473Y-101574794D01*
X155130470Y-101574791D01*
X155130469Y-101574788D01*
X155065212Y-101509531D01*
X155065209Y-101509529D01*
X155065205Y-101509526D01*
X154985293Y-101463388D01*
X154985290Y-101463387D01*
X154985289Y-101463386D01*
X154985288Y-101463386D01*
X154896144Y-101439500D01*
X154803856Y-101439500D01*
X154714712Y-101463386D01*
X154714711Y-101463386D01*
X154714709Y-101463387D01*
X154714706Y-101463388D01*
X154634794Y-101509526D01*
X154634785Y-101509533D01*
X154569533Y-101574785D01*
X154569526Y-101574794D01*
X154523388Y-101654706D01*
X154523387Y-101654709D01*
X154523386Y-101654711D01*
X154523386Y-101654712D01*
X154516762Y-101679432D01*
X154499500Y-101743856D01*
X152480500Y-101743856D01*
X152456614Y-101654712D01*
X152456611Y-101654706D01*
X152410473Y-101574794D01*
X152410470Y-101574791D01*
X152410469Y-101574788D01*
X152345212Y-101509531D01*
X152345209Y-101509529D01*
X152345205Y-101509526D01*
X152265293Y-101463388D01*
X152265290Y-101463387D01*
X152265289Y-101463386D01*
X152265288Y-101463386D01*
X152176144Y-101439500D01*
X152083856Y-101439500D01*
X151994712Y-101463386D01*
X151994711Y-101463386D01*
X151994709Y-101463387D01*
X151994706Y-101463388D01*
X151914794Y-101509526D01*
X151914785Y-101509533D01*
X151849533Y-101574785D01*
X151849526Y-101574794D01*
X151803388Y-101654706D01*
X151803387Y-101654709D01*
X151803386Y-101654711D01*
X151803386Y-101654712D01*
X151796762Y-101679432D01*
X151779500Y-101743856D01*
X106647926Y-101743856D01*
X106680751Y-101679434D01*
X106680751Y-101679433D01*
X106680752Y-101679432D01*
X106684409Y-101672254D01*
X106731417Y-101527577D01*
X111755975Y-101527577D01*
X111861236Y-101571178D01*
X111861240Y-101571179D01*
X112006126Y-101599999D01*
X112006129Y-101600000D01*
X112153871Y-101600000D01*
X112153873Y-101599999D01*
X112298760Y-101571179D01*
X112298775Y-101571175D01*
X112404024Y-101527578D01*
X112404024Y-101527577D01*
X112935975Y-101527577D01*
X113041236Y-101571178D01*
X113041240Y-101571179D01*
X113186126Y-101599999D01*
X113186129Y-101600000D01*
X113333871Y-101600000D01*
X113333873Y-101599999D01*
X113478760Y-101571179D01*
X113478775Y-101571175D01*
X113584024Y-101527578D01*
X113584024Y-101527577D01*
X113260001Y-101203554D01*
X113260000Y-101203554D01*
X112935975Y-101527577D01*
X112404024Y-101527577D01*
X112080001Y-101203554D01*
X112080000Y-101203554D01*
X111755975Y-101527577D01*
X106731417Y-101527577D01*
X106737913Y-101507585D01*
X106739115Y-101500000D01*
X105670330Y-101500000D01*
X105690075Y-101480255D01*
X105739444Y-101394745D01*
X105765000Y-101299370D01*
X105765000Y-101200630D01*
X105739444Y-101105255D01*
X105690075Y-101019745D01*
X105670330Y-101000000D01*
X106739115Y-101000000D01*
X106739115Y-100999999D01*
X106737914Y-100992415D01*
X106684408Y-100827742D01*
X106683692Y-100826337D01*
X106683691Y-100826336D01*
X106683690Y-100826334D01*
X106658108Y-100776126D01*
X111330000Y-100776126D01*
X111330000Y-100923873D01*
X111358820Y-101068759D01*
X111358822Y-101068767D01*
X111402421Y-101174024D01*
X111726446Y-100850000D01*
X111726446Y-100849999D01*
X111706556Y-100830109D01*
X111980000Y-100830109D01*
X111980000Y-100869891D01*
X111995224Y-100906645D01*
X112023355Y-100934776D01*
X112060109Y-100950000D01*
X112099891Y-100950000D01*
X112136645Y-100934776D01*
X112164776Y-100906645D01*
X112180000Y-100869891D01*
X112180000Y-100850000D01*
X112433554Y-100850000D01*
X112670000Y-101086446D01*
X112906446Y-100850000D01*
X112886555Y-100830109D01*
X113160000Y-100830109D01*
X113160000Y-100869891D01*
X113175224Y-100906645D01*
X113203355Y-100934776D01*
X113240109Y-100950000D01*
X113279891Y-100950000D01*
X113316645Y-100934776D01*
X113344776Y-100906645D01*
X113360000Y-100869891D01*
X113360000Y-100849999D01*
X113613554Y-100849999D01*
X113613554Y-100850001D01*
X113937577Y-101174024D01*
X113937578Y-101174024D01*
X113981175Y-101068775D01*
X113981179Y-101068760D01*
X114009999Y-100923873D01*
X114010000Y-100923871D01*
X114010000Y-100776128D01*
X114009999Y-100776126D01*
X113981179Y-100631240D01*
X113981178Y-100631236D01*
X113961274Y-100583183D01*
X113944984Y-100543856D01*
X133699500Y-100543856D01*
X133699500Y-100636143D01*
X133723387Y-100725290D01*
X133723388Y-100725293D01*
X133769526Y-100805205D01*
X133769529Y-100805209D01*
X133769531Y-100805212D01*
X133834788Y-100870469D01*
X133834791Y-100870470D01*
X133834794Y-100870473D01*
X133914706Y-100916611D01*
X133914707Y-100916611D01*
X133914712Y-100916614D01*
X134003856Y-100940500D01*
X134003858Y-100940500D01*
X134096142Y-100940500D01*
X134096144Y-100940500D01*
X134185288Y-100916614D01*
X134265212Y-100870469D01*
X134330469Y-100805212D01*
X134376614Y-100725288D01*
X134400500Y-100636144D01*
X134400500Y-100543856D01*
X134376614Y-100454712D01*
X134376611Y-100454706D01*
X134330473Y-100374794D01*
X134330470Y-100374791D01*
X134330469Y-100374788D01*
X134265212Y-100309531D01*
X134265209Y-100309529D01*
X134265205Y-100309526D01*
X134185293Y-100263388D01*
X134185290Y-100263387D01*
X134185289Y-100263386D01*
X134185288Y-100263386D01*
X134096144Y-100239500D01*
X134003856Y-100239500D01*
X133914712Y-100263386D01*
X133914711Y-100263386D01*
X133914709Y-100263387D01*
X133914706Y-100263388D01*
X133834794Y-100309526D01*
X133834785Y-100309533D01*
X133769533Y-100374785D01*
X133769526Y-100374794D01*
X133723388Y-100454706D01*
X133723387Y-100454709D01*
X133723386Y-100454711D01*
X133723386Y-100454712D01*
X133704291Y-100525974D01*
X133699500Y-100543856D01*
X113944984Y-100543856D01*
X113937577Y-100525975D01*
X113613554Y-100849999D01*
X113360000Y-100849999D01*
X113360000Y-100830109D01*
X113344776Y-100793355D01*
X113316645Y-100765224D01*
X113279891Y-100750000D01*
X113240109Y-100750000D01*
X113203355Y-100765224D01*
X113175224Y-100793355D01*
X113160000Y-100830109D01*
X112886555Y-100830109D01*
X112670000Y-100613554D01*
X112433554Y-100850000D01*
X112180000Y-100850000D01*
X112180000Y-100830109D01*
X112164776Y-100793355D01*
X112136645Y-100765224D01*
X112099891Y-100750000D01*
X112060109Y-100750000D01*
X112023355Y-100765224D01*
X111995224Y-100793355D01*
X111980000Y-100830109D01*
X111706556Y-100830109D01*
X111402421Y-100525974D01*
X111402420Y-100525974D01*
X111358823Y-100631228D01*
X111358820Y-100631240D01*
X111330000Y-100776126D01*
X106658108Y-100776126D01*
X106605804Y-100673475D01*
X106504032Y-100533397D01*
X106381596Y-100410961D01*
X106249037Y-100314653D01*
X106142066Y-100260000D01*
X111843554Y-100260000D01*
X112080000Y-100496446D01*
X112316446Y-100260000D01*
X113023554Y-100260000D01*
X113260000Y-100496446D01*
X113496446Y-100260000D01*
X113260000Y-100023554D01*
X113023554Y-100260000D01*
X112316446Y-100260000D01*
X112080000Y-100023554D01*
X111843554Y-100260000D01*
X106142066Y-100260000D01*
X106070946Y-100223664D01*
X106052419Y-100206127D01*
X106031362Y-100191727D01*
X106027468Y-100182511D01*
X106020202Y-100175634D01*
X106014097Y-100150864D01*
X106004169Y-100127366D01*
X106005875Y-100117507D01*
X106003482Y-100107794D01*
X106011736Y-100083657D01*
X106016089Y-100058521D01*
X106022854Y-100051150D01*
X106026092Y-100041684D01*
X106046087Y-100025841D01*
X106063337Y-100007049D01*
X106075323Y-100002676D01*
X106080855Y-99998293D01*
X106089757Y-99997410D01*
X106107964Y-99990767D01*
X106140304Y-99985646D01*
X106253342Y-99928050D01*
X106343050Y-99838342D01*
X106400646Y-99725304D01*
X106400646Y-99725302D01*
X106400647Y-99725301D01*
X106415500Y-99631524D01*
X106415500Y-99596126D01*
X111330000Y-99596126D01*
X111330000Y-99743873D01*
X111358820Y-99888759D01*
X111358822Y-99888767D01*
X111402421Y-99994024D01*
X111726446Y-99670000D01*
X111726446Y-99669999D01*
X111706556Y-99650109D01*
X111980000Y-99650109D01*
X111980000Y-99689891D01*
X111995224Y-99726645D01*
X112023355Y-99754776D01*
X112060109Y-99770000D01*
X112099891Y-99770000D01*
X112136645Y-99754776D01*
X112164776Y-99726645D01*
X112180000Y-99689891D01*
X112180000Y-99670000D01*
X112433554Y-99670000D01*
X112670000Y-99906446D01*
X112906446Y-99670000D01*
X112886555Y-99650109D01*
X113160000Y-99650109D01*
X113160000Y-99689891D01*
X113175224Y-99726645D01*
X113203355Y-99754776D01*
X113240109Y-99770000D01*
X113279891Y-99770000D01*
X113316645Y-99754776D01*
X113344776Y-99726645D01*
X113360000Y-99689891D01*
X113360000Y-99669999D01*
X113613554Y-99669999D01*
X113613554Y-99670001D01*
X113937577Y-99994024D01*
X113937578Y-99994024D01*
X113981175Y-99888775D01*
X113981179Y-99888760D01*
X114009999Y-99743873D01*
X114010000Y-99743871D01*
X114010000Y-99596128D01*
X114006776Y-99579921D01*
X114006776Y-99579920D01*
X114003581Y-99563856D01*
X133949500Y-99563856D01*
X133949500Y-99656144D01*
X133973006Y-99743871D01*
X133973387Y-99745290D01*
X133973388Y-99745293D01*
X134019526Y-99825205D01*
X134019529Y-99825209D01*
X134019531Y-99825212D01*
X134084788Y-99890469D01*
X134084791Y-99890470D01*
X134084794Y-99890473D01*
X134164706Y-99936611D01*
X134164707Y-99936611D01*
X134164712Y-99936614D01*
X134253856Y-99960500D01*
X134253858Y-99960500D01*
X134346142Y-99960500D01*
X134346144Y-99960500D01*
X134435288Y-99936614D01*
X134515212Y-99890469D01*
X134580469Y-99825212D01*
X134626614Y-99745288D01*
X134650500Y-99656144D01*
X134650500Y-99563856D01*
X134626614Y-99474712D01*
X134626611Y-99474706D01*
X134580473Y-99394794D01*
X134580470Y-99394791D01*
X134580469Y-99394788D01*
X134515212Y-99329531D01*
X134515209Y-99329529D01*
X134515205Y-99329526D01*
X134435293Y-99283388D01*
X134435290Y-99283387D01*
X134435289Y-99283386D01*
X134435288Y-99283386D01*
X134346144Y-99259500D01*
X134253856Y-99259500D01*
X134164712Y-99283386D01*
X134164711Y-99283386D01*
X134164709Y-99283387D01*
X134164706Y-99283388D01*
X134084794Y-99329526D01*
X134084785Y-99329533D01*
X134019533Y-99394785D01*
X134019526Y-99394794D01*
X133973388Y-99474706D01*
X133973387Y-99474709D01*
X133973386Y-99474711D01*
X133973386Y-99474712D01*
X133949500Y-99563856D01*
X114003581Y-99563856D01*
X113981179Y-99451240D01*
X113981178Y-99451236D01*
X113937577Y-99345975D01*
X113613554Y-99669999D01*
X113360000Y-99669999D01*
X113360000Y-99650109D01*
X113344776Y-99613355D01*
X113316645Y-99585224D01*
X113279891Y-99570000D01*
X113240109Y-99570000D01*
X113203355Y-99585224D01*
X113175224Y-99613355D01*
X113160000Y-99650109D01*
X112886555Y-99650109D01*
X112670000Y-99433554D01*
X112433554Y-99670000D01*
X112180000Y-99670000D01*
X112180000Y-99650109D01*
X112164776Y-99613355D01*
X112136645Y-99585224D01*
X112099891Y-99570000D01*
X112060109Y-99570000D01*
X112023355Y-99585224D01*
X111995224Y-99613355D01*
X111980000Y-99650109D01*
X111706556Y-99650109D01*
X111402421Y-99345974D01*
X111402420Y-99345974D01*
X111358823Y-99451228D01*
X111358820Y-99451240D01*
X111330000Y-99596126D01*
X106415500Y-99596126D01*
X106415500Y-99590039D01*
X106415500Y-99316446D01*
X106415499Y-98992420D01*
X111755974Y-98992420D01*
X111755974Y-98992421D01*
X112080000Y-99316446D01*
X112080001Y-99316446D01*
X112404024Y-98992421D01*
X112404022Y-98992420D01*
X112935974Y-98992420D01*
X112935974Y-98992421D01*
X113260000Y-99316446D01*
X113260001Y-99316446D01*
X113584024Y-98992421D01*
X113478767Y-98948822D01*
X113478759Y-98948820D01*
X113333872Y-98920000D01*
X113186128Y-98920000D01*
X113041240Y-98948820D01*
X113041228Y-98948823D01*
X112935974Y-98992420D01*
X112404022Y-98992420D01*
X112298767Y-98948822D01*
X112298759Y-98948820D01*
X112153872Y-98920000D01*
X112006128Y-98920000D01*
X111861240Y-98948820D01*
X111861228Y-98948823D01*
X111755974Y-98992420D01*
X106415499Y-98992420D01*
X106415499Y-98868482D01*
X106400646Y-98774696D01*
X106343050Y-98661658D01*
X106343046Y-98661654D01*
X106343045Y-98661652D01*
X106253347Y-98571954D01*
X106253344Y-98571952D01*
X106253342Y-98571950D01*
X106176517Y-98532805D01*
X106140301Y-98514352D01*
X106046524Y-98499500D01*
X104733482Y-98499500D01*
X104652519Y-98512323D01*
X104639696Y-98514354D01*
X104526658Y-98571950D01*
X104526657Y-98571951D01*
X104526652Y-98571954D01*
X104436954Y-98661652D01*
X104436951Y-98661657D01*
X104379352Y-98774698D01*
X104364500Y-98868475D01*
X104364500Y-99631517D01*
X104375292Y-99699657D01*
X104379354Y-99725304D01*
X104436950Y-99838342D01*
X104436952Y-99838344D01*
X104436954Y-99838347D01*
X104526652Y-99928045D01*
X104526654Y-99928046D01*
X104526658Y-99928050D01*
X104639696Y-99985646D01*
X104672033Y-99990767D01*
X104735168Y-100020696D01*
X104772099Y-100080007D01*
X104771103Y-100149870D01*
X104732493Y-100208103D01*
X104696889Y-100227882D01*
X104697240Y-100228729D01*
X104692748Y-100230588D01*
X104538475Y-100309195D01*
X104398397Y-100410967D01*
X104275967Y-100533397D01*
X104174195Y-100673475D01*
X104095591Y-100827744D01*
X104042085Y-100992415D01*
X104040884Y-100999999D01*
X102100500Y-100999999D01*
X102100500Y-98033856D01*
X133759500Y-98033856D01*
X133759500Y-98126143D01*
X133783387Y-98215290D01*
X133783388Y-98215293D01*
X133829526Y-98295205D01*
X133829529Y-98295209D01*
X133829531Y-98295212D01*
X133894788Y-98360469D01*
X133894791Y-98360470D01*
X133894794Y-98360473D01*
X133974706Y-98406611D01*
X133974707Y-98406611D01*
X133974712Y-98406614D01*
X134063856Y-98430500D01*
X134063858Y-98430500D01*
X134156142Y-98430500D01*
X134156144Y-98430500D01*
X134245288Y-98406614D01*
X134325212Y-98360469D01*
X134390469Y-98295212D01*
X134436614Y-98215288D01*
X134460500Y-98126144D01*
X134460500Y-98033856D01*
X134436614Y-97944712D01*
X134422635Y-97920500D01*
X134390473Y-97864794D01*
X134390470Y-97864791D01*
X134390469Y-97864788D01*
X134325212Y-97799531D01*
X134325209Y-97799529D01*
X134325205Y-97799526D01*
X134245293Y-97753388D01*
X134245290Y-97753387D01*
X134245289Y-97753386D01*
X134245288Y-97753386D01*
X134156144Y-97729500D01*
X134063856Y-97729500D01*
X133974712Y-97753386D01*
X133974711Y-97753386D01*
X133974709Y-97753387D01*
X133974706Y-97753388D01*
X133894794Y-97799526D01*
X133894785Y-97799533D01*
X133829533Y-97864785D01*
X133829526Y-97864794D01*
X133783388Y-97944706D01*
X133783387Y-97944709D01*
X133759500Y-98033856D01*
X102100500Y-98033856D01*
X102100500Y-96343856D01*
X137259500Y-96343856D01*
X137259500Y-96436144D01*
X137281843Y-96519531D01*
X137283387Y-96525290D01*
X137283388Y-96525293D01*
X137329526Y-96605205D01*
X137329528Y-96605207D01*
X137329531Y-96605212D01*
X137394788Y-96670469D01*
X137394791Y-96670470D01*
X137394794Y-96670473D01*
X137474706Y-96716611D01*
X137474707Y-96716611D01*
X137474712Y-96716614D01*
X137563856Y-96740500D01*
X137563858Y-96740500D01*
X137656142Y-96740500D01*
X137656144Y-96740500D01*
X137745288Y-96716614D01*
X137802025Y-96683856D01*
X152429500Y-96683856D01*
X152429500Y-96776144D01*
X152448857Y-96848387D01*
X152453387Y-96865290D01*
X152453388Y-96865293D01*
X152499526Y-96945205D01*
X152499529Y-96945209D01*
X152499531Y-96945212D01*
X152564788Y-97010469D01*
X152564791Y-97010470D01*
X152564794Y-97010473D01*
X152644706Y-97056611D01*
X152644707Y-97056611D01*
X152644712Y-97056614D01*
X152733856Y-97080500D01*
X152733858Y-97080500D01*
X152826142Y-97080500D01*
X152826144Y-97080500D01*
X152915288Y-97056614D01*
X152995212Y-97010469D01*
X153060469Y-96945212D01*
X153106614Y-96865288D01*
X153130500Y-96776144D01*
X153130500Y-96683856D01*
X153849500Y-96683856D01*
X153849500Y-96776144D01*
X153868857Y-96848387D01*
X153873387Y-96865290D01*
X153873388Y-96865293D01*
X153919526Y-96945205D01*
X153919529Y-96945209D01*
X153919531Y-96945212D01*
X153984788Y-97010469D01*
X153984791Y-97010470D01*
X153984794Y-97010473D01*
X154064706Y-97056611D01*
X154064707Y-97056611D01*
X154064712Y-97056614D01*
X154153856Y-97080500D01*
X154153858Y-97080500D01*
X154246142Y-97080500D01*
X154246144Y-97080500D01*
X154335288Y-97056614D01*
X154415212Y-97010469D01*
X154480469Y-96945212D01*
X154526614Y-96865288D01*
X154550500Y-96776144D01*
X154550500Y-96753856D01*
X156749500Y-96753856D01*
X156749500Y-96846144D01*
X156762465Y-96894531D01*
X156773387Y-96935290D01*
X156773388Y-96935293D01*
X156819526Y-97015205D01*
X156819529Y-97015209D01*
X156819531Y-97015212D01*
X156884788Y-97080469D01*
X156884791Y-97080470D01*
X156884794Y-97080473D01*
X156964706Y-97126611D01*
X156964707Y-97126611D01*
X156964712Y-97126614D01*
X157053856Y-97150500D01*
X157053858Y-97150500D01*
X157146142Y-97150500D01*
X157146144Y-97150500D01*
X157226921Y-97128856D01*
X159074500Y-97128856D01*
X159074500Y-97221144D01*
X159092824Y-97289531D01*
X159098387Y-97310290D01*
X159098388Y-97310293D01*
X159144526Y-97390205D01*
X159144529Y-97390209D01*
X159144531Y-97390212D01*
X159209788Y-97455469D01*
X159209791Y-97455470D01*
X159209794Y-97455473D01*
X159289706Y-97501611D01*
X159289707Y-97501611D01*
X159289712Y-97501614D01*
X159378856Y-97525500D01*
X159378858Y-97525500D01*
X159471142Y-97525500D01*
X159471144Y-97525500D01*
X159477280Y-97523856D01*
X161959500Y-97523856D01*
X161959500Y-97616143D01*
X161983387Y-97705290D01*
X161983388Y-97705293D01*
X162029526Y-97785205D01*
X162029529Y-97785209D01*
X162029531Y-97785212D01*
X162094788Y-97850469D01*
X162094791Y-97850470D01*
X162094794Y-97850473D01*
X162174706Y-97896611D01*
X162174707Y-97896611D01*
X162174712Y-97896614D01*
X162263856Y-97920500D01*
X162263858Y-97920500D01*
X162356142Y-97920500D01*
X162356144Y-97920500D01*
X162445288Y-97896614D01*
X162525212Y-97850469D01*
X162590469Y-97785212D01*
X162636614Y-97705288D01*
X162660500Y-97616144D01*
X162660500Y-97523856D01*
X162652462Y-97493856D01*
X182559500Y-97493856D01*
X182559500Y-97586144D01*
X182567538Y-97616144D01*
X182583387Y-97675290D01*
X182583388Y-97675293D01*
X182629526Y-97755205D01*
X182629529Y-97755209D01*
X182629531Y-97755212D01*
X182694788Y-97820469D01*
X182694791Y-97820470D01*
X182694794Y-97820473D01*
X182774706Y-97866611D01*
X182774707Y-97866611D01*
X182774712Y-97866614D01*
X182863856Y-97890500D01*
X182863858Y-97890500D01*
X182956142Y-97890500D01*
X182956144Y-97890500D01*
X183045288Y-97866614D01*
X183125212Y-97820469D01*
X183190469Y-97755212D01*
X183236614Y-97675288D01*
X183260500Y-97586144D01*
X183260500Y-97493856D01*
X183236614Y-97404712D01*
X183236611Y-97404706D01*
X183190473Y-97324794D01*
X183190470Y-97324791D01*
X183190469Y-97324788D01*
X183125212Y-97259531D01*
X183125209Y-97259529D01*
X183125205Y-97259526D01*
X183045293Y-97213388D01*
X183045290Y-97213387D01*
X183045289Y-97213386D01*
X183045288Y-97213386D01*
X182956144Y-97189500D01*
X182863856Y-97189500D01*
X182774712Y-97213386D01*
X182774711Y-97213386D01*
X182774709Y-97213387D01*
X182774706Y-97213388D01*
X182694794Y-97259526D01*
X182694785Y-97259533D01*
X182629533Y-97324785D01*
X182629526Y-97324794D01*
X182583388Y-97404706D01*
X182583387Y-97404709D01*
X182583386Y-97404711D01*
X182583386Y-97404712D01*
X182559500Y-97493856D01*
X162652462Y-97493856D01*
X162636614Y-97434712D01*
X162636612Y-97434709D01*
X162636612Y-97434707D01*
X162636611Y-97434706D01*
X162590473Y-97354794D01*
X162590470Y-97354791D01*
X162590469Y-97354788D01*
X162525212Y-97289531D01*
X162525209Y-97289529D01*
X162525205Y-97289526D01*
X162445293Y-97243388D01*
X162445290Y-97243387D01*
X162445289Y-97243386D01*
X162445288Y-97243386D01*
X162356144Y-97219500D01*
X162263856Y-97219500D01*
X162174712Y-97243386D01*
X162174711Y-97243386D01*
X162174709Y-97243387D01*
X162174706Y-97243388D01*
X162094794Y-97289526D01*
X162094785Y-97289533D01*
X162029533Y-97354785D01*
X162029526Y-97354794D01*
X161983388Y-97434706D01*
X161983387Y-97434709D01*
X161983386Y-97434711D01*
X161983386Y-97434712D01*
X161967538Y-97493858D01*
X161959500Y-97523856D01*
X159477280Y-97523856D01*
X159560288Y-97501614D01*
X159640212Y-97455469D01*
X159705469Y-97390212D01*
X159751614Y-97310288D01*
X159775500Y-97221144D01*
X159775500Y-97128856D01*
X159751614Y-97039712D01*
X159751611Y-97039706D01*
X159705473Y-96959794D01*
X159705470Y-96959791D01*
X159705469Y-96959788D01*
X159640212Y-96894531D01*
X159640209Y-96894529D01*
X159640205Y-96894526D01*
X159560293Y-96848388D01*
X159560290Y-96848387D01*
X159560289Y-96848386D01*
X159560288Y-96848386D01*
X159471144Y-96824500D01*
X159378856Y-96824500D01*
X159289712Y-96848386D01*
X159289711Y-96848386D01*
X159289709Y-96848387D01*
X159289706Y-96848388D01*
X159209794Y-96894526D01*
X159209785Y-96894533D01*
X159144533Y-96959785D01*
X159144526Y-96959794D01*
X159098388Y-97039706D01*
X159098387Y-97039709D01*
X159098386Y-97039711D01*
X159098386Y-97039712D01*
X159074500Y-97128856D01*
X157226921Y-97128856D01*
X157235288Y-97126614D01*
X157315212Y-97080469D01*
X157380469Y-97015212D01*
X157426614Y-96935288D01*
X157450500Y-96846144D01*
X157450500Y-96753856D01*
X157426614Y-96664712D01*
X157426611Y-96664706D01*
X157380473Y-96584794D01*
X157380470Y-96584791D01*
X157380469Y-96584788D01*
X157315212Y-96519531D01*
X157315209Y-96519529D01*
X157315205Y-96519526D01*
X157235293Y-96473388D01*
X157235290Y-96473387D01*
X157235289Y-96473386D01*
X157235288Y-96473386D01*
X157146144Y-96449500D01*
X157053856Y-96449500D01*
X156964712Y-96473386D01*
X156964711Y-96473386D01*
X156964709Y-96473387D01*
X156964706Y-96473388D01*
X156884794Y-96519526D01*
X156884785Y-96519533D01*
X156819533Y-96584785D01*
X156819526Y-96584794D01*
X156773388Y-96664706D01*
X156773387Y-96664709D01*
X156773386Y-96664711D01*
X156773386Y-96664712D01*
X156749500Y-96753856D01*
X154550500Y-96753856D01*
X154550500Y-96683856D01*
X154526614Y-96594712D01*
X154520888Y-96584794D01*
X154480473Y-96514794D01*
X154480470Y-96514791D01*
X154480469Y-96514788D01*
X154415212Y-96449531D01*
X154415209Y-96449529D01*
X154415205Y-96449526D01*
X154335293Y-96403388D01*
X154335290Y-96403387D01*
X154335289Y-96403386D01*
X154335288Y-96403386D01*
X154246144Y-96379500D01*
X154153856Y-96379500D01*
X154064712Y-96403386D01*
X154064711Y-96403386D01*
X154064709Y-96403387D01*
X154064706Y-96403388D01*
X153984794Y-96449526D01*
X153984785Y-96449533D01*
X153919533Y-96514785D01*
X153919526Y-96514794D01*
X153873388Y-96594706D01*
X153873387Y-96594709D01*
X153873386Y-96594711D01*
X153873386Y-96594712D01*
X153849500Y-96683856D01*
X153130500Y-96683856D01*
X153106614Y-96594712D01*
X153100888Y-96584794D01*
X153060473Y-96514794D01*
X153060470Y-96514791D01*
X153060469Y-96514788D01*
X152995212Y-96449531D01*
X152995209Y-96449529D01*
X152995205Y-96449526D01*
X152915293Y-96403388D01*
X152915290Y-96403387D01*
X152915289Y-96403386D01*
X152915288Y-96403386D01*
X152826144Y-96379500D01*
X152733856Y-96379500D01*
X152644712Y-96403386D01*
X152644711Y-96403386D01*
X152644709Y-96403387D01*
X152644706Y-96403388D01*
X152564794Y-96449526D01*
X152564785Y-96449533D01*
X152499533Y-96514785D01*
X152499526Y-96514794D01*
X152453388Y-96594706D01*
X152453387Y-96594709D01*
X152453386Y-96594711D01*
X152453386Y-96594712D01*
X152429500Y-96683856D01*
X137802025Y-96683856D01*
X137825212Y-96670469D01*
X137890469Y-96605212D01*
X137936614Y-96525288D01*
X137960500Y-96436144D01*
X137960500Y-96343856D01*
X137936614Y-96254712D01*
X137936611Y-96254706D01*
X137890473Y-96174794D01*
X137890470Y-96174791D01*
X137890469Y-96174788D01*
X137825212Y-96109531D01*
X137825209Y-96109529D01*
X137825205Y-96109526D01*
X137745293Y-96063388D01*
X137745290Y-96063387D01*
X137745289Y-96063386D01*
X137745288Y-96063386D01*
X137656144Y-96039500D01*
X137563856Y-96039500D01*
X137474712Y-96063386D01*
X137474711Y-96063386D01*
X137474709Y-96063387D01*
X137474706Y-96063388D01*
X137394794Y-96109526D01*
X137394785Y-96109533D01*
X137329533Y-96174785D01*
X137329526Y-96174794D01*
X137283388Y-96254706D01*
X137283387Y-96254709D01*
X137283386Y-96254711D01*
X137283386Y-96254712D01*
X137259500Y-96343856D01*
X102100500Y-96343856D01*
X102100500Y-95233856D01*
X141369500Y-95233856D01*
X141369500Y-95326143D01*
X141393387Y-95415290D01*
X141393388Y-95415293D01*
X141439526Y-95495205D01*
X141439529Y-95495209D01*
X141439531Y-95495212D01*
X141504788Y-95560469D01*
X141504791Y-95560470D01*
X141504794Y-95560473D01*
X141584706Y-95606611D01*
X141584707Y-95606611D01*
X141584712Y-95606614D01*
X141673856Y-95630500D01*
X141673858Y-95630500D01*
X141766142Y-95630500D01*
X141766144Y-95630500D01*
X141855288Y-95606614D01*
X141935212Y-95560469D01*
X142000469Y-95495212D01*
X142046614Y-95415288D01*
X142070500Y-95326144D01*
X142070500Y-95233856D01*
X142046614Y-95144712D01*
X142046611Y-95144706D01*
X142000473Y-95064794D01*
X142000470Y-95064791D01*
X142000469Y-95064788D01*
X141935212Y-94999531D01*
X141935209Y-94999529D01*
X141935205Y-94999526D01*
X141855293Y-94953388D01*
X141855290Y-94953387D01*
X141855289Y-94953386D01*
X141855288Y-94953386D01*
X141766144Y-94929500D01*
X141673856Y-94929500D01*
X141584712Y-94953386D01*
X141584711Y-94953386D01*
X141584709Y-94953387D01*
X141584706Y-94953388D01*
X141504794Y-94999526D01*
X141504785Y-94999533D01*
X141439533Y-95064785D01*
X141439526Y-95064794D01*
X141393388Y-95144706D01*
X141393387Y-95144709D01*
X141369500Y-95233856D01*
X102100500Y-95233856D01*
X102100500Y-91000071D01*
X103089499Y-91000071D01*
X103114497Y-91125738D01*
X103114499Y-91125744D01*
X103163533Y-91244124D01*
X103163538Y-91244133D01*
X103234723Y-91350668D01*
X103234726Y-91350672D01*
X103325327Y-91441273D01*
X103325331Y-91441276D01*
X103431866Y-91512461D01*
X103431872Y-91512464D01*
X103431873Y-91512465D01*
X103550256Y-91561501D01*
X103550260Y-91561501D01*
X103550261Y-91561502D01*
X103675928Y-91586500D01*
X103675931Y-91586500D01*
X104604071Y-91586500D01*
X104688615Y-91569682D01*
X104729744Y-91561501D01*
X104848127Y-91512465D01*
X104954669Y-91441276D01*
X105045276Y-91350669D01*
X105116465Y-91244127D01*
X105165501Y-91125744D01*
X105190500Y-91000071D01*
X107119499Y-91000071D01*
X107144497Y-91125738D01*
X107144499Y-91125744D01*
X107193533Y-91244124D01*
X107193538Y-91244133D01*
X107264723Y-91350668D01*
X107264726Y-91350672D01*
X107355327Y-91441273D01*
X107355331Y-91441276D01*
X107461866Y-91512461D01*
X107461872Y-91512464D01*
X107461873Y-91512465D01*
X107580256Y-91561501D01*
X107580260Y-91561501D01*
X107580261Y-91561502D01*
X107705928Y-91586500D01*
X107705931Y-91586500D01*
X108934071Y-91586500D01*
X109018615Y-91569682D01*
X109059744Y-91561501D01*
X109178127Y-91512465D01*
X109284669Y-91441276D01*
X109332089Y-91393856D01*
X182559500Y-91393856D01*
X182559500Y-91486143D01*
X182583387Y-91575290D01*
X182583388Y-91575293D01*
X182629526Y-91655205D01*
X182629529Y-91655209D01*
X182629531Y-91655212D01*
X182694788Y-91720469D01*
X182694791Y-91720470D01*
X182694794Y-91720473D01*
X182774706Y-91766611D01*
X182774707Y-91766611D01*
X182774712Y-91766614D01*
X182863856Y-91790500D01*
X182863858Y-91790500D01*
X182956142Y-91790500D01*
X182956144Y-91790500D01*
X183045288Y-91766614D01*
X183125212Y-91720469D01*
X183190469Y-91655212D01*
X183236614Y-91575288D01*
X183260500Y-91486144D01*
X183260500Y-91393856D01*
X183236614Y-91304712D01*
X183201641Y-91244138D01*
X183190473Y-91224794D01*
X183190470Y-91224791D01*
X183190469Y-91224788D01*
X183125212Y-91159531D01*
X183125209Y-91159529D01*
X183125205Y-91159526D01*
X183045293Y-91113388D01*
X183045290Y-91113387D01*
X183045289Y-91113386D01*
X183045288Y-91113386D01*
X182956144Y-91089500D01*
X182863856Y-91089500D01*
X182774712Y-91113386D01*
X182774711Y-91113386D01*
X182774709Y-91113387D01*
X182774706Y-91113388D01*
X182694794Y-91159526D01*
X182694785Y-91159533D01*
X182629533Y-91224785D01*
X182629526Y-91224794D01*
X182583388Y-91304706D01*
X182583387Y-91304709D01*
X182559500Y-91393856D01*
X109332089Y-91393856D01*
X109375276Y-91350669D01*
X109397882Y-91316837D01*
X109397885Y-91316834D01*
X109446458Y-91244138D01*
X109446461Y-91244133D01*
X109446465Y-91244127D01*
X109495501Y-91125744D01*
X109520500Y-91000069D01*
X109520500Y-90871931D01*
X109520500Y-90871928D01*
X109495502Y-90746261D01*
X109495501Y-90746260D01*
X109495501Y-90746256D01*
X109446465Y-90627873D01*
X109446464Y-90627872D01*
X109446461Y-90627866D01*
X109375276Y-90521331D01*
X109375273Y-90521327D01*
X109284672Y-90430726D01*
X109284668Y-90430723D01*
X109178133Y-90359538D01*
X109178124Y-90359533D01*
X109059744Y-90310499D01*
X109059738Y-90310497D01*
X108934071Y-90285500D01*
X108934069Y-90285500D01*
X107705931Y-90285500D01*
X107705929Y-90285500D01*
X107580261Y-90310497D01*
X107580255Y-90310499D01*
X107461875Y-90359533D01*
X107461866Y-90359538D01*
X107355331Y-90430723D01*
X107355327Y-90430726D01*
X107264726Y-90521327D01*
X107264723Y-90521331D01*
X107193538Y-90627866D01*
X107193533Y-90627875D01*
X107144499Y-90746255D01*
X107144497Y-90746261D01*
X107119500Y-90871928D01*
X107119500Y-90871931D01*
X107119500Y-91000069D01*
X107119500Y-91000071D01*
X107119499Y-91000071D01*
X105190500Y-91000071D01*
X105190500Y-91000069D01*
X105190500Y-90871931D01*
X105190500Y-90871928D01*
X105165502Y-90746261D01*
X105165501Y-90746260D01*
X105165501Y-90746256D01*
X105116465Y-90627873D01*
X105116464Y-90627872D01*
X105116461Y-90627866D01*
X105045276Y-90521331D01*
X105045273Y-90521327D01*
X104954672Y-90430726D01*
X104954668Y-90430723D01*
X104848133Y-90359538D01*
X104848124Y-90359533D01*
X104729744Y-90310499D01*
X104729738Y-90310497D01*
X104604071Y-90285500D01*
X104604069Y-90285500D01*
X103675931Y-90285500D01*
X103675929Y-90285500D01*
X103550261Y-90310497D01*
X103550255Y-90310499D01*
X103431875Y-90359533D01*
X103431866Y-90359538D01*
X103325331Y-90430723D01*
X103325327Y-90430726D01*
X103234726Y-90521327D01*
X103234723Y-90521331D01*
X103163538Y-90627866D01*
X103163533Y-90627875D01*
X103114499Y-90746255D01*
X103114497Y-90746261D01*
X103089500Y-90871928D01*
X103089500Y-90871931D01*
X103089500Y-91000069D01*
X103089500Y-91000071D01*
X103089499Y-91000071D01*
X102100500Y-91000071D01*
X102100500Y-89436817D01*
X107294500Y-89436817D01*
X107294500Y-89575182D01*
X107330312Y-89708835D01*
X107330313Y-89708838D01*
X107399492Y-89828661D01*
X107399494Y-89828664D01*
X107399495Y-89828665D01*
X107497335Y-89926505D01*
X107617164Y-89995688D01*
X107750817Y-90031500D01*
X107750819Y-90031500D01*
X107889181Y-90031500D01*
X107889183Y-90031500D01*
X108022836Y-89995688D01*
X108142665Y-89926505D01*
X108240505Y-89828665D01*
X108309688Y-89708836D01*
X108345500Y-89575183D01*
X108345500Y-89436817D01*
X108309688Y-89303164D01*
X108240505Y-89183335D01*
X108142665Y-89085495D01*
X108142664Y-89085494D01*
X108142661Y-89085492D01*
X108022838Y-89016313D01*
X108022837Y-89016312D01*
X108022836Y-89016312D01*
X107889183Y-88980500D01*
X107750817Y-88980500D01*
X107617164Y-89016312D01*
X107617161Y-89016313D01*
X107497338Y-89085492D01*
X107497333Y-89085496D01*
X107399496Y-89183333D01*
X107399492Y-89183338D01*
X107330313Y-89303161D01*
X107330312Y-89303164D01*
X107294500Y-89436817D01*
X102100500Y-89436817D01*
X102100500Y-88343856D01*
X182559500Y-88343856D01*
X182559500Y-88436143D01*
X182583387Y-88525290D01*
X182583388Y-88525293D01*
X182629526Y-88605205D01*
X182629529Y-88605209D01*
X182629531Y-88605212D01*
X182694788Y-88670469D01*
X182694791Y-88670470D01*
X182694794Y-88670473D01*
X182774706Y-88716611D01*
X182774707Y-88716611D01*
X182774712Y-88716614D01*
X182863856Y-88740500D01*
X182863858Y-88740500D01*
X182956142Y-88740500D01*
X182956144Y-88740500D01*
X183045288Y-88716614D01*
X183125212Y-88670469D01*
X183190469Y-88605212D01*
X183236614Y-88525288D01*
X183260500Y-88436144D01*
X183260500Y-88343856D01*
X183236614Y-88254712D01*
X183236611Y-88254706D01*
X183190473Y-88174794D01*
X183190470Y-88174791D01*
X183190469Y-88174788D01*
X183125212Y-88109531D01*
X183125209Y-88109529D01*
X183125205Y-88109526D01*
X183045293Y-88063388D01*
X183045290Y-88063387D01*
X183045289Y-88063386D01*
X183045288Y-88063386D01*
X182956144Y-88039500D01*
X182863856Y-88039500D01*
X182774712Y-88063386D01*
X182774711Y-88063386D01*
X182774709Y-88063387D01*
X182774706Y-88063388D01*
X182694794Y-88109526D01*
X182694785Y-88109533D01*
X182629533Y-88174785D01*
X182629526Y-88174794D01*
X182583388Y-88254706D01*
X182583387Y-88254709D01*
X182559500Y-88343856D01*
X102100500Y-88343856D01*
X102100500Y-83656817D01*
X107294500Y-83656817D01*
X107294500Y-83795182D01*
X107330312Y-83928835D01*
X107330313Y-83928838D01*
X107399492Y-84048661D01*
X107399494Y-84048664D01*
X107399495Y-84048665D01*
X107497335Y-84146505D01*
X107617164Y-84215688D01*
X107750817Y-84251500D01*
X107750819Y-84251500D01*
X107889181Y-84251500D01*
X107889183Y-84251500D01*
X108022836Y-84215688D01*
X108142665Y-84146505D01*
X108240505Y-84048665D01*
X108309688Y-83928836D01*
X108345500Y-83795183D01*
X108345500Y-83656817D01*
X108309688Y-83523164D01*
X108240505Y-83403335D01*
X108142665Y-83305495D01*
X108142664Y-83305494D01*
X108142661Y-83305492D01*
X108022838Y-83236313D01*
X108022837Y-83236312D01*
X108022836Y-83236312D01*
X107889183Y-83200500D01*
X107750817Y-83200500D01*
X107617164Y-83236312D01*
X107617161Y-83236313D01*
X107497338Y-83305492D01*
X107497333Y-83305496D01*
X107399496Y-83403333D01*
X107399492Y-83403338D01*
X107330313Y-83523161D01*
X107330312Y-83523164D01*
X107294500Y-83656817D01*
X102100500Y-83656817D01*
X102100500Y-82360071D01*
X103089499Y-82360071D01*
X103114497Y-82485738D01*
X103114499Y-82485744D01*
X103163533Y-82604124D01*
X103163538Y-82604133D01*
X103234723Y-82710668D01*
X103234726Y-82710672D01*
X103325327Y-82801273D01*
X103325331Y-82801276D01*
X103431866Y-82872461D01*
X103431872Y-82872464D01*
X103431873Y-82872465D01*
X103550256Y-82921501D01*
X103550260Y-82921501D01*
X103550261Y-82921502D01*
X103675928Y-82946500D01*
X103675931Y-82946500D01*
X104604071Y-82946500D01*
X104688615Y-82929682D01*
X104729744Y-82921501D01*
X104848127Y-82872465D01*
X104954669Y-82801276D01*
X105045276Y-82710669D01*
X105116465Y-82604127D01*
X105165501Y-82485744D01*
X105190500Y-82360071D01*
X107119499Y-82360071D01*
X107144497Y-82485738D01*
X107144499Y-82485744D01*
X107193533Y-82604124D01*
X107193538Y-82604133D01*
X107264723Y-82710668D01*
X107264726Y-82710672D01*
X107355327Y-82801273D01*
X107355331Y-82801276D01*
X107461866Y-82872461D01*
X107461872Y-82872464D01*
X107461873Y-82872465D01*
X107580256Y-82921501D01*
X107580260Y-82921501D01*
X107580261Y-82921502D01*
X107705928Y-82946500D01*
X107705931Y-82946500D01*
X108934071Y-82946500D01*
X109018615Y-82929682D01*
X109059744Y-82921501D01*
X109178127Y-82872465D01*
X109284669Y-82801276D01*
X109375276Y-82710669D01*
X109446465Y-82604127D01*
X109495501Y-82485744D01*
X109520500Y-82360069D01*
X109520500Y-82231931D01*
X109520500Y-82231928D01*
X109495502Y-82106261D01*
X109495501Y-82106260D01*
X109495501Y-82106256D01*
X109446465Y-81987873D01*
X109446464Y-81987872D01*
X109446461Y-81987866D01*
X109375276Y-81881331D01*
X109375273Y-81881327D01*
X109284672Y-81790726D01*
X109284668Y-81790723D01*
X109178133Y-81719538D01*
X109178124Y-81719533D01*
X109059744Y-81670499D01*
X109059738Y-81670497D01*
X108934071Y-81645500D01*
X108934069Y-81645500D01*
X107705931Y-81645500D01*
X107705929Y-81645500D01*
X107580261Y-81670497D01*
X107580255Y-81670499D01*
X107461875Y-81719533D01*
X107461866Y-81719538D01*
X107355331Y-81790723D01*
X107355327Y-81790726D01*
X107264726Y-81881327D01*
X107264723Y-81881331D01*
X107193538Y-81987866D01*
X107193533Y-81987875D01*
X107144499Y-82106255D01*
X107144497Y-82106261D01*
X107119500Y-82231928D01*
X107119500Y-82231931D01*
X107119500Y-82360069D01*
X107119500Y-82360071D01*
X107119499Y-82360071D01*
X105190500Y-82360071D01*
X105190500Y-82360069D01*
X105190500Y-82231931D01*
X105190500Y-82231928D01*
X105165502Y-82106261D01*
X105165501Y-82106260D01*
X105165501Y-82106256D01*
X105116465Y-81987873D01*
X105116464Y-81987872D01*
X105116461Y-81987866D01*
X105045276Y-81881331D01*
X105045273Y-81881327D01*
X104954672Y-81790726D01*
X104954668Y-81790723D01*
X104848133Y-81719538D01*
X104848124Y-81719533D01*
X104729744Y-81670499D01*
X104729738Y-81670497D01*
X104604071Y-81645500D01*
X104604069Y-81645500D01*
X103675931Y-81645500D01*
X103675929Y-81645500D01*
X103550261Y-81670497D01*
X103550255Y-81670499D01*
X103431875Y-81719533D01*
X103431866Y-81719538D01*
X103325331Y-81790723D01*
X103325327Y-81790726D01*
X103234726Y-81881327D01*
X103234723Y-81881331D01*
X103163538Y-81987866D01*
X103163533Y-81987875D01*
X103114499Y-82106255D01*
X103114497Y-82106261D01*
X103089500Y-82231928D01*
X103089500Y-82231931D01*
X103089500Y-82360069D01*
X103089500Y-82360071D01*
X103089499Y-82360071D01*
X102100500Y-82360071D01*
X102100500Y-79796504D01*
X164860000Y-79796504D01*
X164860000Y-80195000D01*
X165560000Y-80195000D01*
X165560000Y-80695000D01*
X164860000Y-80695000D01*
X164860000Y-81093495D01*
X164898427Y-81286681D01*
X164898430Y-81286693D01*
X164973807Y-81468671D01*
X164973814Y-81468684D01*
X165083248Y-81632462D01*
X165083251Y-81632466D01*
X165222533Y-81771748D01*
X165222537Y-81771751D01*
X165386315Y-81881185D01*
X165386328Y-81881192D01*
X165568308Y-81956569D01*
X165610000Y-81964862D01*
X165610000Y-81161988D01*
X165619940Y-81179205D01*
X165675795Y-81235060D01*
X165744204Y-81274556D01*
X165820504Y-81295000D01*
X165899496Y-81295000D01*
X165975796Y-81274556D01*
X166044205Y-81235060D01*
X166100060Y-81179205D01*
X166110000Y-81161988D01*
X166110000Y-81964862D01*
X166151690Y-81956569D01*
X166151692Y-81956569D01*
X166333671Y-81881192D01*
X166333684Y-81881185D01*
X166497462Y-81771751D01*
X166497466Y-81771748D01*
X166636748Y-81632466D01*
X166636751Y-81632462D01*
X166746185Y-81468684D01*
X166746192Y-81468671D01*
X166821569Y-81286693D01*
X166821572Y-81286681D01*
X166859999Y-81093495D01*
X166860000Y-81093492D01*
X166860000Y-80695000D01*
X166160000Y-80695000D01*
X166160000Y-80195000D01*
X166755950Y-80195000D01*
X166822989Y-80214685D01*
X166863337Y-80256999D01*
X166869492Y-80267661D01*
X166869495Y-80267665D01*
X166967335Y-80365505D01*
X167087164Y-80434688D01*
X167220817Y-80470500D01*
X167220819Y-80470500D01*
X167359181Y-80470500D01*
X167359183Y-80470500D01*
X167492836Y-80434688D01*
X167612665Y-80365505D01*
X167710505Y-80267665D01*
X167779688Y-80147836D01*
X167815500Y-80014183D01*
X167815500Y-79875817D01*
X172544500Y-79875817D01*
X172544500Y-80014182D01*
X172580312Y-80147835D01*
X172580313Y-80147838D01*
X172649492Y-80267661D01*
X172649494Y-80267664D01*
X172649495Y-80267665D01*
X172747335Y-80365505D01*
X172867164Y-80434688D01*
X173000817Y-80470500D01*
X173000819Y-80470500D01*
X173139181Y-80470500D01*
X173139183Y-80470500D01*
X173272836Y-80434688D01*
X173392665Y-80365505D01*
X173490505Y-80267665D01*
X173496663Y-80256999D01*
X173547231Y-80208784D01*
X173604050Y-80195000D01*
X174200000Y-80195000D01*
X174200000Y-80695000D01*
X173500000Y-80695000D01*
X173500000Y-81093495D01*
X173538427Y-81286681D01*
X173538430Y-81286693D01*
X173613807Y-81468671D01*
X173613814Y-81468684D01*
X173723248Y-81632462D01*
X173723251Y-81632466D01*
X173862533Y-81771748D01*
X173862537Y-81771751D01*
X174026315Y-81881185D01*
X174026328Y-81881192D01*
X174208308Y-81956569D01*
X174250000Y-81964862D01*
X174250000Y-81161988D01*
X174259940Y-81179205D01*
X174315795Y-81235060D01*
X174384204Y-81274556D01*
X174460504Y-81295000D01*
X174539496Y-81295000D01*
X174615796Y-81274556D01*
X174684205Y-81235060D01*
X174740060Y-81179205D01*
X174750000Y-81161988D01*
X174750000Y-81964862D01*
X174791690Y-81956569D01*
X174791692Y-81956569D01*
X174973671Y-81881192D01*
X174973684Y-81881185D01*
X175137462Y-81771751D01*
X175137466Y-81771748D01*
X175276748Y-81632466D01*
X175276751Y-81632462D01*
X175386185Y-81468684D01*
X175386192Y-81468671D01*
X175461569Y-81286693D01*
X175461572Y-81286681D01*
X175499999Y-81093495D01*
X175500000Y-81093492D01*
X175500000Y-80695000D01*
X174800000Y-80695000D01*
X174800000Y-80195000D01*
X175500000Y-80195000D01*
X175500000Y-79796508D01*
X175499999Y-79796504D01*
X175461572Y-79603318D01*
X175461569Y-79603306D01*
X175386192Y-79421328D01*
X175386185Y-79421315D01*
X175276751Y-79257537D01*
X175276748Y-79257533D01*
X175137466Y-79118251D01*
X175137462Y-79118248D01*
X174973684Y-79008814D01*
X174973671Y-79008807D01*
X174791691Y-78933429D01*
X174791683Y-78933427D01*
X174750000Y-78925135D01*
X174750000Y-79728011D01*
X174740060Y-79710795D01*
X174684205Y-79654940D01*
X174615796Y-79615444D01*
X174539496Y-79595000D01*
X174460504Y-79595000D01*
X174384204Y-79615444D01*
X174315795Y-79654940D01*
X174259940Y-79710795D01*
X174250000Y-79728011D01*
X174250000Y-78925136D01*
X174249999Y-78925135D01*
X174208316Y-78933427D01*
X174208308Y-78933429D01*
X174026328Y-79008807D01*
X174026315Y-79008814D01*
X173862537Y-79118248D01*
X173862533Y-79118251D01*
X173723251Y-79257533D01*
X173723248Y-79257537D01*
X173613814Y-79421315D01*
X173613807Y-79421328D01*
X173589838Y-79479197D01*
X173545997Y-79533601D01*
X173479703Y-79555666D01*
X173412004Y-79538387D01*
X173399624Y-79528770D01*
X173399110Y-79529441D01*
X173392661Y-79524492D01*
X173272838Y-79455313D01*
X173272837Y-79455312D01*
X173272836Y-79455312D01*
X173139183Y-79419500D01*
X173000817Y-79419500D01*
X172867164Y-79455312D01*
X172867161Y-79455313D01*
X172747338Y-79524492D01*
X172747333Y-79524496D01*
X172649496Y-79622333D01*
X172649492Y-79622338D01*
X172580313Y-79742161D01*
X172580312Y-79742164D01*
X172544500Y-79875817D01*
X167815500Y-79875817D01*
X167779688Y-79742164D01*
X167745096Y-79682249D01*
X167710507Y-79622338D01*
X167710503Y-79622333D01*
X167612666Y-79524496D01*
X167612661Y-79524492D01*
X167492838Y-79455313D01*
X167492837Y-79455312D01*
X167492836Y-79455312D01*
X167359183Y-79419500D01*
X167220817Y-79419500D01*
X167087164Y-79455312D01*
X167087161Y-79455313D01*
X166967338Y-79524492D01*
X166960890Y-79529441D01*
X166958883Y-79526825D01*
X166910991Y-79552931D01*
X166841303Y-79547895D01*
X166785400Y-79505982D01*
X166770160Y-79479196D01*
X166746189Y-79421322D01*
X166746185Y-79421315D01*
X166636751Y-79257537D01*
X166636748Y-79257533D01*
X166497466Y-79118251D01*
X166497462Y-79118248D01*
X166333684Y-79008814D01*
X166333671Y-79008807D01*
X166151691Y-78933429D01*
X166151683Y-78933427D01*
X166110000Y-78925135D01*
X166110000Y-79728011D01*
X166100060Y-79710795D01*
X166044205Y-79654940D01*
X165975796Y-79615444D01*
X165899496Y-79595000D01*
X165820504Y-79595000D01*
X165744204Y-79615444D01*
X165675795Y-79654940D01*
X165619940Y-79710795D01*
X165610000Y-79728011D01*
X165610000Y-78925136D01*
X165609999Y-78925135D01*
X165568316Y-78933427D01*
X165568308Y-78933429D01*
X165386328Y-79008807D01*
X165386315Y-79008814D01*
X165222537Y-79118248D01*
X165222533Y-79118251D01*
X165083251Y-79257533D01*
X165083248Y-79257537D01*
X164973814Y-79421315D01*
X164973807Y-79421328D01*
X164898430Y-79603306D01*
X164898427Y-79603318D01*
X164860000Y-79796504D01*
X102100500Y-79796504D01*
X102100500Y-78603856D01*
X166909500Y-78603856D01*
X166909500Y-78696143D01*
X166933387Y-78785290D01*
X166933388Y-78785293D01*
X166979526Y-78865205D01*
X166979529Y-78865209D01*
X166979531Y-78865212D01*
X167044788Y-78930469D01*
X167044791Y-78930470D01*
X167044794Y-78930473D01*
X167124706Y-78976611D01*
X167124707Y-78976611D01*
X167124712Y-78976614D01*
X167213856Y-79000500D01*
X167213858Y-79000500D01*
X167306142Y-79000500D01*
X167306144Y-79000500D01*
X167395288Y-78976614D01*
X167475212Y-78930469D01*
X167540469Y-78865212D01*
X167586614Y-78785288D01*
X167610500Y-78696144D01*
X167610500Y-78603856D01*
X172729500Y-78603856D01*
X172729500Y-78696143D01*
X172753387Y-78785290D01*
X172753388Y-78785293D01*
X172799526Y-78865205D01*
X172799529Y-78865209D01*
X172799531Y-78865212D01*
X172864788Y-78930469D01*
X172864791Y-78930470D01*
X172864794Y-78930473D01*
X172944706Y-78976611D01*
X172944707Y-78976611D01*
X172944712Y-78976614D01*
X173033856Y-79000500D01*
X173033858Y-79000500D01*
X173126142Y-79000500D01*
X173126144Y-79000500D01*
X173215288Y-78976614D01*
X173295212Y-78930469D01*
X173360469Y-78865212D01*
X173406614Y-78785288D01*
X173430500Y-78696144D01*
X173430500Y-78603856D01*
X173406614Y-78514712D01*
X173406611Y-78514706D01*
X173360473Y-78434794D01*
X173360470Y-78434791D01*
X173360469Y-78434788D01*
X173295212Y-78369531D01*
X173295209Y-78369529D01*
X173295205Y-78369526D01*
X173215293Y-78323388D01*
X173215290Y-78323387D01*
X173215289Y-78323386D01*
X173215288Y-78323386D01*
X173126144Y-78299500D01*
X173033856Y-78299500D01*
X172944712Y-78323386D01*
X172944711Y-78323386D01*
X172944709Y-78323387D01*
X172944706Y-78323388D01*
X172864794Y-78369526D01*
X172864785Y-78369533D01*
X172799533Y-78434785D01*
X172799526Y-78434794D01*
X172753388Y-78514706D01*
X172753387Y-78514709D01*
X172729500Y-78603856D01*
X167610500Y-78603856D01*
X167586614Y-78514712D01*
X167586611Y-78514706D01*
X167540473Y-78434794D01*
X167540470Y-78434791D01*
X167540469Y-78434788D01*
X167475212Y-78369531D01*
X167475209Y-78369529D01*
X167475205Y-78369526D01*
X167395293Y-78323388D01*
X167395290Y-78323387D01*
X167395289Y-78323386D01*
X167395288Y-78323386D01*
X167306144Y-78299500D01*
X167213856Y-78299500D01*
X167124712Y-78323386D01*
X167124711Y-78323386D01*
X167124709Y-78323387D01*
X167124706Y-78323388D01*
X167044794Y-78369526D01*
X167044785Y-78369533D01*
X166979533Y-78434785D01*
X166979526Y-78434794D01*
X166933388Y-78514706D01*
X166933387Y-78514709D01*
X166909500Y-78603856D01*
X102100500Y-78603856D01*
X102100500Y-77064822D01*
X110759499Y-77064822D01*
X110768231Y-77108717D01*
X110768234Y-77108724D01*
X110798118Y-77153449D01*
X110801496Y-77158504D01*
X110851278Y-77191767D01*
X110851281Y-77191767D01*
X110851282Y-77191768D01*
X110895177Y-77200500D01*
X110895180Y-77200500D01*
X112624822Y-77200500D01*
X112668717Y-77191768D01*
X112668717Y-77191767D01*
X112668722Y-77191767D01*
X112718504Y-77158504D01*
X112751767Y-77108722D01*
X112760500Y-77064820D01*
X112760500Y-76298543D01*
X113299499Y-76298543D01*
X113337947Y-76491829D01*
X113337950Y-76491839D01*
X113413364Y-76673907D01*
X113413371Y-76673920D01*
X113522860Y-76837781D01*
X113522863Y-76837785D01*
X113662214Y-76977136D01*
X113662218Y-76977139D01*
X113826079Y-77086628D01*
X113826092Y-77086635D01*
X114008160Y-77162049D01*
X114008165Y-77162051D01*
X114008169Y-77162051D01*
X114008170Y-77162052D01*
X114201456Y-77200500D01*
X114201459Y-77200500D01*
X114398543Y-77200500D01*
X114528582Y-77174632D01*
X114591835Y-77162051D01*
X114773914Y-77086632D01*
X114937782Y-76977139D01*
X115077139Y-76837782D01*
X115186632Y-76673914D01*
X115262051Y-76491835D01*
X115282167Y-76390707D01*
X115300500Y-76298543D01*
X115839499Y-76298543D01*
X115877947Y-76491829D01*
X115877950Y-76491839D01*
X115953364Y-76673907D01*
X115953371Y-76673920D01*
X116062860Y-76837781D01*
X116062863Y-76837785D01*
X116202214Y-76977136D01*
X116202218Y-76977139D01*
X116366079Y-77086628D01*
X116366092Y-77086635D01*
X116548160Y-77162049D01*
X116548165Y-77162051D01*
X116548169Y-77162051D01*
X116548170Y-77162052D01*
X116741456Y-77200500D01*
X116741459Y-77200500D01*
X116938543Y-77200500D01*
X117068582Y-77174632D01*
X117131835Y-77162051D01*
X117313914Y-77086632D01*
X117477782Y-76977139D01*
X117617139Y-76837782D01*
X117726632Y-76673914D01*
X117802051Y-76491835D01*
X117822167Y-76390707D01*
X117840500Y-76298543D01*
X118379499Y-76298543D01*
X118417947Y-76491829D01*
X118417950Y-76491839D01*
X118493364Y-76673907D01*
X118493371Y-76673920D01*
X118602860Y-76837781D01*
X118602863Y-76837785D01*
X118742214Y-76977136D01*
X118742218Y-76977139D01*
X118906079Y-77086628D01*
X118906092Y-77086635D01*
X119088160Y-77162049D01*
X119088165Y-77162051D01*
X119088169Y-77162051D01*
X119088170Y-77162052D01*
X119281456Y-77200500D01*
X119281459Y-77200500D01*
X119478543Y-77200500D01*
X119608582Y-77174632D01*
X119671835Y-77162051D01*
X119853914Y-77086632D01*
X120017782Y-76977139D01*
X120157139Y-76837782D01*
X120266632Y-76673914D01*
X120342051Y-76491835D01*
X120362167Y-76390707D01*
X120380500Y-76298543D01*
X120919499Y-76298543D01*
X120957947Y-76491829D01*
X120957950Y-76491839D01*
X121033364Y-76673907D01*
X121033371Y-76673920D01*
X121142860Y-76837781D01*
X121142863Y-76837785D01*
X121282214Y-76977136D01*
X121282218Y-76977139D01*
X121446079Y-77086628D01*
X121446092Y-77086635D01*
X121628160Y-77162049D01*
X121628165Y-77162051D01*
X121628169Y-77162051D01*
X121628170Y-77162052D01*
X121821456Y-77200500D01*
X121821459Y-77200500D01*
X122018543Y-77200500D01*
X122148582Y-77174632D01*
X122211835Y-77162051D01*
X122393914Y-77086632D01*
X122557782Y-76977139D01*
X122697139Y-76837782D01*
X122806632Y-76673914D01*
X122882051Y-76491835D01*
X122902167Y-76390707D01*
X122920500Y-76298543D01*
X123459499Y-76298543D01*
X123497947Y-76491829D01*
X123497950Y-76491839D01*
X123573364Y-76673907D01*
X123573371Y-76673920D01*
X123682860Y-76837781D01*
X123682863Y-76837785D01*
X123822214Y-76977136D01*
X123822218Y-76977139D01*
X123986079Y-77086628D01*
X123986092Y-77086635D01*
X124168160Y-77162049D01*
X124168165Y-77162051D01*
X124168169Y-77162051D01*
X124168170Y-77162052D01*
X124361456Y-77200500D01*
X124361459Y-77200500D01*
X124558543Y-77200500D01*
X124688582Y-77174632D01*
X124751835Y-77162051D01*
X124933914Y-77086632D01*
X125097782Y-76977139D01*
X125237139Y-76837782D01*
X125346632Y-76673914D01*
X125422051Y-76491835D01*
X125442167Y-76390707D01*
X125460500Y-76298543D01*
X125999499Y-76298543D01*
X126037947Y-76491829D01*
X126037950Y-76491839D01*
X126113364Y-76673907D01*
X126113371Y-76673920D01*
X126222860Y-76837781D01*
X126222863Y-76837785D01*
X126362214Y-76977136D01*
X126362218Y-76977139D01*
X126526079Y-77086628D01*
X126526092Y-77086635D01*
X126708160Y-77162049D01*
X126708165Y-77162051D01*
X126708169Y-77162051D01*
X126708170Y-77162052D01*
X126901456Y-77200500D01*
X126901459Y-77200500D01*
X127098543Y-77200500D01*
X127228582Y-77174632D01*
X127291835Y-77162051D01*
X127473914Y-77086632D01*
X127637782Y-76977139D01*
X127777139Y-76837782D01*
X127886632Y-76673914D01*
X127962051Y-76491835D01*
X127982167Y-76390707D01*
X128000500Y-76298543D01*
X128539499Y-76298543D01*
X128577947Y-76491829D01*
X128577950Y-76491839D01*
X128653364Y-76673907D01*
X128653371Y-76673920D01*
X128762860Y-76837781D01*
X128762863Y-76837785D01*
X128902214Y-76977136D01*
X128902218Y-76977139D01*
X129066079Y-77086628D01*
X129066092Y-77086635D01*
X129248160Y-77162049D01*
X129248165Y-77162051D01*
X129248169Y-77162051D01*
X129248170Y-77162052D01*
X129441456Y-77200500D01*
X129441459Y-77200500D01*
X129638543Y-77200500D01*
X129768582Y-77174632D01*
X129831835Y-77162051D01*
X130013914Y-77086632D01*
X130177782Y-76977139D01*
X130317139Y-76837782D01*
X130426632Y-76673914D01*
X130502051Y-76491835D01*
X130522167Y-76390707D01*
X130540500Y-76298543D01*
X131079499Y-76298543D01*
X131117947Y-76491829D01*
X131117950Y-76491839D01*
X131193364Y-76673907D01*
X131193371Y-76673920D01*
X131302860Y-76837781D01*
X131302863Y-76837785D01*
X131442214Y-76977136D01*
X131442218Y-76977139D01*
X131606079Y-77086628D01*
X131606092Y-77086635D01*
X131788160Y-77162049D01*
X131788165Y-77162051D01*
X131788169Y-77162051D01*
X131788170Y-77162052D01*
X131981456Y-77200500D01*
X131981459Y-77200500D01*
X132178543Y-77200500D01*
X132308582Y-77174632D01*
X132371835Y-77162051D01*
X132553914Y-77086632D01*
X132717782Y-76977139D01*
X132857139Y-76837782D01*
X132966632Y-76673914D01*
X133042051Y-76491835D01*
X133062167Y-76390707D01*
X133080500Y-76298543D01*
X133619499Y-76298543D01*
X133657947Y-76491829D01*
X133657950Y-76491839D01*
X133733364Y-76673907D01*
X133733371Y-76673920D01*
X133842860Y-76837781D01*
X133842863Y-76837785D01*
X133982214Y-76977136D01*
X133982218Y-76977139D01*
X134146079Y-77086628D01*
X134146092Y-77086635D01*
X134328160Y-77162049D01*
X134328165Y-77162051D01*
X134328169Y-77162051D01*
X134328170Y-77162052D01*
X134521456Y-77200500D01*
X134521459Y-77200500D01*
X134718543Y-77200500D01*
X134848582Y-77174632D01*
X134911835Y-77162051D01*
X135093914Y-77086632D01*
X135257782Y-76977139D01*
X135397139Y-76837782D01*
X135506632Y-76673914D01*
X135582051Y-76491835D01*
X135602167Y-76390707D01*
X135620500Y-76298543D01*
X136159499Y-76298543D01*
X136197947Y-76491829D01*
X136197950Y-76491839D01*
X136273364Y-76673907D01*
X136273371Y-76673920D01*
X136382860Y-76837781D01*
X136382863Y-76837785D01*
X136522214Y-76977136D01*
X136522218Y-76977139D01*
X136686079Y-77086628D01*
X136686092Y-77086635D01*
X136868160Y-77162049D01*
X136868165Y-77162051D01*
X136868169Y-77162051D01*
X136868170Y-77162052D01*
X137061456Y-77200500D01*
X137061459Y-77200500D01*
X137258543Y-77200500D01*
X137388582Y-77174632D01*
X137451835Y-77162051D01*
X137633914Y-77086632D01*
X137797782Y-76977139D01*
X137937139Y-76837782D01*
X138046632Y-76673914D01*
X138122051Y-76491835D01*
X138129852Y-76452615D01*
X138162236Y-76390707D01*
X138222952Y-76356133D01*
X138292721Y-76359872D01*
X138349394Y-76400738D01*
X138373942Y-76457411D01*
X138383242Y-76516127D01*
X138383242Y-76516130D01*
X138448904Y-76718217D01*
X138545375Y-76907550D01*
X138584728Y-76961716D01*
X139217037Y-76329408D01*
X139234075Y-76392993D01*
X139299901Y-76507007D01*
X139392993Y-76600099D01*
X139507007Y-76665925D01*
X139570590Y-76682962D01*
X138938282Y-77315269D01*
X138938282Y-77315270D01*
X138992449Y-77354624D01*
X139181782Y-77451095D01*
X139383870Y-77516757D01*
X139593754Y-77550000D01*
X139806246Y-77550000D01*
X140016127Y-77516757D01*
X140016130Y-77516757D01*
X140218217Y-77451095D01*
X140407554Y-77354622D01*
X140461716Y-77315270D01*
X140461717Y-77315270D01*
X139829408Y-76682962D01*
X139892993Y-76665925D01*
X140007007Y-76600099D01*
X140100099Y-76507007D01*
X140165925Y-76392993D01*
X140182962Y-76329409D01*
X140815270Y-76961717D01*
X140815270Y-76961716D01*
X140854622Y-76907554D01*
X140951095Y-76718217D01*
X141016757Y-76516130D01*
X141016757Y-76516127D01*
X141028144Y-76444240D01*
X141050000Y-76306246D01*
X141050000Y-76093753D01*
X141016757Y-75883872D01*
X141016757Y-75883869D01*
X140989095Y-75798735D01*
X140978623Y-75766504D01*
X164860000Y-75766504D01*
X164860000Y-76015000D01*
X165560000Y-76015000D01*
X165560000Y-76515000D01*
X164860000Y-76515000D01*
X164860000Y-76763495D01*
X164898427Y-76956681D01*
X164898430Y-76956693D01*
X164973807Y-77138671D01*
X164973814Y-77138684D01*
X165083248Y-77302462D01*
X165083251Y-77302466D01*
X165222533Y-77441748D01*
X165222537Y-77441751D01*
X165386315Y-77551185D01*
X165386328Y-77551192D01*
X165568308Y-77626569D01*
X165610000Y-77634862D01*
X165610000Y-76831988D01*
X165619940Y-76849205D01*
X165675795Y-76905060D01*
X165744204Y-76944556D01*
X165820504Y-76965000D01*
X165899496Y-76965000D01*
X165975796Y-76944556D01*
X166044205Y-76905060D01*
X166100060Y-76849205D01*
X166110000Y-76831988D01*
X166110000Y-77634862D01*
X166151690Y-77626569D01*
X166151692Y-77626569D01*
X166333671Y-77551192D01*
X166333684Y-77551185D01*
X166497462Y-77441751D01*
X166497466Y-77441748D01*
X166636749Y-77302465D01*
X166693981Y-77216811D01*
X166747593Y-77172005D01*
X166816918Y-77163298D01*
X166879946Y-77193452D01*
X166916666Y-77252895D01*
X166916859Y-77253607D01*
X166933387Y-77315292D01*
X166933388Y-77315293D01*
X166979526Y-77395205D01*
X166979529Y-77395209D01*
X166979531Y-77395212D01*
X167044788Y-77460469D01*
X167044791Y-77460470D01*
X167044794Y-77460473D01*
X167124706Y-77506611D01*
X167124707Y-77506611D01*
X167124712Y-77506614D01*
X167213856Y-77530500D01*
X167213858Y-77530500D01*
X167306142Y-77530500D01*
X167306144Y-77530500D01*
X167395288Y-77506614D01*
X167475212Y-77460469D01*
X167540469Y-77395212D01*
X167586614Y-77315288D01*
X167610500Y-77226144D01*
X167610500Y-77133856D01*
X167586614Y-77044712D01*
X167586611Y-77044706D01*
X167540473Y-76964794D01*
X167540470Y-76964791D01*
X167540469Y-76964788D01*
X167475212Y-76899531D01*
X167475209Y-76899529D01*
X167475205Y-76899526D01*
X167395293Y-76853388D01*
X167395290Y-76853387D01*
X167395289Y-76853386D01*
X167395288Y-76853386D01*
X167306144Y-76829500D01*
X167213856Y-76829500D01*
X167124712Y-76853386D01*
X167124711Y-76853386D01*
X167124709Y-76853387D01*
X167124708Y-76853387D01*
X167042462Y-76900873D01*
X166974562Y-76917346D01*
X166908535Y-76894494D01*
X166865345Y-76839573D01*
X166858703Y-76770019D01*
X166858847Y-76769285D01*
X166860000Y-76763490D01*
X166860000Y-76515000D01*
X166160000Y-76515000D01*
X166160000Y-76015000D01*
X166859999Y-76015000D01*
X166877215Y-75997784D01*
X166938538Y-75964298D01*
X167008229Y-75969282D01*
X167040389Y-75987092D01*
X167044783Y-75990464D01*
X167044788Y-75990469D01*
X167044793Y-75990472D01*
X167044796Y-75990474D01*
X167124706Y-76036611D01*
X167124707Y-76036611D01*
X167124712Y-76036614D01*
X167213856Y-76060500D01*
X167213858Y-76060500D01*
X167306142Y-76060500D01*
X167306144Y-76060500D01*
X167395288Y-76036614D01*
X167475212Y-75990469D01*
X167540469Y-75925212D01*
X167586614Y-75845288D01*
X167610500Y-75756144D01*
X167610500Y-75663856D01*
X172729500Y-75663856D01*
X172729500Y-75756144D01*
X172740912Y-75798735D01*
X172753387Y-75845290D01*
X172753388Y-75845293D01*
X172799526Y-75925205D01*
X172799529Y-75925209D01*
X172799531Y-75925212D01*
X172864788Y-75990469D01*
X172864791Y-75990470D01*
X172864794Y-75990473D01*
X172944706Y-76036611D01*
X172944707Y-76036611D01*
X172944712Y-76036614D01*
X173033856Y-76060500D01*
X173033858Y-76060500D01*
X173126142Y-76060500D01*
X173126144Y-76060500D01*
X173215288Y-76036614D01*
X173295212Y-75990469D01*
X173297657Y-75988023D01*
X173300226Y-75986620D01*
X173301658Y-75985522D01*
X173301829Y-75985745D01*
X173358975Y-75954537D01*
X173428666Y-75959518D01*
X173473021Y-75988021D01*
X173500000Y-76015000D01*
X174200000Y-76015000D01*
X174200000Y-76515000D01*
X173500000Y-76515000D01*
X173500000Y-76763489D01*
X173504881Y-76788030D01*
X173498652Y-76857622D01*
X173455788Y-76912799D01*
X173389898Y-76936042D01*
X173321902Y-76919973D01*
X173295582Y-76899901D01*
X173295214Y-76899533D01*
X173295212Y-76899531D01*
X173295209Y-76899529D01*
X173295205Y-76899526D01*
X173215293Y-76853388D01*
X173215290Y-76853387D01*
X173215289Y-76853386D01*
X173215288Y-76853386D01*
X173126144Y-76829500D01*
X173033856Y-76829500D01*
X172944712Y-76853386D01*
X172944711Y-76853386D01*
X172944709Y-76853387D01*
X172944706Y-76853388D01*
X172864794Y-76899526D01*
X172864785Y-76899533D01*
X172799533Y-76964785D01*
X172799526Y-76964794D01*
X172753388Y-77044706D01*
X172753387Y-77044709D01*
X172753386Y-77044711D01*
X172753386Y-77044712D01*
X172729500Y-77133856D01*
X172729500Y-77226144D01*
X172753381Y-77315270D01*
X172753387Y-77315290D01*
X172753388Y-77315293D01*
X172799526Y-77395205D01*
X172799529Y-77395209D01*
X172799531Y-77395212D01*
X172864788Y-77460469D01*
X172864791Y-77460470D01*
X172864794Y-77460473D01*
X172944706Y-77506611D01*
X172944707Y-77506611D01*
X172944712Y-77506614D01*
X173033856Y-77530500D01*
X173033858Y-77530500D01*
X173126142Y-77530500D01*
X173126144Y-77530500D01*
X173215288Y-77506614D01*
X173295212Y-77460469D01*
X173360469Y-77395212D01*
X173406614Y-77315288D01*
X173428865Y-77232242D01*
X173465230Y-77172583D01*
X173528077Y-77142054D01*
X173597452Y-77150349D01*
X173651330Y-77194834D01*
X173651742Y-77195446D01*
X173723248Y-77302462D01*
X173723251Y-77302466D01*
X173862533Y-77441748D01*
X173862537Y-77441751D01*
X174026315Y-77551185D01*
X174026328Y-77551192D01*
X174208308Y-77626569D01*
X174250000Y-77634862D01*
X174250000Y-76831988D01*
X174259940Y-76849205D01*
X174315795Y-76905060D01*
X174384204Y-76944556D01*
X174460504Y-76965000D01*
X174539496Y-76965000D01*
X174615796Y-76944556D01*
X174684205Y-76905060D01*
X174740060Y-76849205D01*
X174750000Y-76831988D01*
X174750000Y-77634862D01*
X174791690Y-77626569D01*
X174791692Y-77626569D01*
X174973671Y-77551192D01*
X174973684Y-77551185D01*
X175137462Y-77441751D01*
X175137466Y-77441748D01*
X175276748Y-77302466D01*
X175276751Y-77302462D01*
X175386185Y-77138684D01*
X175386192Y-77138671D01*
X175461569Y-76956693D01*
X175461572Y-76956681D01*
X175499999Y-76763495D01*
X175500000Y-76763492D01*
X175500000Y-76515000D01*
X174800000Y-76515000D01*
X174800000Y-76015000D01*
X175500000Y-76015000D01*
X175500000Y-75766508D01*
X175499999Y-75766504D01*
X175461572Y-75573318D01*
X175461569Y-75573306D01*
X175386192Y-75391328D01*
X175386185Y-75391315D01*
X175276751Y-75227537D01*
X175276748Y-75227533D01*
X175137466Y-75088251D01*
X175137462Y-75088248D01*
X174973684Y-74978814D01*
X174973671Y-74978807D01*
X174791691Y-74903429D01*
X174791683Y-74903427D01*
X174750000Y-74895135D01*
X174750000Y-75698011D01*
X174740060Y-75680795D01*
X174684205Y-75624940D01*
X174615796Y-75585444D01*
X174539496Y-75565000D01*
X174460504Y-75565000D01*
X174384204Y-75585444D01*
X174315795Y-75624940D01*
X174259940Y-75680795D01*
X174250000Y-75698011D01*
X174250000Y-74895136D01*
X174249999Y-74895135D01*
X174208316Y-74903427D01*
X174208308Y-74903429D01*
X174026328Y-74978807D01*
X174026315Y-74978814D01*
X173862537Y-75088248D01*
X173862533Y-75088251D01*
X173723251Y-75227533D01*
X173723248Y-75227537D01*
X173613814Y-75391315D01*
X173613809Y-75391324D01*
X173579251Y-75474757D01*
X173535410Y-75529160D01*
X173469116Y-75551225D01*
X173401417Y-75533946D01*
X173367506Y-75499633D01*
X173365417Y-75501237D01*
X173360471Y-75494791D01*
X173360469Y-75494788D01*
X173295212Y-75429531D01*
X173295209Y-75429529D01*
X173295205Y-75429526D01*
X173215293Y-75383388D01*
X173215290Y-75383387D01*
X173215289Y-75383386D01*
X173215288Y-75383386D01*
X173126144Y-75359500D01*
X173033856Y-75359500D01*
X172944712Y-75383386D01*
X172944711Y-75383386D01*
X172944709Y-75383387D01*
X172944706Y-75383388D01*
X172864794Y-75429526D01*
X172864785Y-75429533D01*
X172799533Y-75494785D01*
X172799526Y-75494794D01*
X172753388Y-75574706D01*
X172753387Y-75574709D01*
X172753386Y-75574711D01*
X172753386Y-75574712D01*
X172729500Y-75663856D01*
X167610500Y-75663856D01*
X167586614Y-75574712D01*
X167586611Y-75574706D01*
X167540473Y-75494794D01*
X167540470Y-75494791D01*
X167540469Y-75494788D01*
X167475212Y-75429531D01*
X167475209Y-75429529D01*
X167475205Y-75429526D01*
X167395293Y-75383388D01*
X167395290Y-75383387D01*
X167395289Y-75383386D01*
X167395288Y-75383386D01*
X167306144Y-75359500D01*
X167213856Y-75359500D01*
X167124712Y-75383386D01*
X167124711Y-75383386D01*
X167124709Y-75383387D01*
X167124706Y-75383388D01*
X167044794Y-75429526D01*
X167044789Y-75429530D01*
X166976061Y-75498258D01*
X166914737Y-75531742D01*
X166845046Y-75526757D01*
X166789112Y-75484886D01*
X166773818Y-75458027D01*
X166746189Y-75391322D01*
X166746185Y-75391315D01*
X166636751Y-75227537D01*
X166636748Y-75227533D01*
X166497466Y-75088251D01*
X166497462Y-75088248D01*
X166333684Y-74978814D01*
X166333671Y-74978807D01*
X166151691Y-74903429D01*
X166151683Y-74903427D01*
X166110000Y-74895135D01*
X166110000Y-75698011D01*
X166100060Y-75680795D01*
X166044205Y-75624940D01*
X165975796Y-75585444D01*
X165899496Y-75565000D01*
X165820504Y-75565000D01*
X165744204Y-75585444D01*
X165675795Y-75624940D01*
X165619940Y-75680795D01*
X165610000Y-75698011D01*
X165610000Y-74895136D01*
X165609999Y-74895135D01*
X165568316Y-74903427D01*
X165568308Y-74903429D01*
X165386328Y-74978807D01*
X165386315Y-74978814D01*
X165222537Y-75088248D01*
X165222533Y-75088251D01*
X165083251Y-75227533D01*
X165083248Y-75227537D01*
X164973814Y-75391315D01*
X164973807Y-75391328D01*
X164898430Y-75573306D01*
X164898427Y-75573318D01*
X164860000Y-75766504D01*
X140978623Y-75766504D01*
X140951095Y-75681782D01*
X140854624Y-75492449D01*
X140815270Y-75438282D01*
X140815269Y-75438282D01*
X140182962Y-76070590D01*
X140165925Y-76007007D01*
X140100099Y-75892993D01*
X140007007Y-75799901D01*
X139892993Y-75734075D01*
X139829409Y-75717037D01*
X140461716Y-75084728D01*
X140407550Y-75045375D01*
X140218217Y-74948904D01*
X140016129Y-74883242D01*
X139806246Y-74850000D01*
X139593754Y-74850000D01*
X139383872Y-74883242D01*
X139383869Y-74883242D01*
X139181782Y-74948904D01*
X138992439Y-75045380D01*
X138938282Y-75084727D01*
X138938282Y-75084728D01*
X139570591Y-75717037D01*
X139507007Y-75734075D01*
X139392993Y-75799901D01*
X139299901Y-75892993D01*
X139234075Y-76007007D01*
X139217037Y-76070591D01*
X138584728Y-75438282D01*
X138584727Y-75438282D01*
X138545380Y-75492439D01*
X138448904Y-75681782D01*
X138383242Y-75883869D01*
X138383242Y-75883870D01*
X138373942Y-75942589D01*
X138344012Y-76005723D01*
X138284700Y-76042654D01*
X138214838Y-76041656D01*
X138156605Y-76003046D01*
X138129852Y-75947381D01*
X138125442Y-75925212D01*
X138122051Y-75908165D01*
X138111987Y-75883869D01*
X138046635Y-75726092D01*
X138046628Y-75726079D01*
X137937139Y-75562218D01*
X137937136Y-75562214D01*
X137797785Y-75422863D01*
X137797781Y-75422860D01*
X137633920Y-75313371D01*
X137633907Y-75313364D01*
X137472596Y-75246548D01*
X137451839Y-75237950D01*
X137451829Y-75237947D01*
X137258543Y-75199500D01*
X137258541Y-75199500D01*
X137061459Y-75199500D01*
X137061457Y-75199500D01*
X136868170Y-75237947D01*
X136868160Y-75237950D01*
X136686092Y-75313364D01*
X136686079Y-75313371D01*
X136522218Y-75422860D01*
X136522214Y-75422863D01*
X136382863Y-75562214D01*
X136382860Y-75562218D01*
X136273371Y-75726079D01*
X136273364Y-75726092D01*
X136197950Y-75908160D01*
X136197947Y-75908170D01*
X136159500Y-76101456D01*
X136159500Y-76101459D01*
X136159500Y-76298541D01*
X136159500Y-76298543D01*
X136159499Y-76298543D01*
X135620500Y-76298543D01*
X135620500Y-76101456D01*
X135582052Y-75908170D01*
X135582051Y-75908169D01*
X135582051Y-75908165D01*
X135571987Y-75883869D01*
X135506635Y-75726092D01*
X135506628Y-75726079D01*
X135397139Y-75562218D01*
X135397136Y-75562214D01*
X135257785Y-75422863D01*
X135257781Y-75422860D01*
X135093920Y-75313371D01*
X135093907Y-75313364D01*
X134911839Y-75237950D01*
X134911829Y-75237947D01*
X134718543Y-75199500D01*
X134718541Y-75199500D01*
X134521459Y-75199500D01*
X134521457Y-75199500D01*
X134328170Y-75237947D01*
X134328160Y-75237950D01*
X134146092Y-75313364D01*
X134146079Y-75313371D01*
X133982218Y-75422860D01*
X133982214Y-75422863D01*
X133842863Y-75562214D01*
X133842860Y-75562218D01*
X133733371Y-75726079D01*
X133733364Y-75726092D01*
X133657950Y-75908160D01*
X133657947Y-75908170D01*
X133619500Y-76101456D01*
X133619500Y-76101459D01*
X133619500Y-76298541D01*
X133619500Y-76298543D01*
X133619499Y-76298543D01*
X133080500Y-76298543D01*
X133080500Y-76101456D01*
X133042052Y-75908170D01*
X133042051Y-75908169D01*
X133042051Y-75908165D01*
X133031987Y-75883869D01*
X132966635Y-75726092D01*
X132966628Y-75726079D01*
X132857139Y-75562218D01*
X132857136Y-75562214D01*
X132717785Y-75422863D01*
X132717781Y-75422860D01*
X132553920Y-75313371D01*
X132553907Y-75313364D01*
X132371839Y-75237950D01*
X132371829Y-75237947D01*
X132178543Y-75199500D01*
X132178541Y-75199500D01*
X131981459Y-75199500D01*
X131981457Y-75199500D01*
X131788170Y-75237947D01*
X131788160Y-75237950D01*
X131606092Y-75313364D01*
X131606079Y-75313371D01*
X131442218Y-75422860D01*
X131442214Y-75422863D01*
X131302863Y-75562214D01*
X131302860Y-75562218D01*
X131193371Y-75726079D01*
X131193364Y-75726092D01*
X131117950Y-75908160D01*
X131117947Y-75908170D01*
X131079500Y-76101456D01*
X131079500Y-76101459D01*
X131079500Y-76298541D01*
X131079500Y-76298543D01*
X131079499Y-76298543D01*
X130540500Y-76298543D01*
X130540500Y-76101456D01*
X130502052Y-75908170D01*
X130502051Y-75908169D01*
X130502051Y-75908165D01*
X130491987Y-75883869D01*
X130426635Y-75726092D01*
X130426628Y-75726079D01*
X130317139Y-75562218D01*
X130317136Y-75562214D01*
X130177785Y-75422863D01*
X130177781Y-75422860D01*
X130013920Y-75313371D01*
X130013907Y-75313364D01*
X129831839Y-75237950D01*
X129831829Y-75237947D01*
X129638543Y-75199500D01*
X129638541Y-75199500D01*
X129441459Y-75199500D01*
X129441457Y-75199500D01*
X129248170Y-75237947D01*
X129248160Y-75237950D01*
X129066092Y-75313364D01*
X129066079Y-75313371D01*
X128902218Y-75422860D01*
X128902214Y-75422863D01*
X128762863Y-75562214D01*
X128762860Y-75562218D01*
X128653371Y-75726079D01*
X128653364Y-75726092D01*
X128577950Y-75908160D01*
X128577947Y-75908170D01*
X128539500Y-76101456D01*
X128539500Y-76101459D01*
X128539500Y-76298541D01*
X128539500Y-76298543D01*
X128539499Y-76298543D01*
X128000500Y-76298543D01*
X128000500Y-76101456D01*
X127962052Y-75908170D01*
X127962051Y-75908169D01*
X127962051Y-75908165D01*
X127951987Y-75883869D01*
X127886635Y-75726092D01*
X127886628Y-75726079D01*
X127777139Y-75562218D01*
X127777136Y-75562214D01*
X127637785Y-75422863D01*
X127637781Y-75422860D01*
X127473920Y-75313371D01*
X127473907Y-75313364D01*
X127291839Y-75237950D01*
X127291829Y-75237947D01*
X127098543Y-75199500D01*
X127098541Y-75199500D01*
X126901459Y-75199500D01*
X126901457Y-75199500D01*
X126708170Y-75237947D01*
X126708160Y-75237950D01*
X126526092Y-75313364D01*
X126526079Y-75313371D01*
X126362218Y-75422860D01*
X126362214Y-75422863D01*
X126222863Y-75562214D01*
X126222860Y-75562218D01*
X126113371Y-75726079D01*
X126113364Y-75726092D01*
X126037950Y-75908160D01*
X126037947Y-75908170D01*
X125999500Y-76101456D01*
X125999500Y-76101459D01*
X125999500Y-76298541D01*
X125999500Y-76298543D01*
X125999499Y-76298543D01*
X125460500Y-76298543D01*
X125460500Y-76101456D01*
X125422052Y-75908170D01*
X125422051Y-75908169D01*
X125422051Y-75908165D01*
X125411987Y-75883869D01*
X125346635Y-75726092D01*
X125346628Y-75726079D01*
X125237139Y-75562218D01*
X125237136Y-75562214D01*
X125097785Y-75422863D01*
X125097781Y-75422860D01*
X124933920Y-75313371D01*
X124933907Y-75313364D01*
X124751839Y-75237950D01*
X124751829Y-75237947D01*
X124558543Y-75199500D01*
X124558541Y-75199500D01*
X124361459Y-75199500D01*
X124361457Y-75199500D01*
X124168170Y-75237947D01*
X124168160Y-75237950D01*
X123986092Y-75313364D01*
X123986079Y-75313371D01*
X123822218Y-75422860D01*
X123822214Y-75422863D01*
X123682863Y-75562214D01*
X123682860Y-75562218D01*
X123573371Y-75726079D01*
X123573364Y-75726092D01*
X123497950Y-75908160D01*
X123497947Y-75908170D01*
X123459500Y-76101456D01*
X123459500Y-76101459D01*
X123459500Y-76298541D01*
X123459500Y-76298543D01*
X123459499Y-76298543D01*
X122920500Y-76298543D01*
X122920500Y-76101456D01*
X122882052Y-75908170D01*
X122882051Y-75908169D01*
X122882051Y-75908165D01*
X122871987Y-75883869D01*
X122806635Y-75726092D01*
X122806628Y-75726079D01*
X122697139Y-75562218D01*
X122697136Y-75562214D01*
X122557785Y-75422863D01*
X122557781Y-75422860D01*
X122393920Y-75313371D01*
X122393907Y-75313364D01*
X122211839Y-75237950D01*
X122211829Y-75237947D01*
X122018543Y-75199500D01*
X122018541Y-75199500D01*
X121821459Y-75199500D01*
X121821457Y-75199500D01*
X121628170Y-75237947D01*
X121628160Y-75237950D01*
X121446092Y-75313364D01*
X121446079Y-75313371D01*
X121282218Y-75422860D01*
X121282214Y-75422863D01*
X121142863Y-75562214D01*
X121142860Y-75562218D01*
X121033371Y-75726079D01*
X121033364Y-75726092D01*
X120957950Y-75908160D01*
X120957947Y-75908170D01*
X120919500Y-76101456D01*
X120919500Y-76101459D01*
X120919500Y-76298541D01*
X120919500Y-76298543D01*
X120919499Y-76298543D01*
X120380500Y-76298543D01*
X120380500Y-76101456D01*
X120342052Y-75908170D01*
X120342051Y-75908169D01*
X120342051Y-75908165D01*
X120331987Y-75883869D01*
X120266635Y-75726092D01*
X120266628Y-75726079D01*
X120157139Y-75562218D01*
X120157136Y-75562214D01*
X120017785Y-75422863D01*
X120017781Y-75422860D01*
X119853920Y-75313371D01*
X119853907Y-75313364D01*
X119671839Y-75237950D01*
X119671829Y-75237947D01*
X119478543Y-75199500D01*
X119478541Y-75199500D01*
X119281459Y-75199500D01*
X119281457Y-75199500D01*
X119088170Y-75237947D01*
X119088160Y-75237950D01*
X118906092Y-75313364D01*
X118906079Y-75313371D01*
X118742218Y-75422860D01*
X118742214Y-75422863D01*
X118602863Y-75562214D01*
X118602860Y-75562218D01*
X118493371Y-75726079D01*
X118493364Y-75726092D01*
X118417950Y-75908160D01*
X118417947Y-75908170D01*
X118379500Y-76101456D01*
X118379500Y-76101459D01*
X118379500Y-76298541D01*
X118379500Y-76298543D01*
X118379499Y-76298543D01*
X117840500Y-76298543D01*
X117840500Y-76101456D01*
X117802052Y-75908170D01*
X117802051Y-75908169D01*
X117802051Y-75908165D01*
X117791987Y-75883869D01*
X117726635Y-75726092D01*
X117726628Y-75726079D01*
X117617139Y-75562218D01*
X117617136Y-75562214D01*
X117477785Y-75422863D01*
X117477781Y-75422860D01*
X117313920Y-75313371D01*
X117313907Y-75313364D01*
X117131839Y-75237950D01*
X117131829Y-75237947D01*
X116938543Y-75199500D01*
X116938541Y-75199500D01*
X116741459Y-75199500D01*
X116741457Y-75199500D01*
X116548170Y-75237947D01*
X116548160Y-75237950D01*
X116366092Y-75313364D01*
X116366079Y-75313371D01*
X116202218Y-75422860D01*
X116202214Y-75422863D01*
X116062863Y-75562214D01*
X116062860Y-75562218D01*
X115953371Y-75726079D01*
X115953364Y-75726092D01*
X115877950Y-75908160D01*
X115877947Y-75908170D01*
X115839500Y-76101456D01*
X115839500Y-76101459D01*
X115839500Y-76298541D01*
X115839500Y-76298543D01*
X115839499Y-76298543D01*
X115300500Y-76298543D01*
X115300500Y-76101456D01*
X115262052Y-75908170D01*
X115262051Y-75908169D01*
X115262051Y-75908165D01*
X115251987Y-75883869D01*
X115186635Y-75726092D01*
X115186628Y-75726079D01*
X115077139Y-75562218D01*
X115077136Y-75562214D01*
X114937785Y-75422863D01*
X114937781Y-75422860D01*
X114773920Y-75313371D01*
X114773907Y-75313364D01*
X114591839Y-75237950D01*
X114591829Y-75237947D01*
X114398543Y-75199500D01*
X114398541Y-75199500D01*
X114201459Y-75199500D01*
X114201457Y-75199500D01*
X114008170Y-75237947D01*
X114008160Y-75237950D01*
X113826092Y-75313364D01*
X113826079Y-75313371D01*
X113662218Y-75422860D01*
X113662214Y-75422863D01*
X113522863Y-75562214D01*
X113522860Y-75562218D01*
X113413371Y-75726079D01*
X113413364Y-75726092D01*
X113337950Y-75908160D01*
X113337947Y-75908170D01*
X113299500Y-76101456D01*
X113299500Y-76101459D01*
X113299500Y-76298541D01*
X113299500Y-76298543D01*
X113299499Y-76298543D01*
X112760500Y-76298543D01*
X112760500Y-75335180D01*
X112760500Y-75335177D01*
X112751768Y-75291282D01*
X112751767Y-75291281D01*
X112751767Y-75291278D01*
X112718504Y-75241496D01*
X112713197Y-75237950D01*
X112668724Y-75208234D01*
X112668717Y-75208231D01*
X112624822Y-75199500D01*
X112624820Y-75199500D01*
X110895180Y-75199500D01*
X110895178Y-75199500D01*
X110851282Y-75208231D01*
X110851275Y-75208234D01*
X110801496Y-75241495D01*
X110801495Y-75241496D01*
X110768234Y-75291275D01*
X110768231Y-75291282D01*
X110759500Y-75335177D01*
X110759500Y-75335180D01*
X110759500Y-77064820D01*
X110759500Y-77064822D01*
X110759499Y-77064822D01*
X102100500Y-77064822D01*
X102100500Y-74284500D01*
X102120185Y-74217461D01*
X102172989Y-74171706D01*
X102224500Y-74160500D01*
X187335500Y-74160500D01*
X187402539Y-74180185D01*
G37*
%TD.AperFunction*%
%TD*%
M02*
