M48
; DRILL file {KiCad 9.0.3} date 2025-11-22T17:05:17-0500
; FORMAT={-:-/ absolute / metric / decimal}
; #@! TF.CreationDate,2025-11-22T17:05:17-05:00
; #@! TF.GenerationSoftware,Kicad,Pcbnew,9.0.3
; #@! TF.FileFunction,Plated,7,8,Blind
FMAT,2
METRIC
; #@! TA.AperFunction,Plated,Buried,ViaDrill
T1C0.200
%
G90
G05
T1
X118.95Y-105.66
X120.02Y-109.81
X121.49Y-109.8
X134.67Y-96.39
X136.14Y-96.39
X139.07Y-96.39
X142.33Y-98.14
X150.58Y-97.41
X150.58Y-98.87
X150.58Y-100.33
X150.58Y-101.79
X150.58Y-103.25
X154.41Y-93.62
X154.41Y-95.08
X156.4Y-97.41
X156.4Y-98.87
X156.4Y-100.33
X156.4Y-101.79
X156.4Y-103.25
X158.16Y-98.12
X158.16Y-99.58
X158.16Y-101.04
X158.16Y-102.5
X160.24Y-93.62
X160.24Y-95.08
X163.98Y-98.12
X163.98Y-99.58
X163.98Y-101.04
X163.98Y-102.5
X170.17Y-76.44
X170.17Y-77.92
M30
