M48
; DRILL file {KiCad 9.0.3} date 2025-11-22T18:35:34-0500
; FORMAT={-:-/ absolute / metric / decimal}
; #@! TF.CreationDate,2025-11-22T18:35:34-05:00
; #@! TF.GenerationSoftware,Kicad,Pcbnew,9.0.3
; #@! TF.FileFunction,Plated,1,4,Blind
FMAT,2
METRIC
; #@! TA.AperFunction,Plated,Buried,ViaDrill
T1C0.200
%
G90
G05
T1
X109.89Y-100.97
X110.5Y-106.05
X111.23Y-103.12
X111.73Y-90.94
X113.08Y-90.94
X114.88Y-90.45
X115.51Y-110.03
X115.54Y-105.14
X115.87Y-95.44
X116.26Y-99.68
X116.26Y-100.73
X116.97Y-110.03
X117.0Y-105.15
X118.66Y-99.82
X122.52Y-89.02
X122.7Y-106.83
X124.44Y-106.83
X151.5Y-98.4
X151.5Y-102.4
X155.5Y-98.4
X155.5Y-102.4
X165.08Y-82.16
X166.44Y-82.15
X173.92Y-82.15
M30
