%TF.GenerationSoftware,KiCad,Pcbnew,9.0.3*%
%TF.CreationDate,2025-11-22T17:05:10-05:00*%
%TF.ProjectId,SeedSBC_rev2_0,53656564-5342-4435-9f72-6576325f302e,rev?*%
%TF.SameCoordinates,Original*%
%TF.FileFunction,Copper,L5,Inr*%
%TF.FilePolarity,Positive*%
%FSLAX46Y46*%
G04 Gerber Fmt 4.6, Leading zero omitted, Abs format (unit mm)*
G04 Created by KiCad (PCBNEW 9.0.3) date 2025-11-22 17:05:10*
%MOMM*%
%LPD*%
G01*
G04 APERTURE LIST*
G04 Aperture macros list*
%AMRoundRect*
0 Rectangle with rounded corners*
0 $1 Rounding radius*
0 $2 $3 $4 $5 $6 $7 $8 $9 X,Y pos of 4 corners*
0 Add a 4 corners polygon primitive as box body*
4,1,4,$2,$3,$4,$5,$6,$7,$8,$9,$2,$3,0*
0 Add four circle primitives for the rounded corners*
1,1,$1+$1,$2,$3*
1,1,$1+$1,$4,$5*
1,1,$1+$1,$6,$7*
1,1,$1+$1,$8,$9*
0 Add four rect primitives between the rounded corners*
20,1,$1+$1,$2,$3,$4,$5,0*
20,1,$1+$1,$4,$5,$6,$7,0*
20,1,$1+$1,$6,$7,$8,$9,0*
20,1,$1+$1,$8,$9,$2,$3,0*%
G04 Aperture macros list end*
%TA.AperFunction,ComponentPad*%
%ADD10C,0.700000*%
%TD*%
%TA.AperFunction,ComponentPad*%
%ADD11C,4.400000*%
%TD*%
%TA.AperFunction,HeatsinkPad*%
%ADD12O,2.100000X1.000000*%
%TD*%
%TA.AperFunction,HeatsinkPad*%
%ADD13O,1.800000X1.000000*%
%TD*%
%TA.AperFunction,HeatsinkPad*%
%ADD14O,1.000000X2.100000*%
%TD*%
%TA.AperFunction,HeatsinkPad*%
%ADD15O,1.000000X1.800000*%
%TD*%
%TA.AperFunction,ComponentPad*%
%ADD16R,1.700000X1.700000*%
%TD*%
%TA.AperFunction,ComponentPad*%
%ADD17C,1.700000*%
%TD*%
%TA.AperFunction,ComponentPad*%
%ADD18RoundRect,0.250000X-0.625000X0.350000X-0.625000X-0.350000X0.625000X-0.350000X0.625000X0.350000X0*%
%TD*%
%TA.AperFunction,ComponentPad*%
%ADD19O,1.750000X1.200000*%
%TD*%
%TA.AperFunction,HeatsinkPad*%
%ADD20C,0.500000*%
%TD*%
%TA.AperFunction,ViaPad*%
%ADD21C,0.400000*%
%TD*%
%TA.AperFunction,ViaPad*%
%ADD22C,0.600000*%
%TD*%
G04 APERTURE END LIST*
D10*
%TO.N,GND*%
%TO.C,H1*%
X103760000Y-77470000D03*
X104243274Y-76303274D03*
X104243274Y-78636726D03*
X105410000Y-75820000D03*
D11*
X105410000Y-77470000D03*
D10*
X105410000Y-79120000D03*
X106576726Y-76303274D03*
X106576726Y-78636726D03*
X107060000Y-77470000D03*
%TD*%
D12*
%TO.N,Net-(J6-SHIELD)*%
%TO.C,J6*%
X108320000Y-82296000D03*
D13*
X104140000Y-82296000D03*
D12*
X108320000Y-90936000D03*
D13*
X104140000Y-90936000D03*
%TD*%
D10*
%TO.N,GND*%
%TO.C,H2*%
X182500000Y-77470000D03*
X182983274Y-76303274D03*
X182983274Y-78636726D03*
X184150000Y-75820000D03*
D11*
X184150000Y-77470000D03*
D10*
X184150000Y-79120000D03*
X185316726Y-76303274D03*
X185316726Y-78636726D03*
X185800000Y-77470000D03*
%TD*%
D14*
%TO.N,GND*%
%TO.C,J7*%
X174500000Y-80445000D03*
D15*
X174500000Y-76265000D03*
D14*
X165860000Y-80445000D03*
D15*
X165860000Y-76265000D03*
%TD*%
D10*
%TO.N,GND*%
%TO.C,H3*%
X182500000Y-123190000D03*
X182983274Y-122023274D03*
X182983274Y-124356726D03*
X184150000Y-121540000D03*
D11*
X184150000Y-123190000D03*
D10*
X184150000Y-124840000D03*
X185316726Y-122023274D03*
X185316726Y-124356726D03*
X185800000Y-123190000D03*
%TD*%
D16*
%TO.N,USB_VBUS*%
%TO.C,J1*%
X111760000Y-76200000D03*
D17*
%TO.N,EN*%
X114300000Y-76200000D03*
%TO.N,USB_VBUS2*%
X116840000Y-76200000D03*
%TO.N,/FPGA + SRAM/IO_T8*%
X119380000Y-76200000D03*
%TO.N,/FPGA + SRAM/IO_T7*%
X121920000Y-76200000D03*
%TO.N,/FPGA + SRAM/IO_T6*%
X124460000Y-76200000D03*
%TO.N,/FPGA + SRAM/IO_T5*%
X127000000Y-76200000D03*
%TO.N,/FPGA + SRAM/IO_T4*%
X129540000Y-76200000D03*
%TO.N,/FPGA + SRAM/IO_T3*%
X132080000Y-76200000D03*
%TO.N,/FPGA + SRAM/IO_T2*%
X134620000Y-76200000D03*
%TO.N,/FPGA + SRAM/IO_T1*%
X137160000Y-76200000D03*
%TO.N,GND*%
X139700000Y-76200000D03*
%TD*%
D10*
%TO.N,GND*%
%TO.C,H4*%
X103760000Y-123190000D03*
X104243274Y-122023274D03*
X104243274Y-124356726D03*
X105410000Y-121540000D03*
D11*
X105410000Y-123190000D03*
D10*
X105410000Y-124840000D03*
X106576726Y-122023274D03*
X106576726Y-124356726D03*
X107060000Y-123190000D03*
%TD*%
D16*
%TO.N,/FPGA + SRAM/FPGA/SPI_CNFG_CS*%
%TO.C,J4*%
X149860000Y-124460000D03*
D17*
%TO.N,/FPGA + SRAM/FPGA/SPI_CNFG_DO*%
X152400000Y-124460000D03*
%TO.N,/FPGA + SRAM/FPGA/SPI_CNFG_DI*%
X154940000Y-124460000D03*
%TO.N,/FPGA + SRAM/FPGA/SPI_CNFG_SCK*%
X157480000Y-124460000D03*
%TO.N,P3V3*%
X160020000Y-124460000D03*
%TO.N,GND*%
X162560000Y-124460000D03*
%TD*%
D18*
%TO.N,V_BAT*%
%TO.C,J3*%
X105390000Y-99250000D03*
D19*
%TO.N,GND*%
X105390000Y-101250000D03*
%TD*%
D20*
%TO.N,GND*%
%TO.C,U9*%
X112080000Y-99670000D03*
X112080000Y-100850000D03*
X113260000Y-99670000D03*
X113260000Y-100850000D03*
%TD*%
D16*
%TO.N,V_BAT*%
%TO.C,J8*%
X111760000Y-124460000D03*
D17*
%TO.N,P3V3*%
X114300000Y-124460000D03*
%TO.N,GND*%
X116840000Y-124460000D03*
%TO.N,/FPGA + SRAM/IO_B10*%
X119380000Y-124460000D03*
%TO.N,/FPGA + SRAM/IO_B9*%
X121920000Y-124460000D03*
%TO.N,/FPGA + SRAM/IO_B8*%
X124460000Y-124460000D03*
%TO.N,/FPGA + SRAM/IO_B7*%
X127000000Y-124460000D03*
%TO.N,/FPGA + SRAM/IO_B6*%
X129540000Y-124460000D03*
%TO.N,/FPGA + SRAM/IO_B5*%
X132080000Y-124460000D03*
%TO.N,/FPGA + SRAM/IO_B4*%
X134620000Y-124460000D03*
%TO.N,/FPGA + SRAM/IO_B3*%
X137160000Y-124460000D03*
%TO.N,/FPGA + SRAM/IO_B2*%
X139700000Y-124460000D03*
%TO.N,/FPGA + SRAM/IO_B1*%
X142240000Y-124460000D03*
%TO.N,GND*%
X144780000Y-124460000D03*
%TD*%
D21*
%TO.N,P3V3*%
X151500000Y-99200000D03*
X181300000Y-88140000D03*
X160370000Y-110810000D03*
X151890000Y-91930000D03*
X155720000Y-81630000D03*
X169310000Y-87340000D03*
X132990000Y-94200000D03*
X151500000Y-101600000D03*
X142880000Y-114190000D03*
X159050000Y-81850000D03*
X142880000Y-113170000D03*
X153900000Y-98400000D03*
X168620000Y-86690000D03*
X141220000Y-104170000D03*
X148480000Y-84570000D03*
X182490000Y-119640000D03*
X185810000Y-119640000D03*
X121210000Y-104150000D03*
X143046476Y-99542694D03*
X123260000Y-99470000D03*
X158100000Y-104400000D03*
X157560000Y-110710000D03*
X143990000Y-102580000D03*
X134460000Y-94200000D03*
X145970000Y-117310000D03*
X157120000Y-111220000D03*
X153900000Y-102400000D03*
X135730000Y-104170000D03*
X145080000Y-105890000D03*
X135790000Y-90340000D03*
X135790000Y-88880000D03*
X138720000Y-95270000D03*
X122570000Y-96820000D03*
X155500000Y-100000000D03*
X159040000Y-84830000D03*
X141220000Y-96490000D03*
X138220000Y-95270000D03*
X121580000Y-115720000D03*
X121560000Y-105560000D03*
X162310000Y-97570000D03*
X137610000Y-96390000D03*
X162355521Y-103054479D03*
X182910000Y-91440000D03*
X159829479Y-103030521D03*
X159425000Y-97175000D03*
X117130000Y-111010000D03*
D22*
%TO.N,GND*%
X132080000Y-96520000D03*
X111760000Y-96520000D03*
X137160000Y-119380000D03*
D21*
X134084395Y-102580000D03*
D22*
X147320000Y-119380000D03*
X116840000Y-119380000D03*
X182880000Y-96520000D03*
X162535248Y-88854186D03*
X127000000Y-111760000D03*
X127000000Y-88900000D03*
X132080000Y-104140000D03*
X132080000Y-119380000D03*
X162560000Y-119380000D03*
X111760000Y-88900000D03*
X116840000Y-81280000D03*
X172720000Y-111760000D03*
X137160000Y-111760000D03*
X177800000Y-104140000D03*
X167640000Y-119380000D03*
X127000000Y-81280000D03*
X121920000Y-81280000D03*
X162560000Y-81280000D03*
X121920000Y-119380000D03*
X162560000Y-111760000D03*
X177800000Y-111760000D03*
X172720000Y-119380000D03*
X111760000Y-81280000D03*
X111760000Y-111760000D03*
X182880000Y-104140000D03*
X111760000Y-119380000D03*
X132080000Y-111760000D03*
X142194186Y-81295008D03*
X127000000Y-104140000D03*
X127000000Y-119380000D03*
X132080000Y-81280000D03*
X167640000Y-111760000D03*
X177800000Y-88900000D03*
X177800000Y-119380000D03*
X132080000Y-88900000D03*
X177800000Y-96520000D03*
X177800000Y-81280000D03*
X147320000Y-81280000D03*
D21*
%TO.N,P1V2*%
X152780000Y-96730000D03*
X182910000Y-97540000D03*
X154200000Y-96730000D03*
X154850000Y-101790000D03*
X152130000Y-101790000D03*
%TO.N,P2V5*%
X124018497Y-111545078D03*
X157100000Y-96800000D03*
%TO.N,USB_VBUS2*%
X167260000Y-78650000D03*
X167260000Y-75710000D03*
X173080000Y-75710000D03*
X167260000Y-77180000D03*
X173080000Y-78650000D03*
X182910000Y-88390000D03*
X173080000Y-77180000D03*
%TO.N,/USB/1.8V*%
X141720000Y-95280000D03*
%TO.N,Net-(U8-VPHY)*%
X134110000Y-98080000D03*
%TO.N,Net-(U8-VPLL)*%
X134050000Y-100590000D03*
%TO.N,/FPGA + SRAM/SD_CLK*%
X149900000Y-102400000D03*
%TO.N,/FPGA + SRAM/SD_DAT0*%
X120530000Y-107700000D03*
%TO.N,/FPGA + SRAM/SD_DAT3*%
X150700000Y-102400000D03*
%TO.N,/SD MMC/SD_CMD*%
X120540000Y-112120000D03*
%TO.N,/FPGA + SRAM/SD_DAT2*%
X120540000Y-115040000D03*
%TO.N,/FPGA + SRAM/SD_DAT1*%
X149100000Y-102400000D03*
%TO.N,/FPGA + SRAM/FPGA/SPI_CNFG_DO*%
X150970000Y-113020000D03*
X134670133Y-105392219D03*
%TO.N,/FPGA + SRAM/FPGA/SPI_CNFG_DI*%
X134120137Y-105389567D03*
X154490000Y-117390000D03*
%TO.N,/FPGA + SRAM/FPGA/SPI_CNFG_SCK*%
X157840000Y-121610000D03*
X133520000Y-104410000D03*
%TO.N,/FPGA + SRAM/IO_T3*%
X150399479Y-92600521D03*
X150700000Y-98400000D03*
%TO.N,/FPGA + SRAM/IO_T1*%
X152300000Y-98400000D03*
X150400000Y-91400000D03*
%TO.N,/FPGA + SRAM/SPI_CNFG_CS_B*%
X156950000Y-118150000D03*
X135220135Y-105391775D03*
%TO.N,Net-(U8-REF)*%
X134300000Y-99610000D03*
%TO.N,Net-(U8-~{RESET})*%
X134070000Y-103130000D03*
%TO.N,/FPGA + SRAM/LED_B*%
X151500000Y-103200000D03*
X182690000Y-112650000D03*
%TO.N,/FPGA + SRAM/LED_G*%
X185620000Y-112650000D03*
X153900000Y-104800000D03*
%TO.N,/FPGA + SRAM/LED_R*%
X184150000Y-112640000D03*
X152300000Y-103200000D03*
%TO.N,/FPGA + SRAM/FPGA/SRAM_WE_B*%
X155500000Y-99200000D03*
X166100030Y-106300000D03*
%TO.N,/FPGA + SRAM/FPGA/A8*%
X164450000Y-106000000D03*
X155500000Y-101600000D03*
%TO.N,/FPGA + SRAM/FPGA/A14*%
X161150000Y-106600000D03*
X153100000Y-104000000D03*
%TO.N,/FPGA + SRAM/FPGA/SRAM_UB_B*%
X154700000Y-98400000D03*
X167750000Y-106600000D03*
%TO.N,/FPGA + SRAM/FPGA/A18*%
X155500000Y-97600000D03*
X168858487Y-106407428D03*
%TO.N,/FPGA + SRAM/FIFO5*%
X151500000Y-100000000D03*
X146603960Y-99575001D03*
%TO.N,/FPGA + SRAM/FPGA/A12*%
X162250000Y-106400000D03*
X154700000Y-103200000D03*
%TO.N,/FPGA + SRAM/FPGA/A10*%
X163350000Y-106200000D03*
X154700000Y-102400000D03*
%TD*%
%TA.AperFunction,Conductor*%
%TO.N,P3V3*%
G36*
X187402539Y-74180185D02*
G01*
X187448294Y-74232989D01*
X187459500Y-74284500D01*
X187459500Y-126375500D01*
X187439815Y-126442539D01*
X187387011Y-126488294D01*
X187335500Y-126499500D01*
X102224500Y-126499500D01*
X102157461Y-126479815D01*
X102111706Y-126427011D01*
X102100500Y-126375500D01*
X102100500Y-123052378D01*
X102959500Y-123052378D01*
X102959500Y-123327621D01*
X102990315Y-123601108D01*
X102990317Y-123601124D01*
X103051561Y-123869453D01*
X103051565Y-123869465D01*
X103142467Y-124129246D01*
X103261884Y-124377218D01*
X103261886Y-124377221D01*
X103408319Y-124610268D01*
X103579925Y-124825455D01*
X103774545Y-125020075D01*
X103989732Y-125191681D01*
X104222779Y-125338114D01*
X104470757Y-125457534D01*
X104665865Y-125525805D01*
X104730534Y-125548434D01*
X104730546Y-125548438D01*
X104998879Y-125609683D01*
X105272378Y-125640499D01*
X105272379Y-125640500D01*
X105272383Y-125640500D01*
X105547621Y-125640500D01*
X105547621Y-125640499D01*
X105821121Y-125609683D01*
X106089454Y-125548438D01*
X106349243Y-125457534D01*
X106597221Y-125338114D01*
X106830268Y-125191681D01*
X107045455Y-125020075D01*
X107240075Y-124825455D01*
X107411681Y-124610268D01*
X107558114Y-124377221D01*
X107677534Y-124129243D01*
X107768438Y-123869454D01*
X107829683Y-123601121D01*
X107831462Y-123585321D01*
X110659500Y-123585321D01*
X110659500Y-125334678D01*
X110674032Y-125407735D01*
X110674033Y-125407739D01*
X110692405Y-125435235D01*
X110729399Y-125490601D01*
X110812260Y-125545966D01*
X110812264Y-125545967D01*
X110885321Y-125560499D01*
X110885324Y-125560500D01*
X110885326Y-125560500D01*
X112634676Y-125560500D01*
X112634677Y-125560499D01*
X112707740Y-125545966D01*
X112790601Y-125490601D01*
X112845966Y-125407740D01*
X112860500Y-125334674D01*
X112860500Y-125124949D01*
X112880185Y-125057910D01*
X112932989Y-125012155D01*
X113002147Y-125002211D01*
X113065703Y-125031236D01*
X113094985Y-125068654D01*
X113145375Y-125167550D01*
X113184728Y-125221716D01*
X113817037Y-124589408D01*
X113834075Y-124652993D01*
X113899901Y-124767007D01*
X113992993Y-124860099D01*
X114107007Y-124925925D01*
X114170590Y-124942962D01*
X113538282Y-125575269D01*
X113538282Y-125575270D01*
X113592449Y-125614624D01*
X113781782Y-125711095D01*
X113983870Y-125776757D01*
X114193754Y-125810000D01*
X114406246Y-125810000D01*
X114616127Y-125776757D01*
X114616130Y-125776757D01*
X114818217Y-125711095D01*
X115007554Y-125614622D01*
X115061716Y-125575270D01*
X115061717Y-125575270D01*
X114429408Y-124942962D01*
X114492993Y-124925925D01*
X114607007Y-124860099D01*
X114700099Y-124767007D01*
X114765925Y-124652993D01*
X114782962Y-124589408D01*
X115415270Y-125221717D01*
X115415270Y-125221716D01*
X115454622Y-125167554D01*
X115551096Y-124978215D01*
X115583239Y-124879288D01*
X115622676Y-124821612D01*
X115687034Y-124794413D01*
X115755880Y-124806327D01*
X115807357Y-124853571D01*
X115819100Y-124879284D01*
X115820127Y-124882446D01*
X115842281Y-124925925D01*
X115898768Y-125036788D01*
X116000586Y-125176928D01*
X116123072Y-125299414D01*
X116263212Y-125401232D01*
X116417555Y-125479873D01*
X116582299Y-125533402D01*
X116753389Y-125560500D01*
X116753390Y-125560500D01*
X116926610Y-125560500D01*
X116926611Y-125560500D01*
X117097701Y-125533402D01*
X117262445Y-125479873D01*
X117416788Y-125401232D01*
X117556928Y-125299414D01*
X117679414Y-125176928D01*
X117781232Y-125036788D01*
X117859873Y-124882445D01*
X117913402Y-124717701D01*
X117940500Y-124546611D01*
X117940500Y-124373389D01*
X118279500Y-124373389D01*
X118279500Y-124546611D01*
X118306598Y-124717701D01*
X118360127Y-124882445D01*
X118438768Y-125036788D01*
X118540586Y-125176928D01*
X118663072Y-125299414D01*
X118803212Y-125401232D01*
X118957555Y-125479873D01*
X119122299Y-125533402D01*
X119293389Y-125560500D01*
X119293390Y-125560500D01*
X119466610Y-125560500D01*
X119466611Y-125560500D01*
X119637701Y-125533402D01*
X119802445Y-125479873D01*
X119956788Y-125401232D01*
X120096928Y-125299414D01*
X120219414Y-125176928D01*
X120321232Y-125036788D01*
X120399873Y-124882445D01*
X120453402Y-124717701D01*
X120480500Y-124546611D01*
X120480500Y-124373389D01*
X120819500Y-124373389D01*
X120819500Y-124546611D01*
X120846598Y-124717701D01*
X120900127Y-124882445D01*
X120978768Y-125036788D01*
X121080586Y-125176928D01*
X121203072Y-125299414D01*
X121343212Y-125401232D01*
X121497555Y-125479873D01*
X121662299Y-125533402D01*
X121833389Y-125560500D01*
X121833390Y-125560500D01*
X122006610Y-125560500D01*
X122006611Y-125560500D01*
X122177701Y-125533402D01*
X122342445Y-125479873D01*
X122496788Y-125401232D01*
X122636928Y-125299414D01*
X122759414Y-125176928D01*
X122861232Y-125036788D01*
X122939873Y-124882445D01*
X122993402Y-124717701D01*
X123020500Y-124546611D01*
X123020500Y-124373389D01*
X123359500Y-124373389D01*
X123359500Y-124546611D01*
X123386598Y-124717701D01*
X123440127Y-124882445D01*
X123518768Y-125036788D01*
X123620586Y-125176928D01*
X123743072Y-125299414D01*
X123883212Y-125401232D01*
X124037555Y-125479873D01*
X124202299Y-125533402D01*
X124373389Y-125560500D01*
X124373390Y-125560500D01*
X124546610Y-125560500D01*
X124546611Y-125560500D01*
X124717701Y-125533402D01*
X124882445Y-125479873D01*
X125036788Y-125401232D01*
X125176928Y-125299414D01*
X125299414Y-125176928D01*
X125401232Y-125036788D01*
X125479873Y-124882445D01*
X125533402Y-124717701D01*
X125560500Y-124546611D01*
X125560500Y-124373389D01*
X125899500Y-124373389D01*
X125899500Y-124546611D01*
X125926598Y-124717701D01*
X125980127Y-124882445D01*
X126058768Y-125036788D01*
X126160586Y-125176928D01*
X126283072Y-125299414D01*
X126423212Y-125401232D01*
X126577555Y-125479873D01*
X126742299Y-125533402D01*
X126913389Y-125560500D01*
X126913390Y-125560500D01*
X127086610Y-125560500D01*
X127086611Y-125560500D01*
X127257701Y-125533402D01*
X127422445Y-125479873D01*
X127576788Y-125401232D01*
X127716928Y-125299414D01*
X127839414Y-125176928D01*
X127941232Y-125036788D01*
X128019873Y-124882445D01*
X128073402Y-124717701D01*
X128100500Y-124546611D01*
X128100500Y-124373389D01*
X128439500Y-124373389D01*
X128439500Y-124546611D01*
X128466598Y-124717701D01*
X128520127Y-124882445D01*
X128598768Y-125036788D01*
X128700586Y-125176928D01*
X128823072Y-125299414D01*
X128963212Y-125401232D01*
X129117555Y-125479873D01*
X129282299Y-125533402D01*
X129453389Y-125560500D01*
X129453390Y-125560500D01*
X129626610Y-125560500D01*
X129626611Y-125560500D01*
X129797701Y-125533402D01*
X129962445Y-125479873D01*
X130116788Y-125401232D01*
X130256928Y-125299414D01*
X130379414Y-125176928D01*
X130481232Y-125036788D01*
X130559873Y-124882445D01*
X130613402Y-124717701D01*
X130640500Y-124546611D01*
X130640500Y-124373389D01*
X130979500Y-124373389D01*
X130979500Y-124546611D01*
X131006598Y-124717701D01*
X131060127Y-124882445D01*
X131138768Y-125036788D01*
X131240586Y-125176928D01*
X131363072Y-125299414D01*
X131503212Y-125401232D01*
X131657555Y-125479873D01*
X131822299Y-125533402D01*
X131993389Y-125560500D01*
X131993390Y-125560500D01*
X132166610Y-125560500D01*
X132166611Y-125560500D01*
X132337701Y-125533402D01*
X132502445Y-125479873D01*
X132656788Y-125401232D01*
X132796928Y-125299414D01*
X132919414Y-125176928D01*
X133021232Y-125036788D01*
X133099873Y-124882445D01*
X133153402Y-124717701D01*
X133180500Y-124546611D01*
X133180500Y-124373389D01*
X133519500Y-124373389D01*
X133519500Y-124546611D01*
X133546598Y-124717701D01*
X133600127Y-124882445D01*
X133678768Y-125036788D01*
X133780586Y-125176928D01*
X133903072Y-125299414D01*
X134043212Y-125401232D01*
X134197555Y-125479873D01*
X134362299Y-125533402D01*
X134533389Y-125560500D01*
X134533390Y-125560500D01*
X134706610Y-125560500D01*
X134706611Y-125560500D01*
X134877701Y-125533402D01*
X135042445Y-125479873D01*
X135196788Y-125401232D01*
X135336928Y-125299414D01*
X135459414Y-125176928D01*
X135561232Y-125036788D01*
X135639873Y-124882445D01*
X135693402Y-124717701D01*
X135720500Y-124546611D01*
X135720500Y-124373389D01*
X136059500Y-124373389D01*
X136059500Y-124546611D01*
X136086598Y-124717701D01*
X136140127Y-124882445D01*
X136218768Y-125036788D01*
X136320586Y-125176928D01*
X136443072Y-125299414D01*
X136583212Y-125401232D01*
X136737555Y-125479873D01*
X136902299Y-125533402D01*
X137073389Y-125560500D01*
X137073390Y-125560500D01*
X137246610Y-125560500D01*
X137246611Y-125560500D01*
X137417701Y-125533402D01*
X137582445Y-125479873D01*
X137736788Y-125401232D01*
X137876928Y-125299414D01*
X137999414Y-125176928D01*
X138101232Y-125036788D01*
X138179873Y-124882445D01*
X138233402Y-124717701D01*
X138260500Y-124546611D01*
X138260500Y-124373389D01*
X138599500Y-124373389D01*
X138599500Y-124546611D01*
X138626598Y-124717701D01*
X138680127Y-124882445D01*
X138758768Y-125036788D01*
X138860586Y-125176928D01*
X138983072Y-125299414D01*
X139123212Y-125401232D01*
X139277555Y-125479873D01*
X139442299Y-125533402D01*
X139613389Y-125560500D01*
X139613390Y-125560500D01*
X139786610Y-125560500D01*
X139786611Y-125560500D01*
X139957701Y-125533402D01*
X140122445Y-125479873D01*
X140276788Y-125401232D01*
X140416928Y-125299414D01*
X140539414Y-125176928D01*
X140641232Y-125036788D01*
X140719873Y-124882445D01*
X140773402Y-124717701D01*
X140800500Y-124546611D01*
X140800500Y-124373389D01*
X141139500Y-124373389D01*
X141139500Y-124546611D01*
X141166598Y-124717701D01*
X141220127Y-124882445D01*
X141298768Y-125036788D01*
X141400586Y-125176928D01*
X141523072Y-125299414D01*
X141663212Y-125401232D01*
X141817555Y-125479873D01*
X141982299Y-125533402D01*
X142153389Y-125560500D01*
X142153390Y-125560500D01*
X142326610Y-125560500D01*
X142326611Y-125560500D01*
X142497701Y-125533402D01*
X142662445Y-125479873D01*
X142816788Y-125401232D01*
X142956928Y-125299414D01*
X143079414Y-125176928D01*
X143181232Y-125036788D01*
X143259873Y-124882445D01*
X143313402Y-124717701D01*
X143340500Y-124546611D01*
X143340500Y-124373389D01*
X143679500Y-124373389D01*
X143679500Y-124546611D01*
X143706598Y-124717701D01*
X143760127Y-124882445D01*
X143838768Y-125036788D01*
X143940586Y-125176928D01*
X144063072Y-125299414D01*
X144203212Y-125401232D01*
X144357555Y-125479873D01*
X144522299Y-125533402D01*
X144693389Y-125560500D01*
X144693390Y-125560500D01*
X144866610Y-125560500D01*
X144866611Y-125560500D01*
X145037701Y-125533402D01*
X145202445Y-125479873D01*
X145356788Y-125401232D01*
X145496928Y-125299414D01*
X145619414Y-125176928D01*
X145721232Y-125036788D01*
X145799873Y-124882445D01*
X145853402Y-124717701D01*
X145880500Y-124546611D01*
X145880500Y-124373389D01*
X145853402Y-124202299D01*
X145799873Y-124037555D01*
X145721232Y-123883212D01*
X145619414Y-123743072D01*
X145496928Y-123620586D01*
X145448390Y-123585321D01*
X148759500Y-123585321D01*
X148759500Y-125334678D01*
X148774032Y-125407735D01*
X148774033Y-125407739D01*
X148792405Y-125435235D01*
X148829399Y-125490601D01*
X148912260Y-125545966D01*
X148912264Y-125545967D01*
X148985321Y-125560499D01*
X148985324Y-125560500D01*
X148985326Y-125560500D01*
X150734676Y-125560500D01*
X150734677Y-125560499D01*
X150807740Y-125545966D01*
X150890601Y-125490601D01*
X150945966Y-125407740D01*
X150960500Y-125334674D01*
X150960500Y-124373389D01*
X151299500Y-124373389D01*
X151299500Y-124546611D01*
X151326598Y-124717701D01*
X151380127Y-124882445D01*
X151458768Y-125036788D01*
X151560586Y-125176928D01*
X151683072Y-125299414D01*
X151823212Y-125401232D01*
X151977555Y-125479873D01*
X152142299Y-125533402D01*
X152313389Y-125560500D01*
X152313390Y-125560500D01*
X152486610Y-125560500D01*
X152486611Y-125560500D01*
X152657701Y-125533402D01*
X152822445Y-125479873D01*
X152976788Y-125401232D01*
X153116928Y-125299414D01*
X153239414Y-125176928D01*
X153341232Y-125036788D01*
X153419873Y-124882445D01*
X153473402Y-124717701D01*
X153500500Y-124546611D01*
X153500500Y-124373389D01*
X153839500Y-124373389D01*
X153839500Y-124546611D01*
X153866598Y-124717701D01*
X153920127Y-124882445D01*
X153998768Y-125036788D01*
X154100586Y-125176928D01*
X154223072Y-125299414D01*
X154363212Y-125401232D01*
X154517555Y-125479873D01*
X154682299Y-125533402D01*
X154853389Y-125560500D01*
X154853390Y-125560500D01*
X155026610Y-125560500D01*
X155026611Y-125560500D01*
X155197701Y-125533402D01*
X155362445Y-125479873D01*
X155516788Y-125401232D01*
X155656928Y-125299414D01*
X155779414Y-125176928D01*
X155881232Y-125036788D01*
X155959873Y-124882445D01*
X156013402Y-124717701D01*
X156040500Y-124546611D01*
X156040500Y-124373389D01*
X156379500Y-124373389D01*
X156379500Y-124546611D01*
X156406598Y-124717701D01*
X156460127Y-124882445D01*
X156538768Y-125036788D01*
X156640586Y-125176928D01*
X156763072Y-125299414D01*
X156903212Y-125401232D01*
X157057555Y-125479873D01*
X157222299Y-125533402D01*
X157393389Y-125560500D01*
X157393390Y-125560500D01*
X157566610Y-125560500D01*
X157566611Y-125560500D01*
X157737701Y-125533402D01*
X157902445Y-125479873D01*
X158056788Y-125401232D01*
X158196928Y-125299414D01*
X158319414Y-125176928D01*
X158421232Y-125036788D01*
X158499873Y-124882445D01*
X158500896Y-124879294D01*
X158501610Y-124878250D01*
X158501734Y-124877952D01*
X158501796Y-124877977D01*
X158540327Y-124821618D01*
X158604683Y-124794415D01*
X158673530Y-124806323D01*
X158725011Y-124853562D01*
X158736760Y-124879287D01*
X158768904Y-124978217D01*
X158865375Y-125167550D01*
X158904728Y-125221716D01*
X159537037Y-124589408D01*
X159554075Y-124652993D01*
X159619901Y-124767007D01*
X159712993Y-124860099D01*
X159827007Y-124925925D01*
X159890590Y-124942962D01*
X159258282Y-125575269D01*
X159258282Y-125575270D01*
X159312449Y-125614624D01*
X159501782Y-125711095D01*
X159703870Y-125776757D01*
X159913754Y-125810000D01*
X160126246Y-125810000D01*
X160336127Y-125776757D01*
X160336130Y-125776757D01*
X160538217Y-125711095D01*
X160727554Y-125614622D01*
X160781716Y-125575270D01*
X160781717Y-125575270D01*
X160149408Y-124942962D01*
X160212993Y-124925925D01*
X160327007Y-124860099D01*
X160420099Y-124767007D01*
X160485925Y-124652993D01*
X160502962Y-124589408D01*
X161135270Y-125221717D01*
X161135270Y-125221716D01*
X161174622Y-125167554D01*
X161271096Y-124978215D01*
X161303239Y-124879288D01*
X161342676Y-124821612D01*
X161407034Y-124794413D01*
X161475880Y-124806327D01*
X161527357Y-124853571D01*
X161539100Y-124879284D01*
X161540127Y-124882446D01*
X161562281Y-124925925D01*
X161618768Y-125036788D01*
X161720586Y-125176928D01*
X161843072Y-125299414D01*
X161983212Y-125401232D01*
X162137555Y-125479873D01*
X162302299Y-125533402D01*
X162473389Y-125560500D01*
X162473390Y-125560500D01*
X162646610Y-125560500D01*
X162646611Y-125560500D01*
X162817701Y-125533402D01*
X162982445Y-125479873D01*
X163136788Y-125401232D01*
X163276928Y-125299414D01*
X163399414Y-125176928D01*
X163501232Y-125036788D01*
X163579873Y-124882445D01*
X163633402Y-124717701D01*
X163660500Y-124546611D01*
X163660500Y-124373389D01*
X163633402Y-124202299D01*
X163579873Y-124037555D01*
X163501232Y-123883212D01*
X163399414Y-123743072D01*
X163276928Y-123620586D01*
X163136788Y-123518768D01*
X162982445Y-123440127D01*
X162817701Y-123386598D01*
X162817699Y-123386597D01*
X162817698Y-123386597D01*
X162686271Y-123365781D01*
X162646611Y-123359500D01*
X162473389Y-123359500D01*
X162433728Y-123365781D01*
X162302302Y-123386597D01*
X162137552Y-123440128D01*
X161983211Y-123518768D01*
X161903256Y-123576859D01*
X161843072Y-123620586D01*
X161843070Y-123620588D01*
X161843069Y-123620588D01*
X161720588Y-123743069D01*
X161720588Y-123743070D01*
X161720586Y-123743072D01*
X161682822Y-123795050D01*
X161618768Y-123883211D01*
X161540128Y-124037550D01*
X161539487Y-124039522D01*
X161539102Y-124040712D01*
X161539099Y-124040720D01*
X161538381Y-124041769D01*
X161538266Y-124042048D01*
X161538207Y-124042023D01*
X161499657Y-124098393D01*
X161435297Y-124125587D01*
X161366451Y-124113668D01*
X161314979Y-124066420D01*
X161303239Y-124040711D01*
X161271096Y-123941784D01*
X161174624Y-123752449D01*
X161135270Y-123698282D01*
X161135269Y-123698282D01*
X160502962Y-124330590D01*
X160485925Y-124267007D01*
X160420099Y-124152993D01*
X160327007Y-124059901D01*
X160212993Y-123994075D01*
X160149409Y-123977037D01*
X160781716Y-123344728D01*
X160727550Y-123305375D01*
X160538217Y-123208904D01*
X160408740Y-123166835D01*
X160336129Y-123143242D01*
X160126246Y-123110000D01*
X159913754Y-123110000D01*
X159703872Y-123143242D01*
X159703869Y-123143242D01*
X159501782Y-123208904D01*
X159312439Y-123305380D01*
X159258282Y-123344727D01*
X159258282Y-123344728D01*
X159890591Y-123977037D01*
X159827007Y-123994075D01*
X159712993Y-124059901D01*
X159619901Y-124152993D01*
X159554075Y-124267007D01*
X159537037Y-124330591D01*
X158904728Y-123698282D01*
X158904727Y-123698282D01*
X158865380Y-123752439D01*
X158768904Y-123941783D01*
X158736760Y-124040712D01*
X158697322Y-124098388D01*
X158632964Y-124125586D01*
X158564117Y-124113671D01*
X158512642Y-124066427D01*
X158500898Y-124040711D01*
X158499873Y-124037555D01*
X158421232Y-123883212D01*
X158319414Y-123743072D01*
X158196928Y-123620586D01*
X158056788Y-123518768D01*
X157902445Y-123440127D01*
X157737701Y-123386598D01*
X157737699Y-123386597D01*
X157737698Y-123386597D01*
X157606271Y-123365781D01*
X157566611Y-123359500D01*
X157393389Y-123359500D01*
X157353728Y-123365781D01*
X157222302Y-123386597D01*
X157057552Y-123440128D01*
X156903211Y-123518768D01*
X156823256Y-123576859D01*
X156763072Y-123620586D01*
X156763070Y-123620588D01*
X156763069Y-123620588D01*
X156640588Y-123743069D01*
X156640588Y-123743070D01*
X156640586Y-123743072D01*
X156602822Y-123795050D01*
X156538768Y-123883211D01*
X156460128Y-124037552D01*
X156406597Y-124202302D01*
X156396349Y-124267007D01*
X156379500Y-124373389D01*
X156040500Y-124373389D01*
X156013402Y-124202299D01*
X155959873Y-124037555D01*
X155881232Y-123883212D01*
X155779414Y-123743072D01*
X155656928Y-123620586D01*
X155516788Y-123518768D01*
X155362445Y-123440127D01*
X155197701Y-123386598D01*
X155197699Y-123386597D01*
X155197698Y-123386597D01*
X155066271Y-123365781D01*
X155026611Y-123359500D01*
X154853389Y-123359500D01*
X154813728Y-123365781D01*
X154682302Y-123386597D01*
X154517552Y-123440128D01*
X154363211Y-123518768D01*
X154283256Y-123576859D01*
X154223072Y-123620586D01*
X154223070Y-123620588D01*
X154223069Y-123620588D01*
X154100588Y-123743069D01*
X154100588Y-123743070D01*
X154100586Y-123743072D01*
X154062822Y-123795050D01*
X153998768Y-123883211D01*
X153920128Y-124037552D01*
X153866597Y-124202302D01*
X153856349Y-124267007D01*
X153839500Y-124373389D01*
X153500500Y-124373389D01*
X153473402Y-124202299D01*
X153419873Y-124037555D01*
X153341232Y-123883212D01*
X153239414Y-123743072D01*
X153116928Y-123620586D01*
X152976788Y-123518768D01*
X152822445Y-123440127D01*
X152657701Y-123386598D01*
X152657699Y-123386597D01*
X152657698Y-123386597D01*
X152526271Y-123365781D01*
X152486611Y-123359500D01*
X152313389Y-123359500D01*
X152273728Y-123365781D01*
X152142302Y-123386597D01*
X151977552Y-123440128D01*
X151823211Y-123518768D01*
X151743256Y-123576859D01*
X151683072Y-123620586D01*
X151683070Y-123620588D01*
X151683069Y-123620588D01*
X151560588Y-123743069D01*
X151560588Y-123743070D01*
X151560586Y-123743072D01*
X151522822Y-123795050D01*
X151458768Y-123883211D01*
X151380128Y-124037552D01*
X151326597Y-124202302D01*
X151316349Y-124267007D01*
X151299500Y-124373389D01*
X150960500Y-124373389D01*
X150960500Y-123585326D01*
X150960500Y-123585323D01*
X150960499Y-123585321D01*
X150945967Y-123512264D01*
X150945966Y-123512260D01*
X150939426Y-123502472D01*
X150890601Y-123429399D01*
X150807740Y-123374034D01*
X150807739Y-123374033D01*
X150807735Y-123374032D01*
X150734677Y-123359500D01*
X150734674Y-123359500D01*
X148985326Y-123359500D01*
X148985323Y-123359500D01*
X148912264Y-123374032D01*
X148912260Y-123374033D01*
X148829399Y-123429399D01*
X148774033Y-123512260D01*
X148774032Y-123512264D01*
X148759500Y-123585321D01*
X145448390Y-123585321D01*
X145356788Y-123518768D01*
X145202445Y-123440127D01*
X145037701Y-123386598D01*
X145037699Y-123386597D01*
X145037698Y-123386597D01*
X144906271Y-123365781D01*
X144866611Y-123359500D01*
X144693389Y-123359500D01*
X144653728Y-123365781D01*
X144522302Y-123386597D01*
X144357552Y-123440128D01*
X144203211Y-123518768D01*
X144123256Y-123576859D01*
X144063072Y-123620586D01*
X144063070Y-123620588D01*
X144063069Y-123620588D01*
X143940588Y-123743069D01*
X143940588Y-123743070D01*
X143940586Y-123743072D01*
X143902822Y-123795050D01*
X143838768Y-123883211D01*
X143760128Y-124037552D01*
X143706597Y-124202302D01*
X143696349Y-124267007D01*
X143679500Y-124373389D01*
X143340500Y-124373389D01*
X143313402Y-124202299D01*
X143259873Y-124037555D01*
X143181232Y-123883212D01*
X143079414Y-123743072D01*
X142956928Y-123620586D01*
X142816788Y-123518768D01*
X142662445Y-123440127D01*
X142497701Y-123386598D01*
X142497699Y-123386597D01*
X142497698Y-123386597D01*
X142366271Y-123365781D01*
X142326611Y-123359500D01*
X142153389Y-123359500D01*
X142113728Y-123365781D01*
X141982302Y-123386597D01*
X141817552Y-123440128D01*
X141663211Y-123518768D01*
X141583256Y-123576859D01*
X141523072Y-123620586D01*
X141523070Y-123620588D01*
X141523069Y-123620588D01*
X141400588Y-123743069D01*
X141400588Y-123743070D01*
X141400586Y-123743072D01*
X141362822Y-123795050D01*
X141298768Y-123883211D01*
X141220128Y-124037552D01*
X141166597Y-124202302D01*
X141156349Y-124267007D01*
X141139500Y-124373389D01*
X140800500Y-124373389D01*
X140773402Y-124202299D01*
X140719873Y-124037555D01*
X140641232Y-123883212D01*
X140539414Y-123743072D01*
X140416928Y-123620586D01*
X140276788Y-123518768D01*
X140122445Y-123440127D01*
X139957701Y-123386598D01*
X139957699Y-123386597D01*
X139957698Y-123386597D01*
X139826271Y-123365781D01*
X139786611Y-123359500D01*
X139613389Y-123359500D01*
X139573728Y-123365781D01*
X139442302Y-123386597D01*
X139277552Y-123440128D01*
X139123211Y-123518768D01*
X139043256Y-123576859D01*
X138983072Y-123620586D01*
X138983070Y-123620588D01*
X138983069Y-123620588D01*
X138860588Y-123743069D01*
X138860588Y-123743070D01*
X138860586Y-123743072D01*
X138822822Y-123795050D01*
X138758768Y-123883211D01*
X138680128Y-124037552D01*
X138626597Y-124202302D01*
X138616349Y-124267007D01*
X138599500Y-124373389D01*
X138260500Y-124373389D01*
X138233402Y-124202299D01*
X138179873Y-124037555D01*
X138101232Y-123883212D01*
X137999414Y-123743072D01*
X137876928Y-123620586D01*
X137736788Y-123518768D01*
X137582445Y-123440127D01*
X137417701Y-123386598D01*
X137417699Y-123386597D01*
X137417698Y-123386597D01*
X137286271Y-123365781D01*
X137246611Y-123359500D01*
X137073389Y-123359500D01*
X137033728Y-123365781D01*
X136902302Y-123386597D01*
X136737552Y-123440128D01*
X136583211Y-123518768D01*
X136503256Y-123576859D01*
X136443072Y-123620586D01*
X136443070Y-123620588D01*
X136443069Y-123620588D01*
X136320588Y-123743069D01*
X136320588Y-123743070D01*
X136320586Y-123743072D01*
X136282822Y-123795050D01*
X136218768Y-123883211D01*
X136140128Y-124037552D01*
X136086597Y-124202302D01*
X136076349Y-124267007D01*
X136059500Y-124373389D01*
X135720500Y-124373389D01*
X135693402Y-124202299D01*
X135639873Y-124037555D01*
X135561232Y-123883212D01*
X135459414Y-123743072D01*
X135336928Y-123620586D01*
X135196788Y-123518768D01*
X135042445Y-123440127D01*
X134877701Y-123386598D01*
X134877699Y-123386597D01*
X134877698Y-123386597D01*
X134746271Y-123365781D01*
X134706611Y-123359500D01*
X134533389Y-123359500D01*
X134493728Y-123365781D01*
X134362302Y-123386597D01*
X134197552Y-123440128D01*
X134043211Y-123518768D01*
X133963256Y-123576859D01*
X133903072Y-123620586D01*
X133903070Y-123620588D01*
X133903069Y-123620588D01*
X133780588Y-123743069D01*
X133780588Y-123743070D01*
X133780586Y-123743072D01*
X133742822Y-123795050D01*
X133678768Y-123883211D01*
X133600128Y-124037552D01*
X133546597Y-124202302D01*
X133536349Y-124267007D01*
X133519500Y-124373389D01*
X133180500Y-124373389D01*
X133153402Y-124202299D01*
X133099873Y-124037555D01*
X133021232Y-123883212D01*
X132919414Y-123743072D01*
X132796928Y-123620586D01*
X132656788Y-123518768D01*
X132502445Y-123440127D01*
X132337701Y-123386598D01*
X132337699Y-123386597D01*
X132337698Y-123386597D01*
X132206271Y-123365781D01*
X132166611Y-123359500D01*
X131993389Y-123359500D01*
X131953728Y-123365781D01*
X131822302Y-123386597D01*
X131657552Y-123440128D01*
X131503211Y-123518768D01*
X131423256Y-123576859D01*
X131363072Y-123620586D01*
X131363070Y-123620588D01*
X131363069Y-123620588D01*
X131240588Y-123743069D01*
X131240588Y-123743070D01*
X131240586Y-123743072D01*
X131202822Y-123795050D01*
X131138768Y-123883211D01*
X131060128Y-124037552D01*
X131006597Y-124202302D01*
X130996349Y-124267007D01*
X130979500Y-124373389D01*
X130640500Y-124373389D01*
X130613402Y-124202299D01*
X130559873Y-124037555D01*
X130481232Y-123883212D01*
X130379414Y-123743072D01*
X130256928Y-123620586D01*
X130116788Y-123518768D01*
X129962445Y-123440127D01*
X129797701Y-123386598D01*
X129797699Y-123386597D01*
X129797698Y-123386597D01*
X129666271Y-123365781D01*
X129626611Y-123359500D01*
X129453389Y-123359500D01*
X129413728Y-123365781D01*
X129282302Y-123386597D01*
X129117552Y-123440128D01*
X128963211Y-123518768D01*
X128883256Y-123576859D01*
X128823072Y-123620586D01*
X128823070Y-123620588D01*
X128823069Y-123620588D01*
X128700588Y-123743069D01*
X128700588Y-123743070D01*
X128700586Y-123743072D01*
X128662822Y-123795050D01*
X128598768Y-123883211D01*
X128520128Y-124037552D01*
X128466597Y-124202302D01*
X128456349Y-124267007D01*
X128439500Y-124373389D01*
X128100500Y-124373389D01*
X128073402Y-124202299D01*
X128019873Y-124037555D01*
X127941232Y-123883212D01*
X127839414Y-123743072D01*
X127716928Y-123620586D01*
X127576788Y-123518768D01*
X127422445Y-123440127D01*
X127257701Y-123386598D01*
X127257699Y-123386597D01*
X127257698Y-123386597D01*
X127126271Y-123365781D01*
X127086611Y-123359500D01*
X126913389Y-123359500D01*
X126873728Y-123365781D01*
X126742302Y-123386597D01*
X126577552Y-123440128D01*
X126423211Y-123518768D01*
X126343256Y-123576859D01*
X126283072Y-123620586D01*
X126283070Y-123620588D01*
X126283069Y-123620588D01*
X126160588Y-123743069D01*
X126160588Y-123743070D01*
X126160586Y-123743072D01*
X126122822Y-123795050D01*
X126058768Y-123883211D01*
X125980128Y-124037552D01*
X125926597Y-124202302D01*
X125916349Y-124267007D01*
X125899500Y-124373389D01*
X125560500Y-124373389D01*
X125533402Y-124202299D01*
X125479873Y-124037555D01*
X125401232Y-123883212D01*
X125299414Y-123743072D01*
X125176928Y-123620586D01*
X125036788Y-123518768D01*
X124882445Y-123440127D01*
X124717701Y-123386598D01*
X124717699Y-123386597D01*
X124717698Y-123386597D01*
X124586271Y-123365781D01*
X124546611Y-123359500D01*
X124373389Y-123359500D01*
X124333728Y-123365781D01*
X124202302Y-123386597D01*
X124037552Y-123440128D01*
X123883211Y-123518768D01*
X123803256Y-123576859D01*
X123743072Y-123620586D01*
X123743070Y-123620588D01*
X123743069Y-123620588D01*
X123620588Y-123743069D01*
X123620588Y-123743070D01*
X123620586Y-123743072D01*
X123582822Y-123795050D01*
X123518768Y-123883211D01*
X123440128Y-124037552D01*
X123386597Y-124202302D01*
X123376349Y-124267007D01*
X123359500Y-124373389D01*
X123020500Y-124373389D01*
X122993402Y-124202299D01*
X122939873Y-124037555D01*
X122861232Y-123883212D01*
X122759414Y-123743072D01*
X122636928Y-123620586D01*
X122496788Y-123518768D01*
X122342445Y-123440127D01*
X122177701Y-123386598D01*
X122177699Y-123386597D01*
X122177698Y-123386597D01*
X122046271Y-123365781D01*
X122006611Y-123359500D01*
X121833389Y-123359500D01*
X121793728Y-123365781D01*
X121662302Y-123386597D01*
X121497552Y-123440128D01*
X121343211Y-123518768D01*
X121263256Y-123576859D01*
X121203072Y-123620586D01*
X121203070Y-123620588D01*
X121203069Y-123620588D01*
X121080588Y-123743069D01*
X121080588Y-123743070D01*
X121080586Y-123743072D01*
X121042822Y-123795050D01*
X120978768Y-123883211D01*
X120900128Y-124037552D01*
X120846597Y-124202302D01*
X120836349Y-124267007D01*
X120819500Y-124373389D01*
X120480500Y-124373389D01*
X120453402Y-124202299D01*
X120399873Y-124037555D01*
X120321232Y-123883212D01*
X120219414Y-123743072D01*
X120096928Y-123620586D01*
X119956788Y-123518768D01*
X119802445Y-123440127D01*
X119637701Y-123386598D01*
X119637699Y-123386597D01*
X119637698Y-123386597D01*
X119506271Y-123365781D01*
X119466611Y-123359500D01*
X119293389Y-123359500D01*
X119253728Y-123365781D01*
X119122302Y-123386597D01*
X118957552Y-123440128D01*
X118803211Y-123518768D01*
X118723256Y-123576859D01*
X118663072Y-123620586D01*
X118663070Y-123620588D01*
X118663069Y-123620588D01*
X118540588Y-123743069D01*
X118540588Y-123743070D01*
X118540586Y-123743072D01*
X118502822Y-123795050D01*
X118438768Y-123883211D01*
X118360128Y-124037552D01*
X118306597Y-124202302D01*
X118296349Y-124267007D01*
X118279500Y-124373389D01*
X117940500Y-124373389D01*
X117913402Y-124202299D01*
X117859873Y-124037555D01*
X117781232Y-123883212D01*
X117679414Y-123743072D01*
X117556928Y-123620586D01*
X117416788Y-123518768D01*
X117262445Y-123440127D01*
X117097701Y-123386598D01*
X117097699Y-123386597D01*
X117097698Y-123386597D01*
X116966271Y-123365781D01*
X116926611Y-123359500D01*
X116753389Y-123359500D01*
X116713728Y-123365781D01*
X116582302Y-123386597D01*
X116417552Y-123440128D01*
X116263211Y-123518768D01*
X116183256Y-123576859D01*
X116123072Y-123620586D01*
X116123070Y-123620588D01*
X116123069Y-123620588D01*
X116000588Y-123743069D01*
X116000588Y-123743070D01*
X116000586Y-123743072D01*
X115962822Y-123795050D01*
X115898768Y-123883211D01*
X115820128Y-124037550D01*
X115819487Y-124039522D01*
X115819102Y-124040712D01*
X115819099Y-124040720D01*
X115818381Y-124041769D01*
X115818266Y-124042048D01*
X115818207Y-124042023D01*
X115779657Y-124098393D01*
X115715297Y-124125587D01*
X115646451Y-124113668D01*
X115594979Y-124066420D01*
X115583239Y-124040711D01*
X115551096Y-123941784D01*
X115454624Y-123752449D01*
X115415270Y-123698282D01*
X115415269Y-123698282D01*
X114782962Y-124330590D01*
X114765925Y-124267007D01*
X114700099Y-124152993D01*
X114607007Y-124059901D01*
X114492993Y-123994075D01*
X114429409Y-123977037D01*
X115061716Y-123344728D01*
X115007550Y-123305375D01*
X114818217Y-123208904D01*
X114616129Y-123143242D01*
X114406246Y-123110000D01*
X114193754Y-123110000D01*
X113983872Y-123143242D01*
X113983869Y-123143242D01*
X113781782Y-123208904D01*
X113592439Y-123305380D01*
X113538282Y-123344727D01*
X113538282Y-123344728D01*
X114170591Y-123977037D01*
X114107007Y-123994075D01*
X113992993Y-124059901D01*
X113899901Y-124152993D01*
X113834075Y-124267007D01*
X113817037Y-124330591D01*
X113184728Y-123698282D01*
X113184727Y-123698282D01*
X113145380Y-123752440D01*
X113145378Y-123752443D01*
X113094984Y-123851346D01*
X113047010Y-123902141D01*
X112979188Y-123918936D01*
X112913054Y-123896398D01*
X112869603Y-123841683D01*
X112860500Y-123795050D01*
X112860500Y-123585323D01*
X112860499Y-123585321D01*
X112845967Y-123512264D01*
X112845966Y-123512260D01*
X112839426Y-123502472D01*
X112790601Y-123429399D01*
X112707740Y-123374034D01*
X112707739Y-123374033D01*
X112707735Y-123374032D01*
X112634677Y-123359500D01*
X112634674Y-123359500D01*
X110885326Y-123359500D01*
X110885323Y-123359500D01*
X110812264Y-123374032D01*
X110812260Y-123374033D01*
X110729399Y-123429399D01*
X110674033Y-123512260D01*
X110674032Y-123512264D01*
X110659500Y-123585321D01*
X107831462Y-123585321D01*
X107831603Y-123584073D01*
X107833714Y-123565350D01*
X107855270Y-123374032D01*
X107860500Y-123327617D01*
X107860500Y-123052383D01*
X107860499Y-123052378D01*
X181699500Y-123052378D01*
X181699500Y-123327621D01*
X181730315Y-123601108D01*
X181730317Y-123601124D01*
X181791561Y-123869453D01*
X181791565Y-123869465D01*
X181882467Y-124129246D01*
X182001884Y-124377218D01*
X182001886Y-124377221D01*
X182148319Y-124610268D01*
X182319925Y-124825455D01*
X182514545Y-125020075D01*
X182729732Y-125191681D01*
X182962779Y-125338114D01*
X183210757Y-125457534D01*
X183405865Y-125525805D01*
X183470534Y-125548434D01*
X183470546Y-125548438D01*
X183738879Y-125609683D01*
X184012378Y-125640499D01*
X184012379Y-125640500D01*
X184012383Y-125640500D01*
X184287621Y-125640500D01*
X184287621Y-125640499D01*
X184561121Y-125609683D01*
X184829454Y-125548438D01*
X185089243Y-125457534D01*
X185337221Y-125338114D01*
X185570268Y-125191681D01*
X185785455Y-125020075D01*
X185980075Y-124825455D01*
X186151681Y-124610268D01*
X186298114Y-124377221D01*
X186417534Y-124129243D01*
X186508438Y-123869454D01*
X186569683Y-123601121D01*
X186600500Y-123327617D01*
X186600500Y-123052383D01*
X186569683Y-122778879D01*
X186508438Y-122510546D01*
X186417534Y-122250757D01*
X186298114Y-122002779D01*
X186151681Y-121769732D01*
X185980075Y-121554545D01*
X185785455Y-121359925D01*
X185752177Y-121333387D01*
X185730804Y-121316343D01*
X185570268Y-121188319D01*
X185337221Y-121041886D01*
X185337218Y-121041884D01*
X185089246Y-120922467D01*
X184829465Y-120831565D01*
X184829453Y-120831561D01*
X184561124Y-120770317D01*
X184561108Y-120770315D01*
X184287621Y-120739500D01*
X184287617Y-120739500D01*
X184012383Y-120739500D01*
X184012379Y-120739500D01*
X183738891Y-120770315D01*
X183738875Y-120770317D01*
X183470546Y-120831561D01*
X183470534Y-120831565D01*
X183210753Y-120922467D01*
X182962781Y-121041884D01*
X182729733Y-121188318D01*
X182514545Y-121359924D01*
X182319924Y-121554545D01*
X182148318Y-121769733D01*
X182001884Y-122002781D01*
X181882467Y-122250753D01*
X181791565Y-122510534D01*
X181791561Y-122510546D01*
X181730317Y-122778875D01*
X181730315Y-122778891D01*
X181699500Y-123052378D01*
X107860499Y-123052378D01*
X107829683Y-122778879D01*
X107768438Y-122510546D01*
X107677534Y-122250757D01*
X107558114Y-122002779D01*
X107411681Y-121769732D01*
X107240075Y-121554545D01*
X107236221Y-121550691D01*
X157389500Y-121550691D01*
X157389500Y-121669309D01*
X157420201Y-121783886D01*
X157479511Y-121886613D01*
X157563387Y-121970489D01*
X157666114Y-122029799D01*
X157780691Y-122060500D01*
X157780694Y-122060500D01*
X157899306Y-122060500D01*
X157899309Y-122060500D01*
X158013886Y-122029799D01*
X158116613Y-121970489D01*
X158200489Y-121886613D01*
X158259799Y-121783886D01*
X158290500Y-121669309D01*
X158290500Y-121550691D01*
X158259799Y-121436114D01*
X158200489Y-121333387D01*
X158116613Y-121249511D01*
X158013886Y-121190201D01*
X157899309Y-121159500D01*
X157780691Y-121159500D01*
X157666114Y-121190201D01*
X157666112Y-121190201D01*
X157666112Y-121190202D01*
X157563387Y-121249511D01*
X157563384Y-121249513D01*
X157479513Y-121333384D01*
X157479511Y-121333387D01*
X157420201Y-121436114D01*
X157389500Y-121550691D01*
X107236221Y-121550691D01*
X107045455Y-121359925D01*
X107012177Y-121333387D01*
X106990804Y-121316343D01*
X106830268Y-121188319D01*
X106597221Y-121041886D01*
X106597218Y-121041884D01*
X106349246Y-120922467D01*
X106089465Y-120831565D01*
X106089453Y-120831561D01*
X105821124Y-120770317D01*
X105821108Y-120770315D01*
X105547621Y-120739500D01*
X105547617Y-120739500D01*
X105272383Y-120739500D01*
X105272379Y-120739500D01*
X104998891Y-120770315D01*
X104998875Y-120770317D01*
X104730546Y-120831561D01*
X104730534Y-120831565D01*
X104470753Y-120922467D01*
X104222781Y-121041884D01*
X103989733Y-121188318D01*
X103774545Y-121359924D01*
X103579924Y-121554545D01*
X103408318Y-121769733D01*
X103261884Y-122002781D01*
X103142467Y-122250753D01*
X103051565Y-122510534D01*
X103051561Y-122510546D01*
X102990317Y-122778875D01*
X102990315Y-122778891D01*
X102959500Y-123052378D01*
X102100500Y-123052378D01*
X102100500Y-119307525D01*
X111209500Y-119307525D01*
X111209500Y-119452475D01*
X111247016Y-119592485D01*
X111247017Y-119592488D01*
X111319488Y-119718011D01*
X111319490Y-119718013D01*
X111319491Y-119718015D01*
X111421985Y-119820509D01*
X111421986Y-119820510D01*
X111421988Y-119820511D01*
X111547511Y-119892982D01*
X111547512Y-119892982D01*
X111547515Y-119892984D01*
X111687525Y-119930500D01*
X111687528Y-119930500D01*
X111832472Y-119930500D01*
X111832475Y-119930500D01*
X111972485Y-119892984D01*
X112098015Y-119820509D01*
X112200509Y-119718015D01*
X112272984Y-119592485D01*
X112310500Y-119452475D01*
X112310500Y-119307525D01*
X116289500Y-119307525D01*
X116289500Y-119452475D01*
X116327016Y-119592485D01*
X116327017Y-119592488D01*
X116399488Y-119718011D01*
X116399490Y-119718013D01*
X116399491Y-119718015D01*
X116501985Y-119820509D01*
X116501986Y-119820510D01*
X116501988Y-119820511D01*
X116627511Y-119892982D01*
X116627512Y-119892982D01*
X116627515Y-119892984D01*
X116767525Y-119930500D01*
X116767528Y-119930500D01*
X116912472Y-119930500D01*
X116912475Y-119930500D01*
X117052485Y-119892984D01*
X117178015Y-119820509D01*
X117280509Y-119718015D01*
X117352984Y-119592485D01*
X117390500Y-119452475D01*
X117390500Y-119307525D01*
X121369500Y-119307525D01*
X121369500Y-119452475D01*
X121407016Y-119592485D01*
X121407017Y-119592488D01*
X121479488Y-119718011D01*
X121479490Y-119718013D01*
X121479491Y-119718015D01*
X121581985Y-119820509D01*
X121581986Y-119820510D01*
X121581988Y-119820511D01*
X121707511Y-119892982D01*
X121707512Y-119892982D01*
X121707515Y-119892984D01*
X121847525Y-119930500D01*
X121847528Y-119930500D01*
X121992472Y-119930500D01*
X121992475Y-119930500D01*
X122132485Y-119892984D01*
X122258015Y-119820509D01*
X122360509Y-119718015D01*
X122432984Y-119592485D01*
X122470500Y-119452475D01*
X122470500Y-119307525D01*
X126449500Y-119307525D01*
X126449500Y-119452475D01*
X126487016Y-119592485D01*
X126487017Y-119592488D01*
X126559488Y-119718011D01*
X126559490Y-119718013D01*
X126559491Y-119718015D01*
X126661985Y-119820509D01*
X126661986Y-119820510D01*
X126661988Y-119820511D01*
X126787511Y-119892982D01*
X126787512Y-119892982D01*
X126787515Y-119892984D01*
X126927525Y-119930500D01*
X126927528Y-119930500D01*
X127072472Y-119930500D01*
X127072475Y-119930500D01*
X127212485Y-119892984D01*
X127338015Y-119820509D01*
X127440509Y-119718015D01*
X127512984Y-119592485D01*
X127550500Y-119452475D01*
X127550500Y-119307525D01*
X131529500Y-119307525D01*
X131529500Y-119452475D01*
X131567016Y-119592485D01*
X131567017Y-119592488D01*
X131639488Y-119718011D01*
X131639490Y-119718013D01*
X131639491Y-119718015D01*
X131741985Y-119820509D01*
X131741986Y-119820510D01*
X131741988Y-119820511D01*
X131867511Y-119892982D01*
X131867512Y-119892982D01*
X131867515Y-119892984D01*
X132007525Y-119930500D01*
X132007528Y-119930500D01*
X132152472Y-119930500D01*
X132152475Y-119930500D01*
X132292485Y-119892984D01*
X132418015Y-119820509D01*
X132520509Y-119718015D01*
X132592984Y-119592485D01*
X132630500Y-119452475D01*
X132630500Y-119307525D01*
X136609500Y-119307525D01*
X136609500Y-119452475D01*
X136647016Y-119592485D01*
X136647017Y-119592488D01*
X136719488Y-119718011D01*
X136719490Y-119718013D01*
X136719491Y-119718015D01*
X136821985Y-119820509D01*
X136821986Y-119820510D01*
X136821988Y-119820511D01*
X136947511Y-119892982D01*
X136947512Y-119892982D01*
X136947515Y-119892984D01*
X137087525Y-119930500D01*
X137087528Y-119930500D01*
X137232472Y-119930500D01*
X137232475Y-119930500D01*
X137372485Y-119892984D01*
X137498015Y-119820509D01*
X137600509Y-119718015D01*
X137672984Y-119592485D01*
X137710500Y-119452475D01*
X137710500Y-119307525D01*
X146769500Y-119307525D01*
X146769500Y-119452475D01*
X146807016Y-119592485D01*
X146807017Y-119592488D01*
X146879488Y-119718011D01*
X146879490Y-119718013D01*
X146879491Y-119718015D01*
X146981985Y-119820509D01*
X146981986Y-119820510D01*
X146981988Y-119820511D01*
X147107511Y-119892982D01*
X147107512Y-119892982D01*
X147107515Y-119892984D01*
X147247525Y-119930500D01*
X147247528Y-119930500D01*
X147392472Y-119930500D01*
X147392475Y-119930500D01*
X147532485Y-119892984D01*
X147658015Y-119820509D01*
X147760509Y-119718015D01*
X147832984Y-119592485D01*
X147870500Y-119452475D01*
X147870500Y-119307525D01*
X162009500Y-119307525D01*
X162009500Y-119452475D01*
X162047016Y-119592485D01*
X162047017Y-119592488D01*
X162119488Y-119718011D01*
X162119490Y-119718013D01*
X162119491Y-119718015D01*
X162221985Y-119820509D01*
X162221986Y-119820510D01*
X162221988Y-119820511D01*
X162347511Y-119892982D01*
X162347512Y-119892982D01*
X162347515Y-119892984D01*
X162487525Y-119930500D01*
X162487528Y-119930500D01*
X162632472Y-119930500D01*
X162632475Y-119930500D01*
X162772485Y-119892984D01*
X162898015Y-119820509D01*
X163000509Y-119718015D01*
X163072984Y-119592485D01*
X163110500Y-119452475D01*
X163110500Y-119307525D01*
X167089500Y-119307525D01*
X167089500Y-119452475D01*
X167127016Y-119592485D01*
X167127017Y-119592488D01*
X167199488Y-119718011D01*
X167199490Y-119718013D01*
X167199491Y-119718015D01*
X167301985Y-119820509D01*
X167301986Y-119820510D01*
X167301988Y-119820511D01*
X167427511Y-119892982D01*
X167427512Y-119892982D01*
X167427515Y-119892984D01*
X167567525Y-119930500D01*
X167567528Y-119930500D01*
X167712472Y-119930500D01*
X167712475Y-119930500D01*
X167852485Y-119892984D01*
X167978015Y-119820509D01*
X168080509Y-119718015D01*
X168152984Y-119592485D01*
X168190500Y-119452475D01*
X168190500Y-119307525D01*
X172169500Y-119307525D01*
X172169500Y-119452475D01*
X172207016Y-119592485D01*
X172207017Y-119592488D01*
X172279488Y-119718011D01*
X172279490Y-119718013D01*
X172279491Y-119718015D01*
X172381985Y-119820509D01*
X172381986Y-119820510D01*
X172381988Y-119820511D01*
X172507511Y-119892982D01*
X172507512Y-119892982D01*
X172507515Y-119892984D01*
X172647525Y-119930500D01*
X172647528Y-119930500D01*
X172792472Y-119930500D01*
X172792475Y-119930500D01*
X172932485Y-119892984D01*
X173058015Y-119820509D01*
X173160509Y-119718015D01*
X173232984Y-119592485D01*
X173270500Y-119452475D01*
X173270500Y-119307525D01*
X177249500Y-119307525D01*
X177249500Y-119452475D01*
X177287016Y-119592485D01*
X177287017Y-119592488D01*
X177359488Y-119718011D01*
X177359490Y-119718013D01*
X177359491Y-119718015D01*
X177461985Y-119820509D01*
X177461986Y-119820510D01*
X177461988Y-119820511D01*
X177587511Y-119892982D01*
X177587512Y-119892982D01*
X177587515Y-119892984D01*
X177727525Y-119930500D01*
X177727528Y-119930500D01*
X177872472Y-119930500D01*
X177872475Y-119930500D01*
X178012485Y-119892984D01*
X178138015Y-119820509D01*
X178240509Y-119718015D01*
X178312984Y-119592485D01*
X178350500Y-119452475D01*
X178350500Y-119307525D01*
X178312984Y-119167515D01*
X178240509Y-119041985D01*
X178138015Y-118939491D01*
X178138013Y-118939490D01*
X178138011Y-118939488D01*
X178012488Y-118867017D01*
X178012489Y-118867017D01*
X178001006Y-118863940D01*
X177872475Y-118829500D01*
X177727525Y-118829500D01*
X177598993Y-118863940D01*
X177587511Y-118867017D01*
X177461988Y-118939488D01*
X177461982Y-118939493D01*
X177359493Y-119041982D01*
X177359488Y-119041988D01*
X177287017Y-119167511D01*
X177287016Y-119167515D01*
X177249500Y-119307525D01*
X173270500Y-119307525D01*
X173232984Y-119167515D01*
X173160509Y-119041985D01*
X173058015Y-118939491D01*
X173058013Y-118939490D01*
X173058011Y-118939488D01*
X172932488Y-118867017D01*
X172932489Y-118867017D01*
X172921006Y-118863940D01*
X172792475Y-118829500D01*
X172647525Y-118829500D01*
X172518993Y-118863940D01*
X172507511Y-118867017D01*
X172381988Y-118939488D01*
X172381982Y-118939493D01*
X172279493Y-119041982D01*
X172279488Y-119041988D01*
X172207017Y-119167511D01*
X172207016Y-119167515D01*
X172169500Y-119307525D01*
X168190500Y-119307525D01*
X168152984Y-119167515D01*
X168080509Y-119041985D01*
X167978015Y-118939491D01*
X167978013Y-118939490D01*
X167978011Y-118939488D01*
X167852488Y-118867017D01*
X167852489Y-118867017D01*
X167841006Y-118863940D01*
X167712475Y-118829500D01*
X167567525Y-118829500D01*
X167438993Y-118863940D01*
X167427511Y-118867017D01*
X167301988Y-118939488D01*
X167301982Y-118939493D01*
X167199493Y-119041982D01*
X167199488Y-119041988D01*
X167127017Y-119167511D01*
X167127016Y-119167515D01*
X167089500Y-119307525D01*
X163110500Y-119307525D01*
X163072984Y-119167515D01*
X163000509Y-119041985D01*
X162898015Y-118939491D01*
X162898013Y-118939490D01*
X162898011Y-118939488D01*
X162772488Y-118867017D01*
X162772489Y-118867017D01*
X162761006Y-118863940D01*
X162632475Y-118829500D01*
X162487525Y-118829500D01*
X162358993Y-118863940D01*
X162347511Y-118867017D01*
X162221988Y-118939488D01*
X162221982Y-118939493D01*
X162119493Y-119041982D01*
X162119488Y-119041988D01*
X162047017Y-119167511D01*
X162047016Y-119167515D01*
X162009500Y-119307525D01*
X147870500Y-119307525D01*
X147832984Y-119167515D01*
X147760509Y-119041985D01*
X147658015Y-118939491D01*
X147658013Y-118939490D01*
X147658011Y-118939488D01*
X147532488Y-118867017D01*
X147532489Y-118867017D01*
X147521006Y-118863940D01*
X147392475Y-118829500D01*
X147247525Y-118829500D01*
X147118993Y-118863940D01*
X147107511Y-118867017D01*
X146981988Y-118939488D01*
X146981982Y-118939493D01*
X146879493Y-119041982D01*
X146879488Y-119041988D01*
X146807017Y-119167511D01*
X146807016Y-119167515D01*
X146769500Y-119307525D01*
X137710500Y-119307525D01*
X137672984Y-119167515D01*
X137600509Y-119041985D01*
X137498015Y-118939491D01*
X137498013Y-118939490D01*
X137498011Y-118939488D01*
X137372488Y-118867017D01*
X137372489Y-118867017D01*
X137361006Y-118863940D01*
X137232475Y-118829500D01*
X137087525Y-118829500D01*
X136958993Y-118863940D01*
X136947511Y-118867017D01*
X136821988Y-118939488D01*
X136821982Y-118939493D01*
X136719493Y-119041982D01*
X136719488Y-119041988D01*
X136647017Y-119167511D01*
X136647016Y-119167515D01*
X136609500Y-119307525D01*
X132630500Y-119307525D01*
X132592984Y-119167515D01*
X132520509Y-119041985D01*
X132418015Y-118939491D01*
X132418013Y-118939490D01*
X132418011Y-118939488D01*
X132292488Y-118867017D01*
X132292489Y-118867017D01*
X132281006Y-118863940D01*
X132152475Y-118829500D01*
X132007525Y-118829500D01*
X131878993Y-118863940D01*
X131867511Y-118867017D01*
X131741988Y-118939488D01*
X131741982Y-118939493D01*
X131639493Y-119041982D01*
X131639488Y-119041988D01*
X131567017Y-119167511D01*
X131567016Y-119167515D01*
X131529500Y-119307525D01*
X127550500Y-119307525D01*
X127512984Y-119167515D01*
X127440509Y-119041985D01*
X127338015Y-118939491D01*
X127338013Y-118939490D01*
X127338011Y-118939488D01*
X127212488Y-118867017D01*
X127212489Y-118867017D01*
X127201006Y-118863940D01*
X127072475Y-118829500D01*
X126927525Y-118829500D01*
X126798993Y-118863940D01*
X126787511Y-118867017D01*
X126661988Y-118939488D01*
X126661982Y-118939493D01*
X126559493Y-119041982D01*
X126559488Y-119041988D01*
X126487017Y-119167511D01*
X126487016Y-119167515D01*
X126449500Y-119307525D01*
X122470500Y-119307525D01*
X122432984Y-119167515D01*
X122360509Y-119041985D01*
X122258015Y-118939491D01*
X122258013Y-118939490D01*
X122258011Y-118939488D01*
X122132488Y-118867017D01*
X122132489Y-118867017D01*
X122121006Y-118863940D01*
X121992475Y-118829500D01*
X121847525Y-118829500D01*
X121718993Y-118863940D01*
X121707511Y-118867017D01*
X121581988Y-118939488D01*
X121581982Y-118939493D01*
X121479493Y-119041982D01*
X121479488Y-119041988D01*
X121407017Y-119167511D01*
X121407016Y-119167515D01*
X121369500Y-119307525D01*
X117390500Y-119307525D01*
X117352984Y-119167515D01*
X117280509Y-119041985D01*
X117178015Y-118939491D01*
X117178013Y-118939490D01*
X117178011Y-118939488D01*
X117052488Y-118867017D01*
X117052489Y-118867017D01*
X117041006Y-118863940D01*
X116912475Y-118829500D01*
X116767525Y-118829500D01*
X116638993Y-118863940D01*
X116627511Y-118867017D01*
X116501988Y-118939488D01*
X116501982Y-118939493D01*
X116399493Y-119041982D01*
X116399488Y-119041988D01*
X116327017Y-119167511D01*
X116327016Y-119167515D01*
X116289500Y-119307525D01*
X112310500Y-119307525D01*
X112272984Y-119167515D01*
X112200509Y-119041985D01*
X112098015Y-118939491D01*
X112098013Y-118939490D01*
X112098011Y-118939488D01*
X111972488Y-118867017D01*
X111972489Y-118867017D01*
X111961006Y-118863940D01*
X111832475Y-118829500D01*
X111687525Y-118829500D01*
X111558993Y-118863940D01*
X111547511Y-118867017D01*
X111421988Y-118939488D01*
X111421982Y-118939493D01*
X111319493Y-119041982D01*
X111319488Y-119041988D01*
X111247017Y-119167511D01*
X111247016Y-119167515D01*
X111209500Y-119307525D01*
X102100500Y-119307525D01*
X102100500Y-118090691D01*
X156499500Y-118090691D01*
X156499500Y-118209309D01*
X156530201Y-118323886D01*
X156589511Y-118426613D01*
X156673387Y-118510489D01*
X156776114Y-118569799D01*
X156890691Y-118600500D01*
X156890694Y-118600500D01*
X157009306Y-118600500D01*
X157009309Y-118600500D01*
X157123886Y-118569799D01*
X157226613Y-118510489D01*
X157310489Y-118426613D01*
X157369799Y-118323886D01*
X157400500Y-118209309D01*
X157400500Y-118090691D01*
X157369799Y-117976114D01*
X157310489Y-117873387D01*
X157226613Y-117789511D01*
X157123886Y-117730201D01*
X157009309Y-117699500D01*
X156890691Y-117699500D01*
X156776114Y-117730201D01*
X156776112Y-117730201D01*
X156776112Y-117730202D01*
X156673387Y-117789511D01*
X156673384Y-117789513D01*
X156589513Y-117873384D01*
X156589511Y-117873387D01*
X156530201Y-117976114D01*
X156499500Y-118090691D01*
X102100500Y-118090691D01*
X102100500Y-117330691D01*
X154039500Y-117330691D01*
X154039500Y-117449309D01*
X154070201Y-117563886D01*
X154129511Y-117666613D01*
X154213387Y-117750489D01*
X154316114Y-117809799D01*
X154430691Y-117840500D01*
X154430694Y-117840500D01*
X154549306Y-117840500D01*
X154549309Y-117840500D01*
X154663886Y-117809799D01*
X154766613Y-117750489D01*
X154850489Y-117666613D01*
X154909799Y-117563886D01*
X154940500Y-117449309D01*
X154940500Y-117330691D01*
X154909799Y-117216114D01*
X154850489Y-117113387D01*
X154766613Y-117029511D01*
X154663886Y-116970201D01*
X154549309Y-116939500D01*
X154430691Y-116939500D01*
X154316114Y-116970201D01*
X154316112Y-116970201D01*
X154316112Y-116970202D01*
X154213387Y-117029511D01*
X154213384Y-117029513D01*
X154129513Y-117113384D01*
X154129511Y-117113387D01*
X154070201Y-117216114D01*
X154039500Y-117330691D01*
X102100500Y-117330691D01*
X102100500Y-114980691D01*
X120089500Y-114980691D01*
X120089500Y-115099309D01*
X120120201Y-115213886D01*
X120179511Y-115316613D01*
X120263387Y-115400489D01*
X120366114Y-115459799D01*
X120480691Y-115490500D01*
X120480694Y-115490500D01*
X120599306Y-115490500D01*
X120599309Y-115490500D01*
X120713886Y-115459799D01*
X120816613Y-115400489D01*
X120900489Y-115316613D01*
X120959799Y-115213886D01*
X120990500Y-115099309D01*
X120990500Y-114980691D01*
X120959799Y-114866114D01*
X120900489Y-114763387D01*
X120816613Y-114679511D01*
X120713886Y-114620201D01*
X120599309Y-114589500D01*
X120480691Y-114589500D01*
X120366114Y-114620201D01*
X120366112Y-114620201D01*
X120366112Y-114620202D01*
X120263387Y-114679511D01*
X120263384Y-114679513D01*
X120179513Y-114763384D01*
X120179511Y-114763387D01*
X120120201Y-114866114D01*
X120089500Y-114980691D01*
X102100500Y-114980691D01*
X102100500Y-112960691D01*
X150519500Y-112960691D01*
X150519500Y-113079309D01*
X150550201Y-113193886D01*
X150609511Y-113296613D01*
X150693387Y-113380489D01*
X150796114Y-113439799D01*
X150910691Y-113470500D01*
X150910694Y-113470500D01*
X151029306Y-113470500D01*
X151029309Y-113470500D01*
X151143886Y-113439799D01*
X151246613Y-113380489D01*
X151330489Y-113296613D01*
X151389799Y-113193886D01*
X151420500Y-113079309D01*
X151420500Y-112960691D01*
X151389799Y-112846114D01*
X151330489Y-112743387D01*
X151246613Y-112659511D01*
X151143886Y-112600201D01*
X151108394Y-112590691D01*
X182239500Y-112590691D01*
X182239500Y-112709309D01*
X182270201Y-112823886D01*
X182329511Y-112926613D01*
X182413387Y-113010489D01*
X182516114Y-113069799D01*
X182630691Y-113100500D01*
X182630694Y-113100500D01*
X182749306Y-113100500D01*
X182749309Y-113100500D01*
X182863886Y-113069799D01*
X182966613Y-113010489D01*
X183050489Y-112926613D01*
X183109799Y-112823886D01*
X183140500Y-112709309D01*
X183140500Y-112590691D01*
X183137820Y-112580691D01*
X183699500Y-112580691D01*
X183699500Y-112699309D01*
X183730201Y-112813886D01*
X183789511Y-112916613D01*
X183873387Y-113000489D01*
X183976114Y-113059799D01*
X184090691Y-113090500D01*
X184090694Y-113090500D01*
X184209306Y-113090500D01*
X184209309Y-113090500D01*
X184323886Y-113059799D01*
X184426613Y-113000489D01*
X184510489Y-112916613D01*
X184569799Y-112813886D01*
X184600500Y-112699309D01*
X184600500Y-112590691D01*
X185169500Y-112590691D01*
X185169500Y-112709309D01*
X185200201Y-112823886D01*
X185259511Y-112926613D01*
X185343387Y-113010489D01*
X185446114Y-113069799D01*
X185560691Y-113100500D01*
X185560694Y-113100500D01*
X185679306Y-113100500D01*
X185679309Y-113100500D01*
X185793886Y-113069799D01*
X185896613Y-113010489D01*
X185980489Y-112926613D01*
X186039799Y-112823886D01*
X186070500Y-112709309D01*
X186070500Y-112590691D01*
X186039799Y-112476114D01*
X185980489Y-112373387D01*
X185896613Y-112289511D01*
X185793886Y-112230201D01*
X185679309Y-112199500D01*
X185560691Y-112199500D01*
X185446114Y-112230201D01*
X185446112Y-112230201D01*
X185446112Y-112230202D01*
X185343387Y-112289511D01*
X185343384Y-112289513D01*
X185259513Y-112373384D01*
X185259511Y-112373387D01*
X185205975Y-112466114D01*
X185200201Y-112476114D01*
X185169500Y-112590691D01*
X184600500Y-112590691D01*
X184600500Y-112580691D01*
X184569799Y-112466114D01*
X184510489Y-112363387D01*
X184426613Y-112279511D01*
X184323886Y-112220201D01*
X184209309Y-112189500D01*
X184090691Y-112189500D01*
X183976114Y-112220201D01*
X183976112Y-112220201D01*
X183976112Y-112220202D01*
X183873387Y-112279511D01*
X183873384Y-112279513D01*
X183789513Y-112363384D01*
X183789511Y-112363387D01*
X183730201Y-112466114D01*
X183699500Y-112580691D01*
X183137820Y-112580691D01*
X183109799Y-112476114D01*
X183050489Y-112373387D01*
X182966613Y-112289511D01*
X182863886Y-112230201D01*
X182749309Y-112199500D01*
X182630691Y-112199500D01*
X182516114Y-112230201D01*
X182516112Y-112230201D01*
X182516112Y-112230202D01*
X182413387Y-112289511D01*
X182413384Y-112289513D01*
X182329513Y-112373384D01*
X182329511Y-112373387D01*
X182275975Y-112466114D01*
X182270201Y-112476114D01*
X182239500Y-112590691D01*
X151108394Y-112590691D01*
X151029309Y-112569500D01*
X150910691Y-112569500D01*
X150796114Y-112600201D01*
X150796112Y-112600201D01*
X150796112Y-112600202D01*
X150693387Y-112659511D01*
X150693384Y-112659513D01*
X150609513Y-112743384D01*
X150609511Y-112743387D01*
X150550201Y-112846114D01*
X150519500Y-112960691D01*
X102100500Y-112960691D01*
X102100500Y-111687525D01*
X111209500Y-111687525D01*
X111209500Y-111832475D01*
X111247016Y-111972485D01*
X111247017Y-111972488D01*
X111319488Y-112098011D01*
X111319490Y-112098013D01*
X111319491Y-112098015D01*
X111421985Y-112200509D01*
X111421986Y-112200510D01*
X111421988Y-112200511D01*
X111547511Y-112272982D01*
X111547512Y-112272982D01*
X111547515Y-112272984D01*
X111687525Y-112310500D01*
X111687528Y-112310500D01*
X111832472Y-112310500D01*
X111832475Y-112310500D01*
X111972485Y-112272984D01*
X112098015Y-112200509D01*
X112200509Y-112098015D01*
X112222058Y-112060691D01*
X120089500Y-112060691D01*
X120089500Y-112179309D01*
X120120201Y-112293886D01*
X120179511Y-112396613D01*
X120263387Y-112480489D01*
X120366114Y-112539799D01*
X120480691Y-112570500D01*
X120480694Y-112570500D01*
X120599306Y-112570500D01*
X120599309Y-112570500D01*
X120713886Y-112539799D01*
X120816613Y-112480489D01*
X120900489Y-112396613D01*
X120959799Y-112293886D01*
X120990500Y-112179309D01*
X120990500Y-112060691D01*
X120959799Y-111946114D01*
X120900489Y-111843387D01*
X120816613Y-111759511D01*
X120713886Y-111700201D01*
X120599309Y-111669500D01*
X120480691Y-111669500D01*
X120366114Y-111700201D01*
X120366112Y-111700201D01*
X120366112Y-111700202D01*
X120263387Y-111759511D01*
X120263384Y-111759513D01*
X120179513Y-111843384D01*
X120179511Y-111843387D01*
X120120201Y-111946114D01*
X120089500Y-112060691D01*
X112222058Y-112060691D01*
X112272984Y-111972485D01*
X112310500Y-111832475D01*
X112310500Y-111687525D01*
X112272984Y-111547515D01*
X112237335Y-111485769D01*
X123567997Y-111485769D01*
X123567997Y-111604387D01*
X123598698Y-111718964D01*
X123658008Y-111821691D01*
X123741884Y-111905567D01*
X123844611Y-111964877D01*
X123959188Y-111995578D01*
X123959191Y-111995578D01*
X124077803Y-111995578D01*
X124077806Y-111995578D01*
X124192383Y-111964877D01*
X124295110Y-111905567D01*
X124378986Y-111821691D01*
X124438296Y-111718964D01*
X124446720Y-111687525D01*
X126449500Y-111687525D01*
X126449500Y-111832475D01*
X126487016Y-111972485D01*
X126487017Y-111972488D01*
X126559488Y-112098011D01*
X126559490Y-112098013D01*
X126559491Y-112098015D01*
X126661985Y-112200509D01*
X126661986Y-112200510D01*
X126661988Y-112200511D01*
X126787511Y-112272982D01*
X126787512Y-112272982D01*
X126787515Y-112272984D01*
X126927525Y-112310500D01*
X126927528Y-112310500D01*
X127072472Y-112310500D01*
X127072475Y-112310500D01*
X127212485Y-112272984D01*
X127338015Y-112200509D01*
X127440509Y-112098015D01*
X127512984Y-111972485D01*
X127550500Y-111832475D01*
X127550500Y-111687525D01*
X131529500Y-111687525D01*
X131529500Y-111832475D01*
X131567016Y-111972485D01*
X131567017Y-111972488D01*
X131639488Y-112098011D01*
X131639490Y-112098013D01*
X131639491Y-112098015D01*
X131741985Y-112200509D01*
X131741986Y-112200510D01*
X131741988Y-112200511D01*
X131867511Y-112272982D01*
X131867512Y-112272982D01*
X131867515Y-112272984D01*
X132007525Y-112310500D01*
X132007528Y-112310500D01*
X132152472Y-112310500D01*
X132152475Y-112310500D01*
X132292485Y-112272984D01*
X132418015Y-112200509D01*
X132520509Y-112098015D01*
X132592984Y-111972485D01*
X132630500Y-111832475D01*
X132630500Y-111687525D01*
X136609500Y-111687525D01*
X136609500Y-111832475D01*
X136647016Y-111972485D01*
X136647017Y-111972488D01*
X136719488Y-112098011D01*
X136719490Y-112098013D01*
X136719491Y-112098015D01*
X136821985Y-112200509D01*
X136821986Y-112200510D01*
X136821988Y-112200511D01*
X136947511Y-112272982D01*
X136947512Y-112272982D01*
X136947515Y-112272984D01*
X137087525Y-112310500D01*
X137087528Y-112310500D01*
X137232472Y-112310500D01*
X137232475Y-112310500D01*
X137372485Y-112272984D01*
X137498015Y-112200509D01*
X137600509Y-112098015D01*
X137672984Y-111972485D01*
X137710500Y-111832475D01*
X137710500Y-111687525D01*
X162009500Y-111687525D01*
X162009500Y-111832475D01*
X162047016Y-111972485D01*
X162047017Y-111972488D01*
X162119488Y-112098011D01*
X162119490Y-112098013D01*
X162119491Y-112098015D01*
X162221985Y-112200509D01*
X162221986Y-112200510D01*
X162221988Y-112200511D01*
X162347511Y-112272982D01*
X162347512Y-112272982D01*
X162347515Y-112272984D01*
X162487525Y-112310500D01*
X162487528Y-112310500D01*
X162632472Y-112310500D01*
X162632475Y-112310500D01*
X162772485Y-112272984D01*
X162898015Y-112200509D01*
X163000509Y-112098015D01*
X163072984Y-111972485D01*
X163110500Y-111832475D01*
X163110500Y-111687525D01*
X167089500Y-111687525D01*
X167089500Y-111832475D01*
X167127016Y-111972485D01*
X167127017Y-111972488D01*
X167199488Y-112098011D01*
X167199490Y-112098013D01*
X167199491Y-112098015D01*
X167301985Y-112200509D01*
X167301986Y-112200510D01*
X167301988Y-112200511D01*
X167427511Y-112272982D01*
X167427512Y-112272982D01*
X167427515Y-112272984D01*
X167567525Y-112310500D01*
X167567528Y-112310500D01*
X167712472Y-112310500D01*
X167712475Y-112310500D01*
X167852485Y-112272984D01*
X167978015Y-112200509D01*
X168080509Y-112098015D01*
X168152984Y-111972485D01*
X168190500Y-111832475D01*
X168190500Y-111687525D01*
X172169500Y-111687525D01*
X172169500Y-111832475D01*
X172207016Y-111972485D01*
X172207017Y-111972488D01*
X172279488Y-112098011D01*
X172279490Y-112098013D01*
X172279491Y-112098015D01*
X172381985Y-112200509D01*
X172381986Y-112200510D01*
X172381988Y-112200511D01*
X172507511Y-112272982D01*
X172507512Y-112272982D01*
X172507515Y-112272984D01*
X172647525Y-112310500D01*
X172647528Y-112310500D01*
X172792472Y-112310500D01*
X172792475Y-112310500D01*
X172932485Y-112272984D01*
X173058015Y-112200509D01*
X173160509Y-112098015D01*
X173232984Y-111972485D01*
X173270500Y-111832475D01*
X173270500Y-111687525D01*
X177249500Y-111687525D01*
X177249500Y-111832475D01*
X177287016Y-111972485D01*
X177287017Y-111972488D01*
X177359488Y-112098011D01*
X177359490Y-112098013D01*
X177359491Y-112098015D01*
X177461985Y-112200509D01*
X177461986Y-112200510D01*
X177461988Y-112200511D01*
X177587511Y-112272982D01*
X177587512Y-112272982D01*
X177587515Y-112272984D01*
X177727525Y-112310500D01*
X177727528Y-112310500D01*
X177872472Y-112310500D01*
X177872475Y-112310500D01*
X178012485Y-112272984D01*
X178138015Y-112200509D01*
X178240509Y-112098015D01*
X178312984Y-111972485D01*
X178350500Y-111832475D01*
X178350500Y-111687525D01*
X178312984Y-111547515D01*
X178240509Y-111421985D01*
X178138015Y-111319491D01*
X178138013Y-111319490D01*
X178138011Y-111319488D01*
X178012488Y-111247017D01*
X178012489Y-111247017D01*
X178001006Y-111243940D01*
X177872475Y-111209500D01*
X177727525Y-111209500D01*
X177598993Y-111243940D01*
X177587511Y-111247017D01*
X177461988Y-111319488D01*
X177461982Y-111319493D01*
X177359493Y-111421982D01*
X177359488Y-111421988D01*
X177287017Y-111547511D01*
X177287016Y-111547515D01*
X177249500Y-111687525D01*
X173270500Y-111687525D01*
X173232984Y-111547515D01*
X173160509Y-111421985D01*
X173058015Y-111319491D01*
X173058013Y-111319490D01*
X173058011Y-111319488D01*
X172932488Y-111247017D01*
X172932489Y-111247017D01*
X172921006Y-111243940D01*
X172792475Y-111209500D01*
X172647525Y-111209500D01*
X172518993Y-111243940D01*
X172507511Y-111247017D01*
X172381988Y-111319488D01*
X172381982Y-111319493D01*
X172279493Y-111421982D01*
X172279488Y-111421988D01*
X172207017Y-111547511D01*
X172207016Y-111547515D01*
X172169500Y-111687525D01*
X168190500Y-111687525D01*
X168152984Y-111547515D01*
X168080509Y-111421985D01*
X167978015Y-111319491D01*
X167978013Y-111319490D01*
X167978011Y-111319488D01*
X167852488Y-111247017D01*
X167852489Y-111247017D01*
X167841006Y-111243940D01*
X167712475Y-111209500D01*
X167567525Y-111209500D01*
X167438993Y-111243940D01*
X167427511Y-111247017D01*
X167301988Y-111319488D01*
X167301982Y-111319493D01*
X167199493Y-111421982D01*
X167199488Y-111421988D01*
X167127017Y-111547511D01*
X167127016Y-111547515D01*
X167089500Y-111687525D01*
X163110500Y-111687525D01*
X163072984Y-111547515D01*
X163000509Y-111421985D01*
X162898015Y-111319491D01*
X162898013Y-111319490D01*
X162898011Y-111319488D01*
X162772488Y-111247017D01*
X162772489Y-111247017D01*
X162761006Y-111243940D01*
X162632475Y-111209500D01*
X162487525Y-111209500D01*
X162358993Y-111243940D01*
X162347511Y-111247017D01*
X162221988Y-111319488D01*
X162221982Y-111319493D01*
X162119493Y-111421982D01*
X162119488Y-111421988D01*
X162047017Y-111547511D01*
X162047016Y-111547515D01*
X162009500Y-111687525D01*
X137710500Y-111687525D01*
X137672984Y-111547515D01*
X137600509Y-111421985D01*
X137498015Y-111319491D01*
X137498013Y-111319490D01*
X137498011Y-111319488D01*
X137372488Y-111247017D01*
X137372489Y-111247017D01*
X137361006Y-111243940D01*
X137232475Y-111209500D01*
X137087525Y-111209500D01*
X136958993Y-111243940D01*
X136947511Y-111247017D01*
X136821988Y-111319488D01*
X136821982Y-111319493D01*
X136719493Y-111421982D01*
X136719488Y-111421988D01*
X136647017Y-111547511D01*
X136647016Y-111547515D01*
X136609500Y-111687525D01*
X132630500Y-111687525D01*
X132592984Y-111547515D01*
X132520509Y-111421985D01*
X132418015Y-111319491D01*
X132418013Y-111319490D01*
X132418011Y-111319488D01*
X132292488Y-111247017D01*
X132292489Y-111247017D01*
X132281006Y-111243940D01*
X132152475Y-111209500D01*
X132007525Y-111209500D01*
X131878993Y-111243940D01*
X131867511Y-111247017D01*
X131741988Y-111319488D01*
X131741982Y-111319493D01*
X131639493Y-111421982D01*
X131639488Y-111421988D01*
X131567017Y-111547511D01*
X131567016Y-111547515D01*
X131529500Y-111687525D01*
X127550500Y-111687525D01*
X127512984Y-111547515D01*
X127440509Y-111421985D01*
X127338015Y-111319491D01*
X127338013Y-111319490D01*
X127338011Y-111319488D01*
X127212488Y-111247017D01*
X127212489Y-111247017D01*
X127201006Y-111243940D01*
X127072475Y-111209500D01*
X126927525Y-111209500D01*
X126798993Y-111243940D01*
X126787511Y-111247017D01*
X126661988Y-111319488D01*
X126661982Y-111319493D01*
X126559493Y-111421982D01*
X126559488Y-111421988D01*
X126487017Y-111547511D01*
X126487016Y-111547515D01*
X126449500Y-111687525D01*
X124446720Y-111687525D01*
X124468997Y-111604387D01*
X124468997Y-111485769D01*
X124438296Y-111371192D01*
X124378986Y-111268465D01*
X124295110Y-111184589D01*
X124192383Y-111125279D01*
X124077806Y-111094578D01*
X123959188Y-111094578D01*
X123844611Y-111125279D01*
X123844609Y-111125279D01*
X123844609Y-111125280D01*
X123741884Y-111184589D01*
X123741881Y-111184591D01*
X123658010Y-111268462D01*
X123658008Y-111268465D01*
X123598698Y-111371192D01*
X123567997Y-111485769D01*
X112237335Y-111485769D01*
X112200509Y-111421985D01*
X112098015Y-111319491D01*
X112098013Y-111319490D01*
X112098011Y-111319488D01*
X111972488Y-111247017D01*
X111972489Y-111247017D01*
X111961006Y-111243940D01*
X111832475Y-111209500D01*
X111687525Y-111209500D01*
X111558993Y-111243940D01*
X111547511Y-111247017D01*
X111421988Y-111319488D01*
X111421982Y-111319493D01*
X111319493Y-111421982D01*
X111319488Y-111421988D01*
X111247017Y-111547511D01*
X111247016Y-111547515D01*
X111209500Y-111687525D01*
X102100500Y-111687525D01*
X102100500Y-107640691D01*
X120079500Y-107640691D01*
X120079500Y-107759309D01*
X120110201Y-107873886D01*
X120169511Y-107976613D01*
X120253387Y-108060489D01*
X120356114Y-108119799D01*
X120470691Y-108150500D01*
X120470694Y-108150500D01*
X120589306Y-108150500D01*
X120589309Y-108150500D01*
X120703886Y-108119799D01*
X120806613Y-108060489D01*
X120890489Y-107976613D01*
X120949799Y-107873886D01*
X120980500Y-107759309D01*
X120980500Y-107640691D01*
X120949799Y-107526114D01*
X120890489Y-107423387D01*
X120806613Y-107339511D01*
X120703886Y-107280201D01*
X120589309Y-107249500D01*
X120470691Y-107249500D01*
X120356114Y-107280201D01*
X120356112Y-107280201D01*
X120356112Y-107280202D01*
X120253387Y-107339511D01*
X120253384Y-107339513D01*
X120169513Y-107423384D01*
X120169511Y-107423387D01*
X120110201Y-107526114D01*
X120079500Y-107640691D01*
X102100500Y-107640691D01*
X102100500Y-106540691D01*
X160699500Y-106540691D01*
X160699500Y-106659309D01*
X160730201Y-106773886D01*
X160789511Y-106876613D01*
X160873387Y-106960489D01*
X160976114Y-107019799D01*
X161090691Y-107050500D01*
X161090694Y-107050500D01*
X161209306Y-107050500D01*
X161209309Y-107050500D01*
X161323886Y-107019799D01*
X161426613Y-106960489D01*
X161510489Y-106876613D01*
X161569799Y-106773886D01*
X161600500Y-106659309D01*
X161600500Y-106638807D01*
X161620185Y-106571768D01*
X161672989Y-106526013D01*
X161742147Y-106516069D01*
X161805703Y-106545094D01*
X161831886Y-106576805D01*
X161889511Y-106676613D01*
X161973387Y-106760489D01*
X162076114Y-106819799D01*
X162190691Y-106850500D01*
X162190694Y-106850500D01*
X162309306Y-106850500D01*
X162309309Y-106850500D01*
X162423886Y-106819799D01*
X162526613Y-106760489D01*
X162610489Y-106676613D01*
X162669799Y-106573886D01*
X162700500Y-106459309D01*
X162700500Y-106438807D01*
X162720185Y-106371768D01*
X162772989Y-106326013D01*
X162842147Y-106316069D01*
X162905703Y-106345094D01*
X162931886Y-106376805D01*
X162989511Y-106476613D01*
X163073387Y-106560489D01*
X163176114Y-106619799D01*
X163290691Y-106650500D01*
X163290694Y-106650500D01*
X163409306Y-106650500D01*
X163409309Y-106650500D01*
X163523886Y-106619799D01*
X163626613Y-106560489D01*
X163710489Y-106476613D01*
X163769799Y-106373886D01*
X163800500Y-106259309D01*
X163800500Y-106238807D01*
X163820185Y-106171768D01*
X163872989Y-106126013D01*
X163942147Y-106116069D01*
X164005703Y-106145094D01*
X164031886Y-106176805D01*
X164089511Y-106276613D01*
X164173387Y-106360489D01*
X164276114Y-106419799D01*
X164390691Y-106450500D01*
X164390694Y-106450500D01*
X164509306Y-106450500D01*
X164509309Y-106450500D01*
X164623886Y-106419799D01*
X164726613Y-106360489D01*
X164810489Y-106276613D01*
X164831228Y-106240691D01*
X165649530Y-106240691D01*
X165649530Y-106359309D01*
X165680231Y-106473886D01*
X165739541Y-106576613D01*
X165823417Y-106660489D01*
X165926144Y-106719799D01*
X166040721Y-106750500D01*
X166040724Y-106750500D01*
X166159336Y-106750500D01*
X166159339Y-106750500D01*
X166273916Y-106719799D01*
X166376643Y-106660489D01*
X166460519Y-106576613D01*
X166481258Y-106540691D01*
X167299500Y-106540691D01*
X167299500Y-106659309D01*
X167330201Y-106773886D01*
X167389511Y-106876613D01*
X167473387Y-106960489D01*
X167576114Y-107019799D01*
X167690691Y-107050500D01*
X167690694Y-107050500D01*
X167809306Y-107050500D01*
X167809309Y-107050500D01*
X167923886Y-107019799D01*
X168026613Y-106960489D01*
X168110489Y-106876613D01*
X168169799Y-106773886D01*
X168200500Y-106659309D01*
X168200500Y-106629667D01*
X168220185Y-106562628D01*
X168272989Y-106516873D01*
X168342147Y-106506929D01*
X168405703Y-106535954D01*
X168433713Y-106574800D01*
X168434624Y-106574275D01*
X168438687Y-106581313D01*
X168438688Y-106581314D01*
X168497998Y-106684041D01*
X168581874Y-106767917D01*
X168684601Y-106827227D01*
X168799178Y-106857928D01*
X168799181Y-106857928D01*
X168917793Y-106857928D01*
X168917796Y-106857928D01*
X169032373Y-106827227D01*
X169135100Y-106767917D01*
X169218976Y-106684041D01*
X169278286Y-106581314D01*
X169308987Y-106466737D01*
X169308987Y-106348119D01*
X169278286Y-106233542D01*
X169218976Y-106130815D01*
X169135100Y-106046939D01*
X169032373Y-105987629D01*
X168917796Y-105956928D01*
X168799178Y-105956928D01*
X168684601Y-105987629D01*
X168684599Y-105987629D01*
X168684599Y-105987630D01*
X168581874Y-106046939D01*
X168581871Y-106046941D01*
X168498000Y-106130812D01*
X168497998Y-106130815D01*
X168442977Y-106226114D01*
X168438688Y-106233542D01*
X168407987Y-106348119D01*
X168407987Y-106348121D01*
X168407987Y-106377760D01*
X168388302Y-106444799D01*
X168335498Y-106490554D01*
X168266340Y-106500498D01*
X168202784Y-106471473D01*
X168174773Y-106432627D01*
X168173863Y-106433153D01*
X168169798Y-106426112D01*
X168110489Y-106323387D01*
X168026613Y-106239511D01*
X167923886Y-106180201D01*
X167809309Y-106149500D01*
X167690691Y-106149500D01*
X167576114Y-106180201D01*
X167576112Y-106180201D01*
X167576112Y-106180202D01*
X167473387Y-106239511D01*
X167473384Y-106239513D01*
X167389513Y-106323384D01*
X167389511Y-106323387D01*
X167360355Y-106373887D01*
X167330201Y-106426114D01*
X167299500Y-106540691D01*
X166481258Y-106540691D01*
X166497721Y-106512177D01*
X166519825Y-106473894D01*
X166519827Y-106473890D01*
X166519828Y-106473887D01*
X166519829Y-106473886D01*
X166550530Y-106359309D01*
X166550530Y-106240691D01*
X166519829Y-106126114D01*
X166460519Y-106023387D01*
X166376643Y-105939511D01*
X166273916Y-105880201D01*
X166159339Y-105849500D01*
X166040721Y-105849500D01*
X165926144Y-105880201D01*
X165926142Y-105880201D01*
X165926142Y-105880202D01*
X165823417Y-105939511D01*
X165823414Y-105939513D01*
X165739543Y-106023384D01*
X165739541Y-106023387D01*
X165686031Y-106116069D01*
X165680231Y-106126114D01*
X165649530Y-106240691D01*
X164831228Y-106240691D01*
X164847691Y-106212177D01*
X164869795Y-106173894D01*
X164869797Y-106173890D01*
X164869797Y-106173888D01*
X164869799Y-106173886D01*
X164900500Y-106059309D01*
X164900500Y-105940691D01*
X164869799Y-105826114D01*
X164810489Y-105723387D01*
X164726613Y-105639511D01*
X164623886Y-105580201D01*
X164509309Y-105549500D01*
X164390691Y-105549500D01*
X164276114Y-105580201D01*
X164276112Y-105580201D01*
X164276112Y-105580202D01*
X164173387Y-105639511D01*
X164173384Y-105639513D01*
X164089513Y-105723384D01*
X164089511Y-105723387D01*
X164038341Y-105812016D01*
X164030201Y-105826114D01*
X163999500Y-105940691D01*
X163999500Y-105940693D01*
X163999500Y-105961192D01*
X163979815Y-106028231D01*
X163927011Y-106073986D01*
X163857853Y-106083930D01*
X163794297Y-106054905D01*
X163768114Y-106023193D01*
X163720481Y-105940693D01*
X163710489Y-105923387D01*
X163626613Y-105839511D01*
X163523886Y-105780201D01*
X163409309Y-105749500D01*
X163290691Y-105749500D01*
X163176114Y-105780201D01*
X163176112Y-105780201D01*
X163176112Y-105780202D01*
X163073387Y-105839511D01*
X163073384Y-105839513D01*
X162989513Y-105923384D01*
X162989511Y-105923387D01*
X162952421Y-105987629D01*
X162930201Y-106026114D01*
X162899500Y-106140691D01*
X162899500Y-106140693D01*
X162899500Y-106161192D01*
X162879815Y-106228231D01*
X162827011Y-106273986D01*
X162757853Y-106283930D01*
X162694297Y-106254905D01*
X162668114Y-106223193D01*
X162620481Y-106140693D01*
X162610489Y-106123387D01*
X162526613Y-106039511D01*
X162423886Y-105980201D01*
X162309309Y-105949500D01*
X162190691Y-105949500D01*
X162076114Y-105980201D01*
X162076112Y-105980201D01*
X162076112Y-105980202D01*
X161973387Y-106039511D01*
X161973384Y-106039513D01*
X161889513Y-106123384D01*
X161889511Y-106123387D01*
X161856709Y-106180202D01*
X161830201Y-106226114D01*
X161799500Y-106340691D01*
X161799500Y-106340693D01*
X161799500Y-106361192D01*
X161779815Y-106428231D01*
X161727011Y-106473986D01*
X161657853Y-106483930D01*
X161594297Y-106454905D01*
X161568114Y-106423193D01*
X161520481Y-106340693D01*
X161510489Y-106323387D01*
X161426613Y-106239511D01*
X161323886Y-106180201D01*
X161209309Y-106149500D01*
X161090691Y-106149500D01*
X160976114Y-106180201D01*
X160976112Y-106180201D01*
X160976112Y-106180202D01*
X160873387Y-106239511D01*
X160873384Y-106239513D01*
X160789513Y-106323384D01*
X160789511Y-106323387D01*
X160760355Y-106373887D01*
X160730201Y-106426114D01*
X160699500Y-106540691D01*
X102100500Y-106540691D01*
X102100500Y-105330258D01*
X133669637Y-105330258D01*
X133669637Y-105448876D01*
X133700338Y-105563453D01*
X133759648Y-105666180D01*
X133843524Y-105750056D01*
X133946251Y-105809366D01*
X134060828Y-105840067D01*
X134060831Y-105840067D01*
X134179444Y-105840067D01*
X134179446Y-105840067D01*
X134294023Y-105809366D01*
X134330835Y-105788111D01*
X134398734Y-105771637D01*
X134454836Y-105788109D01*
X134496247Y-105812018D01*
X134610824Y-105842719D01*
X134610827Y-105842719D01*
X134729439Y-105842719D01*
X134729442Y-105842719D01*
X134844019Y-105812018D01*
X134883519Y-105789211D01*
X134951414Y-105772739D01*
X135007518Y-105789213D01*
X135046243Y-105811571D01*
X135046244Y-105811572D01*
X135046246Y-105811572D01*
X135046249Y-105811574D01*
X135160826Y-105842275D01*
X135160829Y-105842275D01*
X135279441Y-105842275D01*
X135279444Y-105842275D01*
X135394021Y-105811574D01*
X135496748Y-105752264D01*
X135580624Y-105668388D01*
X135639934Y-105565661D01*
X135670635Y-105451084D01*
X135670635Y-105332466D01*
X135639934Y-105217889D01*
X135580624Y-105115162D01*
X135496748Y-105031286D01*
X135394021Y-104971976D01*
X135279444Y-104941275D01*
X135160826Y-104941275D01*
X135092079Y-104959695D01*
X135046247Y-104971976D01*
X135046244Y-104971978D01*
X135006747Y-104994781D01*
X134938846Y-105011252D01*
X134882749Y-104994780D01*
X134844022Y-104972421D01*
X134844023Y-104972421D01*
X134834122Y-104969768D01*
X134729442Y-104941719D01*
X134610824Y-104941719D01*
X134506144Y-104969768D01*
X134496243Y-104972421D01*
X134459431Y-104993675D01*
X134391531Y-105010148D01*
X134335430Y-104993674D01*
X134294028Y-104969770D01*
X134294027Y-104969769D01*
X134284631Y-104967251D01*
X134179446Y-104939067D01*
X134060828Y-104939067D01*
X133946251Y-104969768D01*
X133946250Y-104969768D01*
X133946248Y-104969769D01*
X133931549Y-104978255D01*
X133931367Y-104978361D01*
X133843524Y-105029078D01*
X133842036Y-105030565D01*
X133842034Y-105030567D01*
X133759650Y-105112951D01*
X133759648Y-105112954D01*
X133700338Y-105215681D01*
X133669637Y-105330258D01*
X102100500Y-105330258D01*
X102100500Y-104067525D01*
X126449500Y-104067525D01*
X126449500Y-104212475D01*
X126486216Y-104349500D01*
X126487017Y-104352488D01*
X126559488Y-104478011D01*
X126559490Y-104478013D01*
X126559491Y-104478015D01*
X126661985Y-104580509D01*
X126661986Y-104580510D01*
X126661988Y-104580511D01*
X126787511Y-104652982D01*
X126787512Y-104652982D01*
X126787515Y-104652984D01*
X126927525Y-104690500D01*
X126927528Y-104690500D01*
X127072472Y-104690500D01*
X127072475Y-104690500D01*
X127212485Y-104652984D01*
X127338015Y-104580509D01*
X127440509Y-104478015D01*
X127512984Y-104352485D01*
X127550500Y-104212475D01*
X127550500Y-104067525D01*
X131529500Y-104067525D01*
X131529500Y-104212475D01*
X131566216Y-104349500D01*
X131567017Y-104352488D01*
X131639488Y-104478011D01*
X131639490Y-104478013D01*
X131639491Y-104478015D01*
X131741985Y-104580509D01*
X131741986Y-104580510D01*
X131741988Y-104580511D01*
X131867511Y-104652982D01*
X131867512Y-104652982D01*
X131867515Y-104652984D01*
X132007525Y-104690500D01*
X132007528Y-104690500D01*
X132152472Y-104690500D01*
X132152475Y-104690500D01*
X132292485Y-104652984D01*
X132418015Y-104580509D01*
X132520509Y-104478015D01*
X132592984Y-104352485D01*
X132593465Y-104350691D01*
X133069500Y-104350691D01*
X133069500Y-104469309D01*
X133100201Y-104583886D01*
X133159511Y-104686613D01*
X133243387Y-104770489D01*
X133346114Y-104829799D01*
X133460691Y-104860500D01*
X133460694Y-104860500D01*
X133579306Y-104860500D01*
X133579309Y-104860500D01*
X133693886Y-104829799D01*
X133796613Y-104770489D01*
X133826411Y-104740691D01*
X153449500Y-104740691D01*
X153449500Y-104859309D01*
X153480201Y-104973886D01*
X153539511Y-105076613D01*
X153623387Y-105160489D01*
X153726114Y-105219799D01*
X153840691Y-105250500D01*
X153840694Y-105250500D01*
X153959306Y-105250500D01*
X153959309Y-105250500D01*
X154073886Y-105219799D01*
X154176613Y-105160489D01*
X154260489Y-105076613D01*
X154319799Y-104973886D01*
X154350500Y-104859309D01*
X154350500Y-104740691D01*
X154319799Y-104626114D01*
X154260489Y-104523387D01*
X154176613Y-104439511D01*
X154073886Y-104380201D01*
X153959309Y-104349500D01*
X153840691Y-104349500D01*
X153736138Y-104377515D01*
X153726110Y-104380202D01*
X153652877Y-104422483D01*
X153652872Y-104422487D01*
X153623387Y-104439511D01*
X153539511Y-104523387D01*
X153522487Y-104552872D01*
X153522483Y-104552877D01*
X153480202Y-104626110D01*
X153480201Y-104626114D01*
X153449500Y-104740691D01*
X133826411Y-104740691D01*
X133880489Y-104686613D01*
X133939799Y-104583886D01*
X133970500Y-104469309D01*
X133970500Y-104350691D01*
X133939799Y-104236114D01*
X133880489Y-104133387D01*
X133796613Y-104049511D01*
X133693886Y-103990201D01*
X133579309Y-103959500D01*
X133460691Y-103959500D01*
X133346114Y-103990201D01*
X133346112Y-103990201D01*
X133346112Y-103990202D01*
X133243387Y-104049511D01*
X133243384Y-104049513D01*
X133159513Y-104133384D01*
X133159511Y-104133387D01*
X133136128Y-104173888D01*
X133100201Y-104236114D01*
X133069500Y-104350691D01*
X132593465Y-104350691D01*
X132630500Y-104212475D01*
X132630500Y-104067525D01*
X132596515Y-103940691D01*
X152649500Y-103940691D01*
X152649500Y-104059309D01*
X152680201Y-104173886D01*
X152739511Y-104276613D01*
X152823387Y-104360489D01*
X152926114Y-104419799D01*
X153040691Y-104450500D01*
X153040694Y-104450500D01*
X153159306Y-104450500D01*
X153159309Y-104450500D01*
X153273886Y-104419799D01*
X153376613Y-104360489D01*
X153460489Y-104276613D01*
X153519799Y-104173886D01*
X153548299Y-104067525D01*
X177249500Y-104067525D01*
X177249500Y-104212475D01*
X177286216Y-104349500D01*
X177287017Y-104352488D01*
X177359488Y-104478011D01*
X177359490Y-104478013D01*
X177359491Y-104478015D01*
X177461985Y-104580509D01*
X177461986Y-104580510D01*
X177461988Y-104580511D01*
X177587511Y-104652982D01*
X177587512Y-104652982D01*
X177587515Y-104652984D01*
X177727525Y-104690500D01*
X177727528Y-104690500D01*
X177872472Y-104690500D01*
X177872475Y-104690500D01*
X178012485Y-104652984D01*
X178138015Y-104580509D01*
X178240509Y-104478015D01*
X178312984Y-104352485D01*
X178350500Y-104212475D01*
X178350500Y-104067525D01*
X182329500Y-104067525D01*
X182329500Y-104212475D01*
X182366216Y-104349500D01*
X182367017Y-104352488D01*
X182439488Y-104478011D01*
X182439490Y-104478013D01*
X182439491Y-104478015D01*
X182541985Y-104580509D01*
X182541986Y-104580510D01*
X182541988Y-104580511D01*
X182667511Y-104652982D01*
X182667512Y-104652982D01*
X182667515Y-104652984D01*
X182807525Y-104690500D01*
X182807528Y-104690500D01*
X182952472Y-104690500D01*
X182952475Y-104690500D01*
X183092485Y-104652984D01*
X183218015Y-104580509D01*
X183320509Y-104478015D01*
X183392984Y-104352485D01*
X183430500Y-104212475D01*
X183430500Y-104067525D01*
X183392984Y-103927515D01*
X183320509Y-103801985D01*
X183218015Y-103699491D01*
X183218013Y-103699490D01*
X183218011Y-103699488D01*
X183092488Y-103627017D01*
X183092489Y-103627017D01*
X183065551Y-103619799D01*
X182952475Y-103589500D01*
X182807525Y-103589500D01*
X182694449Y-103619799D01*
X182667511Y-103627017D01*
X182541988Y-103699488D01*
X182541982Y-103699493D01*
X182439493Y-103801982D01*
X182439488Y-103801988D01*
X182367017Y-103927511D01*
X182367016Y-103927515D01*
X182329500Y-104067525D01*
X178350500Y-104067525D01*
X178312984Y-103927515D01*
X178240509Y-103801985D01*
X178138015Y-103699491D01*
X178138013Y-103699490D01*
X178138011Y-103699488D01*
X178012488Y-103627017D01*
X178012489Y-103627017D01*
X177985551Y-103619799D01*
X177872475Y-103589500D01*
X177727525Y-103589500D01*
X177614449Y-103619799D01*
X177587511Y-103627017D01*
X177461988Y-103699488D01*
X177461982Y-103699493D01*
X177359493Y-103801982D01*
X177359488Y-103801988D01*
X177287017Y-103927511D01*
X177287016Y-103927515D01*
X177249500Y-104067525D01*
X153548299Y-104067525D01*
X153550500Y-104059309D01*
X153550500Y-103940691D01*
X153519799Y-103826114D01*
X153460489Y-103723387D01*
X153376613Y-103639511D01*
X153273886Y-103580201D01*
X153159309Y-103549500D01*
X153040691Y-103549500D01*
X152936138Y-103577515D01*
X152926110Y-103580202D01*
X152852877Y-103622483D01*
X152852872Y-103622487D01*
X152823387Y-103639511D01*
X152739511Y-103723387D01*
X152722487Y-103752872D01*
X152722483Y-103752877D01*
X152680202Y-103826110D01*
X152680201Y-103826114D01*
X152649500Y-103940691D01*
X132596515Y-103940691D01*
X132592984Y-103927515D01*
X132520509Y-103801985D01*
X132418015Y-103699491D01*
X132418013Y-103699490D01*
X132418011Y-103699488D01*
X132292488Y-103627017D01*
X132292489Y-103627017D01*
X132265551Y-103619799D01*
X132152475Y-103589500D01*
X132007525Y-103589500D01*
X131894449Y-103619799D01*
X131867511Y-103627017D01*
X131741988Y-103699488D01*
X131741982Y-103699493D01*
X131639493Y-103801982D01*
X131639488Y-103801988D01*
X131567017Y-103927511D01*
X131567016Y-103927515D01*
X131529500Y-104067525D01*
X127550500Y-104067525D01*
X127512984Y-103927515D01*
X127440509Y-103801985D01*
X127338015Y-103699491D01*
X127338013Y-103699490D01*
X127338011Y-103699488D01*
X127212488Y-103627017D01*
X127212489Y-103627017D01*
X127185551Y-103619799D01*
X127072475Y-103589500D01*
X126927525Y-103589500D01*
X126814449Y-103619799D01*
X126787511Y-103627017D01*
X126661988Y-103699488D01*
X126661982Y-103699493D01*
X126559493Y-103801982D01*
X126559488Y-103801988D01*
X126487017Y-103927511D01*
X126487016Y-103927515D01*
X126449500Y-104067525D01*
X102100500Y-104067525D01*
X102100500Y-103070691D01*
X133619500Y-103070691D01*
X133619500Y-103189309D01*
X133650201Y-103303886D01*
X133709511Y-103406613D01*
X133793387Y-103490489D01*
X133896114Y-103549799D01*
X134010691Y-103580500D01*
X134010694Y-103580500D01*
X134129306Y-103580500D01*
X134129309Y-103580500D01*
X134243886Y-103549799D01*
X134346613Y-103490489D01*
X134430489Y-103406613D01*
X134489799Y-103303886D01*
X134520500Y-103189309D01*
X134520500Y-103140691D01*
X151049500Y-103140691D01*
X151049500Y-103259309D01*
X151080201Y-103373886D01*
X151139511Y-103476613D01*
X151223387Y-103560489D01*
X151326114Y-103619799D01*
X151440691Y-103650500D01*
X151440694Y-103650500D01*
X151559306Y-103650500D01*
X151559309Y-103650500D01*
X151673886Y-103619799D01*
X151776613Y-103560489D01*
X151812319Y-103524783D01*
X151873642Y-103491298D01*
X151943334Y-103496282D01*
X151987681Y-103524783D01*
X152023387Y-103560489D01*
X152126114Y-103619799D01*
X152240691Y-103650500D01*
X152240694Y-103650500D01*
X152359306Y-103650500D01*
X152359309Y-103650500D01*
X152473886Y-103619799D01*
X152576613Y-103560489D01*
X152660489Y-103476613D01*
X152719799Y-103373886D01*
X152750500Y-103259309D01*
X152750500Y-103140691D01*
X152719799Y-103026114D01*
X152660489Y-102923387D01*
X152576613Y-102839511D01*
X152473886Y-102780201D01*
X152359309Y-102749500D01*
X152240691Y-102749500D01*
X152126114Y-102780201D01*
X152126112Y-102780201D01*
X152126112Y-102780202D01*
X152023387Y-102839511D01*
X152023384Y-102839513D01*
X151987681Y-102875217D01*
X151926358Y-102908702D01*
X151856666Y-102903718D01*
X151812319Y-102875217D01*
X151776615Y-102839513D01*
X151776613Y-102839511D01*
X151673886Y-102780201D01*
X151559309Y-102749500D01*
X151440691Y-102749500D01*
X151336138Y-102777515D01*
X151326110Y-102780202D01*
X151252877Y-102822483D01*
X151252872Y-102822487D01*
X151223387Y-102839511D01*
X151139511Y-102923387D01*
X151122487Y-102952872D01*
X151122483Y-102952877D01*
X151080202Y-103026110D01*
X151080201Y-103026114D01*
X151049500Y-103140691D01*
X134520500Y-103140691D01*
X134520500Y-103070691D01*
X134489799Y-102956114D01*
X134474412Y-102929463D01*
X134457940Y-102861567D01*
X134474412Y-102805469D01*
X134504194Y-102753886D01*
X134534895Y-102639309D01*
X134534895Y-102520691D01*
X134504194Y-102406114D01*
X134466422Y-102340691D01*
X148649500Y-102340691D01*
X148649500Y-102459309D01*
X148680201Y-102573886D01*
X148739511Y-102676613D01*
X148823387Y-102760489D01*
X148926114Y-102819799D01*
X149040691Y-102850500D01*
X149040694Y-102850500D01*
X149159306Y-102850500D01*
X149159309Y-102850500D01*
X149273886Y-102819799D01*
X149376613Y-102760489D01*
X149412319Y-102724783D01*
X149473642Y-102691298D01*
X149543334Y-102696282D01*
X149587681Y-102724783D01*
X149623387Y-102760489D01*
X149726114Y-102819799D01*
X149840691Y-102850500D01*
X149840694Y-102850500D01*
X149959306Y-102850500D01*
X149959309Y-102850500D01*
X150073886Y-102819799D01*
X150176613Y-102760489D01*
X150212319Y-102724783D01*
X150273642Y-102691298D01*
X150343334Y-102696282D01*
X150387681Y-102724783D01*
X150423387Y-102760489D01*
X150526114Y-102819799D01*
X150640691Y-102850500D01*
X150640694Y-102850500D01*
X150759306Y-102850500D01*
X150759309Y-102850500D01*
X150873886Y-102819799D01*
X150976613Y-102760489D01*
X151060489Y-102676613D01*
X151119799Y-102573886D01*
X151150500Y-102459309D01*
X151150500Y-102340691D01*
X154249500Y-102340691D01*
X154249500Y-102459309D01*
X154280201Y-102573886D01*
X154339511Y-102676613D01*
X154339513Y-102676615D01*
X154375217Y-102712319D01*
X154408702Y-102773642D01*
X154403718Y-102843334D01*
X154375217Y-102887681D01*
X154339513Y-102923384D01*
X154339511Y-102923387D01*
X154280201Y-103026114D01*
X154249500Y-103140691D01*
X154249500Y-103259309D01*
X154280201Y-103373886D01*
X154339511Y-103476613D01*
X154423387Y-103560489D01*
X154526114Y-103619799D01*
X154640691Y-103650500D01*
X154640694Y-103650500D01*
X154759306Y-103650500D01*
X154759309Y-103650500D01*
X154873886Y-103619799D01*
X154976613Y-103560489D01*
X155060489Y-103476613D01*
X155119799Y-103373886D01*
X155150500Y-103259309D01*
X155150500Y-103140691D01*
X155119799Y-103026114D01*
X155060489Y-102923387D01*
X155024783Y-102887681D01*
X154991298Y-102826358D01*
X154996282Y-102756666D01*
X155024783Y-102712319D01*
X155040820Y-102696282D01*
X155060489Y-102676613D01*
X155119799Y-102573886D01*
X155150500Y-102459309D01*
X155150500Y-102340691D01*
X155123786Y-102240993D01*
X155124057Y-102229575D01*
X155119965Y-102218909D01*
X155124874Y-102195275D01*
X155125449Y-102171146D01*
X155132218Y-102159921D01*
X155134176Y-102150499D01*
X155154165Y-102123533D01*
X155155061Y-102122048D01*
X155155430Y-102121671D01*
X155210489Y-102066613D01*
X155211952Y-102064078D01*
X155219440Y-102056449D01*
X155243613Y-102042952D01*
X155265980Y-102026618D01*
X155273697Y-102026157D01*
X155280446Y-102022390D01*
X155308079Y-102024105D01*
X155335726Y-102022456D01*
X155339988Y-102023516D01*
X155440691Y-102050500D01*
X155440694Y-102050500D01*
X155559306Y-102050500D01*
X155559309Y-102050500D01*
X155673886Y-102019799D01*
X155776613Y-101960489D01*
X155860489Y-101876613D01*
X155919799Y-101773886D01*
X155950500Y-101659309D01*
X155950500Y-101540691D01*
X155919799Y-101426114D01*
X155860489Y-101323387D01*
X155776613Y-101239511D01*
X155673886Y-101180201D01*
X155559309Y-101149500D01*
X155440691Y-101149500D01*
X155326114Y-101180201D01*
X155326112Y-101180201D01*
X155326112Y-101180202D01*
X155223387Y-101239510D01*
X155133764Y-101329134D01*
X155132563Y-101327933D01*
X155083990Y-101363391D01*
X155014243Y-101367536D01*
X155009972Y-101366472D01*
X154909309Y-101339500D01*
X154790691Y-101339500D01*
X154676114Y-101370201D01*
X154676112Y-101370201D01*
X154676112Y-101370202D01*
X154573387Y-101429511D01*
X154573384Y-101429513D01*
X154489513Y-101513384D01*
X154489511Y-101513387D01*
X154430201Y-101616114D01*
X154399500Y-101730691D01*
X154399500Y-101730693D01*
X154399500Y-101849308D01*
X154426213Y-101949003D01*
X154424550Y-102018853D01*
X154394121Y-102068776D01*
X154339511Y-102123387D01*
X154289621Y-102209799D01*
X154280201Y-102226114D01*
X154249500Y-102340691D01*
X151150500Y-102340691D01*
X151119799Y-102226114D01*
X151060489Y-102123387D01*
X150976613Y-102039511D01*
X150873886Y-101980201D01*
X150759309Y-101949500D01*
X150640691Y-101949500D01*
X150526114Y-101980201D01*
X150526112Y-101980201D01*
X150526112Y-101980202D01*
X150423387Y-102039511D01*
X150423384Y-102039513D01*
X150387681Y-102075217D01*
X150326358Y-102108702D01*
X150256666Y-102103718D01*
X150212319Y-102075217D01*
X150176615Y-102039513D01*
X150176613Y-102039511D01*
X150073886Y-101980201D01*
X149959309Y-101949500D01*
X149840691Y-101949500D01*
X149726114Y-101980201D01*
X149726112Y-101980201D01*
X149726112Y-101980202D01*
X149623387Y-102039511D01*
X149623384Y-102039513D01*
X149587681Y-102075217D01*
X149526358Y-102108702D01*
X149456666Y-102103718D01*
X149412319Y-102075217D01*
X149376615Y-102039513D01*
X149376613Y-102039511D01*
X149273886Y-101980201D01*
X149159309Y-101949500D01*
X149040691Y-101949500D01*
X148926114Y-101980201D01*
X148926112Y-101980201D01*
X148926112Y-101980202D01*
X148823387Y-102039511D01*
X148823384Y-102039513D01*
X148739513Y-102123384D01*
X148739511Y-102123387D01*
X148689621Y-102209799D01*
X148680201Y-102226114D01*
X148649500Y-102340691D01*
X134466422Y-102340691D01*
X134444884Y-102303387D01*
X134361008Y-102219511D01*
X134258281Y-102160201D01*
X134143704Y-102129500D01*
X134025086Y-102129500D01*
X133910509Y-102160201D01*
X133910507Y-102160201D01*
X133910507Y-102160202D01*
X133807782Y-102219511D01*
X133807779Y-102219513D01*
X133723908Y-102303384D01*
X133723906Y-102303387D01*
X133664596Y-102406114D01*
X133633895Y-102520691D01*
X133633895Y-102639309D01*
X133656798Y-102724783D01*
X133664597Y-102753889D01*
X133679980Y-102780533D01*
X133680037Y-102780771D01*
X133680215Y-102780942D01*
X133688241Y-102814584D01*
X133696453Y-102848433D01*
X133696377Y-102848689D01*
X133696429Y-102848905D01*
X133689618Y-102883535D01*
X133685779Y-102894491D01*
X133650201Y-102956114D01*
X133619500Y-103070691D01*
X102100500Y-103070691D01*
X102100500Y-101166228D01*
X104264500Y-101166228D01*
X104264500Y-101333771D01*
X104297182Y-101498074D01*
X104297184Y-101498082D01*
X104361295Y-101652860D01*
X104454373Y-101792162D01*
X104572837Y-101910626D01*
X104647458Y-101960486D01*
X104712137Y-102003703D01*
X104866918Y-102067816D01*
X105031228Y-102100499D01*
X105031232Y-102100500D01*
X105031233Y-102100500D01*
X105748768Y-102100500D01*
X105748769Y-102100499D01*
X105913082Y-102067816D01*
X106067863Y-102003703D01*
X106207162Y-101910626D01*
X106325626Y-101792162D01*
X106366700Y-101730691D01*
X151679500Y-101730691D01*
X151679500Y-101849309D01*
X151710201Y-101963886D01*
X151769511Y-102066613D01*
X151853387Y-102150489D01*
X151956114Y-102209799D01*
X152070691Y-102240500D01*
X152070694Y-102240500D01*
X152189306Y-102240500D01*
X152189309Y-102240500D01*
X152303886Y-102209799D01*
X152406613Y-102150489D01*
X152490489Y-102066613D01*
X152549799Y-101963886D01*
X152580500Y-101849309D01*
X152580500Y-101730691D01*
X152549799Y-101616114D01*
X152490489Y-101513387D01*
X152406613Y-101429511D01*
X152303886Y-101370201D01*
X152189309Y-101339500D01*
X152070691Y-101339500D01*
X151956114Y-101370201D01*
X151956112Y-101370201D01*
X151956112Y-101370202D01*
X151853387Y-101429511D01*
X151853384Y-101429513D01*
X151769513Y-101513384D01*
X151769511Y-101513387D01*
X151710201Y-101616114D01*
X151679500Y-101730691D01*
X106366700Y-101730691D01*
X106418703Y-101652863D01*
X106482816Y-101498082D01*
X106515500Y-101333767D01*
X106515500Y-101166233D01*
X106482816Y-101001918D01*
X106418703Y-100847137D01*
X106361355Y-100761310D01*
X106325626Y-100707837D01*
X106207162Y-100589373D01*
X106067860Y-100496295D01*
X105913082Y-100432184D01*
X105913074Y-100432182D01*
X105748771Y-100399500D01*
X105748767Y-100399500D01*
X105031233Y-100399500D01*
X105031228Y-100399500D01*
X104866925Y-100432182D01*
X104866917Y-100432184D01*
X104712139Y-100496295D01*
X104572837Y-100589373D01*
X104454373Y-100707837D01*
X104361295Y-100847139D01*
X104297184Y-101001917D01*
X104297182Y-101001925D01*
X104264500Y-101166228D01*
X102100500Y-101166228D01*
X102100500Y-98852135D01*
X104264500Y-98852135D01*
X104264500Y-99647870D01*
X104264501Y-99647876D01*
X104270908Y-99707483D01*
X104321202Y-99842328D01*
X104321206Y-99842335D01*
X104407452Y-99957544D01*
X104407455Y-99957547D01*
X104522664Y-100043793D01*
X104522671Y-100043797D01*
X104657517Y-100094091D01*
X104657516Y-100094091D01*
X104664444Y-100094835D01*
X104717127Y-100100500D01*
X106062872Y-100100499D01*
X106122483Y-100094091D01*
X106257331Y-100043796D01*
X106372546Y-99957546D01*
X106458796Y-99842331D01*
X106509091Y-99707483D01*
X106515500Y-99647873D01*
X106515500Y-99604108D01*
X111579500Y-99604108D01*
X111579500Y-99735892D01*
X111587831Y-99766983D01*
X111613608Y-99863187D01*
X111646554Y-99920250D01*
X111679500Y-99977314D01*
X111772686Y-100070500D01*
X111886814Y-100136392D01*
X111901122Y-100140225D01*
X111960781Y-100176590D01*
X111991310Y-100239437D01*
X111983015Y-100308813D01*
X111938530Y-100362691D01*
X111901123Y-100379773D01*
X111886814Y-100383608D01*
X111886812Y-100383608D01*
X111886812Y-100383609D01*
X111772686Y-100449500D01*
X111772683Y-100449502D01*
X111679502Y-100542683D01*
X111679500Y-100542686D01*
X111613608Y-100656812D01*
X111599936Y-100707838D01*
X111579500Y-100784108D01*
X111579500Y-100915892D01*
X111587831Y-100946983D01*
X111613608Y-101043187D01*
X111646554Y-101100250D01*
X111679500Y-101157314D01*
X111772686Y-101250500D01*
X111886814Y-101316392D01*
X112014108Y-101350500D01*
X112014110Y-101350500D01*
X112145890Y-101350500D01*
X112145892Y-101350500D01*
X112273186Y-101316392D01*
X112387314Y-101250500D01*
X112480500Y-101157314D01*
X112546392Y-101043186D01*
X112550225Y-101028879D01*
X112586589Y-100969219D01*
X112649436Y-100938689D01*
X112718812Y-100946983D01*
X112772690Y-100991468D01*
X112789774Y-101028878D01*
X112793608Y-101043186D01*
X112859500Y-101157314D01*
X112952686Y-101250500D01*
X113066814Y-101316392D01*
X113194108Y-101350500D01*
X113194110Y-101350500D01*
X113325890Y-101350500D01*
X113325892Y-101350500D01*
X113453186Y-101316392D01*
X113567314Y-101250500D01*
X113660500Y-101157314D01*
X113726392Y-101043186D01*
X113760500Y-100915892D01*
X113760500Y-100784108D01*
X113726392Y-100656814D01*
X113722059Y-100649309D01*
X113684679Y-100584564D01*
X113684678Y-100584562D01*
X113660503Y-100542692D01*
X113660500Y-100542686D01*
X113648505Y-100530691D01*
X133599500Y-100530691D01*
X133599500Y-100649309D01*
X133630201Y-100763886D01*
X133689511Y-100866613D01*
X133773387Y-100950489D01*
X133876114Y-101009799D01*
X133990691Y-101040500D01*
X133990694Y-101040500D01*
X134109306Y-101040500D01*
X134109309Y-101040500D01*
X134223886Y-101009799D01*
X134326613Y-100950489D01*
X134410489Y-100866613D01*
X134469799Y-100763886D01*
X134500500Y-100649309D01*
X134500500Y-100530691D01*
X134469799Y-100416114D01*
X134410489Y-100313387D01*
X134352095Y-100254993D01*
X134318610Y-100193670D01*
X134323594Y-100123978D01*
X134365466Y-100068045D01*
X134407679Y-100047538D01*
X134473886Y-100029799D01*
X134576613Y-99970489D01*
X134660489Y-99886613D01*
X134719799Y-99783886D01*
X134750500Y-99669309D01*
X134750500Y-99550691D01*
X134741122Y-99515692D01*
X146153460Y-99515692D01*
X146153460Y-99634310D01*
X146184161Y-99748887D01*
X146243471Y-99851614D01*
X146327347Y-99935490D01*
X146430074Y-99994800D01*
X146544651Y-100025501D01*
X146544654Y-100025501D01*
X146663266Y-100025501D01*
X146663269Y-100025501D01*
X146777846Y-99994800D01*
X146871565Y-99940691D01*
X151049500Y-99940691D01*
X151049500Y-100059309D01*
X151080201Y-100173886D01*
X151139511Y-100276613D01*
X151223387Y-100360489D01*
X151326114Y-100419799D01*
X151440691Y-100450500D01*
X151440694Y-100450500D01*
X151559306Y-100450500D01*
X151559309Y-100450500D01*
X151673886Y-100419799D01*
X151776613Y-100360489D01*
X151860489Y-100276613D01*
X151919799Y-100173886D01*
X151950500Y-100059309D01*
X151950500Y-99940691D01*
X151919799Y-99826114D01*
X151860489Y-99723387D01*
X151776613Y-99639511D01*
X151673886Y-99580201D01*
X151559309Y-99549500D01*
X151440691Y-99549500D01*
X151326114Y-99580201D01*
X151326112Y-99580201D01*
X151326112Y-99580202D01*
X151223387Y-99639511D01*
X151223384Y-99639513D01*
X151139513Y-99723384D01*
X151139511Y-99723387D01*
X151101503Y-99789219D01*
X151080201Y-99826114D01*
X151049500Y-99940691D01*
X146871565Y-99940691D01*
X146880573Y-99935490D01*
X146964449Y-99851614D01*
X147023759Y-99748887D01*
X147054460Y-99634310D01*
X147054460Y-99515692D01*
X147023759Y-99401115D01*
X146964449Y-99298388D01*
X146880573Y-99214512D01*
X146777846Y-99155202D01*
X146723691Y-99140691D01*
X155049500Y-99140691D01*
X155049500Y-99259309D01*
X155080201Y-99373886D01*
X155139511Y-99476613D01*
X155223387Y-99560489D01*
X155326114Y-99619799D01*
X155440691Y-99650500D01*
X155440694Y-99650500D01*
X155559306Y-99650500D01*
X155559309Y-99650500D01*
X155673886Y-99619799D01*
X155776613Y-99560489D01*
X155860489Y-99476613D01*
X155919799Y-99373886D01*
X155950500Y-99259309D01*
X155950500Y-99140691D01*
X155919799Y-99026114D01*
X155860489Y-98923387D01*
X155776613Y-98839511D01*
X155673886Y-98780201D01*
X155559309Y-98749500D01*
X155440691Y-98749500D01*
X155336138Y-98777515D01*
X155326110Y-98780202D01*
X155252877Y-98822483D01*
X155252872Y-98822487D01*
X155223387Y-98839511D01*
X155139511Y-98923387D01*
X155122487Y-98952872D01*
X155122483Y-98952877D01*
X155080202Y-99026110D01*
X155080201Y-99026114D01*
X155049500Y-99140691D01*
X146723691Y-99140691D01*
X146663269Y-99124501D01*
X146544651Y-99124501D01*
X146430074Y-99155202D01*
X146430072Y-99155202D01*
X146430072Y-99155203D01*
X146327347Y-99214512D01*
X146327344Y-99214514D01*
X146243473Y-99298385D01*
X146243471Y-99298388D01*
X146184161Y-99401115D01*
X146153460Y-99515692D01*
X134741122Y-99515692D01*
X134719799Y-99436114D01*
X134660489Y-99333387D01*
X134576613Y-99249511D01*
X134473886Y-99190201D01*
X134359309Y-99159500D01*
X134240691Y-99159500D01*
X134126114Y-99190201D01*
X134126112Y-99190201D01*
X134126112Y-99190202D01*
X134023387Y-99249511D01*
X134023384Y-99249513D01*
X133939513Y-99333384D01*
X133939511Y-99333387D01*
X133880201Y-99436114D01*
X133849500Y-99550691D01*
X133849500Y-99669309D01*
X133880201Y-99783886D01*
X133939511Y-99886613D01*
X133939513Y-99886615D01*
X133997904Y-99945006D01*
X134031389Y-100006329D01*
X134026405Y-100076021D01*
X133984533Y-100131954D01*
X133942317Y-100152461D01*
X133928027Y-100156290D01*
X133876112Y-100170201D01*
X133773387Y-100229511D01*
X133773384Y-100229513D01*
X133689513Y-100313384D01*
X133689511Y-100313387D01*
X133648969Y-100383608D01*
X133630201Y-100416114D01*
X133599500Y-100530691D01*
X113648505Y-100530691D01*
X113567314Y-100449500D01*
X113453186Y-100383608D01*
X113438879Y-100379774D01*
X113379219Y-100343411D01*
X113348689Y-100280564D01*
X113356983Y-100211188D01*
X113401468Y-100157310D01*
X113438878Y-100140225D01*
X113453186Y-100136392D01*
X113567314Y-100070500D01*
X113660500Y-99977314D01*
X113726392Y-99863186D01*
X113760500Y-99735892D01*
X113760500Y-99604108D01*
X113726392Y-99476814D01*
X113726275Y-99476612D01*
X113702893Y-99436113D01*
X113660500Y-99362686D01*
X113567314Y-99269500D01*
X113472076Y-99214514D01*
X113453187Y-99203608D01*
X113389539Y-99186554D01*
X113325892Y-99169500D01*
X113194108Y-99169500D01*
X113066812Y-99203608D01*
X112952686Y-99269500D01*
X112952683Y-99269502D01*
X112859502Y-99362683D01*
X112859500Y-99362686D01*
X112793725Y-99476612D01*
X112793608Y-99476814D01*
X112789774Y-99491122D01*
X112753410Y-99550781D01*
X112690563Y-99581310D01*
X112621187Y-99573015D01*
X112567309Y-99528530D01*
X112550226Y-99491123D01*
X112546392Y-99476814D01*
X112480500Y-99362686D01*
X112387314Y-99269500D01*
X112292076Y-99214514D01*
X112273187Y-99203608D01*
X112209539Y-99186554D01*
X112145892Y-99169500D01*
X112014108Y-99169500D01*
X111886812Y-99203608D01*
X111772686Y-99269500D01*
X111772683Y-99269502D01*
X111679502Y-99362683D01*
X111679500Y-99362686D01*
X111613608Y-99476812D01*
X111585609Y-99581310D01*
X111579500Y-99604108D01*
X106515500Y-99604108D01*
X106515499Y-99249513D01*
X106515499Y-98852129D01*
X106515498Y-98852123D01*
X106515497Y-98852116D01*
X106509091Y-98792517D01*
X106504497Y-98780201D01*
X106458797Y-98657671D01*
X106458793Y-98657664D01*
X106372547Y-98542455D01*
X106372544Y-98542452D01*
X106257335Y-98456206D01*
X106257328Y-98456202D01*
X106122482Y-98405908D01*
X106122483Y-98405908D01*
X106062883Y-98399501D01*
X106062881Y-98399500D01*
X106062873Y-98399500D01*
X106062864Y-98399500D01*
X104717129Y-98399500D01*
X104717123Y-98399501D01*
X104657516Y-98405908D01*
X104522671Y-98456202D01*
X104522664Y-98456206D01*
X104407455Y-98542452D01*
X104407452Y-98542455D01*
X104321206Y-98657664D01*
X104321202Y-98657671D01*
X104270908Y-98792517D01*
X104267687Y-98822483D01*
X104264501Y-98852123D01*
X104264500Y-98852135D01*
X102100500Y-98852135D01*
X102100500Y-98020691D01*
X133659500Y-98020691D01*
X133659500Y-98139309D01*
X133690201Y-98253886D01*
X133749511Y-98356613D01*
X133833387Y-98440489D01*
X133936114Y-98499799D01*
X134050691Y-98530500D01*
X134050694Y-98530500D01*
X134169306Y-98530500D01*
X134169309Y-98530500D01*
X134283886Y-98499799D01*
X134386613Y-98440489D01*
X134470489Y-98356613D01*
X134479682Y-98340691D01*
X150249500Y-98340691D01*
X150249500Y-98459309D01*
X150280201Y-98573886D01*
X150339511Y-98676613D01*
X150423387Y-98760489D01*
X150526114Y-98819799D01*
X150640691Y-98850500D01*
X150640694Y-98850500D01*
X150759306Y-98850500D01*
X150759309Y-98850500D01*
X150873886Y-98819799D01*
X150976613Y-98760489D01*
X151060489Y-98676613D01*
X151119799Y-98573886D01*
X151150500Y-98459309D01*
X151150500Y-98340691D01*
X151849500Y-98340691D01*
X151849500Y-98459309D01*
X151880201Y-98573886D01*
X151939511Y-98676613D01*
X152023387Y-98760489D01*
X152126114Y-98819799D01*
X152240691Y-98850500D01*
X152240694Y-98850500D01*
X152359306Y-98850500D01*
X152359309Y-98850500D01*
X152473886Y-98819799D01*
X152576613Y-98760489D01*
X152660489Y-98676613D01*
X152719799Y-98573886D01*
X152750500Y-98459309D01*
X152750500Y-98340691D01*
X154249500Y-98340691D01*
X154249500Y-98459309D01*
X154280201Y-98573886D01*
X154339511Y-98676613D01*
X154423387Y-98760489D01*
X154526114Y-98819799D01*
X154640691Y-98850500D01*
X154640694Y-98850500D01*
X154759306Y-98850500D01*
X154759309Y-98850500D01*
X154873886Y-98819799D01*
X154976613Y-98760489D01*
X155060489Y-98676613D01*
X155119799Y-98573886D01*
X155150500Y-98459309D01*
X155150500Y-98340691D01*
X155119799Y-98226114D01*
X155060489Y-98123387D01*
X154976613Y-98039511D01*
X154873886Y-97980201D01*
X154759309Y-97949500D01*
X154640691Y-97949500D01*
X154526114Y-97980201D01*
X154526112Y-97980201D01*
X154526112Y-97980202D01*
X154423387Y-98039511D01*
X154423384Y-98039513D01*
X154339513Y-98123384D01*
X154339511Y-98123387D01*
X154280201Y-98226114D01*
X154249500Y-98340691D01*
X152750500Y-98340691D01*
X152719799Y-98226114D01*
X152660489Y-98123387D01*
X152576613Y-98039511D01*
X152473886Y-97980201D01*
X152359309Y-97949500D01*
X152240691Y-97949500D01*
X152126114Y-97980201D01*
X152126112Y-97980201D01*
X152126112Y-97980202D01*
X152023387Y-98039511D01*
X152023384Y-98039513D01*
X151939513Y-98123384D01*
X151939511Y-98123387D01*
X151880201Y-98226114D01*
X151849500Y-98340691D01*
X151150500Y-98340691D01*
X151119799Y-98226114D01*
X151060489Y-98123387D01*
X150976613Y-98039511D01*
X150873886Y-97980201D01*
X150759309Y-97949500D01*
X150640691Y-97949500D01*
X150526114Y-97980201D01*
X150526112Y-97980201D01*
X150526112Y-97980202D01*
X150423387Y-98039511D01*
X150423384Y-98039513D01*
X150339513Y-98123384D01*
X150339511Y-98123387D01*
X150280201Y-98226114D01*
X150249500Y-98340691D01*
X134479682Y-98340691D01*
X134529799Y-98253886D01*
X134560500Y-98139309D01*
X134560500Y-98020691D01*
X134529799Y-97906114D01*
X134470489Y-97803387D01*
X134386613Y-97719511D01*
X134283886Y-97660201D01*
X134169309Y-97629500D01*
X134050691Y-97629500D01*
X133936114Y-97660201D01*
X133936112Y-97660201D01*
X133936112Y-97660202D01*
X133833387Y-97719511D01*
X133833384Y-97719513D01*
X133749513Y-97803384D01*
X133749511Y-97803387D01*
X133693449Y-97900489D01*
X133690201Y-97906114D01*
X133659500Y-98020691D01*
X102100500Y-98020691D01*
X102100500Y-97540691D01*
X155049500Y-97540691D01*
X155049500Y-97659309D01*
X155080201Y-97773886D01*
X155139511Y-97876613D01*
X155223387Y-97960489D01*
X155326114Y-98019799D01*
X155440691Y-98050500D01*
X155440694Y-98050500D01*
X155559306Y-98050500D01*
X155559309Y-98050500D01*
X155673886Y-98019799D01*
X155776613Y-97960489D01*
X155860489Y-97876613D01*
X155919799Y-97773886D01*
X155950500Y-97659309D01*
X155950500Y-97540691D01*
X155919799Y-97426114D01*
X155860489Y-97323387D01*
X155776613Y-97239511D01*
X155673886Y-97180201D01*
X155559309Y-97149500D01*
X155440691Y-97149500D01*
X155326114Y-97180201D01*
X155326112Y-97180201D01*
X155326112Y-97180202D01*
X155223387Y-97239511D01*
X155223384Y-97239513D01*
X155139513Y-97323384D01*
X155139511Y-97323387D01*
X155080201Y-97426114D01*
X155049500Y-97540691D01*
X102100500Y-97540691D01*
X102100500Y-96447525D01*
X111209500Y-96447525D01*
X111209500Y-96592475D01*
X111230459Y-96670693D01*
X111247017Y-96732488D01*
X111319488Y-96858011D01*
X111319490Y-96858013D01*
X111319491Y-96858015D01*
X111421985Y-96960509D01*
X111421986Y-96960510D01*
X111421988Y-96960511D01*
X111547511Y-97032982D01*
X111547512Y-97032982D01*
X111547515Y-97032984D01*
X111687525Y-97070500D01*
X111687528Y-97070500D01*
X111832472Y-97070500D01*
X111832475Y-97070500D01*
X111972485Y-97032984D01*
X112098015Y-96960509D01*
X112200509Y-96858015D01*
X112272984Y-96732485D01*
X112310500Y-96592475D01*
X112310500Y-96447525D01*
X131529500Y-96447525D01*
X131529500Y-96592475D01*
X131550459Y-96670693D01*
X131567017Y-96732488D01*
X131639488Y-96858011D01*
X131639490Y-96858013D01*
X131639491Y-96858015D01*
X131741985Y-96960509D01*
X131741986Y-96960510D01*
X131741988Y-96960511D01*
X131867511Y-97032982D01*
X131867512Y-97032982D01*
X131867515Y-97032984D01*
X132007525Y-97070500D01*
X132007528Y-97070500D01*
X132152472Y-97070500D01*
X132152475Y-97070500D01*
X132292485Y-97032984D01*
X132418015Y-96960509D01*
X132520509Y-96858015D01*
X132592984Y-96732485D01*
X132609542Y-96670691D01*
X152329500Y-96670691D01*
X152329500Y-96789309D01*
X152360201Y-96903886D01*
X152419511Y-97006613D01*
X152503387Y-97090489D01*
X152606114Y-97149799D01*
X152720691Y-97180500D01*
X152720694Y-97180500D01*
X152839306Y-97180500D01*
X152839309Y-97180500D01*
X152953886Y-97149799D01*
X153056613Y-97090489D01*
X153140489Y-97006613D01*
X153199799Y-96903886D01*
X153230500Y-96789309D01*
X153230500Y-96670691D01*
X153749500Y-96670691D01*
X153749500Y-96789309D01*
X153780201Y-96903886D01*
X153839511Y-97006613D01*
X153923387Y-97090489D01*
X154026114Y-97149799D01*
X154140691Y-97180500D01*
X154140694Y-97180500D01*
X154259306Y-97180500D01*
X154259309Y-97180500D01*
X154373886Y-97149799D01*
X154476613Y-97090489D01*
X154560489Y-97006613D01*
X154619799Y-96903886D01*
X154650500Y-96789309D01*
X154650500Y-96740691D01*
X156649500Y-96740691D01*
X156649500Y-96859309D01*
X156680201Y-96973886D01*
X156739511Y-97076613D01*
X156823387Y-97160489D01*
X156926114Y-97219799D01*
X157040691Y-97250500D01*
X157040694Y-97250500D01*
X157159306Y-97250500D01*
X157159309Y-97250500D01*
X157273886Y-97219799D01*
X157376613Y-97160489D01*
X157460489Y-97076613D01*
X157519799Y-96973886D01*
X157550500Y-96859309D01*
X157550500Y-96740691D01*
X157519799Y-96626114D01*
X157460489Y-96523387D01*
X157384627Y-96447525D01*
X177249500Y-96447525D01*
X177249500Y-96592475D01*
X177270459Y-96670693D01*
X177287017Y-96732488D01*
X177359488Y-96858011D01*
X177359490Y-96858013D01*
X177359491Y-96858015D01*
X177461985Y-96960509D01*
X177461986Y-96960510D01*
X177461988Y-96960511D01*
X177587511Y-97032982D01*
X177587512Y-97032982D01*
X177587515Y-97032984D01*
X177727525Y-97070500D01*
X177727528Y-97070500D01*
X177872472Y-97070500D01*
X177872475Y-97070500D01*
X178012485Y-97032984D01*
X178138015Y-96960509D01*
X178240509Y-96858015D01*
X178312984Y-96732485D01*
X178350500Y-96592475D01*
X178350500Y-96447525D01*
X182329500Y-96447525D01*
X182329500Y-96592475D01*
X182350459Y-96670693D01*
X182367017Y-96732488D01*
X182439488Y-96858011D01*
X182439490Y-96858013D01*
X182439491Y-96858015D01*
X182541985Y-96960509D01*
X182594383Y-96990761D01*
X182598824Y-96993325D01*
X182647039Y-97043893D01*
X182660261Y-97112500D01*
X182634293Y-97177364D01*
X182624505Y-97188393D01*
X182549511Y-97263387D01*
X182490201Y-97366114D01*
X182459500Y-97480691D01*
X182459500Y-97599309D01*
X182490201Y-97713886D01*
X182549511Y-97816613D01*
X182633387Y-97900489D01*
X182736114Y-97959799D01*
X182850691Y-97990500D01*
X182850694Y-97990500D01*
X182969306Y-97990500D01*
X182969309Y-97990500D01*
X183083886Y-97959799D01*
X183186613Y-97900489D01*
X183270489Y-97816613D01*
X183329799Y-97713886D01*
X183360500Y-97599309D01*
X183360500Y-97480691D01*
X183329799Y-97366114D01*
X183270489Y-97263387D01*
X183186613Y-97179511D01*
X183184455Y-97177855D01*
X183183096Y-97175994D01*
X183180866Y-97173764D01*
X183181213Y-97173416D01*
X183143254Y-97121426D01*
X183139102Y-97051680D01*
X183173316Y-96990761D01*
X183197937Y-96972101D01*
X183218015Y-96960509D01*
X183320509Y-96858015D01*
X183392984Y-96732485D01*
X183430500Y-96592475D01*
X183430500Y-96447525D01*
X183392984Y-96307515D01*
X183376809Y-96279500D01*
X183320511Y-96181988D01*
X183320506Y-96181982D01*
X183218017Y-96079493D01*
X183218011Y-96079488D01*
X183092488Y-96007017D01*
X183092489Y-96007017D01*
X183081006Y-96003940D01*
X182952475Y-95969500D01*
X182807525Y-95969500D01*
X182678993Y-96003940D01*
X182667511Y-96007017D01*
X182541988Y-96079488D01*
X182541982Y-96079493D01*
X182439493Y-96181982D01*
X182439488Y-96181988D01*
X182367017Y-96307511D01*
X182367016Y-96307515D01*
X182329500Y-96447525D01*
X178350500Y-96447525D01*
X178312984Y-96307515D01*
X178296809Y-96279500D01*
X178240511Y-96181988D01*
X178240506Y-96181982D01*
X178138017Y-96079493D01*
X178138011Y-96079488D01*
X178012488Y-96007017D01*
X178012489Y-96007017D01*
X178001006Y-96003940D01*
X177872475Y-95969500D01*
X177727525Y-95969500D01*
X177598993Y-96003940D01*
X177587511Y-96007017D01*
X177461988Y-96079488D01*
X177461982Y-96079493D01*
X177359493Y-96181982D01*
X177359488Y-96181988D01*
X177287017Y-96307511D01*
X177287016Y-96307515D01*
X177249500Y-96447525D01*
X157384627Y-96447525D01*
X157376613Y-96439511D01*
X157273886Y-96380201D01*
X157159309Y-96349500D01*
X157040691Y-96349500D01*
X156926114Y-96380201D01*
X156926112Y-96380201D01*
X156926112Y-96380202D01*
X156823387Y-96439511D01*
X156823384Y-96439513D01*
X156739513Y-96523384D01*
X156739511Y-96523387D01*
X156680201Y-96626114D01*
X156649500Y-96740691D01*
X154650500Y-96740691D01*
X154650500Y-96670691D01*
X154619799Y-96556114D01*
X154560489Y-96453387D01*
X154476613Y-96369511D01*
X154373886Y-96310201D01*
X154259309Y-96279500D01*
X154140691Y-96279500D01*
X154026114Y-96310201D01*
X154026112Y-96310201D01*
X154026112Y-96310202D01*
X153923387Y-96369511D01*
X153923384Y-96369513D01*
X153839513Y-96453384D01*
X153839511Y-96453387D01*
X153780201Y-96556114D01*
X153749500Y-96670691D01*
X153230500Y-96670691D01*
X153199799Y-96556114D01*
X153140489Y-96453387D01*
X153056613Y-96369511D01*
X152953886Y-96310201D01*
X152839309Y-96279500D01*
X152720691Y-96279500D01*
X152606114Y-96310201D01*
X152606112Y-96310201D01*
X152606112Y-96310202D01*
X152503387Y-96369511D01*
X152503384Y-96369513D01*
X152419513Y-96453384D01*
X152419511Y-96453387D01*
X152360201Y-96556114D01*
X152329500Y-96670691D01*
X132609542Y-96670691D01*
X132630500Y-96592475D01*
X132630500Y-96447525D01*
X132592984Y-96307515D01*
X132576809Y-96279500D01*
X132520511Y-96181988D01*
X132520506Y-96181982D01*
X132418017Y-96079493D01*
X132418011Y-96079488D01*
X132292488Y-96007017D01*
X132292489Y-96007017D01*
X132281006Y-96003940D01*
X132152475Y-95969500D01*
X132007525Y-95969500D01*
X131878993Y-96003940D01*
X131867511Y-96007017D01*
X131741988Y-96079488D01*
X131741982Y-96079493D01*
X131639493Y-96181982D01*
X131639488Y-96181988D01*
X131567017Y-96307511D01*
X131567016Y-96307515D01*
X131529500Y-96447525D01*
X112310500Y-96447525D01*
X112272984Y-96307515D01*
X112256809Y-96279500D01*
X112200511Y-96181988D01*
X112200506Y-96181982D01*
X112098017Y-96079493D01*
X112098011Y-96079488D01*
X111972488Y-96007017D01*
X111972489Y-96007017D01*
X111961006Y-96003940D01*
X111832475Y-95969500D01*
X111687525Y-95969500D01*
X111558993Y-96003940D01*
X111547511Y-96007017D01*
X111421988Y-96079488D01*
X111421982Y-96079493D01*
X111319493Y-96181982D01*
X111319488Y-96181988D01*
X111247017Y-96307511D01*
X111247016Y-96307515D01*
X111209500Y-96447525D01*
X102100500Y-96447525D01*
X102100500Y-95220691D01*
X141269500Y-95220691D01*
X141269500Y-95339309D01*
X141300201Y-95453886D01*
X141359511Y-95556613D01*
X141443387Y-95640489D01*
X141546114Y-95699799D01*
X141660691Y-95730500D01*
X141660694Y-95730500D01*
X141779306Y-95730500D01*
X141779309Y-95730500D01*
X141893886Y-95699799D01*
X141996613Y-95640489D01*
X142080489Y-95556613D01*
X142139799Y-95453886D01*
X142170500Y-95339309D01*
X142170500Y-95220691D01*
X142139799Y-95106114D01*
X142080489Y-95003387D01*
X141996613Y-94919511D01*
X141893886Y-94860201D01*
X141779309Y-94829500D01*
X141660691Y-94829500D01*
X141546114Y-94860201D01*
X141546112Y-94860201D01*
X141546112Y-94860202D01*
X141443387Y-94919511D01*
X141443384Y-94919513D01*
X141359513Y-95003384D01*
X141359511Y-95003387D01*
X141300201Y-95106114D01*
X141269500Y-95220691D01*
X102100500Y-95220691D01*
X102100500Y-92541212D01*
X149948979Y-92541212D01*
X149948979Y-92659830D01*
X149979680Y-92774407D01*
X150038990Y-92877134D01*
X150122866Y-92961010D01*
X150225593Y-93020320D01*
X150340170Y-93051021D01*
X150340173Y-93051021D01*
X150458785Y-93051021D01*
X150458788Y-93051021D01*
X150573365Y-93020320D01*
X150676092Y-92961010D01*
X150759968Y-92877134D01*
X150819278Y-92774407D01*
X150849979Y-92659830D01*
X150849979Y-92541212D01*
X150819278Y-92426635D01*
X150759968Y-92323908D01*
X150676092Y-92240032D01*
X150573365Y-92180722D01*
X150458788Y-92150021D01*
X150340170Y-92150021D01*
X150225593Y-92180722D01*
X150225591Y-92180722D01*
X150225591Y-92180723D01*
X150122866Y-92240032D01*
X150122863Y-92240034D01*
X150038992Y-92323905D01*
X150038990Y-92323908D01*
X149979680Y-92426635D01*
X149948979Y-92541212D01*
X102100500Y-92541212D01*
X102100500Y-91009920D01*
X102989499Y-91009920D01*
X103018340Y-91154907D01*
X103018343Y-91154917D01*
X103074912Y-91291488D01*
X103074919Y-91291501D01*
X103157048Y-91414415D01*
X103157051Y-91414419D01*
X103261580Y-91518948D01*
X103261584Y-91518951D01*
X103384498Y-91601080D01*
X103384511Y-91601087D01*
X103521082Y-91657656D01*
X103521087Y-91657658D01*
X103521091Y-91657658D01*
X103521092Y-91657659D01*
X103666079Y-91686500D01*
X103666082Y-91686500D01*
X104613920Y-91686500D01*
X104711462Y-91667096D01*
X104758913Y-91657658D01*
X104895495Y-91601084D01*
X105018416Y-91518951D01*
X105122951Y-91414416D01*
X105205084Y-91291495D01*
X105261658Y-91154913D01*
X105284613Y-91039513D01*
X105290500Y-91009920D01*
X107019499Y-91009920D01*
X107048340Y-91154907D01*
X107048343Y-91154917D01*
X107104912Y-91291488D01*
X107104919Y-91291501D01*
X107187048Y-91414415D01*
X107187051Y-91414419D01*
X107291580Y-91518948D01*
X107291584Y-91518951D01*
X107414498Y-91601080D01*
X107414511Y-91601087D01*
X107551082Y-91657656D01*
X107551087Y-91657658D01*
X107551091Y-91657658D01*
X107551092Y-91657659D01*
X107696079Y-91686500D01*
X107696082Y-91686500D01*
X108943920Y-91686500D01*
X109041462Y-91667096D01*
X109088913Y-91657658D01*
X109225495Y-91601084D01*
X109348416Y-91518951D01*
X109452951Y-91414416D01*
X109502212Y-91340691D01*
X149949500Y-91340691D01*
X149949500Y-91459309D01*
X149980201Y-91573886D01*
X150039511Y-91676613D01*
X150123387Y-91760489D01*
X150226114Y-91819799D01*
X150340691Y-91850500D01*
X150340694Y-91850500D01*
X150459306Y-91850500D01*
X150459309Y-91850500D01*
X150573886Y-91819799D01*
X150676613Y-91760489D01*
X150760489Y-91676613D01*
X150819799Y-91573886D01*
X150850500Y-91459309D01*
X150850500Y-91340691D01*
X150819799Y-91226114D01*
X150760489Y-91123387D01*
X150676613Y-91039511D01*
X150573886Y-90980201D01*
X150459309Y-90949500D01*
X150340691Y-90949500D01*
X150226114Y-90980201D01*
X150226112Y-90980201D01*
X150226112Y-90980202D01*
X150123387Y-91039511D01*
X150123384Y-91039513D01*
X150039513Y-91123384D01*
X150039511Y-91123387D01*
X149980201Y-91226114D01*
X149949500Y-91340691D01*
X109502212Y-91340691D01*
X109535084Y-91291495D01*
X109591658Y-91154913D01*
X109614613Y-91039513D01*
X109620500Y-91009920D01*
X109620500Y-90862079D01*
X109591659Y-90717092D01*
X109591658Y-90717091D01*
X109591658Y-90717087D01*
X109591656Y-90717082D01*
X109535087Y-90580511D01*
X109535080Y-90580498D01*
X109452951Y-90457584D01*
X109452948Y-90457580D01*
X109348419Y-90353051D01*
X109348415Y-90353048D01*
X109225501Y-90270919D01*
X109225488Y-90270912D01*
X109088917Y-90214343D01*
X109088907Y-90214340D01*
X108943920Y-90185500D01*
X108943918Y-90185500D01*
X108156847Y-90185500D01*
X108089808Y-90165815D01*
X108044053Y-90113011D01*
X108034109Y-90043853D01*
X108063134Y-89980297D01*
X108094847Y-89954113D01*
X108121409Y-89938776D01*
X108142665Y-89926505D01*
X108240505Y-89828665D01*
X108309688Y-89708836D01*
X108345500Y-89575183D01*
X108345500Y-89436817D01*
X108309688Y-89303164D01*
X108245624Y-89192201D01*
X108240507Y-89183338D01*
X108240503Y-89183333D01*
X108142666Y-89085496D01*
X108142661Y-89085492D01*
X108022838Y-89016313D01*
X108022837Y-89016312D01*
X108022836Y-89016312D01*
X107889183Y-88980500D01*
X107750817Y-88980500D01*
X107617164Y-89016312D01*
X107617161Y-89016313D01*
X107497338Y-89085492D01*
X107497333Y-89085496D01*
X107399496Y-89183333D01*
X107399492Y-89183338D01*
X107330313Y-89303161D01*
X107330312Y-89303164D01*
X107294500Y-89436817D01*
X107294500Y-89575182D01*
X107330312Y-89708835D01*
X107330313Y-89708838D01*
X107399492Y-89828661D01*
X107399494Y-89828664D01*
X107399495Y-89828665D01*
X107497335Y-89926505D01*
X107596586Y-89983807D01*
X107644801Y-90034373D01*
X107658025Y-90102980D01*
X107632057Y-90167845D01*
X107575143Y-90208374D01*
X107558785Y-90212810D01*
X107551092Y-90214340D01*
X107551082Y-90214343D01*
X107414511Y-90270912D01*
X107414498Y-90270919D01*
X107291584Y-90353048D01*
X107291580Y-90353051D01*
X107187051Y-90457580D01*
X107187048Y-90457584D01*
X107104919Y-90580498D01*
X107104912Y-90580511D01*
X107048343Y-90717082D01*
X107048340Y-90717092D01*
X107019500Y-90862079D01*
X107019500Y-90862082D01*
X107019500Y-91009918D01*
X107019500Y-91009920D01*
X107019499Y-91009920D01*
X105290500Y-91009920D01*
X105290500Y-90862079D01*
X105261659Y-90717092D01*
X105261658Y-90717091D01*
X105261658Y-90717087D01*
X105261656Y-90717082D01*
X105205087Y-90580511D01*
X105205080Y-90580498D01*
X105122951Y-90457584D01*
X105122948Y-90457580D01*
X105018419Y-90353051D01*
X105018415Y-90353048D01*
X104895501Y-90270919D01*
X104895488Y-90270912D01*
X104758917Y-90214343D01*
X104758907Y-90214340D01*
X104613920Y-90185500D01*
X104613918Y-90185500D01*
X103666082Y-90185500D01*
X103666080Y-90185500D01*
X103521092Y-90214340D01*
X103521082Y-90214343D01*
X103384511Y-90270912D01*
X103384498Y-90270919D01*
X103261584Y-90353048D01*
X103261580Y-90353051D01*
X103157051Y-90457580D01*
X103157048Y-90457584D01*
X103074919Y-90580498D01*
X103074912Y-90580511D01*
X103018343Y-90717082D01*
X103018340Y-90717092D01*
X102989500Y-90862079D01*
X102989500Y-90862082D01*
X102989500Y-91009918D01*
X102989500Y-91009920D01*
X102989499Y-91009920D01*
X102100500Y-91009920D01*
X102100500Y-88827525D01*
X111209500Y-88827525D01*
X111209500Y-88972475D01*
X111247016Y-89112485D01*
X111247017Y-89112488D01*
X111319488Y-89238011D01*
X111319490Y-89238013D01*
X111319491Y-89238015D01*
X111421985Y-89340509D01*
X111421986Y-89340510D01*
X111421988Y-89340511D01*
X111547511Y-89412982D01*
X111547512Y-89412982D01*
X111547515Y-89412984D01*
X111687525Y-89450500D01*
X111687528Y-89450500D01*
X111832472Y-89450500D01*
X111832475Y-89450500D01*
X111972485Y-89412984D01*
X112098015Y-89340509D01*
X112200509Y-89238015D01*
X112272984Y-89112485D01*
X112310500Y-88972475D01*
X112310500Y-88827525D01*
X126449500Y-88827525D01*
X126449500Y-88972475D01*
X126487016Y-89112485D01*
X126487017Y-89112488D01*
X126559488Y-89238011D01*
X126559490Y-89238013D01*
X126559491Y-89238015D01*
X126661985Y-89340509D01*
X126661986Y-89340510D01*
X126661988Y-89340511D01*
X126787511Y-89412982D01*
X126787512Y-89412982D01*
X126787515Y-89412984D01*
X126927525Y-89450500D01*
X126927528Y-89450500D01*
X127072472Y-89450500D01*
X127072475Y-89450500D01*
X127212485Y-89412984D01*
X127338015Y-89340509D01*
X127440509Y-89238015D01*
X127512984Y-89112485D01*
X127550500Y-88972475D01*
X127550500Y-88827525D01*
X131529500Y-88827525D01*
X131529500Y-88972475D01*
X131567016Y-89112485D01*
X131567017Y-89112488D01*
X131639488Y-89238011D01*
X131639490Y-89238013D01*
X131639491Y-89238015D01*
X131741985Y-89340509D01*
X131741986Y-89340510D01*
X131741988Y-89340511D01*
X131867511Y-89412982D01*
X131867512Y-89412982D01*
X131867515Y-89412984D01*
X132007525Y-89450500D01*
X132007528Y-89450500D01*
X132152472Y-89450500D01*
X132152475Y-89450500D01*
X132292485Y-89412984D01*
X132418015Y-89340509D01*
X132520509Y-89238015D01*
X132592984Y-89112485D01*
X132630500Y-88972475D01*
X132630500Y-88827525D01*
X132618224Y-88781711D01*
X161984748Y-88781711D01*
X161984748Y-88926661D01*
X162022264Y-89066671D01*
X162022265Y-89066674D01*
X162094736Y-89192197D01*
X162094738Y-89192199D01*
X162094739Y-89192201D01*
X162197233Y-89294695D01*
X162197234Y-89294696D01*
X162197236Y-89294697D01*
X162322759Y-89367168D01*
X162322760Y-89367168D01*
X162322763Y-89367170D01*
X162462773Y-89404686D01*
X162462776Y-89404686D01*
X162607720Y-89404686D01*
X162607723Y-89404686D01*
X162747733Y-89367170D01*
X162873263Y-89294695D01*
X162975757Y-89192201D01*
X163048232Y-89066671D01*
X163085748Y-88926661D01*
X163085748Y-88827525D01*
X177249500Y-88827525D01*
X177249500Y-88972475D01*
X177287016Y-89112485D01*
X177287017Y-89112488D01*
X177359488Y-89238011D01*
X177359490Y-89238013D01*
X177359491Y-89238015D01*
X177461985Y-89340509D01*
X177461986Y-89340510D01*
X177461988Y-89340511D01*
X177587511Y-89412982D01*
X177587512Y-89412982D01*
X177587515Y-89412984D01*
X177727525Y-89450500D01*
X177727528Y-89450500D01*
X177872472Y-89450500D01*
X177872475Y-89450500D01*
X178012485Y-89412984D01*
X178138015Y-89340509D01*
X178240509Y-89238015D01*
X178312984Y-89112485D01*
X178350500Y-88972475D01*
X178350500Y-88827525D01*
X178312984Y-88687515D01*
X178300917Y-88666615D01*
X178240511Y-88561988D01*
X178240506Y-88561982D01*
X178138017Y-88459493D01*
X178138015Y-88459491D01*
X178086849Y-88429950D01*
X178086848Y-88429949D01*
X178012488Y-88387017D01*
X178012489Y-88387017D01*
X178001006Y-88383940D01*
X177872475Y-88349500D01*
X177727525Y-88349500D01*
X177598993Y-88383940D01*
X177587511Y-88387017D01*
X177461988Y-88459488D01*
X177461982Y-88459493D01*
X177359493Y-88561982D01*
X177359488Y-88561988D01*
X177287017Y-88687511D01*
X177287016Y-88687515D01*
X177249500Y-88827525D01*
X163085748Y-88827525D01*
X163085748Y-88781711D01*
X163048232Y-88641701D01*
X163003305Y-88563886D01*
X162975759Y-88516174D01*
X162975754Y-88516168D01*
X162873265Y-88413679D01*
X162873259Y-88413674D01*
X162747736Y-88341203D01*
X162747737Y-88341203D01*
X162708513Y-88330693D01*
X162708506Y-88330691D01*
X182459500Y-88330691D01*
X182459500Y-88449309D01*
X182490201Y-88563886D01*
X182549511Y-88666613D01*
X182633387Y-88750489D01*
X182736114Y-88809799D01*
X182850691Y-88840500D01*
X182850694Y-88840500D01*
X182969306Y-88840500D01*
X182969309Y-88840500D01*
X183083886Y-88809799D01*
X183186613Y-88750489D01*
X183270489Y-88666613D01*
X183329799Y-88563886D01*
X183360500Y-88449309D01*
X183360500Y-88330691D01*
X183329799Y-88216114D01*
X183270489Y-88113387D01*
X183186613Y-88029511D01*
X183083886Y-87970201D01*
X182969309Y-87939500D01*
X182850691Y-87939500D01*
X182736114Y-87970201D01*
X182736112Y-87970201D01*
X182736112Y-87970202D01*
X182633387Y-88029511D01*
X182633384Y-88029513D01*
X182549513Y-88113384D01*
X182549511Y-88113387D01*
X182490201Y-88216114D01*
X182459500Y-88330691D01*
X162708506Y-88330691D01*
X162607723Y-88303686D01*
X162462773Y-88303686D01*
X162361983Y-88330693D01*
X162322759Y-88341203D01*
X162197236Y-88413674D01*
X162197230Y-88413679D01*
X162094741Y-88516168D01*
X162094736Y-88516174D01*
X162022265Y-88641697D01*
X162022264Y-88641701D01*
X161984748Y-88781711D01*
X132618224Y-88781711D01*
X132592984Y-88687515D01*
X132580917Y-88666615D01*
X132520511Y-88561988D01*
X132520506Y-88561982D01*
X132418017Y-88459493D01*
X132418011Y-88459488D01*
X132292488Y-88387017D01*
X132292489Y-88387017D01*
X132281006Y-88383940D01*
X132152475Y-88349500D01*
X132007525Y-88349500D01*
X131878993Y-88383940D01*
X131867511Y-88387017D01*
X131741988Y-88459488D01*
X131741982Y-88459493D01*
X131639493Y-88561982D01*
X131639488Y-88561988D01*
X131567017Y-88687511D01*
X131567016Y-88687515D01*
X131529500Y-88827525D01*
X127550500Y-88827525D01*
X127512984Y-88687515D01*
X127500917Y-88666615D01*
X127440511Y-88561988D01*
X127440506Y-88561982D01*
X127338017Y-88459493D01*
X127338011Y-88459488D01*
X127212488Y-88387017D01*
X127212489Y-88387017D01*
X127201006Y-88383940D01*
X127072475Y-88349500D01*
X126927525Y-88349500D01*
X126798993Y-88383940D01*
X126787511Y-88387017D01*
X126661988Y-88459488D01*
X126661982Y-88459493D01*
X126559493Y-88561982D01*
X126559488Y-88561988D01*
X126487017Y-88687511D01*
X126487016Y-88687515D01*
X126449500Y-88827525D01*
X112310500Y-88827525D01*
X112272984Y-88687515D01*
X112260917Y-88666615D01*
X112200511Y-88561988D01*
X112200506Y-88561982D01*
X112098017Y-88459493D01*
X112098011Y-88459488D01*
X111972488Y-88387017D01*
X111972489Y-88387017D01*
X111961006Y-88383940D01*
X111832475Y-88349500D01*
X111687525Y-88349500D01*
X111558993Y-88383940D01*
X111547511Y-88387017D01*
X111421988Y-88459488D01*
X111421982Y-88459493D01*
X111319493Y-88561982D01*
X111319488Y-88561988D01*
X111247017Y-88687511D01*
X111247016Y-88687515D01*
X111209500Y-88827525D01*
X102100500Y-88827525D01*
X102100500Y-82369920D01*
X102989499Y-82369920D01*
X103018340Y-82514907D01*
X103018343Y-82514917D01*
X103074912Y-82651488D01*
X103074919Y-82651501D01*
X103157048Y-82774415D01*
X103157051Y-82774419D01*
X103261580Y-82878948D01*
X103261584Y-82878951D01*
X103384498Y-82961080D01*
X103384511Y-82961087D01*
X103521082Y-83017656D01*
X103521087Y-83017658D01*
X103521091Y-83017658D01*
X103521092Y-83017659D01*
X103666079Y-83046500D01*
X103666082Y-83046500D01*
X104613920Y-83046500D01*
X104751226Y-83019187D01*
X104758913Y-83017658D01*
X104895495Y-82961084D01*
X105018416Y-82878951D01*
X105122951Y-82774416D01*
X105205084Y-82651495D01*
X105261658Y-82514913D01*
X105290500Y-82369920D01*
X107019499Y-82369920D01*
X107048340Y-82514907D01*
X107048343Y-82514917D01*
X107104912Y-82651488D01*
X107104919Y-82651501D01*
X107187048Y-82774415D01*
X107187051Y-82774419D01*
X107291580Y-82878948D01*
X107291584Y-82878951D01*
X107414498Y-82961080D01*
X107414511Y-82961087D01*
X107551082Y-83017656D01*
X107551087Y-83017658D01*
X107558777Y-83019187D01*
X107620687Y-83051572D01*
X107655262Y-83112287D01*
X107651523Y-83182057D01*
X107610657Y-83238729D01*
X107596586Y-83248192D01*
X107497338Y-83305492D01*
X107497333Y-83305496D01*
X107399496Y-83403333D01*
X107399492Y-83403338D01*
X107330313Y-83523161D01*
X107330312Y-83523164D01*
X107294500Y-83656817D01*
X107294500Y-83795182D01*
X107330312Y-83928835D01*
X107330313Y-83928838D01*
X107399492Y-84048661D01*
X107399494Y-84048664D01*
X107399495Y-84048665D01*
X107497335Y-84146505D01*
X107617164Y-84215688D01*
X107750817Y-84251500D01*
X107750819Y-84251500D01*
X107889181Y-84251500D01*
X107889183Y-84251500D01*
X108022836Y-84215688D01*
X108142665Y-84146505D01*
X108240505Y-84048665D01*
X108309688Y-83928836D01*
X108345500Y-83795183D01*
X108345500Y-83656817D01*
X108309688Y-83523164D01*
X108240505Y-83403335D01*
X108142665Y-83305495D01*
X108142664Y-83305494D01*
X108142661Y-83305492D01*
X108094847Y-83277887D01*
X108046632Y-83227320D01*
X108033408Y-83158713D01*
X108059376Y-83093848D01*
X108116290Y-83053320D01*
X108156847Y-83046500D01*
X108943920Y-83046500D01*
X109081226Y-83019187D01*
X109088913Y-83017658D01*
X109225495Y-82961084D01*
X109348416Y-82878951D01*
X109452951Y-82774416D01*
X109535084Y-82651495D01*
X109591658Y-82514913D01*
X109620500Y-82369918D01*
X109620500Y-82222082D01*
X109620500Y-82222079D01*
X109591659Y-82077092D01*
X109591658Y-82077091D01*
X109591658Y-82077087D01*
X109591656Y-82077082D01*
X109535087Y-81940511D01*
X109535080Y-81940498D01*
X109452951Y-81817584D01*
X109452948Y-81817580D01*
X109348419Y-81713051D01*
X109348415Y-81713048D01*
X109225501Y-81630919D01*
X109225488Y-81630912D01*
X109088917Y-81574343D01*
X109088907Y-81574340D01*
X108943920Y-81545500D01*
X108943918Y-81545500D01*
X107696082Y-81545500D01*
X107696080Y-81545500D01*
X107551092Y-81574340D01*
X107551082Y-81574343D01*
X107414511Y-81630912D01*
X107414498Y-81630919D01*
X107291584Y-81713048D01*
X107291580Y-81713051D01*
X107187051Y-81817580D01*
X107187048Y-81817584D01*
X107104919Y-81940498D01*
X107104912Y-81940511D01*
X107048343Y-82077082D01*
X107048340Y-82077092D01*
X107019500Y-82222079D01*
X107019500Y-82222082D01*
X107019500Y-82369918D01*
X107019500Y-82369920D01*
X107019499Y-82369920D01*
X105290500Y-82369920D01*
X105290500Y-82369918D01*
X105290500Y-82222082D01*
X105290500Y-82222079D01*
X105261659Y-82077092D01*
X105261658Y-82077091D01*
X105261658Y-82077087D01*
X105261656Y-82077082D01*
X105205087Y-81940511D01*
X105205080Y-81940498D01*
X105122951Y-81817584D01*
X105122948Y-81817580D01*
X105018419Y-81713051D01*
X105018415Y-81713048D01*
X104895501Y-81630919D01*
X104895488Y-81630912D01*
X104758917Y-81574343D01*
X104758907Y-81574340D01*
X104613920Y-81545500D01*
X104613918Y-81545500D01*
X103666082Y-81545500D01*
X103666080Y-81545500D01*
X103521092Y-81574340D01*
X103521082Y-81574343D01*
X103384511Y-81630912D01*
X103384498Y-81630919D01*
X103261584Y-81713048D01*
X103261580Y-81713051D01*
X103157051Y-81817580D01*
X103157048Y-81817584D01*
X103074919Y-81940498D01*
X103074912Y-81940511D01*
X103018343Y-82077082D01*
X103018340Y-82077092D01*
X102989500Y-82222079D01*
X102989500Y-82222082D01*
X102989500Y-82369918D01*
X102989500Y-82369920D01*
X102989499Y-82369920D01*
X102100500Y-82369920D01*
X102100500Y-81207525D01*
X111209500Y-81207525D01*
X111209500Y-81352475D01*
X111247016Y-81492485D01*
X111247017Y-81492488D01*
X111319488Y-81618011D01*
X111319490Y-81618013D01*
X111319491Y-81618015D01*
X111421985Y-81720509D01*
X111421986Y-81720510D01*
X111421988Y-81720511D01*
X111547511Y-81792982D01*
X111547512Y-81792982D01*
X111547515Y-81792984D01*
X111687525Y-81830500D01*
X111687528Y-81830500D01*
X111832472Y-81830500D01*
X111832475Y-81830500D01*
X111972485Y-81792984D01*
X112098015Y-81720509D01*
X112200509Y-81618015D01*
X112272984Y-81492485D01*
X112310500Y-81352475D01*
X112310500Y-81207525D01*
X116289500Y-81207525D01*
X116289500Y-81352475D01*
X116327016Y-81492485D01*
X116327017Y-81492488D01*
X116399488Y-81618011D01*
X116399490Y-81618013D01*
X116399491Y-81618015D01*
X116501985Y-81720509D01*
X116501986Y-81720510D01*
X116501988Y-81720511D01*
X116627511Y-81792982D01*
X116627512Y-81792982D01*
X116627515Y-81792984D01*
X116767525Y-81830500D01*
X116767528Y-81830500D01*
X116912472Y-81830500D01*
X116912475Y-81830500D01*
X117052485Y-81792984D01*
X117178015Y-81720509D01*
X117280509Y-81618015D01*
X117352984Y-81492485D01*
X117390500Y-81352475D01*
X117390500Y-81207525D01*
X121369500Y-81207525D01*
X121369500Y-81352475D01*
X121407016Y-81492485D01*
X121407017Y-81492488D01*
X121479488Y-81618011D01*
X121479490Y-81618013D01*
X121479491Y-81618015D01*
X121581985Y-81720509D01*
X121581986Y-81720510D01*
X121581988Y-81720511D01*
X121707511Y-81792982D01*
X121707512Y-81792982D01*
X121707515Y-81792984D01*
X121847525Y-81830500D01*
X121847528Y-81830500D01*
X121992472Y-81830500D01*
X121992475Y-81830500D01*
X122132485Y-81792984D01*
X122258015Y-81720509D01*
X122360509Y-81618015D01*
X122432984Y-81492485D01*
X122470500Y-81352475D01*
X122470500Y-81207525D01*
X126449500Y-81207525D01*
X126449500Y-81352475D01*
X126487016Y-81492485D01*
X126487017Y-81492488D01*
X126559488Y-81618011D01*
X126559490Y-81618013D01*
X126559491Y-81618015D01*
X126661985Y-81720509D01*
X126661986Y-81720510D01*
X126661988Y-81720511D01*
X126787511Y-81792982D01*
X126787512Y-81792982D01*
X126787515Y-81792984D01*
X126927525Y-81830500D01*
X126927528Y-81830500D01*
X127072472Y-81830500D01*
X127072475Y-81830500D01*
X127212485Y-81792984D01*
X127338015Y-81720509D01*
X127440509Y-81618015D01*
X127512984Y-81492485D01*
X127550500Y-81352475D01*
X127550500Y-81207525D01*
X131529500Y-81207525D01*
X131529500Y-81352475D01*
X131567016Y-81492485D01*
X131567017Y-81492488D01*
X131639488Y-81618011D01*
X131639490Y-81618013D01*
X131639491Y-81618015D01*
X131741985Y-81720509D01*
X131741986Y-81720510D01*
X131741988Y-81720511D01*
X131867511Y-81792982D01*
X131867512Y-81792982D01*
X131867515Y-81792984D01*
X132007525Y-81830500D01*
X132007528Y-81830500D01*
X132152472Y-81830500D01*
X132152475Y-81830500D01*
X132292485Y-81792984D01*
X132418015Y-81720509D01*
X132520509Y-81618015D01*
X132592984Y-81492485D01*
X132630500Y-81352475D01*
X132630500Y-81222533D01*
X141643686Y-81222533D01*
X141643686Y-81367483D01*
X141681202Y-81507493D01*
X141681203Y-81507496D01*
X141753674Y-81633019D01*
X141753676Y-81633021D01*
X141753677Y-81633023D01*
X141856171Y-81735517D01*
X141856172Y-81735518D01*
X141856174Y-81735519D01*
X141981697Y-81807990D01*
X141981698Y-81807990D01*
X141981701Y-81807992D01*
X142121711Y-81845508D01*
X142121714Y-81845508D01*
X142266658Y-81845508D01*
X142266661Y-81845508D01*
X142406671Y-81807992D01*
X142532201Y-81735517D01*
X142634695Y-81633023D01*
X142707170Y-81507493D01*
X142744686Y-81367483D01*
X142744686Y-81222533D01*
X142740665Y-81207525D01*
X146769500Y-81207525D01*
X146769500Y-81352475D01*
X146807016Y-81492485D01*
X146807017Y-81492488D01*
X146879488Y-81618011D01*
X146879490Y-81618013D01*
X146879491Y-81618015D01*
X146981985Y-81720509D01*
X146981986Y-81720510D01*
X146981988Y-81720511D01*
X147107511Y-81792982D01*
X147107512Y-81792982D01*
X147107515Y-81792984D01*
X147247525Y-81830500D01*
X147247528Y-81830500D01*
X147392472Y-81830500D01*
X147392475Y-81830500D01*
X147532485Y-81792984D01*
X147658015Y-81720509D01*
X147760509Y-81618015D01*
X147832984Y-81492485D01*
X147870500Y-81352475D01*
X147870500Y-81207525D01*
X162009500Y-81207525D01*
X162009500Y-81352475D01*
X162047016Y-81492485D01*
X162047017Y-81492488D01*
X162119488Y-81618011D01*
X162119490Y-81618013D01*
X162119491Y-81618015D01*
X162221985Y-81720509D01*
X162221986Y-81720510D01*
X162221988Y-81720511D01*
X162347511Y-81792982D01*
X162347512Y-81792982D01*
X162347515Y-81792984D01*
X162487525Y-81830500D01*
X162487528Y-81830500D01*
X162632472Y-81830500D01*
X162632475Y-81830500D01*
X162772485Y-81792984D01*
X162898015Y-81720509D01*
X163000509Y-81618015D01*
X163072984Y-81492485D01*
X163110500Y-81352475D01*
X163110500Y-81207525D01*
X163073360Y-81068920D01*
X165109499Y-81068920D01*
X165138340Y-81213907D01*
X165138343Y-81213917D01*
X165194912Y-81350488D01*
X165194919Y-81350501D01*
X165277048Y-81473415D01*
X165277051Y-81473419D01*
X165381580Y-81577948D01*
X165381584Y-81577951D01*
X165504498Y-81660080D01*
X165504511Y-81660087D01*
X165632374Y-81713049D01*
X165641087Y-81716658D01*
X165641091Y-81716658D01*
X165641092Y-81716659D01*
X165786079Y-81745500D01*
X165786082Y-81745500D01*
X165933920Y-81745500D01*
X166059568Y-81720506D01*
X166078913Y-81716658D01*
X166215495Y-81660084D01*
X166338416Y-81577951D01*
X166442951Y-81473416D01*
X166525084Y-81350495D01*
X166581658Y-81213913D01*
X166610500Y-81068918D01*
X166610500Y-80281846D01*
X166630185Y-80214807D01*
X166682989Y-80169052D01*
X166752147Y-80159108D01*
X166815703Y-80188133D01*
X166841885Y-80219844D01*
X166854266Y-80241288D01*
X166869492Y-80267661D01*
X166869495Y-80267665D01*
X166967335Y-80365505D01*
X167087164Y-80434688D01*
X167220817Y-80470500D01*
X167220819Y-80470500D01*
X167359181Y-80470500D01*
X167359183Y-80470500D01*
X167492836Y-80434688D01*
X167612665Y-80365505D01*
X167710505Y-80267665D01*
X167779688Y-80147836D01*
X167815500Y-80014183D01*
X167815500Y-79875817D01*
X172544500Y-79875817D01*
X172544500Y-80014182D01*
X172580312Y-80147835D01*
X172580313Y-80147838D01*
X172649492Y-80267661D01*
X172649494Y-80267664D01*
X172649495Y-80267665D01*
X172747335Y-80365505D01*
X172867164Y-80434688D01*
X173000817Y-80470500D01*
X173000819Y-80470500D01*
X173139181Y-80470500D01*
X173139183Y-80470500D01*
X173272836Y-80434688D01*
X173392665Y-80365505D01*
X173490505Y-80267665D01*
X173518113Y-80219845D01*
X173568679Y-80171631D01*
X173637286Y-80158407D01*
X173702151Y-80184375D01*
X173742680Y-80241288D01*
X173749500Y-80281846D01*
X173749500Y-81068918D01*
X173749500Y-81068920D01*
X173749499Y-81068920D01*
X173778340Y-81213907D01*
X173778343Y-81213917D01*
X173834912Y-81350488D01*
X173834919Y-81350501D01*
X173917048Y-81473415D01*
X173917051Y-81473419D01*
X174021580Y-81577948D01*
X174021584Y-81577951D01*
X174144498Y-81660080D01*
X174144511Y-81660087D01*
X174272374Y-81713049D01*
X174281087Y-81716658D01*
X174281091Y-81716658D01*
X174281092Y-81716659D01*
X174426079Y-81745500D01*
X174426082Y-81745500D01*
X174573920Y-81745500D01*
X174699568Y-81720506D01*
X174718913Y-81716658D01*
X174855495Y-81660084D01*
X174978416Y-81577951D01*
X175082951Y-81473416D01*
X175165084Y-81350495D01*
X175221658Y-81213913D01*
X175222928Y-81207525D01*
X177249500Y-81207525D01*
X177249500Y-81352475D01*
X177287016Y-81492485D01*
X177287017Y-81492488D01*
X177359488Y-81618011D01*
X177359490Y-81618013D01*
X177359491Y-81618015D01*
X177461985Y-81720509D01*
X177461986Y-81720510D01*
X177461988Y-81720511D01*
X177587511Y-81792982D01*
X177587512Y-81792982D01*
X177587515Y-81792984D01*
X177727525Y-81830500D01*
X177727528Y-81830500D01*
X177872472Y-81830500D01*
X177872475Y-81830500D01*
X178012485Y-81792984D01*
X178138015Y-81720509D01*
X178240509Y-81618015D01*
X178312984Y-81492485D01*
X178350500Y-81352475D01*
X178350500Y-81207525D01*
X178312984Y-81067515D01*
X178240509Y-80941985D01*
X178138015Y-80839491D01*
X178138013Y-80839490D01*
X178138011Y-80839488D01*
X178012488Y-80767017D01*
X178012489Y-80767017D01*
X178001006Y-80763940D01*
X177872475Y-80729500D01*
X177727525Y-80729500D01*
X177598993Y-80763940D01*
X177587511Y-80767017D01*
X177461988Y-80839488D01*
X177461982Y-80839493D01*
X177359493Y-80941982D01*
X177359488Y-80941988D01*
X177287017Y-81067511D01*
X177282996Y-81082519D01*
X177249500Y-81207525D01*
X175222928Y-81207525D01*
X175223771Y-81203288D01*
X175229358Y-81175206D01*
X175250500Y-81068920D01*
X175250500Y-79821079D01*
X175221659Y-79676092D01*
X175221658Y-79676091D01*
X175221658Y-79676087D01*
X175221656Y-79676082D01*
X175165087Y-79539511D01*
X175165080Y-79539498D01*
X175082951Y-79416584D01*
X175082948Y-79416580D01*
X174978419Y-79312051D01*
X174978415Y-79312048D01*
X174855501Y-79229919D01*
X174855488Y-79229912D01*
X174718917Y-79173343D01*
X174718907Y-79173340D01*
X174573920Y-79144500D01*
X174573918Y-79144500D01*
X174426082Y-79144500D01*
X174426080Y-79144500D01*
X174281092Y-79173340D01*
X174281082Y-79173343D01*
X174144511Y-79229912D01*
X174144498Y-79229919D01*
X174021584Y-79312048D01*
X174021580Y-79312051D01*
X173917051Y-79416580D01*
X173917048Y-79416584D01*
X173834919Y-79539498D01*
X173834912Y-79539511D01*
X173778343Y-79676082D01*
X173778340Y-79676092D01*
X173776810Y-79683785D01*
X173744421Y-79745694D01*
X173683703Y-79780264D01*
X173613934Y-79776520D01*
X173557264Y-79735650D01*
X173547807Y-79721586D01*
X173490505Y-79622335D01*
X173392665Y-79524495D01*
X173392664Y-79524494D01*
X173392661Y-79524492D01*
X173272838Y-79455313D01*
X173272837Y-79455312D01*
X173272836Y-79455312D01*
X173139183Y-79419500D01*
X173000817Y-79419500D01*
X172867164Y-79455312D01*
X172867161Y-79455313D01*
X172747338Y-79524492D01*
X172747333Y-79524496D01*
X172649496Y-79622333D01*
X172649492Y-79622338D01*
X172580313Y-79742161D01*
X172580312Y-79742164D01*
X172544500Y-79875817D01*
X167815500Y-79875817D01*
X167779688Y-79742164D01*
X167745096Y-79682249D01*
X167710507Y-79622338D01*
X167710506Y-79622336D01*
X167710505Y-79622335D01*
X167612665Y-79524495D01*
X167612664Y-79524494D01*
X167612661Y-79524492D01*
X167492838Y-79455313D01*
X167492837Y-79455312D01*
X167492836Y-79455312D01*
X167359183Y-79419500D01*
X167220817Y-79419500D01*
X167087164Y-79455312D01*
X167087161Y-79455313D01*
X166967338Y-79524492D01*
X166967333Y-79524496D01*
X166869496Y-79622333D01*
X166869492Y-79622338D01*
X166812192Y-79721586D01*
X166761625Y-79769802D01*
X166693018Y-79783025D01*
X166628153Y-79757057D01*
X166587625Y-79700142D01*
X166583187Y-79683776D01*
X166581658Y-79676087D01*
X166581656Y-79676082D01*
X166525087Y-79539511D01*
X166525080Y-79539498D01*
X166442951Y-79416584D01*
X166442948Y-79416580D01*
X166338419Y-79312051D01*
X166338415Y-79312048D01*
X166215501Y-79229919D01*
X166215488Y-79229912D01*
X166078917Y-79173343D01*
X166078907Y-79173340D01*
X165933920Y-79144500D01*
X165933918Y-79144500D01*
X165786082Y-79144500D01*
X165786080Y-79144500D01*
X165641092Y-79173340D01*
X165641082Y-79173343D01*
X165504511Y-79229912D01*
X165504498Y-79229919D01*
X165381584Y-79312048D01*
X165381580Y-79312051D01*
X165277051Y-79416580D01*
X165277048Y-79416584D01*
X165194919Y-79539498D01*
X165194912Y-79539511D01*
X165138343Y-79676082D01*
X165138340Y-79676092D01*
X165109500Y-79821079D01*
X165109500Y-79821082D01*
X165109500Y-81068918D01*
X165109500Y-81068920D01*
X165109499Y-81068920D01*
X163073360Y-81068920D01*
X163072984Y-81067515D01*
X163000509Y-80941985D01*
X162898015Y-80839491D01*
X162898013Y-80839490D01*
X162898011Y-80839488D01*
X162772488Y-80767017D01*
X162772489Y-80767017D01*
X162761006Y-80763940D01*
X162632475Y-80729500D01*
X162487525Y-80729500D01*
X162358993Y-80763940D01*
X162347511Y-80767017D01*
X162221988Y-80839488D01*
X162221982Y-80839493D01*
X162119493Y-80941982D01*
X162119488Y-80941988D01*
X162047017Y-81067511D01*
X162042996Y-81082519D01*
X162009500Y-81207525D01*
X147870500Y-81207525D01*
X147832984Y-81067515D01*
X147760509Y-80941985D01*
X147658015Y-80839491D01*
X147658013Y-80839490D01*
X147658011Y-80839488D01*
X147532488Y-80767017D01*
X147532489Y-80767017D01*
X147521006Y-80763940D01*
X147392475Y-80729500D01*
X147247525Y-80729500D01*
X147118993Y-80763940D01*
X147107511Y-80767017D01*
X146981988Y-80839488D01*
X146981982Y-80839493D01*
X146879493Y-80941982D01*
X146879488Y-80941988D01*
X146807017Y-81067511D01*
X146802996Y-81082519D01*
X146769500Y-81207525D01*
X142740665Y-81207525D01*
X142707170Y-81082523D01*
X142699316Y-81068920D01*
X142634697Y-80956996D01*
X142634692Y-80956990D01*
X142532203Y-80854501D01*
X142532197Y-80854496D01*
X142406674Y-80782025D01*
X142406675Y-80782025D01*
X142395192Y-80778948D01*
X142266661Y-80744508D01*
X142121711Y-80744508D01*
X141993179Y-80778948D01*
X141981697Y-80782025D01*
X141856174Y-80854496D01*
X141856168Y-80854501D01*
X141753679Y-80956990D01*
X141753674Y-80956996D01*
X141681203Y-81082519D01*
X141681202Y-81082523D01*
X141643686Y-81222533D01*
X132630500Y-81222533D01*
X132630500Y-81207525D01*
X132592984Y-81067515D01*
X132520509Y-80941985D01*
X132418015Y-80839491D01*
X132418013Y-80839490D01*
X132418011Y-80839488D01*
X132292488Y-80767017D01*
X132292489Y-80767017D01*
X132281006Y-80763940D01*
X132152475Y-80729500D01*
X132007525Y-80729500D01*
X131878993Y-80763940D01*
X131867511Y-80767017D01*
X131741988Y-80839488D01*
X131741982Y-80839493D01*
X131639493Y-80941982D01*
X131639488Y-80941988D01*
X131567017Y-81067511D01*
X131562996Y-81082519D01*
X131529500Y-81207525D01*
X127550500Y-81207525D01*
X127512984Y-81067515D01*
X127440509Y-80941985D01*
X127338015Y-80839491D01*
X127338013Y-80839490D01*
X127338011Y-80839488D01*
X127212488Y-80767017D01*
X127212489Y-80767017D01*
X127201006Y-80763940D01*
X127072475Y-80729500D01*
X126927525Y-80729500D01*
X126798993Y-80763940D01*
X126787511Y-80767017D01*
X126661988Y-80839488D01*
X126661982Y-80839493D01*
X126559493Y-80941982D01*
X126559488Y-80941988D01*
X126487017Y-81067511D01*
X126482996Y-81082519D01*
X126449500Y-81207525D01*
X122470500Y-81207525D01*
X122432984Y-81067515D01*
X122360509Y-80941985D01*
X122258015Y-80839491D01*
X122258013Y-80839490D01*
X122258011Y-80839488D01*
X122132488Y-80767017D01*
X122132489Y-80767017D01*
X122121006Y-80763940D01*
X121992475Y-80729500D01*
X121847525Y-80729500D01*
X121718993Y-80763940D01*
X121707511Y-80767017D01*
X121581988Y-80839488D01*
X121581982Y-80839493D01*
X121479493Y-80941982D01*
X121479488Y-80941988D01*
X121407017Y-81067511D01*
X121402996Y-81082519D01*
X121369500Y-81207525D01*
X117390500Y-81207525D01*
X117352984Y-81067515D01*
X117280509Y-80941985D01*
X117178015Y-80839491D01*
X117178013Y-80839490D01*
X117178011Y-80839488D01*
X117052488Y-80767017D01*
X117052489Y-80767017D01*
X117041006Y-80763940D01*
X116912475Y-80729500D01*
X116767525Y-80729500D01*
X116638993Y-80763940D01*
X116627511Y-80767017D01*
X116501988Y-80839488D01*
X116501982Y-80839493D01*
X116399493Y-80941982D01*
X116399488Y-80941988D01*
X116327017Y-81067511D01*
X116322996Y-81082519D01*
X116289500Y-81207525D01*
X112310500Y-81207525D01*
X112272984Y-81067515D01*
X112200509Y-80941985D01*
X112098015Y-80839491D01*
X112098013Y-80839490D01*
X112098011Y-80839488D01*
X111972488Y-80767017D01*
X111972489Y-80767017D01*
X111961006Y-80763940D01*
X111832475Y-80729500D01*
X111687525Y-80729500D01*
X111558993Y-80763940D01*
X111547511Y-80767017D01*
X111421988Y-80839488D01*
X111421982Y-80839493D01*
X111319493Y-80941982D01*
X111319488Y-80941988D01*
X111247017Y-81067511D01*
X111242996Y-81082519D01*
X111209500Y-81207525D01*
X102100500Y-81207525D01*
X102100500Y-77332378D01*
X102959500Y-77332378D01*
X102959500Y-77607621D01*
X102990315Y-77881108D01*
X102990317Y-77881124D01*
X103051561Y-78149453D01*
X103051565Y-78149465D01*
X103142467Y-78409246D01*
X103261884Y-78657218D01*
X103261886Y-78657221D01*
X103408319Y-78890268D01*
X103437305Y-78926615D01*
X103575973Y-79100500D01*
X103579925Y-79105455D01*
X103774545Y-79300075D01*
X103989732Y-79471681D01*
X104222779Y-79618114D01*
X104470757Y-79737534D01*
X104665865Y-79805805D01*
X104730534Y-79828434D01*
X104730546Y-79828438D01*
X104998879Y-79889683D01*
X105272378Y-79920499D01*
X105272379Y-79920500D01*
X105272383Y-79920500D01*
X105547621Y-79920500D01*
X105547621Y-79920499D01*
X105821121Y-79889683D01*
X106089454Y-79828438D01*
X106349243Y-79737534D01*
X106597221Y-79618114D01*
X106830268Y-79471681D01*
X107045455Y-79300075D01*
X107240075Y-79105455D01*
X107411681Y-78890268D01*
X107558114Y-78657221D01*
X107590153Y-78590691D01*
X166809500Y-78590691D01*
X166809500Y-78709309D01*
X166840201Y-78823886D01*
X166899511Y-78926613D01*
X166983387Y-79010489D01*
X167086114Y-79069799D01*
X167200691Y-79100500D01*
X167200694Y-79100500D01*
X167319306Y-79100500D01*
X167319309Y-79100500D01*
X167433886Y-79069799D01*
X167536613Y-79010489D01*
X167620489Y-78926613D01*
X167679799Y-78823886D01*
X167710500Y-78709309D01*
X167710500Y-78590691D01*
X172629500Y-78590691D01*
X172629500Y-78709309D01*
X172660201Y-78823886D01*
X172719511Y-78926613D01*
X172803387Y-79010489D01*
X172906114Y-79069799D01*
X173020691Y-79100500D01*
X173020694Y-79100500D01*
X173139306Y-79100500D01*
X173139309Y-79100500D01*
X173253886Y-79069799D01*
X173356613Y-79010489D01*
X173440489Y-78926613D01*
X173499799Y-78823886D01*
X173530500Y-78709309D01*
X173530500Y-78590691D01*
X173499799Y-78476114D01*
X173440489Y-78373387D01*
X173356613Y-78289511D01*
X173253886Y-78230201D01*
X173139309Y-78199500D01*
X173020691Y-78199500D01*
X172906114Y-78230201D01*
X172906112Y-78230201D01*
X172906112Y-78230202D01*
X172803387Y-78289511D01*
X172803384Y-78289513D01*
X172719513Y-78373384D01*
X172719511Y-78373387D01*
X172660201Y-78476114D01*
X172629500Y-78590691D01*
X167710500Y-78590691D01*
X167679799Y-78476114D01*
X167620489Y-78373387D01*
X167536613Y-78289511D01*
X167433886Y-78230201D01*
X167319309Y-78199500D01*
X167200691Y-78199500D01*
X167086114Y-78230201D01*
X167086112Y-78230201D01*
X167086112Y-78230202D01*
X166983387Y-78289511D01*
X166983384Y-78289513D01*
X166899513Y-78373384D01*
X166899511Y-78373387D01*
X166840201Y-78476114D01*
X166809500Y-78590691D01*
X107590153Y-78590691D01*
X107677534Y-78409243D01*
X107768438Y-78149454D01*
X107829683Y-77881121D01*
X107860500Y-77607617D01*
X107860500Y-77332383D01*
X107829683Y-77058879D01*
X107768438Y-76790546D01*
X107677534Y-76530757D01*
X107558114Y-76282779D01*
X107411681Y-76049732D01*
X107240075Y-75834545D01*
X107045455Y-75639925D01*
X106830268Y-75468319D01*
X106774674Y-75433387D01*
X106760098Y-75424228D01*
X106602688Y-75325321D01*
X110659500Y-75325321D01*
X110659500Y-77074678D01*
X110674032Y-77147735D01*
X110674033Y-77147739D01*
X110674034Y-77147740D01*
X110729399Y-77230601D01*
X110812260Y-77285966D01*
X110812264Y-77285967D01*
X110885321Y-77300499D01*
X110885324Y-77300500D01*
X110885326Y-77300500D01*
X112634676Y-77300500D01*
X112634677Y-77300499D01*
X112707740Y-77285966D01*
X112790601Y-77230601D01*
X112845966Y-77147740D01*
X112860500Y-77074674D01*
X112860500Y-76113389D01*
X113199500Y-76113389D01*
X113199500Y-76286611D01*
X113226598Y-76457701D01*
X113280127Y-76622445D01*
X113358768Y-76776788D01*
X113460586Y-76916928D01*
X113583072Y-77039414D01*
X113723212Y-77141232D01*
X113877555Y-77219873D01*
X114042299Y-77273402D01*
X114213389Y-77300500D01*
X114213390Y-77300500D01*
X114386610Y-77300500D01*
X114386611Y-77300500D01*
X114557701Y-77273402D01*
X114722445Y-77219873D01*
X114876788Y-77141232D01*
X115016928Y-77039414D01*
X115139414Y-76916928D01*
X115241232Y-76776788D01*
X115319873Y-76622445D01*
X115373402Y-76457701D01*
X115400500Y-76286611D01*
X115400500Y-76113389D01*
X115739500Y-76113389D01*
X115739500Y-76286611D01*
X115766598Y-76457701D01*
X115820127Y-76622445D01*
X115898768Y-76776788D01*
X116000586Y-76916928D01*
X116123072Y-77039414D01*
X116263212Y-77141232D01*
X116417555Y-77219873D01*
X116582299Y-77273402D01*
X116753389Y-77300500D01*
X116753390Y-77300500D01*
X116926610Y-77300500D01*
X116926611Y-77300500D01*
X117097701Y-77273402D01*
X117262445Y-77219873D01*
X117416788Y-77141232D01*
X117556928Y-77039414D01*
X117679414Y-76916928D01*
X117781232Y-76776788D01*
X117859873Y-76622445D01*
X117913402Y-76457701D01*
X117940500Y-76286611D01*
X117940500Y-76113389D01*
X118279500Y-76113389D01*
X118279500Y-76286611D01*
X118306598Y-76457701D01*
X118360127Y-76622445D01*
X118438768Y-76776788D01*
X118540586Y-76916928D01*
X118663072Y-77039414D01*
X118803212Y-77141232D01*
X118957555Y-77219873D01*
X119122299Y-77273402D01*
X119293389Y-77300500D01*
X119293390Y-77300500D01*
X119466610Y-77300500D01*
X119466611Y-77300500D01*
X119637701Y-77273402D01*
X119802445Y-77219873D01*
X119956788Y-77141232D01*
X120096928Y-77039414D01*
X120219414Y-76916928D01*
X120321232Y-76776788D01*
X120399873Y-76622445D01*
X120453402Y-76457701D01*
X120480500Y-76286611D01*
X120480500Y-76113389D01*
X120819500Y-76113389D01*
X120819500Y-76286611D01*
X120846598Y-76457701D01*
X120900127Y-76622445D01*
X120978768Y-76776788D01*
X121080586Y-76916928D01*
X121203072Y-77039414D01*
X121343212Y-77141232D01*
X121497555Y-77219873D01*
X121662299Y-77273402D01*
X121833389Y-77300500D01*
X121833390Y-77300500D01*
X122006610Y-77300500D01*
X122006611Y-77300500D01*
X122177701Y-77273402D01*
X122342445Y-77219873D01*
X122496788Y-77141232D01*
X122636928Y-77039414D01*
X122759414Y-76916928D01*
X122861232Y-76776788D01*
X122939873Y-76622445D01*
X122993402Y-76457701D01*
X123020500Y-76286611D01*
X123020500Y-76113389D01*
X123359500Y-76113389D01*
X123359500Y-76286611D01*
X123386598Y-76457701D01*
X123440127Y-76622445D01*
X123518768Y-76776788D01*
X123620586Y-76916928D01*
X123743072Y-77039414D01*
X123883212Y-77141232D01*
X124037555Y-77219873D01*
X124202299Y-77273402D01*
X124373389Y-77300500D01*
X124373390Y-77300500D01*
X124546610Y-77300500D01*
X124546611Y-77300500D01*
X124717701Y-77273402D01*
X124882445Y-77219873D01*
X125036788Y-77141232D01*
X125176928Y-77039414D01*
X125299414Y-76916928D01*
X125401232Y-76776788D01*
X125479873Y-76622445D01*
X125533402Y-76457701D01*
X125560500Y-76286611D01*
X125560500Y-76113389D01*
X125899500Y-76113389D01*
X125899500Y-76286611D01*
X125926598Y-76457701D01*
X125980127Y-76622445D01*
X126058768Y-76776788D01*
X126160586Y-76916928D01*
X126283072Y-77039414D01*
X126423212Y-77141232D01*
X126577555Y-77219873D01*
X126742299Y-77273402D01*
X126913389Y-77300500D01*
X126913390Y-77300500D01*
X127086610Y-77300500D01*
X127086611Y-77300500D01*
X127257701Y-77273402D01*
X127422445Y-77219873D01*
X127576788Y-77141232D01*
X127716928Y-77039414D01*
X127839414Y-76916928D01*
X127941232Y-76776788D01*
X128019873Y-76622445D01*
X128073402Y-76457701D01*
X128100500Y-76286611D01*
X128100500Y-76113389D01*
X128439500Y-76113389D01*
X128439500Y-76286611D01*
X128466598Y-76457701D01*
X128520127Y-76622445D01*
X128598768Y-76776788D01*
X128700586Y-76916928D01*
X128823072Y-77039414D01*
X128963212Y-77141232D01*
X129117555Y-77219873D01*
X129282299Y-77273402D01*
X129453389Y-77300500D01*
X129453390Y-77300500D01*
X129626610Y-77300500D01*
X129626611Y-77300500D01*
X129797701Y-77273402D01*
X129962445Y-77219873D01*
X130116788Y-77141232D01*
X130256928Y-77039414D01*
X130379414Y-76916928D01*
X130481232Y-76776788D01*
X130559873Y-76622445D01*
X130613402Y-76457701D01*
X130640500Y-76286611D01*
X130640500Y-76113389D01*
X130979500Y-76113389D01*
X130979500Y-76286611D01*
X131006598Y-76457701D01*
X131060127Y-76622445D01*
X131138768Y-76776788D01*
X131240586Y-76916928D01*
X131363072Y-77039414D01*
X131503212Y-77141232D01*
X131657555Y-77219873D01*
X131822299Y-77273402D01*
X131993389Y-77300500D01*
X131993390Y-77300500D01*
X132166610Y-77300500D01*
X132166611Y-77300500D01*
X132337701Y-77273402D01*
X132502445Y-77219873D01*
X132656788Y-77141232D01*
X132796928Y-77039414D01*
X132919414Y-76916928D01*
X133021232Y-76776788D01*
X133099873Y-76622445D01*
X133153402Y-76457701D01*
X133180500Y-76286611D01*
X133180500Y-76113389D01*
X133519500Y-76113389D01*
X133519500Y-76286611D01*
X133546598Y-76457701D01*
X133600127Y-76622445D01*
X133678768Y-76776788D01*
X133780586Y-76916928D01*
X133903072Y-77039414D01*
X134043212Y-77141232D01*
X134197555Y-77219873D01*
X134362299Y-77273402D01*
X134533389Y-77300500D01*
X134533390Y-77300500D01*
X134706610Y-77300500D01*
X134706611Y-77300500D01*
X134877701Y-77273402D01*
X135042445Y-77219873D01*
X135196788Y-77141232D01*
X135336928Y-77039414D01*
X135459414Y-76916928D01*
X135561232Y-76776788D01*
X135639873Y-76622445D01*
X135693402Y-76457701D01*
X135720500Y-76286611D01*
X135720500Y-76113389D01*
X136059500Y-76113389D01*
X136059500Y-76286611D01*
X136086598Y-76457701D01*
X136140127Y-76622445D01*
X136218768Y-76776788D01*
X136320586Y-76916928D01*
X136443072Y-77039414D01*
X136583212Y-77141232D01*
X136737555Y-77219873D01*
X136902299Y-77273402D01*
X137073389Y-77300500D01*
X137073390Y-77300500D01*
X137246610Y-77300500D01*
X137246611Y-77300500D01*
X137417701Y-77273402D01*
X137582445Y-77219873D01*
X137736788Y-77141232D01*
X137876928Y-77039414D01*
X137999414Y-76916928D01*
X138101232Y-76776788D01*
X138179873Y-76622445D01*
X138233402Y-76457701D01*
X138260500Y-76286611D01*
X138260500Y-76113389D01*
X138599500Y-76113389D01*
X138599500Y-76286611D01*
X138626598Y-76457701D01*
X138680127Y-76622445D01*
X138758768Y-76776788D01*
X138860586Y-76916928D01*
X138983072Y-77039414D01*
X139123212Y-77141232D01*
X139277555Y-77219873D01*
X139442299Y-77273402D01*
X139613389Y-77300500D01*
X139613390Y-77300500D01*
X139786610Y-77300500D01*
X139786611Y-77300500D01*
X139957701Y-77273402D01*
X140122445Y-77219873D01*
X140276788Y-77141232D01*
X140416928Y-77039414D01*
X140539414Y-76916928D01*
X140641232Y-76776788D01*
X140660527Y-76738920D01*
X165109499Y-76738920D01*
X165138340Y-76883907D01*
X165138343Y-76883917D01*
X165194912Y-77020488D01*
X165194919Y-77020501D01*
X165277048Y-77143415D01*
X165277051Y-77143419D01*
X165381580Y-77247948D01*
X165381584Y-77247951D01*
X165504498Y-77330080D01*
X165504511Y-77330087D01*
X165641082Y-77386656D01*
X165641087Y-77386658D01*
X165641091Y-77386658D01*
X165641092Y-77386659D01*
X165786079Y-77415500D01*
X165786082Y-77415500D01*
X165933920Y-77415500D01*
X166031462Y-77396096D01*
X166078913Y-77386658D01*
X166209945Y-77332383D01*
X166215488Y-77330087D01*
X166215488Y-77330086D01*
X166215495Y-77330084D01*
X166338416Y-77247951D01*
X166442951Y-77143416D01*
X166458135Y-77120691D01*
X166809500Y-77120691D01*
X166809500Y-77239309D01*
X166840201Y-77353886D01*
X166899511Y-77456613D01*
X166983387Y-77540489D01*
X167086114Y-77599799D01*
X167200691Y-77630500D01*
X167200694Y-77630500D01*
X167319306Y-77630500D01*
X167319309Y-77630500D01*
X167433886Y-77599799D01*
X167536613Y-77540489D01*
X167620489Y-77456613D01*
X167679799Y-77353886D01*
X167710500Y-77239309D01*
X167710500Y-77120691D01*
X172629500Y-77120691D01*
X172629500Y-77239309D01*
X172660201Y-77353886D01*
X172719511Y-77456613D01*
X172803387Y-77540489D01*
X172906114Y-77599799D01*
X173020691Y-77630500D01*
X173020694Y-77630500D01*
X173139306Y-77630500D01*
X173139309Y-77630500D01*
X173253886Y-77599799D01*
X173356613Y-77540489D01*
X173440489Y-77456613D01*
X173499799Y-77353886D01*
X173530500Y-77239309D01*
X173530500Y-77120691D01*
X173499799Y-77006114D01*
X173440489Y-76903387D01*
X173356613Y-76819511D01*
X173253886Y-76760201D01*
X173139309Y-76729500D01*
X173020691Y-76729500D01*
X172906114Y-76760201D01*
X172906112Y-76760201D01*
X172906112Y-76760202D01*
X172803387Y-76819511D01*
X172803384Y-76819513D01*
X172719513Y-76903384D01*
X172719511Y-76903387D01*
X172660201Y-77006114D01*
X172629500Y-77120691D01*
X167710500Y-77120691D01*
X167679799Y-77006114D01*
X167620489Y-76903387D01*
X167536613Y-76819511D01*
X167433886Y-76760201D01*
X167319309Y-76729500D01*
X167200691Y-76729500D01*
X167086114Y-76760201D01*
X167086112Y-76760201D01*
X167086112Y-76760202D01*
X166983387Y-76819511D01*
X166983384Y-76819513D01*
X166899513Y-76903384D01*
X166899511Y-76903387D01*
X166840201Y-77006114D01*
X166809500Y-77120691D01*
X166458135Y-77120691D01*
X166469497Y-77103686D01*
X166509598Y-77043673D01*
X166525081Y-77020499D01*
X166525084Y-77020495D01*
X166581658Y-76883913D01*
X166602967Y-76776788D01*
X166610500Y-76738920D01*
X166610500Y-75948807D01*
X166630185Y-75881768D01*
X166682989Y-75836013D01*
X166752147Y-75826069D01*
X166815703Y-75855094D01*
X166841886Y-75886805D01*
X166899511Y-75986613D01*
X166983387Y-76070489D01*
X167086114Y-76129799D01*
X167200691Y-76160500D01*
X167200694Y-76160500D01*
X167319306Y-76160500D01*
X167319309Y-76160500D01*
X167433886Y-76129799D01*
X167536613Y-76070489D01*
X167620489Y-75986613D01*
X167679799Y-75883886D01*
X167710500Y-75769309D01*
X167710500Y-75650691D01*
X172629500Y-75650691D01*
X172629500Y-75769309D01*
X172660201Y-75883886D01*
X172719511Y-75986613D01*
X172803387Y-76070489D01*
X172906114Y-76129799D01*
X173020691Y-76160500D01*
X173020694Y-76160500D01*
X173139306Y-76160500D01*
X173139309Y-76160500D01*
X173253886Y-76129799D01*
X173356613Y-76070489D01*
X173440489Y-75986613D01*
X173499799Y-75883886D01*
X173505725Y-75861766D01*
X173542090Y-75802107D01*
X173604936Y-75771578D01*
X173674312Y-75779872D01*
X173728190Y-75824358D01*
X173749465Y-75890909D01*
X173749500Y-75893861D01*
X173749500Y-76738918D01*
X173749500Y-76738920D01*
X173749499Y-76738920D01*
X173778340Y-76883907D01*
X173778343Y-76883917D01*
X173834912Y-77020488D01*
X173834919Y-77020501D01*
X173917048Y-77143415D01*
X173917051Y-77143419D01*
X174021580Y-77247948D01*
X174021584Y-77247951D01*
X174144498Y-77330080D01*
X174144511Y-77330087D01*
X174281082Y-77386656D01*
X174281087Y-77386658D01*
X174281091Y-77386658D01*
X174281092Y-77386659D01*
X174426079Y-77415500D01*
X174426082Y-77415500D01*
X174573920Y-77415500D01*
X174671462Y-77396096D01*
X174718913Y-77386658D01*
X174849945Y-77332383D01*
X174849957Y-77332378D01*
X181699500Y-77332378D01*
X181699500Y-77607621D01*
X181730315Y-77881108D01*
X181730317Y-77881124D01*
X181791561Y-78149453D01*
X181791565Y-78149465D01*
X181882467Y-78409246D01*
X182001884Y-78657218D01*
X182001886Y-78657221D01*
X182148319Y-78890268D01*
X182177305Y-78926615D01*
X182315973Y-79100500D01*
X182319925Y-79105455D01*
X182514545Y-79300075D01*
X182729732Y-79471681D01*
X182962779Y-79618114D01*
X183210757Y-79737534D01*
X183405865Y-79805805D01*
X183470534Y-79828434D01*
X183470546Y-79828438D01*
X183738879Y-79889683D01*
X184012378Y-79920499D01*
X184012379Y-79920500D01*
X184012383Y-79920500D01*
X184287621Y-79920500D01*
X184287621Y-79920499D01*
X184561121Y-79889683D01*
X184829454Y-79828438D01*
X185089243Y-79737534D01*
X185337221Y-79618114D01*
X185570268Y-79471681D01*
X185785455Y-79300075D01*
X185980075Y-79105455D01*
X186151681Y-78890268D01*
X186298114Y-78657221D01*
X186417534Y-78409243D01*
X186508438Y-78149454D01*
X186569683Y-77881121D01*
X186600500Y-77607617D01*
X186600500Y-77332383D01*
X186569683Y-77058879D01*
X186508438Y-76790546D01*
X186417534Y-76530757D01*
X186298114Y-76282779D01*
X186151681Y-76049732D01*
X185980075Y-75834545D01*
X185785455Y-75639925D01*
X185570268Y-75468319D01*
X185337221Y-75321886D01*
X185337218Y-75321884D01*
X185089246Y-75202467D01*
X184829465Y-75111565D01*
X184829453Y-75111561D01*
X184561124Y-75050317D01*
X184561108Y-75050315D01*
X184287621Y-75019500D01*
X184287617Y-75019500D01*
X184012383Y-75019500D01*
X184012379Y-75019500D01*
X183738891Y-75050315D01*
X183738875Y-75050317D01*
X183470546Y-75111561D01*
X183470534Y-75111565D01*
X183210753Y-75202467D01*
X182962781Y-75321884D01*
X182729733Y-75468318D01*
X182514545Y-75639924D01*
X182319924Y-75834545D01*
X182148318Y-76049733D01*
X182001884Y-76282781D01*
X181882467Y-76530753D01*
X181791565Y-76790534D01*
X181791561Y-76790546D01*
X181730317Y-77058875D01*
X181730315Y-77058891D01*
X181699500Y-77332378D01*
X174849957Y-77332378D01*
X174855488Y-77330087D01*
X174855488Y-77330086D01*
X174855495Y-77330084D01*
X174978416Y-77247951D01*
X174978419Y-77247948D01*
X174985145Y-77241223D01*
X175082948Y-77143419D01*
X175082951Y-77143416D01*
X175165084Y-77020495D01*
X175221658Y-76883913D01*
X175242967Y-76776788D01*
X175250500Y-76738920D01*
X175250500Y-75791079D01*
X175221659Y-75646092D01*
X175221658Y-75646091D01*
X175221658Y-75646087D01*
X175212183Y-75623212D01*
X175165087Y-75509511D01*
X175165080Y-75509498D01*
X175082951Y-75386584D01*
X175082948Y-75386580D01*
X174978419Y-75282051D01*
X174978415Y-75282048D01*
X174855501Y-75199919D01*
X174855488Y-75199912D01*
X174718917Y-75143343D01*
X174718907Y-75143340D01*
X174573920Y-75114500D01*
X174573918Y-75114500D01*
X174426082Y-75114500D01*
X174426080Y-75114500D01*
X174281092Y-75143340D01*
X174281082Y-75143343D01*
X174144511Y-75199912D01*
X174144498Y-75199919D01*
X174021584Y-75282048D01*
X174021580Y-75282051D01*
X173917051Y-75386580D01*
X173917048Y-75386584D01*
X173834919Y-75509498D01*
X173834912Y-75509511D01*
X173778343Y-75646082D01*
X173778342Y-75646086D01*
X173775365Y-75661052D01*
X173742977Y-75722961D01*
X173682260Y-75757533D01*
X173612491Y-75753791D01*
X173555820Y-75712923D01*
X173533056Y-75658420D01*
X173532603Y-75658542D01*
X173531701Y-75655176D01*
X173530808Y-75653038D01*
X173530500Y-75650704D01*
X173530500Y-75650691D01*
X173499799Y-75536114D01*
X173440489Y-75433387D01*
X173356613Y-75349511D01*
X173253886Y-75290201D01*
X173139309Y-75259500D01*
X173020691Y-75259500D01*
X172906114Y-75290201D01*
X172906112Y-75290201D01*
X172906112Y-75290202D01*
X172803387Y-75349511D01*
X172803384Y-75349513D01*
X172719513Y-75433384D01*
X172719511Y-75433387D01*
X172660201Y-75536114D01*
X172629500Y-75650691D01*
X167710500Y-75650691D01*
X167679799Y-75536114D01*
X167620489Y-75433387D01*
X167536613Y-75349511D01*
X167433886Y-75290201D01*
X167319309Y-75259500D01*
X167200691Y-75259500D01*
X167086114Y-75290201D01*
X167086112Y-75290201D01*
X167086112Y-75290202D01*
X166983387Y-75349511D01*
X166983384Y-75349513D01*
X166899513Y-75433384D01*
X166899511Y-75433387D01*
X166840201Y-75536114D01*
X166816863Y-75623212D01*
X166815299Y-75629050D01*
X166778933Y-75688710D01*
X166716086Y-75719239D01*
X166646711Y-75710944D01*
X166592833Y-75666458D01*
X166580963Y-75644409D01*
X166525085Y-75509507D01*
X166525080Y-75509498D01*
X166442951Y-75386584D01*
X166442948Y-75386580D01*
X166338419Y-75282051D01*
X166338415Y-75282048D01*
X166215501Y-75199919D01*
X166215488Y-75199912D01*
X166078917Y-75143343D01*
X166078907Y-75143340D01*
X165933920Y-75114500D01*
X165933918Y-75114500D01*
X165786082Y-75114500D01*
X165786080Y-75114500D01*
X165641092Y-75143340D01*
X165641082Y-75143343D01*
X165504511Y-75199912D01*
X165504498Y-75199919D01*
X165381584Y-75282048D01*
X165381580Y-75282051D01*
X165277051Y-75386580D01*
X165277048Y-75386584D01*
X165194919Y-75509498D01*
X165194912Y-75509511D01*
X165138343Y-75646082D01*
X165138340Y-75646092D01*
X165109500Y-75791079D01*
X165109500Y-75791082D01*
X165109500Y-76738918D01*
X165109500Y-76738920D01*
X165109499Y-76738920D01*
X140660527Y-76738920D01*
X140719873Y-76622445D01*
X140773402Y-76457701D01*
X140800500Y-76286611D01*
X140800500Y-76113389D01*
X140773402Y-75942299D01*
X140719873Y-75777555D01*
X140719871Y-75777552D01*
X140719871Y-75777550D01*
X140652887Y-75646087D01*
X140641232Y-75623212D01*
X140539414Y-75483072D01*
X140416928Y-75360586D01*
X140276788Y-75258768D01*
X140122445Y-75180127D01*
X139957701Y-75126598D01*
X139957699Y-75126597D01*
X139957698Y-75126597D01*
X139826271Y-75105781D01*
X139786611Y-75099500D01*
X139613389Y-75099500D01*
X139573728Y-75105781D01*
X139442302Y-75126597D01*
X139277552Y-75180128D01*
X139123211Y-75258768D01*
X139043256Y-75316859D01*
X138983072Y-75360586D01*
X138983070Y-75360588D01*
X138983069Y-75360588D01*
X138860588Y-75483069D01*
X138860588Y-75483070D01*
X138860586Y-75483072D01*
X138841380Y-75509507D01*
X138758768Y-75623211D01*
X138680128Y-75777552D01*
X138626597Y-75942302D01*
X138619579Y-75986613D01*
X138599500Y-76113389D01*
X138260500Y-76113389D01*
X138233402Y-75942299D01*
X138179873Y-75777555D01*
X138101232Y-75623212D01*
X137999414Y-75483072D01*
X137876928Y-75360586D01*
X137736788Y-75258768D01*
X137582445Y-75180127D01*
X137417701Y-75126598D01*
X137417699Y-75126597D01*
X137417698Y-75126597D01*
X137286271Y-75105781D01*
X137246611Y-75099500D01*
X137073389Y-75099500D01*
X137033728Y-75105781D01*
X136902302Y-75126597D01*
X136737552Y-75180128D01*
X136583211Y-75258768D01*
X136503256Y-75316859D01*
X136443072Y-75360586D01*
X136443070Y-75360588D01*
X136443069Y-75360588D01*
X136320588Y-75483069D01*
X136320588Y-75483070D01*
X136320586Y-75483072D01*
X136301380Y-75509507D01*
X136218768Y-75623211D01*
X136140128Y-75777552D01*
X136086597Y-75942302D01*
X136079579Y-75986613D01*
X136059500Y-76113389D01*
X135720500Y-76113389D01*
X135693402Y-75942299D01*
X135639873Y-75777555D01*
X135561232Y-75623212D01*
X135459414Y-75483072D01*
X135336928Y-75360586D01*
X135196788Y-75258768D01*
X135042445Y-75180127D01*
X134877701Y-75126598D01*
X134877699Y-75126597D01*
X134877698Y-75126597D01*
X134746271Y-75105781D01*
X134706611Y-75099500D01*
X134533389Y-75099500D01*
X134493728Y-75105781D01*
X134362302Y-75126597D01*
X134197552Y-75180128D01*
X134043211Y-75258768D01*
X133963256Y-75316859D01*
X133903072Y-75360586D01*
X133903070Y-75360588D01*
X133903069Y-75360588D01*
X133780588Y-75483069D01*
X133780588Y-75483070D01*
X133780586Y-75483072D01*
X133761380Y-75509507D01*
X133678768Y-75623211D01*
X133600128Y-75777552D01*
X133546597Y-75942302D01*
X133539579Y-75986613D01*
X133519500Y-76113389D01*
X133180500Y-76113389D01*
X133153402Y-75942299D01*
X133099873Y-75777555D01*
X133021232Y-75623212D01*
X132919414Y-75483072D01*
X132796928Y-75360586D01*
X132656788Y-75258768D01*
X132502445Y-75180127D01*
X132337701Y-75126598D01*
X132337699Y-75126597D01*
X132337698Y-75126597D01*
X132206271Y-75105781D01*
X132166611Y-75099500D01*
X131993389Y-75099500D01*
X131953728Y-75105781D01*
X131822302Y-75126597D01*
X131657552Y-75180128D01*
X131503211Y-75258768D01*
X131423256Y-75316859D01*
X131363072Y-75360586D01*
X131363070Y-75360588D01*
X131363069Y-75360588D01*
X131240588Y-75483069D01*
X131240588Y-75483070D01*
X131240586Y-75483072D01*
X131221380Y-75509507D01*
X131138768Y-75623211D01*
X131060128Y-75777552D01*
X131006597Y-75942302D01*
X130999579Y-75986613D01*
X130979500Y-76113389D01*
X130640500Y-76113389D01*
X130613402Y-75942299D01*
X130559873Y-75777555D01*
X130481232Y-75623212D01*
X130379414Y-75483072D01*
X130256928Y-75360586D01*
X130116788Y-75258768D01*
X129962445Y-75180127D01*
X129797701Y-75126598D01*
X129797699Y-75126597D01*
X129797698Y-75126597D01*
X129666271Y-75105781D01*
X129626611Y-75099500D01*
X129453389Y-75099500D01*
X129413728Y-75105781D01*
X129282302Y-75126597D01*
X129117552Y-75180128D01*
X128963211Y-75258768D01*
X128883256Y-75316859D01*
X128823072Y-75360586D01*
X128823070Y-75360588D01*
X128823069Y-75360588D01*
X128700588Y-75483069D01*
X128700588Y-75483070D01*
X128700586Y-75483072D01*
X128681380Y-75509507D01*
X128598768Y-75623211D01*
X128520128Y-75777552D01*
X128466597Y-75942302D01*
X128459579Y-75986613D01*
X128439500Y-76113389D01*
X128100500Y-76113389D01*
X128073402Y-75942299D01*
X128019873Y-75777555D01*
X127941232Y-75623212D01*
X127839414Y-75483072D01*
X127716928Y-75360586D01*
X127576788Y-75258768D01*
X127422445Y-75180127D01*
X127257701Y-75126598D01*
X127257699Y-75126597D01*
X127257698Y-75126597D01*
X127126271Y-75105781D01*
X127086611Y-75099500D01*
X126913389Y-75099500D01*
X126873728Y-75105781D01*
X126742302Y-75126597D01*
X126577552Y-75180128D01*
X126423211Y-75258768D01*
X126343256Y-75316859D01*
X126283072Y-75360586D01*
X126283070Y-75360588D01*
X126283069Y-75360588D01*
X126160588Y-75483069D01*
X126160588Y-75483070D01*
X126160586Y-75483072D01*
X126141380Y-75509507D01*
X126058768Y-75623211D01*
X125980128Y-75777552D01*
X125926597Y-75942302D01*
X125919579Y-75986613D01*
X125899500Y-76113389D01*
X125560500Y-76113389D01*
X125533402Y-75942299D01*
X125479873Y-75777555D01*
X125401232Y-75623212D01*
X125299414Y-75483072D01*
X125176928Y-75360586D01*
X125036788Y-75258768D01*
X124882445Y-75180127D01*
X124717701Y-75126598D01*
X124717699Y-75126597D01*
X124717698Y-75126597D01*
X124586271Y-75105781D01*
X124546611Y-75099500D01*
X124373389Y-75099500D01*
X124333728Y-75105781D01*
X124202302Y-75126597D01*
X124037552Y-75180128D01*
X123883211Y-75258768D01*
X123803256Y-75316859D01*
X123743072Y-75360586D01*
X123743070Y-75360588D01*
X123743069Y-75360588D01*
X123620588Y-75483069D01*
X123620588Y-75483070D01*
X123620586Y-75483072D01*
X123601380Y-75509507D01*
X123518768Y-75623211D01*
X123440128Y-75777552D01*
X123386597Y-75942302D01*
X123379579Y-75986613D01*
X123359500Y-76113389D01*
X123020500Y-76113389D01*
X122993402Y-75942299D01*
X122939873Y-75777555D01*
X122861232Y-75623212D01*
X122759414Y-75483072D01*
X122636928Y-75360586D01*
X122496788Y-75258768D01*
X122342445Y-75180127D01*
X122177701Y-75126598D01*
X122177699Y-75126597D01*
X122177698Y-75126597D01*
X122046271Y-75105781D01*
X122006611Y-75099500D01*
X121833389Y-75099500D01*
X121793728Y-75105781D01*
X121662302Y-75126597D01*
X121497552Y-75180128D01*
X121343211Y-75258768D01*
X121263256Y-75316859D01*
X121203072Y-75360586D01*
X121203070Y-75360588D01*
X121203069Y-75360588D01*
X121080588Y-75483069D01*
X121080588Y-75483070D01*
X121080586Y-75483072D01*
X121061380Y-75509507D01*
X120978768Y-75623211D01*
X120900128Y-75777552D01*
X120846597Y-75942302D01*
X120839579Y-75986613D01*
X120819500Y-76113389D01*
X120480500Y-76113389D01*
X120453402Y-75942299D01*
X120399873Y-75777555D01*
X120321232Y-75623212D01*
X120219414Y-75483072D01*
X120096928Y-75360586D01*
X119956788Y-75258768D01*
X119802445Y-75180127D01*
X119637701Y-75126598D01*
X119637699Y-75126597D01*
X119637698Y-75126597D01*
X119506271Y-75105781D01*
X119466611Y-75099500D01*
X119293389Y-75099500D01*
X119253728Y-75105781D01*
X119122302Y-75126597D01*
X118957552Y-75180128D01*
X118803211Y-75258768D01*
X118723256Y-75316859D01*
X118663072Y-75360586D01*
X118663070Y-75360588D01*
X118663069Y-75360588D01*
X118540588Y-75483069D01*
X118540588Y-75483070D01*
X118540586Y-75483072D01*
X118521380Y-75509507D01*
X118438768Y-75623211D01*
X118360128Y-75777552D01*
X118306597Y-75942302D01*
X118299579Y-75986613D01*
X118279500Y-76113389D01*
X117940500Y-76113389D01*
X117913402Y-75942299D01*
X117859873Y-75777555D01*
X117781232Y-75623212D01*
X117679414Y-75483072D01*
X117556928Y-75360586D01*
X117416788Y-75258768D01*
X117262445Y-75180127D01*
X117097701Y-75126598D01*
X117097699Y-75126597D01*
X117097698Y-75126597D01*
X116966271Y-75105781D01*
X116926611Y-75099500D01*
X116753389Y-75099500D01*
X116713728Y-75105781D01*
X116582302Y-75126597D01*
X116417552Y-75180128D01*
X116263211Y-75258768D01*
X116183256Y-75316859D01*
X116123072Y-75360586D01*
X116123070Y-75360588D01*
X116123069Y-75360588D01*
X116000588Y-75483069D01*
X116000588Y-75483070D01*
X116000586Y-75483072D01*
X115981380Y-75509507D01*
X115898768Y-75623211D01*
X115820128Y-75777552D01*
X115766597Y-75942302D01*
X115759579Y-75986613D01*
X115739500Y-76113389D01*
X115400500Y-76113389D01*
X115373402Y-75942299D01*
X115319873Y-75777555D01*
X115241232Y-75623212D01*
X115139414Y-75483072D01*
X115016928Y-75360586D01*
X114876788Y-75258768D01*
X114722445Y-75180127D01*
X114557701Y-75126598D01*
X114557699Y-75126597D01*
X114557698Y-75126597D01*
X114426271Y-75105781D01*
X114386611Y-75099500D01*
X114213389Y-75099500D01*
X114173728Y-75105781D01*
X114042302Y-75126597D01*
X113877552Y-75180128D01*
X113723211Y-75258768D01*
X113643256Y-75316859D01*
X113583072Y-75360586D01*
X113583070Y-75360588D01*
X113583069Y-75360588D01*
X113460588Y-75483069D01*
X113460588Y-75483070D01*
X113460586Y-75483072D01*
X113441380Y-75509507D01*
X113358768Y-75623211D01*
X113280128Y-75777552D01*
X113226597Y-75942302D01*
X113219579Y-75986613D01*
X113199500Y-76113389D01*
X112860500Y-76113389D01*
X112860500Y-75325326D01*
X112860500Y-75325323D01*
X112860499Y-75325321D01*
X112845967Y-75252264D01*
X112845966Y-75252260D01*
X112790601Y-75169399D01*
X112726542Y-75126597D01*
X112707739Y-75114033D01*
X112707735Y-75114032D01*
X112634677Y-75099500D01*
X112634674Y-75099500D01*
X110885326Y-75099500D01*
X110885323Y-75099500D01*
X110812264Y-75114032D01*
X110812260Y-75114033D01*
X110729399Y-75169399D01*
X110674033Y-75252260D01*
X110674032Y-75252264D01*
X110659500Y-75325321D01*
X106602688Y-75325321D01*
X106597218Y-75321884D01*
X106349246Y-75202467D01*
X106089465Y-75111565D01*
X106089453Y-75111561D01*
X105821124Y-75050317D01*
X105821108Y-75050315D01*
X105547621Y-75019500D01*
X105547617Y-75019500D01*
X105272383Y-75019500D01*
X105272379Y-75019500D01*
X104998891Y-75050315D01*
X104998875Y-75050317D01*
X104730546Y-75111561D01*
X104730534Y-75111565D01*
X104470753Y-75202467D01*
X104222781Y-75321884D01*
X103989733Y-75468318D01*
X103774545Y-75639924D01*
X103579924Y-75834545D01*
X103408318Y-76049733D01*
X103261884Y-76282781D01*
X103142467Y-76530753D01*
X103051565Y-76790534D01*
X103051561Y-76790546D01*
X102990317Y-77058875D01*
X102990315Y-77058891D01*
X102959500Y-77332378D01*
X102100500Y-77332378D01*
X102100500Y-74284500D01*
X102120185Y-74217461D01*
X102172989Y-74171706D01*
X102224500Y-74160500D01*
X187335500Y-74160500D01*
X187402539Y-74180185D01*
G37*
%TD.AperFunction*%
%TD*%
M02*
