M48
; DRILL file {KiCad 9.0.3} date 2025-11-22T18:35:34-0500
; FORMAT={-:-/ absolute / metric / decimal}
; #@! TF.CreationDate,2025-11-22T18:35:34-05:00
; #@! TF.GenerationSoftware,Kicad,Pcbnew,9.0.3
; #@! TF.FileFunction,Plated,1,8,PTH
FMAT,2
METRIC
; #@! TA.AperFunction,Plated,PTH,ViaDrill
T1C0.200
; #@! TA.AperFunction,Plated,PTH,ComponentDrill
T2C0.200
; #@! TA.AperFunction,Plated,PTH,ViaDrill
T3C0.300
; #@! TA.AperFunction,Plated,PTH,ComponentDrill
T4C0.400
; #@! TA.AperFunction,Plated,PTH,ComponentDrill
T5C0.600
; #@! TA.AperFunction,Plated,PTH,ComponentDrill
T6C0.750
; #@! TA.AperFunction,Plated,PTH,ComponentDrill
T7C1.000
; #@! TA.AperFunction,Plated,PTH,ComponentDrill
T8C2.200
%
G90
G05
T1
X124.018Y-111.545
X133.52Y-104.41
X134.05Y-100.59
X134.07Y-103.13
X134.084Y-102.58
X134.11Y-98.08
X134.12Y-105.39
X134.3Y-99.61
X134.67Y-105.392
X135.22Y-105.392
X135.73Y-104.17
X141.72Y-95.28
X150.97Y-113.02
X154.49Y-117.39
X156.95Y-118.15
X157.1Y-96.8
X157.84Y-121.61
T2
X112.08Y-99.67
X112.08Y-100.85
X113.26Y-99.67
X113.26Y-100.85
T3
X111.76Y-81.28
X111.76Y-88.9
X111.76Y-96.52
X111.76Y-111.76
X111.76Y-119.38
X116.84Y-81.28
X116.84Y-119.38
X121.92Y-81.28
X121.92Y-119.38
X127.0Y-81.28
X127.0Y-88.9
X127.0Y-104.14
X127.0Y-111.76
X127.0Y-119.38
X132.08Y-81.28
X132.08Y-88.9
X132.08Y-96.52
X132.08Y-104.14
X132.08Y-111.76
X132.08Y-119.38
X137.16Y-111.76
X137.16Y-119.38
X142.194Y-81.295
X147.32Y-81.28
X147.32Y-119.38
X162.535Y-88.854
X162.56Y-81.28
X162.56Y-111.76
X162.56Y-119.38
X167.64Y-111.76
X167.64Y-119.38
X172.72Y-111.76
X172.72Y-119.38
X177.8Y-81.28
X177.8Y-88.9
X177.8Y-96.52
X177.8Y-104.14
X177.8Y-111.76
X177.8Y-119.38
X182.88Y-96.52
X182.88Y-104.14
T4
X103.76Y-77.47
X103.76Y-123.19
X104.243Y-76.303
X104.243Y-78.637
X104.243Y-122.023
X104.243Y-124.357
X105.41Y-75.82
X105.41Y-79.12
X105.41Y-121.54
X105.41Y-124.84
X106.577Y-76.303
X106.577Y-78.637
X106.577Y-122.023
X106.577Y-124.357
X107.06Y-77.47
X107.06Y-123.19
X182.5Y-77.47
X182.5Y-123.19
X182.983Y-76.303
X182.983Y-78.637
X182.983Y-122.023
X182.983Y-124.357
X184.15Y-75.82
X184.15Y-79.12
X184.15Y-121.54
X184.15Y-124.84
X185.317Y-76.303
X185.317Y-78.637
X185.317Y-122.023
X185.317Y-124.357
X185.8Y-77.47
X185.8Y-123.19
T6
X105.39Y-99.25
X105.39Y-101.25
T7
X111.76Y-76.2
X111.76Y-124.46
X114.3Y-76.2
X114.3Y-124.46
X116.84Y-76.2
X116.84Y-124.46
X119.38Y-76.2
X119.38Y-124.46
X121.92Y-76.2
X121.92Y-124.46
X124.46Y-76.2
X124.46Y-124.46
X127.0Y-76.2
X127.0Y-124.46
X129.54Y-76.2
X129.54Y-124.46
X132.08Y-76.2
X132.08Y-124.46
X134.62Y-76.2
X134.62Y-124.46
X137.16Y-76.2
X137.16Y-124.46
X139.7Y-76.2
X139.7Y-124.46
X142.24Y-124.46
X144.78Y-124.46
X149.86Y-124.46
X152.4Y-124.46
X154.94Y-124.46
X157.48Y-124.46
X160.02Y-124.46
X162.56Y-124.46
T8
X105.41Y-77.47
X105.41Y-123.19
X184.15Y-77.47
X184.15Y-123.19
T5
G00X104.54Y-82.296
M15
G01X103.74Y-82.296
M16
G05
G00X104.54Y-90.936
M15
G01X103.74Y-90.936
M16
G05
G00X108.87Y-82.296
M15
G01X107.77Y-82.296
M16
G05
G00X108.87Y-90.936
M15
G01X107.77Y-90.936
M16
G05
G00X165.86Y-76.665
M15
G01X165.86Y-75.865
M16
G05
G00X165.86Y-80.995
M15
G01X165.86Y-79.895
M16
G05
G00X174.5Y-76.665
M15
G01X174.5Y-75.865
M16
G05
G00X174.5Y-80.995
M15
G01X174.5Y-79.895
M16
G05
M30
