M48
; DRILL file {KiCad 9.0.3} date 2025-11-22T18:35:34-0500
; FORMAT={-:-/ absolute / metric / decimal}
; #@! TF.CreationDate,2025-11-22T18:35:34-05:00
; #@! TF.GenerationSoftware,Kicad,Pcbnew,9.0.3
; #@! TF.FileFunction,Plated,1,5,Blind
FMAT,2
METRIC
; #@! TA.AperFunction,Plated,Buried,ViaDrill
T1C0.200
%
G90
G05
T1
X121.21Y-104.15
X122.57Y-96.82
X123.26Y-99.47
X132.99Y-94.2
X134.46Y-94.2
X135.79Y-88.88
X135.79Y-90.34
X138.22Y-95.27
X138.72Y-95.27
X141.22Y-96.49
X141.22Y-104.17
X142.88Y-113.17
X142.88Y-114.19
X143.046Y-99.543
X143.99Y-102.58
X145.08Y-105.89
X145.97Y-117.31
X148.48Y-84.57
X151.5Y-99.2
X151.5Y-101.6
X151.89Y-91.93
X153.9Y-98.4
X153.9Y-102.4
X155.5Y-100.0
X155.72Y-81.63
X157.12Y-111.22
X157.56Y-110.71
X158.1Y-104.4
X159.04Y-84.83
X159.05Y-81.85
X160.37Y-110.81
X168.62Y-86.69
X169.31Y-87.34
X181.3Y-88.14
X182.49Y-119.64
X185.81Y-119.64
M30
