%TF.GenerationSoftware,KiCad,Pcbnew,9.0.3*%
%TF.CreationDate,2025-11-22T18:35:30-05:00*%
%TF.ProjectId,SeedSBC_rev2_0,53656564-5342-4435-9f72-6576325f302e,rev?*%
%TF.SameCoordinates,Original*%
%TF.FileFunction,Legend,Bot*%
%TF.FilePolarity,Positive*%
%FSLAX46Y46*%
G04 Gerber Fmt 4.6, Leading zero omitted, Abs format (unit mm)*
G04 Created by KiCad (PCBNEW 9.0.3) date 2025-11-22 18:35:30*
%MOMM*%
%LPD*%
G01*
G04 APERTURE LIST*
%ADD10C,0.125000*%
%ADD11C,0.120000*%
G04 APERTURE END LIST*
D10*
X153946428Y-93802190D02*
X153970237Y-93826000D01*
X153970237Y-93826000D02*
X154041666Y-93849809D01*
X154041666Y-93849809D02*
X154089285Y-93849809D01*
X154089285Y-93849809D02*
X154160713Y-93826000D01*
X154160713Y-93826000D02*
X154208332Y-93778380D01*
X154208332Y-93778380D02*
X154232142Y-93730761D01*
X154232142Y-93730761D02*
X154255951Y-93635523D01*
X154255951Y-93635523D02*
X154255951Y-93564095D01*
X154255951Y-93564095D02*
X154232142Y-93468857D01*
X154232142Y-93468857D02*
X154208332Y-93421238D01*
X154208332Y-93421238D02*
X154160713Y-93373619D01*
X154160713Y-93373619D02*
X154089285Y-93349809D01*
X154089285Y-93349809D02*
X154041666Y-93349809D01*
X154041666Y-93349809D02*
X153970237Y-93373619D01*
X153970237Y-93373619D02*
X153946428Y-93397428D01*
X153755951Y-93397428D02*
X153732142Y-93373619D01*
X153732142Y-93373619D02*
X153684523Y-93349809D01*
X153684523Y-93349809D02*
X153565475Y-93349809D01*
X153565475Y-93349809D02*
X153517856Y-93373619D01*
X153517856Y-93373619D02*
X153494047Y-93397428D01*
X153494047Y-93397428D02*
X153470237Y-93445047D01*
X153470237Y-93445047D02*
X153470237Y-93492666D01*
X153470237Y-93492666D02*
X153494047Y-93564095D01*
X153494047Y-93564095D02*
X153779761Y-93849809D01*
X153779761Y-93849809D02*
X153470237Y-93849809D01*
X153303571Y-93349809D02*
X152970238Y-93349809D01*
X152970238Y-93349809D02*
X153184523Y-93849809D01*
X157521428Y-103427190D02*
X157545237Y-103451000D01*
X157545237Y-103451000D02*
X157616666Y-103474809D01*
X157616666Y-103474809D02*
X157664285Y-103474809D01*
X157664285Y-103474809D02*
X157735713Y-103451000D01*
X157735713Y-103451000D02*
X157783332Y-103403380D01*
X157783332Y-103403380D02*
X157807142Y-103355761D01*
X157807142Y-103355761D02*
X157830951Y-103260523D01*
X157830951Y-103260523D02*
X157830951Y-103189095D01*
X157830951Y-103189095D02*
X157807142Y-103093857D01*
X157807142Y-103093857D02*
X157783332Y-103046238D01*
X157783332Y-103046238D02*
X157735713Y-102998619D01*
X157735713Y-102998619D02*
X157664285Y-102974809D01*
X157664285Y-102974809D02*
X157616666Y-102974809D01*
X157616666Y-102974809D02*
X157545237Y-102998619D01*
X157545237Y-102998619D02*
X157521428Y-103022428D01*
X157045237Y-103474809D02*
X157330951Y-103474809D01*
X157188094Y-103474809D02*
X157188094Y-102974809D01*
X157188094Y-102974809D02*
X157235713Y-103046238D01*
X157235713Y-103046238D02*
X157283332Y-103093857D01*
X157283332Y-103093857D02*
X157330951Y-103117666D01*
X156759523Y-103189095D02*
X156807142Y-103165285D01*
X156807142Y-103165285D02*
X156830952Y-103141476D01*
X156830952Y-103141476D02*
X156854761Y-103093857D01*
X156854761Y-103093857D02*
X156854761Y-103070047D01*
X156854761Y-103070047D02*
X156830952Y-103022428D01*
X156830952Y-103022428D02*
X156807142Y-102998619D01*
X156807142Y-102998619D02*
X156759523Y-102974809D01*
X156759523Y-102974809D02*
X156664285Y-102974809D01*
X156664285Y-102974809D02*
X156616666Y-102998619D01*
X156616666Y-102998619D02*
X156592857Y-103022428D01*
X156592857Y-103022428D02*
X156569047Y-103070047D01*
X156569047Y-103070047D02*
X156569047Y-103093857D01*
X156569047Y-103093857D02*
X156592857Y-103141476D01*
X156592857Y-103141476D02*
X156616666Y-103165285D01*
X156616666Y-103165285D02*
X156664285Y-103189095D01*
X156664285Y-103189095D02*
X156759523Y-103189095D01*
X156759523Y-103189095D02*
X156807142Y-103212904D01*
X156807142Y-103212904D02*
X156830952Y-103236714D01*
X156830952Y-103236714D02*
X156854761Y-103284333D01*
X156854761Y-103284333D02*
X156854761Y-103379571D01*
X156854761Y-103379571D02*
X156830952Y-103427190D01*
X156830952Y-103427190D02*
X156807142Y-103451000D01*
X156807142Y-103451000D02*
X156759523Y-103474809D01*
X156759523Y-103474809D02*
X156664285Y-103474809D01*
X156664285Y-103474809D02*
X156616666Y-103451000D01*
X156616666Y-103451000D02*
X156592857Y-103427190D01*
X156592857Y-103427190D02*
X156569047Y-103379571D01*
X156569047Y-103379571D02*
X156569047Y-103284333D01*
X156569047Y-103284333D02*
X156592857Y-103236714D01*
X156592857Y-103236714D02*
X156616666Y-103212904D01*
X156616666Y-103212904D02*
X156664285Y-103189095D01*
X165096428Y-102677190D02*
X165120237Y-102701000D01*
X165120237Y-102701000D02*
X165191666Y-102724809D01*
X165191666Y-102724809D02*
X165239285Y-102724809D01*
X165239285Y-102724809D02*
X165310713Y-102701000D01*
X165310713Y-102701000D02*
X165358332Y-102653380D01*
X165358332Y-102653380D02*
X165382142Y-102605761D01*
X165382142Y-102605761D02*
X165405951Y-102510523D01*
X165405951Y-102510523D02*
X165405951Y-102439095D01*
X165405951Y-102439095D02*
X165382142Y-102343857D01*
X165382142Y-102343857D02*
X165358332Y-102296238D01*
X165358332Y-102296238D02*
X165310713Y-102248619D01*
X165310713Y-102248619D02*
X165239285Y-102224809D01*
X165239285Y-102224809D02*
X165191666Y-102224809D01*
X165191666Y-102224809D02*
X165120237Y-102248619D01*
X165120237Y-102248619D02*
X165096428Y-102272428D01*
X164644047Y-102224809D02*
X164882142Y-102224809D01*
X164882142Y-102224809D02*
X164905951Y-102462904D01*
X164905951Y-102462904D02*
X164882142Y-102439095D01*
X164882142Y-102439095D02*
X164834523Y-102415285D01*
X164834523Y-102415285D02*
X164715475Y-102415285D01*
X164715475Y-102415285D02*
X164667856Y-102439095D01*
X164667856Y-102439095D02*
X164644047Y-102462904D01*
X164644047Y-102462904D02*
X164620237Y-102510523D01*
X164620237Y-102510523D02*
X164620237Y-102629571D01*
X164620237Y-102629571D02*
X164644047Y-102677190D01*
X164644047Y-102677190D02*
X164667856Y-102701000D01*
X164667856Y-102701000D02*
X164715475Y-102724809D01*
X164715475Y-102724809D02*
X164834523Y-102724809D01*
X164834523Y-102724809D02*
X164882142Y-102701000D01*
X164882142Y-102701000D02*
X164905951Y-102677190D01*
X164429761Y-102272428D02*
X164405952Y-102248619D01*
X164405952Y-102248619D02*
X164358333Y-102224809D01*
X164358333Y-102224809D02*
X164239285Y-102224809D01*
X164239285Y-102224809D02*
X164191666Y-102248619D01*
X164191666Y-102248619D02*
X164167857Y-102272428D01*
X164167857Y-102272428D02*
X164144047Y-102320047D01*
X164144047Y-102320047D02*
X164144047Y-102367666D01*
X164144047Y-102367666D02*
X164167857Y-102439095D01*
X164167857Y-102439095D02*
X164453571Y-102724809D01*
X164453571Y-102724809D02*
X164144047Y-102724809D01*
X159921428Y-97227190D02*
X159945237Y-97251000D01*
X159945237Y-97251000D02*
X160016666Y-97274809D01*
X160016666Y-97274809D02*
X160064285Y-97274809D01*
X160064285Y-97274809D02*
X160135713Y-97251000D01*
X160135713Y-97251000D02*
X160183332Y-97203380D01*
X160183332Y-97203380D02*
X160207142Y-97155761D01*
X160207142Y-97155761D02*
X160230951Y-97060523D01*
X160230951Y-97060523D02*
X160230951Y-96989095D01*
X160230951Y-96989095D02*
X160207142Y-96893857D01*
X160207142Y-96893857D02*
X160183332Y-96846238D01*
X160183332Y-96846238D02*
X160135713Y-96798619D01*
X160135713Y-96798619D02*
X160064285Y-96774809D01*
X160064285Y-96774809D02*
X160016666Y-96774809D01*
X160016666Y-96774809D02*
X159945237Y-96798619D01*
X159945237Y-96798619D02*
X159921428Y-96822428D01*
X159492856Y-96941476D02*
X159492856Y-97274809D01*
X159611904Y-96751000D02*
X159730951Y-97108142D01*
X159730951Y-97108142D02*
X159421428Y-97108142D01*
X159207142Y-97274809D02*
X159111904Y-97274809D01*
X159111904Y-97274809D02*
X159064285Y-97251000D01*
X159064285Y-97251000D02*
X159040476Y-97227190D01*
X159040476Y-97227190D02*
X158992857Y-97155761D01*
X158992857Y-97155761D02*
X158969047Y-97060523D01*
X158969047Y-97060523D02*
X158969047Y-96870047D01*
X158969047Y-96870047D02*
X158992857Y-96822428D01*
X158992857Y-96822428D02*
X159016666Y-96798619D01*
X159016666Y-96798619D02*
X159064285Y-96774809D01*
X159064285Y-96774809D02*
X159159523Y-96774809D01*
X159159523Y-96774809D02*
X159207142Y-96798619D01*
X159207142Y-96798619D02*
X159230952Y-96822428D01*
X159230952Y-96822428D02*
X159254761Y-96870047D01*
X159254761Y-96870047D02*
X159254761Y-96989095D01*
X159254761Y-96989095D02*
X159230952Y-97036714D01*
X159230952Y-97036714D02*
X159207142Y-97060523D01*
X159207142Y-97060523D02*
X159159523Y-97084333D01*
X159159523Y-97084333D02*
X159064285Y-97084333D01*
X159064285Y-97084333D02*
X159016666Y-97060523D01*
X159016666Y-97060523D02*
X158992857Y-97036714D01*
X158992857Y-97036714D02*
X158969047Y-96989095D01*
X185233331Y-95662809D02*
X184947617Y-95662809D01*
X185090474Y-96162809D02*
X185090474Y-95662809D01*
X184780951Y-96162809D02*
X184780951Y-95662809D01*
X184780951Y-95662809D02*
X184590475Y-95662809D01*
X184590475Y-95662809D02*
X184542856Y-95686619D01*
X184542856Y-95686619D02*
X184519046Y-95710428D01*
X184519046Y-95710428D02*
X184495237Y-95758047D01*
X184495237Y-95758047D02*
X184495237Y-95829476D01*
X184495237Y-95829476D02*
X184519046Y-95877095D01*
X184519046Y-95877095D02*
X184542856Y-95900904D01*
X184542856Y-95900904D02*
X184590475Y-95924714D01*
X184590475Y-95924714D02*
X184780951Y-95924714D01*
X184304760Y-95710428D02*
X184280951Y-95686619D01*
X184280951Y-95686619D02*
X184233332Y-95662809D01*
X184233332Y-95662809D02*
X184114284Y-95662809D01*
X184114284Y-95662809D02*
X184066665Y-95686619D01*
X184066665Y-95686619D02*
X184042856Y-95710428D01*
X184042856Y-95710428D02*
X184019046Y-95758047D01*
X184019046Y-95758047D02*
X184019046Y-95805666D01*
X184019046Y-95805666D02*
X184042856Y-95877095D01*
X184042856Y-95877095D02*
X184328570Y-96162809D01*
X184328570Y-96162809D02*
X184019046Y-96162809D01*
X183876189Y-95662809D02*
X183709523Y-96162809D01*
X183709523Y-96162809D02*
X183542856Y-95662809D01*
X183138095Y-95662809D02*
X183376190Y-95662809D01*
X183376190Y-95662809D02*
X183399999Y-95900904D01*
X183399999Y-95900904D02*
X183376190Y-95877095D01*
X183376190Y-95877095D02*
X183328571Y-95853285D01*
X183328571Y-95853285D02*
X183209523Y-95853285D01*
X183209523Y-95853285D02*
X183161904Y-95877095D01*
X183161904Y-95877095D02*
X183138095Y-95900904D01*
X183138095Y-95900904D02*
X183114285Y-95948523D01*
X183114285Y-95948523D02*
X183114285Y-96067571D01*
X183114285Y-96067571D02*
X183138095Y-96115190D01*
X183138095Y-96115190D02*
X183161904Y-96139000D01*
X183161904Y-96139000D02*
X183209523Y-96162809D01*
X183209523Y-96162809D02*
X183328571Y-96162809D01*
X183328571Y-96162809D02*
X183376190Y-96139000D01*
X183376190Y-96139000D02*
X183399999Y-96115190D01*
X157771428Y-99777190D02*
X157795237Y-99801000D01*
X157795237Y-99801000D02*
X157866666Y-99824809D01*
X157866666Y-99824809D02*
X157914285Y-99824809D01*
X157914285Y-99824809D02*
X157985713Y-99801000D01*
X157985713Y-99801000D02*
X158033332Y-99753380D01*
X158033332Y-99753380D02*
X158057142Y-99705761D01*
X158057142Y-99705761D02*
X158080951Y-99610523D01*
X158080951Y-99610523D02*
X158080951Y-99539095D01*
X158080951Y-99539095D02*
X158057142Y-99443857D01*
X158057142Y-99443857D02*
X158033332Y-99396238D01*
X158033332Y-99396238D02*
X157985713Y-99348619D01*
X157985713Y-99348619D02*
X157914285Y-99324809D01*
X157914285Y-99324809D02*
X157866666Y-99324809D01*
X157866666Y-99324809D02*
X157795237Y-99348619D01*
X157795237Y-99348619D02*
X157771428Y-99372428D01*
X157319047Y-99324809D02*
X157557142Y-99324809D01*
X157557142Y-99324809D02*
X157580951Y-99562904D01*
X157580951Y-99562904D02*
X157557142Y-99539095D01*
X157557142Y-99539095D02*
X157509523Y-99515285D01*
X157509523Y-99515285D02*
X157390475Y-99515285D01*
X157390475Y-99515285D02*
X157342856Y-99539095D01*
X157342856Y-99539095D02*
X157319047Y-99562904D01*
X157319047Y-99562904D02*
X157295237Y-99610523D01*
X157295237Y-99610523D02*
X157295237Y-99729571D01*
X157295237Y-99729571D02*
X157319047Y-99777190D01*
X157319047Y-99777190D02*
X157342856Y-99801000D01*
X157342856Y-99801000D02*
X157390475Y-99824809D01*
X157390475Y-99824809D02*
X157509523Y-99824809D01*
X157509523Y-99824809D02*
X157557142Y-99801000D01*
X157557142Y-99801000D02*
X157580951Y-99777190D01*
X156985714Y-99324809D02*
X156938095Y-99324809D01*
X156938095Y-99324809D02*
X156890476Y-99348619D01*
X156890476Y-99348619D02*
X156866666Y-99372428D01*
X156866666Y-99372428D02*
X156842857Y-99420047D01*
X156842857Y-99420047D02*
X156819047Y-99515285D01*
X156819047Y-99515285D02*
X156819047Y-99634333D01*
X156819047Y-99634333D02*
X156842857Y-99729571D01*
X156842857Y-99729571D02*
X156866666Y-99777190D01*
X156866666Y-99777190D02*
X156890476Y-99801000D01*
X156890476Y-99801000D02*
X156938095Y-99824809D01*
X156938095Y-99824809D02*
X156985714Y-99824809D01*
X156985714Y-99824809D02*
X157033333Y-99801000D01*
X157033333Y-99801000D02*
X157057142Y-99777190D01*
X157057142Y-99777190D02*
X157080952Y-99729571D01*
X157080952Y-99729571D02*
X157104761Y-99634333D01*
X157104761Y-99634333D02*
X157104761Y-99515285D01*
X157104761Y-99515285D02*
X157080952Y-99420047D01*
X157080952Y-99420047D02*
X157057142Y-99372428D01*
X157057142Y-99372428D02*
X157033333Y-99348619D01*
X157033333Y-99348619D02*
X156985714Y-99324809D01*
X137946428Y-103824809D02*
X138113094Y-103586714D01*
X138232142Y-103824809D02*
X138232142Y-103324809D01*
X138232142Y-103324809D02*
X138041666Y-103324809D01*
X138041666Y-103324809D02*
X137994047Y-103348619D01*
X137994047Y-103348619D02*
X137970237Y-103372428D01*
X137970237Y-103372428D02*
X137946428Y-103420047D01*
X137946428Y-103420047D02*
X137946428Y-103491476D01*
X137946428Y-103491476D02*
X137970237Y-103539095D01*
X137970237Y-103539095D02*
X137994047Y-103562904D01*
X137994047Y-103562904D02*
X138041666Y-103586714D01*
X138041666Y-103586714D02*
X138232142Y-103586714D01*
X137755951Y-103372428D02*
X137732142Y-103348619D01*
X137732142Y-103348619D02*
X137684523Y-103324809D01*
X137684523Y-103324809D02*
X137565475Y-103324809D01*
X137565475Y-103324809D02*
X137517856Y-103348619D01*
X137517856Y-103348619D02*
X137494047Y-103372428D01*
X137494047Y-103372428D02*
X137470237Y-103420047D01*
X137470237Y-103420047D02*
X137470237Y-103467666D01*
X137470237Y-103467666D02*
X137494047Y-103539095D01*
X137494047Y-103539095D02*
X137779761Y-103824809D01*
X137779761Y-103824809D02*
X137470237Y-103824809D01*
X137160714Y-103324809D02*
X137113095Y-103324809D01*
X137113095Y-103324809D02*
X137065476Y-103348619D01*
X137065476Y-103348619D02*
X137041666Y-103372428D01*
X137041666Y-103372428D02*
X137017857Y-103420047D01*
X137017857Y-103420047D02*
X136994047Y-103515285D01*
X136994047Y-103515285D02*
X136994047Y-103634333D01*
X136994047Y-103634333D02*
X137017857Y-103729571D01*
X137017857Y-103729571D02*
X137041666Y-103777190D01*
X137041666Y-103777190D02*
X137065476Y-103801000D01*
X137065476Y-103801000D02*
X137113095Y-103824809D01*
X137113095Y-103824809D02*
X137160714Y-103824809D01*
X137160714Y-103824809D02*
X137208333Y-103801000D01*
X137208333Y-103801000D02*
X137232142Y-103777190D01*
X137232142Y-103777190D02*
X137255952Y-103729571D01*
X137255952Y-103729571D02*
X137279761Y-103634333D01*
X137279761Y-103634333D02*
X137279761Y-103515285D01*
X137279761Y-103515285D02*
X137255952Y-103420047D01*
X137255952Y-103420047D02*
X137232142Y-103372428D01*
X137232142Y-103372428D02*
X137208333Y-103348619D01*
X137208333Y-103348619D02*
X137160714Y-103324809D01*
X171951428Y-81477190D02*
X171975237Y-81501000D01*
X171975237Y-81501000D02*
X172046666Y-81524809D01*
X172046666Y-81524809D02*
X172094285Y-81524809D01*
X172094285Y-81524809D02*
X172165713Y-81501000D01*
X172165713Y-81501000D02*
X172213332Y-81453380D01*
X172213332Y-81453380D02*
X172237142Y-81405761D01*
X172237142Y-81405761D02*
X172260951Y-81310523D01*
X172260951Y-81310523D02*
X172260951Y-81239095D01*
X172260951Y-81239095D02*
X172237142Y-81143857D01*
X172237142Y-81143857D02*
X172213332Y-81096238D01*
X172213332Y-81096238D02*
X172165713Y-81048619D01*
X172165713Y-81048619D02*
X172094285Y-81024809D01*
X172094285Y-81024809D02*
X172046666Y-81024809D01*
X172046666Y-81024809D02*
X171975237Y-81048619D01*
X171975237Y-81048619D02*
X171951428Y-81072428D01*
X171784761Y-81024809D02*
X171475237Y-81024809D01*
X171475237Y-81024809D02*
X171641904Y-81215285D01*
X171641904Y-81215285D02*
X171570475Y-81215285D01*
X171570475Y-81215285D02*
X171522856Y-81239095D01*
X171522856Y-81239095D02*
X171499047Y-81262904D01*
X171499047Y-81262904D02*
X171475237Y-81310523D01*
X171475237Y-81310523D02*
X171475237Y-81429571D01*
X171475237Y-81429571D02*
X171499047Y-81477190D01*
X171499047Y-81477190D02*
X171522856Y-81501000D01*
X171522856Y-81501000D02*
X171570475Y-81524809D01*
X171570475Y-81524809D02*
X171713332Y-81524809D01*
X171713332Y-81524809D02*
X171760951Y-81501000D01*
X171760951Y-81501000D02*
X171784761Y-81477190D01*
X171284761Y-81072428D02*
X171260952Y-81048619D01*
X171260952Y-81048619D02*
X171213333Y-81024809D01*
X171213333Y-81024809D02*
X171094285Y-81024809D01*
X171094285Y-81024809D02*
X171046666Y-81048619D01*
X171046666Y-81048619D02*
X171022857Y-81072428D01*
X171022857Y-81072428D02*
X170999047Y-81120047D01*
X170999047Y-81120047D02*
X170999047Y-81167666D01*
X170999047Y-81167666D02*
X171022857Y-81239095D01*
X171022857Y-81239095D02*
X171308571Y-81524809D01*
X171308571Y-81524809D02*
X170999047Y-81524809D01*
X150121428Y-101977190D02*
X150145237Y-102001000D01*
X150145237Y-102001000D02*
X150216666Y-102024809D01*
X150216666Y-102024809D02*
X150264285Y-102024809D01*
X150264285Y-102024809D02*
X150335713Y-102001000D01*
X150335713Y-102001000D02*
X150383332Y-101953380D01*
X150383332Y-101953380D02*
X150407142Y-101905761D01*
X150407142Y-101905761D02*
X150430951Y-101810523D01*
X150430951Y-101810523D02*
X150430951Y-101739095D01*
X150430951Y-101739095D02*
X150407142Y-101643857D01*
X150407142Y-101643857D02*
X150383332Y-101596238D01*
X150383332Y-101596238D02*
X150335713Y-101548619D01*
X150335713Y-101548619D02*
X150264285Y-101524809D01*
X150264285Y-101524809D02*
X150216666Y-101524809D01*
X150216666Y-101524809D02*
X150145237Y-101548619D01*
X150145237Y-101548619D02*
X150121428Y-101572428D01*
X149930951Y-101572428D02*
X149907142Y-101548619D01*
X149907142Y-101548619D02*
X149859523Y-101524809D01*
X149859523Y-101524809D02*
X149740475Y-101524809D01*
X149740475Y-101524809D02*
X149692856Y-101548619D01*
X149692856Y-101548619D02*
X149669047Y-101572428D01*
X149669047Y-101572428D02*
X149645237Y-101620047D01*
X149645237Y-101620047D02*
X149645237Y-101667666D01*
X149645237Y-101667666D02*
X149669047Y-101739095D01*
X149669047Y-101739095D02*
X149954761Y-102024809D01*
X149954761Y-102024809D02*
X149645237Y-102024809D01*
X149169047Y-102024809D02*
X149454761Y-102024809D01*
X149311904Y-102024809D02*
X149311904Y-101524809D01*
X149311904Y-101524809D02*
X149359523Y-101596238D01*
X149359523Y-101596238D02*
X149407142Y-101643857D01*
X149407142Y-101643857D02*
X149454761Y-101667666D01*
X169021428Y-81477190D02*
X169045237Y-81501000D01*
X169045237Y-81501000D02*
X169116666Y-81524809D01*
X169116666Y-81524809D02*
X169164285Y-81524809D01*
X169164285Y-81524809D02*
X169235713Y-81501000D01*
X169235713Y-81501000D02*
X169283332Y-81453380D01*
X169283332Y-81453380D02*
X169307142Y-81405761D01*
X169307142Y-81405761D02*
X169330951Y-81310523D01*
X169330951Y-81310523D02*
X169330951Y-81239095D01*
X169330951Y-81239095D02*
X169307142Y-81143857D01*
X169307142Y-81143857D02*
X169283332Y-81096238D01*
X169283332Y-81096238D02*
X169235713Y-81048619D01*
X169235713Y-81048619D02*
X169164285Y-81024809D01*
X169164285Y-81024809D02*
X169116666Y-81024809D01*
X169116666Y-81024809D02*
X169045237Y-81048619D01*
X169045237Y-81048619D02*
X169021428Y-81072428D01*
X168854761Y-81024809D02*
X168545237Y-81024809D01*
X168545237Y-81024809D02*
X168711904Y-81215285D01*
X168711904Y-81215285D02*
X168640475Y-81215285D01*
X168640475Y-81215285D02*
X168592856Y-81239095D01*
X168592856Y-81239095D02*
X168569047Y-81262904D01*
X168569047Y-81262904D02*
X168545237Y-81310523D01*
X168545237Y-81310523D02*
X168545237Y-81429571D01*
X168545237Y-81429571D02*
X168569047Y-81477190D01*
X168569047Y-81477190D02*
X168592856Y-81501000D01*
X168592856Y-81501000D02*
X168640475Y-81524809D01*
X168640475Y-81524809D02*
X168783332Y-81524809D01*
X168783332Y-81524809D02*
X168830951Y-81501000D01*
X168830951Y-81501000D02*
X168854761Y-81477190D01*
X168069047Y-81524809D02*
X168354761Y-81524809D01*
X168211904Y-81524809D02*
X168211904Y-81024809D01*
X168211904Y-81024809D02*
X168259523Y-81096238D01*
X168259523Y-81096238D02*
X168307142Y-81143857D01*
X168307142Y-81143857D02*
X168354761Y-81167666D01*
X157771428Y-101277190D02*
X157795237Y-101301000D01*
X157795237Y-101301000D02*
X157866666Y-101324809D01*
X157866666Y-101324809D02*
X157914285Y-101324809D01*
X157914285Y-101324809D02*
X157985713Y-101301000D01*
X157985713Y-101301000D02*
X158033332Y-101253380D01*
X158033332Y-101253380D02*
X158057142Y-101205761D01*
X158057142Y-101205761D02*
X158080951Y-101110523D01*
X158080951Y-101110523D02*
X158080951Y-101039095D01*
X158080951Y-101039095D02*
X158057142Y-100943857D01*
X158057142Y-100943857D02*
X158033332Y-100896238D01*
X158033332Y-100896238D02*
X157985713Y-100848619D01*
X157985713Y-100848619D02*
X157914285Y-100824809D01*
X157914285Y-100824809D02*
X157866666Y-100824809D01*
X157866666Y-100824809D02*
X157795237Y-100848619D01*
X157795237Y-100848619D02*
X157771428Y-100872428D01*
X157319047Y-100824809D02*
X157557142Y-100824809D01*
X157557142Y-100824809D02*
X157580951Y-101062904D01*
X157580951Y-101062904D02*
X157557142Y-101039095D01*
X157557142Y-101039095D02*
X157509523Y-101015285D01*
X157509523Y-101015285D02*
X157390475Y-101015285D01*
X157390475Y-101015285D02*
X157342856Y-101039095D01*
X157342856Y-101039095D02*
X157319047Y-101062904D01*
X157319047Y-101062904D02*
X157295237Y-101110523D01*
X157295237Y-101110523D02*
X157295237Y-101229571D01*
X157295237Y-101229571D02*
X157319047Y-101277190D01*
X157319047Y-101277190D02*
X157342856Y-101301000D01*
X157342856Y-101301000D02*
X157390475Y-101324809D01*
X157390475Y-101324809D02*
X157509523Y-101324809D01*
X157509523Y-101324809D02*
X157557142Y-101301000D01*
X157557142Y-101301000D02*
X157580951Y-101277190D01*
X156819047Y-101324809D02*
X157104761Y-101324809D01*
X156961904Y-101324809D02*
X156961904Y-100824809D01*
X156961904Y-100824809D02*
X157009523Y-100896238D01*
X157009523Y-100896238D02*
X157057142Y-100943857D01*
X157057142Y-100943857D02*
X157104761Y-100967666D01*
X137452190Y-101103571D02*
X137476000Y-101079762D01*
X137476000Y-101079762D02*
X137499809Y-101008333D01*
X137499809Y-101008333D02*
X137499809Y-100960714D01*
X137499809Y-100960714D02*
X137476000Y-100889286D01*
X137476000Y-100889286D02*
X137428380Y-100841667D01*
X137428380Y-100841667D02*
X137380761Y-100817857D01*
X137380761Y-100817857D02*
X137285523Y-100794048D01*
X137285523Y-100794048D02*
X137214095Y-100794048D01*
X137214095Y-100794048D02*
X137118857Y-100817857D01*
X137118857Y-100817857D02*
X137071238Y-100841667D01*
X137071238Y-100841667D02*
X137023619Y-100889286D01*
X137023619Y-100889286D02*
X136999809Y-100960714D01*
X136999809Y-100960714D02*
X136999809Y-101008333D01*
X136999809Y-101008333D02*
X137023619Y-101079762D01*
X137023619Y-101079762D02*
X137047428Y-101103571D01*
X136999809Y-101555952D02*
X136999809Y-101317857D01*
X136999809Y-101317857D02*
X137237904Y-101294048D01*
X137237904Y-101294048D02*
X137214095Y-101317857D01*
X137214095Y-101317857D02*
X137190285Y-101365476D01*
X137190285Y-101365476D02*
X137190285Y-101484524D01*
X137190285Y-101484524D02*
X137214095Y-101532143D01*
X137214095Y-101532143D02*
X137237904Y-101555952D01*
X137237904Y-101555952D02*
X137285523Y-101579762D01*
X137285523Y-101579762D02*
X137404571Y-101579762D01*
X137404571Y-101579762D02*
X137452190Y-101555952D01*
X137452190Y-101555952D02*
X137476000Y-101532143D01*
X137476000Y-101532143D02*
X137499809Y-101484524D01*
X137499809Y-101484524D02*
X137499809Y-101365476D01*
X137499809Y-101365476D02*
X137476000Y-101317857D01*
X137476000Y-101317857D02*
X137452190Y-101294048D01*
X137499809Y-101817857D02*
X137499809Y-101913095D01*
X137499809Y-101913095D02*
X137476000Y-101960714D01*
X137476000Y-101960714D02*
X137452190Y-101984523D01*
X137452190Y-101984523D02*
X137380761Y-102032142D01*
X137380761Y-102032142D02*
X137285523Y-102055952D01*
X137285523Y-102055952D02*
X137095047Y-102055952D01*
X137095047Y-102055952D02*
X137047428Y-102032142D01*
X137047428Y-102032142D02*
X137023619Y-102008333D01*
X137023619Y-102008333D02*
X136999809Y-101960714D01*
X136999809Y-101960714D02*
X136999809Y-101865476D01*
X136999809Y-101865476D02*
X137023619Y-101817857D01*
X137023619Y-101817857D02*
X137047428Y-101794047D01*
X137047428Y-101794047D02*
X137095047Y-101770238D01*
X137095047Y-101770238D02*
X137214095Y-101770238D01*
X137214095Y-101770238D02*
X137261714Y-101794047D01*
X137261714Y-101794047D02*
X137285523Y-101817857D01*
X137285523Y-101817857D02*
X137309333Y-101865476D01*
X137309333Y-101865476D02*
X137309333Y-101960714D01*
X137309333Y-101960714D02*
X137285523Y-102008333D01*
X137285523Y-102008333D02*
X137261714Y-102032142D01*
X137261714Y-102032142D02*
X137214095Y-102055952D01*
X140399809Y-101299166D02*
X140399809Y-101061071D01*
X140399809Y-101061071D02*
X139899809Y-101061071D01*
X140114095Y-101537262D02*
X140090285Y-101489643D01*
X140090285Y-101489643D02*
X140066476Y-101465833D01*
X140066476Y-101465833D02*
X140018857Y-101442024D01*
X140018857Y-101442024D02*
X139995047Y-101442024D01*
X139995047Y-101442024D02*
X139947428Y-101465833D01*
X139947428Y-101465833D02*
X139923619Y-101489643D01*
X139923619Y-101489643D02*
X139899809Y-101537262D01*
X139899809Y-101537262D02*
X139899809Y-101632500D01*
X139899809Y-101632500D02*
X139923619Y-101680119D01*
X139923619Y-101680119D02*
X139947428Y-101703928D01*
X139947428Y-101703928D02*
X139995047Y-101727738D01*
X139995047Y-101727738D02*
X140018857Y-101727738D01*
X140018857Y-101727738D02*
X140066476Y-101703928D01*
X140066476Y-101703928D02*
X140090285Y-101680119D01*
X140090285Y-101680119D02*
X140114095Y-101632500D01*
X140114095Y-101632500D02*
X140114095Y-101537262D01*
X140114095Y-101537262D02*
X140137904Y-101489643D01*
X140137904Y-101489643D02*
X140161714Y-101465833D01*
X140161714Y-101465833D02*
X140209333Y-101442024D01*
X140209333Y-101442024D02*
X140304571Y-101442024D01*
X140304571Y-101442024D02*
X140352190Y-101465833D01*
X140352190Y-101465833D02*
X140376000Y-101489643D01*
X140376000Y-101489643D02*
X140399809Y-101537262D01*
X140399809Y-101537262D02*
X140399809Y-101632500D01*
X140399809Y-101632500D02*
X140376000Y-101680119D01*
X140376000Y-101680119D02*
X140352190Y-101703928D01*
X140352190Y-101703928D02*
X140304571Y-101727738D01*
X140304571Y-101727738D02*
X140209333Y-101727738D01*
X140209333Y-101727738D02*
X140161714Y-101703928D01*
X140161714Y-101703928D02*
X140137904Y-101680119D01*
X140137904Y-101680119D02*
X140114095Y-101632500D01*
X150121428Y-100502190D02*
X150145237Y-100526000D01*
X150145237Y-100526000D02*
X150216666Y-100549809D01*
X150216666Y-100549809D02*
X150264285Y-100549809D01*
X150264285Y-100549809D02*
X150335713Y-100526000D01*
X150335713Y-100526000D02*
X150383332Y-100478380D01*
X150383332Y-100478380D02*
X150407142Y-100430761D01*
X150407142Y-100430761D02*
X150430951Y-100335523D01*
X150430951Y-100335523D02*
X150430951Y-100264095D01*
X150430951Y-100264095D02*
X150407142Y-100168857D01*
X150407142Y-100168857D02*
X150383332Y-100121238D01*
X150383332Y-100121238D02*
X150335713Y-100073619D01*
X150335713Y-100073619D02*
X150264285Y-100049809D01*
X150264285Y-100049809D02*
X150216666Y-100049809D01*
X150216666Y-100049809D02*
X150145237Y-100073619D01*
X150145237Y-100073619D02*
X150121428Y-100097428D01*
X149930951Y-100097428D02*
X149907142Y-100073619D01*
X149907142Y-100073619D02*
X149859523Y-100049809D01*
X149859523Y-100049809D02*
X149740475Y-100049809D01*
X149740475Y-100049809D02*
X149692856Y-100073619D01*
X149692856Y-100073619D02*
X149669047Y-100097428D01*
X149669047Y-100097428D02*
X149645237Y-100145047D01*
X149645237Y-100145047D02*
X149645237Y-100192666D01*
X149645237Y-100192666D02*
X149669047Y-100264095D01*
X149669047Y-100264095D02*
X149954761Y-100549809D01*
X149954761Y-100549809D02*
X149645237Y-100549809D01*
X149335714Y-100049809D02*
X149288095Y-100049809D01*
X149288095Y-100049809D02*
X149240476Y-100073619D01*
X149240476Y-100073619D02*
X149216666Y-100097428D01*
X149216666Y-100097428D02*
X149192857Y-100145047D01*
X149192857Y-100145047D02*
X149169047Y-100240285D01*
X149169047Y-100240285D02*
X149169047Y-100359333D01*
X149169047Y-100359333D02*
X149192857Y-100454571D01*
X149192857Y-100454571D02*
X149216666Y-100502190D01*
X149216666Y-100502190D02*
X149240476Y-100526000D01*
X149240476Y-100526000D02*
X149288095Y-100549809D01*
X149288095Y-100549809D02*
X149335714Y-100549809D01*
X149335714Y-100549809D02*
X149383333Y-100526000D01*
X149383333Y-100526000D02*
X149407142Y-100502190D01*
X149407142Y-100502190D02*
X149430952Y-100454571D01*
X149430952Y-100454571D02*
X149454761Y-100359333D01*
X149454761Y-100359333D02*
X149454761Y-100240285D01*
X149454761Y-100240285D02*
X149430952Y-100145047D01*
X149430952Y-100145047D02*
X149407142Y-100097428D01*
X149407142Y-100097428D02*
X149383333Y-100073619D01*
X149383333Y-100073619D02*
X149335714Y-100049809D01*
X153946428Y-95252190D02*
X153970237Y-95276000D01*
X153970237Y-95276000D02*
X154041666Y-95299809D01*
X154041666Y-95299809D02*
X154089285Y-95299809D01*
X154089285Y-95299809D02*
X154160713Y-95276000D01*
X154160713Y-95276000D02*
X154208332Y-95228380D01*
X154208332Y-95228380D02*
X154232142Y-95180761D01*
X154232142Y-95180761D02*
X154255951Y-95085523D01*
X154255951Y-95085523D02*
X154255951Y-95014095D01*
X154255951Y-95014095D02*
X154232142Y-94918857D01*
X154232142Y-94918857D02*
X154208332Y-94871238D01*
X154208332Y-94871238D02*
X154160713Y-94823619D01*
X154160713Y-94823619D02*
X154089285Y-94799809D01*
X154089285Y-94799809D02*
X154041666Y-94799809D01*
X154041666Y-94799809D02*
X153970237Y-94823619D01*
X153970237Y-94823619D02*
X153946428Y-94847428D01*
X153755951Y-94847428D02*
X153732142Y-94823619D01*
X153732142Y-94823619D02*
X153684523Y-94799809D01*
X153684523Y-94799809D02*
X153565475Y-94799809D01*
X153565475Y-94799809D02*
X153517856Y-94823619D01*
X153517856Y-94823619D02*
X153494047Y-94847428D01*
X153494047Y-94847428D02*
X153470237Y-94895047D01*
X153470237Y-94895047D02*
X153470237Y-94942666D01*
X153470237Y-94942666D02*
X153494047Y-95014095D01*
X153494047Y-95014095D02*
X153779761Y-95299809D01*
X153779761Y-95299809D02*
X153470237Y-95299809D01*
X153184523Y-95014095D02*
X153232142Y-94990285D01*
X153232142Y-94990285D02*
X153255952Y-94966476D01*
X153255952Y-94966476D02*
X153279761Y-94918857D01*
X153279761Y-94918857D02*
X153279761Y-94895047D01*
X153279761Y-94895047D02*
X153255952Y-94847428D01*
X153255952Y-94847428D02*
X153232142Y-94823619D01*
X153232142Y-94823619D02*
X153184523Y-94799809D01*
X153184523Y-94799809D02*
X153089285Y-94799809D01*
X153089285Y-94799809D02*
X153041666Y-94823619D01*
X153041666Y-94823619D02*
X153017857Y-94847428D01*
X153017857Y-94847428D02*
X152994047Y-94895047D01*
X152994047Y-94895047D02*
X152994047Y-94918857D01*
X152994047Y-94918857D02*
X153017857Y-94966476D01*
X153017857Y-94966476D02*
X153041666Y-94990285D01*
X153041666Y-94990285D02*
X153089285Y-95014095D01*
X153089285Y-95014095D02*
X153184523Y-95014095D01*
X153184523Y-95014095D02*
X153232142Y-95037904D01*
X153232142Y-95037904D02*
X153255952Y-95061714D01*
X153255952Y-95061714D02*
X153279761Y-95109333D01*
X153279761Y-95109333D02*
X153279761Y-95204571D01*
X153279761Y-95204571D02*
X153255952Y-95252190D01*
X153255952Y-95252190D02*
X153232142Y-95276000D01*
X153232142Y-95276000D02*
X153184523Y-95299809D01*
X153184523Y-95299809D02*
X153089285Y-95299809D01*
X153089285Y-95299809D02*
X153041666Y-95276000D01*
X153041666Y-95276000D02*
X153017857Y-95252190D01*
X153017857Y-95252190D02*
X152994047Y-95204571D01*
X152994047Y-95204571D02*
X152994047Y-95109333D01*
X152994047Y-95109333D02*
X153017857Y-95061714D01*
X153017857Y-95061714D02*
X153041666Y-95037904D01*
X153041666Y-95037904D02*
X153089285Y-95014095D01*
X122858333Y-115249809D02*
X123024999Y-115011714D01*
X123144047Y-115249809D02*
X123144047Y-114749809D01*
X123144047Y-114749809D02*
X122953571Y-114749809D01*
X122953571Y-114749809D02*
X122905952Y-114773619D01*
X122905952Y-114773619D02*
X122882142Y-114797428D01*
X122882142Y-114797428D02*
X122858333Y-114845047D01*
X122858333Y-114845047D02*
X122858333Y-114916476D01*
X122858333Y-114916476D02*
X122882142Y-114964095D01*
X122882142Y-114964095D02*
X122905952Y-114987904D01*
X122905952Y-114987904D02*
X122953571Y-115011714D01*
X122953571Y-115011714D02*
X123144047Y-115011714D01*
X122691666Y-114749809D02*
X122382142Y-114749809D01*
X122382142Y-114749809D02*
X122548809Y-114940285D01*
X122548809Y-114940285D02*
X122477380Y-114940285D01*
X122477380Y-114940285D02*
X122429761Y-114964095D01*
X122429761Y-114964095D02*
X122405952Y-114987904D01*
X122405952Y-114987904D02*
X122382142Y-115035523D01*
X122382142Y-115035523D02*
X122382142Y-115154571D01*
X122382142Y-115154571D02*
X122405952Y-115202190D01*
X122405952Y-115202190D02*
X122429761Y-115226000D01*
X122429761Y-115226000D02*
X122477380Y-115249809D01*
X122477380Y-115249809D02*
X122620237Y-115249809D01*
X122620237Y-115249809D02*
X122667856Y-115226000D01*
X122667856Y-115226000D02*
X122691666Y-115202190D01*
X157421428Y-98977190D02*
X157445237Y-99001000D01*
X157445237Y-99001000D02*
X157516666Y-99024809D01*
X157516666Y-99024809D02*
X157564285Y-99024809D01*
X157564285Y-99024809D02*
X157635713Y-99001000D01*
X157635713Y-99001000D02*
X157683332Y-98953380D01*
X157683332Y-98953380D02*
X157707142Y-98905761D01*
X157707142Y-98905761D02*
X157730951Y-98810523D01*
X157730951Y-98810523D02*
X157730951Y-98739095D01*
X157730951Y-98739095D02*
X157707142Y-98643857D01*
X157707142Y-98643857D02*
X157683332Y-98596238D01*
X157683332Y-98596238D02*
X157635713Y-98548619D01*
X157635713Y-98548619D02*
X157564285Y-98524809D01*
X157564285Y-98524809D02*
X157516666Y-98524809D01*
X157516666Y-98524809D02*
X157445237Y-98548619D01*
X157445237Y-98548619D02*
X157421428Y-98572428D01*
X157230951Y-98572428D02*
X157207142Y-98548619D01*
X157207142Y-98548619D02*
X157159523Y-98524809D01*
X157159523Y-98524809D02*
X157040475Y-98524809D01*
X157040475Y-98524809D02*
X156992856Y-98548619D01*
X156992856Y-98548619D02*
X156969047Y-98572428D01*
X156969047Y-98572428D02*
X156945237Y-98620047D01*
X156945237Y-98620047D02*
X156945237Y-98667666D01*
X156945237Y-98667666D02*
X156969047Y-98739095D01*
X156969047Y-98739095D02*
X157254761Y-99024809D01*
X157254761Y-99024809D02*
X156945237Y-99024809D01*
X156516666Y-98524809D02*
X156611904Y-98524809D01*
X156611904Y-98524809D02*
X156659523Y-98548619D01*
X156659523Y-98548619D02*
X156683333Y-98572428D01*
X156683333Y-98572428D02*
X156730952Y-98643857D01*
X156730952Y-98643857D02*
X156754761Y-98739095D01*
X156754761Y-98739095D02*
X156754761Y-98929571D01*
X156754761Y-98929571D02*
X156730952Y-98977190D01*
X156730952Y-98977190D02*
X156707142Y-99001000D01*
X156707142Y-99001000D02*
X156659523Y-99024809D01*
X156659523Y-99024809D02*
X156564285Y-99024809D01*
X156564285Y-99024809D02*
X156516666Y-99001000D01*
X156516666Y-99001000D02*
X156492857Y-98977190D01*
X156492857Y-98977190D02*
X156469047Y-98929571D01*
X156469047Y-98929571D02*
X156469047Y-98810523D01*
X156469047Y-98810523D02*
X156492857Y-98762904D01*
X156492857Y-98762904D02*
X156516666Y-98739095D01*
X156516666Y-98739095D02*
X156564285Y-98715285D01*
X156564285Y-98715285D02*
X156659523Y-98715285D01*
X156659523Y-98715285D02*
X156707142Y-98739095D01*
X156707142Y-98739095D02*
X156730952Y-98762904D01*
X156730952Y-98762904D02*
X156754761Y-98810523D01*
X157471428Y-102027190D02*
X157495237Y-102051000D01*
X157495237Y-102051000D02*
X157566666Y-102074809D01*
X157566666Y-102074809D02*
X157614285Y-102074809D01*
X157614285Y-102074809D02*
X157685713Y-102051000D01*
X157685713Y-102051000D02*
X157733332Y-102003380D01*
X157733332Y-102003380D02*
X157757142Y-101955761D01*
X157757142Y-101955761D02*
X157780951Y-101860523D01*
X157780951Y-101860523D02*
X157780951Y-101789095D01*
X157780951Y-101789095D02*
X157757142Y-101693857D01*
X157757142Y-101693857D02*
X157733332Y-101646238D01*
X157733332Y-101646238D02*
X157685713Y-101598619D01*
X157685713Y-101598619D02*
X157614285Y-101574809D01*
X157614285Y-101574809D02*
X157566666Y-101574809D01*
X157566666Y-101574809D02*
X157495237Y-101598619D01*
X157495237Y-101598619D02*
X157471428Y-101622428D01*
X157280951Y-101622428D02*
X157257142Y-101598619D01*
X157257142Y-101598619D02*
X157209523Y-101574809D01*
X157209523Y-101574809D02*
X157090475Y-101574809D01*
X157090475Y-101574809D02*
X157042856Y-101598619D01*
X157042856Y-101598619D02*
X157019047Y-101622428D01*
X157019047Y-101622428D02*
X156995237Y-101670047D01*
X156995237Y-101670047D02*
X156995237Y-101717666D01*
X156995237Y-101717666D02*
X157019047Y-101789095D01*
X157019047Y-101789095D02*
X157304761Y-102074809D01*
X157304761Y-102074809D02*
X156995237Y-102074809D01*
X156566666Y-101741476D02*
X156566666Y-102074809D01*
X156685714Y-101551000D02*
X156804761Y-101908142D01*
X156804761Y-101908142D02*
X156495238Y-101908142D01*
X185233331Y-98712809D02*
X184947617Y-98712809D01*
X185090474Y-99212809D02*
X185090474Y-98712809D01*
X184780951Y-99212809D02*
X184780951Y-98712809D01*
X184780951Y-98712809D02*
X184590475Y-98712809D01*
X184590475Y-98712809D02*
X184542856Y-98736619D01*
X184542856Y-98736619D02*
X184519046Y-98760428D01*
X184519046Y-98760428D02*
X184495237Y-98808047D01*
X184495237Y-98808047D02*
X184495237Y-98879476D01*
X184495237Y-98879476D02*
X184519046Y-98927095D01*
X184519046Y-98927095D02*
X184542856Y-98950904D01*
X184542856Y-98950904D02*
X184590475Y-98974714D01*
X184590475Y-98974714D02*
X184780951Y-98974714D01*
X184019046Y-99212809D02*
X184304760Y-99212809D01*
X184161903Y-99212809D02*
X184161903Y-98712809D01*
X184161903Y-98712809D02*
X184209522Y-98784238D01*
X184209522Y-98784238D02*
X184257141Y-98831857D01*
X184257141Y-98831857D02*
X184304760Y-98855666D01*
X183876189Y-98712809D02*
X183709523Y-99212809D01*
X183709523Y-99212809D02*
X183542856Y-98712809D01*
X183399999Y-98760428D02*
X183376190Y-98736619D01*
X183376190Y-98736619D02*
X183328571Y-98712809D01*
X183328571Y-98712809D02*
X183209523Y-98712809D01*
X183209523Y-98712809D02*
X183161904Y-98736619D01*
X183161904Y-98736619D02*
X183138095Y-98760428D01*
X183138095Y-98760428D02*
X183114285Y-98808047D01*
X183114285Y-98808047D02*
X183114285Y-98855666D01*
X183114285Y-98855666D02*
X183138095Y-98927095D01*
X183138095Y-98927095D02*
X183423809Y-99212809D01*
X183423809Y-99212809D02*
X183114285Y-99212809D01*
X185233331Y-89562809D02*
X184947617Y-89562809D01*
X185090474Y-90062809D02*
X185090474Y-89562809D01*
X184780951Y-90062809D02*
X184780951Y-89562809D01*
X184780951Y-89562809D02*
X184590475Y-89562809D01*
X184590475Y-89562809D02*
X184542856Y-89586619D01*
X184542856Y-89586619D02*
X184519046Y-89610428D01*
X184519046Y-89610428D02*
X184495237Y-89658047D01*
X184495237Y-89658047D02*
X184495237Y-89729476D01*
X184495237Y-89729476D02*
X184519046Y-89777095D01*
X184519046Y-89777095D02*
X184542856Y-89800904D01*
X184542856Y-89800904D02*
X184590475Y-89824714D01*
X184590475Y-89824714D02*
X184780951Y-89824714D01*
X184042856Y-89562809D02*
X184280951Y-89562809D01*
X184280951Y-89562809D02*
X184304760Y-89800904D01*
X184304760Y-89800904D02*
X184280951Y-89777095D01*
X184280951Y-89777095D02*
X184233332Y-89753285D01*
X184233332Y-89753285D02*
X184114284Y-89753285D01*
X184114284Y-89753285D02*
X184066665Y-89777095D01*
X184066665Y-89777095D02*
X184042856Y-89800904D01*
X184042856Y-89800904D02*
X184019046Y-89848523D01*
X184019046Y-89848523D02*
X184019046Y-89967571D01*
X184019046Y-89967571D02*
X184042856Y-90015190D01*
X184042856Y-90015190D02*
X184066665Y-90039000D01*
X184066665Y-90039000D02*
X184114284Y-90062809D01*
X184114284Y-90062809D02*
X184233332Y-90062809D01*
X184233332Y-90062809D02*
X184280951Y-90039000D01*
X184280951Y-90039000D02*
X184304760Y-90015190D01*
X183876189Y-89562809D02*
X183709523Y-90062809D01*
X183709523Y-90062809D02*
X183542856Y-89562809D01*
X183280952Y-89562809D02*
X183233333Y-89562809D01*
X183233333Y-89562809D02*
X183185714Y-89586619D01*
X183185714Y-89586619D02*
X183161904Y-89610428D01*
X183161904Y-89610428D02*
X183138095Y-89658047D01*
X183138095Y-89658047D02*
X183114285Y-89753285D01*
X183114285Y-89753285D02*
X183114285Y-89872333D01*
X183114285Y-89872333D02*
X183138095Y-89967571D01*
X183138095Y-89967571D02*
X183161904Y-90015190D01*
X183161904Y-90015190D02*
X183185714Y-90039000D01*
X183185714Y-90039000D02*
X183233333Y-90062809D01*
X183233333Y-90062809D02*
X183280952Y-90062809D01*
X183280952Y-90062809D02*
X183328571Y-90039000D01*
X183328571Y-90039000D02*
X183352380Y-90015190D01*
X183352380Y-90015190D02*
X183376190Y-89967571D01*
X183376190Y-89967571D02*
X183399999Y-89872333D01*
X183399999Y-89872333D02*
X183399999Y-89753285D01*
X183399999Y-89753285D02*
X183376190Y-89658047D01*
X183376190Y-89658047D02*
X183352380Y-89610428D01*
X183352380Y-89610428D02*
X183328571Y-89586619D01*
X183328571Y-89586619D02*
X183280952Y-89562809D01*
X134852190Y-95253571D02*
X134876000Y-95229762D01*
X134876000Y-95229762D02*
X134899809Y-95158333D01*
X134899809Y-95158333D02*
X134899809Y-95110714D01*
X134899809Y-95110714D02*
X134876000Y-95039286D01*
X134876000Y-95039286D02*
X134828380Y-94991667D01*
X134828380Y-94991667D02*
X134780761Y-94967857D01*
X134780761Y-94967857D02*
X134685523Y-94944048D01*
X134685523Y-94944048D02*
X134614095Y-94944048D01*
X134614095Y-94944048D02*
X134518857Y-94967857D01*
X134518857Y-94967857D02*
X134471238Y-94991667D01*
X134471238Y-94991667D02*
X134423619Y-95039286D01*
X134423619Y-95039286D02*
X134399809Y-95110714D01*
X134399809Y-95110714D02*
X134399809Y-95158333D01*
X134399809Y-95158333D02*
X134423619Y-95229762D01*
X134423619Y-95229762D02*
X134447428Y-95253571D01*
X134399809Y-95705952D02*
X134399809Y-95467857D01*
X134399809Y-95467857D02*
X134637904Y-95444048D01*
X134637904Y-95444048D02*
X134614095Y-95467857D01*
X134614095Y-95467857D02*
X134590285Y-95515476D01*
X134590285Y-95515476D02*
X134590285Y-95634524D01*
X134590285Y-95634524D02*
X134614095Y-95682143D01*
X134614095Y-95682143D02*
X134637904Y-95705952D01*
X134637904Y-95705952D02*
X134685523Y-95729762D01*
X134685523Y-95729762D02*
X134804571Y-95729762D01*
X134804571Y-95729762D02*
X134852190Y-95705952D01*
X134852190Y-95705952D02*
X134876000Y-95682143D01*
X134876000Y-95682143D02*
X134899809Y-95634524D01*
X134899809Y-95634524D02*
X134899809Y-95515476D01*
X134899809Y-95515476D02*
X134876000Y-95467857D01*
X134876000Y-95467857D02*
X134852190Y-95444048D01*
X134399809Y-95896428D02*
X134399809Y-96229761D01*
X134399809Y-96229761D02*
X134899809Y-96015476D01*
X159921428Y-103827190D02*
X159945237Y-103851000D01*
X159945237Y-103851000D02*
X160016666Y-103874809D01*
X160016666Y-103874809D02*
X160064285Y-103874809D01*
X160064285Y-103874809D02*
X160135713Y-103851000D01*
X160135713Y-103851000D02*
X160183332Y-103803380D01*
X160183332Y-103803380D02*
X160207142Y-103755761D01*
X160207142Y-103755761D02*
X160230951Y-103660523D01*
X160230951Y-103660523D02*
X160230951Y-103589095D01*
X160230951Y-103589095D02*
X160207142Y-103493857D01*
X160207142Y-103493857D02*
X160183332Y-103446238D01*
X160183332Y-103446238D02*
X160135713Y-103398619D01*
X160135713Y-103398619D02*
X160064285Y-103374809D01*
X160064285Y-103374809D02*
X160016666Y-103374809D01*
X160016666Y-103374809D02*
X159945237Y-103398619D01*
X159945237Y-103398619D02*
X159921428Y-103422428D01*
X159445237Y-103874809D02*
X159730951Y-103874809D01*
X159588094Y-103874809D02*
X159588094Y-103374809D01*
X159588094Y-103374809D02*
X159635713Y-103446238D01*
X159635713Y-103446238D02*
X159683332Y-103493857D01*
X159683332Y-103493857D02*
X159730951Y-103517666D01*
X158969047Y-103874809D02*
X159254761Y-103874809D01*
X159111904Y-103874809D02*
X159111904Y-103374809D01*
X159111904Y-103374809D02*
X159159523Y-103446238D01*
X159159523Y-103446238D02*
X159207142Y-103493857D01*
X159207142Y-103493857D02*
X159254761Y-103517666D01*
X110566666Y-103074809D02*
X110566666Y-103431952D01*
X110566666Y-103431952D02*
X110590475Y-103503380D01*
X110590475Y-103503380D02*
X110638094Y-103551000D01*
X110638094Y-103551000D02*
X110709523Y-103574809D01*
X110709523Y-103574809D02*
X110757142Y-103574809D01*
X110352380Y-103122428D02*
X110328571Y-103098619D01*
X110328571Y-103098619D02*
X110280952Y-103074809D01*
X110280952Y-103074809D02*
X110161904Y-103074809D01*
X110161904Y-103074809D02*
X110114285Y-103098619D01*
X110114285Y-103098619D02*
X110090476Y-103122428D01*
X110090476Y-103122428D02*
X110066666Y-103170047D01*
X110066666Y-103170047D02*
X110066666Y-103217666D01*
X110066666Y-103217666D02*
X110090476Y-103289095D01*
X110090476Y-103289095D02*
X110376190Y-103574809D01*
X110376190Y-103574809D02*
X110066666Y-103574809D01*
X123321428Y-112349809D02*
X123488094Y-112111714D01*
X123607142Y-112349809D02*
X123607142Y-111849809D01*
X123607142Y-111849809D02*
X123416666Y-111849809D01*
X123416666Y-111849809D02*
X123369047Y-111873619D01*
X123369047Y-111873619D02*
X123345237Y-111897428D01*
X123345237Y-111897428D02*
X123321428Y-111945047D01*
X123321428Y-111945047D02*
X123321428Y-112016476D01*
X123321428Y-112016476D02*
X123345237Y-112064095D01*
X123345237Y-112064095D02*
X123369047Y-112087904D01*
X123369047Y-112087904D02*
X123416666Y-112111714D01*
X123416666Y-112111714D02*
X123607142Y-112111714D01*
X122892856Y-112016476D02*
X122892856Y-112349809D01*
X123011904Y-111826000D02*
X123130951Y-112183142D01*
X123130951Y-112183142D02*
X122821428Y-112183142D01*
X122678571Y-111849809D02*
X122345238Y-111849809D01*
X122345238Y-111849809D02*
X122559523Y-112349809D01*
X122802190Y-109816666D02*
X122826000Y-109792857D01*
X122826000Y-109792857D02*
X122849809Y-109721428D01*
X122849809Y-109721428D02*
X122849809Y-109673809D01*
X122849809Y-109673809D02*
X122826000Y-109602381D01*
X122826000Y-109602381D02*
X122778380Y-109554762D01*
X122778380Y-109554762D02*
X122730761Y-109530952D01*
X122730761Y-109530952D02*
X122635523Y-109507143D01*
X122635523Y-109507143D02*
X122564095Y-109507143D01*
X122564095Y-109507143D02*
X122468857Y-109530952D01*
X122468857Y-109530952D02*
X122421238Y-109554762D01*
X122421238Y-109554762D02*
X122373619Y-109602381D01*
X122373619Y-109602381D02*
X122349809Y-109673809D01*
X122349809Y-109673809D02*
X122349809Y-109721428D01*
X122349809Y-109721428D02*
X122373619Y-109792857D01*
X122373619Y-109792857D02*
X122397428Y-109816666D01*
X122849809Y-110292857D02*
X122849809Y-110007143D01*
X122849809Y-110150000D02*
X122349809Y-110150000D01*
X122349809Y-110150000D02*
X122421238Y-110102381D01*
X122421238Y-110102381D02*
X122468857Y-110054762D01*
X122468857Y-110054762D02*
X122492666Y-110007143D01*
X150121428Y-99037190D02*
X150145237Y-99061000D01*
X150145237Y-99061000D02*
X150216666Y-99084809D01*
X150216666Y-99084809D02*
X150264285Y-99084809D01*
X150264285Y-99084809D02*
X150335713Y-99061000D01*
X150335713Y-99061000D02*
X150383332Y-99013380D01*
X150383332Y-99013380D02*
X150407142Y-98965761D01*
X150407142Y-98965761D02*
X150430951Y-98870523D01*
X150430951Y-98870523D02*
X150430951Y-98799095D01*
X150430951Y-98799095D02*
X150407142Y-98703857D01*
X150407142Y-98703857D02*
X150383332Y-98656238D01*
X150383332Y-98656238D02*
X150335713Y-98608619D01*
X150335713Y-98608619D02*
X150264285Y-98584809D01*
X150264285Y-98584809D02*
X150216666Y-98584809D01*
X150216666Y-98584809D02*
X150145237Y-98608619D01*
X150145237Y-98608619D02*
X150121428Y-98632428D01*
X149645237Y-99084809D02*
X149930951Y-99084809D01*
X149788094Y-99084809D02*
X149788094Y-98584809D01*
X149788094Y-98584809D02*
X149835713Y-98656238D01*
X149835713Y-98656238D02*
X149883332Y-98703857D01*
X149883332Y-98703857D02*
X149930951Y-98727666D01*
X149407142Y-99084809D02*
X149311904Y-99084809D01*
X149311904Y-99084809D02*
X149264285Y-99061000D01*
X149264285Y-99061000D02*
X149240476Y-99037190D01*
X149240476Y-99037190D02*
X149192857Y-98965761D01*
X149192857Y-98965761D02*
X149169047Y-98870523D01*
X149169047Y-98870523D02*
X149169047Y-98680047D01*
X149169047Y-98680047D02*
X149192857Y-98632428D01*
X149192857Y-98632428D02*
X149216666Y-98608619D01*
X149216666Y-98608619D02*
X149264285Y-98584809D01*
X149264285Y-98584809D02*
X149359523Y-98584809D01*
X149359523Y-98584809D02*
X149407142Y-98608619D01*
X149407142Y-98608619D02*
X149430952Y-98632428D01*
X149430952Y-98632428D02*
X149454761Y-98680047D01*
X149454761Y-98680047D02*
X149454761Y-98799095D01*
X149454761Y-98799095D02*
X149430952Y-98846714D01*
X149430952Y-98846714D02*
X149407142Y-98870523D01*
X149407142Y-98870523D02*
X149359523Y-98894333D01*
X149359523Y-98894333D02*
X149264285Y-98894333D01*
X149264285Y-98894333D02*
X149216666Y-98870523D01*
X149216666Y-98870523D02*
X149192857Y-98846714D01*
X149192857Y-98846714D02*
X149169047Y-98799095D01*
X150121428Y-103427190D02*
X150145237Y-103451000D01*
X150145237Y-103451000D02*
X150216666Y-103474809D01*
X150216666Y-103474809D02*
X150264285Y-103474809D01*
X150264285Y-103474809D02*
X150335713Y-103451000D01*
X150335713Y-103451000D02*
X150383332Y-103403380D01*
X150383332Y-103403380D02*
X150407142Y-103355761D01*
X150407142Y-103355761D02*
X150430951Y-103260523D01*
X150430951Y-103260523D02*
X150430951Y-103189095D01*
X150430951Y-103189095D02*
X150407142Y-103093857D01*
X150407142Y-103093857D02*
X150383332Y-103046238D01*
X150383332Y-103046238D02*
X150335713Y-102998619D01*
X150335713Y-102998619D02*
X150264285Y-102974809D01*
X150264285Y-102974809D02*
X150216666Y-102974809D01*
X150216666Y-102974809D02*
X150145237Y-102998619D01*
X150145237Y-102998619D02*
X150121428Y-103022428D01*
X149930951Y-103022428D02*
X149907142Y-102998619D01*
X149907142Y-102998619D02*
X149859523Y-102974809D01*
X149859523Y-102974809D02*
X149740475Y-102974809D01*
X149740475Y-102974809D02*
X149692856Y-102998619D01*
X149692856Y-102998619D02*
X149669047Y-103022428D01*
X149669047Y-103022428D02*
X149645237Y-103070047D01*
X149645237Y-103070047D02*
X149645237Y-103117666D01*
X149645237Y-103117666D02*
X149669047Y-103189095D01*
X149669047Y-103189095D02*
X149954761Y-103474809D01*
X149954761Y-103474809D02*
X149645237Y-103474809D01*
X149454761Y-103022428D02*
X149430952Y-102998619D01*
X149430952Y-102998619D02*
X149383333Y-102974809D01*
X149383333Y-102974809D02*
X149264285Y-102974809D01*
X149264285Y-102974809D02*
X149216666Y-102998619D01*
X149216666Y-102998619D02*
X149192857Y-103022428D01*
X149192857Y-103022428D02*
X149169047Y-103070047D01*
X149169047Y-103070047D02*
X149169047Y-103117666D01*
X149169047Y-103117666D02*
X149192857Y-103189095D01*
X149192857Y-103189095D02*
X149478571Y-103474809D01*
X149478571Y-103474809D02*
X149169047Y-103474809D01*
X157421428Y-100527190D02*
X157445237Y-100551000D01*
X157445237Y-100551000D02*
X157516666Y-100574809D01*
X157516666Y-100574809D02*
X157564285Y-100574809D01*
X157564285Y-100574809D02*
X157635713Y-100551000D01*
X157635713Y-100551000D02*
X157683332Y-100503380D01*
X157683332Y-100503380D02*
X157707142Y-100455761D01*
X157707142Y-100455761D02*
X157730951Y-100360523D01*
X157730951Y-100360523D02*
X157730951Y-100289095D01*
X157730951Y-100289095D02*
X157707142Y-100193857D01*
X157707142Y-100193857D02*
X157683332Y-100146238D01*
X157683332Y-100146238D02*
X157635713Y-100098619D01*
X157635713Y-100098619D02*
X157564285Y-100074809D01*
X157564285Y-100074809D02*
X157516666Y-100074809D01*
X157516666Y-100074809D02*
X157445237Y-100098619D01*
X157445237Y-100098619D02*
X157421428Y-100122428D01*
X157230951Y-100122428D02*
X157207142Y-100098619D01*
X157207142Y-100098619D02*
X157159523Y-100074809D01*
X157159523Y-100074809D02*
X157040475Y-100074809D01*
X157040475Y-100074809D02*
X156992856Y-100098619D01*
X156992856Y-100098619D02*
X156969047Y-100122428D01*
X156969047Y-100122428D02*
X156945237Y-100170047D01*
X156945237Y-100170047D02*
X156945237Y-100217666D01*
X156945237Y-100217666D02*
X156969047Y-100289095D01*
X156969047Y-100289095D02*
X157254761Y-100574809D01*
X157254761Y-100574809D02*
X156945237Y-100574809D01*
X156492857Y-100074809D02*
X156730952Y-100074809D01*
X156730952Y-100074809D02*
X156754761Y-100312904D01*
X156754761Y-100312904D02*
X156730952Y-100289095D01*
X156730952Y-100289095D02*
X156683333Y-100265285D01*
X156683333Y-100265285D02*
X156564285Y-100265285D01*
X156564285Y-100265285D02*
X156516666Y-100289095D01*
X156516666Y-100289095D02*
X156492857Y-100312904D01*
X156492857Y-100312904D02*
X156469047Y-100360523D01*
X156469047Y-100360523D02*
X156469047Y-100479571D01*
X156469047Y-100479571D02*
X156492857Y-100527190D01*
X156492857Y-100527190D02*
X156516666Y-100551000D01*
X156516666Y-100551000D02*
X156564285Y-100574809D01*
X156564285Y-100574809D02*
X156683333Y-100574809D01*
X156683333Y-100574809D02*
X156730952Y-100551000D01*
X156730952Y-100551000D02*
X156754761Y-100527190D01*
X171971428Y-79977190D02*
X171995237Y-80001000D01*
X171995237Y-80001000D02*
X172066666Y-80024809D01*
X172066666Y-80024809D02*
X172114285Y-80024809D01*
X172114285Y-80024809D02*
X172185713Y-80001000D01*
X172185713Y-80001000D02*
X172233332Y-79953380D01*
X172233332Y-79953380D02*
X172257142Y-79905761D01*
X172257142Y-79905761D02*
X172280951Y-79810523D01*
X172280951Y-79810523D02*
X172280951Y-79739095D01*
X172280951Y-79739095D02*
X172257142Y-79643857D01*
X172257142Y-79643857D02*
X172233332Y-79596238D01*
X172233332Y-79596238D02*
X172185713Y-79548619D01*
X172185713Y-79548619D02*
X172114285Y-79524809D01*
X172114285Y-79524809D02*
X172066666Y-79524809D01*
X172066666Y-79524809D02*
X171995237Y-79548619D01*
X171995237Y-79548619D02*
X171971428Y-79572428D01*
X171542856Y-79524809D02*
X171638094Y-79524809D01*
X171638094Y-79524809D02*
X171685713Y-79548619D01*
X171685713Y-79548619D02*
X171709523Y-79572428D01*
X171709523Y-79572428D02*
X171757142Y-79643857D01*
X171757142Y-79643857D02*
X171780951Y-79739095D01*
X171780951Y-79739095D02*
X171780951Y-79929571D01*
X171780951Y-79929571D02*
X171757142Y-79977190D01*
X171757142Y-79977190D02*
X171733332Y-80001000D01*
X171733332Y-80001000D02*
X171685713Y-80024809D01*
X171685713Y-80024809D02*
X171590475Y-80024809D01*
X171590475Y-80024809D02*
X171542856Y-80001000D01*
X171542856Y-80001000D02*
X171519047Y-79977190D01*
X171519047Y-79977190D02*
X171495237Y-79929571D01*
X171495237Y-79929571D02*
X171495237Y-79810523D01*
X171495237Y-79810523D02*
X171519047Y-79762904D01*
X171519047Y-79762904D02*
X171542856Y-79739095D01*
X171542856Y-79739095D02*
X171590475Y-79715285D01*
X171590475Y-79715285D02*
X171685713Y-79715285D01*
X171685713Y-79715285D02*
X171733332Y-79739095D01*
X171733332Y-79739095D02*
X171757142Y-79762904D01*
X171757142Y-79762904D02*
X171780951Y-79810523D01*
X171304761Y-79572428D02*
X171280952Y-79548619D01*
X171280952Y-79548619D02*
X171233333Y-79524809D01*
X171233333Y-79524809D02*
X171114285Y-79524809D01*
X171114285Y-79524809D02*
X171066666Y-79548619D01*
X171066666Y-79548619D02*
X171042857Y-79572428D01*
X171042857Y-79572428D02*
X171019047Y-79620047D01*
X171019047Y-79620047D02*
X171019047Y-79667666D01*
X171019047Y-79667666D02*
X171042857Y-79739095D01*
X171042857Y-79739095D02*
X171328571Y-80024809D01*
X171328571Y-80024809D02*
X171019047Y-80024809D01*
X143652190Y-96378571D02*
X143676000Y-96354762D01*
X143676000Y-96354762D02*
X143699809Y-96283333D01*
X143699809Y-96283333D02*
X143699809Y-96235714D01*
X143699809Y-96235714D02*
X143676000Y-96164286D01*
X143676000Y-96164286D02*
X143628380Y-96116667D01*
X143628380Y-96116667D02*
X143580761Y-96092857D01*
X143580761Y-96092857D02*
X143485523Y-96069048D01*
X143485523Y-96069048D02*
X143414095Y-96069048D01*
X143414095Y-96069048D02*
X143318857Y-96092857D01*
X143318857Y-96092857D02*
X143271238Y-96116667D01*
X143271238Y-96116667D02*
X143223619Y-96164286D01*
X143223619Y-96164286D02*
X143199809Y-96235714D01*
X143199809Y-96235714D02*
X143199809Y-96283333D01*
X143199809Y-96283333D02*
X143223619Y-96354762D01*
X143223619Y-96354762D02*
X143247428Y-96378571D01*
X143366476Y-96807143D02*
X143699809Y-96807143D01*
X143176000Y-96688095D02*
X143533142Y-96569048D01*
X143533142Y-96569048D02*
X143533142Y-96878571D01*
X143366476Y-97283333D02*
X143699809Y-97283333D01*
X143176000Y-97164285D02*
X143533142Y-97045238D01*
X143533142Y-97045238D02*
X143533142Y-97354761D01*
X150121428Y-97577190D02*
X150145237Y-97601000D01*
X150145237Y-97601000D02*
X150216666Y-97624809D01*
X150216666Y-97624809D02*
X150264285Y-97624809D01*
X150264285Y-97624809D02*
X150335713Y-97601000D01*
X150335713Y-97601000D02*
X150383332Y-97553380D01*
X150383332Y-97553380D02*
X150407142Y-97505761D01*
X150407142Y-97505761D02*
X150430951Y-97410523D01*
X150430951Y-97410523D02*
X150430951Y-97339095D01*
X150430951Y-97339095D02*
X150407142Y-97243857D01*
X150407142Y-97243857D02*
X150383332Y-97196238D01*
X150383332Y-97196238D02*
X150335713Y-97148619D01*
X150335713Y-97148619D02*
X150264285Y-97124809D01*
X150264285Y-97124809D02*
X150216666Y-97124809D01*
X150216666Y-97124809D02*
X150145237Y-97148619D01*
X150145237Y-97148619D02*
X150121428Y-97172428D01*
X149645237Y-97624809D02*
X149930951Y-97624809D01*
X149788094Y-97624809D02*
X149788094Y-97124809D01*
X149788094Y-97124809D02*
X149835713Y-97196238D01*
X149835713Y-97196238D02*
X149883332Y-97243857D01*
X149883332Y-97243857D02*
X149930951Y-97267666D01*
X149478571Y-97124809D02*
X149145238Y-97124809D01*
X149145238Y-97124809D02*
X149359523Y-97624809D01*
X139299809Y-95278571D02*
X139061714Y-95111905D01*
X139299809Y-94992857D02*
X138799809Y-94992857D01*
X138799809Y-94992857D02*
X138799809Y-95183333D01*
X138799809Y-95183333D02*
X138823619Y-95230952D01*
X138823619Y-95230952D02*
X138847428Y-95254762D01*
X138847428Y-95254762D02*
X138895047Y-95278571D01*
X138895047Y-95278571D02*
X138966476Y-95278571D01*
X138966476Y-95278571D02*
X139014095Y-95254762D01*
X139014095Y-95254762D02*
X139037904Y-95230952D01*
X139037904Y-95230952D02*
X139061714Y-95183333D01*
X139061714Y-95183333D02*
X139061714Y-94992857D01*
X139299809Y-95754762D02*
X139299809Y-95469048D01*
X139299809Y-95611905D02*
X138799809Y-95611905D01*
X138799809Y-95611905D02*
X138871238Y-95564286D01*
X138871238Y-95564286D02*
X138918857Y-95516667D01*
X138918857Y-95516667D02*
X138942666Y-95469048D01*
X139299809Y-95992857D02*
X139299809Y-96088095D01*
X139299809Y-96088095D02*
X139276000Y-96135714D01*
X139276000Y-96135714D02*
X139252190Y-96159523D01*
X139252190Y-96159523D02*
X139180761Y-96207142D01*
X139180761Y-96207142D02*
X139085523Y-96230952D01*
X139085523Y-96230952D02*
X138895047Y-96230952D01*
X138895047Y-96230952D02*
X138847428Y-96207142D01*
X138847428Y-96207142D02*
X138823619Y-96183333D01*
X138823619Y-96183333D02*
X138799809Y-96135714D01*
X138799809Y-96135714D02*
X138799809Y-96040476D01*
X138799809Y-96040476D02*
X138823619Y-95992857D01*
X138823619Y-95992857D02*
X138847428Y-95969047D01*
X138847428Y-95969047D02*
X138895047Y-95945238D01*
X138895047Y-95945238D02*
X139014095Y-95945238D01*
X139014095Y-95945238D02*
X139061714Y-95969047D01*
X139061714Y-95969047D02*
X139085523Y-95992857D01*
X139085523Y-95992857D02*
X139109333Y-96040476D01*
X139109333Y-96040476D02*
X139109333Y-96135714D01*
X139109333Y-96135714D02*
X139085523Y-96183333D01*
X139085523Y-96183333D02*
X139061714Y-96207142D01*
X139061714Y-96207142D02*
X139014095Y-96230952D01*
X123271428Y-106474809D02*
X123438094Y-106236714D01*
X123557142Y-106474809D02*
X123557142Y-105974809D01*
X123557142Y-105974809D02*
X123366666Y-105974809D01*
X123366666Y-105974809D02*
X123319047Y-105998619D01*
X123319047Y-105998619D02*
X123295237Y-106022428D01*
X123295237Y-106022428D02*
X123271428Y-106070047D01*
X123271428Y-106070047D02*
X123271428Y-106141476D01*
X123271428Y-106141476D02*
X123295237Y-106189095D01*
X123295237Y-106189095D02*
X123319047Y-106212904D01*
X123319047Y-106212904D02*
X123366666Y-106236714D01*
X123366666Y-106236714D02*
X123557142Y-106236714D01*
X122842856Y-106141476D02*
X122842856Y-106474809D01*
X122961904Y-105951000D02*
X123080951Y-106308142D01*
X123080951Y-106308142D02*
X122771428Y-106308142D01*
X122342857Y-105974809D02*
X122580952Y-105974809D01*
X122580952Y-105974809D02*
X122604761Y-106212904D01*
X122604761Y-106212904D02*
X122580952Y-106189095D01*
X122580952Y-106189095D02*
X122533333Y-106165285D01*
X122533333Y-106165285D02*
X122414285Y-106165285D01*
X122414285Y-106165285D02*
X122366666Y-106189095D01*
X122366666Y-106189095D02*
X122342857Y-106212904D01*
X122342857Y-106212904D02*
X122319047Y-106260523D01*
X122319047Y-106260523D02*
X122319047Y-106379571D01*
X122319047Y-106379571D02*
X122342857Y-106427190D01*
X122342857Y-106427190D02*
X122366666Y-106451000D01*
X122366666Y-106451000D02*
X122414285Y-106474809D01*
X122414285Y-106474809D02*
X122533333Y-106474809D01*
X122533333Y-106474809D02*
X122580952Y-106451000D01*
X122580952Y-106451000D02*
X122604761Y-106427190D01*
X161346428Y-95252190D02*
X161370237Y-95276000D01*
X161370237Y-95276000D02*
X161441666Y-95299809D01*
X161441666Y-95299809D02*
X161489285Y-95299809D01*
X161489285Y-95299809D02*
X161560713Y-95276000D01*
X161560713Y-95276000D02*
X161608332Y-95228380D01*
X161608332Y-95228380D02*
X161632142Y-95180761D01*
X161632142Y-95180761D02*
X161655951Y-95085523D01*
X161655951Y-95085523D02*
X161655951Y-95014095D01*
X161655951Y-95014095D02*
X161632142Y-94918857D01*
X161632142Y-94918857D02*
X161608332Y-94871238D01*
X161608332Y-94871238D02*
X161560713Y-94823619D01*
X161560713Y-94823619D02*
X161489285Y-94799809D01*
X161489285Y-94799809D02*
X161441666Y-94799809D01*
X161441666Y-94799809D02*
X161370237Y-94823619D01*
X161370237Y-94823619D02*
X161346428Y-94847428D01*
X161155951Y-94847428D02*
X161132142Y-94823619D01*
X161132142Y-94823619D02*
X161084523Y-94799809D01*
X161084523Y-94799809D02*
X160965475Y-94799809D01*
X160965475Y-94799809D02*
X160917856Y-94823619D01*
X160917856Y-94823619D02*
X160894047Y-94847428D01*
X160894047Y-94847428D02*
X160870237Y-94895047D01*
X160870237Y-94895047D02*
X160870237Y-94942666D01*
X160870237Y-94942666D02*
X160894047Y-95014095D01*
X160894047Y-95014095D02*
X161179761Y-95299809D01*
X161179761Y-95299809D02*
X160870237Y-95299809D01*
X160632142Y-95299809D02*
X160536904Y-95299809D01*
X160536904Y-95299809D02*
X160489285Y-95276000D01*
X160489285Y-95276000D02*
X160465476Y-95252190D01*
X160465476Y-95252190D02*
X160417857Y-95180761D01*
X160417857Y-95180761D02*
X160394047Y-95085523D01*
X160394047Y-95085523D02*
X160394047Y-94895047D01*
X160394047Y-94895047D02*
X160417857Y-94847428D01*
X160417857Y-94847428D02*
X160441666Y-94823619D01*
X160441666Y-94823619D02*
X160489285Y-94799809D01*
X160489285Y-94799809D02*
X160584523Y-94799809D01*
X160584523Y-94799809D02*
X160632142Y-94823619D01*
X160632142Y-94823619D02*
X160655952Y-94847428D01*
X160655952Y-94847428D02*
X160679761Y-94895047D01*
X160679761Y-94895047D02*
X160679761Y-95014095D01*
X160679761Y-95014095D02*
X160655952Y-95061714D01*
X160655952Y-95061714D02*
X160632142Y-95085523D01*
X160632142Y-95085523D02*
X160584523Y-95109333D01*
X160584523Y-95109333D02*
X160489285Y-95109333D01*
X160489285Y-95109333D02*
X160441666Y-95085523D01*
X160441666Y-95085523D02*
X160417857Y-95061714D01*
X160417857Y-95061714D02*
X160394047Y-95014095D01*
X169021428Y-79977190D02*
X169045237Y-80001000D01*
X169045237Y-80001000D02*
X169116666Y-80024809D01*
X169116666Y-80024809D02*
X169164285Y-80024809D01*
X169164285Y-80024809D02*
X169235713Y-80001000D01*
X169235713Y-80001000D02*
X169283332Y-79953380D01*
X169283332Y-79953380D02*
X169307142Y-79905761D01*
X169307142Y-79905761D02*
X169330951Y-79810523D01*
X169330951Y-79810523D02*
X169330951Y-79739095D01*
X169330951Y-79739095D02*
X169307142Y-79643857D01*
X169307142Y-79643857D02*
X169283332Y-79596238D01*
X169283332Y-79596238D02*
X169235713Y-79548619D01*
X169235713Y-79548619D02*
X169164285Y-79524809D01*
X169164285Y-79524809D02*
X169116666Y-79524809D01*
X169116666Y-79524809D02*
X169045237Y-79548619D01*
X169045237Y-79548619D02*
X169021428Y-79572428D01*
X168592856Y-79524809D02*
X168688094Y-79524809D01*
X168688094Y-79524809D02*
X168735713Y-79548619D01*
X168735713Y-79548619D02*
X168759523Y-79572428D01*
X168759523Y-79572428D02*
X168807142Y-79643857D01*
X168807142Y-79643857D02*
X168830951Y-79739095D01*
X168830951Y-79739095D02*
X168830951Y-79929571D01*
X168830951Y-79929571D02*
X168807142Y-79977190D01*
X168807142Y-79977190D02*
X168783332Y-80001000D01*
X168783332Y-80001000D02*
X168735713Y-80024809D01*
X168735713Y-80024809D02*
X168640475Y-80024809D01*
X168640475Y-80024809D02*
X168592856Y-80001000D01*
X168592856Y-80001000D02*
X168569047Y-79977190D01*
X168569047Y-79977190D02*
X168545237Y-79929571D01*
X168545237Y-79929571D02*
X168545237Y-79810523D01*
X168545237Y-79810523D02*
X168569047Y-79762904D01*
X168569047Y-79762904D02*
X168592856Y-79739095D01*
X168592856Y-79739095D02*
X168640475Y-79715285D01*
X168640475Y-79715285D02*
X168735713Y-79715285D01*
X168735713Y-79715285D02*
X168783332Y-79739095D01*
X168783332Y-79739095D02*
X168807142Y-79762904D01*
X168807142Y-79762904D02*
X168830951Y-79810523D01*
X168378571Y-79524809D02*
X168069047Y-79524809D01*
X168069047Y-79524809D02*
X168235714Y-79715285D01*
X168235714Y-79715285D02*
X168164285Y-79715285D01*
X168164285Y-79715285D02*
X168116666Y-79739095D01*
X168116666Y-79739095D02*
X168092857Y-79762904D01*
X168092857Y-79762904D02*
X168069047Y-79810523D01*
X168069047Y-79810523D02*
X168069047Y-79929571D01*
X168069047Y-79929571D02*
X168092857Y-79977190D01*
X168092857Y-79977190D02*
X168116666Y-80001000D01*
X168116666Y-80001000D02*
X168164285Y-80024809D01*
X168164285Y-80024809D02*
X168307142Y-80024809D01*
X168307142Y-80024809D02*
X168354761Y-80001000D01*
X168354761Y-80001000D02*
X168378571Y-79977190D01*
X123271428Y-107924809D02*
X123438094Y-107686714D01*
X123557142Y-107924809D02*
X123557142Y-107424809D01*
X123557142Y-107424809D02*
X123366666Y-107424809D01*
X123366666Y-107424809D02*
X123319047Y-107448619D01*
X123319047Y-107448619D02*
X123295237Y-107472428D01*
X123295237Y-107472428D02*
X123271428Y-107520047D01*
X123271428Y-107520047D02*
X123271428Y-107591476D01*
X123271428Y-107591476D02*
X123295237Y-107639095D01*
X123295237Y-107639095D02*
X123319047Y-107662904D01*
X123319047Y-107662904D02*
X123366666Y-107686714D01*
X123366666Y-107686714D02*
X123557142Y-107686714D01*
X122842856Y-107591476D02*
X122842856Y-107924809D01*
X122961904Y-107401000D02*
X123080951Y-107758142D01*
X123080951Y-107758142D02*
X122771428Y-107758142D01*
X122366666Y-107424809D02*
X122461904Y-107424809D01*
X122461904Y-107424809D02*
X122509523Y-107448619D01*
X122509523Y-107448619D02*
X122533333Y-107472428D01*
X122533333Y-107472428D02*
X122580952Y-107543857D01*
X122580952Y-107543857D02*
X122604761Y-107639095D01*
X122604761Y-107639095D02*
X122604761Y-107829571D01*
X122604761Y-107829571D02*
X122580952Y-107877190D01*
X122580952Y-107877190D02*
X122557142Y-107901000D01*
X122557142Y-107901000D02*
X122509523Y-107924809D01*
X122509523Y-107924809D02*
X122414285Y-107924809D01*
X122414285Y-107924809D02*
X122366666Y-107901000D01*
X122366666Y-107901000D02*
X122342857Y-107877190D01*
X122342857Y-107877190D02*
X122319047Y-107829571D01*
X122319047Y-107829571D02*
X122319047Y-107710523D01*
X122319047Y-107710523D02*
X122342857Y-107662904D01*
X122342857Y-107662904D02*
X122366666Y-107639095D01*
X122366666Y-107639095D02*
X122414285Y-107615285D01*
X122414285Y-107615285D02*
X122509523Y-107615285D01*
X122509523Y-107615285D02*
X122557142Y-107639095D01*
X122557142Y-107639095D02*
X122580952Y-107662904D01*
X122580952Y-107662904D02*
X122604761Y-107710523D01*
X185233331Y-92612809D02*
X184947617Y-92612809D01*
X185090474Y-93112809D02*
X185090474Y-92612809D01*
X184780951Y-93112809D02*
X184780951Y-92612809D01*
X184780951Y-92612809D02*
X184590475Y-92612809D01*
X184590475Y-92612809D02*
X184542856Y-92636619D01*
X184542856Y-92636619D02*
X184519046Y-92660428D01*
X184519046Y-92660428D02*
X184495237Y-92708047D01*
X184495237Y-92708047D02*
X184495237Y-92779476D01*
X184495237Y-92779476D02*
X184519046Y-92827095D01*
X184519046Y-92827095D02*
X184542856Y-92850904D01*
X184542856Y-92850904D02*
X184590475Y-92874714D01*
X184590475Y-92874714D02*
X184780951Y-92874714D01*
X184328570Y-92612809D02*
X184019046Y-92612809D01*
X184019046Y-92612809D02*
X184185713Y-92803285D01*
X184185713Y-92803285D02*
X184114284Y-92803285D01*
X184114284Y-92803285D02*
X184066665Y-92827095D01*
X184066665Y-92827095D02*
X184042856Y-92850904D01*
X184042856Y-92850904D02*
X184019046Y-92898523D01*
X184019046Y-92898523D02*
X184019046Y-93017571D01*
X184019046Y-93017571D02*
X184042856Y-93065190D01*
X184042856Y-93065190D02*
X184066665Y-93089000D01*
X184066665Y-93089000D02*
X184114284Y-93112809D01*
X184114284Y-93112809D02*
X184257141Y-93112809D01*
X184257141Y-93112809D02*
X184304760Y-93089000D01*
X184304760Y-93089000D02*
X184328570Y-93065190D01*
X183876189Y-92612809D02*
X183709523Y-93112809D01*
X183709523Y-93112809D02*
X183542856Y-92612809D01*
X183423809Y-92612809D02*
X183114285Y-92612809D01*
X183114285Y-92612809D02*
X183280952Y-92803285D01*
X183280952Y-92803285D02*
X183209523Y-92803285D01*
X183209523Y-92803285D02*
X183161904Y-92827095D01*
X183161904Y-92827095D02*
X183138095Y-92850904D01*
X183138095Y-92850904D02*
X183114285Y-92898523D01*
X183114285Y-92898523D02*
X183114285Y-93017571D01*
X183114285Y-93017571D02*
X183138095Y-93065190D01*
X183138095Y-93065190D02*
X183161904Y-93089000D01*
X183161904Y-93089000D02*
X183209523Y-93112809D01*
X183209523Y-93112809D02*
X183352380Y-93112809D01*
X183352380Y-93112809D02*
X183399999Y-93089000D01*
X183399999Y-93089000D02*
X183423809Y-93065190D01*
X161346428Y-93802190D02*
X161370237Y-93826000D01*
X161370237Y-93826000D02*
X161441666Y-93849809D01*
X161441666Y-93849809D02*
X161489285Y-93849809D01*
X161489285Y-93849809D02*
X161560713Y-93826000D01*
X161560713Y-93826000D02*
X161608332Y-93778380D01*
X161608332Y-93778380D02*
X161632142Y-93730761D01*
X161632142Y-93730761D02*
X161655951Y-93635523D01*
X161655951Y-93635523D02*
X161655951Y-93564095D01*
X161655951Y-93564095D02*
X161632142Y-93468857D01*
X161632142Y-93468857D02*
X161608332Y-93421238D01*
X161608332Y-93421238D02*
X161560713Y-93373619D01*
X161560713Y-93373619D02*
X161489285Y-93349809D01*
X161489285Y-93349809D02*
X161441666Y-93349809D01*
X161441666Y-93349809D02*
X161370237Y-93373619D01*
X161370237Y-93373619D02*
X161346428Y-93397428D01*
X161179761Y-93349809D02*
X160870237Y-93349809D01*
X160870237Y-93349809D02*
X161036904Y-93540285D01*
X161036904Y-93540285D02*
X160965475Y-93540285D01*
X160965475Y-93540285D02*
X160917856Y-93564095D01*
X160917856Y-93564095D02*
X160894047Y-93587904D01*
X160894047Y-93587904D02*
X160870237Y-93635523D01*
X160870237Y-93635523D02*
X160870237Y-93754571D01*
X160870237Y-93754571D02*
X160894047Y-93802190D01*
X160894047Y-93802190D02*
X160917856Y-93826000D01*
X160917856Y-93826000D02*
X160965475Y-93849809D01*
X160965475Y-93849809D02*
X161108332Y-93849809D01*
X161108332Y-93849809D02*
X161155951Y-93826000D01*
X161155951Y-93826000D02*
X161179761Y-93802190D01*
X160560714Y-93349809D02*
X160513095Y-93349809D01*
X160513095Y-93349809D02*
X160465476Y-93373619D01*
X160465476Y-93373619D02*
X160441666Y-93397428D01*
X160441666Y-93397428D02*
X160417857Y-93445047D01*
X160417857Y-93445047D02*
X160394047Y-93540285D01*
X160394047Y-93540285D02*
X160394047Y-93659333D01*
X160394047Y-93659333D02*
X160417857Y-93754571D01*
X160417857Y-93754571D02*
X160441666Y-93802190D01*
X160441666Y-93802190D02*
X160465476Y-93826000D01*
X160465476Y-93826000D02*
X160513095Y-93849809D01*
X160513095Y-93849809D02*
X160560714Y-93849809D01*
X160560714Y-93849809D02*
X160608333Y-93826000D01*
X160608333Y-93826000D02*
X160632142Y-93802190D01*
X160632142Y-93802190D02*
X160655952Y-93754571D01*
X160655952Y-93754571D02*
X160679761Y-93659333D01*
X160679761Y-93659333D02*
X160679761Y-93540285D01*
X160679761Y-93540285D02*
X160655952Y-93445047D01*
X160655952Y-93445047D02*
X160632142Y-93397428D01*
X160632142Y-93397428D02*
X160608333Y-93373619D01*
X160608333Y-93373619D02*
X160560714Y-93349809D01*
X133777190Y-101078571D02*
X133801000Y-101054762D01*
X133801000Y-101054762D02*
X133824809Y-100983333D01*
X133824809Y-100983333D02*
X133824809Y-100935714D01*
X133824809Y-100935714D02*
X133801000Y-100864286D01*
X133801000Y-100864286D02*
X133753380Y-100816667D01*
X133753380Y-100816667D02*
X133705761Y-100792857D01*
X133705761Y-100792857D02*
X133610523Y-100769048D01*
X133610523Y-100769048D02*
X133539095Y-100769048D01*
X133539095Y-100769048D02*
X133443857Y-100792857D01*
X133443857Y-100792857D02*
X133396238Y-100816667D01*
X133396238Y-100816667D02*
X133348619Y-100864286D01*
X133348619Y-100864286D02*
X133324809Y-100935714D01*
X133324809Y-100935714D02*
X133324809Y-100983333D01*
X133324809Y-100983333D02*
X133348619Y-101054762D01*
X133348619Y-101054762D02*
X133372428Y-101078571D01*
X133324809Y-101530952D02*
X133324809Y-101292857D01*
X133324809Y-101292857D02*
X133562904Y-101269048D01*
X133562904Y-101269048D02*
X133539095Y-101292857D01*
X133539095Y-101292857D02*
X133515285Y-101340476D01*
X133515285Y-101340476D02*
X133515285Y-101459524D01*
X133515285Y-101459524D02*
X133539095Y-101507143D01*
X133539095Y-101507143D02*
X133562904Y-101530952D01*
X133562904Y-101530952D02*
X133610523Y-101554762D01*
X133610523Y-101554762D02*
X133729571Y-101554762D01*
X133729571Y-101554762D02*
X133777190Y-101530952D01*
X133777190Y-101530952D02*
X133801000Y-101507143D01*
X133801000Y-101507143D02*
X133824809Y-101459524D01*
X133824809Y-101459524D02*
X133824809Y-101340476D01*
X133824809Y-101340476D02*
X133801000Y-101292857D01*
X133801000Y-101292857D02*
X133777190Y-101269048D01*
X133539095Y-101840476D02*
X133515285Y-101792857D01*
X133515285Y-101792857D02*
X133491476Y-101769047D01*
X133491476Y-101769047D02*
X133443857Y-101745238D01*
X133443857Y-101745238D02*
X133420047Y-101745238D01*
X133420047Y-101745238D02*
X133372428Y-101769047D01*
X133372428Y-101769047D02*
X133348619Y-101792857D01*
X133348619Y-101792857D02*
X133324809Y-101840476D01*
X133324809Y-101840476D02*
X133324809Y-101935714D01*
X133324809Y-101935714D02*
X133348619Y-101983333D01*
X133348619Y-101983333D02*
X133372428Y-102007142D01*
X133372428Y-102007142D02*
X133420047Y-102030952D01*
X133420047Y-102030952D02*
X133443857Y-102030952D01*
X133443857Y-102030952D02*
X133491476Y-102007142D01*
X133491476Y-102007142D02*
X133515285Y-101983333D01*
X133515285Y-101983333D02*
X133539095Y-101935714D01*
X133539095Y-101935714D02*
X133539095Y-101840476D01*
X133539095Y-101840476D02*
X133562904Y-101792857D01*
X133562904Y-101792857D02*
X133586714Y-101769047D01*
X133586714Y-101769047D02*
X133634333Y-101745238D01*
X133634333Y-101745238D02*
X133729571Y-101745238D01*
X133729571Y-101745238D02*
X133777190Y-101769047D01*
X133777190Y-101769047D02*
X133801000Y-101792857D01*
X133801000Y-101792857D02*
X133824809Y-101840476D01*
X133824809Y-101840476D02*
X133824809Y-101935714D01*
X133824809Y-101935714D02*
X133801000Y-101983333D01*
X133801000Y-101983333D02*
X133777190Y-102007142D01*
X133777190Y-102007142D02*
X133729571Y-102030952D01*
X133729571Y-102030952D02*
X133634333Y-102030952D01*
X133634333Y-102030952D02*
X133586714Y-102007142D01*
X133586714Y-102007142D02*
X133562904Y-101983333D01*
X133562904Y-101983333D02*
X133539095Y-101935714D01*
X123577190Y-109841666D02*
X123601000Y-109817857D01*
X123601000Y-109817857D02*
X123624809Y-109746428D01*
X123624809Y-109746428D02*
X123624809Y-109698809D01*
X123624809Y-109698809D02*
X123601000Y-109627381D01*
X123601000Y-109627381D02*
X123553380Y-109579762D01*
X123553380Y-109579762D02*
X123505761Y-109555952D01*
X123505761Y-109555952D02*
X123410523Y-109532143D01*
X123410523Y-109532143D02*
X123339095Y-109532143D01*
X123339095Y-109532143D02*
X123243857Y-109555952D01*
X123243857Y-109555952D02*
X123196238Y-109579762D01*
X123196238Y-109579762D02*
X123148619Y-109627381D01*
X123148619Y-109627381D02*
X123124809Y-109698809D01*
X123124809Y-109698809D02*
X123124809Y-109746428D01*
X123124809Y-109746428D02*
X123148619Y-109817857D01*
X123148619Y-109817857D02*
X123172428Y-109841666D01*
X123172428Y-110032143D02*
X123148619Y-110055952D01*
X123148619Y-110055952D02*
X123124809Y-110103571D01*
X123124809Y-110103571D02*
X123124809Y-110222619D01*
X123124809Y-110222619D02*
X123148619Y-110270238D01*
X123148619Y-110270238D02*
X123172428Y-110294047D01*
X123172428Y-110294047D02*
X123220047Y-110317857D01*
X123220047Y-110317857D02*
X123267666Y-110317857D01*
X123267666Y-110317857D02*
X123339095Y-110294047D01*
X123339095Y-110294047D02*
X123624809Y-110008333D01*
X123624809Y-110008333D02*
X123624809Y-110317857D01*
X165096428Y-101227190D02*
X165120237Y-101251000D01*
X165120237Y-101251000D02*
X165191666Y-101274809D01*
X165191666Y-101274809D02*
X165239285Y-101274809D01*
X165239285Y-101274809D02*
X165310713Y-101251000D01*
X165310713Y-101251000D02*
X165358332Y-101203380D01*
X165358332Y-101203380D02*
X165382142Y-101155761D01*
X165382142Y-101155761D02*
X165405951Y-101060523D01*
X165405951Y-101060523D02*
X165405951Y-100989095D01*
X165405951Y-100989095D02*
X165382142Y-100893857D01*
X165382142Y-100893857D02*
X165358332Y-100846238D01*
X165358332Y-100846238D02*
X165310713Y-100798619D01*
X165310713Y-100798619D02*
X165239285Y-100774809D01*
X165239285Y-100774809D02*
X165191666Y-100774809D01*
X165191666Y-100774809D02*
X165120237Y-100798619D01*
X165120237Y-100798619D02*
X165096428Y-100822428D01*
X164644047Y-100774809D02*
X164882142Y-100774809D01*
X164882142Y-100774809D02*
X164905951Y-101012904D01*
X164905951Y-101012904D02*
X164882142Y-100989095D01*
X164882142Y-100989095D02*
X164834523Y-100965285D01*
X164834523Y-100965285D02*
X164715475Y-100965285D01*
X164715475Y-100965285D02*
X164667856Y-100989095D01*
X164667856Y-100989095D02*
X164644047Y-101012904D01*
X164644047Y-101012904D02*
X164620237Y-101060523D01*
X164620237Y-101060523D02*
X164620237Y-101179571D01*
X164620237Y-101179571D02*
X164644047Y-101227190D01*
X164644047Y-101227190D02*
X164667856Y-101251000D01*
X164667856Y-101251000D02*
X164715475Y-101274809D01*
X164715475Y-101274809D02*
X164834523Y-101274809D01*
X164834523Y-101274809D02*
X164882142Y-101251000D01*
X164882142Y-101251000D02*
X164905951Y-101227190D01*
X164453571Y-100774809D02*
X164144047Y-100774809D01*
X164144047Y-100774809D02*
X164310714Y-100965285D01*
X164310714Y-100965285D02*
X164239285Y-100965285D01*
X164239285Y-100965285D02*
X164191666Y-100989095D01*
X164191666Y-100989095D02*
X164167857Y-101012904D01*
X164167857Y-101012904D02*
X164144047Y-101060523D01*
X164144047Y-101060523D02*
X164144047Y-101179571D01*
X164144047Y-101179571D02*
X164167857Y-101227190D01*
X164167857Y-101227190D02*
X164191666Y-101251000D01*
X164191666Y-101251000D02*
X164239285Y-101274809D01*
X164239285Y-101274809D02*
X164382142Y-101274809D01*
X164382142Y-101274809D02*
X164429761Y-101251000D01*
X164429761Y-101251000D02*
X164453571Y-101227190D01*
X137849809Y-95791666D02*
X137849809Y-95553571D01*
X137849809Y-95553571D02*
X137349809Y-95553571D01*
X137349809Y-95910714D02*
X137349809Y-96244047D01*
X137349809Y-96244047D02*
X137849809Y-96029762D01*
X165096428Y-98302190D02*
X165120237Y-98326000D01*
X165120237Y-98326000D02*
X165191666Y-98349809D01*
X165191666Y-98349809D02*
X165239285Y-98349809D01*
X165239285Y-98349809D02*
X165310713Y-98326000D01*
X165310713Y-98326000D02*
X165358332Y-98278380D01*
X165358332Y-98278380D02*
X165382142Y-98230761D01*
X165382142Y-98230761D02*
X165405951Y-98135523D01*
X165405951Y-98135523D02*
X165405951Y-98064095D01*
X165405951Y-98064095D02*
X165382142Y-97968857D01*
X165382142Y-97968857D02*
X165358332Y-97921238D01*
X165358332Y-97921238D02*
X165310713Y-97873619D01*
X165310713Y-97873619D02*
X165239285Y-97849809D01*
X165239285Y-97849809D02*
X165191666Y-97849809D01*
X165191666Y-97849809D02*
X165120237Y-97873619D01*
X165120237Y-97873619D02*
X165096428Y-97897428D01*
X164620237Y-98349809D02*
X164905951Y-98349809D01*
X164763094Y-98349809D02*
X164763094Y-97849809D01*
X164763094Y-97849809D02*
X164810713Y-97921238D01*
X164810713Y-97921238D02*
X164858332Y-97968857D01*
X164858332Y-97968857D02*
X164905951Y-97992666D01*
X164429761Y-97897428D02*
X164405952Y-97873619D01*
X164405952Y-97873619D02*
X164358333Y-97849809D01*
X164358333Y-97849809D02*
X164239285Y-97849809D01*
X164239285Y-97849809D02*
X164191666Y-97873619D01*
X164191666Y-97873619D02*
X164167857Y-97897428D01*
X164167857Y-97897428D02*
X164144047Y-97945047D01*
X164144047Y-97945047D02*
X164144047Y-97992666D01*
X164144047Y-97992666D02*
X164167857Y-98064095D01*
X164167857Y-98064095D02*
X164453571Y-98349809D01*
X164453571Y-98349809D02*
X164144047Y-98349809D01*
X122858333Y-113799809D02*
X123024999Y-113561714D01*
X123144047Y-113799809D02*
X123144047Y-113299809D01*
X123144047Y-113299809D02*
X122953571Y-113299809D01*
X122953571Y-113299809D02*
X122905952Y-113323619D01*
X122905952Y-113323619D02*
X122882142Y-113347428D01*
X122882142Y-113347428D02*
X122858333Y-113395047D01*
X122858333Y-113395047D02*
X122858333Y-113466476D01*
X122858333Y-113466476D02*
X122882142Y-113514095D01*
X122882142Y-113514095D02*
X122905952Y-113537904D01*
X122905952Y-113537904D02*
X122953571Y-113561714D01*
X122953571Y-113561714D02*
X123144047Y-113561714D01*
X122667856Y-113347428D02*
X122644047Y-113323619D01*
X122644047Y-113323619D02*
X122596428Y-113299809D01*
X122596428Y-113299809D02*
X122477380Y-113299809D01*
X122477380Y-113299809D02*
X122429761Y-113323619D01*
X122429761Y-113323619D02*
X122405952Y-113347428D01*
X122405952Y-113347428D02*
X122382142Y-113395047D01*
X122382142Y-113395047D02*
X122382142Y-113442666D01*
X122382142Y-113442666D02*
X122405952Y-113514095D01*
X122405952Y-113514095D02*
X122691666Y-113799809D01*
X122691666Y-113799809D02*
X122382142Y-113799809D01*
X136327190Y-95278571D02*
X136351000Y-95254762D01*
X136351000Y-95254762D02*
X136374809Y-95183333D01*
X136374809Y-95183333D02*
X136374809Y-95135714D01*
X136374809Y-95135714D02*
X136351000Y-95064286D01*
X136351000Y-95064286D02*
X136303380Y-95016667D01*
X136303380Y-95016667D02*
X136255761Y-94992857D01*
X136255761Y-94992857D02*
X136160523Y-94969048D01*
X136160523Y-94969048D02*
X136089095Y-94969048D01*
X136089095Y-94969048D02*
X135993857Y-94992857D01*
X135993857Y-94992857D02*
X135946238Y-95016667D01*
X135946238Y-95016667D02*
X135898619Y-95064286D01*
X135898619Y-95064286D02*
X135874809Y-95135714D01*
X135874809Y-95135714D02*
X135874809Y-95183333D01*
X135874809Y-95183333D02*
X135898619Y-95254762D01*
X135898619Y-95254762D02*
X135922428Y-95278571D01*
X136041476Y-95707143D02*
X136374809Y-95707143D01*
X135851000Y-95588095D02*
X136208142Y-95469048D01*
X136208142Y-95469048D02*
X136208142Y-95778571D01*
X135874809Y-96183333D02*
X135874809Y-96088095D01*
X135874809Y-96088095D02*
X135898619Y-96040476D01*
X135898619Y-96040476D02*
X135922428Y-96016666D01*
X135922428Y-96016666D02*
X135993857Y-95969047D01*
X135993857Y-95969047D02*
X136089095Y-95945238D01*
X136089095Y-95945238D02*
X136279571Y-95945238D01*
X136279571Y-95945238D02*
X136327190Y-95969047D01*
X136327190Y-95969047D02*
X136351000Y-95992857D01*
X136351000Y-95992857D02*
X136374809Y-96040476D01*
X136374809Y-96040476D02*
X136374809Y-96135714D01*
X136374809Y-96135714D02*
X136351000Y-96183333D01*
X136351000Y-96183333D02*
X136327190Y-96207142D01*
X136327190Y-96207142D02*
X136279571Y-96230952D01*
X136279571Y-96230952D02*
X136160523Y-96230952D01*
X136160523Y-96230952D02*
X136112904Y-96207142D01*
X136112904Y-96207142D02*
X136089095Y-96183333D01*
X136089095Y-96183333D02*
X136065285Y-96135714D01*
X136065285Y-96135714D02*
X136065285Y-96040476D01*
X136065285Y-96040476D02*
X136089095Y-95992857D01*
X136089095Y-95992857D02*
X136112904Y-95969047D01*
X136112904Y-95969047D02*
X136160523Y-95945238D01*
X165121428Y-99752190D02*
X165145237Y-99776000D01*
X165145237Y-99776000D02*
X165216666Y-99799809D01*
X165216666Y-99799809D02*
X165264285Y-99799809D01*
X165264285Y-99799809D02*
X165335713Y-99776000D01*
X165335713Y-99776000D02*
X165383332Y-99728380D01*
X165383332Y-99728380D02*
X165407142Y-99680761D01*
X165407142Y-99680761D02*
X165430951Y-99585523D01*
X165430951Y-99585523D02*
X165430951Y-99514095D01*
X165430951Y-99514095D02*
X165407142Y-99418857D01*
X165407142Y-99418857D02*
X165383332Y-99371238D01*
X165383332Y-99371238D02*
X165335713Y-99323619D01*
X165335713Y-99323619D02*
X165264285Y-99299809D01*
X165264285Y-99299809D02*
X165216666Y-99299809D01*
X165216666Y-99299809D02*
X165145237Y-99323619D01*
X165145237Y-99323619D02*
X165121428Y-99347428D01*
X164669047Y-99299809D02*
X164907142Y-99299809D01*
X164907142Y-99299809D02*
X164930951Y-99537904D01*
X164930951Y-99537904D02*
X164907142Y-99514095D01*
X164907142Y-99514095D02*
X164859523Y-99490285D01*
X164859523Y-99490285D02*
X164740475Y-99490285D01*
X164740475Y-99490285D02*
X164692856Y-99514095D01*
X164692856Y-99514095D02*
X164669047Y-99537904D01*
X164669047Y-99537904D02*
X164645237Y-99585523D01*
X164645237Y-99585523D02*
X164645237Y-99704571D01*
X164645237Y-99704571D02*
X164669047Y-99752190D01*
X164669047Y-99752190D02*
X164692856Y-99776000D01*
X164692856Y-99776000D02*
X164740475Y-99799809D01*
X164740475Y-99799809D02*
X164859523Y-99799809D01*
X164859523Y-99799809D02*
X164907142Y-99776000D01*
X164907142Y-99776000D02*
X164930951Y-99752190D01*
X164216666Y-99466476D02*
X164216666Y-99799809D01*
X164335714Y-99276000D02*
X164454761Y-99633142D01*
X164454761Y-99633142D02*
X164145238Y-99633142D01*
X169001428Y-80727190D02*
X169025237Y-80751000D01*
X169025237Y-80751000D02*
X169096666Y-80774809D01*
X169096666Y-80774809D02*
X169144285Y-80774809D01*
X169144285Y-80774809D02*
X169215713Y-80751000D01*
X169215713Y-80751000D02*
X169263332Y-80703380D01*
X169263332Y-80703380D02*
X169287142Y-80655761D01*
X169287142Y-80655761D02*
X169310951Y-80560523D01*
X169310951Y-80560523D02*
X169310951Y-80489095D01*
X169310951Y-80489095D02*
X169287142Y-80393857D01*
X169287142Y-80393857D02*
X169263332Y-80346238D01*
X169263332Y-80346238D02*
X169215713Y-80298619D01*
X169215713Y-80298619D02*
X169144285Y-80274809D01*
X169144285Y-80274809D02*
X169096666Y-80274809D01*
X169096666Y-80274809D02*
X169025237Y-80298619D01*
X169025237Y-80298619D02*
X169001428Y-80322428D01*
X168572856Y-80441476D02*
X168572856Y-80774809D01*
X168691904Y-80251000D02*
X168810951Y-80608142D01*
X168810951Y-80608142D02*
X168501428Y-80608142D01*
X168239523Y-80489095D02*
X168287142Y-80465285D01*
X168287142Y-80465285D02*
X168310952Y-80441476D01*
X168310952Y-80441476D02*
X168334761Y-80393857D01*
X168334761Y-80393857D02*
X168334761Y-80370047D01*
X168334761Y-80370047D02*
X168310952Y-80322428D01*
X168310952Y-80322428D02*
X168287142Y-80298619D01*
X168287142Y-80298619D02*
X168239523Y-80274809D01*
X168239523Y-80274809D02*
X168144285Y-80274809D01*
X168144285Y-80274809D02*
X168096666Y-80298619D01*
X168096666Y-80298619D02*
X168072857Y-80322428D01*
X168072857Y-80322428D02*
X168049047Y-80370047D01*
X168049047Y-80370047D02*
X168049047Y-80393857D01*
X168049047Y-80393857D02*
X168072857Y-80441476D01*
X168072857Y-80441476D02*
X168096666Y-80465285D01*
X168096666Y-80465285D02*
X168144285Y-80489095D01*
X168144285Y-80489095D02*
X168239523Y-80489095D01*
X168239523Y-80489095D02*
X168287142Y-80512904D01*
X168287142Y-80512904D02*
X168310952Y-80536714D01*
X168310952Y-80536714D02*
X168334761Y-80584333D01*
X168334761Y-80584333D02*
X168334761Y-80679571D01*
X168334761Y-80679571D02*
X168310952Y-80727190D01*
X168310952Y-80727190D02*
X168287142Y-80751000D01*
X168287142Y-80751000D02*
X168239523Y-80774809D01*
X168239523Y-80774809D02*
X168144285Y-80774809D01*
X168144285Y-80774809D02*
X168096666Y-80751000D01*
X168096666Y-80751000D02*
X168072857Y-80727190D01*
X168072857Y-80727190D02*
X168049047Y-80679571D01*
X168049047Y-80679571D02*
X168049047Y-80584333D01*
X168049047Y-80584333D02*
X168072857Y-80536714D01*
X168072857Y-80536714D02*
X168096666Y-80512904D01*
X168096666Y-80512904D02*
X168144285Y-80489095D01*
X157521428Y-97577190D02*
X157545237Y-97601000D01*
X157545237Y-97601000D02*
X157616666Y-97624809D01*
X157616666Y-97624809D02*
X157664285Y-97624809D01*
X157664285Y-97624809D02*
X157735713Y-97601000D01*
X157735713Y-97601000D02*
X157783332Y-97553380D01*
X157783332Y-97553380D02*
X157807142Y-97505761D01*
X157807142Y-97505761D02*
X157830951Y-97410523D01*
X157830951Y-97410523D02*
X157830951Y-97339095D01*
X157830951Y-97339095D02*
X157807142Y-97243857D01*
X157807142Y-97243857D02*
X157783332Y-97196238D01*
X157783332Y-97196238D02*
X157735713Y-97148619D01*
X157735713Y-97148619D02*
X157664285Y-97124809D01*
X157664285Y-97124809D02*
X157616666Y-97124809D01*
X157616666Y-97124809D02*
X157545237Y-97148619D01*
X157545237Y-97148619D02*
X157521428Y-97172428D01*
X157330951Y-97172428D02*
X157307142Y-97148619D01*
X157307142Y-97148619D02*
X157259523Y-97124809D01*
X157259523Y-97124809D02*
X157140475Y-97124809D01*
X157140475Y-97124809D02*
X157092856Y-97148619D01*
X157092856Y-97148619D02*
X157069047Y-97172428D01*
X157069047Y-97172428D02*
X157045237Y-97220047D01*
X157045237Y-97220047D02*
X157045237Y-97267666D01*
X157045237Y-97267666D02*
X157069047Y-97339095D01*
X157069047Y-97339095D02*
X157354761Y-97624809D01*
X157354761Y-97624809D02*
X157045237Y-97624809D01*
X156878571Y-97124809D02*
X156569047Y-97124809D01*
X156569047Y-97124809D02*
X156735714Y-97315285D01*
X156735714Y-97315285D02*
X156664285Y-97315285D01*
X156664285Y-97315285D02*
X156616666Y-97339095D01*
X156616666Y-97339095D02*
X156592857Y-97362904D01*
X156592857Y-97362904D02*
X156569047Y-97410523D01*
X156569047Y-97410523D02*
X156569047Y-97529571D01*
X156569047Y-97529571D02*
X156592857Y-97577190D01*
X156592857Y-97577190D02*
X156616666Y-97601000D01*
X156616666Y-97601000D02*
X156664285Y-97624809D01*
X156664285Y-97624809D02*
X156807142Y-97624809D01*
X156807142Y-97624809D02*
X156854761Y-97601000D01*
X156854761Y-97601000D02*
X156878571Y-97577190D01*
X171971428Y-80737190D02*
X171995237Y-80761000D01*
X171995237Y-80761000D02*
X172066666Y-80784809D01*
X172066666Y-80784809D02*
X172114285Y-80784809D01*
X172114285Y-80784809D02*
X172185713Y-80761000D01*
X172185713Y-80761000D02*
X172233332Y-80713380D01*
X172233332Y-80713380D02*
X172257142Y-80665761D01*
X172257142Y-80665761D02*
X172280951Y-80570523D01*
X172280951Y-80570523D02*
X172280951Y-80499095D01*
X172280951Y-80499095D02*
X172257142Y-80403857D01*
X172257142Y-80403857D02*
X172233332Y-80356238D01*
X172233332Y-80356238D02*
X172185713Y-80308619D01*
X172185713Y-80308619D02*
X172114285Y-80284809D01*
X172114285Y-80284809D02*
X172066666Y-80284809D01*
X172066666Y-80284809D02*
X171995237Y-80308619D01*
X171995237Y-80308619D02*
X171971428Y-80332428D01*
X171542856Y-80451476D02*
X171542856Y-80784809D01*
X171661904Y-80261000D02*
X171780951Y-80618142D01*
X171780951Y-80618142D02*
X171471428Y-80618142D01*
X171328571Y-80284809D02*
X170995238Y-80284809D01*
X170995238Y-80284809D02*
X171209523Y-80784809D01*
D11*
%TO.C,C27*%
X155990580Y-93110000D02*
X155709420Y-93110000D01*
X155990580Y-94130000D02*
X155709420Y-94130000D01*
%TO.C,C18*%
X154829420Y-102740000D02*
X155110580Y-102740000D01*
X154829420Y-103760000D02*
X155110580Y-103760000D01*
%TO.C,C52*%
X162409420Y-101995000D02*
X162690580Y-101995000D01*
X162409420Y-103015000D02*
X162690580Y-103015000D01*
%TO.C,C49*%
X159730580Y-97605000D02*
X159449420Y-97605000D01*
X159730580Y-98625000D02*
X159449420Y-98625000D01*
%TO.C,TP2V5*%
X184850000Y-94490000D02*
G75*
G02*
X183450000Y-94490000I-700000J0D01*
G01*
X183450000Y-94490000D02*
G75*
G02*
X184850000Y-94490000I700000J0D01*
G01*
%TO.C,C50*%
X159730580Y-99065000D02*
X159449420Y-99065000D01*
X159730580Y-100085000D02*
X159449420Y-100085000D01*
%TO.C,R20*%
X135632258Y-103077500D02*
X135157742Y-103077500D01*
X135632258Y-104122500D02*
X135157742Y-104122500D01*
%TO.C,C32*%
X171790580Y-78140000D02*
X171509420Y-78140000D01*
X171790580Y-79160000D02*
X171509420Y-79160000D01*
%TO.C,C21*%
X152150580Y-101280000D02*
X151869420Y-101280000D01*
X152150580Y-102300000D02*
X151869420Y-102300000D01*
%TO.C,C31*%
X168549420Y-78140000D02*
X168830580Y-78140000D01*
X168549420Y-79160000D02*
X168830580Y-79160000D01*
%TO.C,C51*%
X159730580Y-100525000D02*
X159449420Y-100525000D01*
X159730580Y-101545000D02*
X159449420Y-101545000D01*
%TO.C,C59*%
X135620000Y-101254420D02*
X135620000Y-101535580D01*
X136640000Y-101254420D02*
X136640000Y-101535580D01*
%TO.C,L8*%
X138540000Y-101545279D02*
X138540000Y-101219721D01*
X139560000Y-101545279D02*
X139560000Y-101219721D01*
%TO.C,C20*%
X152150580Y-99820000D02*
X151869420Y-99820000D01*
X152150580Y-100840000D02*
X151869420Y-100840000D01*
%TO.C,C28*%
X155990580Y-94570000D02*
X155709420Y-94570000D01*
X155990580Y-95590000D02*
X155709420Y-95590000D01*
%TO.C,R3*%
X120992258Y-114517500D02*
X120517742Y-114517500D01*
X120992258Y-115562500D02*
X120517742Y-115562500D01*
%TO.C,C26*%
X154829420Y-98360000D02*
X155110580Y-98360000D01*
X154829420Y-99380000D02*
X155110580Y-99380000D01*
%TO.C,C24*%
X154829420Y-101280000D02*
X155110580Y-101280000D01*
X154829420Y-102300000D02*
X155110580Y-102300000D01*
%TO.C,TP1V2*%
X184850000Y-97540000D02*
G75*
G02*
X183450000Y-97540000I-700000J0D01*
G01*
X183450000Y-97540000D02*
G75*
G02*
X184850000Y-97540000I700000J0D01*
G01*
%TO.C,TP5V0*%
X184850000Y-88390000D02*
G75*
G02*
X183450000Y-88390000I-700000J0D01*
G01*
X183450000Y-88390000D02*
G75*
G02*
X184850000Y-88390000I700000J0D01*
G01*
%TO.C,C57*%
X134160000Y-97965580D02*
X134160000Y-97684420D01*
X135180000Y-97965580D02*
X135180000Y-97684420D01*
%TO.C,C11*%
X159730580Y-101985000D02*
X159449420Y-101985000D01*
X159730580Y-103005000D02*
X159449420Y-103005000D01*
%TO.C,J2*%
X102130000Y-116610000D02*
X102130000Y-114210000D01*
X102140000Y-114200000D02*
X102630000Y-113700000D01*
X103080000Y-105670000D02*
X102630000Y-105670000D01*
X103080000Y-105670000D02*
X103080000Y-113700000D01*
X103080000Y-113700000D02*
X102630000Y-113700000D01*
X106990000Y-104550000D02*
X105890000Y-104550000D01*
X112990000Y-104550000D02*
X108290000Y-104550000D01*
X118300000Y-104550000D02*
X114690000Y-104550000D01*
X118300000Y-105060000D02*
X118300000Y-104550000D01*
X118300000Y-114910000D02*
X118300000Y-115460000D01*
X118300000Y-118520000D02*
X104240000Y-118520000D01*
X118300000Y-118520000D02*
X118300000Y-116960000D01*
%TO.C,R47*%
X120992258Y-111597500D02*
X120517742Y-111597500D01*
X120992258Y-112642500D02*
X120517742Y-112642500D01*
%TO.C,C1*%
X119510000Y-110055580D02*
X119510000Y-109774420D01*
X120530000Y-110055580D02*
X120530000Y-109774420D01*
%TO.C,C19*%
X152150580Y-98360000D02*
X151869420Y-98360000D01*
X152150580Y-99380000D02*
X151869420Y-99380000D01*
%TO.C,C22*%
X152150580Y-102740000D02*
X151869420Y-102740000D01*
X152150580Y-103760000D02*
X151869420Y-103760000D01*
%TO.C,C25*%
X154829420Y-99820000D02*
X155110580Y-99820000D01*
X154829420Y-100840000D02*
X155110580Y-100840000D01*
%TO.C,C62*%
X171790580Y-75200000D02*
X171509420Y-75200000D01*
X171790580Y-76220000D02*
X171509420Y-76220000D01*
%TO.C,C44*%
X141820000Y-96564420D02*
X141820000Y-96845580D01*
X142840000Y-96564420D02*
X142840000Y-96845580D01*
%TO.C,C17*%
X152150580Y-96900000D02*
X151869420Y-96900000D01*
X152150580Y-97920000D02*
X151869420Y-97920000D01*
%TO.C,R19*%
X138547500Y-97587742D02*
X138547500Y-98062258D01*
X139592500Y-97587742D02*
X139592500Y-98062258D01*
%TO.C,R45*%
X120972258Y-105717500D02*
X120497742Y-105717500D01*
X120972258Y-106762500D02*
X120497742Y-106762500D01*
%TO.C,C29*%
X158669420Y-94570000D02*
X158950580Y-94570000D01*
X158669420Y-95590000D02*
X158950580Y-95590000D01*
%TO.C,C63*%
X168549420Y-75200000D02*
X168830580Y-75200000D01*
X168549420Y-76220000D02*
X168830580Y-76220000D01*
%TO.C,R46*%
X120972258Y-107177500D02*
X120497742Y-107177500D01*
X120972258Y-108222500D02*
X120497742Y-108222500D01*
%TO.C,TP3V3*%
X184850000Y-91440000D02*
G75*
G02*
X183450000Y-91440000I-700000J0D01*
G01*
X183450000Y-91440000D02*
G75*
G02*
X184850000Y-91440000I700000J0D01*
G01*
%TO.C,C30*%
X158669420Y-93110000D02*
X158950580Y-93110000D01*
X158669420Y-94130000D02*
X158950580Y-94130000D01*
%TO.C,C58*%
X134160000Y-101254420D02*
X134160000Y-101535580D01*
X135180000Y-101254420D02*
X135180000Y-101535580D01*
%TO.C,C2*%
X120980000Y-110055580D02*
X120980000Y-109774420D01*
X122000000Y-110055580D02*
X122000000Y-109774420D01*
%TO.C,C53*%
X162409420Y-100525000D02*
X162690580Y-100525000D01*
X162409420Y-101545000D02*
X162690580Y-101545000D01*
%TO.C,L7*%
X137100000Y-97657221D02*
X137100000Y-97982779D01*
X138120000Y-97657221D02*
X138120000Y-97982779D01*
%TO.C,C12*%
X162409420Y-97605000D02*
X162690580Y-97605000D01*
X162409420Y-98625000D02*
X162690580Y-98625000D01*
%TO.C,R2*%
X120992258Y-113057500D02*
X120517742Y-113057500D01*
X120992258Y-114102500D02*
X120517742Y-114102500D01*
%TO.C,C46*%
X135630000Y-97965580D02*
X135630000Y-97684420D01*
X136650000Y-97965580D02*
X136650000Y-97684420D01*
%TO.C,C54*%
X162409420Y-99065000D02*
X162690580Y-99065000D01*
X162409420Y-100085000D02*
X162690580Y-100085000D01*
%TO.C,C48*%
X168549420Y-76670000D02*
X168830580Y-76670000D01*
X168549420Y-77690000D02*
X168830580Y-77690000D01*
%TO.C,C23*%
X154829420Y-96900000D02*
X155110580Y-96900000D01*
X154829420Y-97920000D02*
X155110580Y-97920000D01*
%TO.C,C47*%
X171790580Y-76670000D02*
X171509420Y-76670000D01*
X171790580Y-77690000D02*
X171509420Y-77690000D01*
%TD*%
M02*
