M48
; DRILL file {KiCad 9.0.3} date 2025-11-22T17:05:17-0500
; FORMAT={-:-/ absolute / metric / decimal}
; #@! TF.CreationDate,2025-11-22T17:05:17-05:00
; #@! TF.GenerationSoftware,Kicad,Pcbnew,9.0.3
; #@! TF.FileFunction,Plated,1,6,Blind
FMAT,2
METRIC
; #@! TA.AperFunction,Plated,Buried,ViaDrill
T1C0.200
%
G90
G05
T1
X146.604Y-99.575
X149.1Y-102.4
X149.9Y-102.4
X150.399Y-92.601
X150.4Y-91.4
X150.7Y-98.4
X150.7Y-102.4
X151.5Y-100.0
X151.5Y-103.2
X152.3Y-98.4
X152.3Y-103.2
X153.1Y-104.0
X153.9Y-104.8
X154.7Y-98.4
X154.7Y-102.4
X154.7Y-103.2
X155.5Y-97.6
X155.5Y-99.2
X155.5Y-101.6
X161.15Y-106.6
X162.25Y-106.4
X163.35Y-106.2
X164.45Y-106.0
X166.1Y-106.3
X167.75Y-106.6
X168.858Y-106.407
X182.69Y-112.65
X184.15Y-112.64
X185.62Y-112.65
M30
