M48
; DRILL file {KiCad 9.0.3} date 2025-11-22T17:05:16-0500
; FORMAT={-:-/ absolute / metric / decimal}
; #@! TF.CreationDate,2025-11-22T17:05:16-05:00
; #@! TF.GenerationSoftware,Kicad,Pcbnew,9.0.3
; #@! TF.FileFunction,Plated,1,2,Blind
FMAT,2
METRIC
; #@! TA.AperFunction,Plated,Buried,ViaDrill
T1C0.200
%
G90
G05
T1
X106.87Y-95.39
X107.63Y-98.86
X109.93Y-80.57
X109.93Y-92.65
X110.71Y-82.66
X110.72Y-90.57
X114.07Y-95.22
X114.2Y-92.65
X115.51Y-112.89
X115.53Y-102.42
X115.54Y-108.01
X115.88Y-89.88
X117.32Y-94.67
X117.46Y-109.01
X117.71Y-98.78
X119.51Y-111.44
X119.74Y-95.02
X121.2Y-95.02
X121.21Y-102.7
X121.78Y-106.58
X121.87Y-89.03
X121.87Y-91.99
X122.58Y-101.68
X124.02Y-109.99
X126.24Y-109.01
X132.91Y-96.58
X132.91Y-98.58
X132.91Y-101.08
X132.91Y-101.58
X132.92Y-103.58
X135.61Y-107.68
X135.64Y-98.0
X135.64Y-102.66
X138.22Y-104.17
X138.65Y-88.88
X139.23Y-92.77
X140.3Y-98.0
X140.3Y-102.66
X140.72Y-95.28
X141.35Y-107.68
X143.03Y-97.08
X143.03Y-103.08
X146.63Y-105.89
X147.81Y-104.24
X148.48Y-87.43
X149.94Y-116.1
X151.862Y-110.03
X152.3Y-99.2
X152.3Y-100.0
X152.3Y-101.6
X152.3Y-102.4
X153.62Y-79.98
X153.9Y-99.2
X153.9Y-100.0
X153.9Y-101.6
X154.7Y-99.2
X154.7Y-100.0
X154.7Y-101.6
X155.34Y-79.98
X155.61Y-87.75
X157.68Y-83.27
X157.69Y-80.3
X159.04Y-83.28
X159.05Y-80.3
X163.53Y-82.16
X164.98Y-85.94
X164.98Y-87.41
X164.98Y-88.87
X175.37Y-85.95
X175.37Y-87.41
X175.37Y-88.87
X181.3Y-82.07
X183.19Y-81.19
X185.11Y-81.19
M30
