M48
; DRILL file {KiCad 9.0.3} date 2025-11-22T18:35:34-0500
; FORMAT={-:-/ absolute / metric / decimal}
; #@! TF.CreationDate,2025-11-22T18:35:34-05:00
; #@! TF.GenerationSoftware,Kicad,Pcbnew,9.0.3
; #@! TF.FileFunction,Plated,1,3,Blind
FMAT,2
METRIC
; #@! TA.AperFunction,Plated,Buried,ViaDrill
T1C0.200
%
G90
G05
T1
X117.0Y-106.8
X134.13Y-97.08
X146.054Y-99.575
X146.61Y-101.58
X148.48Y-98.775
X149.1Y-103.2
X149.9Y-103.2
X149.943Y-111.227
X150.4Y-92.0
X150.4Y-93.2
X150.7Y-97.6
X150.7Y-99.2
X150.7Y-100.0
X150.7Y-101.6
X150.7Y-103.2
X151.5Y-97.6
X153.47Y-81.63
X153.9Y-104.0
X154.7Y-97.6
X155.1Y-104.9
X155.5Y-103.2
X156.3Y-97.6
X156.3Y-98.4
X156.3Y-99.2
X156.3Y-101.6
X156.3Y-102.4
X157.2Y-105.325
X160.6Y-106.7
X161.7Y-106.5
X162.8Y-106.3
X163.9Y-106.1
X165.0Y-105.9
X166.65Y-106.2
X168.3Y-106.5
X169.4Y-106.311
X182.8Y-89.0
M30
